<?xml version="1.0" encoding="us-ascii" standalone="no"?><svg xmlns="http://www.w3.org/2000/svg" xmlns:xlink="http://www.w3.org/1999/xlink" contentStyleType="text/css" height="688px" preserveAspectRatio="none" style="width:1697px;height:688px;background:#FFFFFF;" version="1.1" viewBox="0 0 1697 688" width="1697px" zoomAndPan="magnify"><defs/><g><!--cluster UserModel--><g id="cluster_UserModel"><path d="M8.5,6 L85.5,6 A3.75,3.75 0 0 1 88,8.5 L95,28.4883 L1265.5,28.4883 A2.5,2.5 0 0 1 1268,30.9883 L1268,530.85 A2.5,2.5 0 0 1 1265.5,533.35 L8.5,533.35 A2.5,2.5 0 0 1 6,530.85 L6,8.5 A2.5,2.5 0 0 1 8.5,6 " fill="#FDE8FF" style="stroke:#000000;stroke-width:1.5;"/><line style="stroke:#000000;stroke-width:1.5;" x1="6" x2="95" y1="28.4883" y2="28.4883"/><text fill="#000000" font-family="sans-serif" font-size="14" font-weight="bold" lengthAdjust="spacing" textLength="76" x="10" y="21.5352">UserModel</text></g><!--cluster UserTraits--><g id="cluster_UserTraits"><path d="M213.5,582.35 L289.5,582.35 A3.75,3.75 0 0 1 292,584.85 L299,604.8383 L334.5,604.8383 A2.5,2.5 0 0 1 337,607.3383 L337,678.85 A2.5,2.5 0 0 1 334.5,681.35 L213.5,681.35 A2.5,2.5 0 0 1 211,678.85 L211,584.85 A2.5,2.5 0 0 1 213.5,582.35 " fill="none" style="stroke:#000000;stroke-width:1.5;"/><line style="stroke:#000000;stroke-width:1.5;" x1="211" x2="299" y1="604.8383" y2="604.8383"/><text fill="#000000" font-family="sans-serif" font-size="14" font-weight="bold" lengthAdjust="spacing" textLength="75" x="215" y="597.8852">UserTraits</text></g><!--cluster Metrics_and_Measurements--><g id="cluster_Metrics_and_Measurements"><path d="M1294.5,384.89 L1493.5,384.89 A3.75,3.75 0 0 1 1496,387.39 L1503,407.3783 L1503.5,407.3783 A2.5,2.5 0 0 1 1506,409.8783 L1506,481.39 A2.5,2.5 0 0 1 1503.5,483.89 L1294.5,483.89 A2.5,2.5 0 0 1 1292,481.39 L1292,387.39 A2.5,2.5 0 0 1 1294.5,384.89 " fill="none" style="stroke:#000000;stroke-width:1.5;"/><line style="stroke:#000000;stroke-width:1.5;" x1="1292" x2="1503" y1="407.3783" y2="407.3783"/><text fill="#000000" font-family="sans-serif" font-size="14" font-weight="bold" lengthAdjust="spacing" textLength="198" x="1296" y="400.4252">Metrics_and_Measurements</text></g><!--cluster Program_and_Tasks--><g id="cluster_Program_and_Tasks"><path d="M1532.5,384.89 L1677.5,384.89 A3.75,3.75 0 0 1 1680,387.39 L1687,407.3783 L1687.5,407.3783 A2.5,2.5 0 0 1 1690,409.8783 L1690,481.39 A2.5,2.5 0 0 1 1687.5,483.89 L1532.5,483.89 A2.5,2.5 0 0 1 1530,481.39 L1530,387.39 A2.5,2.5 0 0 1 1532.5,384.89 " fill="none" style="stroke:#000000;stroke-width:1.5;"/><line style="stroke:#000000;stroke-width:1.5;" x1="1530" x2="1687" y1="407.3783" y2="407.3783"/><text fill="#000000" font-family="sans-serif" font-size="14" font-weight="bold" lengthAdjust="spacing" textLength="144" x="1534" y="400.4252">Program_and_Tasks</text></g><!--class User--><g id="elem_User"><rect codeLine="3" fill="#F59BFF" height="80.9766" id="User" rx="2.5" ry="2.5" style="stroke:#181818;stroke-width:0.5;" width="306" x="40" y="195.96"/><ellipse cx="173.25" cy="211.96" fill="#ADD1B2" rx="11" ry="11" style="stroke:#181818;stroke-width:1.0;"/><path d="M175.7231,218.1031 Q175.1421,218.4019 174.5029,218.5513 Q173.8638,218.7007 173.1582,218.7007 Q170.6514,218.7007 169.3315,217.0489 Q168.0117,215.397 168.0117,212.2759 Q168.0117,209.1465 169.3315,207.4947 Q170.6514,205.8428 173.1582,205.8428 Q173.8638,205.8428 174.5112,205.9922 Q175.1587,206.1416 175.7231,206.4405 L175.7231,209.1631 Q175.0923,208.5821 174.4988,208.3123 Q173.9053,208.0425 173.2744,208.0425 Q171.9297,208.0425 171.2449,209.1092 Q170.5601,210.1758 170.5601,212.2759 Q170.5601,214.3677 171.2449,215.4344 Q171.9297,216.501 173.2744,216.501 Q173.9053,216.501 174.4988,216.2312 Q175.0923,215.9615 175.7231,215.3804 Z " fill="#000000"/><text fill="#000000" font-family="sans-serif" font-size="14" lengthAdjust="spacing" textLength="31" x="193.75" y="217.251">User</text><line style="stroke:#181818;stroke-width:0.5;" x1="41" x2="345" y1="227.96" y2="227.96"/><ellipse cx="51" cy="241.7041" fill="none" rx="3" ry="3" style="stroke:#038048;stroke-width:1.0;"/><text fill="#000000" font-family="sans-serif" font-size="14" lengthAdjust="spacing" textLength="39" x="60" y="245.4952">id: int</text><ellipse cx="51" cy="258.1924" fill="none" rx="3" ry="3" style="stroke:#038048;stroke-width:1.0;"/><text fill="#000000" font-family="sans-serif" font-size="14" lengthAdjust="spacing" textLength="280" x="60" y="261.9834">UserTraitWeights: List&lt;UserTraitWeight&gt;</text><line style="stroke:#181818;stroke-width:0.5;" x1="41" x2="345" y1="268.9366" y2="268.9366"/></g><!--class Program--><g id="elem_Program"><rect fill="#F1F1F1" height="48" id="Program" rx="2.5" ry="2.5" style="stroke:#181818;stroke-width:0.5;" width="91" x="534.5" y="419.89"/><ellipse cx="549.5" cy="435.89" fill="#ADD1B2" rx="11" ry="11" style="stroke:#181818;stroke-width:1.0;"/><path d="M551.9731,442.0331 Q551.3921,442.3319 550.7529,442.4813 Q550.1138,442.6307 549.4082,442.6307 Q546.9014,442.6307 545.5815,440.9789 Q544.2617,439.327 544.2617,436.2059 Q544.2617,433.0765 545.5815,431.4247 Q546.9014,429.7728 549.4082,429.7728 Q550.1138,429.7728 550.7612,429.9222 Q551.4087,430.0716 551.9731,430.3705 L551.9731,433.0931 Q551.3423,432.5121 550.7488,432.2423 Q550.1553,431.9725 549.5244,431.9725 Q548.1797,431.9725 547.4949,433.0392 Q546.8101,434.1058 546.8101,436.2059 Q546.8101,438.2977 547.4949,439.3644 Q548.1797,440.431 549.5244,440.431 Q550.1553,440.431 550.7488,440.1612 Q551.3423,439.8915 551.9731,439.3104 Z " fill="#000000"/><text fill="#000000" font-family="sans-serif" font-size="14" lengthAdjust="spacing" textLength="59" x="563.5" y="441.181">Program</text><line style="stroke:#181818;stroke-width:0.5;" x1="535.5" x2="624.5" y1="451.89" y2="451.89"/><line style="stroke:#181818;stroke-width:0.5;" x1="535.5" x2="624.5" y1="459.89" y2="459.89"/></g><!--class UserAction--><g id="elem_UserAction"><rect fill="#F1F1F1" height="48" id="UserAction" rx="2.5" ry="2.5" style="stroke:#181818;stroke-width:0.5;" width="107" x="30.5" y="419.89"/><ellipse cx="45.5" cy="435.89" fill="#ADD1B2" rx="11" ry="11" style="stroke:#181818;stroke-width:1.0;"/><path d="M47.9731,442.0331 Q47.3921,442.3319 46.7529,442.4813 Q46.1138,442.6307 45.4082,442.6307 Q42.9014,442.6307 41.5815,440.9789 Q40.2617,439.327 40.2617,436.2059 Q40.2617,433.0765 41.5815,431.4247 Q42.9014,429.7728 45.4082,429.7728 Q46.1138,429.7728 46.7612,429.9222 Q47.4087,430.0716 47.9731,430.3705 L47.9731,433.0931 Q47.3423,432.5121 46.7488,432.2423 Q46.1553,431.9725 45.5244,431.9725 Q44.1797,431.9725 43.4949,433.0392 Q42.8101,434.1058 42.8101,436.2059 Q42.8101,438.2977 43.4949,439.3644 Q44.1797,440.431 45.5244,440.431 Q46.1553,440.431 46.7488,440.1612 Q47.3423,439.8915 47.9731,439.3104 Z " fill="#000000"/><text fill="#000000" font-family="sans-serif" font-size="14" lengthAdjust="spacing" textLength="75" x="59.5" y="441.181">UserAction</text><line style="stroke:#181818;stroke-width:0.5;" x1="31.5" x2="136.5" y1="451.89" y2="451.89"/><line style="stroke:#181818;stroke-width:0.5;" x1="31.5" x2="136.5" y1="459.89" y2="459.89"/></g><!--class MotivationalState--><g id="elem_MotivationalState"><rect codeLine="11" fill="#F1F1F1" height="113.9531" id="MotivationalState" rx="2.5" ry="2.5" style="stroke:#181818;stroke-width:0.5;" width="192" x="914" y="179.47"/><ellipse cx="947.9" cy="195.47" fill="#ADD1B2" rx="11" ry="11" style="stroke:#181818;stroke-width:1.0;"/><path d="M950.3731,201.6131 Q949.7921,201.9119 949.1529,202.0613 Q948.5138,202.2107 947.8082,202.2107 Q945.3014,202.2107 943.9815,200.5589 Q942.6617,198.907 942.6617,195.7859 Q942.6617,192.6565 943.9815,191.0047 Q945.3014,189.3528 947.8082,189.3528 Q948.5138,189.3528 949.1612,189.5022 Q949.8087,189.6516 950.3731,189.9505 L950.3731,192.6731 Q949.7423,192.0921 949.1488,191.8223 Q948.5553,191.5525 947.9244,191.5525 Q946.5797,191.5525 945.8949,192.6192 Q945.2101,193.6858 945.2101,195.7859 Q945.2101,197.8777 945.8949,198.9444 Q946.5797,200.011 947.9244,200.011 Q948.5553,200.011 949.1488,199.7412 Q949.7423,199.4715 950.3731,198.8904 Z " fill="#000000"/><text fill="#000000" font-family="sans-serif" font-size="14" lengthAdjust="spacing" textLength="118" x="966.1" y="200.761">MotivationalState</text><line style="stroke:#181818;stroke-width:0.5;" x1="915" x2="1105" y1="211.47" y2="211.47"/><rect fill="none" height="6" style="stroke:#C82930;stroke-width:1.0;" width="6" x="922" y="222.2141"/><text fill="#000000" font-family="sans-serif" font-size="14" lengthAdjust="spacing" textLength="166" x="934" y="229.0052">state: MotivationalStates</text><line style="stroke:#181818;stroke-width:0.5;" x1="915" x2="1105" y1="235.9583" y2="235.9583"/><ellipse cx="925" cy="249.7024" fill="#84BE84" rx="3" ry="3" style="stroke:#038048;stroke-width:1.0;"/><text fill="#000000" font-family="sans-serif" font-size="14" lengthAdjust="spacing" textLength="117" x="934" y="253.4934">isHigh(): boolean</text><ellipse cx="925" cy="266.1907" fill="#84BE84" rx="3" ry="3" style="stroke:#038048;stroke-width:1.0;"/><text fill="#000000" font-family="sans-serif" font-size="14" lengthAdjust="spacing" textLength="140" x="934" y="269.9817">isMedium(): boolean</text><ellipse cx="925" cy="282.679" fill="#84BE84" rx="3" ry="3" style="stroke:#038048;stroke-width:1.0;"/><text fill="#000000" font-family="sans-serif" font-size="14" lengthAdjust="spacing" textLength="112" x="934" y="286.47">isLow(): boolean</text></g><!--class Metric--><g id="elem_Metric"><rect fill="#F1F1F1" height="48" id="Metric" rx="2.5" ry="2.5" style="stroke:#181818;stroke-width:0.5;" width="74" x="806" y="419.89"/><ellipse cx="821" cy="435.89" fill="#ADD1B2" rx="11" ry="11" style="stroke:#181818;stroke-width:1.0;"/><path d="M823.4731,442.0331 Q822.8921,442.3319 822.2529,442.4813 Q821.6138,442.6307 820.9082,442.6307 Q818.4014,442.6307 817.0815,440.9789 Q815.7617,439.327 815.7617,436.2059 Q815.7617,433.0765 817.0815,431.4247 Q818.4014,429.7728 820.9082,429.7728 Q821.6138,429.7728 822.2612,429.9222 Q822.9087,430.0716 823.4731,430.3705 L823.4731,433.0931 Q822.8423,432.5121 822.2488,432.2423 Q821.6553,431.9725 821.0244,431.9725 Q819.6797,431.9725 818.9949,433.0392 Q818.3101,434.1058 818.3101,436.2059 Q818.3101,438.2977 818.9949,439.3644 Q819.6797,440.431 821.0244,440.431 Q821.6553,440.431 822.2488,440.1612 Q822.8423,439.8915 823.4731,439.3104 Z " fill="#000000"/><text fill="#000000" font-family="sans-serif" font-size="14" lengthAdjust="spacing" textLength="42" x="835" y="441.181">Metric</text><line style="stroke:#181818;stroke-width:0.5;" x1="807" x2="879" y1="451.89" y2="451.89"/><line style="stroke:#181818;stroke-width:0.5;" x1="807" x2="879" y1="459.89" y2="459.89"/></g><!--class MotivationalMessage--><g id="elem_MotivationalMessage"><rect fill="#F1F1F1" height="48" id="MotivationalMessage" rx="2.5" ry="2.5" style="stroke:#181818;stroke-width:0.5;" width="175" x="746.5" y="47.73"/><ellipse cx="761.5" cy="63.73" fill="#ADD1B2" rx="11" ry="11" style="stroke:#181818;stroke-width:1.0;"/><path d="M763.9731,69.8731 Q763.3921,70.1719 762.7529,70.3213 Q762.1138,70.4707 761.4082,70.4707 Q758.9014,70.4707 757.5815,68.8189 Q756.2617,67.167 756.2617,64.0459 Q756.2617,60.9165 757.5815,59.2647 Q758.9014,57.6128 761.4082,57.6128 Q762.1138,57.6128 762.7612,57.7622 Q763.4087,57.9116 763.9731,58.2105 L763.9731,60.9331 Q763.3423,60.3521 762.7488,60.0823 Q762.1553,59.8125 761.5244,59.8125 Q760.1797,59.8125 759.4949,60.8792 Q758.8101,61.9458 758.8101,64.0459 Q758.8101,66.1377 759.4949,67.2044 Q760.1797,68.271 761.5244,68.271 Q762.1553,68.271 762.7488,68.0012 Q763.3423,67.7315 763.9731,67.1504 Z " fill="#000000"/><text fill="#000000" font-family="sans-serif" font-size="14" lengthAdjust="spacing" textLength="143" x="775.5" y="69.021">MotivationalMessage</text><line style="stroke:#181818;stroke-width:0.5;" x1="747.5" x2="920.5" y1="79.73" y2="79.73"/><line style="stroke:#181818;stroke-width:0.5;" x1="747.5" x2="920.5" y1="87.73" y2="87.73"/></g><g id="elem_Low"><rect fill="#F1F1F1" height="61.4648" style="stroke:#181818;stroke-width:0.5;" width="130" x="957" y="41"/><text fill="#000000" font-family="sans-serif" font-size="14" lengthAdjust="spacing" textLength="27" x="1008.5" y="56.5352">Low</text><line style="stroke:#181818;stroke-width:0.5;" x1="958" x2="1086" y1="61.4883" y2="61.4883"/><text fill="#000000" font-family="sans-serif" font-size="14" lengthAdjust="spacing" textLength="118" x="963" y="79.0234">MotivationalState</text><text fill="#000000" font-family="sans-serif" font-size="14" lengthAdjust="spacing" textLength="71" x="963" y="95.5117">userId = 1</text></g><g id="elem_Medium"><rect fill="#F1F1F1" height="61.4648" style="stroke:#181818;stroke-width:0.5;" width="130" x="1122" y="41"/><text fill="#000000" font-family="sans-serif" font-size="14" lengthAdjust="spacing" textLength="55" x="1159.5" y="56.5352">Medium</text><line style="stroke:#181818;stroke-width:0.5;" x1="1123" x2="1251" y1="61.4883" y2="61.4883"/><text fill="#000000" font-family="sans-serif" font-size="14" lengthAdjust="spacing" textLength="118" x="1128" y="79.0234">MotivationalState</text><text fill="#000000" font-family="sans-serif" font-size="14" lengthAdjust="spacing" textLength="71" x="1128" y="95.5117">userId = 1</text></g><g id="elem_High"><rect fill="#F1F1F1" height="61.4648" style="stroke:#181818;stroke-width:0.5;" width="130" x="581" y="41"/><text fill="#000000" font-family="sans-serif" font-size="14" lengthAdjust="spacing" textLength="32" x="630" y="56.5352">High</text><line style="stroke:#181818;stroke-width:0.5;" x1="582" x2="710" y1="61.4883" y2="61.4883"/><text fill="#000000" font-family="sans-serif" font-size="14" lengthAdjust="spacing" textLength="118" x="587" y="79.0234">MotivationalState</text><text fill="#000000" font-family="sans-serif" font-size="14" lengthAdjust="spacing" textLength="71" x="587" y="95.5117">userId = 1</text></g><!--class CognitiveLoadState--><g id="elem_CognitiveLoadState"><rect codeLine="38" fill="#F1F1F1" height="48" id="CognitiveLoadState" rx="2.5" ry="2.5" style="stroke:#181818;stroke-width:0.5;" width="164" x="381" y="212.44"/><ellipse cx="396" cy="228.44" fill="#ADD1B2" rx="11" ry="11" style="stroke:#181818;stroke-width:1.0;"/><path d="M398.4731,234.5831 Q397.8921,234.8819 397.2529,235.0313 Q396.6138,235.1807 395.9082,235.1807 Q393.4014,235.1807 392.0815,233.5289 Q390.7617,231.877 390.7617,228.7559 Q390.7617,225.6265 392.0815,223.9747 Q393.4014,222.3228 395.9082,222.3228 Q396.6138,222.3228 397.2612,222.4722 Q397.9087,222.6216 398.4731,222.9205 L398.4731,225.6431 Q397.8423,225.0621 397.2488,224.7923 Q396.6553,224.5225 396.0244,224.5225 Q394.6797,224.5225 393.9949,225.5892 Q393.3101,226.6558 393.3101,228.7559 Q393.3101,230.8477 393.9949,231.9144 Q394.6797,232.981 396.0244,232.981 Q396.6553,232.981 397.2488,232.7112 Q397.8423,232.4415 398.4731,231.8604 Z " fill="#000000"/><text fill="#000000" font-family="sans-serif" font-size="14" lengthAdjust="spacing" textLength="132" x="410" y="233.731">CognitiveLoadState</text><line style="stroke:#181818;stroke-width:0.5;" x1="382" x2="544" y1="244.44" y2="244.44"/><line style="stroke:#181818;stroke-width:0.5;" x1="382" x2="544" y1="252.44" y2="252.44"/></g><g id="elem_UnderchallengedState"><rect fill="#F1F1F1" height="61.4648" style="stroke:#181818;stroke-width:0.5;" width="165" x="380.5" y="41"/><text fill="#000000" font-family="sans-serif" font-size="14" lengthAdjust="spacing" textLength="151" x="387.5" y="56.5352">UnderchallengedState</text><line style="stroke:#181818;stroke-width:0.5;" x1="381.5" x2="544.5" y1="61.4883" y2="61.4883"/><text fill="#000000" font-family="sans-serif" font-size="14" lengthAdjust="spacing" textLength="132" x="386.5" y="79.0234">CognitiveLoadState</text><text fill="#000000" font-family="sans-serif" font-size="14" lengthAdjust="spacing" textLength="71" x="386.5" y="95.5117">userId = 1</text></g><g id="elem_OptimalLoadState"><rect fill="#F1F1F1" height="61.4648" style="stroke:#181818;stroke-width:0.5;" width="144" x="22" y="41"/><text fill="#000000" font-family="sans-serif" font-size="14" lengthAdjust="spacing" textLength="121" x="33.5" y="56.5352">OptimalLoadState</text><line style="stroke:#181818;stroke-width:0.5;" x1="23" x2="165" y1="61.4883" y2="61.4883"/><text fill="#000000" font-family="sans-serif" font-size="14" lengthAdjust="spacing" textLength="132" x="28" y="79.0234">CognitiveLoadState</text><text fill="#000000" font-family="sans-serif" font-size="14" lengthAdjust="spacing" textLength="71" x="28" y="95.5117">userId = 1</text></g><g id="elem_OverloadedState"><rect fill="#F1F1F1" height="61.4648" style="stroke:#181818;stroke-width:0.5;" width="144" x="201" y="41"/><text fill="#000000" font-family="sans-serif" font-size="14" lengthAdjust="spacing" textLength="113" x="216.5" y="56.5352">OverloadedState</text><line style="stroke:#181818;stroke-width:0.5;" x1="202" x2="344" y1="61.4883" y2="61.4883"/><text fill="#000000" font-family="sans-serif" font-size="14" lengthAdjust="spacing" textLength="132" x="207" y="79.0234">CognitiveLoadState</text><text fill="#000000" font-family="sans-serif" font-size="14" lengthAdjust="spacing" textLength="71" x="207" y="95.5117">userId = 1</text></g><!--class UserTraitWeight--><g id="elem_UserTraitWeight"><rect codeLine="65" fill="#F59BFF" height="146.9297" id="UserTraitWeight" rx="2.5" ry="2.5" style="stroke:#181818;stroke-width:0.5;" width="203" x="172.5" y="370.42"/><ellipse cx="214.95" cy="386.42" fill="#ADD1B2" rx="11" ry="11" style="stroke:#181818;stroke-width:1.0;"/><path d="M217.4231,392.5631 Q216.8421,392.8619 216.2029,393.0113 Q215.5638,393.1607 214.8582,393.1607 Q212.3514,393.1607 211.0315,391.5089 Q209.7117,389.857 209.7117,386.7359 Q209.7117,383.6065 211.0315,381.9547 Q212.3514,380.3028 214.8582,380.3028 Q215.5638,380.3028 216.2112,380.4522 Q216.8587,380.6016 217.4231,380.9005 L217.4231,383.6231 Q216.7923,383.0421 216.1988,382.7723 Q215.6053,382.5025 214.9744,382.5025 Q213.6297,382.5025 212.9449,383.5692 Q212.2601,384.6358 212.2601,386.7359 Q212.2601,388.8277 212.9449,389.8944 Q213.6297,390.961 214.9744,390.961 Q215.6053,390.961 216.1988,390.6912 Q216.7923,390.4215 217.4231,389.8404 Z " fill="#000000"/><text fill="#000000" font-family="sans-serif" font-size="14" lengthAdjust="spacing" textLength="110" x="235.05" y="391.711">UserTraitWeight</text><line style="stroke:#181818;stroke-width:0.5;" x1="173.5" x2="374.5" y1="402.42" y2="402.42"/><ellipse cx="183.5" cy="416.1641" fill="none" rx="3" ry="3" style="stroke:#038048;stroke-width:1.0;"/><text fill="#000000" font-family="sans-serif" font-size="14" lengthAdjust="spacing" textLength="99" x="192.5" y="419.9552">trait: UserTrait</text><ellipse cx="183.5" cy="432.6524" fill="none" rx="3" ry="3" style="stroke:#038048;stroke-width:1.0;"/><text fill="#000000" font-family="sans-serif" font-size="14" lengthAdjust="spacing" textLength="69" x="192.5" y="436.4434">userId: int</text><ellipse cx="183.5" cy="449.1407" fill="none" rx="3" ry="3" style="stroke:#038048;stroke-width:1.0;"/><text fill="#000000" font-family="sans-serif" font-size="14" lengthAdjust="spacing" textLength="67" x="192.5" y="452.9317">traitId: int</text><ellipse cx="183.5" cy="465.629" fill="none" rx="3" ry="3" style="stroke:#038048;stroke-width:1.0;"/><text fill="#000000" font-family="sans-serif" font-size="14" lengthAdjust="spacing" textLength="133" x="192.5" y="469.42">userTrait: UserTrait</text><line style="stroke:#181818;stroke-width:0.5;" x1="173.5" x2="374.5" y1="476.3731" y2="476.3731"/><ellipse cx="183.5" cy="490.1173" fill="#84BE84" rx="3" ry="3" style="stroke:#038048;stroke-width:1.0;"/><text fill="#000000" font-family="sans-serif" font-size="14" lengthAdjust="spacing" textLength="177" x="192.5" y="493.9083">weight: float  ' (0.0 - 1.0) '</text><ellipse cx="183.5" cy="506.6055" fill="#84BE84" rx="3" ry="3" style="stroke:#038048;stroke-width:1.0;"/><text fill="#000000" font-family="sans-serif" font-size="14" lengthAdjust="spacing" textLength="177" x="192.5" y="510.3966">weight: float  ' (0.0 - 1.0) '</text></g><!--class UserTrait--><g id="elem_UserTrait"><rect fill="#F1F1F1" height="48" id="UserTrait" rx="2.5" ry="2.5" style="stroke:#181818;stroke-width:0.5;" width="95" x="226.5" y="617.35"/><ellipse cx="241.5" cy="633.35" fill="#ADD1B2" rx="11" ry="11" style="stroke:#181818;stroke-width:1.0;"/><path d="M243.9731,639.4931 Q243.3921,639.7919 242.7529,639.9413 Q242.1138,640.0907 241.4082,640.0907 Q238.9014,640.0907 237.5815,638.4389 Q236.2617,636.787 236.2617,633.6659 Q236.2617,630.5365 237.5815,628.8847 Q238.9014,627.2328 241.4082,627.2328 Q242.1138,627.2328 242.7612,627.3822 Q243.4087,627.5316 243.9731,627.8305 L243.9731,630.5531 Q243.3423,629.9721 242.7488,629.7023 Q242.1553,629.4325 241.5244,629.4325 Q240.1797,629.4325 239.4949,630.4992 Q238.8101,631.5658 238.8101,633.6659 Q238.8101,635.7577 239.4949,636.8244 Q240.1797,637.891 241.5244,637.891 Q242.1553,637.891 242.7488,637.6212 Q243.3423,637.3515 243.9731,636.7704 Z " fill="#000000"/><text fill="#000000" font-family="sans-serif" font-size="14" lengthAdjust="spacing" textLength="63" x="255.5" y="638.641">UserTrait</text><line style="stroke:#181818;stroke-width:0.5;" x1="227.5" x2="320.5" y1="649.35" y2="649.35"/><line style="stroke:#181818;stroke-width:0.5;" x1="227.5" x2="320.5" y1="657.35" y2="657.35"/></g><!--class Adherence--><g id="elem_Adherence"><rect fill="#F1F1F1" height="48" id="Adherence" rx="2.5" ry="2.5" style="stroke:#181818;stroke-width:0.5;" width="106" x="1308" y="419.89"/><ellipse cx="1323" cy="435.89" fill="#ADD1B2" rx="11" ry="11" style="stroke:#181818;stroke-width:1.0;"/><path d="M1325.4731,442.0331 Q1324.8921,442.3319 1324.2529,442.4813 Q1323.6138,442.6307 1322.9082,442.6307 Q1320.4014,442.6307 1319.0815,440.9789 Q1317.7617,439.327 1317.7617,436.2059 Q1317.7617,433.0765 1319.0815,431.4247 Q1320.4014,429.7728 1322.9082,429.7728 Q1323.6138,429.7728 1324.2612,429.9222 Q1324.9087,430.0716 1325.4731,430.3705 L1325.4731,433.0931 Q1324.8423,432.5121 1324.2488,432.2423 Q1323.6553,431.9725 1323.0244,431.9725 Q1321.6797,431.9725 1320.9949,433.0392 Q1320.3101,434.1058 1320.3101,436.2059 Q1320.3101,438.2977 1320.9949,439.3644 Q1321.6797,440.431 1323.0244,440.431 Q1323.6553,440.431 1324.2488,440.1612 Q1324.8423,439.8915 1325.4731,439.3104 Z " fill="#000000"/><text fill="#000000" font-family="sans-serif" font-size="14" lengthAdjust="spacing" textLength="74" x="1337" y="441.181">Adherence</text><line style="stroke:#181818;stroke-width:0.5;" x1="1309" x2="1413" y1="451.89" y2="451.89"/><line style="stroke:#181818;stroke-width:0.5;" x1="1309" x2="1413" y1="459.89" y2="459.89"/></g><!--class Program--><g id="elem_Program"><rect fill="#F1F1F1" height="48" id="Program" rx="2.5" ry="2.5" style="stroke:#181818;stroke-width:0.5;" width="91" x="1546.5" y="419.89"/><ellipse cx="1561.5" cy="435.89" fill="#ADD1B2" rx="11" ry="11" style="stroke:#181818;stroke-width:1.0;"/><path d="M1563.9731,442.0331 Q1563.3921,442.3319 1562.7529,442.4813 Q1562.1138,442.6307 1561.4082,442.6307 Q1558.9014,442.6307 1557.5815,440.9789 Q1556.2617,439.327 1556.2617,436.2059 Q1556.2617,433.0765 1557.5815,431.4247 Q1558.9014,429.7728 1561.4082,429.7728 Q1562.1138,429.7728 1562.7612,429.9222 Q1563.4087,430.0716 1563.9731,430.3705 L1563.9731,433.0931 Q1563.3423,432.5121 1562.7488,432.2423 Q1562.1553,431.9725 1561.5244,431.9725 Q1560.1797,431.9725 1559.4949,433.0392 Q1558.8101,434.1058 1558.8101,436.2059 Q1558.8101,438.2977 1559.4949,439.3644 Q1560.1797,440.431 1561.5244,440.431 Q1562.1553,440.431 1562.7488,440.1612 Q1563.3423,439.8915 1563.9731,439.3104 Z " fill="#000000"/><text fill="#000000" font-family="sans-serif" font-size="14" lengthAdjust="spacing" textLength="59" x="1575.5" y="441.181">Program</text><line style="stroke:#181818;stroke-width:0.5;" x1="1547.5" x2="1636.5" y1="451.89" y2="451.89"/><line style="stroke:#181818;stroke-width:0.5;" x1="1547.5" x2="1636.5" y1="459.89" y2="459.89"/></g><!--link User to Program--><g id="link_User_Program"><path codeLine="8" d="M268.08,277.3 C347.65,319.54 465.3305,382.0066 530.5605,416.6366 " fill="none" id="User-to-Program" style="stroke:#181818;stroke-width:1.0;"/><polygon fill="#181818" points="535.86,419.45,529.7864,411.6968,531.4438,417.1055,526.0351,418.7628,535.86,419.45" style="stroke:#181818;stroke-width:1.0;"/><text fill="#000000" font-family="sans-serif" font-size="13" lengthAdjust="spacing" textLength="22" x="387.5" y="336.9884">has</text></g><!--link User to UserAction--><g id="link_User_UserAction"><path codeLine="9" d="M171.98,277.05 C149.59,319.26 117.6926,379.3801 99.2726,414.0901 " fill="none" id="User-to-UserAction" style="stroke:#181818;stroke-width:1.0;"/><polygon fill="#181818" points="96.46,419.39,104.2122,413.3151,98.8038,414.9734,97.1456,409.565,96.46,419.39" style="stroke:#181818;stroke-width:1.0;"/><text fill="#000000" font-family="sans-serif" font-size="13" lengthAdjust="spacing" textLength="57" x="146.03" y="336.9884">performs</text></g><!--link MotivationalState to Metric--><g id="link_MotivationalState_Metric"><path codeLine="18" d="M919.89,293.82 C909.3,302.86 899.32,312.78 891,323.42 C868.15,352.65 856.2473,388.3898 849.6473,413.9998 " fill="none" id="MotivationalState-to-Metric" style="stroke:#181818;stroke-width:1.0;"/><polygon fill="#181818" points="848.15,419.81,854.2695,412.093,849.3978,414.9682,846.5226,410.0965,848.15,419.81" style="stroke:#181818;stroke-width:1.0;"/><text fill="#000000" font-family="sans-serif" font-size="13" lengthAdjust="spacing" textLength="98" x="892" y="336.9884">calculated from</text></g><!--link MotivationalState to Program--><g id="link_MotivationalState_Program"><path codeLine="19" d="M913.59,267.38 C869.81,282.24 817.91,301.67 773,323.42 C714.13,351.94 655.4006,390.3056 617.9006,416.1456 " fill="none" id="MotivationalState-to-Program" style="stroke:#181818;stroke-width:1.0;"/><polygon fill="#181818" points="612.96,419.55,622.6406,417.7371,617.0772,416.713,618.1013,411.1496,612.96,419.55" style="stroke:#181818;stroke-width:1.0;"/><text fill="#000000" font-family="sans-serif" font-size="13" lengthAdjust="spacing" textLength="98" x="774" y="336.9884">calculated from</text></g><!--link MotivationalMessage to MotivationalState--><g id="link_MotivationalMessage_MotivationalState"><path codeLine="20" d="M838.1,96 C841.97,112.42 849.16,134.14 862,149.47 C876.21,166.44 889.5965,177.6389 908.6465,189.4989 " fill="none" id="MotivationalMessage-to-MotivationalState" style="stroke:#181818;stroke-width:1.0;"/><polygon fill="#181818" points="913.74,192.67,908.2138,184.5177,909.4954,190.0274,903.9856,191.309,913.74,192.67" style="stroke:#181818;stroke-width:1.0;"/><text fill="#000000" font-family="sans-serif" font-size="13" lengthAdjust="spacing" textLength="144" x="863" y="146.0384">selectedByCurrentState</text></g><!--link Low to MotivationalState--><g id="link_Low_MotivationalState"><path codeLine="25" d="M1019.77,102.96 C1018.2,124.28 1016.4801,147.4962 1014.6001,173.0562 " fill="none" id="Low-to-MotivationalState" style="stroke:#181818;stroke-width:1.0;"/><polygon fill="#181818" points="1014.16,179.04,1018.8094,170.3577,1014.5268,174.0535,1010.831,169.7708,1014.16,179.04" style="stroke:#181818;stroke-width:1.0;"/><text fill="#000000" font-family="sans-serif" font-size="13" lengthAdjust="spacing" textLength="70" x="1018.43" y="146.0384">instance of</text></g><!--link Medium to MotivationalState--><g id="link_Medium_MotivationalState"><path codeLine="30" d="M1154.12,102.96 C1130.93,124.28 1103.5776,149.4198 1075.7676,174.9798 " fill="none" id="Medium-to-MotivationalState" style="stroke:#181818;stroke-width:1.0;"/><polygon fill="#181818" points="1071.35,179.04,1080.6832,175.8948,1075.0313,175.6565,1075.2696,170.0047,1071.35,179.04" style="stroke:#181818;stroke-width:1.0;"/><text fill="#000000" font-family="sans-serif" font-size="13" lengthAdjust="spacing" textLength="70" x="1120.56" y="146.0384">instance of</text></g><!--link High to MotivationalState--><g id="link_High_MotivationalState"><path codeLine="35" d="M690.16,102.92 C713.54,118.1 743.11,136.07 771,149.47 C816.61,171.38 863.6624,189.0192 907.9824,203.9092 " fill="none" id="High-to-MotivationalState" style="stroke:#181818;stroke-width:1.0;"/><polygon fill="#181818" points="913.67,205.82,906.4125,199.162,908.9303,204.2276,903.8647,206.7455,913.67,205.82" style="stroke:#181818;stroke-width:1.0;"/><text fill="#000000" font-family="sans-serif" font-size="13" lengthAdjust="spacing" textLength="70" x="772" y="146.0384">instance of</text></g><!--link CognitiveLoadState to Metric--><g id="link_CognitiveLoadState_Metric"><path codeLine="41" d="M477.36,260.77 C492.84,284.07 519.53,319.37 551,340.42 C586.75,364.33 602.33,356.43 643,370.42 C699.92,390.01 759.8145,411.9434 799.9045,426.8134 " fill="none" id="CognitiveLoadState-to-Metric" style="stroke:#181818;stroke-width:1.0;"/><polygon fill="#181818" points="805.53,428.9,798.4828,422.0198,800.8421,427.1612,795.7007,429.5205,805.53,428.9" style="stroke:#181818;stroke-width:1.0;"/><text fill="#000000" font-family="sans-serif" font-size="13" lengthAdjust="spacing" textLength="98" x="552" y="336.9884">calculated from</text></g><!--link UnderchallengedState to CognitiveLoadState--><g id="link_UnderchallengedState_CognitiveLoadState"><path codeLine="46" d="M463,102.96 C463,134.48 463,177.23 463,205.97 " fill="none" id="UnderchallengedState-to-CognitiveLoadState" style="stroke:#181818;stroke-width:1.0;"/><polygon fill="#181818" points="463,211.97,467,202.97,463,206.97,459,202.97,463,211.97" style="stroke:#181818;stroke-width:1.0;"/><text fill="#000000" font-family="sans-serif" font-size="13" lengthAdjust="spacing" textLength="70" x="464" y="146.0384">instance of</text></g><!--link OptimalLoadState to CognitiveLoadState--><g id="link_OptimalLoadState_CognitiveLoadState"><path codeLine="51" d="M156.14,102.92 C188.24,117.92 228.28,135.73 265,149.47 C308.06,165.58 321.73,161.38 364,179.47 C385.42,188.63 402.9826,198.1572 421.2326,209.0872 " fill="none" id="OptimalLoadState-to-CognitiveLoadState" style="stroke:#181818;stroke-width:1.0;"/><polygon fill="#181818" points="426.38,212.17,420.7141,204.1141,422.0905,209.601,416.6036,210.9774,426.38,212.17" style="stroke:#181818;stroke-width:1.0;"/><text fill="#000000" font-family="sans-serif" font-size="13" lengthAdjust="spacing" textLength="70" x="266" y="146.0384">instance of</text></g><!--link OverloadedState to CognitiveLoadState--><g id="link_OverloadedState_CognitiveLoadState"><path codeLine="56" d="M308.29,102.96 C345.1,134.48 397.4622,179.3279 431.0322,208.0679 " fill="none" id="OverloadedState-to-CognitiveLoadState" style="stroke:#181818;stroke-width:1.0;"/><polygon fill="#181818" points="435.59,211.97,431.3546,203.0783,431.7918,208.7183,426.1519,209.1555,435.59,211.97" style="stroke:#181818;stroke-width:1.0;"/><text fill="#000000" font-family="sans-serif" font-size="13" lengthAdjust="spacing" textLength="70" x="363.3" y="146.0384">instance of</text></g><!--link User to UserTraitWeight--><g id="link_User_UserTraitWeight"><path codeLine="63" d="M208.62,277.05 C219.01,303.41 230.7596,333.218 243.1096,364.548 " fill="none" id="User-to-UserTraitWeight" style="stroke:#181818;stroke-width:1.0;"/><polygon fill="#181818" points="245.31,370.13,245.7308,360.2901,243.4764,365.4784,238.2881,363.224,245.31,370.13" style="stroke:#181818;stroke-width:1.0;"/><text fill="#000000" font-family="sans-serif" font-size="13" lengthAdjust="spacing" textLength="22" x="234.5" y="336.9884">has</text><text fill="#000000" font-family="sans-serif" font-size="13" lengthAdjust="spacing" textLength="22" x="219.403" y="359.7151">0..*</text></g><!--link UserTraitWeight to UserTrait--><g id="link_UserTraitWeight_UserTrait"><path codeLine="72" d="M274,517.67 C274,552.84 274,586.62 274,611.1 " fill="none" id="UserTraitWeight-to-UserTrait" style="stroke:#181818;stroke-width:1.0;"/><polygon fill="#181818" points="274,617.1,278,608.1,274,612.1,270,608.1,274,617.1" style="stroke:#181818;stroke-width:1.0;"/><text fill="#000000" font-family="sans-serif" font-size="13" lengthAdjust="spacing" textLength="65" x="275" y="562.9184">references</text></g><!--link MotivationalState to Adherence--><g id="link_MotivationalState_Adherence"><path codeLine="73" d="M1106.41,281.83 C1155.93,305.94 1216.52,337.51 1268,370.42 C1291.28,385.31 1311.2515,400.81 1329.2915,415.77 " fill="none" id="MotivationalState-to-Adherence" style="stroke:#181818;stroke-width:1.0;"/><polygon fill="#181818" points="1333.91,419.6,1329.5355,410.7759,1330.0612,416.4083,1324.4288,416.934,1333.91,419.6" style="stroke:#181818;stroke-width:1.0;"/><text fill="#000000" font-family="sans-serif" font-size="13" lengthAdjust="spacing" textLength="78" x="1214.49" y="336.9884">derivedFrom</text></g><!--link MotivationalState to Program--><g id="link_MotivationalState_Program"><path codeLine="74" d="M1106.17,263.24 C1192.29,287.43 1321.37,326.4 1430,370.42 C1469.69,386.5 1508.5932,403.9735 1540.8432,418.8735 " fill="none" id="MotivationalState-to-Program-1" style="stroke:#181818;stroke-width:1.0;"/><polygon fill="#181818" points="1546.29,421.39,1539.7975,413.9841,1541.751,419.2929,1536.4422,421.2464,1546.29,421.39" style="stroke:#181818;stroke-width:1.0;"/><text fill="#000000" font-family="sans-serif" font-size="13" lengthAdjust="spacing" textLength="78" x="1340.72" y="336.9884">derivedFrom</text></g><!--SRC=[dLLDQzmm4BtlhnZSGvAMDPj3eJ5j80sK5jQqq8GUWzOQUzN8rYB92INaltSaVtzra_gmQxqtclTcB8yFBBbd6SAjGHqhZXBUf1m_f7J1qse5a4XcZAU9UN-nypZGzKxm24HXguKBkD5Cs5yeihqr4Mo5iHz7y2K5FxkiFjzwVGa_jCeqoo62OCzCqAVSpLLYXIeSUq2TAfrJI6igLbOyC1V0v4_BBC8JU3ThC6uPJIDCvHQ4-Kf-JiyYs2abaHKj7YCNPJx7RDNZ4FQLJ4quxp5QBHBdEs4oAINX75Ajyc1nIwyJH_R4Q8nxPbveaels6vIOqExFVwvBhR6mdl6TKxlVH07LGWlwXPacjKn9J-0RXqzmNaEBYgAWZXS9WahxCbKpdNr_io3MaWEz6dsjf7kkj79_2t8rDH3ps0kbslDthR92K3Xk5UFr0MoEnGntv5nq9TmM77MoPr9YaI5lVC_1b6cgj1mxg7asnfcSyRxSx-y7At8c- -9ZQCdaJDp0u8H_lRa7r9BYkYQEa4Lhax2Xin7zScFTEEsDnV5ajOwAkgWAVVIn4QIaR05Eu7GJRcZMdOURCpYPJDPW4uPlWubKCsYFUQcjL6Nt1httDa3A9i7_E7vUjL-USEoa-GXup7Iqgq5ZYZJP4gHIkWp_6iRcZXNyBaPcIeqv3KKJNl5zbSHbf9U17Xx_ub_6OodhOUrJtZ1pRyBU-Evd-Wi0]--></g></svg>