<?xml version="1.0" encoding="us-ascii" standalone="no"?><svg xmlns="http://www.w3.org/2000/svg" xmlns:xlink="http://www.w3.org/1999/xlink" contentStyleType="text/css" height="378px" preserveAspectRatio="none" style="width:886px;height:378px;background:#FFFFFF;" version="1.1" viewBox="0 0 886 378" width="886px" zoomAndPan="magnify"><defs/><g><!--cluster AssistantActions--><g id="cluster_AssistantActions"><rect fill="#E8E8FF" height="365" rx="2.5" ry="2.5" style="stroke:#000000;stroke-width:1.5;" width="873" x="7" y="7"/><text fill="#000000" font-family="sans-serif" font-size="14" font-weight="bold" lengthAdjust="spacing" textLength="35" x="426" y="22.5352">AssistantActions</text></g><!--class AssistantAction--><g id="elem_AssistantAction"><rect codeLine="11" fill="#CACAFF" height="32" id="AssistantAction" rx="2.5" ry="2.5" style="stroke:#181818;stroke-width:0.5;" width="59" x="23" y="180"/><ellipse cx="38" cy="196" fill="#ADD1B2" rx="11" ry="11" style="stroke:#181818;stroke-width:1.0;"/><path d="M40.4731,202.1431 Q39.8921,202.4419 39.2529,202.5913 Q38.6138,202.7407 37.9082,202.7407 Q35.4014,202.7407 34.0815,201.0889 Q32.7617,199.437 32.7617,196.3159 Q32.7617,193.1865 34.0815,191.5347 Q35.4014,189.8828 37.9082,189.8828 Q38.6138,189.8828 39.2612,190.0322 Q39.9087,190.1816 40.4731,190.4805 L40.4731,193.2031 Q39.8423,192.6221 39.2488,192.3523 Q38.6553,192.0825 38.0244,192.0825 Q36.6797,192.0825 35.9949,193.1492 Q35.3101,194.2158 35.3101,196.3159 Q35.3101,198.4077 35.9949,199.4744 Q36.6797,200.541 38.0244,200.541 Q38.6553,200.541 39.2488,200.2712 Q39.8423,200.0015 40.4731,199.4204 Z " fill="#000000"/><text fill="#000000" font-family="sans-serif" font-size="14" lengthAdjust="spacing" textLength="27" x="52" y="201.291">AssistantAction</text></g><g id="elem_GMN4"><path d="M122,251.69 L122,292.3111 L437,292.3111 L437,261.69 L427,251.69 L122,251.69 " fill="#FEFFDD" style="stroke:#181818;stroke-width:0.5;"/><path d="M427,251.69 L427,261.69 L437,261.69 L427,251.69 " fill="#FEFFDD" style="stroke:#181818;stroke-width:1.0;"/><text fill="#000000" font-family="sans-serif" font-size="13" lengthAdjust="spacing" textLength="294" x="128" y="269.2584">One-off AssistantAction: activates/deactivates a mechanic</text><text fill="#000000" font-family="sans-serif" font-size="13" lengthAdjust="spacing" textLength="229" x="128" y="284.5689">or prompts another user interaction.</text></g><!--class Questionnaire--><g id="elem_Questionnaire"><rect codeLine="17" fill="#D6D6FF" height="32" id="Questionnaire" rx="2.5" ry="2.5" style="stroke:#181818;stroke-width:0.5;" width="129" x="215" y="180"/><ellipse cx="230" cy="196" fill="#ADD1B2" rx="11" ry="11" style="stroke:#181818;stroke-width:1.0;"/><path d="M232.4731,202.1431 Q231.8921,202.4419 231.2529,202.5913 Q230.6138,202.7407 229.9082,202.7407 Q227.4014,202.7407 226.0815,201.0889 Q224.7617,199.437 224.7617,196.3159 Q224.7617,193.1865 226.0815,191.5347 Q227.4014,189.8828 229.9082,189.8828 Q230.6138,189.8828 231.2612,190.0322 Q231.9087,190.1816 232.4731,190.4805 L232.4731,193.2031 Q231.8423,192.6221 231.2488,192.3523 Q230.6553,192.0825 230.0244,192.0825 Q228.6797,192.0825 227.9949,193.1492 Q227.3101,194.2158 227.3101,196.3159 Q227.3101,198.4077 227.9949,199.4744 Q228.6797,200.541 230.0244,200.541 Q230.6553,200.541 231.2488,200.2712 Q231.8423,200.0015 232.4731,199.4204 Z " fill="#000000"/><text fill="#000000" font-family="sans-serif" font-size="14" lengthAdjust="spacing" textLength="97" x="244" y="201.291">Questionnaire</text></g><!--class AlertMessage--><g id="elem_AlertMessage"><rect codeLine="18" fill="#D6D6FF" height="32" id="AlertMessage" rx="2.5" ry="2.5" style="stroke:#181818;stroke-width:0.5;" width="124" x="217.5" y="75"/><ellipse cx="232.5" cy="91" fill="#ADD1B2" rx="11" ry="11" style="stroke:#181818;stroke-width:1.0;"/><path d="M234.9731,97.1431 Q234.3921,97.4419 233.7529,97.5913 Q233.1138,97.7407 232.4082,97.7407 Q229.9014,97.7407 228.5815,96.0889 Q227.2617,94.437 227.2617,91.3159 Q227.2617,88.1865 228.5815,86.5347 Q229.9014,84.8828 232.4082,84.8828 Q233.1138,84.8828 233.7612,85.0322 Q234.4087,85.1816 234.9731,85.4805 L234.9731,88.2031 Q234.3423,87.6221 233.7488,87.3523 Q233.1553,87.0825 232.5244,87.0825 Q231.1797,87.0825 230.4949,88.1492 Q229.8101,89.2158 229.8101,91.3159 Q229.8101,93.4077 230.4949,94.4744 Q231.1797,95.541 232.5244,95.541 Q233.1553,95.541 233.7488,95.2712 Q234.3423,95.0015 234.9731,94.4204 Z " fill="#000000"/><text fill="#000000" font-family="sans-serif" font-size="14" lengthAdjust="spacing" textLength="92" x="246.5" y="96.291">AlertMessage</text></g><g id="elem_GMN11"><path d="M477,42.34 L477,67.6505 A0,0 0 0 0 477,67.6505 L523.57,67.6505 L341.71,85.34 L531.57,67.6505 L864,67.6505 A0,0 0 0 0 864,67.6505 L864,52.34 L854,42.34 L477,42.34 A0,0 0 0 0 477,42.34 " fill="#FEFFDD" style="stroke:#181818;stroke-width:0.5;"/><path d="M854,42.34 L854,52.34 L864,52.34 L854,42.34 " fill="#FEFFDD" style="stroke:#181818;stroke-width:0.5;"/><text fill="#000000" font-family="sans-serif" font-size="13" lengthAdjust="spacing" textLength="366" x="483" y="59.9084">General info, warnings, or alerts to guide or prompt users.</text></g><!--class Intrinsic_Motivation_Inventory--><g id="elem_Intrinsic_Motivation_Inventory"><rect codeLine="23" fill="#D6D6FF" height="32" id="Intrinsic_Motivation_Inventory" rx="2.5" ry="2.5" style="stroke:#181818;stroke-width:0.5;" width="237" x="552" y="324"/><ellipse cx="567" cy="340" fill="#ADD1B2" rx="11" ry="11" style="stroke:#181818;stroke-width:1.0;"/><path d="M569.4731,346.1431 Q568.8921,346.4419 568.2529,346.5913 Q567.6138,346.7407 566.9082,346.7407 Q564.4014,346.7407 563.0815,345.0889 Q561.7617,343.437 561.7617,340.3159 Q561.7617,337.1865 563.0815,335.5347 Q564.4014,333.8828 566.9082,333.8828 Q567.6138,333.8828 568.2612,334.0322 Q568.9087,334.1816 569.4731,334.4805 L569.4731,337.2031 Q568.8423,336.6221 568.2488,336.3523 Q567.6553,336.0825 567.0244,336.0825 Q565.6797,336.0825 564.9949,337.1492 Q564.3101,338.2158 564.3101,340.3159 Q564.3101,342.4077 564.9949,343.4744 Q565.6797,344.541 567.0244,344.541 Q567.6553,344.541 568.2488,344.2712 Q568.8423,344.0015 569.4731,343.4204 Z " fill="#000000"/><text fill="#000000" font-family="sans-serif" font-size="14" lengthAdjust="spacing" textLength="205" x="581" y="345.291">Intrinsic_Motivation_Inventory</text></g><!--class User_Engagement_Scale--><g id="elem_User_Engagement_Scale"><rect codeLine="24" fill="#D6D6FF" height="32" id="User_Engagement_Scale" rx="2.5" ry="2.5" style="stroke:#181818;stroke-width:0.5;" width="198" x="571.5" y="252"/><ellipse cx="586.5" cy="268" fill="#ADD1B2" rx="11" ry="11" style="stroke:#181818;stroke-width:1.0;"/><path d="M588.9731,274.1431 Q588.3921,274.4419 587.7529,274.5913 Q587.1138,274.7407 586.4082,274.7407 Q583.9014,274.7407 582.5815,273.0889 Q581.2617,271.437 581.2617,268.3159 Q581.2617,265.1865 582.5815,263.5347 Q583.9014,261.8828 586.4082,261.8828 Q587.1138,261.8828 587.7612,262.0322 Q588.4087,262.1816 588.9731,262.4805 L588.9731,265.2031 Q588.3423,264.6221 587.7488,264.3523 Q587.1553,264.0825 586.5244,264.0825 Q585.1797,264.0825 584.4949,265.1492 Q583.8101,266.2158 583.8101,268.3159 Q583.8101,270.4077 584.4949,271.4744 Q585.1797,272.541 586.5244,272.541 Q587.1553,272.541 587.7488,272.2712 Q588.3423,272.0015 588.9731,271.4204 Z " fill="#000000"/><text fill="#000000" font-family="sans-serif" font-size="14" lengthAdjust="spacing" textLength="166" x="600.5" y="273.291">User_Engagement_Scale</text></g><!--class SystemNotice--><g id="elem_SystemNotice"><rect codeLine="25" fill="#D6D6FF" height="32" id="SystemNotice" rx="2.5" ry="2.5" style="stroke:#181818;stroke-width:0.5;" width="123" x="609" y="180"/><ellipse cx="624" cy="196" fill="#ADD1B2" rx="11" ry="11" style="stroke:#181818;stroke-width:1.0;"/><path d="M626.4731,202.1431 Q625.8921,202.4419 625.2529,202.5913 Q624.6138,202.7407 623.9082,202.7407 Q621.4014,202.7407 620.0815,201.0889 Q618.7617,199.437 618.7617,196.3159 Q618.7617,193.1865 620.0815,191.5347 Q621.4014,189.8828 623.9082,189.8828 Q624.6138,189.8828 625.2612,190.0322 Q625.9087,190.1816 626.4731,190.4805 L626.4731,193.2031 Q625.8423,192.6221 625.2488,192.3523 Q624.6553,192.0825 624.0244,192.0825 Q622.6797,192.0825 621.9949,193.1492 Q621.3101,194.2158 621.3101,196.3159 Q621.3101,198.4077 621.9949,199.4744 Q622.6797,200.541 624.0244,200.541 Q624.6553,200.541 625.2488,200.2712 Q625.8423,200.0015 626.4731,199.4204 Z " fill="#000000"/><text fill="#000000" font-family="sans-serif" font-size="14" lengthAdjust="spacing" textLength="91" x="638" y="201.291">SystemNotice</text></g><!--class PromptMessage--><g id="elem_PromptMessage"><rect codeLine="26" fill="#D6D6FF" height="32" id="PromptMessage" rx="2.5" ry="2.5" style="stroke:#181818;stroke-width:0.5;" width="141" x="600" y="108"/><ellipse cx="615" cy="124" fill="#ADD1B2" rx="11" ry="11" style="stroke:#181818;stroke-width:1.0;"/><path d="M617.4731,130.1431 Q616.8921,130.4419 616.2529,130.5913 Q615.6138,130.7407 614.9082,130.7407 Q612.4014,130.7407 611.0815,129.0889 Q609.7617,127.437 609.7617,124.3159 Q609.7617,121.1865 611.0815,119.5347 Q612.4014,117.8828 614.9082,117.8828 Q615.6138,117.8828 616.2612,118.0322 Q616.9087,118.1816 617.4731,118.4805 L617.4731,121.2031 Q616.8423,120.6221 616.2488,120.3523 Q615.6553,120.0825 615.0244,120.0825 Q613.6797,120.0825 612.9949,121.1492 Q612.3101,122.2158 612.3101,124.3159 Q612.3101,126.4077 612.9949,127.4744 Q613.6797,128.541 615.0244,128.541 Q615.6553,128.541 616.2488,128.2712 Q616.8423,128.0015 617.4731,127.4204 Z " fill="#000000"/><text fill="#000000" font-family="sans-serif" font-size="14" lengthAdjust="spacing" textLength="109" x="629" y="129.291">PromptMessage</text></g><!--link AssistantAction to GMN4--><g id="link_AssistantAction_GMN4"><path d="M82.15,211.06 C100.92,220.92 122,232 122,232 C122,232 159.31,241.54 197.5,251.3 " fill="none" id="AssistantAction-GMN4" style="stroke:#181818;stroke-width:1.0;stroke-dasharray:7.0,7.0;"/></g><!--reverse link AssistantAction to Questionnaire--><g id="link_AssistantAction_Questionnaire"><path d="M100.45,196 C133.69,196 171.2,196 214.69,196 " fill="none" id="AssistantAction-backto-Questionnaire" style="stroke:#181818;stroke-width:1.0;"/><polygon fill="none" points="82.45,196,100.45,202,100.45,190,82.45,196" style="stroke:#181818;stroke-width:1.0;"/></g><!--reverse link AssistantAction to AlertMessage--><g id="link_AssistantAction_AlertMessage"><path d="M98.0852,172.5692 C116.8552,162.7092 122,160 122,160 C122,160 195.13,127.76 241.41,107.35 " fill="none" id="AssistantAction-backto-AlertMessage" style="stroke:#181818;stroke-width:1.0;"/><polygon fill="none" points="82.15,180.94,100.8754,177.8809,95.2949,167.2574,82.15,180.94" style="stroke:#181818;stroke-width:1.0;"/></g><!--reverse link Questionnaire to Intrinsic_Motivation_Inventory--><g id="link_Questionnaire_Intrinsic_Motivation_Inventory"><path d="M361.6916,214.6762 C405.0216,224.6462 437,232 437,232 C437,232 477,304 477,304 C477,304 530.73,314.05 581.42,323.53 " fill="none" id="Questionnaire-backto-Intrinsic_Motivation_Inventory" style="stroke:#181818;stroke-width:1.0;"/><polygon fill="none" points="344.15,210.64,360.3462,220.5234,363.037,208.829,344.15,210.64" style="stroke:#181818;stroke-width:1.0;"/></g><!--reverse link Questionnaire to User_Engagement_Scale--><g id="link_Questionnaire_User_Engagement_Scale"><path d="M361.9993,211.0863 C426.3393,222.9963 508.49,238.2 580.58,251.54 " fill="none" id="Questionnaire-backto-User_Engagement_Scale" style="stroke:#181818;stroke-width:1.0;"/><polygon fill="none" points="344.3,207.81,360.9072,216.9861,363.0914,205.1866,344.3,207.81" style="stroke:#181818;stroke-width:1.0;"/></g><!--reverse link Questionnaire to SystemNotice--><g id="link_Questionnaire_SystemNotice"><path d="M362.3,196 C435.48,196 536.59,196 608.55,196 " fill="none" id="Questionnaire-backto-SystemNotice" style="stroke:#181818;stroke-width:1.0;"/><polygon fill="none" points="344.3,196,362.3,202,362.3,190,344.3,196" style="stroke:#181818;stroke-width:1.0;"/></g><!--reverse link Questionnaire to PromptMessage--><g id="link_Questionnaire_PromptMessage"><path d="M361.9997,180.9156 C432.2697,167.9156 527.19,150.34 599.75,136.91 " fill="none" id="Questionnaire-backto-PromptMessage" style="stroke:#181818;stroke-width:1.0;"/><polygon fill="none" points="344.3,184.19,363.0911,186.8154,360.9082,175.0157,344.3,184.19" style="stroke:#181818;stroke-width:1.0;"/></g><!--SRC=[ZP7BQiD034Nt_Wf1jkbZKKBehfHIiaWVXAw3CfRj8RR6ZEIqflJVgt63IKWAsPZnbQvqxeniFRSOiO7QCsdV4hIXxjDFLlcSW9fMUsX8gv3BeOIgqMyw9JbkR3OK9QkfKD00qPULGkuZEVM1CndtSSX9g8MxsmCn8czFn1RT5ajQQLyJf478PKrPjjVXiIE12SrfNXJmdG6u6aMI31E73el2D0vAUvfGf9ff0AzCLy5ShgDxG4FSeGMwoMay0recLo5xDpX2X3O6oseLcrbHX4xiurafuX3osXg9ys5bDkAy6sMgCjfbm2IVvJDRJ5zghR87-kjyg2dgaaHIkFEDnsaE3GFaCx71r0PLX2byOcJFfKmJFAPUIKzJTkdPnZn333dFlc1xQnRlriimt8lbM2zuHwmXzYUCHr778HysV_t4fK4sPboldB5Sw5trejIys79tgULjIFNVDHvxVdu1]--></g></svg>