<?xml version="1.0" encoding="us-ascii" standalone="no"?><svg xmlns="http://www.w3.org/2000/svg" xmlns:xlink="http://www.w3.org/1999/xlink" contentStyleType="text/css" height="208px" preserveAspectRatio="none" style="width:565px;height:208px;background:#FFFFFF;" version="1.1" viewBox="0 0 565 208" width="565px" zoomAndPan="magnify"><defs/><g><!--cluster UserProfile--><g id="cluster_UserProfile"><rect fill="#FDE8FF" height="195" rx="2.5" ry="2.5" style="stroke:#000000;stroke-width:1.5;" width="552" x="7" y="7"/><text fill="#000000" font-family="sans-serif" font-size="14" font-weight="bold" lengthAdjust="spacing" textLength="80" x="243" y="22.5352">UserProfile</text></g><!--cluster UserTraits--><g id="cluster_UserTraits"><rect fill="#FAFEB7" height="83" rx="2.5" ry="2.5" style="stroke:#000000;stroke-width:1.5;" width="127" x="408" y="95"/><text fill="#000000" font-family="sans-serif" font-size="14" font-weight="bold" lengthAdjust="spacing" textLength="75" x="434" y="110.5352">UserTraits</text></g><!--class User--><g id="elem_User"><rect codeLine="17" fill="#F59BFF" height="32" id="User" rx="2.5" ry="2.5" style="stroke:#181818;stroke-width:0.5;" width="63" x="23" y="84"/><ellipse cx="38" cy="100" fill="#ADD1B2" rx="11" ry="11" style="stroke:#181818;stroke-width:1.0;"/><path d="M40.4731,106.1431 Q39.8921,106.4419 39.2529,106.5913 Q38.6138,106.7407 37.9082,106.7407 Q35.4014,106.7407 34.0815,105.0889 Q32.7617,103.437 32.7617,100.3159 Q32.7617,97.1865 34.0815,95.5347 Q35.4014,93.8828 37.9082,93.8828 Q38.6138,93.8828 39.2612,94.0322 Q39.9087,94.1816 40.4731,94.4805 L40.4731,97.2031 Q39.8423,96.6221 39.2488,96.3523 Q38.6553,96.0825 38.0244,96.0825 Q36.6797,96.0825 35.9949,97.1492 Q35.3101,98.2158 35.3101,100.3159 Q35.3101,102.4077 35.9949,103.4744 Q36.6797,104.541 38.0244,104.541 Q38.6553,104.541 39.2488,104.2712 Q39.8423,104.0015 40.4731,103.4204 Z " fill="#000000"/><text fill="#000000" font-family="sans-serif" font-size="14" lengthAdjust="spacing" textLength="31" x="52" y="105.291">User</text></g><!--class UserTraitMapping--><g id="elem_UserTraitMapping"><rect codeLine="19" fill="#F7BEFE" height="72.9766" id="UserTraitMapping" rx="2.5" ry="2.5" style="stroke:#181818;stroke-width:0.5;" width="155" x="150" y="113.51"/><ellipse cx="165" cy="129.51" fill="#ADD1B2" rx="11" ry="11" style="stroke:#181818;stroke-width:1.0;"/><path d="M167.4731,135.6531 Q166.8921,135.9519 166.2529,136.1013 Q165.6138,136.2507 164.9082,136.2507 Q162.4014,136.2507 161.0815,134.5989 Q159.7617,132.947 159.7617,129.8259 Q159.7617,126.6965 161.0815,125.0447 Q162.4014,123.3928 164.9082,123.3928 Q165.6138,123.3928 166.2612,123.5422 Q166.9087,123.6916 167.4731,123.9905 L167.4731,126.7131 Q166.8423,126.1321 166.2488,125.8623 Q165.6553,125.5925 165.0244,125.5925 Q163.6797,125.5925 162.9949,126.6592 Q162.3101,127.7258 162.3101,129.8259 Q162.3101,131.9177 162.9949,132.9844 Q163.6797,134.051 165.0244,134.051 Q165.6553,134.051 166.2488,133.7812 Q166.8423,133.5115 167.4731,132.9304 Z " fill="#000000"/><text fill="#000000" font-family="sans-serif" font-size="14" lengthAdjust="spacing" textLength="123" x="179" y="134.801">UserTraitMapping</text><line style="stroke:#181818;stroke-width:0.5;" x1="151" x2="304" y1="145.51" y2="145.51"/><ellipse cx="161" cy="159.2541" fill="none" rx="3" ry="3" style="stroke:#038048;stroke-width:1.0;"/><text fill="#000000" font-family="sans-serif" font-size="14" lengthAdjust="spacing" textLength="85" x="170" y="163.0452">weight: float</text><text fill="#000000" font-family="sans-serif" font-size="14" lengthAdjust="spacing" textLength="109" x="170" y="179.5334">"determined by"</text></g><!--class UserState--><g id="elem_UserState"><rect codeLine="23" fill="#F7BEFE" height="32" id="UserState" rx="2.5" ry="2.5" style="stroke:#181818;stroke-width:0.5;" width="97" x="179" y="42"/><ellipse cx="194" cy="58" fill="#ADD1B2" rx="11" ry="11" style="stroke:#181818;stroke-width:1.0;"/><path d="M196.4731,64.1431 Q195.8921,64.4419 195.2529,64.5913 Q194.6138,64.7407 193.9082,64.7407 Q191.4014,64.7407 190.0815,63.0889 Q188.7617,61.437 188.7617,58.3159 Q188.7617,55.1865 190.0815,53.5347 Q191.4014,51.8828 193.9082,51.8828 Q194.6138,51.8828 195.2612,52.0322 Q195.9087,52.1816 196.4731,52.4805 L196.4731,55.2031 Q195.8423,54.6221 195.2488,54.3523 Q194.6553,54.0825 194.0244,54.0825 Q192.6797,54.0825 191.9949,55.1492 Q191.3101,56.2158 191.3101,58.3159 Q191.3101,60.4077 191.9949,61.4744 Q192.6797,62.541 194.0244,62.541 Q194.6553,62.541 195.2488,62.2712 Q195.8423,62.0015 196.4731,61.4204 Z " fill="#000000"/><text fill="#000000" font-family="sans-serif" font-size="14" lengthAdjust="spacing" textLength="65" x="208" y="63.291">UserState</text></g><!--class UserTrait--><g id="elem_UserTrait"><rect codeLine="30" fill="#F5FBA0" height="32" id="UserTrait" rx="2.5" ry="2.5" style="stroke:#181818;stroke-width:0.5;" width="95" x="424" y="130"/><ellipse cx="439" cy="146" fill="#ADD1B2" rx="11" ry="11" style="stroke:#181818;stroke-width:1.0;"/><path d="M441.4731,152.1431 Q440.8921,152.4419 440.2529,152.5913 Q439.6138,152.7407 438.9082,152.7407 Q436.4014,152.7407 435.0815,151.0889 Q433.7617,149.437 433.7617,146.3159 Q433.7617,143.1865 435.0815,141.5347 Q436.4014,139.8828 438.9082,139.8828 Q439.6138,139.8828 440.2612,140.0322 Q440.9087,140.1816 441.4731,140.4805 L441.4731,143.2031 Q440.8423,142.6221 440.2488,142.3523 Q439.6553,142.0825 439.0244,142.0825 Q437.6797,142.0825 436.9949,143.1492 Q436.3101,144.2158 436.3101,146.3159 Q436.3101,148.4077 436.9949,149.4744 Q437.6797,150.541 439.0244,150.541 Q439.6553,150.541 440.2488,150.2712 Q440.8423,150.0015 441.4731,149.4204 Z " fill="#000000"/><text fill="#000000" font-family="sans-serif" font-size="14" lengthAdjust="spacing" textLength="63" x="453" y="151.291">UserTrait</text></g><!--link User to UserState--><g id="link_User_UserState"><path codeLine="25" d="M86.47,92.39 C112.16,86.08 143.3133,78.4315 172.8233,71.1815 " fill="none" id="User-to-UserState" style="stroke:#181818;stroke-width:1.0;"/><polygon fill="#181818" points="178.65,69.75,168.9556,68.0128,173.7944,70.9429,170.8642,75.7817,178.65,69.75" style="stroke:#181818;stroke-width:1.0;"/><text fill="#000000" font-family="sans-serif" font-size="13" lengthAdjust="spacing" textLength="22" x="107" y="79.3284">has</text><text fill="#000000" font-family="sans-serif" font-size="13" lengthAdjust="spacing" textLength="22" x="148.9817" y="84.8047">1..*</text></g><!--link User to UserTraitMapping--><g id="link_User_UserTraitMapping"><path codeLine="26" d="M86.33,109.16 C96.84,112.28 106,115 106,115 C106,115 120.1283,119.1059 143.7383,125.9659 " fill="none" id="User-to-UserTraitMapping" style="stroke:#181818;stroke-width:1.0;"/><polygon fill="#181818" points="149.5,127.64,141.9735,121.2877,144.6986,126.2449,139.7414,128.97,149.5,127.64" style="stroke:#181818;stroke-width:1.0;"/><text fill="#000000" font-family="sans-serif" font-size="13" lengthAdjust="spacing" textLength="22" x="107" y="111.5684">has</text><text fill="#000000" font-family="sans-serif" font-size="13" lengthAdjust="spacing" textLength="22" x="120.1297" y="138.9908">1..*</text></g><!--link UserTraitMapping to UserTrait--><g id="link_UserTraitMapping_UserTrait"><path codeLine="33" d="M305.4,148.73 C344.29,148.09 384.2208,147.4302 417.7508,146.8702 " fill="none" id="UserTraitMapping-to-UserTrait" style="stroke:#181818;stroke-width:1.0;"/><polygon fill="#181818" points="423.75,146.77,414.6845,142.9208,418.7507,146.8535,414.8181,150.9197,423.75,146.77" style="stroke:#181818;stroke-width:1.0;"/><text fill="#000000" font-family="sans-serif" font-size="13" lengthAdjust="spacing" textLength="65" x="326" y="143.9784">references</text><text fill="#000000" font-family="sans-serif" font-size="13" lengthAdjust="spacing" textLength="22" x="393.8555" y="160.4705">1..*</text></g><!--SRC=[TL9DJyCm3BtdLtY50n_QD2HWC0aE73Wn2Mdm0zB6QQEbIPGOGONstt5BWNORkKJnUxRVivCsnWKPPGtMEAGc80Hlc_OXH6KK0jQ16gYHAg_IC2I9eidV2DEOMESOax2e2SX3D6L5e4p4Went8lqsT5vXmW2Nyq4mIhVP2mPPR6I9QseiGbj8kjAoleb2pKAXy8xmWnwO1aTQuOtciui-HhuPlhhD3y5haeGCBtBKk0y_TJOukxZMd2z4hmbU4yRdwBMnOnsV0g2mCgMECH8XHj1Bb8PMCWJZoh6OjWJ0-JkslPUWhPV4eUqu_vixJ6pnhkbqUW_PnMnsbWsOIwXa-eSnql9DPER4Q3WvZkWKnXKl3IPtaDKo4SRibF7XABeAYGSbDUOBhNiJEtRRGUfSpdcGlP-zxeUKfTbVXIL_18qigi0VD_qQPWUSP0fPRSqBLP0tMMkAxHWjjby0]--></g></svg>