<?xml version="1.0" encoding="us-ascii" standalone="no"?><svg xmlns="http://www.w3.org/2000/svg" xmlns:xlink="http://www.w3.org/1999/xlink" contentStyleType="text/css" height="401px" preserveAspectRatio="none" style="width:1265px;height:401px;background:#FFFFFF;" version="1.1" viewBox="0 0 1265 401" width="1265px" zoomAndPan="magnify"><defs/><g><!--cluster UI--><g id="cluster_UI"><rect fill="none" height="158" rx="2.5" ry="2.5" style="stroke:#181818;stroke-width:1.0;" width="223" x="140" y="55"/><text fill="#000000" font-family="sans-serif" font-size="14" font-weight="bold" lengthAdjust="spacing" textLength="15" x="244" y="70.5352">UI</text></g><!--cluster Personal Development--><g id="cluster_Personal Development"><rect fill="#EBFFE8" height="87" rx="2.5" ry="2.5" style="stroke:#181818;stroke-width:1.0;" width="178" x="494" y="15"/><text fill="#000000" font-family="sans-serif" font-size="14" font-weight="bold" lengthAdjust="spacing" textLength="162" x="502" y="30.5352">Personal Development</text></g><!--cluster Motivational Assistant--><g id="cluster_Motivational Assistant"><rect fill="#D6D6FF" height="87" rx="2.5" ry="2.5" style="stroke:#181818;stroke-width:1.0;" width="180" x="493" y="308"/><text fill="#000000" font-family="sans-serif" font-size="14" font-weight="bold" lengthAdjust="spacing" textLength="164" x="501" y="323.5352">Motivational Assistant</text></g><!--cluster Adapter--><g id="cluster_Adapter"><rect fill="none" height="158" rx="2.5" ry="2.5" style="stroke:#181818;stroke-width:1.0;" width="172" x="496.5" y="126"/><text fill="#000000" font-family="sans-serif" font-size="14" font-weight="bold" lengthAdjust="spacing" textLength="56" x="554.5" y="141.5352">Adapter</text></g><!--cluster Ontology--><g id="cluster_Ontology"><rect fill="#FFF8DC" height="353" rx="2.5" ry="2.5" style="stroke:#181818;stroke-width:1.0;" width="417" x="842" y="7"/><text fill="#000000" font-family="sans-serif" font-size="14" font-weight="bold" lengthAdjust="spacing" textLength="67" x="1017" y="22.5352">Ontology</text></g><!--entity PD_UI--><g id="elem_PD_UI"><rect fill="#EBFFE8" height="36.4883" rx="2.5" ry="2.5" style="stroke:#181818;stroke-width:0.5;" width="191" x="156" y="89.76"/><text fill="#000000" font-family="sans-serif" font-size="14" lengthAdjust="spacing" textLength="171" x="166" y="113.2952">Personal Development UI</text></g><!--entity MA_UI--><g id="elem_MA_UI"><rect fill="#D6D6FF" height="36.4883" rx="2.5" ry="2.5" style="stroke:#181818;stroke-width:0.5;" width="188" x="157.5" y="160.76"/><text fill="#000000" font-family="sans-serif" font-size="14" lengthAdjust="spacing" textLength="168" x="167.5" y="184.2952">Motivational Assistant UI</text></g><!--entity DomainServices--><g id="elem_DomainServices"><rect fill="#C8F0C2" height="36.4883" rx="2.5" ry="2.5" style="stroke:#181818;stroke-width:0.5;" width="132" x="516.5" y="49.76"/><text fill="#000000" font-family="sans-serif" font-size="14" lengthAdjust="spacing" textLength="112" x="526.5" y="73.2952">Domain Services</text></g><!--entity AdaptEngine--><g id="elem_AdaptEngine"><rect fill="#B2B2F8" height="36.4883" rx="2.5" ry="2.5" style="stroke:#181818;stroke-width:0.5;" width="147" x="509" y="342.76"/><text fill="#000000" font-family="sans-serif" font-size="14" lengthAdjust="spacing" textLength="127" x="519" y="366.2952">Adaptation Engine</text></g><!--entity EventAbs--><g id="elem_EventAbs"><rect fill="#F1F1F1" height="36.4883" rx="2.5" ry="2.5" style="stroke:#181818;stroke-width:0.5;" width="140" x="512.5" y="160.76"/><text fill="#000000" font-family="sans-serif" font-size="14" lengthAdjust="spacing" textLength="120" x="522.5" y="184.2952">Event Abstraction</text></g><!--entity ActionInt--><g id="elem_ActionInt"><rect fill="#F1F1F1" height="36.4883" rx="2.5" ry="2.5" style="stroke:#181818;stroke-width:0.5;" width="128" x="518.5" y="231.76"/><text fill="#000000" font-family="sans-serif" font-size="14" lengthAdjust="spacing" textLength="108" x="528.5" y="255.2952">Action Interface</text></g><!--entity Traits--><g id="elem_Traits"><rect fill="#F5E6A3" height="52.9766" rx="2.5" ry="2.5" style="stroke:#181818;stroke-width:0.5;" width="119" x="886.5" y="263.51"/><text fill="#000000" font-family="sans-serif" font-size="14" lengthAdjust="spacing" textLength="74" x="896.5" y="287.0452">User Traits</text><text fill="#000000" font-family="sans-serif" font-size="14" lengthAdjust="spacing" textLength="99" x="896.5" y="303.5334">&amp; Player Types</text></g><!--entity Metrics--><g id="elem_Metrics"><rect fill="#F5E6A3" height="36.4883" rx="2.5" ry="2.5" style="stroke:#181818;stroke-width:0.5;" width="144" x="874" y="191.76"/><text fill="#000000" font-family="sans-serif" font-size="14" lengthAdjust="spacing" textLength="124" x="884" y="215.2952">Behavioral Metrics</text></g><!--entity KS--><g id="elem_KS"><rect fill="#F5E6A3" height="36.4883" rx="2.5" ry="2.5" style="stroke:#181818;stroke-width:0.5;" width="116" x="888" y="120.76"/><text fill="#000000" font-family="sans-serif" font-size="14" lengthAdjust="spacing" textLength="96" x="898" y="144.2952">Key Situations</text></g><!--entity UserState--><g id="elem_UserState"><rect fill="#F5E6A3" height="36.4883" rx="2.5" ry="2.5" style="stroke:#181818;stroke-width:0.5;" width="89" x="1108.5" y="271.76"/><text fill="#000000" font-family="sans-serif" font-size="14" lengthAdjust="spacing" textLength="69" x="1118.5" y="295.2952">User State</text></g><!--entity MechCatalog--><g id="elem_MechCatalog"><rect fill="#F5E6A3" height="52.9766" rx="2.5" ry="2.5" style="stroke:#181818;stroke-width:0.5;" width="148" x="1079" y="183.51"/><text fill="#000000" font-family="sans-serif" font-size="14" lengthAdjust="spacing" textLength="84" x="1089" y="207.0452">Motivational</text><text fill="#000000" font-family="sans-serif" font-size="14" lengthAdjust="spacing" textLength="128" x="1089" y="223.5334">Mechanics Catalog</text></g><!--entity Plans--><g id="elem_Plans"><rect fill="#C8F0C2" height="36.4883" rx="2.5" ry="2.5" style="stroke:#181818;stroke-width:0.5;" width="113" x="889.5" y="49.76"/><text fill="#000000" font-family="sans-serif" font-size="14" lengthAdjust="spacing" textLength="93" x="899.5" y="73.2952">Plans &amp; Tasks</text></g><!--entity user--><g id="elem_user"><ellipse cx="21.5" cy="114.26" fill="#F1F1F1" rx="8" ry="8" style="stroke:#181818;stroke-width:0.5;"/><path d="M21.5,122.26 L21.5,149.26 M8.5,130.26 L34.5,130.26 M21.5,149.26 L8.5,164.26 M21.5,149.26 L34.5,164.26 " fill="none" style="stroke:#181818;stroke-width:0.5;"/><text fill="#000000" font-family="sans-serif" font-size="14" lengthAdjust="spacing" textLength="31" x="6" y="179.2952">User</text></g><!--link user to PD_UI--><g id="link_user_PD_UI"><path d="M37.46,141.64 C61.48,137.84 104.6133,131.0353 149.6033,123.9353 " fill="none" id="user-to-PD_UI" style="stroke:#181818;stroke-width:1.0;"/><polygon fill="#181818" points="155.53,123,146.0165,120.4519,150.5911,123.7794,147.2636,128.3541,155.53,123" style="stroke:#181818;stroke-width:1.0;"/><text fill="#000000" font-family="sans-serif" font-size="13" lengthAdjust="spacing" textLength="55" x="68" y="124.7284">interacts</text></g><!--link user to MA_UI--><g id="link_user_MA_UI"><path d="M37.17,155.99 C45.41,161.98 56.19,168.66 67,172 C95.63,180.85 121.9813,184.0238 151.4513,184.6438 " fill="none" id="user-to-MA_UI" style="stroke:#181818;stroke-width:1.0;"/><polygon fill="#181818" points="157.45,184.77,148.5361,180.5816,152.4511,184.6648,148.3679,188.5798,157.45,184.77" style="stroke:#181818;stroke-width:1.0;"/><text fill="#000000" font-family="sans-serif" font-size="13" lengthAdjust="spacing" textLength="55" x="68" y="168.5684">interacts</text></g><!--link PD_UI to DomainServices--><g id="link_PD_UI_DomainServices"><path d="M353.1762,95.7567 C407.2762,89.1867 461.824,82.5551 510.124,76.6751 " fill="none" id="PD_UI-DomainServices" style="stroke:#181818;stroke-width:1.0;"/><polygon fill="#181818" points="347.22,96.48,356.6366,99.3658,352.1835,95.8772,355.6721,91.4242,347.22,96.48" style="stroke:#181818;stroke-width:1.0;"/><polygon fill="#181818" points="516.08,75.95,506.6626,73.0669,511.1166,76.5542,507.6293,81.0083,516.08,75.95" style="stroke:#181818;stroke-width:1.0;"/><text fill="#000000" font-family="sans-serif" font-size="13" lengthAdjust="spacing" textLength="79" x="388.5" y="62.5084">sends data /</text><text fill="#000000" font-family="sans-serif" font-size="13" lengthAdjust="spacing" textLength="96" x="380" y="77.8189">receives events</text></g><!--link MA_UI to EventAbs--><g id="link_MA_UI_EventAbs"><path d="M345.9,179 C398.81,179 457.86,179 506.2,179 " fill="none" id="MA_UI-to-EventAbs" style="stroke:#181818;stroke-width:1.0;"/><polygon fill="#181818" points="512.2,179,503.2,175,507.2,179,503.2,183,512.2,179" style="stroke:#181818;stroke-width:1.0;"/><text fill="#000000" font-family="sans-serif" font-size="13" lengthAdjust="spacing" textLength="82" x="387" y="175.5684">sends events</text></g><!--link EventAbs to AdaptEngine--><g id="link_EventAbs_AdaptEngine"><path d="M517.24,197.73 C458.54,218.05 386.13,253.93 418.58,300.5 C439.05,329.87 469.6275,343.6545 502.9575,351.4445 " fill="none" id="EventAbs-to-AdaptEngine" style="stroke:#181818;stroke-width:1.0;"/><polygon fill="#181818" points="508.8,352.81,500.9465,346.8667,503.9312,351.6721,499.1258,354.6567,508.8,352.81" style="stroke:#181818;stroke-width:1.0;"/><text fill="#000000" font-family="sans-serif" font-size="13" lengthAdjust="spacing" textLength="68" x="394" y="297.0684">sends data</text></g><!--link AdaptEngine to ActionInt--><g id="link_AdaptEngine_ActionInt"><path d="M582.5,342.42 C582.5,321.93 582.5,295.15 582.5,274.64 " fill="none" id="AdaptEngine-to-ActionInt" style="stroke:#181818;stroke-width:1.0;"/><polygon fill="#181818" points="582.5,268.64,578.5,277.64,582.5,273.64,586.5,277.64,582.5,268.64" style="stroke:#181818;stroke-width:1.0;"/><text fill="#000000" font-family="sans-serif" font-size="13" lengthAdjust="spacing" textLength="87" x="527.5" y="310.5684">sends actions</text></g><!--link ActionInt to MA_UI--><g id="link_ActionInt_MA_UI"><path d="M518.25,236.35 C467.32,225.36 401.0648,211.0666 344.8048,198.9166 " fill="none" id="ActionInt-to-MA_UI" style="stroke:#181818;stroke-width:1.0;"/><polygon fill="#181818" points="338.94,197.65,346.8928,203.4597,343.8273,198.7055,348.5816,195.64,338.94,197.65" style="stroke:#181818;stroke-width:1.0;"/><text fill="#000000" font-family="sans-serif" font-size="13" lengthAdjust="spacing" textLength="87" x="384.5" y="204.7084">sends actions</text></g><!--link EventAbs to Ontology--><g id="link_EventAbs_Ontology"><path d="M645.5,197.68 C657.6,202.31 669.96,207.77 681,214 C753.36,254.84 750.3,297.76 826,332 C829.0063,333.36 832.093,334.6284 835.239,335.8112 C836.812,336.4026 838.3998,336.9727 839.9997,337.5221 C840.3997,337.6595 840.8004,337.7955 841.2019,337.9303 C841.4026,337.9977 835.9092,336.1743 836.1103,336.241 " fill="none" id="EventAbs-to-Ontology" style="stroke:#181818;stroke-width:1.0;"/><polygon fill="#181818" points="841.8046,338.1316,834.5234,331.4995,837.0593,336.5561,832.0027,339.092,841.8046,338.1316" style="stroke:#181818;stroke-width:1.0;"/><text fill="#000000" font-family="sans-serif" font-size="13" lengthAdjust="spacing" textLength="91" x="708" y="200.4784">updates traits,</text><text fill="#000000" font-family="sans-serif" font-size="13" lengthAdjust="spacing" textLength="127" x="690" y="215.7889">metrics &amp; situations</text></g><!--link AdaptEngine to Ontology--><g id="link_AdaptEngine_Ontology"><path d="M662.2181,359.0405 C714.1731,357.7455 778.9425,356.1325 837.4188,354.6763 C838.3324,354.6535 839.2431,354.6308 840.1507,354.6082 C840.6045,354.5969 835.0594,354.735 835.5116,354.7237 " fill="none" id="AdaptEngine-Ontology" style="stroke:#181818;stroke-width:1.0;"/><polygon fill="#181818" points="656.22,359.19,665.3169,362.9645,661.2184,359.0654,665.1175,354.967,656.22,359.19" style="stroke:#181818;stroke-width:1.0;"/><polygon fill="#181818" points="841.5097,354.5744,832.4129,350.7997,836.5113,354.6988,832.6121,358.7972,841.5097,354.5744" style="stroke:#181818;stroke-width:1.0;"/><text fill="#000000" font-family="sans-serif" font-size="13" lengthAdjust="spacing" textLength="79" x="714" y="351.7384">reads/writes</text></g><!--link DomainServices to Plans--><g id="link_DomainServices_Plans"><path d="M654.96,68 C723.63,68 818.41,68 883.21,68 " fill="none" id="DomainServices-Plans" style="stroke:#181818;stroke-width:1.0;"/><polygon fill="#181818" points="648.96,68,657.96,72,653.96,68,657.96,64,648.96,68" style="stroke:#181818;stroke-width:1.0;"/><polygon fill="#181818" points="889.21,68,880.21,64,884.21,68,880.21,72,889.21,68" style="stroke:#181818;stroke-width:1.0;"/><text fill="#000000" font-family="sans-serif" font-size="13" lengthAdjust="spacing" textLength="79" x="714" y="64.5684">reads/writes</text></g><!--SRC=[TLJVYnen47xFNp4es9VAjPQAo56mzHxaa0gURq8PivFTu9f84ZsatF_U_DZTszsU-A2P-RwPBpDVB4auS1gCp0i7cJJ4dTIAsQDKPpHu0bjWfb-boa5WQQcLEIC_OavRToi90X5LNX9Zo9qsiBDa02rS_3TZ5HO6kzK0_Z9unyDWGyPgXIKiwKgbFfz8EGWupzui_-nMCAI343JhqjRQoIi6jPwwi5PQdsc8wqKaPjDiAWHxQodugDsWRj7NjjGdb0gsPAwIausbKwmEmP3Fn1S-wNNvMDsWLjJliyZmx28SdbGk5SLECPhEC3nC3XCnwxM923B_pVJf6eQuE5XdC6uqrejH7uIX-1e-FGqH22lb2mhabOGOzB66qsx_MpbTwlpcxoM4c6Kywd0w9rVuzOT3fqKqnOj1wUnUZM1JuYq4RkTgj2dbYtsdANxpT-tnVrA1LwcDd-cQd94yqQhVztdFT8EjT9SuuSHvtjw7HvbRluyqWt2Cf_kCzhhtQasyG1KK_KA7Va2LIbvKvqwXjzvpA55P6C4BscEIcY8TdtrAxqk6NQK5MnPU6ep7Fwf7Cs-ohLHw5krKABKAVm5UbkGiSHy3jkVpELXIcONCNm4UzifB9ddr2GgkiYoL3iJ6PZMbGlXMbLyXBfurmC1gcxtTYxKJ4TXOieRL4tZFZDkNxOAyYjgsmBLILCKxOXh472vdhy9VqqLlVjwhK-Ms4TZ6KXsHZxqAXZ2p3wz6-ZAX_RP0Gnbq5irwquur4g9Nu1y0]--></g></svg>