<?xml version="1.0" encoding="us-ascii" standalone="no"?><svg xmlns="http://www.w3.org/2000/svg" xmlns:xlink="http://www.w3.org/1999/xlink" contentStyleType="text/css" height="382px" preserveAspectRatio="none" style="width:1170px;height:382px;background:#FFFFFF;" version="1.1" viewBox="0 0 1170 382" width="1170px" zoomAndPan="magnify"><defs/><g><text fill="#000000" font-family="sans-serif" font-size="14" font-weight="bold" lengthAdjust="spacing" textLength="286" x="435" y="23.5352">Motivational Framework - System Flow</text><!--cluster UserModel--><g id="cluster_UserModel"><rect fill="#FDE8FF" height="269" rx="2.5" ry="2.5" style="stroke:#000000;stroke-width:1.5;" width="305" x="7" y="62.4883"/><text fill="#000000" font-family="sans-serif" font-size="14" font-weight="bold" lengthAdjust="spacing" textLength="76" x="121.5" y="78.0234">UserModel</text></g><!--cluster Metrics--><g id="cluster_Metrics"><rect fill="#FFE8E8" height="83" rx="2.5" ry="2.5" style="stroke:#000000;stroke-width:1.5;" width="106" x="417.5" y="186.4883"/><text fill="#000000" font-family="sans-serif" font-size="14" font-weight="bold" lengthAdjust="spacing" textLength="53" x="444" y="202.0234">Metrics</text></g><!--cluster AssistantActions--><g id="cluster_AssistantActions"><rect fill="#E8E8FF" height="83" rx="2.5" ry="2.5" style="stroke:#000000;stroke-width:1.5;" width="170" x="653" y="186.4883"/><text fill="#000000" font-family="sans-serif" font-size="14" font-weight="bold" lengthAdjust="spacing" textLength="122" x="677" y="202.0234">AssistantActions</text></g><!--cluster KeySituations--><g id="cluster_KeySituations"><rect fill="#E8FAFF" height="83" rx="2.5" ry="2.5" style="stroke:#000000;stroke-width:1.5;" width="149" x="396" y="293.4883"/><text fill="#000000" font-family="sans-serif" font-size="14" font-weight="bold" lengthAdjust="spacing" textLength="99" x="421" y="309.0234">KeySituations</text></g><!--cluster MotivationalMechanics--><g id="cluster_MotivationalMechanics"><rect fill="#FFF6E8" height="83" rx="2.5" ry="2.5" style="stroke:#000000;stroke-width:1.5;" width="212" x="952" y="44.4883"/><text fill="#000000" font-family="sans-serif" font-size="14" font-weight="bold" lengthAdjust="spacing" textLength="165" x="975.5" y="60.0234">MotivationalMechanics</text></g><!--class User--><g id="elem_User"><rect codeLine="12" fill="#F59BFF" height="32" id="User" rx="2.5" ry="2.5" style="stroke:#181818;stroke-width:0.5;" width="63" x="23" y="187.4883"/><ellipse cx="38" cy="203.4883" fill="#ADD1B2" rx="11" ry="11" style="stroke:#181818;stroke-width:1.0;"/><path d="M40.4731,209.6313 Q39.8921,209.9302 39.2529,210.0796 Q38.6138,210.229 37.9082,210.229 Q35.4014,210.229 34.0815,208.5771 Q32.7617,206.9253 32.7617,203.8042 Q32.7617,200.6748 34.0815,199.0229 Q35.4014,197.3711 37.9082,197.3711 Q38.6138,197.3711 39.2612,197.5205 Q39.9087,197.6699 40.4731,197.9688 L40.4731,200.6914 Q39.8423,200.1104 39.2488,199.8406 Q38.6553,199.5708 38.0244,199.5708 Q36.6797,199.5708 35.9949,200.6375 Q35.3101,201.7041 35.3101,203.8042 Q35.3101,205.896 35.9949,206.9626 Q36.6797,208.0293 38.0244,208.0293 Q38.6553,208.0293 39.2488,207.7595 Q39.8423,207.4897 40.4731,206.9087 Z " fill="#000000"/><text fill="#000000" font-family="sans-serif" font-size="14" lengthAdjust="spacing" textLength="31" x="52" y="208.7793">User</text></g><!--class UserTraitWeight--><g id="elem_UserTraitWeight"><rect codeLine="13" fill="#F7BEFE" height="32" id="UserTraitWeight" rx="2.5" ry="2.5" style="stroke:#181818;stroke-width:0.5;" width="142" x="150" y="97.4883"/><ellipse cx="165" cy="113.4883" fill="#ADD1B2" rx="11" ry="11" style="stroke:#181818;stroke-width:1.0;"/><path d="M167.4731,119.6313 Q166.8921,119.9302 166.2529,120.0796 Q165.6138,120.229 164.9082,120.229 Q162.4014,120.229 161.0815,118.5771 Q159.7617,116.9253 159.7617,113.8042 Q159.7617,110.6748 161.0815,109.0229 Q162.4014,107.3711 164.9082,107.3711 Q165.6138,107.3711 166.2612,107.5205 Q166.9087,107.6699 167.4731,107.9688 L167.4731,110.6914 Q166.8423,110.1104 166.2488,109.8406 Q165.6553,109.5708 165.0244,109.5708 Q163.6797,109.5708 162.9949,110.6375 Q162.3101,111.7041 162.3101,113.8042 Q162.3101,115.896 162.9949,116.9626 Q163.6797,118.0293 165.0244,118.0293 Q165.6553,118.0293 166.2488,117.7595 Q166.8423,117.4897 167.4731,116.9087 Z " fill="#000000"/><text fill="#000000" font-family="sans-serif" font-size="14" lengthAdjust="spacing" textLength="110" x="179" y="118.7793">UserTraitWeight</text></g><!--class LogState--><g id="elem_LogState"><rect codeLine="14" fill="#F7BEFE" height="32" id="LogState" rx="2.5" ry="2.5" style="stroke:#181818;stroke-width:0.5;" width="91" x="175.5" y="221.4883"/><ellipse cx="190.5" cy="237.4883" fill="#ADD1B2" rx="11" ry="11" style="stroke:#181818;stroke-width:1.0;"/><path d="M192.9731,243.6313 Q192.3921,243.9302 191.7529,244.0796 Q191.1138,244.229 190.4082,244.229 Q187.9014,244.229 186.5815,242.5771 Q185.2617,240.9253 185.2617,237.8042 Q185.2617,234.6748 186.5815,233.0229 Q187.9014,231.3711 190.4082,231.3711 Q191.1138,231.3711 191.7612,231.5205 Q192.4087,231.6699 192.9731,231.9688 L192.9731,234.6914 Q192.3423,234.1104 191.7488,233.8406 Q191.1553,233.5708 190.5244,233.5708 Q189.1797,233.5708 188.4949,234.6375 Q187.8101,235.7041 187.8101,237.8042 Q187.8101,239.896 188.4949,240.9626 Q189.1797,242.0293 190.5244,242.0293 Q191.1553,242.0293 191.7488,241.7595 Q192.3423,241.4897 192.9731,240.9087 Z " fill="#000000"/><text fill="#000000" font-family="sans-serif" font-size="14" lengthAdjust="spacing" textLength="59" x="204.5" y="242.7793">LogState</text></g><!--class MotivationalState--><g id="elem_MotivationalState"><rect codeLine="15" fill="#F7BEFE" height="32" id="MotivationalState" rx="2.5" ry="2.5" style="stroke:#181818;stroke-width:0.5;" width="150" x="146" y="283.4883"/><ellipse cx="161" cy="299.4883" fill="#ADD1B2" rx="11" ry="11" style="stroke:#181818;stroke-width:1.0;"/><path d="M163.4731,305.6313 Q162.8921,305.9302 162.2529,306.0796 Q161.6138,306.229 160.9082,306.229 Q158.4014,306.229 157.0815,304.5771 Q155.7617,302.9253 155.7617,299.8042 Q155.7617,296.6748 157.0815,295.0229 Q158.4014,293.3711 160.9082,293.3711 Q161.6138,293.3711 162.2612,293.5205 Q162.9087,293.6699 163.4731,293.9688 L163.4731,296.6914 Q162.8423,296.1104 162.2488,295.8406 Q161.6553,295.5708 161.0244,295.5708 Q159.6797,295.5708 158.9949,296.6375 Q158.3101,297.7041 158.3101,299.8042 Q158.3101,301.896 158.9949,302.9626 Q159.6797,304.0293 161.0244,304.0293 Q161.6553,304.0293 162.2488,303.7595 Q162.8423,303.4897 163.4731,302.9087 Z " fill="#000000"/><text fill="#000000" font-family="sans-serif" font-size="14" lengthAdjust="spacing" textLength="118" x="175" y="304.7793">MotivationalState</text></g><!--class CogState--><g id="elem_CogState"><rect codeLine="16" fill="#F7BEFE" height="32" id="CogState" rx="2.5" ry="2.5" style="stroke:#181818;stroke-width:0.5;" width="94" x="174" y="159.4883"/><ellipse cx="189" cy="175.4883" fill="#ADD1B2" rx="11" ry="11" style="stroke:#181818;stroke-width:1.0;"/><path d="M191.4731,181.6313 Q190.8921,181.9302 190.2529,182.0796 Q189.6138,182.229 188.9082,182.229 Q186.4014,182.229 185.0815,180.5771 Q183.7617,178.9253 183.7617,175.8042 Q183.7617,172.6748 185.0815,171.0229 Q186.4014,169.3711 188.9082,169.3711 Q189.6138,169.3711 190.2612,169.5205 Q190.9087,169.6699 191.4731,169.9688 L191.4731,172.6914 Q190.8423,172.1104 190.2488,171.8406 Q189.6553,171.5708 189.0244,171.5708 Q187.6797,171.5708 186.9949,172.6375 Q186.3101,173.7041 186.3101,175.8042 Q186.3101,177.896 186.9949,178.9626 Q187.6797,180.0293 189.0244,180.0293 Q189.6553,180.0293 190.2488,179.7595 Q190.8423,179.4897 191.4731,178.9087 Z " fill="#000000"/><text fill="#000000" font-family="sans-serif" font-size="14" lengthAdjust="spacing" textLength="62" x="203" y="180.7793">CogState</text></g><!--class Metric--><g id="elem_Metric"><rect codeLine="20" fill="#FDA5A5" height="32" id="Metric" rx="2.5" ry="2.5" style="stroke:#181818;stroke-width:0.5;" width="74" x="433.5" y="221.4883"/><ellipse cx="448.5" cy="237.4883" fill="#ADD1B2" rx="11" ry="11" style="stroke:#181818;stroke-width:1.0;"/><path d="M450.9731,243.6313 Q450.3921,243.9302 449.7529,244.0796 Q449.1138,244.229 448.4082,244.229 Q445.9014,244.229 444.5815,242.5771 Q443.2617,240.9253 443.2617,237.8042 Q443.2617,234.6748 444.5815,233.0229 Q445.9014,231.3711 448.4082,231.3711 Q449.1138,231.3711 449.7612,231.5205 Q450.4087,231.6699 450.9731,231.9688 L450.9731,234.6914 Q450.3423,234.1104 449.7488,233.8406 Q449.1553,233.5708 448.5244,233.5708 Q447.1797,233.5708 446.4949,234.6375 Q445.8101,235.7041 445.8101,237.8042 Q445.8101,239.896 446.4949,240.9626 Q447.1797,242.0293 448.5244,242.0293 Q449.1553,242.0293 449.7488,241.7595 Q450.3423,241.4897 450.9731,240.9087 Z " fill="#000000"/><text fill="#000000" font-family="sans-serif" font-size="14" lengthAdjust="spacing" textLength="42" x="462.5" y="242.7793">Metric</text></g><!--class AssistantAction--><g id="elem_AssistantAction"><rect codeLine="24" fill="#D6D6FF" height="32" id="AssistantAction" rx="2.5" ry="2.5" style="stroke:#181818;stroke-width:0.5;" width="138" x="669" y="221.4883"/><ellipse cx="684" cy="237.4883" fill="#ADD1B2" rx="11" ry="11" style="stroke:#181818;stroke-width:1.0;"/><path d="M686.4731,243.6313 Q685.8921,243.9302 685.2529,244.0796 Q684.6138,244.229 683.9082,244.229 Q681.4014,244.229 680.0815,242.5771 Q678.7617,240.9253 678.7617,237.8042 Q678.7617,234.6748 680.0815,233.0229 Q681.4014,231.3711 683.9082,231.3711 Q684.6138,231.3711 685.2612,231.5205 Q685.9087,231.6699 686.4731,231.9688 L686.4731,234.6914 Q685.8423,234.1104 685.2488,233.8406 Q684.6553,233.5708 684.0244,233.5708 Q682.6797,233.5708 681.9949,234.6375 Q681.3101,235.7041 681.3101,237.8042 Q681.3101,239.896 681.9949,240.9626 Q682.6797,242.0293 684.0244,242.0293 Q684.6553,242.0293 685.2488,241.7595 Q685.8423,241.4897 686.4731,240.9087 Z " fill="#000000"/><text fill="#000000" font-family="sans-serif" font-size="14" lengthAdjust="spacing" textLength="106" x="698" y="242.7793">AssistantAction</text></g><!--class KeySituation--><g id="elem_KeySituation"><rect codeLine="28" fill="#BBF0FF" height="32" id="KeySituation" rx="2.5" ry="2.5" style="stroke:#181818;stroke-width:0.5;" width="117" x="412" y="328.4883"/><ellipse cx="427" cy="344.4883" fill="#ADD1B2" rx="11" ry="11" style="stroke:#181818;stroke-width:1.0;"/><path d="M429.4731,350.6313 Q428.8921,350.9302 428.2529,351.0796 Q427.6138,351.229 426.9082,351.229 Q424.4014,351.229 423.0815,349.5771 Q421.7617,347.9253 421.7617,344.8042 Q421.7617,341.6748 423.0815,340.0229 Q424.4014,338.3711 426.9082,338.3711 Q427.6138,338.3711 428.2612,338.5205 Q428.9087,338.6699 429.4731,338.9688 L429.4731,341.6914 Q428.8423,341.1104 428.2488,340.8406 Q427.6553,340.5708 427.0244,340.5708 Q425.6797,340.5708 424.9949,341.6375 Q424.3101,342.7041 424.3101,344.8042 Q424.3101,346.896 424.9949,347.9626 Q425.6797,349.0293 427.0244,349.0293 Q427.6553,349.0293 428.2488,348.7595 Q428.8423,348.4897 429.4731,347.9087 Z " fill="#000000"/><text fill="#000000" font-family="sans-serif" font-size="14" lengthAdjust="spacing" textLength="85" x="441" y="349.7793">KeySituation</text></g><!--class MotivationalMechanic--><g id="elem_MotivationalMechanic"><rect codeLine="32" fill="#FFECCE" height="32" id="MotivationalMechanic" rx="2.5" ry="2.5" style="stroke:#181818;stroke-width:0.5;" width="180" x="968" y="79.4883"/><ellipse cx="983" cy="95.4883" fill="#ADD1B2" rx="11" ry="11" style="stroke:#181818;stroke-width:1.0;"/><path d="M985.4731,101.6313 Q984.8921,101.9302 984.2529,102.0796 Q983.6138,102.229 982.9082,102.229 Q980.4014,102.229 979.0815,100.5771 Q977.7617,98.9253 977.7617,95.8042 Q977.7617,92.6748 979.0815,91.0229 Q980.4014,89.3711 982.9082,89.3711 Q983.6138,89.3711 984.2612,89.5205 Q984.9087,89.6699 985.4731,89.9688 L985.4731,92.6914 Q984.8423,92.1104 984.2488,91.8406 Q983.6553,91.5708 983.0244,91.5708 Q981.6797,91.5708 980.9949,92.6375 Q980.3101,93.7041 980.3101,95.8042 Q980.3101,97.896 980.9949,98.9626 Q981.6797,100.0293 983.0244,100.0293 Q983.6553,100.0293 984.2488,99.7595 Q984.8423,99.4897 985.4731,98.9087 Z " fill="#000000"/><text fill="#000000" font-family="sans-serif" font-size="14" lengthAdjust="spacing" textLength="148" x="997" y="100.7793">MotivationalMechanic</text></g><!--link User to LogState--><g id="link_User_LogState"><path codeLine="35" d="M86.49,213.7083 C96,216.8483 104,219.4883 104,219.4883 C104,219.4883 136.5808,224.5491 169.2208,229.6091 " fill="none" id="User-to-LogState" style="stroke:#181818;stroke-width:1.0;"/><polygon fill="#181818" points="175.15,230.5283,166.869,225.1967,170.209,229.7623,165.6435,233.1023,175.15,230.5283" style="stroke:#181818;stroke-width:1.0;"/><text fill="#000000" font-family="sans-serif" font-size="13" lengthAdjust="spacing" textLength="22" x="105" y="216.0566">has</text></g><!--link User to CogState--><g id="link_User_CogState"><path codeLine="36" d="M86.44,198.2183 C111.01,194.0383 139.8352,189.1356 167.7252,184.3856 " fill="none" id="User-to-CogState" style="stroke:#181818;stroke-width:1.0;"/><polygon fill="#181818" points="173.64,183.3783,164.0962,180.9461,168.711,184.2178,165.4393,188.8326,173.64,183.3783" style="stroke:#181818;stroke-width:1.0;"/><text fill="#000000" font-family="sans-serif" font-size="13" lengthAdjust="spacing" textLength="22" x="105" y="187.7366">has</text></g><!--link User to MotivationalState--><g id="link_User_MotivationalState"><path codeLine="37" d="M73.84,219.7483 C87.57,231.9183 104,246.4883 104,246.4883 C104,246.4883 146,268.4883 146,268.4883 C146,268.4883 157.5453,273.3315 175.2953,280.7615 " fill="none" id="User-to-MotivationalState" style="stroke:#181818;stroke-width:1.0;"/><polygon fill="#181818" points="180.83,283.0783,174.0725,275.9133,176.2178,281.1476,170.9835,283.2929,180.83,283.0783" style="stroke:#181818;stroke-width:1.0;"/><text fill="#000000" font-family="sans-serif" font-size="13" lengthAdjust="spacing" textLength="22" x="105" y="243.0566">has</text></g><!--link User to UserTraitWeight--><g id="link_User_UserTraitWeight"><path codeLine="38" d="M77.48,187.1783 C90.31,177.6483 104,167.4883 104,167.4883 C104,167.4883 146,144.4883 146,144.4883 C146,144.4883 157.5453,139.645 175.2953,132.215 " fill="none" id="User-to-UserTraitWeight" style="stroke:#181818;stroke-width:1.0;"/><polygon fill="#181818" points="180.83,129.8983,170.9835,129.6837,176.2178,131.8289,174.0725,137.0632,180.83,129.8983" style="stroke:#181818;stroke-width:1.0;"/><text fill="#000000" font-family="sans-serif" font-size="13" lengthAdjust="spacing" textLength="22" x="105" y="151.1766">has</text></g><!--link CogState to Metric--><g id="link_CogState_Metric"><path codeLine="40" d="M268.26,187.0783 C315.97,199.0283 383.5801,215.9593 427.3001,226.9193 " fill="none" id="CogState-to-Metric" style="stroke:#181818;stroke-width:1.0;"/><polygon fill="#181818" points="433.12,228.3783,425.3628,222.3099,428.2701,227.1625,423.4175,230.0698,433.12,228.3783" style="stroke:#181818;stroke-width:1.0;"/><text fill="#000000" font-family="sans-serif" font-size="13" lengthAdjust="spacing" textLength="34" x="337" y="199.3466">reads</text></g><!--link MotivationalState to Metric--><g id="link_MotivationalState_Metric"><path codeLine="41" d="M290.38,283.0383 C333.08,272.7683 380,261.4883 380,261.4883 C380,261.4883 402.525,255.4534 427.305,248.8034 " fill="none" id="MotivationalState-to-Metric" style="stroke:#181818;stroke-width:1.0;"/><polygon fill="#181818" points="433.1,247.2483,423.3708,245.7177,428.2709,248.5442,425.4443,253.4443,433.1,247.2483" style="stroke:#181818;stroke-width:1.0;"/><text fill="#000000" font-family="sans-serif" font-size="13" lengthAdjust="spacing" textLength="34" x="337" y="258.0566">reads</text></g><!--link Metric to LogState--><g id="link_Metric_LogState"><path codeLine="42" d="M433.06,237.4883 C388.89,237.4883 320.46,237.4883 272.82,237.4883 " fill="none" id="Metric-to-LogState" style="stroke:#181818;stroke-width:1.0;"/><polygon fill="#181818" points="266.82,237.4883,275.82,241.4883,271.82,237.4883,275.82,233.4883,266.82,237.4883" style="stroke:#181818;stroke-width:1.0;"/><text fill="#000000" font-family="sans-serif" font-size="13" lengthAdjust="spacing" textLength="50" x="329" y="234.0566">updates</text></g><!--link Metric to AssistantAction--><g id="link_Metric_AssistantAction"><path codeLine="43" d="M507.86,237.4883 C549.12,237.4883 611.32,237.4883 662.61,237.4883 " fill="none" id="Metric-to-AssistantAction" style="stroke:#181818;stroke-width:1.0;"/><polygon fill="#181818" points="668.61,237.4883,659.61,233.4883,663.61,237.4883,659.61,241.4883,668.61,237.4883" style="stroke:#181818;stroke-width:1.0;"/><text fill="#000000" font-family="sans-serif" font-size="13" lengthAdjust="spacing" textLength="61" x="568.5" y="234.0566">considers</text></g><!--link AssistantAction to KeySituation--><g id="link_AssistantAction_KeySituation"><path codeLine="45" d="M696.49,253.8183 C646.63,273.9083 568.0049,305.5952 517.9649,325.7652 " fill="none" id="AssistantAction-to-KeySituation" style="stroke:#181818;stroke-width:1.0;"/><polygon fill="#181818" points="512.4,328.0083,522.2428,328.3536,517.0374,326.139,519.252,320.9337,512.4,328.0083" style="stroke:#181818;stroke-width:1.0;"/><text fill="#000000" font-family="sans-serif" font-size="13" lengthAdjust="spacing" textLength="49" x="574.5" y="274.8266">triggers</text></g><!--link KeySituation to AssistantAction--><g id="link_KeySituation_AssistantAction"><path codeLine="46" d="M529.38,339.5883 C577.11,335.5583 637,330.4883 637,330.4883 C637,330.4883 686.536,284.414 715.186,257.774 " fill="none" id="KeySituation-to-AssistantAction" style="stroke:#181818;stroke-width:1.0;"/><polygon fill="#181818" points="719.58,253.6883,710.2652,256.8875,715.9184,257.093,715.7128,262.7462,719.58,253.6883" style="stroke:#181818;stroke-width:1.0;"/><text fill="#000000" font-family="sans-serif" font-size="13" lengthAdjust="spacing" textLength="49" x="574.5" y="327.0566">triggers</text></g><!--link AssistantAction to MotivationalMechanic--><g id="link_AssistantAction_MotivationalMechanic"><path codeLine="47" d="M775.79,221.0583 C836.93,193.7583 953.3214,141.7847 1014.5714,114.4347 " fill="none" id="AssistantAction-to-MotivationalMechanic" style="stroke:#181818;stroke-width:1.0;"/><polygon fill="#181818" points="1020.05,111.9883,1010.2012,112.0054,1015.4845,114.0269,1013.463,119.3103,1020.05,111.9883" style="stroke:#181818;stroke-width:1.0;"/><text fill="#000000" font-family="sans-serif" font-size="13" lengthAdjust="spacing" textLength="95" x="840" y="146.1666">toggles or logs</text></g><!--link UserTraitWeight to AssistantAction--><g id="link_UserTraitWeight_AssistantAction"><path codeLine="49" d="M290.39,129.9583 C389.03,153.7083 564.3367,195.9139 662.9067,219.6439 " fill="none" id="UserTraitWeight-to-AssistantAction" style="stroke:#181818;stroke-width:1.0;"/><polygon fill="#181818" points="668.74,221.0483,660.9262,215.0529,663.8789,219.878,659.0538,222.8307,668.74,221.0483" style="stroke:#181818;stroke-width:1.0;"/><text fill="#000000" font-family="sans-serif" font-size="13" lengthAdjust="spacing" textLength="61" x="440" y="151.7266">considers</text></g><!--link UserTraitWeight to MotivationalMechanic--><g id="link_UserTraitWeight_MotivationalMechanic"><path codeLine="50" d="M292.47,111.9683 C444.04,108.6983 794.7814,101.1376 961.8114,97.5376 " fill="none" id="UserTraitWeight-to-MotivationalMechanic" style="stroke:#181818;stroke-width:1.0;"/><polygon fill="#181818" points="967.81,97.4083,958.7259,93.6031,962.8112,97.516,958.8983,101.6013,967.81,97.4083" style="stroke:#181818;stroke-width:1.0;"/><text fill="#000000" font-family="sans-serif" font-size="13" lengthAdjust="spacing" textLength="74" x="562" y="101.2666">selected_by</text></g><!--SRC=[bLJ1Rjim3BthAmZa7AF0a2pBOK1He9SjfspOSQ0joXOYMuR4h326_Vjart0bnqsJeyZ7fqVoIVwacnOTrc1qGzor1AqrNNyGbPO4LBVSGKrSMUdZ438xdP-PV0giSt9U658CRC7ficAGsb71sZR2J_SrLfAd5ZuzH467pMa8Rg9WYyK9IpfoPmXw8cnAGu8rX_F1ilw3FJSQU0vmUh7k16iuTfwfXcTZNuGOAU2d9tS85njOAKaxfU2l02WCUZ_aGdZp9LSg2VvmgFaN3PsirEUS54M8xxOyCZ8jf69jxs6UBil_lUazK1XouKDIqOvsaThNJDy6Rd2JLZrwhtsO4ZyEGm_bVN7Ix0m2AxcLsvJb6tL7pMUSA1Gc574ULdck7cRQe-uFL5JOZ9seRTh90cvek2Z6QKnRouOThTTVtnQPJVFVGuN-ElRf3kpbycuecjlbjKGiAEZhnkrcuoxtmTmeunikDLmfcuNVdTAvbTY_sWNyt3ZPt2PxA48uFFVmnCM7w9uoSL6MU6OFuUAoxBcke6xKDL7Tf6hHczcY4mErBSD_uy4wCBRqSp_6-xvxYDUfxfBfoOI_aUJllFiF]--></g></svg>