<?xml version="1.0" encoding="us-ascii" standalone="no"?><svg xmlns="http://www.w3.org/2000/svg" xmlns:xlink="http://www.w3.org/1999/xlink" contentStyleType="text/css" height="744px" preserveAspectRatio="none" style="width:358px;height:744px;background:#FFFFFF;" version="1.1" viewBox="0 0 358 744" width="358px" zoomAndPan="magnify"><defs/><g><!--cluster Plan_and_Tasks--><g id="cluster_Plan_and_Tasks"><path d="M163,6 L278,6 A3.75,3.75 0 0 1 280.5,8.5 L287.5,28.4883 L349,28.4883 A2.5,2.5 0 0 1 351.5,30.9883 L351.5,102.5 A2.5,2.5 0 0 1 349,105 L163,105 A2.5,2.5 0 0 1 160.5,102.5 L160.5,8.5 A2.5,2.5 0 0 1 163,6 " fill="none" style="stroke:#000000;stroke-width:1.5;"/><line style="stroke:#000000;stroke-width:1.5;" x1="160.5" x2="287.5" y1="28.4883" y2="28.4883"/><text fill="#000000" font-family="sans-serif" font-size="14" font-weight="bold" lengthAdjust="spacing" textLength="114" x="164.5" y="21.5352">Plan_and_Tasks</text></g><!--class Plan--><g id="elem_Plan"><rect fill="#F1F1F1" height="48" id="Plan" rx="2.5" ry="2.5" style="stroke:#181818;stroke-width:0.5;" width="61" x="176" y="41"/><ellipse cx="191" cy="57" fill="#ADD1B2" rx="11" ry="11" style="stroke:#181818;stroke-width:1.0;"/><path d="M193.4731,63.1431 Q192.8921,63.4419 192.2529,63.5913 Q191.6138,63.7407 190.9082,63.7407 Q188.4014,63.7407 187.0815,62.0889 Q185.7617,60.437 185.7617,57.3159 Q185.7617,54.1865 187.0815,52.5347 Q188.4014,50.8828 190.9082,50.8828 Q191.6138,50.8828 192.2612,51.0322 Q192.9087,51.1816 193.4731,51.4805 L193.4731,54.2031 Q192.8423,53.6221 192.2488,53.3523 Q191.6553,53.0825 191.0244,53.0825 Q189.6797,53.0825 188.9949,54.1492 Q188.3101,55.2158 188.3101,57.3159 Q188.3101,59.4077 188.9949,60.4744 Q189.6797,61.541 191.0244,61.541 Q191.6553,61.541 192.2488,61.2712 Q192.8423,61.0015 193.4731,60.4204 Z " fill="#000000"/><text fill="#000000" font-family="sans-serif" font-size="14" lengthAdjust="spacing" textLength="29" x="205" y="62.291">Plan</text><line style="stroke:#181818;stroke-width:0.5;" x1="177" x2="236" y1="73" y2="73"/><line style="stroke:#181818;stroke-width:0.5;" x1="177" x2="236" y1="81" y2="81"/></g><!--class Task--><g id="elem_Task"><rect fill="#F1F1F1" height="48" id="Task" rx="2.5" ry="2.5" style="stroke:#181818;stroke-width:0.5;" width="64" x="271.5" y="41"/><ellipse cx="286.5" cy="57" fill="#ADD1B2" rx="11" ry="11" style="stroke:#181818;stroke-width:1.0;"/><path d="M288.9731,63.1431 Q288.3921,63.4419 287.7529,63.5913 Q287.1138,63.7407 286.4082,63.7407 Q283.9014,63.7407 282.5815,62.0889 Q281.2617,60.437 281.2617,57.3159 Q281.2617,54.1865 282.5815,52.5347 Q283.9014,50.8828 286.4082,50.8828 Q287.1138,50.8828 287.7612,51.0322 Q288.4087,51.1816 288.9731,51.4805 L288.9731,54.2031 Q288.3423,53.6221 287.7488,53.3523 Q287.1553,53.0825 286.5244,53.0825 Q285.1797,53.0825 284.4949,54.1492 Q283.8101,55.2158 283.8101,57.3159 Q283.8101,59.4077 284.4949,60.4744 Q285.1797,61.541 286.5244,61.541 Q287.1553,61.541 287.7488,61.2712 Q288.3423,61.0015 288.9731,60.4204 Z " fill="#000000"/><text fill="#000000" font-family="sans-serif" font-size="14" lengthAdjust="spacing" textLength="32" x="300.5" y="62.291">Task</text><line style="stroke:#181818;stroke-width:0.5;" x1="272.5" x2="334.5" y1="73" y2="73"/><line style="stroke:#181818;stroke-width:0.5;" x1="272.5" x2="334.5" y1="81" y2="81"/></g><!--class Metrics--><g id="elem_Metrics"><rect fill="#F1F1F1" height="48" id="Metrics" rx="2.5" ry="2.5" style="stroke:#181818;stroke-width:0.5;" width="81" x="60" y="41"/><ellipse cx="75" cy="57" fill="#ADD1B2" rx="11" ry="11" style="stroke:#181818;stroke-width:1.0;"/><path d="M77.4731,63.1431 Q76.8921,63.4419 76.2529,63.5913 Q75.6138,63.7407 74.9082,63.7407 Q72.4014,63.7407 71.0815,62.0889 Q69.7617,60.437 69.7617,57.3159 Q69.7617,54.1865 71.0815,52.5347 Q72.4014,50.8828 74.9082,50.8828 Q75.6138,50.8828 76.2612,51.0322 Q76.9087,51.1816 77.4731,51.4805 L77.4731,54.2031 Q76.8423,53.6221 76.2488,53.3523 Q75.6553,53.0825 75.0244,53.0825 Q73.6797,53.0825 72.9949,54.1492 Q72.3101,55.2158 72.3101,57.3159 Q72.3101,59.4077 72.9949,60.4744 Q73.6797,61.541 75.0244,61.541 Q75.6553,61.541 76.2488,61.2712 Q76.8423,61.0015 77.4731,60.4204 Z " fill="#000000"/><text fill="#000000" font-family="sans-serif" font-size="14" lengthAdjust="spacing" textLength="49" x="89" y="62.291">Metrics</text><line style="stroke:#181818;stroke-width:0.5;" x1="61" x2="140" y1="73" y2="73"/><line style="stroke:#181818;stroke-width:0.5;" x1="61" x2="140" y1="81" y2="81"/></g><!--class EventRegistration--><g id="elem_EventRegistration"><rect fill="#F1F1F1" height="48" id="EventRegistration" rx="2.5" ry="2.5" style="stroke:#181818;stroke-width:0.5;" width="152" x="24.5" y="149"/><ellipse cx="39.5" cy="165" fill="#ADD1B2" rx="11" ry="11" style="stroke:#181818;stroke-width:1.0;"/><path d="M41.9731,171.1431 Q41.3921,171.4419 40.7529,171.5913 Q40.1138,171.7407 39.4082,171.7407 Q36.9014,171.7407 35.5815,170.0889 Q34.2617,168.437 34.2617,165.3159 Q34.2617,162.1865 35.5815,160.5347 Q36.9014,158.8828 39.4082,158.8828 Q40.1138,158.8828 40.7612,159.0322 Q41.4087,159.1816 41.9731,159.4805 L41.9731,162.2031 Q41.3423,161.6221 40.7488,161.3523 Q40.1553,161.0825 39.5244,161.0825 Q38.1797,161.0825 37.4949,162.1492 Q36.8101,163.2158 36.8101,165.3159 Q36.8101,167.4077 37.4949,168.4744 Q38.1797,169.541 39.5244,169.541 Q40.1553,169.541 40.7488,169.2712 Q41.3423,169.0015 41.9731,168.4204 Z " fill="#000000"/><text fill="#000000" font-family="sans-serif" font-size="14" lengthAdjust="spacing" textLength="120" x="53.5" y="170.291">EventRegistration</text><line style="stroke:#181818;stroke-width:0.5;" x1="25.5" x2="175.5" y1="181" y2="181"/><line style="stroke:#181818;stroke-width:0.5;" x1="25.5" x2="175.5" y1="189" y2="189"/></g><!--class KeySituations--><g id="elem_KeySituations"><rect fill="#F1F1F1" height="48" id="KeySituations" rx="2.5" ry="2.5" style="stroke:#181818;stroke-width:0.5;" width="124" x="38.5" y="257"/><ellipse cx="53.5" cy="273" fill="#ADD1B2" rx="11" ry="11" style="stroke:#181818;stroke-width:1.0;"/><path d="M55.9731,279.1431 Q55.3921,279.4419 54.7529,279.5913 Q54.1138,279.7407 53.4082,279.7407 Q50.9014,279.7407 49.5815,278.0889 Q48.2617,276.437 48.2617,273.3159 Q48.2617,270.1865 49.5815,268.5347 Q50.9014,266.8828 53.4082,266.8828 Q54.1138,266.8828 54.7612,267.0322 Q55.4087,267.1816 55.9731,267.4805 L55.9731,270.2031 Q55.3423,269.6221 54.7488,269.3523 Q54.1553,269.0825 53.5244,269.0825 Q52.1797,269.0825 51.4949,270.1492 Q50.8101,271.2158 50.8101,273.3159 Q50.8101,275.4077 51.4949,276.4744 Q52.1797,277.541 53.5244,277.541 Q54.1553,277.541 54.7488,277.2712 Q55.3423,277.0015 55.9731,276.4204 Z " fill="#000000"/><text fill="#000000" font-family="sans-serif" font-size="14" lengthAdjust="spacing" textLength="92" x="67.5" y="278.291">KeySituations</text><line style="stroke:#181818;stroke-width:0.5;" x1="39.5" x2="161.5" y1="289" y2="289"/><line style="stroke:#181818;stroke-width:0.5;" x1="39.5" x2="161.5" y1="297" y2="297"/></g><!--class AssistantActions--><g id="elem_AssistantActions"><rect fill="#F1F1F1" height="48" id="AssistantActions" rx="2.5" ry="2.5" style="stroke:#181818;stroke-width:0.5;" width="145" x="28" y="365"/><ellipse cx="43" cy="381" fill="#ADD1B2" rx="11" ry="11" style="stroke:#181818;stroke-width:1.0;"/><path d="M45.4731,387.1431 Q44.8921,387.4419 44.2529,387.5913 Q43.6138,387.7407 42.9082,387.7407 Q40.4014,387.7407 39.0815,386.0889 Q37.7617,384.437 37.7617,381.3159 Q37.7617,378.1865 39.0815,376.5347 Q40.4014,374.8828 42.9082,374.8828 Q43.6138,374.8828 44.2612,375.0322 Q44.9087,375.1816 45.4731,375.4805 L45.4731,378.2031 Q44.8423,377.6221 44.2488,377.3523 Q43.6553,377.0825 43.0244,377.0825 Q41.6797,377.0825 40.9949,378.1492 Q40.3101,379.2158 40.3101,381.3159 Q40.3101,383.4077 40.9949,384.4744 Q41.6797,385.541 43.0244,385.541 Q43.6553,385.541 44.2488,385.2712 Q44.8423,385.0015 45.4731,384.4204 Z " fill="#000000"/><text fill="#000000" font-family="sans-serif" font-size="14" lengthAdjust="spacing" textLength="113" x="57" y="386.291">AssistantActions</text><line style="stroke:#181818;stroke-width:0.5;" x1="29" x2="172" y1="397" y2="397"/><line style="stroke:#181818;stroke-width:0.5;" x1="29" x2="172" y1="405" y2="405"/></g><!--class UserModel--><g id="elem_UserModel"><rect fill="#F1F1F1" height="48" id="UserModel" rx="2.5" ry="2.5" style="stroke:#181818;stroke-width:0.5;" width="105" x="48" y="473"/><ellipse cx="63" cy="489" fill="#ADD1B2" rx="11" ry="11" style="stroke:#181818;stroke-width:1.0;"/><path d="M65.4731,495.1431 Q64.8921,495.4419 64.2529,495.5913 Q63.6138,495.7407 62.9082,495.7407 Q60.4014,495.7407 59.0815,494.0889 Q57.7617,492.437 57.7617,489.3159 Q57.7617,486.1865 59.0815,484.5347 Q60.4014,482.8828 62.9082,482.8828 Q63.6138,482.8828 64.2612,483.0322 Q64.9087,483.1816 65.4731,483.4805 L65.4731,486.2031 Q64.8423,485.6221 64.2488,485.3523 Q63.6553,485.0825 63.0244,485.0825 Q61.6797,485.0825 60.9949,486.1492 Q60.3101,487.2158 60.3101,489.3159 Q60.3101,491.4077 60.9949,492.4744 Q61.6797,493.541 63.0244,493.541 Q63.6553,493.541 64.2488,493.2712 Q64.8423,493.0015 65.4731,492.4204 Z " fill="#000000"/><text fill="#000000" font-family="sans-serif" font-size="14" lengthAdjust="spacing" textLength="73" x="77" y="494.291">UserModel</text><line style="stroke:#181818;stroke-width:0.5;" x1="49" x2="152" y1="505" y2="505"/><line style="stroke:#181818;stroke-width:0.5;" x1="49" x2="152" y1="513" y2="513"/></g><!--class UserTraits--><g id="elem_UserTraits"><rect fill="#F1F1F1" height="48" id="UserTraits" rx="2.5" ry="2.5" style="stroke:#181818;stroke-width:0.5;" width="102" x="49.5" y="581"/><ellipse cx="64.5" cy="597" fill="#ADD1B2" rx="11" ry="11" style="stroke:#181818;stroke-width:1.0;"/><path d="M66.9731,603.1431 Q66.3921,603.4419 65.7529,603.5913 Q65.1138,603.7407 64.4082,603.7407 Q61.9014,603.7407 60.5815,602.0889 Q59.2617,600.437 59.2617,597.3159 Q59.2617,594.1865 60.5815,592.5347 Q61.9014,590.8828 64.4082,590.8828 Q65.1138,590.8828 65.7612,591.0322 Q66.4087,591.1816 66.9731,591.4805 L66.9731,594.2031 Q66.3423,593.6221 65.7488,593.3523 Q65.1553,593.0825 64.5244,593.0825 Q63.1797,593.0825 62.4949,594.1492 Q61.8101,595.2158 61.8101,597.3159 Q61.8101,599.4077 62.4949,600.4744 Q63.1797,601.541 64.5244,601.541 Q65.1553,601.541 65.7488,601.2712 Q66.3423,601.0015 66.9731,600.4204 Z " fill="#000000"/><text fill="#000000" font-family="sans-serif" font-size="14" lengthAdjust="spacing" textLength="70" x="78.5" y="602.291">UserTraits</text><line style="stroke:#181818;stroke-width:0.5;" x1="50.5" x2="150.5" y1="613" y2="613"/><line style="stroke:#181818;stroke-width:0.5;" x1="50.5" x2="150.5" y1="621" y2="621"/></g><!--class MotivationalMechanics--><g id="elem_MotivationalMechanics"><rect fill="#F1F1F1" height="48" id="MotivationalMechanics" rx="2.5" ry="2.5" style="stroke:#181818;stroke-width:0.5;" width="187" x="7" y="689"/><ellipse cx="22" cy="705" fill="#ADD1B2" rx="11" ry="11" style="stroke:#181818;stroke-width:1.0;"/><path d="M24.4731,711.1431 Q23.8921,711.4419 23.2529,711.5913 Q22.6138,711.7407 21.9082,711.7407 Q19.4014,711.7407 18.0815,710.0889 Q16.7617,708.437 16.7617,705.3159 Q16.7617,702.1865 18.0815,700.5347 Q19.4014,698.8828 21.9082,698.8828 Q22.6138,698.8828 23.2612,699.0322 Q23.9087,699.1816 24.4731,699.4805 L24.4731,702.2031 Q23.8423,701.6221 23.2488,701.3523 Q22.6553,701.0825 22.0244,701.0825 Q20.6797,701.0825 19.9949,702.1492 Q19.3101,703.2158 19.3101,705.3159 Q19.3101,707.4077 19.9949,708.4744 Q20.6797,709.541 22.0244,709.541 Q22.6553,709.541 23.2488,709.2712 Q23.8423,709.0015 24.4731,708.4204 Z " fill="#000000"/><text fill="#000000" font-family="sans-serif" font-size="14" lengthAdjust="spacing" textLength="155" x="36" y="710.291">MotivationalMechanics</text><line style="stroke:#181818;stroke-width:0.5;" x1="8" x2="193" y1="721" y2="721"/><line style="stroke:#181818;stroke-width:0.5;" x1="8" x2="193" y1="729" y2="729"/></g><!--link Metrics to EventRegistration--><!--link EventRegistration to KeySituations--><!--link KeySituations to AssistantActions--><!--link AssistantActions to UserModel--><!--link UserModel to UserTraits--><!--link UserTraits to MotivationalMechanics--><!--SRC=[hPF1JWCX48RlF0NXsAJ4Ukp1f36UT1DZQpmOqo2CB7431cYJlhsmcDrbgTtMU6bX6BwP-Vct0cyLTtZ-MYiXGB_DR_3T7hH_0gcSjymher4HoVBluR1MVjSUE9JjihoLSm70j5_nb3eEPDdF3cnb13IeMnNd6ykKTwXVPXcLyMhVzi6Q2dZDT9WKeQDXUYoAoOBWUI2H1QNNf6-9TXLVGCdQuoLsq03t8BRl1rGCHaU11BsYDF0lQ6U9lP6o0NT-WTcuwmXXLe8_0nB7dlKAX6MLx4BJVs3nS4y9i7-YdTBp7y5hppnaoDBGj8ragAHUPcSwt4KbhPBoGc0XuPSrOiV3ew8JjJed9iYa9iFUUZM6hagg31r-h3aBJBW1uTP8hG847WmJ7MAQW7v_wr4B_SVSPxQO3x2WequZGq-DKBEfAsUeQO53cBeOP80Y-B5XUikqs6wO-tGqRd_gez5H_Cskblw9ASb3IqniUn9Uaw1l]--></g></svg>