<?xml version="1.0" encoding="us-ascii" standalone="no"?><svg xmlns="http://www.w3.org/2000/svg" xmlns:xlink="http://www.w3.org/1999/xlink" contentStyleType="text/css" height="667px" preserveAspectRatio="none" style="width:862px;height:667px;background:#FFFFFF;" version="1.1" viewBox="0 0 862 667" width="862px" zoomAndPan="magnify"><defs/><g><!--cluster EventRegistration--><g id="cluster_EventRegistration"><rect fill="#F1F1F1" height="654" rx="2.5" ry="2.5" style="stroke:#000000;stroke-width:1.5;" width="849" x="7" y="7"/><rect fill="#DDDDDD" height="26.4883" id="_legend" rx="7.5" ry="7.5" style="stroke:#000000;stroke-width:1.0;" width="392" x="235" y="21"/><text fill="#000000" font-family="sans-serif" font-size="14" lengthAdjust="spacing" textLength="382" x="240" y="39.5352">Evaluated user/system actions. Collections store events.</text><text fill="#000000" font-family="sans-serif" font-size="14" font-weight="bold" lengthAdjust="spacing" textLength="128" x="367.5" y="74.0234">EventRegistration</text></g><!--class Event--><g id="elem_Event"><rect codeLine="15" fill="#CCCCCC" height="32" id="Event" rx="2.5" ry="2.5" style="stroke:#181818;stroke-width:0.5;" width="69" x="242" y="488"/><ellipse cx="257" cy="504" fill="#ADD1B2" rx="11" ry="11" style="stroke:#181818;stroke-width:1.0;"/><path d="M259.4731,510.1431 Q258.8921,510.4419 258.2529,510.5913 Q257.6138,510.7407 256.9082,510.7407 Q254.4014,510.7407 253.0815,509.0889 Q251.7617,507.437 251.7617,504.3159 Q251.7617,501.1865 253.0815,499.5347 Q254.4014,497.8828 256.9082,497.8828 Q257.6138,497.8828 258.2612,498.0322 Q258.9087,498.1816 259.4731,498.4805 L259.4731,501.2031 Q258.8423,500.6221 258.2488,500.3523 Q257.6553,500.0825 257.0244,500.0825 Q255.6797,500.0825 254.9949,501.1492 Q254.3101,502.2158 254.3101,504.3159 Q254.3101,506.4077 254.9949,507.4744 Q255.6797,508.541 257.0244,508.541 Q257.6553,508.541 258.2488,508.2712 Q258.8423,508.0015 259.4731,507.4204 Z " fill="#000000"/><text fill="#000000" font-family="sans-serif" font-size="14" lengthAdjust="spacing" textLength="37" x="271" y="509.291">Event</text></g><!--class UserEvent--><g id="elem_UserEvent"><rect codeLine="17" fill="#E6E6E6" height="32" id="UserEvent" rx="2.5" ry="2.5" style="stroke:#181818;stroke-width:0.5;" width="100" x="360.5" y="523"/><ellipse cx="375.5" cy="539" fill="#ADD1B2" rx="11" ry="11" style="stroke:#181818;stroke-width:1.0;"/><path d="M377.9731,545.1431 Q377.3921,545.4419 376.7529,545.5913 Q376.1138,545.7407 375.4082,545.7407 Q372.9014,545.7407 371.5815,544.0889 Q370.2617,542.437 370.2617,539.3159 Q370.2617,536.1865 371.5815,534.5347 Q372.9014,532.8828 375.4082,532.8828 Q376.1138,532.8828 376.7612,533.0322 Q377.4087,533.1816 377.9731,533.4805 L377.9731,536.2031 Q377.3423,535.6221 376.7488,535.3523 Q376.1553,535.0825 375.5244,535.0825 Q374.1797,535.0825 373.4949,536.1492 Q372.8101,537.2158 372.8101,539.3159 Q372.8101,541.4077 373.4949,542.4744 Q374.1797,543.541 375.5244,543.541 Q376.1553,543.541 376.7488,543.2712 Q377.3423,543.0015 377.9731,542.4204 Z " fill="#000000"/><text fill="#000000" font-family="sans-serif" font-size="14" lengthAdjust="spacing" textLength="68" x="389.5" y="544.291">UserEvent</text></g><!--class SystemEvent--><g id="elem_SystemEvent"><rect codeLine="18" fill="#E6E6E6" height="32" id="SystemEvent" rx="2.5" ry="2.5" style="stroke:#181818;stroke-width:0.5;" width="117" x="352" y="451"/><ellipse cx="367" cy="467" fill="#ADD1B2" rx="11" ry="11" style="stroke:#181818;stroke-width:1.0;"/><path d="M369.4731,473.1431 Q368.8921,473.4419 368.2529,473.5913 Q367.6138,473.7407 366.9082,473.7407 Q364.4014,473.7407 363.0815,472.0889 Q361.7617,470.437 361.7617,467.3159 Q361.7617,464.1865 363.0815,462.5347 Q364.4014,460.8828 366.9082,460.8828 Q367.6138,460.8828 368.2612,461.0322 Q368.9087,461.1816 369.4731,461.4805 L369.4731,464.2031 Q368.8423,463.6221 368.2488,463.3523 Q367.6553,463.0825 367.0244,463.0825 Q365.6797,463.0825 364.9949,464.1492 Q364.3101,465.2158 364.3101,467.3159 Q364.3101,469.4077 364.9949,470.4744 Q365.6797,471.541 367.0244,471.541 Q367.6553,471.541 368.2488,471.2712 Q368.8423,471.0015 369.4731,470.4204 Z " fill="#000000"/><text fill="#000000" font-family="sans-serif" font-size="14" lengthAdjust="spacing" textLength="85" x="381" y="472.291">SystemEvent</text></g><!--class TaskEvent--><g id="elem_TaskEvent"><rect codeLine="19" fill="#E6E6E6" height="32" id="TaskEvent" rx="2.5" ry="2.5" style="stroke:#181818;stroke-width:0.5;" width="101" x="510" y="523"/><ellipse cx="525" cy="539" fill="#ADD1B2" rx="11" ry="11" style="stroke:#181818;stroke-width:1.0;"/><path d="M527.4731,545.1431 Q526.8921,545.4419 526.2529,545.5913 Q525.6138,545.7407 524.9082,545.7407 Q522.4014,545.7407 521.0815,544.0889 Q519.7617,542.437 519.7617,539.3159 Q519.7617,536.1865 521.0815,534.5347 Q522.4014,532.8828 524.9082,532.8828 Q525.6138,532.8828 526.2612,533.0322 Q526.9087,533.1816 527.4731,533.4805 L527.4731,536.2031 Q526.8423,535.6221 526.2488,535.3523 Q525.6553,535.0825 525.0244,535.0825 Q523.6797,535.0825 522.9949,536.1492 Q522.3101,537.2158 522.3101,539.3159 Q522.3101,541.4077 522.9949,542.4744 Q523.6797,543.541 525.0244,543.541 Q525.6553,543.541 526.2488,543.2712 Q526.8423,543.0015 527.4731,542.4204 Z " fill="#000000"/><text fill="#000000" font-family="sans-serif" font-size="14" lengthAdjust="spacing" textLength="69" x="539" y="544.291">TaskEvent</text></g><!--class EventCollection--><g id="elem_EventCollection"><rect codeLine="22" fill="#F1F1F1" height="32" id="EventCollection" rx="2.5" ry="2.5" style="stroke:#181818;stroke-width:0.5;" width="138" x="23" y="488"/><ellipse cx="38" cy="504" fill="#ADD1B2" rx="11" ry="11" style="stroke:#181818;stroke-width:1.0;"/><path d="M40.4731,510.1431 Q39.8921,510.4419 39.2529,510.5913 Q38.6138,510.7407 37.9082,510.7407 Q35.4014,510.7407 34.0815,509.0889 Q32.7617,507.437 32.7617,504.3159 Q32.7617,501.1865 34.0815,499.5347 Q35.4014,497.8828 37.9082,497.8828 Q38.6138,497.8828 39.2612,498.0322 Q39.9087,498.1816 40.4731,498.4805 L40.4731,501.2031 Q39.8423,500.6221 39.2488,500.3523 Q38.6553,500.0825 38.0244,500.0825 Q36.6797,500.0825 35.9949,501.1492 Q35.3101,502.2158 35.3101,504.3159 Q35.3101,506.4077 35.9949,507.4744 Q36.6797,508.541 38.0244,508.541 Q38.6553,508.541 39.2488,508.2712 Q39.8423,508.0015 40.4731,507.4204 Z " fill="#000000"/><text fill="#000000" font-family="sans-serif" font-size="14" lengthAdjust="spacing" textLength="106" x="52" y="509.291">EventCollection</text></g><!--class ClickEvent--><g id="elem_ClickEvent"><rect codeLine="26" fill="#E6E6E6" height="32" id="ClickEvent" rx="2.5" ry="2.5" style="stroke:#181818;stroke-width:0.5;" width="102" x="691" y="533"/><ellipse cx="706" cy="549" fill="#ADD1B2" rx="11" ry="11" style="stroke:#181818;stroke-width:1.0;"/><path d="M708.4731,555.1431 Q707.8921,555.4419 707.2529,555.5913 Q706.6138,555.7407 705.9082,555.7407 Q703.4014,555.7407 702.0815,554.0889 Q700.7617,552.437 700.7617,549.3159 Q700.7617,546.1865 702.0815,544.5347 Q703.4014,542.8828 705.9082,542.8828 Q706.6138,542.8828 707.2612,543.0322 Q707.9087,543.1816 708.4731,543.4805 L708.4731,546.2031 Q707.8423,545.6221 707.2488,545.3523 Q706.6553,545.0825 706.0244,545.0825 Q704.6797,545.0825 703.9949,546.1492 Q703.3101,547.2158 703.3101,549.3159 Q703.3101,551.4077 703.9949,552.4744 Q704.6797,553.541 706.0244,553.541 Q706.6553,553.541 707.2488,553.2712 Q707.8423,553.0015 708.4731,552.4204 Z " fill="#000000"/><text fill="#000000" font-family="sans-serif" font-size="14" lengthAdjust="spacing" textLength="70" x="720" y="554.291">ClickEvent</text></g><!--class LoginEvent--><g id="elem_LoginEvent"><rect codeLine="27" fill="#E6E6E6" height="32" id="LoginEvent" rx="2.5" ry="2.5" style="stroke:#181818;stroke-width:0.5;" width="107" x="688.5" y="461"/><ellipse cx="703.5" cy="477" fill="#ADD1B2" rx="11" ry="11" style="stroke:#181818;stroke-width:1.0;"/><path d="M705.9731,483.1431 Q705.3921,483.4419 704.7529,483.5913 Q704.1138,483.7407 703.4082,483.7407 Q700.9014,483.7407 699.5815,482.0889 Q698.2617,480.437 698.2617,477.3159 Q698.2617,474.1865 699.5815,472.5347 Q700.9014,470.8828 703.4082,470.8828 Q704.1138,470.8828 704.7612,471.0322 Q705.4087,471.1816 705.9731,471.4805 L705.9731,474.2031 Q705.3423,473.6221 704.7488,473.3523 Q704.1553,473.0825 703.5244,473.0825 Q702.1797,473.0825 701.4949,474.1492 Q700.8101,475.2158 700.8101,477.3159 Q700.8101,479.4077 701.4949,480.4744 Q702.1797,481.541 703.5244,481.541 Q704.1553,481.541 704.7488,481.2712 Q705.3423,481.0015 705.9731,480.4204 Z " fill="#000000"/><text fill="#000000" font-family="sans-serif" font-size="14" lengthAdjust="spacing" textLength="75" x="717.5" y="482.291">LoginEvent</text></g><!--class TaskFinishedEvent--><g id="elem_TaskFinishedEvent"><rect codeLine="28" fill="#E6E6E6" height="32" id="TaskFinishedEvent" rx="2.5" ry="2.5" style="stroke:#181818;stroke-width:0.5;" width="159" x="662.5" y="605"/><ellipse cx="677.5" cy="621" fill="#ADD1B2" rx="11" ry="11" style="stroke:#181818;stroke-width:1.0;"/><path d="M679.9731,627.1431 Q679.3921,627.4419 678.7529,627.5913 Q678.1138,627.7407 677.4082,627.7407 Q674.9014,627.7407 673.5815,626.0889 Q672.2617,624.437 672.2617,621.3159 Q672.2617,618.1865 673.5815,616.5347 Q674.9014,614.8828 677.4082,614.8828 Q678.1138,614.8828 678.7612,615.0322 Q679.4087,615.1816 679.9731,615.4805 L679.9731,618.2031 Q679.3423,617.6221 678.7488,617.3523 Q678.1553,617.0825 677.5244,617.0825 Q676.1797,617.0825 675.4949,618.1492 Q674.8101,619.2158 674.8101,621.3159 Q674.8101,623.4077 675.4949,624.4744 Q676.1797,625.541 677.5244,625.541 Q678.1553,625.541 678.7488,625.2712 Q679.3423,625.0015 679.9731,624.4204 Z " fill="#000000"/><text fill="#000000" font-family="sans-serif" font-size="14" lengthAdjust="spacing" textLength="127" x="691.5" y="626.291">TaskFinishedEvent</text></g><!--class ErrorCommittedEvent--><g id="elem_ErrorCommittedEvent"><rect codeLine="29" fill="#E6E6E6" height="32" id="ErrorCommittedEvent" rx="2.5" ry="2.5" style="stroke:#181818;stroke-width:0.5;" width="180" x="652" y="389"/><ellipse cx="667" cy="405" fill="#ADD1B2" rx="11" ry="11" style="stroke:#181818;stroke-width:1.0;"/><path d="M669.4731,411.1431 Q668.8921,411.4419 668.2529,411.5913 Q667.6138,411.7407 666.9082,411.7407 Q664.4014,411.7407 663.0815,410.0889 Q661.7617,408.437 661.7617,405.3159 Q661.7617,402.1865 663.0815,400.5347 Q664.4014,398.8828 666.9082,398.8828 Q667.6138,398.8828 668.2612,399.0322 Q668.9087,399.1816 669.4731,399.4805 L669.4731,402.2031 Q668.8423,401.6221 668.2488,401.3523 Q667.6553,401.0825 667.0244,401.0825 Q665.6797,401.0825 664.9949,402.1492 Q664.3101,403.2158 664.3101,405.3159 Q664.3101,407.4077 664.9949,408.4744 Q665.6797,409.541 667.0244,409.541 Q667.6553,409.541 668.2488,409.2712 Q668.8423,409.0015 669.4731,408.4204 Z " fill="#000000"/><text fill="#000000" font-family="sans-serif" font-size="14" lengthAdjust="spacing" textLength="148" x="681" y="410.291">ErrorCommittedEvent</text></g><!--class HourPassedEvent--><g id="elem_HourPassedEvent"><rect codeLine="30" fill="#E6E6E6" height="32" id="HourPassedEvent" rx="2.5" ry="2.5" style="stroke:#181818;stroke-width:0.5;" width="150" x="667" y="245"/><ellipse cx="682" cy="261" fill="#ADD1B2" rx="11" ry="11" style="stroke:#181818;stroke-width:1.0;"/><path d="M684.4731,267.1431 Q683.8921,267.4419 683.2529,267.5913 Q682.6138,267.7407 681.9082,267.7407 Q679.4014,267.7407 678.0815,266.0889 Q676.7617,264.437 676.7617,261.3159 Q676.7617,258.1865 678.0815,256.5347 Q679.4014,254.8828 681.9082,254.8828 Q682.6138,254.8828 683.2612,255.0322 Q683.9087,255.1816 684.4731,255.4805 L684.4731,258.2031 Q683.8423,257.6221 683.2488,257.3523 Q682.6553,257.0825 682.0244,257.0825 Q680.6797,257.0825 679.9949,258.1492 Q679.3101,259.2158 679.3101,261.3159 Q679.3101,263.4077 679.9949,264.4744 Q680.6797,265.541 682.0244,265.541 Q682.6553,265.541 683.2488,265.2712 Q683.8423,265.0015 684.4731,264.4204 Z " fill="#000000"/><text fill="#000000" font-family="sans-serif" font-size="14" lengthAdjust="spacing" textLength="118" x="696" y="266.291">HourPassedEvent</text></g><!--class DayPassedEvent--><g id="elem_DayPassedEvent"><rect codeLine="31" fill="#E6E6E6" height="32" id="DayPassedEvent" rx="2.5" ry="2.5" style="stroke:#181818;stroke-width:0.5;" width="141" x="671.5" y="173"/><ellipse cx="686.5" cy="189" fill="#ADD1B2" rx="11" ry="11" style="stroke:#181818;stroke-width:1.0;"/><path d="M688.9731,195.1431 Q688.3921,195.4419 687.7529,195.5913 Q687.1138,195.7407 686.4082,195.7407 Q683.9014,195.7407 682.5815,194.0889 Q681.2617,192.437 681.2617,189.3159 Q681.2617,186.1865 682.5815,184.5347 Q683.9014,182.8828 686.4082,182.8828 Q687.1138,182.8828 687.7612,183.0322 Q688.4087,183.1816 688.9731,183.4805 L688.9731,186.2031 Q688.3423,185.6221 687.7488,185.3523 Q687.1553,185.0825 686.5244,185.0825 Q685.1797,185.0825 684.4949,186.1492 Q683.8101,187.2158 683.8101,189.3159 Q683.8101,191.4077 684.4949,192.4744 Q685.1797,193.541 686.5244,193.541 Q687.1553,193.541 687.7488,193.2712 Q688.3423,193.0015 688.9731,192.4204 Z " fill="#000000"/><text fill="#000000" font-family="sans-serif" font-size="14" lengthAdjust="spacing" textLength="109" x="700.5" y="194.291">DayPassedEvent</text></g><!--class WeekPassedEvent--><g id="elem_WeekPassedEvent"><rect codeLine="32" fill="#E6E6E6" height="32" id="WeekPassedEvent" rx="2.5" ry="2.5" style="stroke:#181818;stroke-width:0.5;" width="152" x="666" y="101"/><ellipse cx="681" cy="117" fill="#ADD1B2" rx="11" ry="11" style="stroke:#181818;stroke-width:1.0;"/><path d="M683.4731,123.1431 Q682.8921,123.4419 682.2529,123.5913 Q681.6138,123.7407 680.9082,123.7407 Q678.4014,123.7407 677.0815,122.0889 Q675.7617,120.437 675.7617,117.3159 Q675.7617,114.1865 677.0815,112.5347 Q678.4014,110.8828 680.9082,110.8828 Q681.6138,110.8828 682.2612,111.0322 Q682.9087,111.1816 683.4731,111.4805 L683.4731,114.2031 Q682.8423,113.6221 682.2488,113.3523 Q681.6553,113.0825 681.0244,113.0825 Q679.6797,113.0825 678.9949,114.1492 Q678.3101,115.2158 678.3101,117.3159 Q678.3101,119.4077 678.9949,120.4744 Q679.6797,121.541 681.0244,121.541 Q681.6553,121.541 682.2488,121.2712 Q682.8423,121.0015 683.4731,120.4204 Z " fill="#000000"/><text fill="#000000" font-family="sans-serif" font-size="14" lengthAdjust="spacing" textLength="120" x="695" y="122.291">WeekPassedEvent</text></g><!--class MechanicInteraction--><g id="elem_MechanicInteraction"><rect codeLine="33" fill="#E6E6E6" height="32" id="MechanicInteraction" rx="2.5" ry="2.5" style="stroke:#181818;stroke-width:0.5;" width="170" x="657" y="317"/><ellipse cx="672" cy="333" fill="#ADD1B2" rx="11" ry="11" style="stroke:#181818;stroke-width:1.0;"/><path d="M674.4731,339.1431 Q673.8921,339.4419 673.2529,339.5913 Q672.6138,339.7407 671.9082,339.7407 Q669.4014,339.7407 668.0815,338.0889 Q666.7617,336.437 666.7617,333.3159 Q666.7617,330.1865 668.0815,328.5347 Q669.4014,326.8828 671.9082,326.8828 Q672.6138,326.8828 673.2612,327.0322 Q673.9087,327.1816 674.4731,327.4805 L674.4731,330.2031 Q673.8423,329.6221 673.2488,329.3523 Q672.6553,329.0825 672.0244,329.0825 Q670.6797,329.0825 669.9949,330.1492 Q669.3101,331.2158 669.3101,333.3159 Q669.3101,335.4077 669.9949,336.4744 Q670.6797,337.541 672.0244,337.541 Q672.6553,337.541 673.2488,337.2712 Q673.8423,337.0015 674.4731,336.4204 Z " fill="#000000"/><text fill="#000000" font-family="sans-serif" font-size="14" lengthAdjust="spacing" textLength="138" x="686" y="338.291">MechanicInteraction</text></g><!--reverse link Event to UserEvent--><g id="link_Event_UserEvent"><path d="M328.8886,517.6238 C343.7086,521.5538 343.97,521.63 360.19,525.93 " fill="none" id="Event-backto-UserEvent" style="stroke:#181818;stroke-width:1.0;"/><polygon fill="none" points="311.49,513.01,327.3507,523.4234,330.4266,511.8243,311.49,513.01" style="stroke:#181818;stroke-width:1.0;"/></g><!--reverse link Event to SystemEvent--><g id="link_Event_SystemEvent"><path d="M328.825,489.6224 C341.055,486.2024 337.87,487.08 351.55,483.24 " fill="none" id="Event-backto-SystemEvent" style="stroke:#181818;stroke-width:1.0;"/><polygon fill="none" points="311.49,494.47,330.4408,495.4008,327.2091,483.8441,311.49,494.47" style="stroke:#181818;stroke-width:1.0;"/></g><!--reverse link UserEvent to TaskEvent--><g id="link_UserEvent_TaskEvent"><path d="M478.78,539 C494.51,539 493.91,539 509.68,539 " fill="none" id="UserEvent-backto-TaskEvent" style="stroke:#181818;stroke-width:1.0;"/><polygon fill="none" points="460.78,539,478.78,545,478.78,533,460.78,539" style="stroke:#181818;stroke-width:1.0;"/></g><!--reverse link EventCollection to Event--><g id="link_EventCollection_Event"><path codeLine="23" d="M173.48,504 C200.89,504 219.22,504 241.71,504 " fill="none" id="EventCollection-backto-Event" style="stroke:#181818;stroke-width:1.0;"/><polygon fill="none" points="161.48,504,167.48,508,173.48,504,167.48,500,161.48,504" style="stroke:#181818;stroke-width:1.0;"/><text fill="#000000" font-family="sans-serif" font-size="13" lengthAdjust="spacing" textLength="39" x="182" y="500.5684">stores</text><text fill="#000000" font-family="sans-serif" font-size="13" lengthAdjust="spacing" textLength="22" x="212.126" y="517.8363">1..*</text></g><!--reverse link UserEvent to ClickEvent--><g id="link_UserEvent_ClickEvent"><path d="M473.3366,516.402 C499.3066,506.912 510,503 510,503 C510,503 619,503 619,503 C619,503 644,513 644,513 C644,513 671.18,523.09 696.76,532.58 " fill="none" id="UserEvent-backto-ClickEvent" style="stroke:#181818;stroke-width:1.0;"/><polygon fill="none" points="456.43,522.58,475.3959,522.0375,471.2772,510.7665,456.43,522.58" style="stroke:#181818;stroke-width:1.0;"/></g><!--reverse link UserEvent to LoginEvent--><g id="link_UserEvent_LoginEvent"><path d="M459.9969,514.5948 C481.2269,503.9048 489,500 489,500 C489,500 510,492 510,492 C510,492 619.8,484.87 688,480.44 " fill="none" id="UserEvent-backto-LoginEvent" style="stroke:#181818;stroke-width:1.0;"/><polygon fill="none" points="443.92,522.69,462.6953,519.9537,457.2985,509.2358,443.92,522.69" style="stroke:#181818;stroke-width:1.0;"/></g><!--reverse link TaskEvent to TaskFinishedEvent--><g id="link_TaskEvent_TaskFinishedEvent"><path d="M606.5414,564.1158 C630.2514,577.3358 644,585 644,585 C644,585 671.18,595.09 696.76,604.58 " fill="none" id="TaskEvent-backto-TaskFinishedEvent" style="stroke:#181818;stroke-width:1.0;"/><polygon fill="none" points="590.82,555.35,603.6194,569.3562,609.4633,558.8753,590.82,555.35" style="stroke:#181818;stroke-width:1.0;"/></g><!--reverse link UserEvent to ErrorCommittedEvent--><g id="link_UserEvent_ErrorCommittedEvent"><path d="M452.8133,513.1329 C468.0233,503.6029 469,503 469,503 C469,503 489,489 489,489 C489,489 510,477 510,477 C510,477 620.12,442.68 688.29,421.43 " fill="none" id="UserEvent-backto-ErrorCommittedEvent" style="stroke:#181818;stroke-width:1.0;"/><polygon fill="none" points="437.56,522.69,455.999,518.2173,449.6276,508.0485,437.56,522.69" style="stroke:#181818;stroke-width:1.0;"/></g><!--reverse link SystemEvent to HourPassedEvent--><g id="link_SystemEvent_HourPassedEvent"><path d="M429.553,435.0832 C450.083,398.7932 489,330 489,330 C489,330 606.42,297.85 680.96,277.44 " fill="none" id="SystemEvent-backto-HourPassedEvent" style="stroke:#181818;stroke-width:1.0;"/><polygon fill="none" points="420.69,450.75,434.7753,438.0376,424.3308,432.1289,420.69,450.75" style="stroke:#181818;stroke-width:1.0;"/></g><!--reverse link SystemEvent to DayPassedEvent--><g id="link_SystemEvent_DayPassedEvent"><path d="M428.4397,434.6537 C448.6197,396.1137 489,319 489,319 C489,319 510,299 510,299 C510,299 644,225 644,225 C644,225 671.18,214.91 696.76,205.42 " fill="none" id="SystemEvent-backto-DayPassedEvent" style="stroke:#181818;stroke-width:1.0;"/><polygon fill="none" points="420.09,450.6,433.7551,437.437,423.1242,431.8705,420.09,450.6" style="stroke:#181818;stroke-width:1.0;"/></g><!--reverse link SystemEvent to WeekPassedEvent--><g id="link_SystemEvent_WeekPassedEvent"><path d="M426.9036,434.3176 C450.1236,385.0476 510,258 510,258 C510,258 644,153 644,153 C644,153 671.18,142.91 696.76,133.42 " fill="none" id="SystemEvent-backto-WeekPassedEvent" style="stroke:#181818;stroke-width:1.0;"/><polygon fill="none" points="419.23,450.6,432.331,436.8755,421.4761,431.7598,419.23,450.6" style="stroke:#181818;stroke-width:1.0;"/></g><!--reverse link UserEvent to MechanicInteraction--><g id="link_UserEvent_MechanicInteraction"><path d="M452.8133,513.1329 C468.0233,503.6029 469,503 469,503 C469,503 510,449 510,449 C510,449 644,369 644,369 C644,369 671.18,358.91 696.76,349.42 " fill="none" id="UserEvent-backto-MechanicInteraction" style="stroke:#181818;stroke-width:1.0;"/><polygon fill="none" points="437.56,522.69,455.999,518.2173,449.6276,508.0485,437.56,522.69" style="stroke:#181818;stroke-width:1.0;"/></g><!--SRC=[dL91JiCm4Bpx5QlsXjH09SI1Qoa22IH4GPpTP9DOSUp8kwc8KF-EdQGb1I9AxOizcTcPtPWAPIhfP0bQ6UIcGgYiRi95v2f1mBBY1ahat2OqX2IpK-kQaGw9vHeT2Oqf0rjmAiiP4kKmPcMDeBsViGaILd1vCG2TDCKFi99n8JDSSQCHGY5fCer2z3WiDsZu6JD5x6HmWMaw3ni-183634tYirHT60yjDrBNaZ61cj2TKqEC9SWs8KMmi5ftSGc8hVEz1GUAl3IKwYeAVukr9EhyOHgtAqt1Vs2R-OcXQnFiUA_UhEVYLTYUY-_iQ_Kr1jnLc-bOzekaOeoxT_NyxRVGNvr2EvP3oCvcC9b7qTcaR_6w6mU9iGuNMiL71Ta97cocp7y4eTDRPHJbc8pfzjCOw9REMRUmPQcOnvM_ETxPsZtvmxXgyAy6kXlPd29xGonEqJrYd4kZudl3wBgd_ETZs7u2]--></g></svg>