<?xml version="1.0" encoding="us-ascii" standalone="no"?><svg xmlns="http://www.w3.org/2000/svg" xmlns:xlink="http://www.w3.org/1999/xlink" contentStyleType="text/css" height="979px" preserveAspectRatio="none" style="width:1075px;height:979px;background:#FFFFFF;" version="1.1" viewBox="0 0 1075 979" width="1075px" zoomAndPan="magnify"><defs/><g><!--cluster Program_and_Tasks--><g id="cluster_Program_and_Tasks"><path d="M8.5,6 L153.5,6 A3.75,3.75 0 0 1 156,8.5 L163,28.4883 L1065.5,28.4883 A2.5,2.5 0 0 1 1068,30.9883 L1068,969.6 A2.5,2.5 0 0 1 1065.5,972.1 L8.5,972.1 A2.5,2.5 0 0 1 6,969.6 L6,8.5 A2.5,2.5 0 0 1 8.5,6 " fill="none" style="stroke:#000000;stroke-width:1.5;"/><line style="stroke:#000000;stroke-width:1.5;" x1="6" x2="163" y1="28.4883" y2="28.4883"/><text fill="#000000" font-family="sans-serif" font-size="14" font-weight="bold" lengthAdjust="spacing" textLength="144" x="10" y="21.5352">Program_and_Tasks</text></g><!--class Program--><g id="elem_Program"><rect codeLine="3" fill="#90EE90" height="97.4648" id="Program" rx="2.5" ry="2.5" style="stroke:#181818;stroke-width:0.5;" width="152" x="386" y="41"/><ellipse cx="428.45" cy="57" fill="#ADD1B2" rx="11" ry="11" style="stroke:#181818;stroke-width:1.0;"/><path d="M430.9231,63.1431 Q430.3421,63.4419 429.7029,63.5913 Q429.0638,63.7407 428.3582,63.7407 Q425.8514,63.7407 424.5315,62.0889 Q423.2117,60.437 423.2117,57.3159 Q423.2117,54.1865 424.5315,52.5347 Q425.8514,50.8828 428.3582,50.8828 Q429.0638,50.8828 429.7112,51.0322 Q430.3587,51.1816 430.9231,51.4805 L430.9231,54.2031 Q430.2923,53.6221 429.6988,53.3523 Q429.1053,53.0825 428.4744,53.0825 Q427.1297,53.0825 426.4449,54.1492 Q425.7601,55.2158 425.7601,57.3159 Q425.7601,59.4077 426.4449,60.4744 Q427.1297,61.541 428.4744,61.541 Q429.1053,61.541 429.6988,61.2712 Q430.2923,61.0015 430.9231,60.4204 Z " fill="#000000"/><text fill="#000000" font-family="sans-serif" font-size="14" lengthAdjust="spacing" textLength="59" x="448.55" y="62.291">Program</text><line style="stroke:#181818;stroke-width:0.5;" x1="387" x2="537" y1="73" y2="73"/><ellipse cx="397" cy="86.7441" fill="none" rx="3" ry="3" style="stroke:#038048;stroke-width:1.0;"/><text fill="#000000" font-family="sans-serif" font-size="14" lengthAdjust="spacing" textLength="39" x="406" y="90.5352">id: int</text><ellipse cx="397" cy="103.2324" fill="none" rx="3" ry="3" style="stroke:#038048;stroke-width:1.0;"/><text fill="#000000" font-family="sans-serif" font-size="14" lengthAdjust="spacing" textLength="87" x="406" y="107.0234">name: String</text><ellipse cx="397" cy="119.7207" fill="none" rx="3" ry="3" style="stroke:#038048;stroke-width:1.0;"/><text fill="#000000" font-family="sans-serif" font-size="14" lengthAdjust="spacing" textLength="126" x="406" y="123.5117">description: String</text><line style="stroke:#181818;stroke-width:0.5;" x1="387" x2="537" y1="130.4648" y2="130.4648"/></g><g id="elem_GMN4"><path d="M572.5,77.08 L572.5,85.73 L538.4,89.73 L572.5,93.73 L572.5,102.3905 A0,0 0 0 0 572.5,102.3905 L859.5,102.3905 A0,0 0 0 0 859.5,102.3905 L859.5,87.08 L849.5,77.08 L572.5,77.08 A0,0 0 0 0 572.5,77.08 " fill="#FEFFDD" style="stroke:#181818;stroke-width:0.5;"/><path d="M849.5,77.08 L849.5,87.08 L859.5,87.08 L849.5,77.08 " fill="#FEFFDD" style="stroke:#181818;stroke-width:0.5;"/><text fill="#000000" font-family="sans-serif" font-size="13" lengthAdjust="spacing" textLength="266" x="578.5" y="94.6484">A succession of task blocks (composites).</text></g><!--class Task--><g id="elem_Task"><rect codeLine="13" fill="#90EE90" height="130.4414" id="Task" rx="2.5" ry="2.5" style="stroke:#181818;stroke-width:0.5;" width="173" x="838.5" y="548.39"/><ellipse cx="904.75" cy="564.39" fill="#ADD1B2" rx="11" ry="11" style="stroke:#181818;stroke-width:1.0;"/><path d="M907.2231,570.5331 Q906.6421,570.8319 906.0029,570.9813 Q905.3638,571.1307 904.6582,571.1307 Q902.1514,571.1307 900.8315,569.4789 Q899.5117,567.827 899.5117,564.7059 Q899.5117,561.5765 900.8315,559.9247 Q902.1514,558.2728 904.6582,558.2728 Q905.3638,558.2728 906.0112,558.4222 Q906.6587,558.5716 907.2231,558.8705 L907.2231,561.5931 Q906.5923,561.0121 905.9988,560.7423 Q905.4053,560.4725 904.7744,560.4725 Q903.4297,560.4725 902.7449,561.5392 Q902.0601,562.6058 902.0601,564.7059 Q902.0601,566.7977 902.7449,567.8644 Q903.4297,568.931 904.7744,568.931 Q905.4053,568.931 905.9988,568.6612 Q906.5923,568.3915 907.2231,567.8104 Z " fill="#000000"/><text fill="#000000" font-family="sans-serif" font-size="14" lengthAdjust="spacing" textLength="32" x="925.25" y="569.681">Task</text><line style="stroke:#181818;stroke-width:0.5;" x1="839.5" x2="1010.5" y1="580.39" y2="580.39"/><ellipse cx="849.5" cy="594.1341" fill="none" rx="3" ry="3" style="stroke:#038048;stroke-width:1.0;"/><text fill="#000000" font-family="sans-serif" font-size="14" lengthAdjust="spacing" textLength="39" x="858.5" y="597.9252">id: int</text><ellipse cx="849.5" cy="610.6224" fill="none" rx="3" ry="3" style="stroke:#038048;stroke-width:1.0;"/><text fill="#000000" font-family="sans-serif" font-size="14" lengthAdjust="spacing" textLength="75" x="858.5" y="614.4134">title: String</text><ellipse cx="849.5" cy="627.1107" fill="none" rx="3" ry="3" style="stroke:#038048;stroke-width:1.0;"/><text fill="#000000" font-family="sans-serif" font-size="14" lengthAdjust="spacing" textLength="126" x="858.5" y="630.9017">description: String</text><ellipse cx="849.5" cy="643.599" fill="none" rx="3" ry="3" style="stroke:#038048;stroke-width:1.0;"/><text fill="#000000" font-family="sans-serif" font-size="14" lengthAdjust="spacing" textLength="147" x="858.5" y="647.39">isMandatory: Boolean</text><ellipse cx="849.5" cy="660.0873" fill="none" rx="3" ry="3" style="stroke:#038048;stroke-width:1.0;"/><text fill="#000000" font-family="sans-serif" font-size="14" lengthAdjust="spacing" textLength="135" x="858.5" y="663.8783">completed: Boolean</text><line style="stroke:#181818;stroke-width:0.5;" x1="839.5" x2="1010.5" y1="670.8314" y2="670.8314"/></g><!--class Level--><g id="elem_Level"><rect codeLine="21" fill="#90EE90" height="113.9531" id="Level" rx="2.5" ry="2.5" style="stroke:#181818;stroke-width:0.5;" width="152" x="232" y="755.84"/><ellipse cx="286.75" cy="771.84" fill="#ADD1B2" rx="11" ry="11" style="stroke:#181818;stroke-width:1.0;"/><path d="M289.2231,777.9831 Q288.6421,778.2819 288.0029,778.4313 Q287.3638,778.5807 286.6582,778.5807 Q284.1514,778.5807 282.8315,776.9289 Q281.5117,775.277 281.5117,772.1559 Q281.5117,769.0265 282.8315,767.3747 Q284.1514,765.7228 286.6582,765.7228 Q287.3638,765.7228 288.0112,765.8722 Q288.6587,766.0216 289.2231,766.3205 L289.2231,769.0431 Q288.5923,768.4621 287.9988,768.1923 Q287.4053,767.9225 286.7744,767.9225 Q285.4297,767.9225 284.7449,768.9892 Q284.0601,770.0558 284.0601,772.1559 Q284.0601,774.2477 284.7449,775.3144 Q285.4297,776.381 286.7744,776.381 Q287.4053,776.381 287.9988,776.1112 Q288.5923,775.8415 289.2231,775.2604 Z " fill="#000000"/><text fill="#000000" font-family="sans-serif" font-size="14" lengthAdjust="spacing" textLength="34" x="307.25" y="777.131">Level</text><line style="stroke:#181818;stroke-width:0.5;" x1="233" x2="383" y1="787.84" y2="787.84"/><ellipse cx="243" cy="801.5841" fill="none" rx="3" ry="3" style="stroke:#038048;stroke-width:1.0;"/><text fill="#000000" font-family="sans-serif" font-size="14" lengthAdjust="spacing" textLength="39" x="252" y="805.3752">id: int</text><ellipse cx="243" cy="818.0724" fill="none" rx="3" ry="3" style="stroke:#038048;stroke-width:1.0;"/><text fill="#000000" font-family="sans-serif" font-size="14" lengthAdjust="spacing" textLength="87" x="252" y="821.8634">name: String</text><ellipse cx="243" cy="834.5607" fill="none" rx="3" ry="3" style="stroke:#038048;stroke-width:1.0;"/><text fill="#000000" font-family="sans-serif" font-size="14" lengthAdjust="spacing" textLength="85" x="252" y="838.3517">difficulty: Int</text><ellipse cx="243" cy="851.049" fill="none" rx="3" ry="3" style="stroke:#038048;stroke-width:1.0;"/><text fill="#000000" font-family="sans-serif" font-size="14" lengthAdjust="spacing" textLength="126" x="252" y="854.84">unlocked: Boolean</text><line style="stroke:#181818;stroke-width:0.5;" x1="233" x2="383" y1="861.7931" y2="861.7931"/></g><!--class Repetitions--><g id="elem_Repetitions"><rect codeLine="28" fill="#90EE90" height="97.4648" id="Repetitions" rx="2.5" ry="2.5" style="stroke:#181818;stroke-width:0.5;" width="161" x="588.5" y="764.08"/><ellipse cx="626.9" cy="780.08" fill="#ADD1B2" rx="11" ry="11" style="stroke:#181818;stroke-width:1.0;"/><path d="M629.3731,786.2231 Q628.7921,786.5219 628.1529,786.6713 Q627.5138,786.8207 626.8082,786.8207 Q624.3014,786.8207 622.9815,785.1689 Q621.6617,783.517 621.6617,780.3959 Q621.6617,777.2665 622.9815,775.6147 Q624.3014,773.9628 626.8082,773.9628 Q627.5138,773.9628 628.1612,774.1122 Q628.8087,774.2616 629.3731,774.5605 L629.3731,777.2831 Q628.7423,776.7021 628.1488,776.4323 Q627.5553,776.1625 626.9244,776.1625 Q625.5797,776.1625 624.8949,777.2292 Q624.2101,778.2958 624.2101,780.3959 Q624.2101,782.4877 624.8949,783.5544 Q625.5797,784.621 626.9244,784.621 Q627.5553,784.621 628.1488,784.3512 Q628.7423,784.0815 629.3731,783.5004 Z " fill="#000000"/><text fill="#000000" font-family="sans-serif" font-size="14" lengthAdjust="spacing" textLength="77" x="646.1" y="785.371">Repetitions</text><line style="stroke:#181818;stroke-width:0.5;" x1="589.5" x2="748.5" y1="796.08" y2="796.08"/><ellipse cx="599.5" cy="809.8241" fill="none" rx="3" ry="3" style="stroke:#038048;stroke-width:1.0;"/><text fill="#000000" font-family="sans-serif" font-size="14" lengthAdjust="spacing" textLength="39" x="608.5" y="813.6152">id: int</text><ellipse cx="599.5" cy="826.3124" fill="none" rx="3" ry="3" style="stroke:#038048;stroke-width:1.0;"/><text fill="#000000" font-family="sans-serif" font-size="14" lengthAdjust="spacing" textLength="65" x="608.5" y="830.1034">count: Int</text><ellipse cx="599.5" cy="842.8007" fill="none" rx="3" ry="3" style="stroke:#038048;stroke-width:1.0;"/><text fill="#000000" font-family="sans-serif" font-size="14" lengthAdjust="spacing" textLength="135" x="608.5" y="846.5917">completed: Boolean</text><line style="stroke:#181818;stroke-width:0.5;" x1="589.5" x2="748.5" y1="853.5448" y2="853.5448"/></g><g id="elem_GMN10"><path d="M22.5,930.79 L22.5,956.1005 A0,0 0 0 0 22.5,956.1005 L519.5,956.1005 A0,0 0 0 0 519.5,956.1005 L519.5,940.79 L509.5,930.79 L278.43,930.79 L291.77,870.23 L270.43,930.79 L22.5,930.79 A0,0 0 0 0 22.5,930.79 " fill="#FEFFDD" style="stroke:#181818;stroke-width:0.5;"/><path d="M509.5,930.79 L509.5,940.79 L519.5,940.79 L509.5,930.79 " fill="#FEFFDD" style="stroke:#181818;stroke-width:0.5;"/><text fill="#000000" font-family="sans-serif" font-size="13" lengthAdjust="spacing" textLength="476" x="28.5" y="948.3584">Indicates the difficulty of a task. Optional as task might not have difficulty.</text></g><g id="elem_GMN13"><path d="M554.5,930.79 L554.5,956.1005 A0,0 0 0 0 554.5,956.1005 L1051.5,956.1005 A0,0 0 0 0 1051.5,956.1005 L1051.5,940.79 L1041.5,930.79 L794.61,930.79 L718.9,861.71 L786.61,930.79 L554.5,930.79 A0,0 0 0 0 554.5,930.79 " fill="#FEFFDD" style="stroke:#181818;stroke-width:0.5;"/><path d="M1041.5,930.79 L1041.5,940.79 L1051.5,940.79 L1041.5,930.79 " fill="#FEFFDD" style="stroke:#181818;stroke-width:0.5;"/><text fill="#000000" font-family="sans-serif" font-size="13" lengthAdjust="spacing" textLength="476" x="560.5" y="948.3584">Indicates the number of repetitions of a task. Mandatory to define program.</text></g><!--class TaskRequirement--><g id="elem_TaskRequirement"><rect codeLine="42" fill="#90EE90" height="64.4883" id="TaskRequirement" rx="2.5" ry="2.5" style="stroke:#181818;stroke-width:0.5;" width="188" x="297" y="581.37"/><ellipse cx="328.2" cy="597.37" fill="#ADD1B2" rx="11" ry="11" style="stroke:#181818;stroke-width:1.0;"/><path d="M330.6731,603.5131 Q330.0921,603.8119 329.4529,603.9613 Q328.8138,604.1107 328.1082,604.1107 Q325.6014,604.1107 324.2815,602.4589 Q322.9617,600.807 322.9617,597.6859 Q322.9617,594.5565 324.2815,592.9047 Q325.6014,591.2528 328.1082,591.2528 Q328.8138,591.2528 329.4612,591.4022 Q330.1087,591.5516 330.6731,591.8505 L330.6731,594.5731 Q330.0423,593.9921 329.4488,593.7223 Q328.8553,593.4525 328.2244,593.4525 Q326.8797,593.4525 326.1949,594.5192 Q325.5101,595.5858 325.5101,597.6859 Q325.5101,599.7777 326.1949,600.8444 Q326.8797,601.911 328.2244,601.911 Q328.8553,601.911 329.4488,601.6412 Q330.0423,601.3715 330.6731,600.7904 Z " fill="#000000"/><text fill="#000000" font-family="sans-serif" font-size="14" lengthAdjust="spacing" textLength="120" x="345.8" y="602.661">TaskRequirement</text><line style="stroke:#181818;stroke-width:0.5;" x1="298" x2="484" y1="613.37" y2="613.37"/><ellipse cx="308" cy="627.1141" fill="none" rx="3" ry="3" style="stroke:#038048;stroke-width:1.0;"/><text fill="#000000" font-family="sans-serif" font-size="14" lengthAdjust="spacing" textLength="162" x="317" y="630.9052">requiredRepetitions: int</text><line style="stroke:#181818;stroke-width:0.5;" x1="298" x2="484" y1="637.8583" y2="637.8583"/></g><g id="elem_GMN17"><path d="M520,593.31 L520,609.62 L485.48,613.62 L520,617.62 L520,633.9311 A0,0 0 0 0 520,633.9311 L804,633.9311 A0,0 0 0 0 804,633.9311 L804,603.31 L794,593.31 L520,593.31 A0,0 0 0 0 520,593.31 " fill="#FEFFDD" style="stroke:#181818;stroke-width:0.5;"/><path d="M794,593.31 L794,603.31 L804,603.31 L794,593.31 " fill="#FEFFDD" style="stroke:#181818;stroke-width:0.5;"/><text fill="#000000" font-family="sans-serif" font-size="13" lengthAdjust="spacing" textLength="263" x="526" y="610.8784">How many times a Task must be repeated</text><text fill="#000000" font-family="sans-serif" font-size="13" lengthAdjust="spacing" textLength="242" x="526" y="626.1889">on a specific Level within a TaskBlock.</text></g><!--class TaskAssignment--><g id="elem_TaskAssignment"><rect codeLine="51" fill="#90EE90" height="64.4883" id="TaskAssignment" rx="2.5" ry="2.5" style="stroke:#181818;stroke-width:0.5;" width="145" x="389.5" y="406.91"/><ellipse cx="404.5" cy="422.91" fill="#ADD1B2" rx="11" ry="11" style="stroke:#181818;stroke-width:1.0;"/><path d="M406.9731,429.0531 Q406.3921,429.3519 405.7529,429.5013 Q405.1138,429.6507 404.4082,429.6507 Q401.9014,429.6507 400.5815,427.9989 Q399.2617,426.347 399.2617,423.2259 Q399.2617,420.0965 400.5815,418.4447 Q401.9014,416.7928 404.4082,416.7928 Q405.1138,416.7928 405.7612,416.9422 Q406.4087,417.0916 406.9731,417.3905 L406.9731,420.1131 Q406.3423,419.5321 405.7488,419.2623 Q405.1553,418.9925 404.5244,418.9925 Q403.1797,418.9925 402.4949,420.0592 Q401.8101,421.1258 401.8101,423.2259 Q401.8101,425.3177 402.4949,426.3844 Q403.1797,427.451 404.5244,427.451 Q405.1553,427.451 405.7488,427.1812 Q406.3423,426.9115 406.9731,426.3304 Z " fill="#000000"/><text fill="#000000" font-family="sans-serif" font-size="14" lengthAdjust="spacing" textLength="113" x="418.5" y="428.201">TaskAssignment</text><line style="stroke:#181818;stroke-width:0.5;" x1="390.5" x2="533.5" y1="438.91" y2="438.91"/><text fill="#000000" font-family="sans-serif" font-size="14" lengthAdjust="spacing" textLength="68" x="395.5" y="456.4452">task: Task</text><line style="stroke:#181818;stroke-width:0.5;" x1="390.5" x2="533.5" y1="463.3983" y2="463.3983"/></g><g id="elem_GMN21"><path d="M569.5,418.84 L569.5,435.15 L534.84,439.15 L569.5,443.15 L569.5,459.4611 A0,0 0 0 0 569.5,459.4611 L858.5,459.4611 A0,0 0 0 0 858.5,459.4611 L858.5,428.84 L848.5,418.84 L569.5,418.84 A0,0 0 0 0 569.5,418.84 " fill="#FEFFDD" style="stroke:#181818;stroke-width:0.5;"/><path d="M848.5,418.84 L848.5,428.84 L858.5,428.84 L848.5,418.84 " fill="#FEFFDD" style="stroke:#181818;stroke-width:0.5;"/><text fill="#000000" font-family="sans-serif" font-size="13" lengthAdjust="spacing" textLength="268" x="575.5" y="436.4084">Assigns a Task to a TaskBlock and defines</text><text fill="#000000" font-family="sans-serif" font-size="13" lengthAdjust="spacing" textLength="216" x="575.5" y="451.7189">required repetitions across Levels.</text></g><!--class TaskBlock--><g id="elem_TaskBlock"><rect codeLine="61" fill="#90EE90" height="130.4414" id="TaskBlock" rx="2.5" ry="2.5" style="stroke:#181818;stroke-width:0.5;" width="161" x="381.5" y="199.47"/><ellipse cx="423.95" cy="215.47" fill="#ADD1B2" rx="11" ry="11" style="stroke:#181818;stroke-width:1.0;"/><path d="M426.4231,221.6131 Q425.8421,221.9119 425.2029,222.0613 Q424.5638,222.2107 423.8582,222.2107 Q421.3514,222.2107 420.0315,220.5589 Q418.7117,218.907 418.7117,215.7859 Q418.7117,212.6565 420.0315,211.0047 Q421.3514,209.3528 423.8582,209.3528 Q424.5638,209.3528 425.2112,209.5022 Q425.8587,209.6516 426.4231,209.9505 L426.4231,212.6731 Q425.7923,212.0921 425.1988,211.8223 Q424.6053,211.5525 423.9744,211.5525 Q422.6297,211.5525 421.9449,212.6192 Q421.2601,213.6858 421.2601,215.7859 Q421.2601,217.8777 421.9449,218.9444 Q422.6297,220.011 423.9744,220.011 Q424.6053,220.011 425.1988,219.7412 Q425.7923,219.4715 426.4231,218.8904 Z " fill="#000000"/><text fill="#000000" font-family="sans-serif" font-size="14" lengthAdjust="spacing" textLength="68" x="444.05" y="220.761">TaskBlock</text><line style="stroke:#181818;stroke-width:0.5;" x1="382.5" x2="541.5" y1="231.47" y2="231.47"/><ellipse cx="392.5" cy="245.2141" fill="none" rx="3" ry="3" style="stroke:#038048;stroke-width:1.0;"/><text fill="#000000" font-family="sans-serif" font-size="14" lengthAdjust="spacing" textLength="39" x="401.5" y="249.0052">id: int</text><ellipse cx="392.5" cy="261.7024" fill="none" rx="3" ry="3" style="stroke:#038048;stroke-width:1.0;"/><text fill="#000000" font-family="sans-serif" font-size="14" lengthAdjust="spacing" textLength="75" x="401.5" y="265.4934">title: String</text><ellipse cx="392.5" cy="278.1907" fill="none" rx="3" ry="3" style="stroke:#038048;stroke-width:1.0;"/><text fill="#000000" font-family="sans-serif" font-size="14" lengthAdjust="spacing" textLength="126" x="401.5" y="281.9817">description: String</text><ellipse cx="392.5" cy="294.679" fill="none" rx="3" ry="3" style="stroke:#038048;stroke-width:1.0;"/><text fill="#000000" font-family="sans-serif" font-size="14" lengthAdjust="spacing" textLength="135" x="401.5" y="298.47">startDate: DateTime</text><ellipse cx="392.5" cy="311.1673" fill="none" rx="3" ry="3" style="stroke:#038048;stroke-width:1.0;"/><text fill="#000000" font-family="sans-serif" font-size="14" lengthAdjust="spacing" textLength="130" x="401.5" y="314.9583">endDate: DateTime</text><line style="stroke:#181818;stroke-width:0.5;" x1="382.5" x2="541.5" y1="321.9114" y2="321.9114"/></g><g id="elem_GMN25"><path d="M577.5,244.38 L577.5,260.69 L542.66,264.69 L577.5,268.69 L577.5,285.0011 A0,0 0 0 0 577.5,285.0011 L1046.5,285.0011 A0,0 0 0 0 1046.5,285.0011 L1046.5,254.38 L1036.5,244.38 L577.5,244.38 A0,0 0 0 0 577.5,244.38 " fill="#FEFFDD" style="stroke:#181818;stroke-width:0.5;"/><path d="M1036.5,244.38 L1036.5,254.38 L1046.5,254.38 L1036.5,244.38 " fill="#FEFFDD" style="stroke:#181818;stroke-width:0.5;"/><text fill="#000000" font-family="sans-serif" font-size="13" lengthAdjust="spacing" textLength="448" x="583.5" y="261.9484">Composite element: groups multiple TaskAssignments and TaskBlocks</text><text fill="#000000" font-family="sans-serif" font-size="13" lengthAdjust="spacing" textLength="266" x="583.5" y="277.2589">into a hierarchy. Allows nested structures.</text></g><!--link TaskAssignment to Task--><g id="link_TaskAssignment_Task"><path codeLine="74" d="M534.58,465.74 C540.46,467.69 546.32,469.6 552,471.39 C670.56,508.91 707.25,498.14 821,548.39 C826.73,550.92 827.181,550.963 832.941,553.943 " fill="none" id="TaskAssignment-to-Task" style="stroke:#181818;stroke-width:1.0;"/><polygon fill="#181818" points="838.27,556.7,832.1145,549.0117,833.8291,554.4025,828.4384,556.1171,838.27,556.7" style="stroke:#181818;stroke-width:1.0;"/><text fill="#000000" font-family="sans-serif" font-size="13" lengthAdjust="spacing" textLength="82" x="741.09" y="514.9584">has assigned</text><text fill="#000000" font-family="sans-serif" font-size="13" lengthAdjust="spacing" textLength="8" x="822.4729" y="548.7464">1</text></g><!--link TaskAssignment to TaskRequirement--><g id="link_TaskAssignment_TaskRequirement"><path codeLine="75" d="M448.98,471.78 C436.21,502.8 419.1237,544.2916 406.3437,575.3416 " fill="none" id="TaskAssignment-to-TaskRequirement" style="stroke:#181818;stroke-width:1.0;"/><polygon fill="#181818" points="404.06,580.89,411.1845,574.0899,405.9631,576.2663,403.7866,571.0449,404.06,580.89" style="stroke:#181818;stroke-width:1.0;"/><text fill="#000000" font-family="sans-serif" font-size="13" lengthAdjust="spacing" textLength="84" x="435.95" y="514.9584">has Assigned</text><text fill="#000000" font-family="sans-serif" font-size="13" lengthAdjust="spacing" textLength="22" x="382.4656" y="570.5698">1..*</text></g><!--link TaskRequirement to Level--><g id="link_TaskRequirement_Level"><path codeLine="76" d="M377.66,646.3 C365.29,675.69 348.9279,714.59 334.0179,750.01 " fill="none" id="TaskRequirement-to-Level" style="stroke:#181818;stroke-width:1.0;"/><polygon fill="#181818" points="331.69,755.54,338.8685,748.7969,333.6299,750.9317,331.4951,745.6931,331.69,755.54" style="stroke:#181818;stroke-width:1.0;"/><text fill="#000000" font-family="sans-serif" font-size="13" lengthAdjust="spacing" textLength="52" x="350.5" y="722.4084">optional</text><text fill="#000000" font-family="sans-serif" font-size="13" lengthAdjust="spacing" textLength="24" x="309.1147" y="745.2326">0..1</text></g><!--link TaskRequirement to Repetitions--><g id="link_TaskRequirement_Repetitions"><path codeLine="77" d="M435.67,646.3 C480.33,677.98 544.7062,723.6486 596.1762,760.1586 " fill="none" id="TaskRequirement-to-Repetitions" style="stroke:#181818;stroke-width:1.0;"/><polygon fill="#181818" points="601.07,763.63,596.0436,755.1604,596.9918,760.7372,591.415,761.6854,601.07,763.63" style="stroke:#181818;stroke-width:1.0;"/><text fill="#000000" font-family="sans-serif" font-size="13" lengthAdjust="spacing" textLength="52" x="547.64" y="722.4084">required</text><text fill="#000000" font-family="sans-serif" font-size="13" lengthAdjust="spacing" textLength="22" x="567.9705" y="753.2492">1..*</text></g><!--link Program to TaskBlock--><g id="link_Program_TaskBlock"><path codeLine="79" d="M462,138.91 C462,157.6 462,173.28 462,193.28 " fill="none" id="Program-to-TaskBlock" style="stroke:#181818;stroke-width:1.0;"/><polygon fill="#181818" points="462,199.28,466,190.28,462,194.28,458,190.28,462,199.28" style="stroke:#181818;stroke-width:1.0;"/><text fill="#000000" font-family="sans-serif" font-size="13" lengthAdjust="spacing" textLength="22" x="438.7969" y="188.8907">1..*</text></g><!--link TaskBlock to TaskAssignment--><g id="link_TaskBlock_TaskAssignment"><path codeLine="81" d="M462,330.4 C462,356.39 462,379.18 462,400.46 " fill="none" id="TaskBlock-to-TaskAssignment" style="stroke:#181818;stroke-width:1.0;"/><polygon fill="#181818" points="462,406.46,466,397.46,462,401.46,458,397.46,462,406.46" style="stroke:#181818;stroke-width:1.0;"/><text fill="#000000" font-family="sans-serif" font-size="13" lengthAdjust="spacing" textLength="54" x="463" y="373.4784">contains</text><text fill="#000000" font-family="sans-serif" font-size="13" lengthAdjust="spacing" textLength="22" x="437.8344" y="396.1457">1..*</text></g><!--SRC=[hLLBRzim3BxxLn3UPG_KsAu-34ZNGmjisD3rNYWoOmkL9K-Y6nH3_lieoKvKfqQ7OJa4i4YHtuEq1o4VH8lmmzdMYVvUcER-JlW73x-B0a1guVqSX3TQjHsr3j5m6FZtGJKrA4FfmOWUQ_X9JfasdJJefLC3AMkom26KDfOGN2W8TZUtuFCD-55Az9xlX0Wn6jXgAndJMsdxmNf5wDzLd8kcYNLEK0FsLt6I8lrNGCD5_uqr4MJTKmsNrceK9aK25es4JNv-E47vYe-e_qKpjTifEMhYXZTpscY20gkzRd50PiNe_QiTfHqDPQNNUKIBjfR8zi69I8YFRqoZf60FW3g44zoG8w9V5NoFKWeDmYS7- -WqLuHEFEQtbZukccRCpbgRiT-Y2rakuv-XE5e7PA71dJ88GvgqzV6vnL-ZSjYZePUqT2dSPC1cSK-YQTp5iLxKu_2rtKCl32DIFTCGQMBxqHDiCV9WUWqdylGBy0DAnK9DmxHNr2apNReC4x5EOyCRr9eL5a6UEgOLB-_ZymfXBUF34J3hcQ40rddIDxWqI_JC5Y6TdRV2hyDEzVxd1diIZgvOrHh2_nthdW8CuEnuHOg8YYDVvlSFe8wErj0wEmwU7TIaU8yMolaepR54K8T91F4wXKuusJrLiD7QxZsmU6mzU7AZfD7XcKeBMoykFaFvgKo6r51sl6iYXh4frzAhwdsv7ClfxcPnDr-4UFbZLN6xD8ers6d5rx9Jg_pDL1yd8x2PloeBN4dggMYQXaL6necHIsj8AEFBeZWKVm00]--></g></svg>