<?xml version="1.0" encoding="us-ascii" standalone="no"?><svg xmlns="http://www.w3.org/2000/svg" xmlns:xlink="http://www.w3.org/1999/xlink" contentStyleType="text/css" height="995px" preserveAspectRatio="none" style="width:1075px;height:995px;background:#FFFFFF;" version="1.1" viewBox="0 0 1075 995" width="1075px" zoomAndPan="magnify"><defs/><g><!--cluster Program_and_Tasks--><g id="cluster_Program_and_Tasks"><path d="M8.5,6 L153.5,6 A3.75,3.75 0 0 1 156,8.5 L163,28.4883 L1065.5,28.4883 A2.5,2.5 0 0 1 1068,30.9883 L1068,986.09 A2.5,2.5 0 0 1 1065.5,988.59 L8.5,988.59 A2.5,2.5 0 0 1 6,986.09 L6,8.5 A2.5,2.5 0 0 1 8.5,6 " fill="#EBFFE8" style="stroke:#000000;stroke-width:1.5;"/><line style="stroke:#000000;stroke-width:1.5;" x1="6" x2="163" y1="28.4883" y2="28.4883"/><text fill="#000000" font-family="sans-serif" font-size="14" font-weight="bold" lengthAdjust="spacing" textLength="144" x="10" y="21.5352">Program_and_Tasks</text></g><!--class Program--><g id="elem_Program"><rect codeLine="3" fill="#90EE90" height="97.4648" id="Program" rx="2.5" ry="2.5" style="stroke:#181818;stroke-width:0.5;" width="152" x="387" y="41"/><ellipse cx="429.45" cy="57" fill="#ADD1B2" rx="11" ry="11" style="stroke:#181818;stroke-width:1.0;"/><path d="M431.9231,63.1431 Q431.3421,63.4419 430.7029,63.5913 Q430.0638,63.7407 429.3582,63.7407 Q426.8514,63.7407 425.5315,62.0889 Q424.2117,60.437 424.2117,57.3159 Q424.2117,54.1865 425.5315,52.5347 Q426.8514,50.8828 429.3582,50.8828 Q430.0638,50.8828 430.7112,51.0322 Q431.3587,51.1816 431.9231,51.4805 L431.9231,54.2031 Q431.2923,53.6221 430.6988,53.3523 Q430.1053,53.0825 429.4744,53.0825 Q428.1297,53.0825 427.4449,54.1492 Q426.7601,55.2158 426.7601,57.3159 Q426.7601,59.4077 427.4449,60.4744 Q428.1297,61.541 429.4744,61.541 Q430.1053,61.541 430.6988,61.2712 Q431.2923,61.0015 431.9231,60.4204 Z " fill="#000000"/><text fill="#000000" font-family="sans-serif" font-size="14" lengthAdjust="spacing" textLength="59" x="449.55" y="62.291">Program</text><line style="stroke:#181818;stroke-width:0.5;" x1="388" x2="538" y1="73" y2="73"/><ellipse cx="398" cy="86.7441" fill="none" rx="3" ry="3" style="stroke:#038048;stroke-width:1.0;"/><text fill="#000000" font-family="sans-serif" font-size="14" lengthAdjust="spacing" textLength="39" x="407" y="90.5352">id: int</text><ellipse cx="398" cy="103.2324" fill="none" rx="3" ry="3" style="stroke:#038048;stroke-width:1.0;"/><text fill="#000000" font-family="sans-serif" font-size="14" lengthAdjust="spacing" textLength="87" x="407" y="107.0234">name: String</text><ellipse cx="398" cy="119.7207" fill="none" rx="3" ry="3" style="stroke:#038048;stroke-width:1.0;"/><text fill="#000000" font-family="sans-serif" font-size="14" lengthAdjust="spacing" textLength="126" x="407" y="123.5117">description: String</text><line style="stroke:#181818;stroke-width:0.5;" x1="388" x2="538" y1="130.4648" y2="130.4648"/></g><g id="elem_GMN4"><path d="M574,77.08 L574,85.73 L539.19,89.73 L574,93.73 L574,102.3905 A0,0 0 0 0 574,102.3905 L776,102.3905 A0,0 0 0 0 776,102.3905 L776,87.08 L766,77.08 L574,77.08 A0,0 0 0 0 574,77.08 " fill="#FEFFDD" style="stroke:#181818;stroke-width:0.5;"/><path d="M766,77.08 L766,87.08 L776,87.08 L766,77.08 " fill="#FEFFDD" style="stroke:#181818;stroke-width:0.5;"/><text fill="#000000" font-family="sans-serif" font-size="13" lengthAdjust="spacing" textLength="181" x="580" y="94.6484">A succession of task blocks.</text></g><!--class Task--><g id="elem_Task"><rect codeLine="13" fill="#90EE90" height="130.4414" id="Task" rx="2.5" ry="2.5" style="stroke:#181818;stroke-width:0.5;" width="173" x="806.5" y="564.88"/><ellipse cx="872.75" cy="580.88" fill="#ADD1B2" rx="11" ry="11" style="stroke:#181818;stroke-width:1.0;"/><path d="M875.2231,587.0231 Q874.6421,587.3219 874.0029,587.4713 Q873.3638,587.6207 872.6582,587.6207 Q870.1514,587.6207 868.8315,585.9689 Q867.5117,584.317 867.5117,581.1959 Q867.5117,578.0665 868.8315,576.4147 Q870.1514,574.7628 872.6582,574.7628 Q873.3638,574.7628 874.0112,574.9122 Q874.6587,575.0616 875.2231,575.3605 L875.2231,578.0831 Q874.5923,577.5021 873.9988,577.2323 Q873.4053,576.9625 872.7744,576.9625 Q871.4297,576.9625 870.7449,578.0292 Q870.0601,579.0958 870.0601,581.1959 Q870.0601,583.2877 870.7449,584.3544 Q871.4297,585.421 872.7744,585.421 Q873.4053,585.421 873.9988,585.1512 Q874.5923,584.8815 875.2231,584.3004 Z " fill="#000000"/><text fill="#000000" font-family="sans-serif" font-size="14" lengthAdjust="spacing" textLength="32" x="893.25" y="586.171">Task</text><line style="stroke:#181818;stroke-width:0.5;" x1="807.5" x2="978.5" y1="596.88" y2="596.88"/><ellipse cx="817.5" cy="610.6241" fill="none" rx="3" ry="3" style="stroke:#038048;stroke-width:1.0;"/><text fill="#000000" font-family="sans-serif" font-size="14" lengthAdjust="spacing" textLength="39" x="826.5" y="614.4152">id: int</text><ellipse cx="817.5" cy="627.1124" fill="none" rx="3" ry="3" style="stroke:#038048;stroke-width:1.0;"/><text fill="#000000" font-family="sans-serif" font-size="14" lengthAdjust="spacing" textLength="75" x="826.5" y="630.9034">title: String</text><ellipse cx="817.5" cy="643.6007" fill="none" rx="3" ry="3" style="stroke:#038048;stroke-width:1.0;"/><text fill="#000000" font-family="sans-serif" font-size="14" lengthAdjust="spacing" textLength="126" x="826.5" y="647.3917">description: String</text><ellipse cx="817.5" cy="660.089" fill="none" rx="3" ry="3" style="stroke:#038048;stroke-width:1.0;"/><text fill="#000000" font-family="sans-serif" font-size="14" lengthAdjust="spacing" textLength="147" x="826.5" y="663.88">isMandatory: Boolean</text><ellipse cx="817.5" cy="676.5773" fill="none" rx="3" ry="3" style="stroke:#038048;stroke-width:1.0;"/><text fill="#000000" font-family="sans-serif" font-size="14" lengthAdjust="spacing" textLength="135" x="826.5" y="680.3683">completed: Boolean</text><line style="stroke:#181818;stroke-width:0.5;" x1="807.5" x2="978.5" y1="687.3214" y2="687.3214"/></g><!--class Level--><g id="elem_Level"><rect codeLine="21" fill="#90EE90" height="113.9531" id="Level" rx="2.5" ry="2.5" style="stroke:#181818;stroke-width:0.5;" width="152" x="222" y="772.33"/><ellipse cx="276.75" cy="788.33" fill="#ADD1B2" rx="11" ry="11" style="stroke:#181818;stroke-width:1.0;"/><path d="M279.2231,794.4731 Q278.6421,794.7719 278.0029,794.9213 Q277.3638,795.0707 276.6582,795.0707 Q274.1514,795.0707 272.8315,793.4189 Q271.5117,791.767 271.5117,788.6459 Q271.5117,785.5165 272.8315,783.8647 Q274.1514,782.2128 276.6582,782.2128 Q277.3638,782.2128 278.0112,782.3622 Q278.6587,782.5116 279.2231,782.8105 L279.2231,785.5331 Q278.5923,784.9521 277.9988,784.6823 Q277.4053,784.4125 276.7744,784.4125 Q275.4297,784.4125 274.7449,785.4792 Q274.0601,786.5458 274.0601,788.6459 Q274.0601,790.7377 274.7449,791.8044 Q275.4297,792.871 276.7744,792.871 Q277.4053,792.871 277.9988,792.6012 Q278.5923,792.3315 279.2231,791.7504 Z " fill="#000000"/><text fill="#000000" font-family="sans-serif" font-size="14" lengthAdjust="spacing" textLength="34" x="297.25" y="793.621">Level</text><line style="stroke:#181818;stroke-width:0.5;" x1="223" x2="373" y1="804.33" y2="804.33"/><ellipse cx="233" cy="818.0741" fill="none" rx="3" ry="3" style="stroke:#038048;stroke-width:1.0;"/><text fill="#000000" font-family="sans-serif" font-size="14" lengthAdjust="spacing" textLength="39" x="242" y="821.8652">id: int</text><ellipse cx="233" cy="834.5624" fill="none" rx="3" ry="3" style="stroke:#038048;stroke-width:1.0;"/><text fill="#000000" font-family="sans-serif" font-size="14" lengthAdjust="spacing" textLength="87" x="242" y="838.3534">name: String</text><ellipse cx="233" cy="851.0507" fill="none" rx="3" ry="3" style="stroke:#038048;stroke-width:1.0;"/><text fill="#000000" font-family="sans-serif" font-size="14" lengthAdjust="spacing" textLength="85" x="242" y="854.8417">difficulty: Int</text><ellipse cx="233" cy="867.539" fill="none" rx="3" ry="3" style="stroke:#038048;stroke-width:1.0;"/><text fill="#000000" font-family="sans-serif" font-size="14" lengthAdjust="spacing" textLength="126" x="242" y="871.33">unlocked: Boolean</text><line style="stroke:#181818;stroke-width:0.5;" x1="223" x2="373" y1="878.2831" y2="878.2831"/></g><!--class Repetitions--><g id="elem_Repetitions"><rect codeLine="28" fill="#90EE90" height="97.4648" id="Repetitions" rx="2.5" ry="2.5" style="stroke:#181818;stroke-width:0.5;" width="161" x="578.5" y="780.57"/><ellipse cx="616.9" cy="796.57" fill="#ADD1B2" rx="11" ry="11" style="stroke:#181818;stroke-width:1.0;"/><path d="M619.3731,802.7131 Q618.7921,803.0119 618.1529,803.1613 Q617.5138,803.3107 616.8082,803.3107 Q614.3014,803.3107 612.9815,801.6589 Q611.6617,800.007 611.6617,796.8859 Q611.6617,793.7565 612.9815,792.1047 Q614.3014,790.4528 616.8082,790.4528 Q617.5138,790.4528 618.1612,790.6022 Q618.8087,790.7516 619.3731,791.0505 L619.3731,793.7731 Q618.7423,793.1921 618.1488,792.9223 Q617.5553,792.6525 616.9244,792.6525 Q615.5797,792.6525 614.8949,793.7192 Q614.2101,794.7858 614.2101,796.8859 Q614.2101,798.9777 614.8949,800.0444 Q615.5797,801.111 616.9244,801.111 Q617.5553,801.111 618.1488,800.8412 Q618.7423,800.5715 619.3731,799.9904 Z " fill="#000000"/><text fill="#000000" font-family="sans-serif" font-size="14" lengthAdjust="spacing" textLength="77" x="636.1" y="801.861">Repetitions</text><line style="stroke:#181818;stroke-width:0.5;" x1="579.5" x2="738.5" y1="812.57" y2="812.57"/><ellipse cx="589.5" cy="826.3141" fill="none" rx="3" ry="3" style="stroke:#038048;stroke-width:1.0;"/><text fill="#000000" font-family="sans-serif" font-size="14" lengthAdjust="spacing" textLength="39" x="598.5" y="830.1052">id: int</text><ellipse cx="589.5" cy="842.8024" fill="none" rx="3" ry="3" style="stroke:#038048;stroke-width:1.0;"/><text fill="#000000" font-family="sans-serif" font-size="14" lengthAdjust="spacing" textLength="65" x="598.5" y="846.5934">count: Int</text><ellipse cx="589.5" cy="859.2907" fill="none" rx="3" ry="3" style="stroke:#038048;stroke-width:1.0;"/><text fill="#000000" font-family="sans-serif" font-size="14" lengthAdjust="spacing" textLength="135" x="598.5" y="863.0817">completed: Boolean</text><line style="stroke:#181818;stroke-width:0.5;" x1="579.5" x2="738.5" y1="870.0348" y2="870.0348"/></g><g id="elem_GMN10"><path d="M22.5,947.28 L22.5,972.5905 A0,0 0 0 0 22.5,972.5905 L519.5,972.5905 A0,0 0 0 0 519.5,972.5905 L519.5,957.28 L509.5,947.28 L277.51,947.28 L286.16,886.72 L269.51,947.28 L22.5,947.28 A0,0 0 0 0 22.5,947.28 " fill="#FEFFDD" style="stroke:#181818;stroke-width:0.5;"/><path d="M509.5,947.28 L509.5,957.28 L519.5,957.28 L509.5,947.28 " fill="#FEFFDD" style="stroke:#181818;stroke-width:0.5;"/><text fill="#000000" font-family="sans-serif" font-size="13" lengthAdjust="spacing" textLength="476" x="28.5" y="964.8484">Indicates the difficulty of a task. Optional as task might not have difficulty.</text></g><g id="elem_GMN13"><path d="M554.5,947.28 L554.5,972.5905 A0,0 0 0 0 554.5,972.5905 L1051.5,972.5905 A0,0 0 0 0 1051.5,972.5905 L1051.5,957.28 L1041.5,947.28 L793.69,947.28 L712.62,878.2 L785.69,947.28 L554.5,947.28 A0,0 0 0 0 554.5,947.28 " fill="#FEFFDD" style="stroke:#181818;stroke-width:0.5;"/><path d="M1041.5,947.28 L1041.5,957.28 L1051.5,957.28 L1041.5,947.28 " fill="#FEFFDD" style="stroke:#181818;stroke-width:0.5;"/><text fill="#000000" font-family="sans-serif" font-size="13" lengthAdjust="spacing" textLength="476" x="560.5" y="964.8484">Indicates the number of repetitions of a task. Mandatory to define program.</text></g><!--class TaskRequirement--><g id="elem_TaskRequirement"><rect codeLine="42" fill="#90EE90" height="64.4883" id="TaskRequirement" rx="2.5" ry="2.5" style="stroke:#181818;stroke-width:0.5;" width="188" x="265" y="597.86"/><ellipse cx="296.2" cy="613.86" fill="#ADD1B2" rx="11" ry="11" style="stroke:#181818;stroke-width:1.0;"/><path d="M298.6731,620.0031 Q298.0921,620.3019 297.4529,620.4513 Q296.8138,620.6007 296.1082,620.6007 Q293.6014,620.6007 292.2815,618.9489 Q290.9617,617.297 290.9617,614.1759 Q290.9617,611.0465 292.2815,609.3947 Q293.6014,607.7428 296.1082,607.7428 Q296.8138,607.7428 297.4612,607.8922 Q298.1087,608.0416 298.6731,608.3405 L298.6731,611.0631 Q298.0423,610.4821 297.4488,610.2123 Q296.8553,609.9425 296.2244,609.9425 Q294.8797,609.9425 294.1949,611.0092 Q293.5101,612.0758 293.5101,614.1759 Q293.5101,616.2677 294.1949,617.3344 Q294.8797,618.401 296.2244,618.401 Q296.8553,618.401 297.4488,618.1312 Q298.0423,617.8615 298.6731,617.2804 Z " fill="#000000"/><text fill="#000000" font-family="sans-serif" font-size="14" lengthAdjust="spacing" textLength="120" x="313.8" y="619.151">TaskRequirement</text><line style="stroke:#181818;stroke-width:0.5;" x1="266" x2="452" y1="629.86" y2="629.86"/><ellipse cx="276" cy="643.6041" fill="none" rx="3" ry="3" style="stroke:#038048;stroke-width:1.0;"/><text fill="#000000" font-family="sans-serif" font-size="14" lengthAdjust="spacing" textLength="162" x="285" y="647.3952">requiredRepetitions: int</text><line style="stroke:#181818;stroke-width:0.5;" x1="266" x2="452" y1="654.3483" y2="654.3483"/></g><g id="elem_GMN17"><path d="M488,609.8 L488,626.11 L453.48,630.11 L488,634.11 L488,650.4211 A0,0 0 0 0 488,650.4211 L772,650.4211 A0,0 0 0 0 772,650.4211 L772,619.8 L762,609.8 L488,609.8 A0,0 0 0 0 488,609.8 " fill="#FEFFDD" style="stroke:#181818;stroke-width:0.5;"/><path d="M762,609.8 L762,619.8 L772,619.8 L762,609.8 " fill="#FEFFDD" style="stroke:#181818;stroke-width:0.5;"/><text fill="#000000" font-family="sans-serif" font-size="13" lengthAdjust="spacing" textLength="263" x="494" y="627.3684">How many times a Task must be repeated</text><text fill="#000000" font-family="sans-serif" font-size="13" lengthAdjust="spacing" textLength="242" x="494" y="642.6789">on a specific Level within a TaskBlock.</text></g><!--class TaskAssignment--><g id="elem_TaskAssignment"><rect codeLine="51" fill="#90EE90" height="80.9766" id="TaskAssignment" rx="2.5" ry="2.5" style="stroke:#181818;stroke-width:0.5;" width="256" x="335" y="406.91"/><ellipse cx="402.25" cy="422.91" fill="#ADD1B2" rx="11" ry="11" style="stroke:#181818;stroke-width:1.0;"/><path d="M404.7231,429.0531 Q404.1421,429.3519 403.5029,429.5013 Q402.8638,429.6507 402.1582,429.6507 Q399.6514,429.6507 398.3315,427.9989 Q397.0117,426.347 397.0117,423.2259 Q397.0117,420.0965 398.3315,418.4447 Q399.6514,416.7928 402.1582,416.7928 Q402.8638,416.7928 403.5112,416.9422 Q404.1587,417.0916 404.7231,417.3905 L404.7231,420.1131 Q404.0923,419.5321 403.4988,419.2623 Q402.9053,418.9925 402.2744,418.9925 Q400.9297,418.9925 400.2449,420.0592 Q399.5601,421.1258 399.5601,423.2259 Q399.5601,425.3177 400.2449,426.3844 Q400.9297,427.451 402.2744,427.451 Q402.9053,427.451 403.4988,427.1812 Q404.0923,426.9115 404.7231,426.3304 Z " fill="#000000"/><text fill="#000000" font-family="sans-serif" font-size="14" lengthAdjust="spacing" textLength="113" x="422.75" y="428.201">TaskAssignment</text><line style="stroke:#181818;stroke-width:0.5;" x1="336" x2="590" y1="438.91" y2="438.91"/><text fill="#000000" font-family="sans-serif" font-size="14" lengthAdjust="spacing" textLength="68" x="341" y="456.4452">task: Task</text><text fill="#000000" font-family="sans-serif" font-size="14" lengthAdjust="spacing" textLength="244" x="341" y="472.9334">taskRequirement: TaskRequirement</text><line style="stroke:#181818;stroke-width:0.5;" x1="336" x2="590" y1="479.8866" y2="479.8866"/></g><g id="elem_GMN21"><path d="M626.5,427.09 L626.5,443.4 L591.43,447.4 L626.5,451.4 L626.5,467.7111 A0,0 0 0 0 626.5,467.7111 L915.5,467.7111 A0,0 0 0 0 915.5,467.7111 L915.5,437.09 L905.5,427.09 L626.5,427.09 A0,0 0 0 0 626.5,427.09 " fill="#FEFFDD" style="stroke:#181818;stroke-width:0.5;"/><path d="M905.5,427.09 L905.5,437.09 L915.5,437.09 L905.5,427.09 " fill="#FEFFDD" style="stroke:#181818;stroke-width:0.5;"/><text fill="#000000" font-family="sans-serif" font-size="13" lengthAdjust="spacing" textLength="268" x="632.5" y="444.6584">Assigns a Task to a TaskBlock and defines</text><text fill="#000000" font-family="sans-serif" font-size="13" lengthAdjust="spacing" textLength="216" x="632.5" y="459.9689">required repetitions across Levels.</text></g><!--class TaskBlock--><g id="elem_TaskBlock"><rect codeLine="61" fill="#90EE90" height="130.4414" id="TaskBlock" rx="2.5" ry="2.5" style="stroke:#181818;stroke-width:0.5;" width="161" x="382.5" y="199.47"/><ellipse cx="424.95" cy="215.47" fill="#ADD1B2" rx="11" ry="11" style="stroke:#181818;stroke-width:1.0;"/><path d="M427.4231,221.6131 Q426.8421,221.9119 426.2029,222.0613 Q425.5638,222.2107 424.8582,222.2107 Q422.3514,222.2107 421.0315,220.5589 Q419.7117,218.907 419.7117,215.7859 Q419.7117,212.6565 421.0315,211.0047 Q422.3514,209.3528 424.8582,209.3528 Q425.5638,209.3528 426.2112,209.5022 Q426.8587,209.6516 427.4231,209.9505 L427.4231,212.6731 Q426.7923,212.0921 426.1988,211.8223 Q425.6053,211.5525 424.9744,211.5525 Q423.6297,211.5525 422.9449,212.6192 Q422.2601,213.6858 422.2601,215.7859 Q422.2601,217.8777 422.9449,218.9444 Q423.6297,220.011 424.9744,220.011 Q425.6053,220.011 426.1988,219.7412 Q426.7923,219.4715 427.4231,218.8904 Z " fill="#000000"/><text fill="#000000" font-family="sans-serif" font-size="14" lengthAdjust="spacing" textLength="68" x="445.05" y="220.761">TaskBlock</text><line style="stroke:#181818;stroke-width:0.5;" x1="383.5" x2="542.5" y1="231.47" y2="231.47"/><ellipse cx="393.5" cy="245.2141" fill="none" rx="3" ry="3" style="stroke:#038048;stroke-width:1.0;"/><text fill="#000000" font-family="sans-serif" font-size="14" lengthAdjust="spacing" textLength="39" x="402.5" y="249.0052">id: int</text><ellipse cx="393.5" cy="261.7024" fill="none" rx="3" ry="3" style="stroke:#038048;stroke-width:1.0;"/><text fill="#000000" font-family="sans-serif" font-size="14" lengthAdjust="spacing" textLength="75" x="402.5" y="265.4934">title: String</text><ellipse cx="393.5" cy="278.1907" fill="none" rx="3" ry="3" style="stroke:#038048;stroke-width:1.0;"/><text fill="#000000" font-family="sans-serif" font-size="14" lengthAdjust="spacing" textLength="126" x="402.5" y="281.9817">description: String</text><ellipse cx="393.5" cy="294.679" fill="none" rx="3" ry="3" style="stroke:#038048;stroke-width:1.0;"/><text fill="#000000" font-family="sans-serif" font-size="14" lengthAdjust="spacing" textLength="135" x="402.5" y="298.47">startDate: DateTime</text><ellipse cx="393.5" cy="311.1673" fill="none" rx="3" ry="3" style="stroke:#038048;stroke-width:1.0;"/><text fill="#000000" font-family="sans-serif" font-size="14" lengthAdjust="spacing" textLength="130" x="402.5" y="314.9583">endDate: DateTime</text><line style="stroke:#181818;stroke-width:0.5;" x1="383.5" x2="542.5" y1="321.9114" y2="321.9114"/></g><g id="elem_GMN25"><path d="M578.5,244.38 L578.5,260.69 L543.66,264.69 L578.5,268.69 L578.5,285.0011 A0,0 0 0 0 578.5,285.0011 L1047.5,285.0011 A0,0 0 0 0 1047.5,285.0011 L1047.5,254.38 L1037.5,244.38 L578.5,244.38 A0,0 0 0 0 578.5,244.38 " fill="#FEFFDD" style="stroke:#181818;stroke-width:0.5;"/><path d="M1037.5,244.38 L1037.5,254.38 L1047.5,254.38 L1037.5,244.38 " fill="#FEFFDD" style="stroke:#181818;stroke-width:0.5;"/><text fill="#000000" font-family="sans-serif" font-size="13" lengthAdjust="spacing" textLength="448" x="584.5" y="261.9484">Composite element: groups multiple TaskAssignments and TaskBlocks</text><text fill="#000000" font-family="sans-serif" font-size="13" lengthAdjust="spacing" textLength="266" x="584.5" y="277.2589">into a hierarchy. Allows nested structures.</text></g><!--link TaskAssignment to Task--><g id="link_TaskAssignment_Task"><path codeLine="74" d="M591.3,487.31 C652.4,507.58 725.76,534.48 789,564.88 C794.64,567.6 795.0793,567.6915 800.7893,570.7715 " fill="none" id="TaskAssignment-to-Task" style="stroke:#181818;stroke-width:1.0;"/><polygon fill="#181818" points="806.07,573.62,800.0479,565.8268,801.6694,571.2463,796.2499,572.8678,806.07,573.62" style="stroke:#181818;stroke-width:1.0;"/><text fill="#000000" font-family="sans-serif" font-size="13" lengthAdjust="spacing" textLength="82" x="720.67" y="531.4484">has assigned</text><text fill="#000000" font-family="sans-serif" font-size="13" lengthAdjust="spacing" textLength="8" x="790.5399" y="565.9028">1</text></g><!--link TaskAssignment to TaskRequirement--><g id="link_TaskAssignment_TaskRequirement"><path codeLine="75" d="M440.18,488.05 C421.22,520.99 397.6125,562.0095 380.1025,592.4395 " fill="none" id="TaskAssignment-to-TaskRequirement" style="stroke:#181818;stroke-width:1.0;"/><polygon fill="#181818" points="377.11,597.64,385.0657,591.8342,379.6037,593.3063,378.1317,587.8443,377.11,597.64" style="stroke:#181818;stroke-width:1.0;"/><text fill="#000000" font-family="sans-serif" font-size="13" lengthAdjust="spacing" textLength="84" x="421.32" y="531.4484">has Assigned</text><text fill="#000000" font-family="sans-serif" font-size="13" lengthAdjust="spacing" textLength="22" x="356.5764" y="586.9978">1..*</text></g><!--link TaskRequirement to Level--><g id="link_TaskRequirement_Level"><path codeLine="76" d="M349.2,662.79 C340.11,692.18 328.1436,730.8781 317.1836,766.2981 " fill="none" id="TaskRequirement-to-Level" style="stroke:#181818;stroke-width:1.0;"/><polygon fill="#181818" points="315.41,772.03,321.8917,764.6146,316.888,767.2534,314.2492,762.2498,315.41,772.03" style="stroke:#181818;stroke-width:1.0;"/><text fill="#000000" font-family="sans-serif" font-size="13" lengthAdjust="spacing" textLength="52" x="329.5" y="738.8984">optional</text><text fill="#000000" font-family="sans-serif" font-size="13" lengthAdjust="spacing" textLength="24" x="292.0693" y="761.7226">0..1</text></g><!--link TaskRequirement to Repetitions--><g id="link_TaskRequirement_Repetitions"><path codeLine="77" d="M407.2,662.79 C455.4,694.47 525.136,740.3146 580.686,776.8246 " fill="none" id="TaskRequirement-to-Repetitions" style="stroke:#181818;stroke-width:1.0;"/><polygon fill="#181818" points="585.7,780.12,580.376,771.8342,581.5217,777.3738,575.9821,778.5195,585.7,780.12" style="stroke:#181818;stroke-width:1.0;"/><text fill="#000000" font-family="sans-serif" font-size="13" lengthAdjust="spacing" textLength="52" x="527.96" y="738.8984">required</text><text fill="#000000" font-family="sans-serif" font-size="13" lengthAdjust="spacing" textLength="22" x="551.8453" y="769.7392">1..*</text></g><!--link Program to TaskBlock--><g id="link_Program_TaskBlock"><path codeLine="79" d="M463,138.91 C463,157.6 463,173.29 463,193.28 " fill="none" id="Program-to-TaskBlock" style="stroke:#181818;stroke-width:1.0;"/><polygon fill="#181818" points="463,199.28,467,190.28,463,194.28,459,190.28,463,199.28" style="stroke:#181818;stroke-width:1.0;"/><text fill="#000000" font-family="sans-serif" font-size="13" lengthAdjust="spacing" textLength="22" x="439.7969" y="188.8907">1..*</text></g><!--link TaskBlock to TaskAssignment--><g id="link_TaskBlock_TaskAssignment"><path codeLine="81" d="M463,330.16 C463,355.6 463,378.04 463,400.41 " fill="none" id="TaskBlock-to-TaskAssignment" style="stroke:#181818;stroke-width:1.0;"/><polygon fill="#181818" points="463,406.41,467,397.41,463,401.41,459,397.41,463,406.41" style="stroke:#181818;stroke-width:1.0;"/><text fill="#000000" font-family="sans-serif" font-size="13" lengthAdjust="spacing" textLength="54" x="464" y="373.4784">contains</text><text fill="#000000" font-family="sans-serif" font-size="13" lengthAdjust="spacing" textLength="22" x="439.2469" y="396.2753">1..*</text></g><!--SRC=[hLNDRjim3BxdAOZqjg76TXjy691sXnNOiA7hlL1asXOYIvv4DoY6lFieoKvK9rw7OJa4i4YHtmzfzqBkH8FmtTd6YUvHcEhnGVYTXolSrZL-g6lujLe1I2sydzBWIgkcfSOX6Wu3_zwggWHbA3qOqM49FyWfqwIJ2hrqgYTbJHOuXDB64e8B1S7MKmi-tu0Vf4Jl-Kw84EE2hRPovmiEewdYrHEw0FnLQAH8_nMsSD5_PK44MVTSmesr6eL94McxNYDXbPyVJb2-u1FgVv59rRMIWoPkU3Ub3IQGNknrZpqoAqRlN-qexM0eAxtC8xgojKIs2-97GdnyPoeb1Q47QX5ES4EEY1OLy2rAAJG8dqphehbS4LhnbD-Q-pXhcZ4xQss6ReikPBcCVuRYQ1sGXGfhPH3wD5pButEFFmVbi4D3bxHqALnbm2PnJw9fhECap-fn-BFTGoSC8r8Tqn1fOhl14smnyc1w5IVom0lmFKh5Get3j5VKAZDUkWaJiKnZmqlJc0KMGPuofXqVCvZb1TmNrlHbbx2jyU58YZNFa09xCNeGd9naV66TaCvEc_E71K_r_kUMUnAEFh7o9OJ_1_Oc1HZ0sV62514LHsvvdwnN74OzojauE_IUNTQaUDTcolaepR54K8T91F5QXKuusJuNiD7QxZsmU3mUuCaDaWQ7PohDhB- -_WZhz-jaI0dhblTHn31MwwNqedYpde_0U7SpkvilIxpyhYYuNHhN4kpu6bZAJgtojrTvd8p0PlhOp70bgSUYQHfc6HadHYwj8Q6CNwzMXzy0]--></g></svg>