<?xml version="1.0" encoding="us-ascii" standalone="no"?><svg xmlns="http://www.w3.org/2000/svg" xmlns:xlink="http://www.w3.org/1999/xlink" contentStyleType="text/css" height="615px" preserveAspectRatio="none" style="width:729px;height:615px;background:#FFFFFF;" version="1.1" viewBox="0 0 729 615" width="729px" zoomAndPan="magnify"><defs/><g><!--cluster Interventions--><g id="cluster_Interventions"><path d="M8.5,6 L105.5,6 A3.75,3.75 0 0 1 108,8.5 L115,28.4883 L719.5,28.4883 A2.5,2.5 0 0 1 722,30.9883 L722,606.38 A2.5,2.5 0 0 1 719.5,608.88 L8.5,608.88 A2.5,2.5 0 0 1 6,606.38 L6,8.5 A2.5,2.5 0 0 1 8.5,6 " fill="none" style="stroke:#000000;stroke-width:1.5;"/><line style="stroke:#000000;stroke-width:1.5;" x1="6" x2="115" y1="28.4883" y2="28.4883"/><text fill="#000000" font-family="sans-serif" font-size="14" font-weight="bold" lengthAdjust="spacing" textLength="96" x="10" y="21.5352">Interventions</text></g><!--class Intervention--><g id="elem_Intervention"><rect codeLine="2" fill="#F1F1F1" height="130.4414" id="Intervention" rx="2.5" ry="2.5" style="stroke:#181818;stroke-width:0.5;" width="239" x="70.5" y="337.44"/><ellipse cx="144.25" cy="353.44" fill="#ADD1B2" rx="11" ry="11" style="stroke:#181818;stroke-width:1.0;"/><path d="M146.7231,359.5831 Q146.1421,359.8819 145.5029,360.0313 Q144.8638,360.1807 144.1582,360.1807 Q141.6514,360.1807 140.3315,358.5289 Q139.0117,356.877 139.0117,353.7559 Q139.0117,350.6265 140.3315,348.9747 Q141.6514,347.3228 144.1582,347.3228 Q144.8638,347.3228 145.5112,347.4722 Q146.1587,347.6216 146.7231,347.9205 L146.7231,350.6431 Q146.0923,350.0621 145.4988,349.7923 Q144.9053,349.5225 144.2744,349.5225 Q142.9297,349.5225 142.2449,350.5892 Q141.5601,351.6558 141.5601,353.7559 Q141.5601,355.8477 142.2449,356.9144 Q142.9297,357.981 144.2744,357.981 Q144.9053,357.981 145.4988,357.7112 Q146.0923,357.4415 146.7231,356.8604 Z " fill="#000000"/><text fill="#000000" font-family="sans-serif" font-size="14" lengthAdjust="spacing" textLength="83" x="164.75" y="358.731">Intervention</text><line style="stroke:#181818;stroke-width:0.5;" x1="71.5" x2="308.5" y1="369.44" y2="369.44"/><ellipse cx="81.5" cy="383.1841" fill="none" rx="3" ry="3" style="stroke:#038048;stroke-width:1.0;"/><text fill="#000000" font-family="sans-serif" font-size="14" lengthAdjust="spacing" textLength="39" x="90.5" y="386.9752">id: int</text><ellipse cx="81.5" cy="399.6724" fill="none" rx="3" ry="3" style="stroke:#038048;stroke-width:1.0;"/><text fill="#000000" font-family="sans-serif" font-size="14" lengthAdjust="spacing" textLength="69" x="90.5" y="403.4634">userId: int</text><ellipse cx="81.5" cy="416.1607" fill="none" rx="3" ry="3" style="stroke:#038048;stroke-width:1.0;"/><text fill="#000000" font-family="sans-serif" font-size="14" lengthAdjust="spacing" textLength="145" x="90.5" y="419.9517">timestamp: DateTime</text><ellipse cx="81.5" cy="432.649" fill="none" rx="3" ry="3" style="stroke:#038048;stroke-width:1.0;"/><text fill="#000000" font-family="sans-serif" font-size="14" lengthAdjust="spacing" textLength="94" x="90.5" y="436.44">screen: String</text><ellipse cx="81.5" cy="449.1373" fill="none" rx="3" ry="3" style="stroke:#038048;stroke-width:1.0;"/><text fill="#000000" font-family="sans-serif" font-size="14" lengthAdjust="spacing" textLength="213" x="90.5" y="452.9283">metadata: Map&lt;String, String&gt;</text><line style="stroke:#181818;stroke-width:0.5;" x1="71.5" x2="308.5" y1="459.8814" y2="459.8814"/></g><g id="elem_GMN4"><path d="M344.5,374.69 L344.5,398.66 L309.74,402.66 L344.5,406.66 L344.5,430.6216 A0,0 0 0 0 344.5,430.6216 L705.5,430.6216 A0,0 0 0 0 705.5,430.6216 L705.5,384.69 L695.5,374.69 L344.5,374.69 A0,0 0 0 0 344.5,374.69 " fill="#FEFFDD" style="stroke:#181818;stroke-width:0.5;"/><path d="M695.5,374.69 L695.5,384.69 L705.5,384.69 L695.5,374.69 " fill="#FEFFDD" style="stroke:#181818;stroke-width:0.5;"/><text fill="#000000" font-family="sans-serif" font-size="13" lengthAdjust="spacing" textLength="340" x="350.5" y="392.2584">Represents a planned activity, stimulus, or interaction</text><text fill="#000000" font-family="sans-serif" font-size="13" lengthAdjust="spacing" textLength="336" x="350.5" y="407.5689">aimed at influencing user behavior or collecting data.</text><text fill="#000000" font-family="sans-serif" font-size="13" lengthAdjust="spacing" textLength="338" x="350.5" y="422.8795">Examples: questionnaires, prompts, mini-games, etc.</text></g><!--class Questionnaire--><g id="elem_Questionnaire"><rect codeLine="16" fill="#F1F1F1" height="80.9766" id="Questionnaire" rx="2.5" ry="2.5" style="stroke:#181818;stroke-width:0.5;" width="154" x="113" y="179.46"/><ellipse cx="139.25" cy="195.46" fill="#ADD1B2" rx="11" ry="11" style="stroke:#181818;stroke-width:1.0;"/><path d="M141.7231,201.6031 Q141.1421,201.9019 140.5029,202.0513 Q139.8638,202.2007 139.1582,202.2007 Q136.6514,202.2007 135.3315,200.5489 Q134.0117,198.897 134.0117,195.7759 Q134.0117,192.6465 135.3315,190.9947 Q136.6514,189.3428 139.1582,189.3428 Q139.8638,189.3428 140.5112,189.4922 Q141.1587,189.6416 141.7231,189.9405 L141.7231,192.6631 Q141.0923,192.0821 140.4988,191.8123 Q139.9053,191.5425 139.2744,191.5425 Q137.9297,191.5425 137.2449,192.6092 Q136.5601,193.6758 136.5601,195.7759 Q136.5601,197.8677 137.2449,198.9344 Q137.9297,200.001 139.2744,200.001 Q139.9053,200.001 140.4988,199.7312 Q141.0923,199.4615 141.7231,198.8804 Z " fill="#000000"/><text fill="#000000" font-family="sans-serif" font-size="14" lengthAdjust="spacing" textLength="97" x="155.75" y="200.751">Questionnaire</text><line style="stroke:#181818;stroke-width:0.5;" x1="114" x2="266" y1="211.46" y2="211.46"/><ellipse cx="124" cy="225.2041" fill="none" rx="3" ry="3" style="stroke:#038048;stroke-width:1.0;"/><text fill="#000000" font-family="sans-serif" font-size="14" lengthAdjust="spacing" textLength="128" x="133" y="228.9952">questionCount: int</text><ellipse cx="124" cy="241.6924" fill="none" rx="3" ry="3" style="stroke:#038048;stroke-width:1.0;"/><text fill="#000000" font-family="sans-serif" font-size="14" lengthAdjust="spacing" textLength="127" x="133" y="245.4834">estimatedTime: int</text><line style="stroke:#181818;stroke-width:0.5;" x1="114" x2="266" y1="252.4366" y2="252.4366"/></g><!--class KeySituation--><g id="elem_KeySituation"><rect fill="#F1F1F1" height="48" id="KeySituation" rx="2.5" ry="2.5" style="stroke:#181818;stroke-width:0.5;" width="117" x="76.5" y="544.88"/><ellipse cx="91.5" cy="560.88" fill="#ADD1B2" rx="11" ry="11" style="stroke:#181818;stroke-width:1.0;"/><path d="M93.9731,567.0231 Q93.3921,567.3219 92.7529,567.4713 Q92.1138,567.6207 91.4082,567.6207 Q88.9014,567.6207 87.5815,565.9689 Q86.2617,564.317 86.2617,561.1959 Q86.2617,558.0665 87.5815,556.4147 Q88.9014,554.7628 91.4082,554.7628 Q92.1138,554.7628 92.7612,554.9122 Q93.4087,555.0616 93.9731,555.3605 L93.9731,558.0831 Q93.3423,557.5021 92.7488,557.2323 Q92.1553,556.9625 91.5244,556.9625 Q90.1797,556.9625 89.4949,558.0292 Q88.8101,559.0958 88.8101,561.1959 Q88.8101,563.2877 89.4949,564.3544 Q90.1797,565.421 91.5244,565.421 Q92.1553,565.421 92.7488,565.1512 Q93.3423,564.8815 93.9731,564.3004 Z " fill="#000000"/><text fill="#000000" font-family="sans-serif" font-size="14" lengthAdjust="spacing" textLength="85" x="105.5" y="566.171">KeySituation</text><line style="stroke:#181818;stroke-width:0.5;" x1="77.5" x2="192.5" y1="576.88" y2="576.88"/><line style="stroke:#181818;stroke-width:0.5;" x1="77.5" x2="192.5" y1="584.88" y2="584.88"/></g><!--class Interval--><g id="elem_Interval"><rect fill="#F1F1F1" height="48" id="Interval" rx="2.5" ry="2.5" style="stroke:#181818;stroke-width:0.5;" width="83" x="228.5" y="544.88"/><ellipse cx="243.5" cy="560.88" fill="#ADD1B2" rx="11" ry="11" style="stroke:#181818;stroke-width:1.0;"/><path d="M245.9731,567.0231 Q245.3921,567.3219 244.7529,567.4713 Q244.1138,567.6207 243.4082,567.6207 Q240.9014,567.6207 239.5815,565.9689 Q238.2617,564.317 238.2617,561.1959 Q238.2617,558.0665 239.5815,556.4147 Q240.9014,554.7628 243.4082,554.7628 Q244.1138,554.7628 244.7612,554.9122 Q245.4087,555.0616 245.9731,555.3605 L245.9731,558.0831 Q245.3423,557.5021 244.7488,557.2323 Q244.1553,556.9625 243.5244,556.9625 Q242.1797,556.9625 241.4949,558.0292 Q240.8101,559.0958 240.8101,561.1959 Q240.8101,563.2877 241.4949,564.3544 Q242.1797,565.421 243.5244,565.421 Q244.1553,565.421 244.7488,565.1512 Q245.3423,564.8815 245.9731,564.3004 Z " fill="#000000"/><text fill="#000000" font-family="sans-serif" font-size="14" lengthAdjust="spacing" textLength="51" x="257.5" y="566.171">Interval</text><line style="stroke:#181818;stroke-width:0.5;" x1="229.5" x2="310.5" y1="576.88" y2="576.88"/><line style="stroke:#181818;stroke-width:0.5;" x1="229.5" x2="310.5" y1="584.88" y2="584.88"/></g><g id="elem_Intrinsic_Motivation_Inventory"><rect fill="#F1F1F1" height="36.4883" style="stroke:#181818;stroke-width:0.5;" width="219" x="22.5" y="53.49"/><text fill="#000000" font-family="sans-serif" font-size="14" lengthAdjust="spacing" textLength="205" x="29.5" y="69.0252">Intrinsic_Motivation_Inventory</text><line style="stroke:#181818;stroke-width:0.5;" x1="23.5" x2="240.5" y1="73.9783" y2="73.9783"/></g><g id="elem_User_Engagement_Scale"><rect fill="#F1F1F1" height="36.4883" style="stroke:#181818;stroke-width:0.5;" width="180" x="277" y="53.49"/><text fill="#000000" font-family="sans-serif" font-size="14" lengthAdjust="spacing" textLength="166" x="284" y="69.0252">User_Engagement_Scale</text><line style="stroke:#181818;stroke-width:0.5;" x1="278" x2="456" y1="73.9783" y2="73.9783"/></g><!--class MotivationalMessage--><g id="elem_MotivationalMessage"><rect codeLine="31" fill="#CDEAFF" height="80.9766" id="MotivationalMessage" rx="2.5" ry="2.5" style="stroke:#181818;stroke-width:0.5;" width="175" x="355.5" y="179.46"/><ellipse cx="370.5" cy="195.46" fill="#ADD1B2" rx="11" ry="11" style="stroke:#181818;stroke-width:1.0;"/><path d="M372.9731,201.6031 Q372.3921,201.9019 371.7529,202.0513 Q371.1138,202.2007 370.4082,202.2007 Q367.9014,202.2007 366.5815,200.5489 Q365.2617,198.897 365.2617,195.7759 Q365.2617,192.6465 366.5815,190.9947 Q367.9014,189.3428 370.4082,189.3428 Q371.1138,189.3428 371.7612,189.4922 Q372.4087,189.6416 372.9731,189.9405 L372.9731,192.6631 Q372.3423,192.0821 371.7488,191.8123 Q371.1553,191.5425 370.5244,191.5425 Q369.1797,191.5425 368.4949,192.6092 Q367.8101,193.6758 367.8101,195.7759 Q367.8101,197.8677 368.4949,198.9344 Q369.1797,200.001 370.5244,200.001 Q371.1553,200.001 371.7488,199.7312 Q372.3423,199.4615 372.9731,198.8804 Z " fill="#000000"/><text fill="#000000" font-family="sans-serif" font-size="14" lengthAdjust="spacing" textLength="143" x="384.5" y="200.751">MotivationalMessage</text><line style="stroke:#181818;stroke-width:0.5;" x1="356.5" x2="529.5" y1="211.46" y2="211.46"/><ellipse cx="366.5" cy="225.2041" fill="none" rx="3" ry="3" style="stroke:#038048;stroke-width:1.0;"/><text fill="#000000" font-family="sans-serif" font-size="14" lengthAdjust="spacing" textLength="39" x="375.5" y="228.9952">id: int</text><ellipse cx="366.5" cy="241.6924" fill="none" rx="3" ry="3" style="stroke:#038048;stroke-width:1.0;"/><text fill="#000000" font-family="sans-serif" font-size="14" lengthAdjust="spacing" textLength="76" x="375.5" y="245.4834">text: String</text><line style="stroke:#181818;stroke-width:0.5;" x1="356.5" x2="529.5" y1="252.4366" y2="252.4366"/></g><g id="elem_MotivationalMessagePM_LOW"><rect fill="#F1F1F1" height="61.4648" style="stroke:#181818;stroke-width:0.5;" width="214" x="492" y="41"/><text fill="#000000" font-family="sans-serif" font-size="14" lengthAdjust="spacing" textLength="200" x="499" y="56.5352">MotivationalMessagePM_LOW</text><line style="stroke:#181818;stroke-width:0.5;" x1="493" x2="705" y1="61.4883" y2="61.4883"/><text fill="#000000" font-family="sans-serif" font-size="14" lengthAdjust="spacing" textLength="143" x="498" y="79.0234">MotivationalMessage</text><text fill="#000000" font-family="sans-serif" font-size="14" lengthAdjust="spacing" textLength="71" x="498" y="95.5117">userId = 1</text></g><!--link Questionnaire to Intervention--><g id="link_Questionnaire_Intervention"><path codeLine="21" d="M190,260.61 C190,283.05 190,305.66 190,331.24 " fill="none" id="Questionnaire-to-Intervention" style="stroke:#181818;stroke-width:1.0;"/><polygon fill="#181818" points="190,337.24,194,328.24,190,332.24,186,328.24,190,337.24" style="stroke:#181818;stroke-width:1.0;"/><text fill="#000000" font-family="sans-serif" font-size="13" lengthAdjust="spacing" textLength="70" x="191" y="304.0084">instance of</text></g><!--link Intervention to KeySituation--><g id="link_Intervention_KeySituation"><path codeLine="22" d="M155.11,468.19 C150.84,477.93 146.95,488.03 144,497.88 C139.46,513.02 137.6914,524.6993 136.5814,538.4893 " fill="none" id="Intervention-to-KeySituation" style="stroke:#181818;stroke-width:1.0;"/><polygon fill="#181818" points="136.1,544.47,140.8092,535.8199,136.5012,539.4861,132.835,535.1781,136.1,544.47" style="stroke:#181818;stroke-width:1.0;"/><text fill="#000000" font-family="sans-serif" font-size="13" lengthAdjust="spacing" textLength="76" x="145" y="511.4484">triggered by</text></g><!--link Intervention to Interval--><g id="link_Intervention_Interval"><path codeLine="23" d="M221.39,468.09 C234.52,495.05 246.3221,519.2861 256.0221,539.1961 " fill="none" id="Intervention-to-Interval" style="stroke:#181818;stroke-width:1.0;"/><polygon fill="#181818" points="258.65,544.59,258.3041,534.7472,256.4601,540.0951,251.1122,538.251,258.65,544.59" style="stroke:#181818;stroke-width:1.0;"/><text fill="#000000" font-family="sans-serif" font-size="13" lengthAdjust="spacing" textLength="76" x="245.12" y="511.4484">triggered by</text></g><!--link Intrinsic_Motivation_Inventory to Questionnaire--><g id="link_Intrinsic_Motivation_Inventory_Questionnaire"><path codeLine="26" d="M139,90.37 C147.67,112.24 160.5179,144.6127 172.0279,173.6327 " fill="none" id="Intrinsic_Motivation_Inventory-to-Questionnaire" style="stroke:#181818;stroke-width:1.0;"/><polygon fill="#181818" points="174.24,179.21,174.6401,169.3693,172.3966,174.5622,167.2036,172.3187,174.24,179.21" style="stroke:#181818;stroke-width:1.0;"/><text fill="#000000" font-family="sans-serif" font-size="13" lengthAdjust="spacing" textLength="70" x="162" y="146.0284">instance of</text></g><!--link User_Engagement_Scale to Questionnaire--><g id="link_User_Engagement_Scale_Questionnaire"><path codeLine="29" d="M345.65,90.37 C319.17,112.24 277.8558,146.3687 242.7258,175.3887 " fill="none" id="User_Engagement_Scale-to-Questionnaire" style="stroke:#181818;stroke-width:1.0;"/><polygon fill="#181818" points="238.1,179.21,247.5862,176.562,241.9548,176.0256,242.4912,170.3943,238.1,179.21" style="stroke:#181818;stroke-width:1.0;"/><text fill="#000000" font-family="sans-serif" font-size="13" lengthAdjust="spacing" textLength="70" x="295.35" y="146.0284">instance of</text></g><!--link MotivationalMessage to Intervention--><g id="link_MotivationalMessage_Intervention"><path codeLine="36" d="M387.16,260.83 C355.88,283.18 320.9826,308.1028 285.3626,333.5428 " fill="none" id="MotivationalMessage-to-Intervention" style="stroke:#181818;stroke-width:1.0;"/><polygon fill="#181818" points="280.48,337.03,290.1287,335.0543,284.5488,334.124,285.4791,328.5442,280.48,337.03" style="stroke:#181818;stroke-width:1.0;"/><text fill="#000000" font-family="sans-serif" font-size="13" lengthAdjust="spacing" textLength="70" x="340.16" y="304.0084">instance of</text></g><!--link MotivationalMessagePM_LOW to MotivationalMessage--><g id="link_MotivationalMessagePM_LOW_MotivationalMessage"><path codeLine="41" d="M567.05,102.67 C543.52,124.73 515.6475,150.8566 489.9375,174.9566 " fill="none" id="MotivationalMessagePM_LOW-to-MotivationalMessage" style="stroke:#181818;stroke-width:1.0;"/><polygon fill="#181818" points="485.56,179.06,494.8618,175.8233,489.2079,175.6405,489.3907,169.9866,485.56,179.06" style="stroke:#181818;stroke-width:1.0;"/><text fill="#000000" font-family="sans-serif" font-size="13" lengthAdjust="spacing" textLength="70" x="535.97" y="146.0284">instance of</text></g><!--SRC=[ZLF1Rjim3BtdAuZsk6H0hyRMozP3i0RTbWqx6epCk6fboPFeeC6GVz-JlInnPxG3RCDwV8yY7wMMpIFNGakl4dVYrGQVwDUCo3XEQOJtCD4RMnLalGwBBabSdWDg6qdAJLlGHrRvXkKGI2QA-8BM6gsl1wmHvOgL2rfn-sw8pFymha4vpF3nGOMYhU-LmdPK4O9VfOsIi4p4r3hsNYfYetPdTJ-dX78wrwKvXPXhb9XZlP9H6QWAUEiwyGPxKcw7DdBFEmi17XES4qWGouM-XV3c2TqvIGNzxD0gidcsA69ERGnDg_XfhBUBcfiCYfgi4b_rdSp-UllbN7qqzvZoG-YydjcQqGP-LjdG8zxRCqwpM5oFXrRGXVKOY3S2-ouW68Kp_vFirrOxFl9XVrrBX3kR_QHW0DZzImOxR1vWMEPWYicQSXKmZJvvkVGvJOXx6jA-nCWRZNjxtiffi-yOMtdZQnpb1l9oRTZbOpU9_r_cOKQdojYj9ALyLovD9RpTJbu7bISzE-87l7Ycihmwg5Dt4_BFg_BsxiTqwY66V1EnLnJ3RQRtTFKYCTS-rTFp5Ww_0G00]--></g></svg>