<?xml version="1.0" encoding="us-ascii" standalone="no"?><svg xmlns="http://www.w3.org/2000/svg" xmlns:xlink="http://www.w3.org/1999/xlink" contentStyleType="text/css" height="590px" preserveAspectRatio="none" style="width:3033px;height:590px;background:#FFFFFF;" version="1.1" viewBox="0 0 3033 590" width="3033px" zoomAndPan="magnify"><defs/><g><!--cluster AssistantActions--><g id="cluster_AssistantActions"><path d="M8.5,6.7188 L147.5,6.7188 A3.75,3.75 0 0 1 150,9.2188 L157,36.2734 L2745.5,36.2734 A2.5,2.5 0 0 1 2748,38.7734 L2748,580.6588 A2.5,2.5 0 0 1 2745.5,583.1588 L8.5,583.1588 A2.5,2.5 0 0 1 6,580.6588 L6,9.2188 A2.5,2.5 0 0 1 8.5,6.7188 " fill="#E8E8FF" style="stroke:#000000;stroke-width:1.5;"/><line style="stroke:#000000;stroke-width:1.5;" x1="6" x2="157" y1="36.2734" y2="36.2734"/><text fill="#000000" font-family="sans-serif" font-size="20" font-weight="bold" lengthAdjust="spacing" textLength="138" x="10" y="28.0547">AssistantActions</text></g><!--cluster MotivationalMechanics--><g id="cluster_MotivationalMechanics"><path d="M2774.5,187.3888 L3013.5,187.3888 A3.75,3.75 0 0 1 3016,189.8888 L3023,216.9434 L3023.5,216.9434 A2.5,2.5 0 0 1 3026,219.4434 L3026,292.8888 A2.5,2.5 0 0 1 3023.5,295.3888 L2774.5,295.3888 A2.5,2.5 0 0 1 2772,292.8888 L2772,189.8888 A2.5,2.5 0 0 1 2774.5,187.3888 " fill="none" style="stroke:#000000;stroke-width:1.5;"/><line style="stroke:#000000;stroke-width:1.5;" x1="2772" x2="3023" y1="216.9434" y2="216.9434"/><text fill="#000000" font-family="sans-serif" font-size="20" font-weight="bold" lengthAdjust="spacing" textLength="238" x="2776" y="208.7247">MotivationalMechanics</text></g><!--class AssistantAction--><g id="elem_AssistantAction"><rect codeLine="7" fill="#F1F1F1" height="73.5547" id="AssistantAction" rx="2.5" ry="2.5" style="stroke:#181818;stroke-width:0.5;" width="148" x="1276" y="490.0488"/><ellipse cx="1292" cy="507.0488" fill="#ADD1B2" rx="12" ry="12" style="stroke:#181818;stroke-width:1.0;"/><path d="M1294.8066,514.1288 Q1294.123,514.4804 1293.3711,514.6562 Q1292.6191,514.832 1291.7891,514.832 Q1288.8398,514.832 1287.2871,512.8886 Q1285.7344,510.9452 1285.7344,507.2734 Q1285.7344,503.5917 1287.2871,501.6484 Q1288.8398,499.705 1291.7891,499.705 Q1292.6191,499.705 1293.3809,499.8808 Q1294.1426,500.0566 1294.8066,500.4081 L1294.8066,503.6113 Q1294.0645,502.9277 1293.3662,502.6103 Q1292.668,502.2929 1291.9258,502.2929 Q1290.3438,502.2929 1289.5381,503.5478 Q1288.7324,504.8027 1288.7324,507.2734 Q1288.7324,509.7343 1289.5381,510.9892 Q1290.3438,512.2441 1291.9258,512.2441 Q1292.668,512.2441 1293.3662,511.9267 Q1294.0645,511.6093 1294.8066,510.9257 Z " fill="#000000"/><text fill="#000000" font-family="sans-serif" font-size="20" lengthAdjust="spacing" textLength="114" x="1307" y="514.6073">AssistantAction</text><line style="stroke:#181818;stroke-width:0.5;" x1="1277" x2="1423" y1="524.0488" y2="524.0488"/><ellipse cx="1287" cy="541.3261" fill="none" rx="3" ry="3" style="stroke:#038048;stroke-width:1.0;"/><text fill="#000000" font-family="sans-serif" font-size="20" lengthAdjust="spacing" textLength="56" x="1297" y="547.3847">id: int</text><line style="stroke:#181818;stroke-width:0.5;" x1="1277" x2="1423" y1="555.6034" y2="555.6034"/></g><!--class KeySituation--><g id="elem_KeySituation"><rect fill="#F1F1F1" height="50" id="KeySituation" rx="2.5" ry="2.5" style="stroke:#181818;stroke-width:0.5;" width="152" x="1199" y="369.7188"/><ellipse cx="1215" cy="386.7188" fill="#ADD1B2" rx="12" ry="12" style="stroke:#181818;stroke-width:1.0;"/><path d="M1217.8066,393.7988 Q1217.123,394.1504 1216.3711,394.3262 Q1215.6191,394.502 1214.7891,394.502 Q1211.8398,394.502 1210.2871,392.5586 Q1208.7344,390.6152 1208.7344,386.9434 Q1208.7344,383.2617 1210.2871,381.3184 Q1211.8398,379.375 1214.7891,379.375 Q1215.6191,379.375 1216.3809,379.5508 Q1217.1426,379.7266 1217.8066,380.0781 L1217.8066,383.2813 Q1217.0645,382.5977 1216.3662,382.2803 Q1215.668,381.9629 1214.9258,381.9629 Q1213.3438,381.9629 1212.5381,383.2178 Q1211.7324,384.4727 1211.7324,386.9434 Q1211.7324,389.4043 1212.5381,390.6592 Q1213.3438,391.9141 1214.9258,391.9141 Q1215.668,391.9141 1216.3662,391.5967 Q1217.0645,391.2793 1217.8066,390.5957 Z " fill="#000000"/><text fill="#000000" font-family="sans-serif" font-size="20" lengthAdjust="spacing" textLength="118" x="1230" y="394.2773">KeySituation</text><line style="stroke:#181818;stroke-width:0.5;" x1="1200" x2="1350" y1="403.7188" y2="403.7188"/><line style="stroke:#181818;stroke-width:0.5;" x1="1200" x2="1350" y1="411.7188" y2="411.7188"/></g><!--class Interval--><g id="elem_Interval"><rect codeLine="70" fill="#F1F1F1" height="73.5547" id="Interval" rx="2.5" ry="2.5" style="stroke:#181818;stroke-width:0.5;" width="174" x="1381" y="357.9388"/><ellipse cx="1428.05" cy="374.9388" fill="#ADD1B2" rx="12" ry="12" style="stroke:#181818;stroke-width:1.0;"/><path d="M1430.8566,382.0188 Q1430.173,382.3704 1429.4211,382.5462 Q1428.6691,382.722 1427.8391,382.722 Q1424.8898,382.722 1423.3371,380.7786 Q1421.7844,378.8352 1421.7844,375.1634 Q1421.7844,371.4817 1423.3371,369.5384 Q1424.8898,367.595 1427.8391,367.595 Q1428.6691,367.595 1429.4309,367.7708 Q1430.1926,367.9466 1430.8566,368.2981 L1430.8566,371.5013 Q1430.1145,370.8177 1429.4162,370.5003 Q1428.718,370.1829 1427.9758,370.1829 Q1426.3938,370.1829 1425.5881,371.4378 Q1424.7824,372.6927 1424.7824,375.1634 Q1424.7824,377.6243 1425.5881,378.8792 Q1426.3938,380.1341 1427.9758,380.1341 Q1428.718,380.1341 1429.4162,379.8167 Q1430.1145,379.4993 1430.8566,378.8157 Z " fill="#000000"/><text fill="#000000" font-family="sans-serif" font-size="20" lengthAdjust="spacing" textLength="71" x="1449.95" y="382.4973">Interval</text><line style="stroke:#181818;stroke-width:0.5;" x1="1382" x2="1554" y1="391.9388" y2="391.9388"/><ellipse cx="1392" cy="409.2161" fill="none" rx="3" ry="3" style="stroke:#038048;stroke-width:1.0;"/><text fill="#000000" font-family="sans-serif" font-size="20" lengthAdjust="spacing" textLength="147" x="1402" y="415.2747">date: DateTime</text><line style="stroke:#181818;stroke-width:0.5;" x1="1382" x2="1554" y1="423.4934" y2="423.4934"/></g><!--class MechanicAssistantAction--><g id="elem_MechanicAssistantAction"><rect codeLine="13" fill="#F1F1F1" height="73.5547" id="MechanicAssistantAction" rx="2.5" ry="2.5" style="stroke:#181818;stroke-width:0.5;" width="237" x="2170.5" y="357.9388"/><ellipse cx="2186.5" cy="374.9388" fill="#ADD1B2" rx="12" ry="12" style="stroke:#181818;stroke-width:1.0;"/><path d="M2189.3066,382.0188 Q2188.623,382.3704 2187.8711,382.5462 Q2187.1191,382.722 2186.2891,382.722 Q2183.3398,382.722 2181.7871,380.7786 Q2180.2344,378.8352 2180.2344,375.1634 Q2180.2344,371.4817 2181.7871,369.5384 Q2183.3398,367.595 2186.2891,367.595 Q2187.1191,367.595 2187.8809,367.7708 Q2188.6426,367.9466 2189.3066,368.2981 L2189.3066,371.5013 Q2188.5645,370.8177 2187.8662,370.5003 Q2187.168,370.1829 2186.4258,370.1829 Q2184.8438,370.1829 2184.0381,371.4378 Q2183.2324,372.6927 2183.2324,375.1634 Q2183.2324,377.6243 2184.0381,378.8792 Q2184.8438,380.1341 2186.4258,380.1341 Q2187.168,380.1341 2187.8662,379.8167 Q2188.5645,379.4993 2189.3066,378.8157 Z " fill="#000000"/><text fill="#000000" font-family="sans-serif" font-size="20" lengthAdjust="spacing" textLength="203" x="2201.5" y="382.4973">MechanicAssistantAction</text><line style="stroke:#181818;stroke-width:0.5;" x1="2171.5" x2="2406.5" y1="391.9388" y2="391.9388"/><ellipse cx="2181.5" cy="409.2161" fill="none" rx="3" ry="3" style="stroke:#038048;stroke-width:1.0;"/><text fill="#000000" font-family="sans-serif" font-size="20" lengthAdjust="spacing" textLength="56" x="2191.5" y="415.2747">id: int</text><line style="stroke:#181818;stroke-width:0.5;" x1="2171.5" x2="2406.5" y1="423.4934" y2="423.4934"/></g><!--class ImmediateAssistantAction--><g id="elem_ImmediateAssistantAction"><rect codeLine="16" fill="#F1F1F1" height="73.5547" id="ImmediateAssistantAction" rx="2.5" ry="2.5" style="stroke:#181818;stroke-width:0.5;" width="251" x="238.5" y="357.9388"/><ellipse cx="254.5" cy="374.9388" fill="#ADD1B2" rx="12" ry="12" style="stroke:#181818;stroke-width:1.0;"/><path d="M257.3066,382.0188 Q256.623,382.3704 255.8711,382.5462 Q255.1191,382.722 254.2891,382.722 Q251.3398,382.722 249.7871,380.7786 Q248.2344,378.8352 248.2344,375.1634 Q248.2344,371.4817 249.7871,369.5384 Q251.3398,367.595 254.2891,367.595 Q255.1191,367.595 255.8809,367.7708 Q256.6426,367.9466 257.3066,368.2981 L257.3066,371.5013 Q256.5645,370.8177 255.8662,370.5003 Q255.168,370.1829 254.4258,370.1829 Q252.8438,370.1829 252.0381,371.4378 Q251.2324,372.6927 251.2324,375.1634 Q251.2324,377.6243 252.0381,378.8792 Q252.8438,380.1341 254.4258,380.1341 Q255.168,380.1341 255.8662,379.8167 Q256.5645,379.4993 257.3066,378.8157 Z " fill="#000000"/><text fill="#000000" font-family="sans-serif" font-size="20" lengthAdjust="spacing" textLength="217" x="269.5" y="382.4973">ImmediateAssistantAction</text><line style="stroke:#181818;stroke-width:0.5;" x1="239.5" x2="488.5" y1="391.9388" y2="391.9388"/><ellipse cx="249.5" cy="409.2161" fill="none" rx="3" ry="3" style="stroke:#038048;stroke-width:1.0;"/><text fill="#000000" font-family="sans-serif" font-size="20" lengthAdjust="spacing" textLength="56" x="259.5" y="415.2747">id: int</text><line style="stroke:#181818;stroke-width:0.5;" x1="239.5" x2="488.5" y1="423.4934" y2="423.4934"/></g><g id="elem_GMN12"><path d="M1454.5,486.4988 L1454.5,522.8288 L1424.31,526.8288 L1454.5,530.8288 L1454.5,567.1628 A0,0 0 0 0 1454.5,567.1628 L1991.5,567.1628 A0,0 0 0 0 1991.5,567.1628 L1991.5,496.4988 L1981.5,486.4988 L1454.5,486.4988 A0,0 0 0 0 1454.5,486.4988 " fill="#FEFFDD" style="stroke:#181818;stroke-width:0.5;"/><path d="M1981.5,486.4988 L1981.5,496.4988 L1991.5,496.4988 L1981.5,486.4988 " fill="#FEFFDD" style="stroke:#181818;stroke-width:0.5;"/><text fill="#000000" font-family="sans-serif" font-size="20" lengthAdjust="spacing" textLength="514" x="1460.5" y="510.8347">Represents a planned activity, stimulus, or interaction</text><text fill="#000000" font-family="sans-serif" font-size="20" lengthAdjust="spacing" textLength="510" x="1460.5" y="534.3894">aimed at influencing user behavior or collecting data.</text><text fill="#000000" font-family="sans-serif" font-size="20" lengthAdjust="spacing" textLength="516" x="1460.5" y="557.9441">Examples: questionnaires, prompts, mini-games, etc.</text></g><!--class Questionnaire--><g id="elem_Questionnaire"><rect codeLine="29" fill="#F1F1F1" height="97.1094" id="Questionnaire" rx="2.5" ry="2.5" style="stroke:#181818;stroke-width:0.5;" width="208" x="22" y="205.8288"/><ellipse cx="56" cy="222.8288" fill="#ADD1B2" rx="12" ry="12" style="stroke:#181818;stroke-width:1.0;"/><path d="M58.8066,229.9088 Q58.123,230.2604 57.3711,230.4362 Q56.6191,230.612 55.7891,230.612 Q52.8398,230.612 51.2871,228.6686 Q49.7344,226.7252 49.7344,223.0534 Q49.7344,219.3717 51.2871,217.4284 Q52.8398,215.485 55.7891,215.485 Q56.6191,215.485 57.3809,215.6608 Q58.1426,215.8366 58.8066,216.1881 L58.8066,219.3913 Q58.0645,218.7077 57.3662,218.3903 Q56.668,218.0729 55.9258,218.0729 Q54.3438,218.0729 53.5381,219.3278 Q52.7324,220.5827 52.7324,223.0534 Q52.7324,225.5143 53.5381,226.7692 Q54.3438,228.0241 55.9258,228.0241 Q56.668,228.0241 57.3662,227.7067 Q58.0645,227.3893 58.8066,226.7057 Z " fill="#000000"/><text fill="#000000" font-family="sans-serif" font-size="20" lengthAdjust="spacing" textLength="134" x="75" y="230.3873">Questionnaire</text><line style="stroke:#181818;stroke-width:0.5;" x1="23" x2="229" y1="239.8288" y2="239.8288"/><ellipse cx="33" cy="257.1061" fill="none" rx="3" ry="3" style="stroke:#038048;stroke-width:1.0;"/><text fill="#000000" font-family="sans-serif" font-size="20" lengthAdjust="spacing" textLength="177" x="43" y="263.1647">questionCount: int</text><ellipse cx="33" cy="280.6608" fill="none" rx="3" ry="3" style="stroke:#038048;stroke-width:1.0;"/><text fill="#000000" font-family="sans-serif" font-size="20" lengthAdjust="spacing" textLength="181" x="43" y="286.7194">estimatedTime: int</text><line style="stroke:#181818;stroke-width:0.5;" x1="23" x2="229" y1="294.9381" y2="294.9381"/></g><!--class AlertMessage--><g id="elem_AlertMessage"><rect codeLine="33" fill="#F1F1F1" height="97.1094" id="AlertMessage" rx="2.5" ry="2.5" style="stroke:#181818;stroke-width:0.5;" width="208" x="260" y="205.8288"/><ellipse cx="296.7" cy="222.8288" fill="#ADD1B2" rx="12" ry="12" style="stroke:#181818;stroke-width:1.0;"/><path d="M299.5066,229.9088 Q298.823,230.2604 298.0711,230.4362 Q297.3191,230.612 296.4891,230.612 Q293.5398,230.612 291.9871,228.6686 Q290.4344,226.7252 290.4344,223.0534 Q290.4344,219.3717 291.9871,217.4284 Q293.5398,215.485 296.4891,215.485 Q297.3191,215.485 298.0809,215.6608 Q298.8426,215.8366 299.5066,216.1881 L299.5066,219.3913 Q298.7645,218.7077 298.0662,218.3903 Q297.368,218.0729 296.6258,218.0729 Q295.0438,218.0729 294.2381,219.3278 Q293.4324,220.5827 293.4324,223.0534 Q293.4324,225.5143 294.2381,226.7692 Q295.0438,228.0241 296.6258,228.0241 Q297.368,228.0241 298.0662,227.7067 Q298.7645,227.3893 299.5066,226.7057 Z " fill="#000000"/><text fill="#000000" font-family="sans-serif" font-size="20" lengthAdjust="spacing" textLength="128" x="316.3" y="230.3873">AlertMessage</text><line style="stroke:#181818;stroke-width:0.5;" x1="261" x2="467" y1="239.8288" y2="239.8288"/><ellipse cx="271" cy="257.1061" fill="none" rx="3" ry="3" style="stroke:#038048;stroke-width:1.0;"/><text fill="#000000" font-family="sans-serif" font-size="20" lengthAdjust="spacing" textLength="177" x="281" y="263.1647">questionCount: int</text><ellipse cx="271" cy="280.6608" fill="none" rx="3" ry="3" style="stroke:#038048;stroke-width:1.0;"/><text fill="#000000" font-family="sans-serif" font-size="20" lengthAdjust="spacing" textLength="181" x="281" y="286.7194">estimatedTime: int</text><line style="stroke:#181818;stroke-width:0.5;" x1="261" x2="467" y1="294.9381" y2="294.9381"/></g><g id="elem_GMN17"><path d="M497.5,225.8288 L497.5,250.3888 L468.17,254.3888 L497.5,258.3888 L497.5,282.9381 A0,0 0 0 0 497.5,282.9381 L1080.5,282.9381 A0,0 0 0 0 1080.5,282.9381 L1080.5,235.8288 L1070.5,225.8288 L497.5,225.8288 A0,0 0 0 0 497.5,225.8288 " fill="#FEFFDD" style="stroke:#181818;stroke-width:0.5;"/><path d="M1070.5,225.8288 L1070.5,235.8288 L1080.5,235.8288 L1070.5,225.8288 " fill="#FEFFDD" style="stroke:#181818;stroke-width:0.5;"/><text fill="#000000" font-family="sans-serif" font-size="20" lengthAdjust="spacing" textLength="556" x="503.5" y="250.1647">Displays general information, warnings, or alerts intended</text><text fill="#000000" font-family="sans-serif" font-size="20" lengthAdjust="spacing" textLength="531" x="503.5" y="273.7194">to guide, inform, or prompt the user during interaction.</text></g><g id="elem_Intrinsic_Motivation_Inventory"><rect fill="#F1F1F1" height="43.5547" style="stroke:#181818;stroke-width:0.5;" width="299" x="296.5" y="68.2788"/><text fill="#000000" font-family="sans-serif" font-size="20" lengthAdjust="spacing" textLength="285" x="303.5" y="89.6147">Intrinsic_Motivation_Inventory</text><line style="stroke:#181818;stroke-width:0.5;" x1="297.5" x2="594.5" y1="95.8334" y2="95.8334"/></g><g id="elem_User_Engagement_Scale"><rect fill="#F1F1F1" height="43.5547" style="stroke:#181818;stroke-width:0.5;" width="244" x="22" y="68.2788"/><text fill="#000000" font-family="sans-serif" font-size="20" lengthAdjust="spacing" textLength="230" x="29" y="89.6147">User_Engagement_Scale</text><line style="stroke:#181818;stroke-width:0.5;" x1="23" x2="265" y1="95.8334" y2="95.8334"/></g><!--class MotivationalMessage--><g id="elem_MotivationalMessage"><rect codeLine="52" fill="#CDEAFF" height="97.1094" id="MotivationalMessage" rx="2.5" ry="2.5" style="stroke:#181818;stroke-width:0.5;" width="233" x="1824.5" y="205.8288"/><ellipse cx="1840.5" cy="222.8288" fill="#ADD1B2" rx="12" ry="12" style="stroke:#181818;stroke-width:1.0;"/><path d="M1843.3066,229.9088 Q1842.623,230.2604 1841.8711,230.4362 Q1841.1191,230.612 1840.2891,230.612 Q1837.3398,230.612 1835.7871,228.6686 Q1834.2344,226.7252 1834.2344,223.0534 Q1834.2344,219.3717 1835.7871,217.4284 Q1837.3398,215.485 1840.2891,215.485 Q1841.1191,215.485 1841.8809,215.6608 Q1842.6426,215.8366 1843.3066,216.1881 L1843.3066,219.3913 Q1842.5645,218.7077 1841.8662,218.3903 Q1841.168,218.0729 1840.4258,218.0729 Q1838.8438,218.0729 1838.0381,219.3278 Q1837.2324,220.5827 1837.2324,223.0534 Q1837.2324,225.5143 1838.0381,226.7692 Q1838.8438,228.0241 1840.4258,228.0241 Q1841.168,228.0241 1841.8662,227.7067 Q1842.5645,227.3893 1843.3066,226.7057 Z " fill="#000000"/><text fill="#000000" font-family="sans-serif" font-size="20" lengthAdjust="spacing" textLength="199" x="1855.5" y="230.3873">MotivationalMessage</text><line style="stroke:#181818;stroke-width:0.5;" x1="1825.5" x2="2056.5" y1="239.8288" y2="239.8288"/><ellipse cx="1835.5" cy="257.1061" fill="none" rx="3" ry="3" style="stroke:#038048;stroke-width:1.0;"/><text fill="#000000" font-family="sans-serif" font-size="20" lengthAdjust="spacing" textLength="56" x="1845.5" y="263.1647">id: int</text><ellipse cx="1835.5" cy="280.6608" fill="none" rx="3" ry="3" style="stroke:#038048;stroke-width:1.0;"/><text fill="#000000" font-family="sans-serif" font-size="20" lengthAdjust="spacing" textLength="105" x="1845.5" y="286.7194">text: String</text><line style="stroke:#181818;stroke-width:0.5;" x1="1825.5" x2="2056.5" y1="294.9381" y2="294.9381"/></g><g id="elem_GMN27"><path d="M2087.5,214.0488 L2087.5,250.3888 L2057.79,254.3888 L2087.5,258.3888 L2087.5,294.7128 A0,0 0 0 0 2087.5,294.7128 L2732.5,294.7128 A0,0 0 0 0 2732.5,294.7128 L2732.5,224.0488 L2722.5,214.0488 L2087.5,214.0488 A0,0 0 0 0 2087.5,214.0488 " fill="#FEFFDD" style="stroke:#181818;stroke-width:0.5;"/><path d="M2722.5,214.0488 L2722.5,224.0488 L2732.5,224.0488 L2722.5,214.0488 " fill="#FEFFDD" style="stroke:#181818;stroke-width:0.5;"/><text fill="#000000" font-family="sans-serif" font-size="20" lengthAdjust="spacing" textLength="618" x="2093.5" y="238.3847">A mechanic that delivers messages to the user to motivate them.</text><text fill="#000000" font-family="sans-serif" font-size="20" lengthAdjust="spacing" textLength="596" x="2093.5" y="261.9394">While active for all users, the content and tone adapt based on</text><text fill="#000000" font-family="sans-serif" font-size="20" lengthAdjust="spacing" textLength="433" x="2093.5" y="285.4941">individual profiles, goals, or behavioral state.</text></g><g id="elem_MotivationalMessagePM_LOW"><rect fill="#F1F1F1" height="82.6641" style="stroke:#181818;stroke-width:0.5;" width="295" x="1793.5" y="48.7188"/><text fill="#000000" font-family="sans-serif" font-size="20" lengthAdjust="spacing" textLength="281" x="1800.5" y="70.0547">MotivationalMessagePM_LOW</text><line style="stroke:#181818;stroke-width:0.5;" x1="1794.5" x2="2087.5" y1="76.2734" y2="76.2734"/><text fill="#000000" font-family="sans-serif" font-size="20" lengthAdjust="spacing" textLength="199" x="1799.5" y="99.6094">MotivationalMessage</text><text fill="#000000" font-family="sans-serif" font-size="20" lengthAdjust="spacing" textLength="101" x="1799.5" y="123.1641">userId = 1</text></g><g id="elem_DailyInterval"><rect fill="#F1F1F1" height="43.5547" style="stroke:#181818;stroke-width:0.5;" width="133" x="1480.5" y="232.6088"/><text fill="#000000" font-family="sans-serif" font-size="20" lengthAdjust="spacing" textLength="119" x="1487.5" y="253.9447">DailyInterval</text><line style="stroke:#181818;stroke-width:0.5;" x1="1481.5" x2="1612.5" y1="260.1634" y2="260.1634"/></g><g id="elem_WeeklyInterval"><rect fill="#F1F1F1" height="43.5547" style="stroke:#181818;stroke-width:0.5;" width="152" x="1643" y="232.6088"/><text fill="#000000" font-family="sans-serif" font-size="20" lengthAdjust="spacing" textLength="138" x="1650" y="253.9447">WeeklyInterval</text><line style="stroke:#181818;stroke-width:0.5;" x1="1644" x2="1794" y1="260.1634" y2="260.1634"/></g><g id="elem_MonthlyInterval"><rect fill="#F1F1F1" height="43.5547" style="stroke:#181818;stroke-width:0.5;" width="161" x="1110.5" y="232.6088"/><text fill="#000000" font-family="sans-serif" font-size="20" lengthAdjust="spacing" textLength="147" x="1117.5" y="253.9447">MonthlyInterval</text><line style="stroke:#181818;stroke-width:0.5;" x1="1111.5" x2="1270.5" y1="260.1634" y2="260.1634"/></g><g id="elem_HourlyInterval"><rect fill="#F1F1F1" height="43.5547" style="stroke:#181818;stroke-width:0.5;" width="148" x="1302" y="232.6088"/><text fill="#000000" font-family="sans-serif" font-size="20" lengthAdjust="spacing" textLength="134" x="1309" y="253.9447">HourlyInterval</text><line style="stroke:#181818;stroke-width:0.5;" x1="1303" x2="1449" y1="260.1634" y2="260.1634"/></g><!--class GameMechanic--><g id="elem_GameMechanic"><rect fill="#F1F1F1" height="50" id="GameMechanic" rx="2.5" ry="2.5" style="stroke:#181818;stroke-width:0.5;" width="178" x="2788" y="229.3888"/><ellipse cx="2804" cy="246.3888" fill="#ADD1B2" rx="12" ry="12" style="stroke:#181818;stroke-width:1.0;"/><path d="M2806.8066,253.4688 Q2806.123,253.8204 2805.3711,253.9962 Q2804.6191,254.172 2803.7891,254.172 Q2800.8398,254.172 2799.2871,252.2286 Q2797.7344,250.2852 2797.7344,246.6134 Q2797.7344,242.9317 2799.2871,240.9884 Q2800.8398,239.045 2803.7891,239.045 Q2804.6191,239.045 2805.3809,239.2208 Q2806.1426,239.3966 2806.8066,239.7481 L2806.8066,242.9513 Q2806.0645,242.2677 2805.3662,241.9503 Q2804.668,241.6329 2803.9258,241.6329 Q2802.3438,241.6329 2801.5381,242.8878 Q2800.7324,244.1427 2800.7324,246.6134 Q2800.7324,249.0743 2801.5381,250.3292 Q2802.3438,251.5841 2803.9258,251.5841 Q2804.668,251.5841 2805.3662,251.2667 Q2806.0645,250.9493 2806.8066,250.2657 Z " fill="#000000"/><text fill="#000000" font-family="sans-serif" font-size="20" lengthAdjust="spacing" textLength="144" x="2819" y="253.9473">GameMechanic</text><line style="stroke:#181818;stroke-width:0.5;" x1="2789" x2="2965" y1="263.3888" y2="263.3888"/><line style="stroke:#181818;stroke-width:0.5;" x1="2789" x2="2965" y1="271.3888" y2="271.3888"/></g><!--link KeySituation to AssistantAction--><g id="link_KeySituation_AssistantAction"><path codeLine="10" d="M1289.11,420.1888 C1300.39,439.7688 1313.394,462.3203 1326.154,484.4603 " fill="none" id="KeySituation-to-AssistantAction" style="stroke:#181818;stroke-width:1.0;"/><polygon fill="#181818" points="1329.15,489.6588,1328.1216,479.8637,1326.6533,485.3267,1321.1903,483.8584,1329.15,489.6588" style="stroke:#181818;stroke-width:1.0;"/><text fill="#000000" font-family="sans-serif" font-size="20" lengthAdjust="spacing" textLength="74" x="1317.99" y="466.8347">triggers</text></g><!--link Interval to AssistantAction--><g id="link_Interval_AssistantAction"><path codeLine="11" d="M1435.92,431.6488 C1424.6,444.2788 1411.77,458.5488 1400,471.4988 C1394.65,477.3788 1393.03,479.181 1387.47,485.231 " fill="none" id="Interval-to-AssistantAction" style="stroke:#181818;stroke-width:1.0;"/><polygon fill="#181818" points="1383.41,489.6488,1392.4451,485.7287,1386.7933,485.9673,1386.5548,480.3155,1383.41,489.6488" style="stroke:#181818;stroke-width:1.0;"/><text fill="#000000" font-family="sans-serif" font-size="20" lengthAdjust="spacing" textLength="74" x="1423.53" y="466.8347">triggers</text></g><!--reverse link ImmediateAssistantAction to AssistantAction--><g id="link_ImmediateAssistantAction_AssistantAction"><path codeLine="20" d="M507.7253,414.6835 C715.9053,442.1535 1107.75,493.8588 1275.6,516.0088 " fill="none" id="ImmediateAssistantAction-backto-AssistantAction" style="stroke:#181818;stroke-width:1.0;"/><polygon fill="none" points="489.88,412.3288,506.9404,420.6319,508.5102,408.7351,489.88,412.3288" style="stroke:#181818;stroke-width:1.0;"/></g><!--reverse link MechanicAssistantAction to AssistantAction--><g id="link_MechanicAssistantAction_AssistantAction"><path codeLine="21" d="M2152.0676,405.247 C1951.9976,419.827 1574.77,450.7488 1440,486.4988 C1434.81,487.8688 1429.53,489.5088 1424.27,491.3088 " fill="none" id="MechanicAssistantAction-backto-AssistantAction" style="stroke:#181818;stroke-width:1.0;"/><polygon fill="none" points="2170.02,403.9388,2151.6315,399.2629,2152.5037,411.2312,2170.02,403.9388" style="stroke:#181818;stroke-width:1.0;"/></g><!--link Questionnaire to ImmediateAssistantAction--><g id="link_Questionnaire_ImmediateAssistantAction"><path codeLine="43" d="M189.36,303.2288 C208.66,316.8388 230.27,331.1588 251,342.9388 C259.88,347.9888 263.971,350.2708 273.511,354.9408 " fill="none" id="Questionnaire-to-ImmediateAssistantAction" style="stroke:#181818;stroke-width:1.0;"/><polygon fill="#181818" points="278.9,357.5788,272.5752,350.0291,274.4092,355.3804,269.0579,357.2144,278.9,357.5788" style="stroke:#181818;stroke-width:1.0;"/><text fill="#000000" font-family="sans-serif" font-size="20" lengthAdjust="spacing" textLength="104" x="252" y="338.2747">instance of</text></g><!--link AlertMessage to ImmediateAssistantAction--><g id="link_AlertMessage_ImmediateAssistantAction"><path codeLine="44" d="M364,303.3788 C364,321.1688 364,335.0288 364,351.5888 " fill="none" id="AlertMessage-to-ImmediateAssistantAction" style="stroke:#181818;stroke-width:1.0;"/><polygon fill="#181818" points="364,357.5888,368,348.5888,364,352.5888,360,348.5888,364,357.5888" style="stroke:#181818;stroke-width:1.0;"/><text fill="#000000" font-family="sans-serif" font-size="20" lengthAdjust="spacing" textLength="104" x="365" y="338.2747">instance of</text></g><!--link Intrinsic_Motivation_Inventory to Questionnaire--><g id="link_Intrinsic_Motivation_Inventory_Questionnaire"><path codeLine="47" d="M392.13,112.2788 C351.08,129.0388 293.55,153.7888 245,179.3888 C230.04,187.2688 219.565,193.2087 204.765,202.2187 " fill="none" id="Intrinsic_Motivation_Inventory-to-Questionnaire" style="stroke:#181818;stroke-width:1.0;"/><polygon fill="#181818" points="199.64,205.3388,209.4075,204.0754,203.9108,202.7387,205.2475,197.2421,199.64,205.3388" style="stroke:#181818;stroke-width:1.0;"/><text fill="#000000" font-family="sans-serif" font-size="20" lengthAdjust="spacing" textLength="104" x="311.07" y="166.7247">instance of</text></g><!--link User_Engagement_Scale to Questionnaire--><g id="link_User_Engagement_Scale_Questionnaire"><path codeLine="50" d="M141.65,112.2788 C139.04,135.8188 135.4009,168.6153 131.9709,199.5653 " fill="none" id="User_Engagement_Scale-to-Questionnaire" style="stroke:#181818;stroke-width:1.0;"/><polygon fill="#181818" points="131.31,205.5288,136.277,197.0241,131.8607,200.5592,128.3257,196.1429,131.31,205.5288" style="stroke:#181818;stroke-width:1.0;"/><text fill="#000000" font-family="sans-serif" font-size="20" lengthAdjust="spacing" textLength="104" x="138.66" y="166.7247">instance of</text></g><!--link MotivationalMessage to MechanicAssistantAction--><g id="link_MotivationalMessage_MechanicAssistantAction"><path codeLine="63" d="M2057.85,301.8288 C2103.46,319.9688 2149.3944,338.2223 2192.1844,355.2323 " fill="none" id="MotivationalMessage-to-MechanicAssistantAction" style="stroke:#181818;stroke-width:1.0;"/><polygon fill="#181818" points="2197.76,357.4488,2190.8742,350.407,2193.1137,355.6017,2187.919,357.8412,2197.76,357.4488" style="stroke:#181818;stroke-width:1.0;"/><text fill="#000000" font-family="sans-serif" font-size="20" lengthAdjust="spacing" textLength="104" x="2157.4" y="338.2747">instance of</text></g><!--link MotivationalMessagePM_LOW to MotivationalMessage--><g id="link_MotivationalMessagePM_LOW_MotivationalMessage"><path codeLine="68" d="M1941,131.5988 C1941,154.0388 1941,176.0688 1941,199.5788 " fill="none" id="MotivationalMessagePM_LOW-to-MotivationalMessage" style="stroke:#181818;stroke-width:1.0;"/><polygon fill="#181818" points="1941,205.5788,1945,196.5788,1941,200.5788,1937,196.5788,1941,205.5788" style="stroke:#181818;stroke-width:1.0;"/><text fill="#000000" font-family="sans-serif" font-size="20" lengthAdjust="spacing" textLength="104" x="1942" y="166.7247">instance of</text></g><!--link DailyInterval to Interval--><g id="link_DailyInterval_Interval"><path codeLine="75" d="M1535,276.3988 C1522.7,297.9388 1506.3044,326.6379 1491.5544,352.4779 " fill="none" id="DailyInterval-to-Interval" style="stroke:#181818;stroke-width:1.0;"/><polygon fill="#181818" points="1488.58,357.6888,1496.5155,351.8555,1491.0587,353.3464,1489.5678,347.8896,1488.58,357.6888" style="stroke:#181818;stroke-width:1.0;"/><text fill="#000000" font-family="sans-serif" font-size="20" lengthAdjust="spacing" textLength="104" x="1510.87" y="338.2747">instance of</text></g><!--link WeeklyInterval to Interval--><g id="link_WeeklyInterval_Interval"><path codeLine="78" d="M1700.76,276.5388 C1682.77,296.2088 1653.59,325.0988 1623,342.9388 C1602.21,355.0688 1583.841,362.8683 1560.951,370.3783 " fill="none" id="WeeklyInterval-to-Interval" style="stroke:#181818;stroke-width:1.0;"/><polygon fill="#181818" points="1555.25,372.2488,1565.0485,373.2437,1560.0008,370.69,1562.5545,365.6424,1555.25,372.2488" style="stroke:#181818;stroke-width:1.0;"/><text fill="#000000" font-family="sans-serif" font-size="20" lengthAdjust="spacing" textLength="104" x="1658.68" y="338.2747">instance of</text></g><!--link MonthlyInterval to Interval--><g id="link_MonthlyInterval_Interval"><path codeLine="81" d="M1202.21,276.5588 C1214.31,297.1388 1235.57,327.4688 1263,342.9388 C1303.29,365.6688 1321.08,346.8988 1366,357.9388 C1370.83,359.1288 1369.9826,358.7943 1374.9326,360.2143 " fill="none" id="MonthlyInterval-to-Interval" style="stroke:#181818;stroke-width:1.0;"/><polygon fill="#181818" points="1380.7,361.8688,1373.1519,355.5421,1375.8938,360.49,1370.9459,363.2319,1380.7,361.8688" style="stroke:#181818;stroke-width:1.0;"/><text fill="#000000" font-family="sans-serif" font-size="20" lengthAdjust="spacing" textLength="104" x="1264" y="338.2747">instance of</text></g><!--link HourlyInterval to Interval--><g id="link_HourlyInterval_Interval"><path codeLine="84" d="M1373.17,276.5288 C1371.75,295.3888 1372.46,323.0288 1385,342.9388 C1388.42,348.3688 1388.2992,349.1877 1393.0292,353.6577 " fill="none" id="HourlyInterval-to-Interval" style="stroke:#181818;stroke-width:1.0;"/><polygon fill="#181818" points="1397.39,357.7788,1393.5962,348.6899,1393.756,354.3445,1388.1014,354.5043,1397.39,357.7788" style="stroke:#181818;stroke-width:1.0;"/><text fill="#000000" font-family="sans-serif" font-size="20" lengthAdjust="spacing" textLength="104" x="1386" y="338.2747">instance of</text></g><!--link GameMechanic to MechanicAssistantAction--><g id="link_GameMechanic_MechanicAssistantAction"><path codeLine="87" d="M2816.81,279.8788 C2795.06,288.1188 2770.16,296.8688 2747,303.3888 C2633.48,335.3188 2518.8166,357.1788 2425.6366,372.6588 " fill="none" id="GameMechanic-to-MechanicAssistantAction" style="stroke:#181818;stroke-width:1.0;"/><polygon fill="none" points="2407.88,375.6088,2426.6199,378.5777,2424.6533,366.74,2407.88,375.6088" style="stroke:#181818;stroke-width:1.0;"/></g><!--link GameMechanic to MechanicAssistantAction--><g id="link_GameMechanic_MechanicAssistantAction"><path codeLine="88" d="M2826.43,279.7088 C2782.79,299.6988 2717.58,327.1888 2658,342.9388 C2575.79,364.6788 2486.6402,376.8915 2413.5702,384.2015 " fill="none" id="GameMechanic-to-MechanicAssistantAction-1" style="stroke:#181818;stroke-width:1.0;"/><polygon fill="#181818" points="2407.6,384.7988,2416.9535,387.883,2412.5752,384.301,2416.1571,379.9227,2407.6,384.7988" style="stroke:#181818;stroke-width:1.0;"/><text fill="#000000" font-family="sans-serif" font-size="20" lengthAdjust="spacing" textLength="74" x="2732.93" y="338.2747">triggers</text></g><!--SRC=[dLPTRzCm57tVhxXYZxGL7o_J19CcDc22Ye-2zbXvyMrgwjWXTieAuxzpx2HTlQQbKBLLSttFoRt7npTr2sLAKOc29Cz4hVrhQ_n4_MHwzkJ8hHUDbUoufEURmKgOHHiyEYf5jX0vqvNnN2tPU6MDesC-uPCPNlJhY2ZJmhaa8uQ97YjvIifuNFp6vnsl9ihN8cOCXsS9v9GU-KhbELVk4NAR9Q6tyYX9NDzzpDbS69NzlOfrlKN1KWdF2QGF4yhfJtvnDnocrI6tjvIjpC1gh6T2BtDFTfQk4dtciiBc6Ez8KAc5CIn9P5ujbLyDo7bLrBfs0x9Lg9Ihi1QHGXKXrICyqpMRJ9cSQiSLtV1SB1K0U6TMQmO4Qr9uCGBmybOKfMPtIjzhTe7D28KY1bHMjYWzVXJAg64kYX1admKK6naxkT-CJvleJj6EyfMjZU_4HJn42oWhlw3ipOrgkCurLtxCpWKN_X_LbjARd15veHmKNZdAsK187PIpLH6TEg0VeZAGgP5Q1AoBYXi9cIFUMyfh9NdG0cDcendvEJVYoxeAOc_irKFrKjsYy_jzXpEWZFF2P8n-mdb9PFe79A3svXjy4Eo7-fpAfcCBayNUfrSc86srekPCxii8Tqqxs7sphn1aUcboL5i0Ffraq1NBlV73cDiviAvCw4wEuqooQ6TLShHnuVaM3fg4nlBMTrjswU6Cu7CgsgEEJSPnawpL4cC9uPZaWY_Msu_VHKF48LYC6kjSpnKwZEUQQHODfYC0TWlOp0QdUHBmYRS6gLB0LJV2mNpDm26q8p4MP0tdmdKpC0ATMw4RptR77ilGpFD3t_M95ZJldMIxDxM7vkDu-lx3TVyjcZNmzUkx3n7qkPBqafxkJOmzzFIsqptTKwTr2kOYniW5liD0wMP9s-s5K7grVamXdWRkdrkusAtPDVCYfNaGEP1d39lCxs5HbYHoAD5RMrS9JnhOJmDzKhqR_xZH6pmnkYjGt9rH-ezYr6krmyZE3g7Q_DVm1m00]--></g></svg>