<?xml version="1.0" encoding="us-ascii" standalone="no"?><svg xmlns="http://www.w3.org/2000/svg" xmlns:xlink="http://www.w3.org/1999/xlink" contentStyleType="text/css" height="690px" preserveAspectRatio="none" style="width:1700px;height:690px;background:#FFFFFF;" version="1.1" viewBox="0 0 1700 690" width="1700px" zoomAndPan="magnify"><defs/><g><!--cluster Interventions--><g id="cluster_Interventions"><path d="M8.5,6 L105.5,6 A3.75,3.75 0 0 1 108,8.5 L115,28.4883 L1485.5,28.4883 A2.5,2.5 0 0 1 1488,30.9883 L1488,569.67 A2.5,2.5 0 0 1 1485.5,572.17 L8.5,572.17 A2.5,2.5 0 0 1 6,569.67 L6,8.5 A2.5,2.5 0 0 1 8.5,6 " fill="#E8FCFF" style="stroke:#000000;stroke-width:1.5;"/><line style="stroke:#000000;stroke-width:1.5;" x1="6" x2="115" y1="28.4883" y2="28.4883"/><text fill="#000000" font-family="sans-serif" font-size="14" font-weight="bold" lengthAdjust="spacing" textLength="96" x="10" y="21.5352">Interventions</text></g><!--cluster MotivationalMechanics--><g id="cluster_MotivationalMechanics"><path d="M1514.5,464.93 L1680.5,464.93 A3.75,3.75 0 0 1 1683,467.43 L1690,487.4183 L1690.5,487.4183 A2.5,2.5 0 0 1 1693,489.9183 L1693,561.43 A2.5,2.5 0 0 1 1690.5,563.93 L1514.5,563.93 A2.5,2.5 0 0 1 1512,561.43 L1512,467.43 A2.5,2.5 0 0 1 1514.5,464.93 " fill="none" style="stroke:#000000;stroke-width:1.5;"/><line style="stroke:#000000;stroke-width:1.5;" x1="1512" x2="1690" y1="487.4183" y2="487.4183"/><text fill="#000000" font-family="sans-serif" font-size="14" font-weight="bold" lengthAdjust="spacing" textLength="165" x="1516" y="480.4652">MotivationalMechanics</text></g><!--class Intervention--><g id="elem_Intervention"><rect codeLine="2" fill="#F1F1F1" height="64.4883" id="Intervention" rx="2.5" ry="2.5" style="stroke:#181818;stroke-width:0.5;" width="115" x="797.5" y="491.68"/><ellipse cx="812.5" cy="507.68" fill="#ADD1B2" rx="11" ry="11" style="stroke:#181818;stroke-width:1.0;"/><path d="M814.9731,513.8231 Q814.3921,514.1219 813.7529,514.2713 Q813.1138,514.4207 812.4082,514.4207 Q809.9014,514.4207 808.5815,512.7689 Q807.2617,511.117 807.2617,507.9959 Q807.2617,504.8665 808.5815,503.2147 Q809.9014,501.5628 812.4082,501.5628 Q813.1138,501.5628 813.7612,501.7122 Q814.4087,501.8616 814.9731,502.1605 L814.9731,504.8831 Q814.3423,504.3021 813.7488,504.0323 Q813.1553,503.7625 812.5244,503.7625 Q811.1797,503.7625 810.4949,504.8292 Q809.8101,505.8958 809.8101,507.9959 Q809.8101,510.0877 810.4949,511.1544 Q811.1797,512.221 812.5244,512.221 Q813.1553,512.221 813.7488,511.9512 Q814.3423,511.6815 814.9731,511.1004 Z " fill="#000000"/><text fill="#000000" font-family="sans-serif" font-size="14" lengthAdjust="spacing" textLength="83" x="826.5" y="512.971">Intervention</text><line style="stroke:#181818;stroke-width:0.5;" x1="798.5" x2="911.5" y1="523.68" y2="523.68"/><ellipse cx="808.5" cy="537.4241" fill="none" rx="3" ry="3" style="stroke:#038048;stroke-width:1.0;"/><text fill="#000000" font-family="sans-serif" font-size="14" lengthAdjust="spacing" textLength="39" x="817.5" y="541.2152">id: int</text><line style="stroke:#181818;stroke-width:0.5;" x1="798.5" x2="911.5" y1="548.1683" y2="548.1683"/></g><!--class MechanicIntervention--><g id="elem_MechanicIntervention"><rect codeLine="6" fill="#F1F1F1" height="64.4883" id="MechanicIntervention" rx="2.5" ry="2.5" style="stroke:#181818;stroke-width:0.5;" width="179" x="906.5" y="337.44"/><ellipse cx="921.5" cy="353.44" fill="#ADD1B2" rx="11" ry="11" style="stroke:#181818;stroke-width:1.0;"/><path d="M923.9731,359.5831 Q923.3921,359.8819 922.7529,360.0313 Q922.1138,360.1807 921.4082,360.1807 Q918.9014,360.1807 917.5815,358.5289 Q916.2617,356.877 916.2617,353.7559 Q916.2617,350.6265 917.5815,348.9747 Q918.9014,347.3228 921.4082,347.3228 Q922.1138,347.3228 922.7612,347.4722 Q923.4087,347.6216 923.9731,347.9205 L923.9731,350.6431 Q923.3423,350.0621 922.7488,349.7923 Q922.1553,349.5225 921.5244,349.5225 Q920.1797,349.5225 919.4949,350.5892 Q918.8101,351.6558 918.8101,353.7559 Q918.8101,355.8477 919.4949,356.9144 Q920.1797,357.981 921.5244,357.981 Q922.1553,357.981 922.7488,357.7112 Q923.3423,357.4415 923.9731,356.8604 Z " fill="#000000"/><text fill="#000000" font-family="sans-serif" font-size="14" lengthAdjust="spacing" textLength="147" x="935.5" y="358.731">MechanicIntervention</text><line style="stroke:#181818;stroke-width:0.5;" x1="907.5" x2="1084.5" y1="369.44" y2="369.44"/><ellipse cx="917.5" cy="383.1841" fill="none" rx="3" ry="3" style="stroke:#038048;stroke-width:1.0;"/><text fill="#000000" font-family="sans-serif" font-size="14" lengthAdjust="spacing" textLength="39" x="926.5" y="386.9752">id: int</text><line style="stroke:#181818;stroke-width:0.5;" x1="907.5" x2="1084.5" y1="393.9283" y2="393.9283"/></g><!--class ImmediateIntervention--><g id="elem_ImmediateIntervention"><rect codeLine="9" fill="#F1F1F1" height="64.4883" id="ImmediateIntervention" rx="2.5" ry="2.5" style="stroke:#181818;stroke-width:0.5;" width="187" x="621.5" y="337.44"/><ellipse cx="636.5" cy="353.44" fill="#ADD1B2" rx="11" ry="11" style="stroke:#181818;stroke-width:1.0;"/><path d="M638.9731,359.5831 Q638.3921,359.8819 637.7529,360.0313 Q637.1138,360.1807 636.4082,360.1807 Q633.9014,360.1807 632.5815,358.5289 Q631.2617,356.877 631.2617,353.7559 Q631.2617,350.6265 632.5815,348.9747 Q633.9014,347.3228 636.4082,347.3228 Q637.1138,347.3228 637.7612,347.4722 Q638.4087,347.6216 638.9731,347.9205 L638.9731,350.6431 Q638.3423,350.0621 637.7488,349.7923 Q637.1553,349.5225 636.5244,349.5225 Q635.1797,349.5225 634.4949,350.5892 Q633.8101,351.6558 633.8101,353.7559 Q633.8101,355.8477 634.4949,356.9144 Q635.1797,357.981 636.5244,357.981 Q637.1553,357.981 637.7488,357.7112 Q638.3423,357.4415 638.9731,356.8604 Z " fill="#000000"/><text fill="#000000" font-family="sans-serif" font-size="14" lengthAdjust="spacing" textLength="155" x="650.5" y="358.731">ImmediateIntervention</text><line style="stroke:#181818;stroke-width:0.5;" x1="622.5" x2="807.5" y1="369.44" y2="369.44"/><ellipse cx="632.5" cy="383.1841" fill="none" rx="3" ry="3" style="stroke:#038048;stroke-width:1.0;"/><text fill="#000000" font-family="sans-serif" font-size="14" lengthAdjust="spacing" textLength="39" x="641.5" y="386.9752">id: int</text><line style="stroke:#181818;stroke-width:0.5;" x1="622.5" x2="807.5" y1="393.9283" y2="393.9283"/></g><g id="elem_GMN8"><path d="M947.5,495.96 L947.5,519.93 L912.85,523.93 L947.5,527.93 L947.5,551.8916 A0,0 0 0 0 947.5,551.8916 L1308.5,551.8916 A0,0 0 0 0 1308.5,551.8916 L1308.5,505.96 L1298.5,495.96 L947.5,495.96 A0,0 0 0 0 947.5,495.96 " fill="#FEFFDD" style="stroke:#181818;stroke-width:0.5;"/><path d="M1298.5,495.96 L1298.5,505.96 L1308.5,505.96 L1298.5,495.96 " fill="#FEFFDD" style="stroke:#181818;stroke-width:0.5;"/><text fill="#000000" font-family="sans-serif" font-size="13" lengthAdjust="spacing" textLength="340" x="953.5" y="513.5284">Represents a planned activity, stimulus, or interaction</text><text fill="#000000" font-family="sans-serif" font-size="13" lengthAdjust="spacing" textLength="336" x="953.5" y="528.8389">aimed at influencing user behavior or collecting data.</text><text fill="#000000" font-family="sans-serif" font-size="13" lengthAdjust="spacing" textLength="338" x="953.5" y="544.1495">Examples: questionnaires, prompts, mini-games, etc.</text></g><!--class Questionnaire--><g id="elem_Questionnaire"><rect codeLine="22" fill="#F1F1F1" height="80.9766" id="Questionnaire" rx="2.5" ry="2.5" style="stroke:#181818;stroke-width:0.5;" width="154" x="638" y="179.46"/><ellipse cx="664.25" cy="195.46" fill="#ADD1B2" rx="11" ry="11" style="stroke:#181818;stroke-width:1.0;"/><path d="M666.7231,201.6031 Q666.1421,201.9019 665.5029,202.0513 Q664.8638,202.2007 664.1582,202.2007 Q661.6514,202.2007 660.3315,200.5489 Q659.0117,198.897 659.0117,195.7759 Q659.0117,192.6465 660.3315,190.9947 Q661.6514,189.3428 664.1582,189.3428 Q664.8638,189.3428 665.5112,189.4922 Q666.1587,189.6416 666.7231,189.9405 L666.7231,192.6631 Q666.0923,192.0821 665.4988,191.8123 Q664.9053,191.5425 664.2744,191.5425 Q662.9297,191.5425 662.2449,192.6092 Q661.5601,193.6758 661.5601,195.7759 Q661.5601,197.8677 662.2449,198.9344 Q662.9297,200.001 664.2744,200.001 Q664.9053,200.001 665.4988,199.7312 Q666.0923,199.4615 666.7231,198.8804 Z " fill="#000000"/><text fill="#000000" font-family="sans-serif" font-size="14" lengthAdjust="spacing" textLength="97" x="680.75" y="200.751">Questionnaire</text><line style="stroke:#181818;stroke-width:0.5;" x1="639" x2="791" y1="211.46" y2="211.46"/><ellipse cx="649" cy="225.2041" fill="none" rx="3" ry="3" style="stroke:#038048;stroke-width:1.0;"/><text fill="#000000" font-family="sans-serif" font-size="14" lengthAdjust="spacing" textLength="128" x="658" y="228.9952">questionCount: int</text><ellipse cx="649" cy="241.6924" fill="none" rx="3" ry="3" style="stroke:#038048;stroke-width:1.0;"/><text fill="#000000" font-family="sans-serif" font-size="14" lengthAdjust="spacing" textLength="127" x="658" y="245.4834">estimatedTime: int</text><line style="stroke:#181818;stroke-width:0.5;" x1="639" x2="791" y1="252.4366" y2="252.4366"/></g><!--class AlertMessage--><g id="elem_AlertMessage"><rect codeLine="26" fill="#F1F1F1" height="80.9766" id="AlertMessage" rx="2.5" ry="2.5" style="stroke:#181818;stroke-width:0.5;" width="154" x="22" y="179.46"/><ellipse cx="50.5" cy="195.46" fill="#ADD1B2" rx="11" ry="11" style="stroke:#181818;stroke-width:1.0;"/><path d="M52.9731,201.6031 Q52.3921,201.9019 51.7529,202.0513 Q51.1138,202.2007 50.4082,202.2007 Q47.9014,202.2007 46.5815,200.5489 Q45.2617,198.897 45.2617,195.7759 Q45.2617,192.6465 46.5815,190.9947 Q47.9014,189.3428 50.4082,189.3428 Q51.1138,189.3428 51.7612,189.4922 Q52.4087,189.6416 52.9731,189.9405 L52.9731,192.6631 Q52.3423,192.0821 51.7488,191.8123 Q51.1553,191.5425 50.5244,191.5425 Q49.1797,191.5425 48.4949,192.6092 Q47.8101,193.6758 47.8101,195.7759 Q47.8101,197.8677 48.4949,198.9344 Q49.1797,200.001 50.5244,200.001 Q51.1553,200.001 51.7488,199.7312 Q52.3423,199.4615 52.9731,198.8804 Z " fill="#000000"/><text fill="#000000" font-family="sans-serif" font-size="14" lengthAdjust="spacing" textLength="92" x="67.5" y="200.751">AlertMessage</text><line style="stroke:#181818;stroke-width:0.5;" x1="23" x2="175" y1="211.46" y2="211.46"/><ellipse cx="33" cy="225.2041" fill="none" rx="3" ry="3" style="stroke:#038048;stroke-width:1.0;"/><text fill="#000000" font-family="sans-serif" font-size="14" lengthAdjust="spacing" textLength="128" x="42" y="228.9952">questionCount: int</text><ellipse cx="33" cy="241.6924" fill="none" rx="3" ry="3" style="stroke:#038048;stroke-width:1.0;"/><text fill="#000000" font-family="sans-serif" font-size="14" lengthAdjust="spacing" textLength="127" x="42" y="245.4834">estimatedTime: int</text><line style="stroke:#181818;stroke-width:0.5;" x1="23" x2="175" y1="252.4366" y2="252.4366"/></g><g id="elem_GMN13"><path d="M211.5,199.64 L211.5,215.95 L176.3,219.95 L211.5,223.95 L211.5,240.2611 A0,0 0 0 0 211.5,240.2611 L602.5,240.2611 A0,0 0 0 0 602.5,240.2611 L602.5,209.64 L592.5,199.64 L211.5,199.64 A0,0 0 0 0 211.5,199.64 " fill="#FEFFDD" style="stroke:#181818;stroke-width:0.5;"/><path d="M592.5,199.64 L592.5,209.64 L602.5,209.64 L592.5,199.64 " fill="#FEFFDD" style="stroke:#181818;stroke-width:0.5;"/><text fill="#000000" font-family="sans-serif" font-size="13" lengthAdjust="spacing" textLength="366" x="217.5" y="217.2084">Displays general information, warnings, or alerts intended</text><text fill="#000000" font-family="sans-serif" font-size="13" lengthAdjust="spacing" textLength="349" x="217.5" y="232.5189">to guide, inform, or prompt the user during interaction.</text></g><g id="elem_Intrinsic_Motivation_Inventory"><rect fill="#F1F1F1" height="36.4883" style="stroke:#181818;stroke-width:0.5;" width="219" x="370.5" y="53.48"/><text fill="#000000" font-family="sans-serif" font-size="14" lengthAdjust="spacing" textLength="205" x="377.5" y="69.0152">Intrinsic_Motivation_Inventory</text><line style="stroke:#181818;stroke-width:0.5;" x1="371.5" x2="588.5" y1="73.9683" y2="73.9683"/></g><g id="elem_User_Engagement_Scale"><rect fill="#F1F1F1" height="36.4883" style="stroke:#181818;stroke-width:0.5;" width="180" x="625" y="53.48"/><text fill="#000000" font-family="sans-serif" font-size="14" lengthAdjust="spacing" textLength="166" x="632" y="69.0152">User_Engagement_Scale</text><line style="stroke:#181818;stroke-width:0.5;" x1="626" x2="804" y1="73.9683" y2="73.9683"/></g><!--class MotivationalMessage--><g id="elem_MotivationalMessage"><rect codeLine="45" fill="#CDEAFF" height="80.9766" id="MotivationalMessage" rx="2.5" ry="2.5" style="stroke:#181818;stroke-width:0.5;" width="175" x="827.5" y="179.46"/><ellipse cx="842.5" cy="195.46" fill="#ADD1B2" rx="11" ry="11" style="stroke:#181818;stroke-width:1.0;"/><path d="M844.9731,201.6031 Q844.3921,201.9019 843.7529,202.0513 Q843.1138,202.2007 842.4082,202.2007 Q839.9014,202.2007 838.5815,200.5489 Q837.2617,198.897 837.2617,195.7759 Q837.2617,192.6465 838.5815,190.9947 Q839.9014,189.3428 842.4082,189.3428 Q843.1138,189.3428 843.7612,189.4922 Q844.4087,189.6416 844.9731,189.9405 L844.9731,192.6631 Q844.3423,192.0821 843.7488,191.8123 Q843.1553,191.5425 842.5244,191.5425 Q841.1797,191.5425 840.4949,192.6092 Q839.8101,193.6758 839.8101,195.7759 Q839.8101,197.8677 840.4949,198.9344 Q841.1797,200.001 842.5244,200.001 Q843.1553,200.001 843.7488,199.7312 Q844.3423,199.4615 844.9731,198.8804 Z " fill="#000000"/><text fill="#000000" font-family="sans-serif" font-size="14" lengthAdjust="spacing" textLength="143" x="856.5" y="200.751">MotivationalMessage</text><line style="stroke:#181818;stroke-width:0.5;" x1="828.5" x2="1001.5" y1="211.46" y2="211.46"/><ellipse cx="838.5" cy="225.2041" fill="none" rx="3" ry="3" style="stroke:#038048;stroke-width:1.0;"/><text fill="#000000" font-family="sans-serif" font-size="14" lengthAdjust="spacing" textLength="39" x="847.5" y="228.9952">id: int</text><ellipse cx="838.5" cy="241.6924" fill="none" rx="3" ry="3" style="stroke:#038048;stroke-width:1.0;"/><text fill="#000000" font-family="sans-serif" font-size="14" lengthAdjust="spacing" textLength="76" x="847.5" y="245.4834">text: String</text><line style="stroke:#181818;stroke-width:0.5;" x1="828.5" x2="1001.5" y1="252.4366" y2="252.4366"/></g><g id="elem_GMN23"><path d="M1038,191.98 L1038,215.95 L1002.99,219.95 L1038,223.95 L1038,247.9116 A0,0 0 0 0 1038,247.9116 L1472,247.9116 A0,0 0 0 0 1472,247.9116 L1472,201.98 L1462,191.98 L1038,191.98 A0,0 0 0 0 1038,191.98 " fill="#FEFFDD" style="stroke:#181818;stroke-width:0.5;"/><path d="M1462,191.98 L1462,201.98 L1472,201.98 L1462,191.98 " fill="#FEFFDD" style="stroke:#181818;stroke-width:0.5;"/><text fill="#000000" font-family="sans-serif" font-size="13" lengthAdjust="spacing" textLength="409" x="1044" y="209.5484">A mechanic that delivers messages to the user to motivate them.</text><text fill="#000000" font-family="sans-serif" font-size="13" lengthAdjust="spacing" textLength="393" x="1044" y="224.8589">While active for all users, the content and tone adapt based on</text><text fill="#000000" font-family="sans-serif" font-size="13" lengthAdjust="spacing" textLength="285" x="1044" y="240.1695">individual profiles, goals, or behavioral state.</text></g><g id="elem_MotivationalMessagePM_LOW"><rect fill="#F1F1F1" height="61.4648" style="stroke:#181818;stroke-width:0.5;" width="214" x="840" y="41"/><text fill="#000000" font-family="sans-serif" font-size="14" lengthAdjust="spacing" textLength="200" x="847" y="56.5352">MotivationalMessagePM_LOW</text><line style="stroke:#181818;stroke-width:0.5;" x1="841" x2="1053" y1="61.4883" y2="61.4883"/><text fill="#000000" font-family="sans-serif" font-size="14" lengthAdjust="spacing" textLength="143" x="846" y="79.0234">MotivationalMessage</text><text fill="#000000" font-family="sans-serif" font-size="14" lengthAdjust="spacing" textLength="71" x="846" y="95.5117">userId = 1</text></g><!--class GameMechanic--><g id="elem_GameMechanic"><rect fill="#F1F1F1" height="48" id="GameMechanic" rx="2.5" ry="2.5" style="stroke:#181818;stroke-width:0.5;" width="135" x="1528.5" y="499.93"/><ellipse cx="1543.5" cy="515.93" fill="#ADD1B2" rx="11" ry="11" style="stroke:#181818;stroke-width:1.0;"/><path d="M1545.9731,522.0731 Q1545.3921,522.3719 1544.7529,522.5213 Q1544.1138,522.6707 1543.4082,522.6707 Q1540.9014,522.6707 1539.5815,521.0189 Q1538.2617,519.367 1538.2617,516.2459 Q1538.2617,513.1165 1539.5815,511.4647 Q1540.9014,509.8128 1543.4082,509.8128 Q1544.1138,509.8128 1544.7612,509.9622 Q1545.4087,510.1116 1545.9731,510.4105 L1545.9731,513.1331 Q1545.3423,512.5521 1544.7488,512.2823 Q1544.1553,512.0125 1543.5244,512.0125 Q1542.1797,512.0125 1541.4949,513.0792 Q1540.8101,514.1458 1540.8101,516.2459 Q1540.8101,518.3377 1541.4949,519.4044 Q1542.1797,520.471 1543.5244,520.471 Q1544.1553,520.471 1544.7488,520.2012 Q1545.3423,519.9315 1545.9731,519.3504 Z " fill="#000000"/><text fill="#000000" font-family="sans-serif" font-size="14" lengthAdjust="spacing" textLength="103" x="1557.5" y="521.221">GameMechanic</text><line style="stroke:#181818;stroke-width:0.5;" x1="1529.5" x2="1662.5" y1="531.93" y2="531.93"/><line style="stroke:#181818;stroke-width:0.5;" x1="1529.5" x2="1662.5" y1="539.93" y2="539.93"/></g><!--class KeySituation--><g id="elem_KeySituation"><rect fill="#F1F1F1" height="48" id="KeySituation" rx="2.5" ry="2.5" style="stroke:#181818;stroke-width:0.5;" width="117" x="728.5" y="635.17"/><ellipse cx="743.5" cy="651.17" fill="#ADD1B2" rx="11" ry="11" style="stroke:#181818;stroke-width:1.0;"/><path d="M745.9731,657.3131 Q745.3921,657.6119 744.7529,657.7613 Q744.1138,657.9107 743.4082,657.9107 Q740.9014,657.9107 739.5815,656.2589 Q738.2617,654.607 738.2617,651.4859 Q738.2617,648.3565 739.5815,646.7047 Q740.9014,645.0528 743.4082,645.0528 Q744.1138,645.0528 744.7612,645.2022 Q745.4087,645.3516 745.9731,645.6505 L745.9731,648.3731 Q745.3423,647.7921 744.7488,647.5223 Q744.1553,647.2525 743.5244,647.2525 Q742.1797,647.2525 741.4949,648.3192 Q740.8101,649.3858 740.8101,651.4859 Q740.8101,653.5777 741.4949,654.6444 Q742.1797,655.711 743.5244,655.711 Q744.1553,655.711 744.7488,655.4412 Q745.3423,655.1715 745.9731,654.5904 Z " fill="#000000"/><text fill="#000000" font-family="sans-serif" font-size="14" lengthAdjust="spacing" textLength="85" x="757.5" y="656.461">KeySituation</text><line style="stroke:#181818;stroke-width:0.5;" x1="729.5" x2="844.5" y1="667.17" y2="667.17"/><line style="stroke:#181818;stroke-width:0.5;" x1="729.5" x2="844.5" y1="675.17" y2="675.17"/></g><!--class Interval--><g id="elem_Interval"><rect fill="#F1F1F1" height="48" id="Interval" rx="2.5" ry="2.5" style="stroke:#181818;stroke-width:0.5;" width="83" x="880.5" y="635.17"/><ellipse cx="895.5" cy="651.17" fill="#ADD1B2" rx="11" ry="11" style="stroke:#181818;stroke-width:1.0;"/><path d="M897.9731,657.3131 Q897.3921,657.6119 896.7529,657.7613 Q896.1138,657.9107 895.4082,657.9107 Q892.9014,657.9107 891.5815,656.2589 Q890.2617,654.607 890.2617,651.4859 Q890.2617,648.3565 891.5815,646.7047 Q892.9014,645.0528 895.4082,645.0528 Q896.1138,645.0528 896.7612,645.2022 Q897.4087,645.3516 897.9731,645.6505 L897.9731,648.3731 Q897.3423,647.7921 896.7488,647.5223 Q896.1553,647.2525 895.5244,647.2525 Q894.1797,647.2525 893.4949,648.3192 Q892.8101,649.3858 892.8101,651.4859 Q892.8101,653.5777 893.4949,654.6444 Q894.1797,655.711 895.5244,655.711 Q896.1553,655.711 896.7488,655.4412 Q897.3423,655.1715 897.9731,654.5904 Z " fill="#000000"/><text fill="#000000" font-family="sans-serif" font-size="14" lengthAdjust="spacing" textLength="51" x="909.5" y="656.461">Interval</text><line style="stroke:#181818;stroke-width:0.5;" x1="881.5" x2="962.5" y1="667.17" y2="667.17"/><line style="stroke:#181818;stroke-width:0.5;" x1="881.5" x2="962.5" y1="675.17" y2="675.17"/></g><!--reverse link ImmediateIntervention to Intervention--><g id="link_ImmediateIntervention_Intervention"><path codeLine="13" d="M756.1944,415.4792 C780.2244,441.6092 802.01,465.3 826.03,491.42 " fill="none" id="ImmediateIntervention-backto-Intervention" style="stroke:#181818;stroke-width:1.0;"/><polygon fill="none" points="744.01,402.23,751.778,419.5406,760.6108,411.4177,744.01,402.23" style="stroke:#181818;stroke-width:1.0;"/></g><!--reverse link MechanicIntervention to Intervention--><g id="link_MechanicIntervention_Intervention"><path codeLine="14" d="M954.5519,415.4388 C930.3619,441.5688 908.37,465.3 884.18,491.42 " fill="none" id="MechanicIntervention-backto-Intervention" style="stroke:#181818;stroke-width:1.0;"/><polygon fill="none" points="966.78,402.23,950.1489,411.3628,958.9548,419.5149,966.78,402.23" style="stroke:#181818;stroke-width:1.0;"/></g><!--link Questionnaire to ImmediateIntervention--><g id="link_Questionnaire_ImmediateIntervention"><path codeLine="36" d="M715,260.93 C715,284.85 715,308.84 715,331.1 " fill="none" id="Questionnaire-to-ImmediateIntervention" style="stroke:#181818;stroke-width:1.0;"/><polygon fill="#181818" points="715,337.1,719,328.1,715,332.1,711,328.1,715,337.1" style="stroke:#181818;stroke-width:1.0;"/><text fill="#000000" font-family="sans-serif" font-size="13" lengthAdjust="spacing" textLength="70" x="716" y="304.0084">instance of</text></g><!--link AlertMessage to ImmediateIntervention--><g id="link_AlertMessage_ImmediateIntervention"><path codeLine="37" d="M176.33,254.49 C182.26,256.63 188.2,258.65 194,260.44 C340.53,305.67 510.1764,336.7956 615.5064,353.7656 " fill="none" id="AlertMessage-to-ImmediateIntervention" style="stroke:#181818;stroke-width:1.0;"/><polygon fill="#181818" points="621.43,354.72,613.1808,349.3394,616.4937,353.9247,611.9083,357.2375,621.43,354.72" style="stroke:#181818;stroke-width:1.0;"/><text fill="#000000" font-family="sans-serif" font-size="13" lengthAdjust="spacing" textLength="70" x="364.6" y="304.0084">instance of</text></g><!--link Intrinsic_Motivation_Inventory to Questionnaire--><g id="link_Intrinsic_Motivation_Inventory_Questionnaire"><path codeLine="40" d="M508.35,90.37 C543.5,112.24 599.4059,147.0197 646.0359,176.0397 " fill="none" id="Intrinsic_Motivation_Inventory-to-Questionnaire" style="stroke:#181818;stroke-width:1.0;"/><polygon fill="#181818" points="651.13,179.21,645.6024,171.0586,646.885,176.5681,641.3754,177.8506,651.13,179.21" style="stroke:#181818;stroke-width:1.0;"/><text fill="#000000" font-family="sans-serif" font-size="13" lengthAdjust="spacing" textLength="70" x="598.5" y="146.0284">instance of</text></g><!--link User_Engagement_Scale to Questionnaire--><g id="link_User_Engagement_Scale_Questionnaire"><path codeLine="43" d="M715,90.37 C715,112.24 715,144.19 715,173.21 " fill="none" id="User_Engagement_Scale-to-Questionnaire" style="stroke:#181818;stroke-width:1.0;"/><polygon fill="#181818" points="715,179.21,719,170.21,715,174.21,711,170.21,715,179.21" style="stroke:#181818;stroke-width:1.0;"/><text fill="#000000" font-family="sans-serif" font-size="13" lengthAdjust="spacing" textLength="70" x="716" y="146.0284">instance of</text></g><!--link MotivationalMessage to MechanicIntervention--><g id="link_MotivationalMessage_MechanicIntervention"><path codeLine="56" d="M936.92,260.93 C950.04,284.85 963.5963,309.5784 975.7963,331.8384 " fill="none" id="MotivationalMessage-to-MechanicIntervention" style="stroke:#181818;stroke-width:1.0;"/><polygon fill="#181818" points="978.68,337.1,977.8622,327.2852,976.2769,332.7153,970.8467,331.1301,978.68,337.1" style="stroke:#181818;stroke-width:1.0;"/><text fill="#000000" font-family="sans-serif" font-size="13" lengthAdjust="spacing" textLength="70" x="961.35" y="304.0084">instance of</text></g><!--link MotivationalMessagePM_LOW to MotivationalMessage--><g id="link_MotivationalMessagePM_LOW_MotivationalMessage"><path codeLine="61" d="M940.45,102.67 C935.62,124.73 930.2936,149.0889 925.0136,173.1989 " fill="none" id="MotivationalMessagePM_LOW-to-MotivationalMessage" style="stroke:#181818;stroke-width:1.0;"/><polygon fill="#181818" points="923.73,179.06,929.5627,171.1241,924.7996,174.1758,921.7479,169.4126,923.73,179.06" style="stroke:#181818;stroke-width:1.0;"/><text fill="#000000" font-family="sans-serif" font-size="13" lengthAdjust="spacing" textLength="70" x="934.87" y="146.0284">instance of</text></g><!--link Intervention to KeySituation--><g id="link_Intervention_KeySituation"><path codeLine="63" d="M824.33,556.38 C816.38,565.96 808.51,576.94 803,588.17 C795.8,602.83 792.711,614.8927 790.501,628.9627 " fill="none" id="Intervention-to-KeySituation" style="stroke:#181818;stroke-width:1.0;"/><polygon fill="#181818" points="789.57,634.89,794.9181,626.6197,790.3458,629.9506,787.015,625.3783,789.57,634.89" style="stroke:#181818;stroke-width:1.0;"/><text fill="#000000" font-family="sans-serif" font-size="13" lengthAdjust="spacing" textLength="76" x="804" y="601.7384">triggered by</text></g><!--link Intervention to Interval--><g id="link_Intervention_Interval"><path codeLine="64" d="M870.88,556.5 C882.95,580.51 896.5939,607.6499 907.5239,629.3799 " fill="none" id="Intervention-to-Interval" style="stroke:#181818;stroke-width:1.0;"/><polygon fill="#181818" points="910.22,634.74,909.7493,624.9024,907.9732,630.2732,902.6024,628.4972,910.22,634.74" style="stroke:#181818;stroke-width:1.0;"/><text fill="#000000" font-family="sans-serif" font-size="13" lengthAdjust="spacing" textLength="76" x="895.5" y="601.7384">triggered by</text></g><!--link GameMechanic to MechanicIntervention--><g id="link_GameMechanic_MechanicIntervention"><path codeLine="66" d="M1565.03,499.65 C1544.27,485.19 1515.75,467.4 1488,456.93 C1353.33,406.07 1204.3747,386.4417 1103.6747,377.8417 " fill="none" id="GameMechanic-to-MechanicIntervention" style="stroke:#181818;stroke-width:1.0;"/><polygon fill="none" points="1085.74,376.31,1103.1642,383.8199,1104.1853,371.8634,1085.74,376.31" style="stroke:#181818;stroke-width:1.0;"/></g><!--link MechanicIntervention to GameMechanic--><g id="link_MechanicIntervention_GameMechanic"><path codeLine="67" d="M1085.94,395.71 C1154.46,413.69 1251.44,436.81 1338,448.93 C1371.06,453.55 1456.12,447.03 1488,456.93 C1516.96,465.91 1541.2349,480.851 1561.9349,495.971 " fill="none" id="MechanicIntervention-to-GameMechanic" style="stroke:#181818;stroke-width:1.0;"/><polygon fill="#181818" points="1566.78,499.51,1561.8717,490.9714,1562.7424,496.5608,1557.153,497.4315,1566.78,499.51" style="stroke:#181818;stroke-width:1.0;"/><text fill="#000000" font-family="sans-serif" font-size="13" lengthAdjust="spacing" textLength="76" x="1339" y="445.4984">triggered by</text></g><!--SRC=[dLLDRnen4BtpAqR9iO3KMnMraQ8qgg8MzIEjSaJ67XQt_g2sbmOr-UzzzhAKXIL9YpZWyRmtCy_FPYda3r4nNRl4OSKkQUyYdVAhkPpZGxy7HDA863iP9KpqGgipqYvXyJ3O9avOBeJJyYa0RPcjPQL5uWxYI8qZoQ_lHwDkYyZjxUGWCxCwdvY2hXQ9_BoxI_I5bu4Zbf44BOrmZXK9cVHAf_MGOjAsDdKSaW-vKmvvho25jZar8JmtDJkfNKLrv40pNeYL1W1VwOrXGB2dH19Z0A_kX5qQZcVqi-QOsPpGQ698o-3jCk67rKwFAc5pa9FCA7QgJFBtB3xlebj5MyfBNxlKYejuZbeegxwYxTrpQhWk38SquHYpN_wFwa3fNSw2VAiZ55v7gjX1I9ELym5KA3AaNo8uoDH8BJ8s5iMTWim5dpnLjLOyt01BPgCPfGKtugiwPB5tpcfVlQvkez7vCT-TqObsCGad6VES0DgHwH-GWFhPT_WWsm_zHIsd4m-JbTcdrouZVLZdEP_8o5Mx4nmlzWs2JAzSXMujuDCR2LsntHj_7lFc6TXs9amhnwbKB3QlIkTgOv7u3WwwoODL6zyTsAM7iu0lo6wkEWuPrqsnqIiE4U6I5BCljiUFtxOXuXoquyOwjmkD2SkzPfeNWva2WDqoLlhij4G2FadU8LK9k6ec8ipNF3Y4SHIU1LN3kN3T78n0LrwOnhFjjSSsD4kyxxi-qRBclI_PyKFjeVaqcNxuUDjVeja3Nx- -Zo6oFjUAtj3BHnFB33spxO_mCEXCc67lUNsZKotQaM6Ggk80pMVhayFq9W1z3r87tGOQGUFu7PxGTWM6-tFg_XcEUxKVF2FdSEZUclkD_W40]--></g></svg>