<?xml version="1.0" encoding="us-ascii" standalone="no"?><svg xmlns="http://www.w3.org/2000/svg" xmlns:xlink="http://www.w3.org/1999/xlink" contentStyleType="text/css" height="302px" preserveAspectRatio="none" style="width:1645px;height:302px;background:#FFFFFF;" version="1.1" viewBox="0 0 1645 302" width="1645px" zoomAndPan="magnify"><defs/><g><text fill="#000000" font-family="sans-serif" font-size="14" font-weight="bold" lengthAdjust="spacing" textLength="185" x="723" y="23.5352">Jaime Architecture Sketch</text><!--entity user--><g id="elem_user"><ellipse cx="21.5" cy="145.7383" fill="#F1F1F1" rx="8" ry="8" style="stroke:#181818;stroke-width:0.5;"/><path d="M21.5,153.7383 L21.5,180.7383 M8.5,161.7383 L34.5,161.7383 M21.5,180.7383 L8.5,195.7383 M21.5,180.7383 L34.5,195.7383 " fill="none" style="stroke:#181818;stroke-width:0.5;"/><text fill="#000000" font-family="sans-serif" font-size="14" lengthAdjust="spacing" textLength="31" x="6" y="210.7734">User</text></g><!--entity platform--><g id="elem_platform"><rect fill="#F1F1F1" height="36.4883" rx="2.5" ry="2.5" style="stroke:#181818;stroke-width:0.5;" width="115" x="145" y="157.2383"/><text fill="#000000" font-family="sans-serif" font-size="14" lengthAdjust="spacing" textLength="95" x="155" y="180.7734">Main Platform</text></g><!--entity motivasst--><g id="elem_motivasst"><rect fill="#F1F1F1" height="36.4883" rx="2.5" ry="2.5" style="stroke:#181818;stroke-width:0.5;" width="170" x="368" y="115.2383"/><text fill="#000000" font-family="sans-serif" font-size="14" lengthAdjust="spacing" textLength="150" x="378" y="138.7734">Motivational Assistant</text></g><!--entity observer--><g id="elem_observer"><ellipse cx="453" cy="51.4883" fill="#F1F1F1" rx="8" ry="8" style="stroke:#181818;stroke-width:0.5;"/><text fill="#000000" font-family="sans-serif" font-size="14" lengthAdjust="spacing" textLength="62" x="422" y="82.0234">Observer</text></g><!--entity keysituations--><g id="elem_keysituations"><rect fill="#F1F1F1" height="36.4883" rx="2.5" ry="2.5" style="stroke:#181818;stroke-width:0.5;" width="116" x="1480.5" y="152.2383"/><text fill="#000000" font-family="sans-serif" font-size="14" lengthAdjust="spacing" textLength="96" x="1490.5" y="175.7734">Key Situations</text></g><!--entity update--><g id="elem_update"><rect fill="#F1F1F1" height="36.4883" rx="2.5" ry="2.5" style="stroke:#181818;stroke-width:0.5;" width="69" x="695" y="110.2383"/><text fill="#000000" font-family="sans-serif" font-size="14" lengthAdjust="spacing" textLength="49" x="705" y="133.7734">Update</text></g><!--entity adaptation--><g id="elem_adaptation"><rect fill="#F1F1F1" height="36.4883" rx="2.5" ry="2.5" style="stroke:#181818;stroke-width:0.5;" width="96" x="1053" y="110.2383"/><text fill="#000000" font-family="sans-serif" font-size="14" lengthAdjust="spacing" textLength="76" x="1063" y="133.7734">Adaptation</text></g><!--entity domainmodel--><g id="elem_domainmodel"><path d="M825,115.7383 C825,105.7383 884.5,105.7383 884.5,105.7383 C884.5,105.7383 944,105.7383 944,115.7383 L944,141.2266 C944,151.2266 884.5,151.2266 884.5,151.2266 C884.5,151.2266 825,151.2266 825,141.2266 L825,115.7383 " fill="#F1F1F1" style="stroke:#181818;stroke-width:0.5;"/><path d="M825,115.7383 C825,125.7383 884.5,125.7383 884.5,125.7383 C884.5,125.7383 944,125.7383 944,115.7383 " fill="none" style="stroke:#181818;stroke-width:0.5;"/><text fill="#000000" font-family="sans-serif" font-size="14" lengthAdjust="spacing" textLength="99" x="835" y="143.2734">Domain Model</text></g><g id="elem_GMN20"><path d="M1439,223.8683 L1439,295.1105 A0,0 0 0 0 1439,295.1105 L1638,295.1105 A0,0 0 0 0 1638,295.1105 L1638,233.8683 L1628,223.8683 L1542.5,223.8683 L1538.5,189.1883 L1534.5,223.8683 L1439,223.8683 A0,0 0 0 0 1439,223.8683 " fill="#FEFFDD" style="stroke:#181818;stroke-width:0.5;"/><path d="M1628,223.8683 L1628,233.8683 L1638,233.8683 L1628,223.8683 " fill="#FEFFDD" style="stroke:#181818;stroke-width:0.5;"/><text fill="#000000" font-family="sans-serif" font-size="13" lengthAdjust="spacing" textLength="84" x="1445" y="241.4366">login session</text><text fill="#000000" font-family="sans-serif" font-size="13" lengthAdjust="spacing" textLength="82" x="1445" y="256.7472">task finished</text><text fill="#000000" font-family="sans-serif" font-size="13" lengthAdjust="spacing" textLength="105" x="1445" y="272.0577">visit leaderboard</text><text fill="#000000" font-family="sans-serif" font-size="13" lengthAdjust="spacing" textLength="178" x="1445" y="287.3683">achieved challenges/badges</text></g><!--link user to platform--><g id="link_user_platform"><path d="M37.45,175.4883 C60.81,175.4883 101.17,175.4883 138.66,175.4883 " fill="none" id="user-to-platform" style="stroke:#181818;stroke-width:1.0;"/><polygon fill="#181818" points="144.66,175.4883,135.66,171.4883,139.66,175.4883,135.66,179.4883,144.66,175.4883" style="stroke:#181818;stroke-width:1.0;"/><text fill="#000000" font-family="sans-serif" font-size="13" lengthAdjust="spacing" textLength="46" x="68" y="172.0566">actions</text></g><!--link platform to observer--><g id="link_platform_observer"><path d="M240.97,156.7883 C300.63,127.0183 408.2317,73.3281 438.8217,58.0581 " fill="none" id="platform-to-observer" style="stroke:#181818;stroke-width:1.0;"/><polygon fill="#181818" points="444.19,55.3783,434.351,55.8191,439.7164,57.6114,437.924,62.9768,444.19,55.3783" style="stroke:#181818;stroke-width:1.0;"/><text fill="#000000" font-family="sans-serif" font-size="13" lengthAdjust="spacing" textLength="46" x="291" y="106.3366">actions</text></g><!--link observer to update--><g id="link_observer_update"><path d="M461.75,53.0983 C489.56,58.9383 586.79,79.9783 665,104.4883 C674.78,107.5583 679.6388,109.1835 689.1988,112.8035 " fill="none" id="observer-to-update" style="stroke:#181818;stroke-width:1.0;"/><polygon fill="#181818" points="694.81,114.9283,687.8097,108.0004,690.134,113.1577,684.9767,115.482,694.81,114.9283" style="stroke:#181818;stroke-width:1.0;"/><text fill="#000000" font-family="sans-serif" font-size="13" lengthAdjust="spacing" textLength="95" x="569" y="75.4066">relevant events</text></g><!--link platform to keysituations--><g id="link_platform_keysituations"><path d="M260.03,185.8783 C310.26,194.1983 385.76,204.4883 452,204.4883 C452,204.4883 452,204.4883 1102,204.4883 C1237.94,204.4883 1391.0629,188.5345 1474.2329,178.5345 " fill="none" id="platform-to-keysituations" style="stroke:#181818;stroke-width:1.0;"/><polygon fill="#181818" points="1480.19,177.8183,1470.7769,174.9213,1475.2258,178.4152,1471.7319,182.8641,1480.19,177.8183" style="stroke:#181818;stroke-width:1.0;"/></g><!--link adaptation to keysituations--><g id="link_adaptation_keysituations"><path d="M1149.44,133.0583 C1230.01,140.8283 1387.3377,156.002 1474.1877,164.382 " fill="none" id="adaptation-to-keysituations" style="stroke:#181818;stroke-width:1.0;"/><polygon fill="#181818" points="1480.16,164.9583,1471.5858,160.1124,1475.1831,164.4781,1470.8174,168.0754,1480.16,164.9583" style="stroke:#181818;stroke-width:1.0;"/><text fill="#000000" font-family="sans-serif" font-size="13" lengthAdjust="spacing" textLength="88" x="1250" y="118.0866">user feedback</text><text fill="#000000" font-family="sans-serif" font-size="13" lengthAdjust="spacing" textLength="228" x="1180" y="133.3972">(mensajes, activaci&#243;n de mec&#225;nicas)</text></g><!--link update to domainmodel--><g id="link_update_domainmodel"><path d="M764.46,139.6083 C782.15,141.4783 798.304,142.256 818.684,141.516 " fill="none" id="update-to-domainmodel" style="stroke:#181818;stroke-width:1.0;"/><polygon fill="#181818" points="824.68,141.2983,815.5408,137.6275,819.6833,141.4797,815.8311,145.6222,824.68,141.2983" style="stroke:#181818;stroke-width:1.0;"/></g><!--link domainmodel to update--><g id="link_domainmodel_update"><path d="M818.684,115.4606 C798.304,114.7206 788.1168,114.8675 770.4268,116.7375 " fill="none" id="domainmodel-update" style="stroke:#181818;stroke-width:1.0;"/><polygon fill="#181818" points="824.68,115.6783,815.8311,111.3543,819.6833,115.4969,815.5408,119.3491,824.68,115.6783" style="stroke:#181818;stroke-width:1.0;"/><polygon fill="#181818" points="764.46,117.3683,773.8306,120.4,769.4323,116.8427,772.9896,112.4443,764.46,117.3683" style="stroke:#181818;stroke-width:1.0;"/></g><!--link domainmodel to adaptation--><g id="link_domainmodel_adaptation"><path d="M944.4,128.4883 C978.5,128.4883 1014.86,128.4883 1046.77,128.4883 " fill="none" id="domainmodel-to-adaptation" style="stroke:#181818;stroke-width:1.0;"/><polygon fill="#181818" points="1052.77,128.4883,1043.77,124.4883,1047.77,128.4883,1043.77,132.4883,1052.77,128.4883" style="stroke:#181818;stroke-width:1.0;"/><text fill="#000000" font-family="sans-serif" font-size="13" lengthAdjust="spacing" textLength="47" x="975" y="125.0566">metrics</text></g><!--link update to adaptation--><g id="link_update_adaptation"><path d="M751.15,109.8383 C762.82,100.5683 778.22,90.3283 794,85.4883 C794.42,85.3583 794.56,85.4783 795,85.4883 C896.64,86.5083 924.53,78.2583 1023,103.4883 C1032.67,105.9683 1037.1692,107.1792 1046.9092,110.2592 " fill="none" id="update-to-adaptation" style="stroke:#181818;stroke-width:1.0;"/><polygon fill="#181818" points="1052.63,112.0683,1045.2548,105.5409,1047.8627,110.5608,1042.8428,113.1686,1052.63,112.0683" style="stroke:#181818;stroke-width:1.0;"/><text fill="#000000" font-family="sans-serif" font-size="13" lengthAdjust="spacing" textLength="47" x="861" y="81.5466">metrics</text></g><!--link motivasst to update--><g id="link_motivasst_update"><path d="M538.22,131.9483 C590.86,130.9983 649.801,129.9166 688.581,129.2166 " fill="none" id="motivasst-to-update" style="stroke:#181818;stroke-width:1.0;"/><polygon fill="#181818" points="694.58,129.1083,685.5093,125.2714,689.5808,129.1985,685.6537,133.2701,694.58,129.1083" style="stroke:#181818;stroke-width:1.0;"/><text fill="#000000" font-family="sans-serif" font-size="13" lengthAdjust="spacing" textLength="95" x="569" y="126.2666">relevant events</text></g><!--SRC=[VLFDRXGn3BxdAQnU08cAUyKYhO1BgmgaLMzSF8bd9cn-Hh5tO1-7P-0H-c8usMKwso9E4_lxyjcVdH4lWU0MVIJO5Zjw8Ik7Gh3RazZHc42zW6GeVXW5d2-A-vmCxtsQi6047j7b7puDq6DWCYjeGhl7WNPor2Br9gOXA0Ejv08FJ0MGuQ1VOnOOhkxH9_WQKFfSubMbJEVWWfN5prYRmG1RPi-AIAF71Z6BiRxOIlxIQP6PIeFpELYhtT4HTbuEJP0RRKz7NZ9hxiFaKAXn3ksu1hSE9sbt6W6Nq2WJEsJbVCgnMhpFZa9ZkPQ8DJR6l8BDPWCVSqgdONEDJHqJN5z_M8O1Du0dt2ofYl-rjyANLCLFFIjQAD2iCmEQASapbKltvid7IrIbMdCzaUjqvT_IwqY9yJlnszR2ZDO__axW22BPnr_9M-Gtvjn8rLiFO7M6zqyDN-HhUjNIZUfAyPRNcl_4pV8s_Z-Byn8-_yGu1T959wSErJQiVDUrfAptkooI8-J-sTX27dJFJFewzG48yXvwdpoFvCpibGY1K8MxZCNfRp5wBU_0ZXW2fO7uNOTEFuQIWrh9_040]--></g></svg>