<?xml version="1.0" encoding="us-ascii" standalone="no"?><svg xmlns="http://www.w3.org/2000/svg" xmlns:xlink="http://www.w3.org/1999/xlink" contentStyleType="text/css" height="2338px" preserveAspectRatio="none" style="width:2124px;height:2338px;background:#FFFFFF;" version="1.1" viewBox="0 0 2124 2338" width="2124px" zoomAndPan="magnify"><defs/><g><!--cluster Frontend--><g id="cluster_Frontend"><path d="M81.62,6 L146.62,6 A3.75,3.75 0 0 1 149.12,8.5 L156.12,28.4883 L992.62,28.4883 A2.5,2.5 0 0 1 995.12,30.9883 L995.12,867 A2.5,2.5 0 0 1 992.62,869.5 L81.62,869.5 A2.5,2.5 0 0 1 79.12,867 L79.12,8.5 A2.5,2.5 0 0 1 81.62,6 " fill="none" style="stroke:#000000;stroke-width:1.5;"/><line style="stroke:#000000;stroke-width:1.5;" x1="79.12" x2="156.12" y1="28.4883" y2="28.4883"/><text fill="#000000" font-family="sans-serif" font-size="14" font-weight="bold" lengthAdjust="spacing" textLength="64" x="83.12" y="21.5352">Frontend</text></g><!--cluster UI Layer--><g id="cluster_UI Layer"><path d="M105.62,587.52 L164.62,587.52 A3.75,3.75 0 0 1 167.12,590.02 L174.12,610.0083 L955.62,610.0083 A2.5,2.5 0 0 1 958.12,612.5083 L958.12,684.02 A2.5,2.5 0 0 1 955.62,686.52 L105.62,686.52 A2.5,2.5 0 0 1 103.12,684.02 L103.12,590.02 A2.5,2.5 0 0 1 105.62,587.52 " fill="none" style="stroke:#000000;stroke-width:1.5;"/><line style="stroke:#000000;stroke-width:1.5;" x1="103.12" x2="174.12" y1="610.0083" y2="610.0083"/><text fill="#000000" font-family="sans-serif" font-size="14" font-weight="bold" lengthAdjust="spacing" textLength="58" x="107.12" y="603.0552">UI Layer</text></g><!--cluster Event Layer--><g id="cluster_Event Layer"><path d="M549.62,735.52 L632.62,735.52 A3.75,3.75 0 0 1 635.12,738.02 L642.12,758.0083 L754.62,758.0083 A2.5,2.5 0 0 1 757.12,760.5083 L757.12,843 A2.5,2.5 0 0 1 754.62,845.5 L549.62,845.5 A2.5,2.5 0 0 1 547.12,843 L547.12,738.02 A2.5,2.5 0 0 1 549.62,735.52 " fill="#F1F1F1" style="stroke:#000000;stroke-width:1.5;"/><line style="stroke:#000000;stroke-width:1.5;" x1="547.12" x2="642.12" y1="758.0083" y2="758.0083"/><text fill="#000000" font-family="sans-serif" font-size="14" font-weight="bold" lengthAdjust="spacing" textLength="82" x="551.12" y="751.0552">Event Layer</text></g><!--cluster KeySituationLayer--><g id="cluster_KeySituationLayer"><path d="M381.62,49 L511.62,49 A3.75,3.75 0 0 1 514.12,51.5 L521.12,71.4883 L850.62,71.4883 A2.5,2.5 0 0 1 853.12,73.9883 L853.12,536.02 A2.5,2.5 0 0 1 850.62,538.52 L381.62,538.52 A2.5,2.5 0 0 1 379.12,536.02 L379.12,51.5 A2.5,2.5 0 0 1 381.62,49 " fill="#E8FAFF" style="stroke:#000000;stroke-width:1.5;"/><line style="stroke:#000000;stroke-width:1.5;" x1="379.12" x2="521.12" y1="71.4883" y2="71.4883"/><text fill="#000000" font-family="sans-serif" font-size="14" font-weight="bold" lengthAdjust="spacing" textLength="129" x="383.12" y="64.5352">KeySituationLayer</text></g><!--cluster Backend--><g id="cluster_Backend"><path d="M94.62,918.5 L154.62,918.5 A3.75,3.75 0 0 1 157.12,921 L164.12,940.9883 L1635.62,940.9883 A2.5,2.5 0 0 1 1638.12,943.4883 L1638.12,2328.89 A2.5,2.5 0 0 1 1635.62,2331.39 L94.62,2331.39 A2.5,2.5 0 0 1 92.12,2328.89 L92.12,921 A2.5,2.5 0 0 1 94.62,918.5 " fill="none" style="stroke:#000000;stroke-width:1.5;"/><line style="stroke:#000000;stroke-width:1.5;" x1="92.12" x2="164.12" y1="940.9883" y2="940.9883"/><text fill="#000000" font-family="sans-serif" font-size="14" font-weight="bold" lengthAdjust="spacing" textLength="59" x="96.12" y="934.0352">Backend</text></g><!--cluster DB--><g id="cluster_DB"><path d="M1670.12,1639.62 C1670.12,1629.62 1883.62,1629.62 1883.62,1629.62 C1883.62,1629.62 2097.12,1629.62 2097.12,1639.62 L2097.12,2056 C2097.12,2066 1883.62,2066 1883.62,2066 C1883.62,2066 1670.12,2066 1670.12,2056 L1670.12,1639.62 " fill="#D9D9D9" style="stroke:#181818;stroke-width:1.0;"/><path d="M1670.12,1639.62 C1670.12,1649.62 1883.62,1649.62 1883.62,1649.62 C1883.62,1649.62 2097.12,1649.62 2097.12,1639.62 " fill="none" style="stroke:#181818;stroke-width:1.0;"/><text fill="#000000" font-family="sans-serif" font-size="14" font-weight="bold" lengthAdjust="spacing" textLength="107" x="1830.12" y="1665.1552">Application DB</text></g><!--class HomeScreen--><g id="elem_HomeScreen"><rect codeLine="12" fill="#FFFFFF" height="48" id="HomeScreen" rx="2.5" ry="2.5" style="stroke:#181818;stroke-width:0.5;" width="118" x="607.12" y="622.52"/><ellipse cx="622.12" cy="638.52" fill="#ADD1B2" rx="11" ry="11" style="stroke:#181818;stroke-width:1.0;"/><path d="M624.5931,644.6631 Q624.0121,644.9619 623.3729,645.1113 Q622.7338,645.2607 622.0282,645.2607 Q619.5214,645.2607 618.2015,643.6089 Q616.8817,641.957 616.8817,638.8359 Q616.8817,635.7065 618.2015,634.0547 Q619.5214,632.4028 622.0282,632.4028 Q622.7338,632.4028 623.3812,632.5522 Q624.0287,632.7016 624.5931,633.0005 L624.5931,635.7231 Q623.9623,635.1421 623.3688,634.8723 Q622.7753,634.6025 622.1444,634.6025 Q620.7997,634.6025 620.1149,635.6692 Q619.4301,636.7358 619.4301,638.8359 Q619.4301,640.9277 620.1149,641.9944 Q620.7997,643.061 622.1444,643.061 Q622.7753,643.061 623.3688,642.7912 Q623.9623,642.5215 624.5931,641.9404 Z " fill="#000000"/><text fill="#000000" font-family="sans-serif" font-size="14" lengthAdjust="spacing" textLength="86" x="636.12" y="643.811">HomeScreen</text><line style="stroke:#181818;stroke-width:0.5;" x1="608.12" x2="724.12" y1="654.52" y2="654.52"/><line style="stroke:#181818;stroke-width:0.5;" x1="608.12" x2="724.12" y1="662.52" y2="662.52"/></g><!--class OtherScreens--><g id="elem_OtherScreens"><rect codeLine="13" fill="#FFFFFF" height="48" id="OtherScreens" rx="2.5" ry="2.5" style="stroke:#181818;stroke-width:0.5;" width="124" x="448.12" y="622.52"/><ellipse cx="463.12" cy="638.52" fill="#ADD1B2" rx="11" ry="11" style="stroke:#181818;stroke-width:1.0;"/><path d="M465.5931,644.6631 Q465.0121,644.9619 464.3729,645.1113 Q463.7338,645.2607 463.0282,645.2607 Q460.5214,645.2607 459.2015,643.6089 Q457.8817,641.957 457.8817,638.8359 Q457.8817,635.7065 459.2015,634.0547 Q460.5214,632.4028 463.0282,632.4028 Q463.7338,632.4028 464.3812,632.5522 Q465.0287,632.7016 465.5931,633.0005 L465.5931,635.7231 Q464.9623,635.1421 464.3688,634.8723 Q463.7753,634.6025 463.1444,634.6025 Q461.7997,634.6025 461.1149,635.6692 Q460.4301,636.7358 460.4301,638.8359 Q460.4301,640.9277 461.1149,641.9944 Q461.7997,643.061 463.1444,643.061 Q463.7753,643.061 464.3688,642.7912 Q464.9623,642.5215 465.5931,641.9404 Z " fill="#000000"/><text fill="#000000" font-family="sans-serif" font-size="14" lengthAdjust="spacing" textLength="92" x="477.12" y="643.811">OtherScreens</text><line style="stroke:#181818;stroke-width:0.5;" x1="449.12" x2="571.12" y1="654.52" y2="654.52"/><line style="stroke:#181818;stroke-width:0.5;" x1="449.12" x2="571.12" y1="662.52" y2="662.52"/></g><!--class GlobalModal--><g id="elem_GlobalModal"><rect codeLine="14" fill="#FFFFFF" height="48" id="GlobalModal" rx="2.5" ry="2.5" style="stroke:#181818;stroke-width:0.5;" width="181" x="760.62" y="622.52"/><ellipse cx="775.62" cy="638.52" fill="#ADD1B2" rx="11" ry="11" style="stroke:#181818;stroke-width:1.0;"/><path d="M778.0931,644.6631 Q777.5121,644.9619 776.8729,645.1113 Q776.2338,645.2607 775.5282,645.2607 Q773.0214,645.2607 771.7015,643.6089 Q770.3817,641.957 770.3817,638.8359 Q770.3817,635.7065 771.7015,634.0547 Q773.0214,632.4028 775.5282,632.4028 Q776.2338,632.4028 776.8812,632.5522 Q777.5287,632.7016 778.0931,633.0005 L778.0931,635.7231 Q777.4623,635.1421 776.8688,634.8723 Q776.2753,634.6025 775.6444,634.6025 Q774.2997,634.6025 773.6149,635.6692 Q772.9301,636.7358 772.9301,638.8359 Q772.9301,640.9277 773.6149,641.9944 Q774.2997,643.061 775.6444,643.061 Q776.2753,643.061 776.8688,642.7912 Q777.4623,642.5215 778.0931,641.9404 Z " fill="#000000"/><text fill="#000000" font-family="sans-serif" font-size="14" lengthAdjust="spacing" textLength="149" x="789.62" y="643.811">Global Modal (Layout)</text><line style="stroke:#181818;stroke-width:0.5;" x1="761.62" x2="940.62" y1="654.52" y2="654.52"/><line style="stroke:#181818;stroke-width:0.5;" x1="761.62" x2="940.62" y1="662.52" y2="662.52"/></g><!--class OtherUI--><g id="elem_OtherUI"><rect codeLine="15" fill="#FFFFFF" height="48" id="OtherUI" rx="2.5" ry="2.5" style="stroke:#181818;stroke-width:0.5;" width="294" x="119.12" y="622.52"/><ellipse cx="134.12" cy="638.52" fill="#ADD1B2" rx="11" ry="11" style="stroke:#181818;stroke-width:1.0;"/><path d="M136.5931,644.6631 Q136.0121,644.9619 135.3729,645.1113 Q134.7338,645.2607 134.0282,645.2607 Q131.5214,645.2607 130.2015,643.6089 Q128.8817,641.957 128.8817,638.8359 Q128.8817,635.7065 130.2015,634.0547 Q131.5214,632.4028 134.0282,632.4028 Q134.7338,632.4028 135.3812,632.5522 Q136.0287,632.7016 136.5931,633.0005 L136.5931,635.7231 Q135.9623,635.1421 135.3688,634.8723 Q134.7753,634.6025 134.1444,634.6025 Q132.7997,634.6025 132.1149,635.6692 Q131.4301,636.7358 131.4301,638.8359 Q131.4301,640.9277 132.1149,641.9944 Q132.7997,643.061 134.1444,643.061 Q134.7753,643.061 135.3688,642.7912 Q135.9623,642.5215 136.5931,641.9404 Z " fill="#000000"/><text fill="#000000" font-family="sans-serif" font-size="14" lengthAdjust="spacing" textLength="262" x="148.12" y="643.811">Other UI (banners/animations/games)</text><line style="stroke:#181818;stroke-width:0.5;" x1="120.12" x2="412.12" y1="654.52" y2="654.52"/><line style="stroke:#181818;stroke-width:0.5;" x1="120.12" x2="412.12" y1="662.52" y2="662.52"/></g><!--class EventBus--><g id="elem_EventBus"><rect codeLine="19" fill="#CCCCCC" height="58.9766" id="EventBus" rx="2.5" ry="2.5" style="stroke:#181818;stroke-width:0.5;" width="179" x="562.62" y="770.52"/><ellipse cx="577.62" cy="792.0083" fill="#ADD1B2" rx="11" ry="11" style="stroke:#181818;stroke-width:1.0;"/><path d="M580.0931,798.1513 Q579.5121,798.4502 578.8729,798.5996 Q578.2338,798.749 577.5282,798.749 Q575.0214,798.749 573.7015,797.0971 Q572.3817,795.4453 572.3817,792.3242 Q572.3817,789.1948 573.7015,787.5429 Q575.0214,785.8911 577.5282,785.8911 Q578.2338,785.8911 578.8812,786.0405 Q579.5287,786.1899 580.0931,786.4888 L580.0931,789.2114 Q579.4623,788.6304 578.8688,788.3606 Q578.2753,788.0908 577.6444,788.0908 Q576.2997,788.0908 575.6149,789.1575 Q574.9301,790.2241 574.9301,792.3242 Q574.9301,794.416 575.6149,795.4826 Q576.2997,796.5493 577.6444,796.5493 Q578.2753,796.5493 578.8688,796.2795 Q579.4623,796.0097 580.0931,795.4287 Z " fill="#000000"/><text fill="#000000" font-family="sans-serif" font-size="14" lengthAdjust="spacing" textLength="61" x="634.62" y="789.0552">EventBus</text><text fill="#000000" font-family="sans-serif" font-size="14" lengthAdjust="spacing" textLength="147" x="591.62" y="805.5434">(emitEvent / onEvent)</text><line style="stroke:#181818;stroke-width:0.5;" x1="563.62" x2="740.62" y1="813.4966" y2="813.4966"/><line style="stroke:#181818;stroke-width:0.5;" x1="563.62" x2="740.62" y1="821.4966" y2="821.4966"/></g><!--class KeySituationEngine--><g id="elem_KeySituationEngine"><rect codeLine="23" fill="#BBF0FF" height="106.0859" id="KeySituationEngine" rx="2.5" ry="2.5" style="stroke:#000000;stroke-width:2.0;" width="237" x="569.62" y="84"/><ellipse cx="617.87" cy="104.3105" fill="#ADD1B2" rx="11" ry="11" style="stroke:#181818;stroke-width:1.0;"/><path d="M620.3431,110.4536 Q619.7621,110.7524 619.1229,110.9019 Q618.4838,111.0513 617.7782,111.0513 Q615.2714,111.0513 613.9515,109.3994 Q612.6317,107.7476 612.6317,104.6265 Q612.6317,101.4971 613.9515,99.8452 Q615.2714,98.1934 617.7782,98.1934 Q618.4838,98.1934 619.1312,98.3428 Q619.7787,98.4922 620.3431,98.791 L620.3431,101.5137 Q619.7123,100.9326 619.1188,100.6628 Q618.5253,100.3931 617.8944,100.3931 Q616.5497,100.3931 615.8649,101.4597 Q615.1801,102.5264 615.1801,104.6265 Q615.1801,106.7183 615.8649,107.7849 Q616.5497,108.8516 617.8944,108.8516 Q618.5253,108.8516 619.1188,108.5818 Q619.7123,108.312 620.3431,107.731 Z " fill="#000000"/><text fill="#000000" font-family="sans-serif" font-size="12" font-style="italic" lengthAdjust="spacing" textLength="50" x="679.37" y="100.6016">&#171;engine&#187;</text><text fill="#000000" font-family="sans-serif" font-size="14" lengthAdjust="spacing" textLength="132" x="638.37" y="116.668">KeySituationEngine</text><line style="stroke:#000000;stroke-width:2.0;" x1="570.62" x2="805.62" y1="124.6211" y2="124.6211"/><rect fill="none" height="6" style="stroke:#C82930;stroke-width:1.0;" width="6" x="577.62" y="135.3652"/><text fill="#000000" font-family="sans-serif" font-size="14" lengthAdjust="spacing" textLength="131" x="589.62" y="142.1563">initialized: boolean</text><line style="stroke:#000000;stroke-width:2.0;" x1="570.62" x2="805.62" y1="149.1094" y2="149.1094"/><text fill="#000000" font-family="sans-serif" font-size="14" lengthAdjust="spacing" textLength="211" x="589.62" y="166.6445">subscribers: Array&lt;(onEvent)&gt;</text><ellipse cx="580.62" cy="179.3418" fill="#84BE84" rx="3" ry="3" style="stroke:#038048;stroke-width:1.0;"/><text fill="#000000" font-family="sans-serif" font-size="14" lengthAdjust="spacing" textLength="87" x="589.62" y="183.1328">doInit(): void</text></g><!--class VisitHomeFirstTimePerDay--><g id="elem_VisitHomeFirstTimePerDay"><rect codeLine="29" fill="#BBF0FF" height="80.9766" id="VisitHomeFirstTimePerDay" rx="2.5" ry="2.5" style="stroke:#181818;stroke-width:0.5;" width="296" x="499.12" y="267.08"/><ellipse cx="552.87" cy="283.08" fill="#ADD1B2" rx="11" ry="11" style="stroke:#181818;stroke-width:1.0;"/><path d="M555.3431,289.2231 Q554.7621,289.5219 554.1229,289.6713 Q553.4838,289.8207 552.7782,289.8207 Q550.2714,289.8207 548.9515,288.1689 Q547.6317,286.517 547.6317,283.3959 Q547.6317,280.2665 548.9515,278.6147 Q550.2714,276.9628 552.7782,276.9628 Q553.4838,276.9628 554.1312,277.1122 Q554.7787,277.2616 555.3431,277.5605 L555.3431,280.2831 Q554.7123,279.7021 554.1188,279.4323 Q553.5253,279.1625 552.8944,279.1625 Q551.5497,279.1625 550.8649,280.2292 Q550.1801,281.2958 550.1801,283.3959 Q550.1801,285.4877 550.8649,286.5544 Q551.5497,287.621 552.8944,287.621 Q553.5253,287.621 554.1188,287.3512 Q554.7123,287.0815 555.3431,286.5004 Z " fill="#000000"/><text fill="#000000" font-family="sans-serif" font-size="14" lengthAdjust="spacing" textLength="180" x="573.37" y="288.371">VisitHomeFirstTimePerDay</text><line style="stroke:#181818;stroke-width:0.5;" x1="500.12" x2="794.12" y1="299.08" y2="299.08"/><line style="stroke:#181818;stroke-width:0.5;" x1="500.12" x2="794.12" y1="307.08" y2="307.08"/><ellipse cx="510.12" cy="320.8241" fill="#84BE84" rx="3" ry="3" style="stroke:#038048;stroke-width:1.0;"/><text fill="#000000" font-family="sans-serif" font-size="14" lengthAdjust="spacing" textLength="270" x="519.12" y="324.6152">onEvaluate(e: ScreenViewedEvent): void</text><ellipse cx="510.12" cy="337.3124" fill="#84BE84" rx="3" ry="3" style="stroke:#038048;stroke-width:1.0;"/><text fill="#000000" font-family="sans-serif" font-size="14" lengthAdjust="spacing" textLength="57" x="519.12" y="341.1034">emitKS()</text></g><!--class KeySituationBus--><g id="elem_KeySituationBus"><rect codeLine="34" fill="#BBF0FF" height="97.4648" id="KeySituationBus" rx="2.5" ry="2.5" style="stroke:#181818;stroke-width:0.5;" width="442" x="395.12" y="425.06"/><ellipse cx="557.37" cy="441.06" fill="#ADD1B2" rx="11" ry="11" style="stroke:#181818;stroke-width:1.0;"/><path d="M559.8431,447.2031 Q559.2621,447.5019 558.6229,447.6513 Q557.9838,447.8007 557.2782,447.8007 Q554.7714,447.8007 553.4515,446.1489 Q552.1317,444.497 552.1317,441.3759 Q552.1317,438.2465 553.4515,436.5947 Q554.7714,434.9428 557.2782,434.9428 Q557.9838,434.9428 558.6312,435.0922 Q559.2787,435.2416 559.8431,435.5405 L559.8431,438.2631 Q559.2123,437.6821 558.6188,437.4123 Q558.0253,437.1425 557.3944,437.1425 Q556.0497,437.1425 555.3649,438.2092 Q554.6801,439.2758 554.6801,441.3759 Q554.6801,443.4677 555.3649,444.5344 Q556.0497,445.601 557.3944,445.601 Q558.0253,445.601 558.6188,445.3312 Q559.2123,445.0615 559.8431,444.4804 Z " fill="#000000"/><text fill="#000000" font-family="sans-serif" font-size="14" lengthAdjust="spacing" textLength="109" x="577.87" y="446.351">KeySituationBus</text><line style="stroke:#181818;stroke-width:0.5;" x1="396.12" x2="836.12" y1="457.06" y2="457.06"/><line style="stroke:#181818;stroke-width:0.5;" x1="396.12" x2="836.12" y1="465.06" y2="465.06"/><ellipse cx="406.12" cy="478.8041" fill="#84BE84" rx="3" ry="3" style="stroke:#038048;stroke-width:1.0;"/><text fill="#000000" font-family="sans-serif" font-size="14" lengthAdjust="spacing" textLength="416" x="415.12" y="482.5952">listeners = new Map&lt;string, Set&lt;(payload: any) =&gt; void&gt;&gt;()</text><ellipse cx="406.12" cy="495.2924" fill="#84BE84" rx="3" ry="3" style="stroke:#038048;stroke-width:1.0;"/><text fill="#000000" font-family="sans-serif" font-size="14" lengthAdjust="spacing" textLength="57" x="415.12" y="499.0834">emitKS()</text><ellipse cx="406.12" cy="511.7807" fill="#84BE84" rx="3" ry="3" style="stroke:#038048;stroke-width:1.0;"/><text fill="#000000" font-family="sans-serif" font-size="14" lengthAdjust="spacing" textLength="45" x="415.12" y="515.5717">onKS()</text></g><!--class KeySituationRoute--><g id="elem_KeySituationRoute"><rect codeLine="51" fill="#BBF0FF" height="64.4883" id="KeySituationRoute" rx="2.5" ry="2.5" style="stroke:#181818;stroke-width:0.5;" width="205" x="797.62" y="953.5"/><ellipse cx="834.22" cy="969.5" fill="#ADD1B2" rx="11" ry="11" style="stroke:#181818;stroke-width:1.0;"/><path d="M836.6931,975.6431 Q836.1121,975.9419 835.4729,976.0913 Q834.8338,976.2407 834.1282,976.2407 Q831.6214,976.2407 830.3015,974.5889 Q828.9817,972.937 828.9817,969.8159 Q828.9817,966.6865 830.3015,965.0347 Q831.6214,963.3828 834.1282,963.3828 Q834.8338,963.3828 835.4812,963.5322 Q836.1287,963.6816 836.6931,963.9805 L836.6931,966.7031 Q836.0623,966.1221 835.4688,965.8523 Q834.8753,965.5825 834.2444,965.5825 Q832.8997,965.5825 832.2149,966.6492 Q831.5301,967.7158 831.5301,969.8159 Q831.5301,971.9077 832.2149,972.9744 Q832.8997,974.041 834.2444,974.041 Q834.8753,974.041 835.4688,973.7712 Q836.0623,973.5015 836.6931,972.9204 Z " fill="#000000"/><text fill="#000000" font-family="sans-serif" font-size="14" lengthAdjust="spacing" textLength="125" x="853.02" y="974.791">KeySituationRoute</text><line style="stroke:#181818;stroke-width:0.5;" x1="798.62" x2="1001.62" y1="985.5" y2="985.5"/><line style="stroke:#181818;stroke-width:0.5;" x1="798.62" x2="1001.62" y1="993.5" y2="993.5"/><ellipse cx="808.62" cy="1007.2441" fill="#84BE84" rx="3" ry="3" style="stroke:#038048;stroke-width:1.0;"/><text fill="#000000" font-family="sans-serif" font-size="14" lengthAdjust="spacing" textLength="179" x="817.62" y="1011.0352">"POST /key-situations/*"()</text></g><!--class EventRoute--><g id="elem_EventRoute"><rect codeLine="55" fill="#CCCCCC" height="64.4883" id="EventRoute" rx="2.5" ry="2.5" style="stroke:#181818;stroke-width:0.5;" width="151" x="131.62" y="953.5"/><ellipse cx="165.52" cy="969.5" fill="#ADD1B2" rx="11" ry="11" style="stroke:#181818;stroke-width:1.0;"/><path d="M167.9931,975.6431 Q167.4121,975.9419 166.7729,976.0913 Q166.1338,976.2407 165.4282,976.2407 Q162.9214,976.2407 161.6015,974.5889 Q160.2817,972.937 160.2817,969.8159 Q160.2817,966.6865 161.6015,965.0347 Q162.9214,963.3828 165.4282,963.3828 Q166.1338,963.3828 166.7812,963.5322 Q167.4287,963.6816 167.9931,963.9805 L167.9931,966.7031 Q167.3623,966.1221 166.7688,965.8523 Q166.1753,965.5825 165.5444,965.5825 Q164.1997,965.5825 163.5149,966.6492 Q162.8301,967.7158 162.8301,969.8159 Q162.8301,971.9077 163.5149,972.9744 Q164.1997,974.041 165.5444,974.041 Q166.1753,974.041 166.7688,973.7712 Q167.3623,973.5015 167.9931,972.9204 Z " fill="#000000"/><text fill="#000000" font-family="sans-serif" font-size="14" lengthAdjust="spacing" textLength="77" x="183.72" y="974.791">EventRoute</text><line style="stroke:#181818;stroke-width:0.5;" x1="132.62" x2="281.62" y1="985.5" y2="985.5"/><line style="stroke:#181818;stroke-width:0.5;" x1="132.62" x2="281.62" y1="993.5" y2="993.5"/><ellipse cx="142.62" cy="1007.2441" fill="#84BE84" rx="3" ry="3" style="stroke:#038048;stroke-width:1.0;"/><text fill="#000000" font-family="sans-serif" font-size="14" lengthAdjust="spacing" textLength="125" x="151.62" y="1011.0352">"POST /events/*"()</text></g><!--class MetricRoute--><g id="elem_MetricRoute"><rect codeLine="59" fill="#FDA5A5" height="64.4883" id="MetricRoute" rx="2.5" ry="2.5" style="stroke:#181818;stroke-width:0.5;" width="141" x="621.62" y="953.5"/><ellipse cx="648.77" cy="969.5" fill="#ADD1B2" rx="11" ry="11" style="stroke:#181818;stroke-width:1.0;"/><path d="M651.2431,975.6431 Q650.6621,975.9419 650.0229,976.0913 Q649.3838,976.2407 648.6782,976.2407 Q646.1714,976.2407 644.8515,974.5889 Q643.5317,972.937 643.5317,969.8159 Q643.5317,966.6865 644.8515,965.0347 Q646.1714,963.3828 648.6782,963.3828 Q649.3838,963.3828 650.0312,963.5322 Q650.6787,963.6816 651.2431,963.9805 L651.2431,966.7031 Q650.6123,966.1221 650.0188,965.8523 Q649.4253,965.5825 648.7944,965.5825 Q647.4497,965.5825 646.7649,966.6492 Q646.0801,967.7158 646.0801,969.8159 Q646.0801,971.9077 646.7649,972.9744 Q647.4497,974.041 648.7944,974.041 Q649.4253,974.041 650.0188,973.7712 Q650.6123,973.5015 651.2431,972.9204 Z " fill="#000000"/><text fill="#000000" font-family="sans-serif" font-size="14" lengthAdjust="spacing" textLength="82" x="665.47" y="974.791">MetricRoute</text><line style="stroke:#181818;stroke-width:0.5;" x1="622.62" x2="761.62" y1="985.5" y2="985.5"/><line style="stroke:#181818;stroke-width:0.5;" x1="622.62" x2="761.62" y1="993.5" y2="993.5"/><ellipse cx="632.62" cy="1007.2441" fill="#84BE84" rx="3" ry="3" style="stroke:#038048;stroke-width:1.0;"/><text fill="#000000" font-family="sans-serif" font-size="14" lengthAdjust="spacing" textLength="115" x="641.62" y="1011.0352">"GET /metric/*"()</text></g><!--class AssistantActionRoute--><g id="elem_AssistantActionRoute"><rect codeLine="63" fill="#CACAFF" height="64.4883" id="AssistantActionRoute" rx="2.5" ry="2.5" style="stroke:#181818;stroke-width:0.5;" width="270" x="317.12" y="953.5"/><ellipse cx="374.87" cy="969.5" fill="#ADD1B2" rx="11" ry="11" style="stroke:#181818;stroke-width:1.0;"/><path d="M377.3431,975.6431 Q376.7621,975.9419 376.1229,976.0913 Q375.4838,976.2407 374.7782,976.2407 Q372.2714,976.2407 370.9515,974.5889 Q369.6317,972.937 369.6317,969.8159 Q369.6317,966.6865 370.9515,965.0347 Q372.2714,963.3828 374.7782,963.3828 Q375.4838,963.3828 376.1312,963.5322 Q376.7787,963.6816 377.3431,963.9805 L377.3431,966.7031 Q376.7123,966.1221 376.1188,965.8523 Q375.5253,965.5825 374.8944,965.5825 Q373.5497,965.5825 372.8649,966.6492 Q372.1801,967.7158 372.1801,969.8159 Q372.1801,971.9077 372.8649,972.9744 Q373.5497,974.041 374.8944,974.041 Q375.5253,974.041 376.1188,973.7712 Q376.7123,973.5015 377.3431,972.9204 Z " fill="#000000"/><text fill="#000000" font-family="sans-serif" font-size="14" lengthAdjust="spacing" textLength="146" x="395.37" y="974.791">AssistantActionRoute</text><line style="stroke:#181818;stroke-width:0.5;" x1="318.12" x2="586.12" y1="985.5" y2="985.5"/><ellipse cx="328.12" cy="999.2441" fill="none" rx="3" ry="3" style="stroke:#038048;stroke-width:1.0;"/><text fill="#000000" font-family="sans-serif" font-size="14" lengthAdjust="spacing" textLength="244" x="337.12" y="1003.0352">"GET /getAssistantActions/:userId/"</text><line style="stroke:#181818;stroke-width:0.5;" x1="318.12" x2="586.12" y1="1009.9883" y2="1009.9883"/></g><!--class MotivationalMechanicRoute--><g id="elem_MotivationalMechanicRoute"><rect codeLine="67" fill="#FFE3B6" height="64.4883" id="MotivationalMechanicRoute" rx="2.5" ry="2.5" style="stroke:#181818;stroke-width:0.5;" width="349" x="1087.62" y="1124.03"/><ellipse cx="1163.87" cy="1140.03" fill="#ADD1B2" rx="11" ry="11" style="stroke:#181818;stroke-width:1.0;"/><path d="M1166.3431,1146.1731 Q1165.7621,1146.4719 1165.1229,1146.6213 Q1164.4838,1146.7707 1163.7782,1146.7707 Q1161.2714,1146.7707 1159.9515,1145.1189 Q1158.6317,1143.467 1158.6317,1140.3459 Q1158.6317,1137.2165 1159.9515,1135.5647 Q1161.2714,1133.9128 1163.7782,1133.9128 Q1164.4838,1133.9128 1165.1312,1134.0622 Q1165.7787,1134.2116 1166.3431,1134.5105 L1166.3431,1137.2331 Q1165.7123,1136.6521 1165.1188,1136.3823 Q1164.5253,1136.1125 1163.8944,1136.1125 Q1162.5497,1136.1125 1161.8649,1137.1792 Q1161.1801,1138.2458 1161.1801,1140.3459 Q1161.1801,1142.4377 1161.8649,1143.5044 Q1162.5497,1144.571 1163.8944,1144.571 Q1164.5253,1144.571 1165.1188,1144.3012 Q1165.7123,1144.0315 1166.3431,1143.4504 Z " fill="#000000"/><text fill="#000000" font-family="sans-serif" font-size="14" lengthAdjust="spacing" textLength="188" x="1184.37" y="1145.321">MotivationalMechanicRoute</text><line style="stroke:#181818;stroke-width:0.5;" x1="1088.62" x2="1435.62" y1="1156.03" y2="1156.03"/><ellipse cx="1098.62" cy="1169.7741" fill="none" rx="3" ry="3" style="stroke:#038048;stroke-width:1.0;"/><text fill="#000000" font-family="sans-serif" font-size="14" lengthAdjust="spacing" textLength="323" x="1107.62" y="1173.5652">"GET /getWeightedMechanicsForPlayer/:userId"</text><line style="stroke:#181818;stroke-width:0.5;" x1="1088.62" x2="1435.62" y1="1180.5183" y2="1180.5183"/></g><!--class MetricQueries--><g id="elem_MetricQueries"><rect codeLine="71" fill="#FDA5A5" height="64.4883" id="MetricQueries" rx="2.5" ry="2.5" style="stroke:#181818;stroke-width:0.5;" width="155" x="1039.62" y="1307.12"/><ellipse cx="1067.22" cy="1323.12" fill="#ADD1B2" rx="11" ry="11" style="stroke:#181818;stroke-width:1.0;"/><path d="M1069.6931,1329.2631 Q1069.1121,1329.5619 1068.4729,1329.7113 Q1067.8338,1329.8607 1067.1282,1329.8607 Q1064.6214,1329.8607 1063.3015,1328.2089 Q1061.9817,1326.557 1061.9817,1323.4359 Q1061.9817,1320.3065 1063.3015,1318.6547 Q1064.6214,1317.0028 1067.1282,1317.0028 Q1067.8338,1317.0028 1068.4812,1317.1522 Q1069.1287,1317.3016 1069.6931,1317.6005 L1069.6931,1320.3231 Q1069.0623,1319.7421 1068.4688,1319.4723 Q1067.8753,1319.2025 1067.2444,1319.2025 Q1065.8997,1319.2025 1065.2149,1320.2692 Q1064.5301,1321.3358 1064.5301,1323.4359 Q1064.5301,1325.5277 1065.2149,1326.5944 Q1065.8997,1327.661 1067.2444,1327.661 Q1067.8753,1327.661 1068.4688,1327.3912 Q1069.0623,1327.1215 1069.6931,1326.5404 Z " fill="#000000"/><text fill="#000000" font-family="sans-serif" font-size="14" lengthAdjust="spacing" textLength="95" x="1084.02" y="1328.411">MetricQueries</text><line style="stroke:#181818;stroke-width:0.5;" x1="1040.62" x2="1193.62" y1="1339.12" y2="1339.12"/><line style="stroke:#181818;stroke-width:0.5;" x1="1040.62" x2="1193.62" y1="1347.12" y2="1347.12"/><ellipse cx="1050.62" cy="1360.8641" fill="#84BE84" rx="3" ry="3" style="stroke:#038048;stroke-width:1.0;"/><text fill="#000000" font-family="sans-serif" font-size="14" lengthAdjust="spacing" textLength="129" x="1059.62" y="1364.6552">getMetric(MetricId)</text></g><!--class Usertraits--><g id="elem_Usertraits"><rect codeLine="75" fill="#EAF797" height="64.4883" id="Usertraits" rx="2.5" ry="2.5" style="stroke:#181818;stroke-width:0.5;" width="171" x="1037.62" y="953.5"/><ellipse cx="1085.87" cy="969.5" fill="#ADD1B2" rx="11" ry="11" style="stroke:#181818;stroke-width:1.0;"/><path d="M1088.3431,975.6431 Q1087.7621,975.9419 1087.1229,976.0913 Q1086.4838,976.2407 1085.7782,976.2407 Q1083.2714,976.2407 1081.9515,974.5889 Q1080.6317,972.937 1080.6317,969.8159 Q1080.6317,966.6865 1081.9515,965.0347 Q1083.2714,963.3828 1085.7782,963.3828 Q1086.4838,963.3828 1087.1312,963.5322 Q1087.7787,963.6816 1088.3431,963.9805 L1088.3431,966.7031 Q1087.7123,966.1221 1087.1188,965.8523 Q1086.5253,965.5825 1085.8944,965.5825 Q1084.5497,965.5825 1083.8649,966.6492 Q1083.1801,967.7158 1083.1801,969.8159 Q1083.1801,971.9077 1083.8649,972.9744 Q1084.5497,974.041 1085.8944,974.041 Q1086.5253,974.041 1087.1188,973.7712 Q1087.7123,973.5015 1088.3431,972.9204 Z " fill="#000000"/><text fill="#000000" font-family="sans-serif" font-size="14" lengthAdjust="spacing" textLength="66" x="1106.37" y="974.791">Usertraits</text><line style="stroke:#181818;stroke-width:0.5;" x1="1038.62" x2="1207.62" y1="985.5" y2="985.5"/><line style="stroke:#181818;stroke-width:0.5;" x1="1038.62" x2="1207.62" y1="993.5" y2="993.5"/><ellipse cx="1048.62" cy="1007.2441" fill="#84BE84" rx="3" ry="3" style="stroke:#038048;stroke-width:1.0;"/><text fill="#000000" font-family="sans-serif" font-size="14" lengthAdjust="spacing" textLength="145" x="1057.62" y="1011.0352">"GET /user-traits/*"()</text></g><!--class UserTraitQueries--><g id="elem_UserTraitQueries"><rect codeLine="79" fill="#EAF797" height="64.4883" id="UserTraitQueries" rx="2.5" ry="2.5" style="stroke:#181818;stroke-width:0.5;" width="245" x="574.62" y="1477.65"/><ellipse cx="634.87" cy="1493.65" fill="#ADD1B2" rx="11" ry="11" style="stroke:#181818;stroke-width:1.0;"/><path d="M637.3431,1499.7931 Q636.7621,1500.0919 636.1229,1500.2413 Q635.4838,1500.3907 634.7782,1500.3907 Q632.2714,1500.3907 630.9515,1498.7389 Q629.6317,1497.087 629.6317,1493.9659 Q629.6317,1490.8365 630.9515,1489.1847 Q632.2714,1487.5328 634.7782,1487.5328 Q635.4838,1487.5328 636.1312,1487.6822 Q636.7787,1487.8316 637.3431,1488.1305 L637.3431,1490.8531 Q636.7123,1490.2721 636.1188,1490.0023 Q635.5253,1489.7325 634.8944,1489.7325 Q633.5497,1489.7325 632.8649,1490.7992 Q632.1801,1491.8658 632.1801,1493.9659 Q632.1801,1496.0577 632.8649,1497.1244 Q633.5497,1498.191 634.8944,1498.191 Q635.5253,1498.191 636.1188,1497.9212 Q636.7123,1497.6515 637.3431,1497.0704 Z " fill="#000000"/><text fill="#000000" font-family="sans-serif" font-size="14" lengthAdjust="spacing" textLength="116" x="655.37" y="1498.941">UserTraitQueries</text><line style="stroke:#181818;stroke-width:0.5;" x1="575.62" x2="818.62" y1="1509.65" y2="1509.65"/><line style="stroke:#181818;stroke-width:0.5;" x1="575.62" x2="818.62" y1="1517.65" y2="1517.65"/><ellipse cx="585.62" cy="1531.3941" fill="#84BE84" rx="3" ry="3" style="stroke:#038048;stroke-width:1.0;"/><text fill="#000000" font-family="sans-serif" font-size="14" lengthAdjust="spacing" textLength="219" x="594.62" y="1535.1852">fetchUserTraits(userId: number)</text></g><!--class UserContext--><g id="elem_UserContext"><rect codeLine="83" fill="#F7BEFE" height="130.4414" id="UserContext" rx="2.5" ry="2.5" style="stroke:#181818;stroke-width:0.5;" width="410" x="223.12" y="2184.95"/><ellipse cx="380.87" cy="2200.95" fill="#ADD1B2" rx="11" ry="11" style="stroke:#181818;stroke-width:1.0;"/><path d="M383.3431,2207.0931 Q382.7621,2207.3919 382.1229,2207.5413 Q381.4838,2207.6907 380.7782,2207.6907 Q378.2714,2207.6907 376.9515,2206.0389 Q375.6317,2204.387 375.6317,2201.2659 Q375.6317,2198.1365 376.9515,2196.4847 Q378.2714,2194.8328 380.7782,2194.8328 Q381.4838,2194.8328 382.1312,2194.9822 Q382.7787,2195.1316 383.3431,2195.4305 L383.3431,2198.1531 Q382.7123,2197.5721 382.1188,2197.3023 Q381.5253,2197.0325 380.8944,2197.0325 Q379.5497,2197.0325 378.8649,2198.0992 Q378.1801,2199.1658 378.1801,2201.2659 Q378.1801,2203.3577 378.8649,2204.4244 Q379.5497,2205.491 380.8944,2205.491 Q381.5253,2205.491 382.1188,2205.2212 Q382.7123,2204.9515 383.3431,2204.3704 Z " fill="#000000"/><text fill="#000000" font-family="sans-serif" font-size="14" lengthAdjust="spacing" textLength="86" x="401.37" y="2206.241">UserContext</text><line style="stroke:#181818;stroke-width:0.5;" x1="224.12" x2="632.12" y1="2216.95" y2="2216.95"/><ellipse cx="234.12" cy="2230.6941" fill="none" rx="3" ry="3" style="stroke:#038048;stroke-width:1.0;"/><text fill="#000000" font-family="sans-serif" font-size="14" lengthAdjust="spacing" textLength="75" x="243.12" y="2234.4852">id: number</text><ellipse cx="234.12" cy="2247.1824" fill="none" rx="3" ry="3" style="stroke:#038048;stroke-width:1.0;"/><text fill="#000000" font-family="sans-serif" font-size="14" lengthAdjust="spacing" textLength="384" x="243.12" y="2250.9734">motivationalState: "label: inactive | low |  medium | high"</text><ellipse cx="234.12" cy="2263.6707" fill="none" rx="3" ry="3" style="stroke:#038048;stroke-width:1.0;"/><text fill="#000000" font-family="sans-serif" font-size="14" lengthAdjust="spacing" textLength="277" x="243.12" y="2267.4617">keySituationType: KeySituationDefinition</text><ellipse cx="234.12" cy="2280.159" fill="none" rx="3" ry="3" style="stroke:#038048;stroke-width:1.0;"/><text fill="#000000" font-family="sans-serif" font-size="14" lengthAdjust="spacing" textLength="298" x="243.12" y="2283.95">metrics: Partial&lt;Record&lt;MetricId, Metric&gt;&gt;</text><ellipse cx="234.12" cy="2296.6473" fill="none" rx="3" ry="3" style="stroke:#038048;stroke-width:1.0;"/><text fill="#000000" font-family="sans-serif" font-size="14" lengthAdjust="spacing" textLength="189" x="243.12" y="2300.4383">userTraits: UserTrait[] | null</text><line style="stroke:#181818;stroke-width:0.5;" x1="224.12" x2="632.12" y1="2307.3914" y2="2307.3914"/></g><!--class MotivationalEngine--><g id="elem_MotivationalEngine"><rect codeLine="91" fill="#FFFFFF" height="122.5742" id="MotivationalEngine" rx="2.5" ry="2.5" style="stroke:#000000;stroke-width:2.0;" width="186" x="359.12" y="1094.99"/><ellipse cx="384.47" cy="1115.3005" fill="#ADD1B2" rx="11" ry="11" style="stroke:#181818;stroke-width:1.0;"/><path d="M386.9431,1121.4436 Q386.3621,1121.7424 385.7229,1121.8919 Q385.0838,1122.0413 384.3782,1122.0413 Q381.8714,1122.0413 380.5515,1120.3894 Q379.2317,1118.7376 379.2317,1115.6165 Q379.2317,1112.4871 380.5515,1110.8352 Q381.8714,1109.1834 384.3782,1109.1834 Q385.0838,1109.1834 385.7312,1109.3328 Q386.3787,1109.4822 386.9431,1109.781 L386.9431,1112.5037 Q386.3123,1111.9226 385.7188,1111.6528 Q385.1253,1111.3831 384.4944,1111.3831 Q383.1497,1111.3831 382.4649,1112.4497 Q381.7801,1113.5164 381.7801,1115.6165 Q381.7801,1117.7083 382.4649,1118.7749 Q383.1497,1119.8416 384.4944,1119.8416 Q385.1253,1119.8416 385.7188,1119.5718 Q386.3123,1119.302 386.9431,1118.721 Z " fill="#000000"/><text fill="#000000" font-family="sans-serif" font-size="12" font-style="italic" lengthAdjust="spacing" textLength="50" x="441.27" y="1111.5916">&#171;engine&#187;</text><text fill="#000000" font-family="sans-serif" font-size="14" lengthAdjust="spacing" textLength="131" x="400.77" y="1127.658">MotivationalEngine</text><line style="stroke:#000000;stroke-width:2.0;" x1="360.12" x2="544.12" y1="1135.6111" y2="1135.6111"/><rect fill="none" height="6" style="stroke:#C82930;stroke-width:1.0;" width="6" x="367.12" y="1146.3552"/><text fill="#000000" font-family="sans-serif" font-size="14" lengthAdjust="spacing" textLength="160" x="379.12" y="1153.1462">AssistantActionsEngine</text><line style="stroke:#000000;stroke-width:2.0;" x1="360.12" x2="544.12" y1="1160.0994" y2="1160.0994"/><ellipse cx="370.12" cy="1173.8435" fill="#84BE84" rx="3" ry="3" style="stroke:#038048;stroke-width:1.0;"/><text fill="#000000" font-family="sans-serif" font-size="14" lengthAdjust="spacing" textLength="145" x="379.12" y="1177.6345">getAssistantActions()</text><ellipse cx="370.12" cy="1190.3318" fill="#84BE84" rx="3" ry="3" style="stroke:#038048;stroke-width:1.0;"/><text fill="#000000" font-family="sans-serif" font-size="14" lengthAdjust="spacing" textLength="100" x="379.12" y="1194.1228">buildContext()</text><ellipse cx="370.12" cy="1206.8201" fill="#84BE84" rx="3" ry="3" style="stroke:#038048;stroke-width:1.0;"/><text fill="#000000" font-family="sans-serif" font-size="14" lengthAdjust="spacing" textLength="94" x="379.12" y="1210.6111">buildMetrics()</text></g><!--class AssistantActionsEngine--><g id="elem_AssistantActionsEngine"><rect codeLine="98" fill="#CACAFF" height="89.5977" id="AssistantActionsEngine" rx="2.5" ry="2.5" style="stroke:#000000;stroke-width:2.0;" width="374" x="150.12" y="1294.56"/><ellipse cx="252.87" cy="1314.8705" fill="#ADD1B2" rx="11" ry="11" style="stroke:#181818;stroke-width:1.0;"/><path d="M255.3431,1321.0136 Q254.7621,1321.3124 254.1229,1321.4619 Q253.4838,1321.6113 252.7782,1321.6113 Q250.2714,1321.6113 248.9515,1319.9594 Q247.6317,1318.3076 247.6317,1315.1865 Q247.6317,1312.0571 248.9515,1310.4052 Q250.2714,1308.7534 252.7782,1308.7534 Q253.4838,1308.7534 254.1312,1308.9028 Q254.7787,1309.0522 255.3431,1309.351 L255.3431,1312.0737 Q254.7123,1311.4926 254.1188,1311.2228 Q253.5253,1310.9531 252.8944,1310.9531 Q251.5497,1310.9531 250.8649,1312.0197 Q250.1801,1313.0864 250.1801,1315.1865 Q250.1801,1317.2783 250.8649,1318.3449 Q251.5497,1319.4116 252.8944,1319.4116 Q253.5253,1319.4116 254.1188,1319.1418 Q254.7123,1318.872 255.3431,1318.291 Z " fill="#000000"/><text fill="#000000" font-family="sans-serif" font-size="12" font-style="italic" lengthAdjust="spacing" textLength="50" x="328.37" y="1311.1616">&#171;engine&#187;</text><text fill="#000000" font-family="sans-serif" font-size="14" lengthAdjust="spacing" textLength="160" x="273.37" y="1327.228">AssistantActionsEngine</text><line style="stroke:#000000;stroke-width:2.0;" x1="151.12" x2="523.12" y1="1335.1811" y2="1335.1811"/><line style="stroke:#000000;stroke-width:2.0;" x1="151.12" x2="523.12" y1="1343.1811" y2="1343.1811"/><ellipse cx="161.12" cy="1356.9252" fill="#84BE84" rx="3" ry="3" style="stroke:#038048;stroke-width:1.0;"/><text fill="#000000" font-family="sans-serif" font-size="14" lengthAdjust="spacing" textLength="348" x="170.12" y="1360.7163">evaluateAssistantActions(userId, keySituationType)</text><rect fill="#F24D5C" height="6" style="stroke:#C82930;stroke-width:1.0;" width="6" x="158.12" y="1370.4135"/><text fill="#000000" font-family="sans-serif" font-size="14" lengthAdjust="spacing" textLength="124" x="170.12" y="1377.2045">getActiveActions()</text></g><!--class UserTraitEngine--><g id="elem_UserTraitEngine"><rect codeLine="103" fill="#EAF797" height="73.1094" id="UserTraitEngine" rx="2.5" ry="2.5" style="stroke:#000000;stroke-width:2.0;" width="233" x="565.62" y="1302.81"/><ellipse cx="622.87" cy="1323.1205" fill="#ADD1B2" rx="11" ry="11" style="stroke:#181818;stroke-width:1.0;"/><path d="M625.3431,1329.2636 Q624.7621,1329.5624 624.1229,1329.7119 Q623.4838,1329.8613 622.7782,1329.8613 Q620.2714,1329.8613 618.9515,1328.2094 Q617.6317,1326.5576 617.6317,1323.4365 Q617.6317,1320.3071 618.9515,1318.6552 Q620.2714,1317.0034 622.7782,1317.0034 Q623.4838,1317.0034 624.1312,1317.1528 Q624.7787,1317.3022 625.3431,1317.601 L625.3431,1320.3237 Q624.7123,1319.7426 624.1188,1319.4728 Q623.5253,1319.2031 622.8944,1319.2031 Q621.5497,1319.2031 620.8649,1320.2697 Q620.1801,1321.3364 620.1801,1323.4365 Q620.1801,1325.5283 620.8649,1326.5949 Q621.5497,1327.6616 622.8944,1327.6616 Q623.5253,1327.6616 624.1188,1327.3918 Q624.7123,1327.122 625.3431,1326.541 Z " fill="#000000"/><text fill="#000000" font-family="sans-serif" font-size="12" font-style="italic" lengthAdjust="spacing" textLength="50" x="673.37" y="1319.4116">&#171;engine&#187;</text><text fill="#000000" font-family="sans-serif" font-size="14" lengthAdjust="spacing" textLength="110" x="643.37" y="1335.478">UserTraitEngine</text><line style="stroke:#000000;stroke-width:2.0;" x1="566.62" x2="797.62" y1="1343.4311" y2="1343.4311"/><line style="stroke:#000000;stroke-width:2.0;" x1="566.62" x2="797.62" y1="1351.4311" y2="1351.4311"/><ellipse cx="576.62" cy="1365.1752" fill="#84BE84" rx="3" ry="3" style="stroke:#038048;stroke-width:1.0;"/><text fill="#000000" font-family="sans-serif" font-size="14" lengthAdjust="spacing" textLength="207" x="585.62" y="1368.9663">getUserTraits(userId: number)</text></g><!--class AssistantActionType--><g id="elem_AssistantActionType"><rect codeLine="106" fill="#CACAFF" height="97.4648" id="AssistantActionType" rx="2.5" ry="2.5" style="stroke:#181818;stroke-width:0.5;" width="171" x="179.62" y="1944.53"/><ellipse cx="194.62" cy="1960.53" fill="#EB937F" rx="11" ry="11" style="stroke:#181818;stroke-width:1.0;"/><path d="M198.2343,1967.03 L190.5145,1967.03 L190.5145,1954.6369 L198.2343,1954.6369 L198.2343,1956.7951 L192.9633,1956.7951 L192.9633,1959.468 L197.7362,1959.468 L197.7362,1961.6262 L192.9633,1961.6262 L192.9633,1964.8718 L198.2343,1964.8718 Z " fill="#000000"/><text fill="#000000" font-family="sans-serif" font-size="14" lengthAdjust="spacing" textLength="139" x="208.62" y="1965.821">AssistantActionType</text><line style="stroke:#181818;stroke-width:0.5;" x1="180.62" x2="349.62" y1="1976.53" y2="1976.53"/><text fill="#000000" font-family="sans-serif" font-size="14" lengthAdjust="spacing" textLength="45" x="185.62" y="1994.0652">Nudge</text><text fill="#000000" font-family="sans-serif" font-size="14" lengthAdjust="spacing" textLength="33" x="185.62" y="2010.5534">Alert</text><text fill="#000000" font-family="sans-serif" font-size="14" lengthAdjust="spacing" textLength="97" x="185.62" y="2027.0417">Questionnaire</text><line style="stroke:#181818;stroke-width:0.5;" x1="180.62" x2="349.62" y1="2033.9948" y2="2033.9948"/></g><!--class AssistantAction--><g id="elem_AssistantAction"><rect codeLine="111" fill="#CACAFF" height="113.9531" id="AssistantAction" rx="2.5" ry="2.5" style="stroke:#181818;stroke-width:0.5;" width="188" x="189.12" y="1687.62"/><ellipse cx="226.62" cy="1703.62" fill="#ADD1B2" rx="11" ry="11" style="stroke:#181818;stroke-width:1.0;"/><path d="M229.0931,1709.7631 Q228.5121,1710.0619 227.8729,1710.2113 Q227.2338,1710.3607 226.5282,1710.3607 Q224.0214,1710.3607 222.7015,1708.7089 Q221.3817,1707.057 221.3817,1703.9359 Q221.3817,1700.8065 222.7015,1699.1547 Q224.0214,1697.5028 226.5282,1697.5028 Q227.2338,1697.5028 227.8812,1697.6522 Q228.5287,1697.8016 229.0931,1698.1005 L229.0931,1700.8231 Q228.4623,1700.2421 227.8688,1699.9723 Q227.2753,1699.7025 226.6444,1699.7025 Q225.2997,1699.7025 224.6149,1700.7692 Q223.9301,1701.8358 223.9301,1703.9359 Q223.9301,1706.0277 224.6149,1707.0944 Q225.2997,1708.161 226.6444,1708.161 Q227.2753,1708.161 227.8688,1707.8912 Q228.4623,1707.6215 229.0931,1707.0404 Z " fill="#000000"/><text fill="#000000" font-family="sans-serif" font-size="14" lengthAdjust="spacing" textLength="106" x="245.62" y="1708.911">AssistantAction</text><line style="stroke:#181818;stroke-width:0.5;" x1="190.12" x2="376.12" y1="1719.62" y2="1719.62"/><text fill="#000000" font-family="sans-serif" font-size="14" lengthAdjust="spacing" textLength="176" x="195.12" y="1737.1552">type: AssistantActionType</text><text fill="#000000" font-family="sans-serif" font-size="14" lengthAdjust="spacing" textLength="158" x="195.12" y="1753.6434">conditions: Condition[]</text><text fill="#000000" font-family="sans-serif" font-size="14" lengthAdjust="spacing" textLength="100" x="195.12" y="1770.1317">content: string</text><line style="stroke:#181818;stroke-width:0.5;" x1="190.12" x2="376.12" y1="1777.0848" y2="1777.0848"/><ellipse cx="200.12" cy="1790.829" fill="#84BE84" rx="3" ry="3" style="stroke:#038048;stroke-width:1.0;"/><text fill="#000000" font-family="sans-serif" font-size="14" lengthAdjust="spacing" textLength="153" x="209.12" y="1794.62">evaluate(UserContext)</text></g><!--class AssistantActionCatalog--><g id="elem_AssistantActionCatalog"><rect codeLine="119" fill="#CACAFF" height="64.4883" id="AssistantActionCatalog" rx="2.5" ry="2.5" style="stroke:#181818;stroke-width:0.5;" width="277" x="144.62" y="1477.65"/><ellipse cx="199.37" cy="1493.65" fill="#ADD1B2" rx="11" ry="11" style="stroke:#181818;stroke-width:1.0;"/><path d="M201.8431,1499.7931 Q201.2621,1500.0919 200.6229,1500.2413 Q199.9838,1500.3907 199.2782,1500.3907 Q196.7714,1500.3907 195.4515,1498.7389 Q194.1317,1497.087 194.1317,1493.9659 Q194.1317,1490.8365 195.4515,1489.1847 Q196.7714,1487.5328 199.2782,1487.5328 Q199.9838,1487.5328 200.6312,1487.6822 Q201.2787,1487.8316 201.8431,1488.1305 L201.8431,1490.8531 Q201.2123,1490.2721 200.6188,1490.0023 Q200.0253,1489.7325 199.3944,1489.7325 Q198.0497,1489.7325 197.3649,1490.7992 Q196.6801,1491.8658 196.6801,1493.9659 Q196.6801,1496.0577 197.3649,1497.1244 Q198.0497,1498.191 199.3944,1498.191 Q200.0253,1498.191 200.6188,1497.9212 Q201.2123,1497.6515 201.8431,1497.0704 Z " fill="#000000"/><text fill="#000000" font-family="sans-serif" font-size="14" lengthAdjust="spacing" textLength="159" x="219.87" y="1498.941">AssistantActionCatalog</text><line style="stroke:#181818;stroke-width:0.5;" x1="145.62" x2="420.62" y1="1509.65" y2="1509.65"/><ellipse cx="155.62" cy="1523.3941" fill="none" rx="3" ry="3" style="stroke:#038048;stroke-width:1.0;"/><text fill="#000000" font-family="sans-serif" font-size="14" lengthAdjust="spacing" textLength="251" x="164.62" y="1527.1852">allAssistantActions: assistantAction[]</text><line style="stroke:#181818;stroke-width:0.5;" x1="145.62" x2="420.62" y1="1534.1383" y2="1534.1383"/></g><!--class Condition--><g id="elem_Condition"><rect codeLine="123" fill="#F8DB92" height="64.4883" id="Condition" rx="2.5" ry="2.5" style="stroke:#181818;stroke-width:0.5;" width="315" x="385.62" y="1961.02"/><ellipse cx="504.87" cy="1977.02" fill="#ADD1B2" rx="11" ry="11" style="stroke:#181818;stroke-width:1.0;"/><path d="M507.3431,1983.1631 Q506.7621,1983.4619 506.1229,1983.6113 Q505.4838,1983.7607 504.7782,1983.7607 Q502.2714,1983.7607 500.9515,1982.1089 Q499.6317,1980.457 499.6317,1977.3359 Q499.6317,1974.2065 500.9515,1972.5547 Q502.2714,1970.9028 504.7782,1970.9028 Q505.4838,1970.9028 506.1312,1971.0522 Q506.7787,1971.2016 507.3431,1971.5005 L507.3431,1974.2231 Q506.7123,1973.6421 506.1188,1973.3723 Q505.5253,1973.1025 504.8944,1973.1025 Q503.5497,1973.1025 502.8649,1974.1692 Q502.1801,1975.2358 502.1801,1977.3359 Q502.1801,1979.4277 502.8649,1980.4944 Q503.5497,1981.561 504.8944,1981.561 Q505.5253,1981.561 506.1188,1981.2912 Q506.7123,1981.0215 507.3431,1980.4404 Z " fill="#000000"/><text fill="#000000" font-family="sans-serif" font-size="14" lengthAdjust="spacing" textLength="68" x="525.37" y="1982.311">Condition</text><line style="stroke:#181818;stroke-width:0.5;" x1="386.62" x2="699.62" y1="1993.02" y2="1993.02"/><line style="stroke:#181818;stroke-width:0.5;" x1="386.62" x2="699.62" y1="2001.02" y2="2001.02"/><ellipse cx="396.62" cy="2014.7641" fill="#84BE84" rx="3" ry="3" style="stroke:#038048;stroke-width:1.0;"/><text fill="#000000" font-family="sans-serif" font-size="14" lengthAdjust="spacing" textLength="289" x="405.62" y="2018.5552">check: (ctx: AssistantContext) =&gt; boolean</text></g><!--class Metric--><g id="elem_Metric"><rect codeLine="127" fill="#FDA5A5" height="97.4648" id="Metric" rx="2.5" ry="2.5" style="stroke:#181818;stroke-width:0.5;" width="183" x="1147.62" y="1461.16"/><ellipse cx="1213.87" cy="1477.16" fill="#ADD1B2" rx="11" ry="11" style="stroke:#181818;stroke-width:1.0;"/><path d="M1216.3431,1483.3031 Q1215.7621,1483.6019 1215.1229,1483.7513 Q1214.4838,1483.9007 1213.7782,1483.9007 Q1211.2714,1483.9007 1209.9515,1482.2489 Q1208.6317,1480.597 1208.6317,1477.4759 Q1208.6317,1474.3465 1209.9515,1472.6947 Q1211.2714,1471.0428 1213.7782,1471.0428 Q1214.4838,1471.0428 1215.1312,1471.1922 Q1215.7787,1471.3416 1216.3431,1471.6405 L1216.3431,1474.3631 Q1215.7123,1473.7821 1215.1188,1473.5123 Q1214.5253,1473.2425 1213.8944,1473.2425 Q1212.5497,1473.2425 1211.8649,1474.3092 Q1211.1801,1475.3758 1211.1801,1477.4759 Q1211.1801,1479.5677 1211.8649,1480.6344 Q1212.5497,1481.701 1213.8944,1481.701 Q1214.5253,1481.701 1215.1188,1481.4312 Q1215.7123,1481.1615 1216.3431,1480.5804 Z " fill="#000000"/><text fill="#000000" font-family="sans-serif" font-size="14" lengthAdjust="spacing" textLength="42" x="1234.37" y="1482.451">Metric</text><line style="stroke:#181818;stroke-width:0.5;" x1="1148.62" x2="1329.62" y1="1493.16" y2="1493.16"/><ellipse cx="1158.62" cy="1506.9041" fill="none" rx="3" ry="3" style="stroke:#038048;stroke-width:1.0;"/><text fill="#000000" font-family="sans-serif" font-size="14" lengthAdjust="spacing" textLength="76" x="1167.62" y="1510.6952">id: MetricId</text><ellipse cx="1158.62" cy="1523.3924" fill="none" rx="3" ry="3" style="stroke:#038048;stroke-width:1.0;"/><text fill="#000000" font-family="sans-serif" font-size="14" lengthAdjust="spacing" textLength="98" x="1167.62" y="1527.1834">value: number</text><ellipse cx="1158.62" cy="1539.8807" fill="none" rx="3" ry="3" style="stroke:#038048;stroke-width:1.0;"/><text fill="#000000" font-family="sans-serif" font-size="14" lengthAdjust="spacing" textLength="157" x="1167.62" y="1543.6717">public updatedAt: Date</text><line style="stroke:#181818;stroke-width:0.5;" x1="1148.62" x2="1329.62" y1="1550.6248" y2="1550.6248"/></g><!--class UserTrait--><g id="elem_UserTrait"><rect codeLine="133" fill="#EAF797" height="80.9766" id="UserTrait" rx="2.5" ry="2.5" style="stroke:#181818;stroke-width:0.5;" width="132" x="631.12" y="1704.11"/><ellipse cx="662.77" cy="1720.11" fill="#ADD1B2" rx="11" ry="11" style="stroke:#181818;stroke-width:1.0;"/><path d="M665.2431,1726.2531 Q664.6621,1726.5519 664.0229,1726.7013 Q663.3838,1726.8507 662.6782,1726.8507 Q660.1714,1726.8507 658.8515,1725.1989 Q657.5317,1723.547 657.5317,1720.4259 Q657.5317,1717.2965 658.8515,1715.6447 Q660.1714,1713.9928 662.6782,1713.9928 Q663.3838,1713.9928 664.0312,1714.1422 Q664.6787,1714.2916 665.2431,1714.5905 L665.2431,1717.3131 Q664.6123,1716.7321 664.0188,1716.4623 Q663.4253,1716.1925 662.7944,1716.1925 Q661.4497,1716.1925 660.7649,1717.2592 Q660.0801,1718.3258 660.0801,1720.4259 Q660.0801,1722.5177 660.7649,1723.5844 Q661.4497,1724.651 662.7944,1724.651 Q663.4253,1724.651 664.0188,1724.3812 Q664.6123,1724.1115 665.2431,1723.5304 Z " fill="#000000"/><text fill="#000000" font-family="sans-serif" font-size="14" lengthAdjust="spacing" textLength="63" x="680.47" y="1725.401">UserTrait</text><line style="stroke:#181818;stroke-width:0.5;" x1="632.12" x2="762.12" y1="1736.11" y2="1736.11"/><rect fill="none" height="6" style="stroke:#C82930;stroke-width:1.0;" width="6" x="639.12" y="1746.8541"/><text fill="#000000" font-family="sans-serif" font-size="14" lengthAdjust="spacing" textLength="106" x="651.12" y="1753.6452">trait: TraitValue</text><line style="stroke:#181818;stroke-width:0.5;" x1="632.12" x2="762.12" y1="1760.5983" y2="1760.5983"/><ellipse cx="642.12" cy="1774.3424" fill="#84BE84" rx="3" ry="3" style="stroke:#038048;stroke-width:1.0;"/><text fill="#000000" font-family="sans-serif" font-size="14" lengthAdjust="spacing" textLength="90" x="651.12" y="1778.1334">updateTrait()</text></g><!--class TraitId--><g id="elem_TraitId"><rect codeLine="138" fill="#EAF797" height="229.3711" id="TraitId" rx="2.5" ry="2.5" style="stroke:#181818;stroke-width:0.5;" width="222" x="826.12" y="1878.58"/><ellipse cx="910.37" cy="1894.58" fill="#EB937F" rx="11" ry="11" style="stroke:#181818;stroke-width:1.0;"/><path d="M913.9843,1901.08 L906.2645,1901.08 L906.2645,1888.6869 L913.9843,1888.6869 L913.9843,1890.8451 L908.7133,1890.8451 L908.7133,1893.518 L913.4862,1893.518 L913.4862,1895.6762 L908.7133,1895.6762 L908.7133,1898.9218 L913.9843,1898.9218 Z " fill="#000000"/><text fill="#000000" font-family="sans-serif" font-size="14" lengthAdjust="spacing" textLength="45" x="930.87" y="1899.871">TraitId</text><line style="stroke:#181818;stroke-width:0.5;" x1="827.12" x2="1047.12" y1="1910.58" y2="1910.58"/><text fill="#000000" font-family="sans-serif" font-size="14" lengthAdjust="spacing" textLength="143" x="832.12" y="1928.1152">PERSONAL_MASTERY</text><text fill="#000000" font-family="sans-serif" font-size="14" lengthAdjust="spacing" textLength="87" x="832.12" y="1944.6034">HARD_WORK</text><text fill="#000000" font-family="sans-serif" font-size="14" lengthAdjust="spacing" textLength="210" x="832.12" y="1961.0917">RELATION_TO_OTHERS_GOALS</text><text fill="#000000" font-family="sans-serif" font-size="14" lengthAdjust="spacing" textLength="184" x="832.12" y="1977.58">COMPETITIVE_EXCELLENCE</text><text fill="#000000" font-family="sans-serif" font-size="14" lengthAdjust="spacing" textLength="145" x="832.12" y="1994.0683">FAILURE_AVOIDANCE</text><text fill="#000000" font-family="sans-serif" font-size="14" lengthAdjust="spacing" textLength="68" x="832.12" y="2010.5566">ACHIEVER</text><text fill="#000000" font-family="sans-serif" font-size="14" lengthAdjust="spacing" textLength="51" x="832.12" y="2027.0448">PLAYER</text><text fill="#000000" font-family="sans-serif" font-size="14" lengthAdjust="spacing" textLength="78" x="832.12" y="2043.5331">DISRUPTOR</text><text fill="#000000" font-family="sans-serif" font-size="14" lengthAdjust="spacing" textLength="117" x="832.12" y="2060.0214">PHILANTHROPIST</text><text fill="#000000" font-family="sans-serif" font-size="14" lengthAdjust="spacing" textLength="79" x="832.12" y="2076.5097">SOCIALIZER</text><text fill="#000000" font-family="sans-serif" font-size="14" lengthAdjust="spacing" textLength="82" x="832.12" y="2092.998">FREE_SPIRIT</text><line style="stroke:#181818;stroke-width:0.5;" x1="827.12" x2="1047.12" y1="2099.9511" y2="2099.9511"/></g><!--class MotivationalMechanicsCatalog--><g id="elem_MotivationalMechanicsCatalog"><rect codeLine="152" fill="#FFE3B6" height="64.4883" id="MotivationalMechanicsCatalog" rx="2.5" ry="2.5" style="stroke:#181818;stroke-width:0.5;" width="257" x="1365.62" y="1477.65"/><ellipse cx="1388.27" cy="1493.65" fill="#ADD1B2" rx="11" ry="11" style="stroke:#181818;stroke-width:1.0;"/><path d="M1390.7431,1499.7931 Q1390.1621,1500.0919 1389.5229,1500.2413 Q1388.8838,1500.3907 1388.1782,1500.3907 Q1385.6714,1500.3907 1384.3515,1498.7389 Q1383.0317,1497.087 1383.0317,1493.9659 Q1383.0317,1490.8365 1384.3515,1489.1847 Q1385.6714,1487.5328 1388.1782,1487.5328 Q1388.8838,1487.5328 1389.5312,1487.6822 Q1390.1787,1487.8316 1390.7431,1488.1305 L1390.7431,1490.8531 Q1390.1123,1490.2721 1389.5188,1490.0023 Q1388.9253,1489.7325 1388.2944,1489.7325 Q1386.9497,1489.7325 1386.2649,1490.7992 Q1385.5801,1491.8658 1385.5801,1493.9659 Q1385.5801,1496.0577 1386.2649,1497.1244 Q1386.9497,1498.191 1388.2944,1498.191 Q1388.9253,1498.191 1389.5188,1497.9212 Q1390.1123,1497.6515 1390.7431,1497.0704 Z " fill="#000000"/><text fill="#000000" font-family="sans-serif" font-size="14" lengthAdjust="spacing" textLength="208" x="1403.97" y="1498.941">MotivationalMechanicsCatalog</text><line style="stroke:#181818;stroke-width:0.5;" x1="1366.62" x2="1621.62" y1="1509.65" y2="1509.65"/><ellipse cx="1376.62" cy="1523.3941" fill="none" rx="3" ry="3" style="stroke:#038048;stroke-width:1.0;"/><text fill="#000000" font-family="sans-serif" font-size="14" lengthAdjust="spacing" textLength="231" x="1385.62" y="1527.1852">GameMechanics: GameMechanic[]</text><line style="stroke:#181818;stroke-width:0.5;" x1="1366.62" x2="1621.62" y1="1534.1383" y2="1534.1383"/></g><!--class GameMechanic--><g id="elem_GameMechanic"><rect codeLine="156" fill="#FFE3B6" height="113.9531" id="GameMechanic" rx="2.5" ry="2.5" style="stroke:#181818;stroke-width:0.5;" width="260" x="898.12" y="1687.62"/><ellipse cx="972.37" cy="1703.62" fill="#ADD1B2" rx="11" ry="11" style="stroke:#181818;stroke-width:1.0;"/><path d="M974.8431,1709.7631 Q974.2621,1710.0619 973.6229,1710.2113 Q972.9838,1710.3607 972.2782,1710.3607 Q969.7714,1710.3607 968.4515,1708.7089 Q967.1317,1707.057 967.1317,1703.9359 Q967.1317,1700.8065 968.4515,1699.1547 Q969.7714,1697.5028 972.2782,1697.5028 Q972.9838,1697.5028 973.6312,1697.6522 Q974.2787,1697.8016 974.8431,1698.1005 L974.8431,1700.8231 Q974.2123,1700.2421 973.6188,1699.9723 Q973.0253,1699.7025 972.3944,1699.7025 Q971.0497,1699.7025 970.3649,1700.7692 Q969.6801,1701.8358 969.6801,1703.9359 Q969.6801,1706.0277 970.3649,1707.0944 Q971.0497,1708.161 972.3944,1708.161 Q973.0253,1708.161 973.6188,1707.8912 Q974.2123,1707.6215 974.8431,1707.0404 Z " fill="#000000"/><text fill="#000000" font-family="sans-serif" font-size="14" lengthAdjust="spacing" textLength="103" x="992.87" y="1708.911">GameMechanic</text><line style="stroke:#181818;stroke-width:0.5;" x1="899.12" x2="1157.12" y1="1719.62" y2="1719.62"/><ellipse cx="909.12" cy="1733.3641" fill="none" rx="3" ry="3" style="stroke:#038048;stroke-width:1.0;"/><text fill="#000000" font-family="sans-serif" font-size="14" lengthAdjust="spacing" textLength="86" x="918.12" y="1737.1552">name: string</text><ellipse cx="909.12" cy="1749.8524" fill="none" rx="3" ry="3" style="stroke:#038048;stroke-width:1.0;"/><text fill="#000000" font-family="sans-serif" font-size="14" lengthAdjust="spacing" textLength="125" x="918.12" y="1753.6434">description: string</text><ellipse cx="909.12" cy="1766.3407" fill="none" rx="3" ry="3" style="stroke:#038048;stroke-width:1.0;"/><text fill="#000000" font-family="sans-serif" font-size="14" lengthAdjust="spacing" textLength="234" x="918.12" y="1770.1317">activationConditions: Condition[*]</text><ellipse cx="909.12" cy="1782.829" fill="none" rx="3" ry="3" style="stroke:#038048;stroke-width:1.0;"/><text fill="#000000" font-family="sans-serif" font-size="14" lengthAdjust="spacing" textLength="219" x="918.12" y="1786.62">weights: Map&lt;TraitId, number&gt;</text><line style="stroke:#181818;stroke-width:0.5;" x1="899.12" x2="1157.12" y1="1793.5731" y2="1793.5731"/></g><!--class MechanicsQueries--><g id="elem_MechanicsQueries"><rect codeLine="165" fill="#FFE3B6" height="64.4883" id="MechanicsQueries" rx="2.5" ry="2.5" style="stroke:#181818;stroke-width:0.5;" width="347" x="1244.62" y="1307.12"/><ellipse cx="1351.87" cy="1323.12" fill="#ADD1B2" rx="11" ry="11" style="stroke:#181818;stroke-width:1.0;"/><path d="M1354.3431,1329.2631 Q1353.7621,1329.5619 1353.1229,1329.7113 Q1352.4838,1329.8607 1351.7782,1329.8607 Q1349.2714,1329.8607 1347.9515,1328.2089 Q1346.6317,1326.557 1346.6317,1323.4359 Q1346.6317,1320.3065 1347.9515,1318.6547 Q1349.2714,1317.0028 1351.7782,1317.0028 Q1352.4838,1317.0028 1353.1312,1317.1522 Q1353.7787,1317.3016 1354.3431,1317.6005 L1354.3431,1320.3231 Q1353.7123,1319.7421 1353.1188,1319.4723 Q1352.5253,1319.2025 1351.8944,1319.2025 Q1350.5497,1319.2025 1349.8649,1320.2692 Q1349.1801,1321.3358 1349.1801,1323.4359 Q1349.1801,1325.5277 1349.8649,1326.5944 Q1350.5497,1327.661 1351.8944,1327.661 Q1352.5253,1327.661 1353.1188,1327.3912 Q1353.7123,1327.1215 1354.3431,1326.5404 Z " fill="#000000"/><text fill="#000000" font-family="sans-serif" font-size="14" lengthAdjust="spacing" textLength="124" x="1372.37" y="1328.411">MechanicsQueries</text><line style="stroke:#181818;stroke-width:0.5;" x1="1245.62" x2="1590.62" y1="1339.12" y2="1339.12"/><line style="stroke:#181818;stroke-width:0.5;" x1="1245.62" x2="1590.62" y1="1347.12" y2="1347.12"/><ellipse cx="1255.62" cy="1360.8641" fill="#84BE84" rx="3" ry="3" style="stroke:#038048;stroke-width:1.0;"/><text fill="#000000" font-family="sans-serif" font-size="14" lengthAdjust="spacing" textLength="321" x="1264.62" y="1364.6552">getWeightedMechanics (userTraits: UserTrait[])</text></g><!--class WorkplansRoute--><g id="elem_WorkplansRoute"><rect codeLine="169" fill="#90EE90" height="80.9766" id="WorkplansRoute" rx="2.5" ry="2.5" style="stroke:#181818;stroke-width:0.5;" width="258" x="854.12" y="1469.4"/><ellipse cx="922.87" cy="1485.4" fill="#ADD1B2" rx="11" ry="11" style="stroke:#181818;stroke-width:1.0;"/><path d="M925.3431,1491.5431 Q924.7621,1491.8419 924.1229,1491.9913 Q923.4838,1492.1407 922.7782,1492.1407 Q920.2714,1492.1407 918.9515,1490.4889 Q917.6317,1488.837 917.6317,1485.7159 Q917.6317,1482.5865 918.9515,1480.9347 Q920.2714,1479.2828 922.7782,1479.2828 Q923.4838,1479.2828 924.1312,1479.4322 Q924.7787,1479.5816 925.3431,1479.8805 L925.3431,1482.6031 Q924.7123,1482.0221 924.1188,1481.7523 Q923.5253,1481.4825 922.8944,1481.4825 Q921.5497,1481.4825 920.8649,1482.5492 Q920.1801,1483.6158 920.1801,1485.7159 Q920.1801,1487.8077 920.8649,1488.8744 Q921.5497,1489.941 922.8944,1489.941 Q923.5253,1489.941 924.1188,1489.6712 Q924.7123,1489.4015 925.3431,1488.8204 Z " fill="#000000"/><text fill="#000000" font-family="sans-serif" font-size="14" lengthAdjust="spacing" textLength="112" x="943.37" y="1490.691">WorkplansRoute</text><line style="stroke:#181818;stroke-width:0.5;" x1="855.12" x2="1111.12" y1="1501.4" y2="1501.4"/><ellipse cx="865.12" cy="1515.1441" fill="none" rx="3" ry="3" style="stroke:#038048;stroke-width:1.0;"/><text fill="#000000" font-family="sans-serif" font-size="14" lengthAdjust="spacing" textLength="232" x="874.12" y="1518.9352">"GET /getActivePlanData/:userId/"</text><line style="stroke:#181818;stroke-width:0.5;" x1="855.12" x2="1111.12" y1="1525.8883" y2="1525.8883"/><ellipse cx="865.12" cy="1539.6324" fill="#84BE84" rx="3" ry="3" style="stroke:#038048;stroke-width:1.0;"/><text fill="#000000" font-family="sans-serif" font-size="14" lengthAdjust="spacing" textLength="133" x="874.12" y="1543.4234">getActivePlanData()</text></g><!--class usuarios--><g id="elem_usuarios"><rect codeLine="176" fill="#FFFFFF" height="113.9531" id="usuarios" rx="2.5" ry="2.5" style="stroke:#181818;stroke-width:0.5;" width="150" x="1703.12" y="1687.62"/><ellipse cx="1744.67" cy="1703.62" fill="#ADD1B2" rx="11" ry="11" style="stroke:#181818;stroke-width:1.0;"/><path d="M1748.2843,1710.12 L1740.5645,1710.12 L1740.5645,1697.7269 L1748.2843,1697.7269 L1748.2843,1699.8851 L1743.0133,1699.8851 L1743.0133,1702.558 L1747.7862,1702.558 L1747.7862,1704.7162 L1743.0133,1704.7162 L1743.0133,1707.9618 L1748.2843,1707.9618 Z " fill="#000000"/><text fill="#000000" font-family="sans-serif" font-size="14" lengthAdjust="spacing" textLength="59" x="1764.57" y="1708.911">usuarios</text><line style="stroke:#181818;stroke-width:0.5;" x1="1704.12" x2="1852.12" y1="1719.62" y2="1719.62"/><text fill="#000000" font-family="sans-serif" font-size="14" lengthAdjust="spacing" textLength="115" x="1709.12" y="1737.1552">id_user : int &#171;PK&#187;</text><text fill="#000000" font-family="sans-serif" font-size="14" lengthAdjust="spacing" textLength="100" x="1709.12" y="1753.6434">email : varchar</text><text fill="#000000" font-family="sans-serif" font-size="14" lengthAdjust="spacing" textLength="129" x="1709.12" y="1770.1317">password : varchar</text><text fill="#000000" font-family="sans-serif" font-size="14" lengthAdjust="spacing" textLength="138" x="1709.12" y="1786.62">last_login : datetime</text><line style="stroke:#181818;stroke-width:0.5;" x1="1704.12" x2="1852.12" y1="1793.5731" y2="1793.5731"/></g><!--class events--><g id="elem_events"><rect codeLine="183" fill="#FFFFFF" height="113.9531" id="events" rx="2.5" ry="2.5" style="stroke:#181818;stroke-width:0.5;" width="155" x="1887.62" y="1687.62"/><ellipse cx="1938.87" cy="1703.62" fill="#ADD1B2" rx="11" ry="11" style="stroke:#181818;stroke-width:1.0;"/><path d="M1942.4843,1710.12 L1934.7645,1710.12 L1934.7645,1697.7269 L1942.4843,1697.7269 L1942.4843,1699.8851 L1937.2133,1699.8851 L1937.2133,1702.558 L1941.9862,1702.558 L1941.9862,1704.7162 L1937.2133,1704.7162 L1937.2133,1707.9618 L1942.4843,1707.9618 Z " fill="#000000"/><text fill="#000000" font-family="sans-serif" font-size="14" lengthAdjust="spacing" textLength="44" x="1959.37" y="1708.911">events</text><line style="stroke:#181818;stroke-width:0.5;" x1="1888.62" x2="2041.62" y1="1719.62" y2="1719.62"/><text fill="#000000" font-family="sans-serif" font-size="14" lengthAdjust="spacing" textLength="122" x="1893.62" y="1737.1552">id_event : int &#171;PK&#187;</text><text fill="#000000" font-family="sans-serif" font-size="14" lengthAdjust="spacing" textLength="92" x="1893.62" y="1753.6434">type : varchar</text><text fill="#000000" font-family="sans-serif" font-size="14" lengthAdjust="spacing" textLength="95" x="1893.62" y="1770.1317">payload : json</text><text fill="#000000" font-family="sans-serif" font-size="14" lengthAdjust="spacing" textLength="143" x="1893.62" y="1786.62">created_at : datetime</text><line style="stroke:#181818;stroke-width:0.5;" x1="1888.62" x2="2041.62" y1="1793.5731" y2="1793.5731"/></g><!--class key_situations--><g id="elem_key_situations"><rect codeLine="190" fill="#FFFFFF" height="97.4648" id="key_situations" rx="2.5" ry="2.5" style="stroke:#181818;stroke-width:0.5;" width="168" x="1694.12" y="1944.53"/><ellipse cx="1726.67" cy="1960.53" fill="#ADD1B2" rx="11" ry="11" style="stroke:#181818;stroke-width:1.0;"/><path d="M1730.2843,1967.03 L1722.5645,1967.03 L1722.5645,1954.6369 L1730.2843,1954.6369 L1730.2843,1956.7951 L1725.0133,1956.7951 L1725.0133,1959.468 L1729.7862,1959.468 L1729.7862,1961.6262 L1725.0133,1961.6262 L1725.0133,1964.8718 L1730.2843,1964.8718 Z " fill="#000000"/><text fill="#000000" font-family="sans-serif" font-size="14" lengthAdjust="spacing" textLength="97" x="1744.57" y="1965.821">key_situations</text><line style="stroke:#181818;stroke-width:0.5;" x1="1695.12" x2="1861.12" y1="1976.53" y2="1976.53"/><text fill="#000000" font-family="sans-serif" font-size="14" lengthAdjust="spacing" textLength="100" x="1700.12" y="1994.0652">id_ks : int &#171;PK&#187;</text><text fill="#000000" font-family="sans-serif" font-size="14" lengthAdjust="spacing" textLength="92" x="1700.12" y="2010.5534">type : varchar</text><text fill="#000000" font-family="sans-serif" font-size="14" lengthAdjust="spacing" textLength="156" x="1700.12" y="2027.0417">triggered_at : datetime</text><line style="stroke:#181818;stroke-width:0.5;" x1="1695.12" x2="1861.12" y1="2033.9948" y2="2033.9948"/></g><!--class prueba_N--><g id="elem_prueba_N"><rect codeLine="196" fill="#FFFFFF" height="97.4648" id="prueba_N" rx="2.5" ry="2.5" style="stroke:#181818;stroke-width:0.5;" width="168" x="1897.12" y="1944.53"/><ellipse cx="1943.87" cy="1960.53" fill="#ADD1B2" rx="11" ry="11" style="stroke:#181818;stroke-width:1.0;"/><path d="M1947.4843,1967.03 L1939.7645,1967.03 L1939.7645,1954.6369 L1947.4843,1954.6369 L1947.4843,1956.7951 L1942.2133,1956.7951 L1942.2133,1959.468 L1946.9862,1959.468 L1946.9862,1961.6262 L1942.2133,1961.6262 L1942.2133,1964.8718 L1947.4843,1964.8718 Z " fill="#000000"/><text fill="#000000" font-family="sans-serif" font-size="14" lengthAdjust="spacing" textLength="66" x="1964.37" y="1965.821">prueba_N</text><line style="stroke:#181818;stroke-width:0.5;" x1="1898.12" x2="2064.12" y1="1976.53" y2="1976.53"/><text fill="#000000" font-family="sans-serif" font-size="14" lengthAdjust="spacing" textLength="100" x="1903.12" y="1994.0652">id_ks : int &#171;PK&#187;</text><text fill="#000000" font-family="sans-serif" font-size="14" lengthAdjust="spacing" textLength="92" x="1903.12" y="2010.5534">type : varchar</text><text fill="#000000" font-family="sans-serif" font-size="14" lengthAdjust="spacing" textLength="156" x="1903.12" y="2027.0417">triggered_at : datetime</text><line style="stroke:#181818;stroke-width:0.5;" x1="1898.12" x2="2064.12" y1="2033.9948" y2="2033.9948"/></g><!--reverse link KeySituationEngine to VisitHomeFirstTimePerDay--><g id="link_KeySituationEngine_VisitHomeFirstTimePerDay"><path codeLine="41" d="M657.3595,201.6081 C653.4695,211.2481 654.48,210.25 652.12,220.08 C648.5,235.14 646.99,252.09 646.47,266.96 " fill="none" id="KeySituationEngine-backto-VisitHomeFirstTimePerDay" style="stroke:#181818;stroke-width:1.0;"/><polygon fill="#181818" points="661.85,190.48,655.8954,194.5472,657.3595,201.6081,663.3141,197.5409,661.85,190.48" style="stroke:#181818;stroke-width:1.0;"/></g><!--link KeySituationEngine to VisitHomeFirstTimePerDay--><g id="link_KeySituationEngine_VisitHomeFirstTimePerDay"><path codeLine="42" d="M675.37,190.44 C669.38,215.08 663.7685,238.1501 658.2185,260.9601 " fill="none" id="KeySituationEngine-to-VisitHomeFirstTimePerDay" style="stroke:#181818;stroke-width:1.0;"/><polygon fill="#181818" points="656.8,266.79,662.8144,258.9908,657.9821,261.9317,655.0411,257.0995,656.8,266.79" style="stroke:#181818;stroke-width:1.0;"/><text fill="#000000" font-family="sans-serif" font-size="13" lengthAdjust="spacing" textLength="68" x="668.62" y="233.6484">onEvaluate</text></g><!--link AssistantAction to AssistantActionType--><g id="link_AssistantAction_AssistantActionType"><path codeLine="117" d="M279.01,1801.88 C275.88,1844.82 272.0473,1897.356 269.0673,1938.136 " fill="none" id="AssistantAction-to-AssistantActionType" style="stroke:#181818;stroke-width:1.0;"/><polygon fill="#181818" points="268.63,1944.12,273.2753,1935.4355,268.9944,1939.1333,265.2966,1934.8524,268.63,1944.12" style="stroke:#181818;stroke-width:1.0;"/><text fill="#000000" font-family="sans-serif" font-size="13" lengthAdjust="spacing" textLength="27" x="277.78" y="1845.1484">type</text></g><!--link UserTrait to TraitId--><g id="link_UserTrait_TraitId"><path codeLine="162" d="M735.95,1785.51 C760.56,1810.8 789.556,1840.5995 821.876,1873.8195 " fill="none" id="UserTrait-to-TraitId" style="stroke:#181818;stroke-width:1.0;"/><polygon fill="#181818" points="826.06,1878.12,822.651,1868.8799,822.5733,1874.5363,816.917,1874.4586,826.06,1878.12" style="stroke:#181818;stroke-width:1.0;"/><text fill="#000000" font-family="sans-serif" font-size="13" lengthAdjust="spacing" textLength="12" x="796.62" y="1845.1484">id</text></g><!--link GameMechanic to TraitId--><g id="link_GameMechanic_TraitId"><path codeLine="163" d="M1007.36,1801.88 C998.96,1824.63 991.0358,1846.1205 981.2458,1872.6705 " fill="none" id="GameMechanic-to-TraitId" style="stroke:#181818;stroke-width:1.0;"/><polygon fill="#181818" points="979.17,1878.3,986.0367,1871.2397,980.8998,1873.6088,978.5307,1868.4719,979.17,1878.3" style="stroke:#181818;stroke-width:1.0;"/><text fill="#000000" font-family="sans-serif" font-size="13" lengthAdjust="spacing" textLength="49" x="997.09" y="1845.1484">weights</text></g><!--link HomeScreen to EventBus--><g id="link_HomeScreen_EventBus"><path codeLine="206" d="M663.96,670.86 C661.49,697.59 658.0033,735.4056 655.3333,764.2356 " fill="none" id="HomeScreen-to-EventBus" style="stroke:#181818;stroke-width:1.0;"/><polygon fill="#181818" points="654.78,770.21,659.5929,761.6172,655.2411,765.2313,651.627,760.8795,654.78,770.21" style="stroke:#181818;stroke-width:1.0;"/><text fill="#000000" font-family="sans-serif" font-size="13" lengthAdjust="spacing" textLength="171" x="661.79" y="716.0884">emitEvent("screen/viewed")</text></g><!--link OtherScreens to EventBus--><g id="link_OtherScreens_EventBus"><path codeLine="207" d="M527.25,670.94 C538.15,685.38 552.86,704.04 567.12,719.52 C583.41,737.21 598.4673,751.6083 614.6873,766.2583 " fill="none" id="OtherScreens-to-EventBus" style="stroke:#181818;stroke-width:1.0;"/><polygon fill="#181818" points="619.14,770.28,615.1421,761.2791,615.4295,766.9286,609.7799,767.2159,619.14,770.28" style="stroke:#181818;stroke-width:1.0;"/><text fill="#000000" font-family="sans-serif" font-size="13" lengthAdjust="spacing" textLength="82" x="568.12" y="716.0884">emitEvent(...)</text></g><!--link EventBus to KeySituationEngine--><g id="link_EventBus_KeySituationEngine"><path codeLine="209" d="M681.83,770.36 C699.82,754.85 724.07,736.98 749.12,727.52 C787.52,713.03 800.53,725.6 841.12,719.52 C893.71,711.65 924.68,735.86 958.12,694.52 C1089.64,531.93 869.2478,298.697 754.1278,194.467 " fill="none" id="EventBus-to-KeySituationEngine" style="stroke:#181818;stroke-width:1.0;"/><polygon fill="#181818" points="749.68,190.44,753.667,199.4458,753.3865,193.7959,759.0364,193.5154,749.68,190.44" style="stroke:#181818;stroke-width:1.0;"/><text fill="#000000" font-family="sans-serif" font-size="13" lengthAdjust="spacing" textLength="70" x="996.17" y="478.8584">onEvent(...)</text></g><!--link VisitHomeFirstTimePerDay to KeySituationBus--><g id="link_VisitHomeFirstTimePerDay_KeySituationBus"><path codeLine="210" d="M639.62,348.32 C635.28,371.29 630.9031,394.4641 626.3231,418.7241 " fill="none" id="VisitHomeFirstTimePerDay-to-KeySituationBus" style="stroke:#181818;stroke-width:1.0;"/><polygon fill="#181818" points="625.21,424.62,630.8102,416.5183,626.1376,419.7068,622.949,415.0342,625.21,424.62" style="stroke:#181818;stroke-width:1.0;"/><text fill="#000000" font-family="sans-serif" font-size="13" lengthAdjust="spacing" textLength="198" x="634.48" y="391.6284">if{evaluated positive} emitKS(...)</text></g><!--link KeySituationBus to GlobalModal--><g id="link_KeySituationBus_GlobalModal"><path codeLine="212" d="M682.21,522.8 C726.87,555.25 779.0255,593.1438 814.0755,618.6038 " fill="none" id="KeySituationBus-to-GlobalModal" style="stroke:#181818;stroke-width:1.0;"/><polygon fill="#181818" points="818.93,622.13,813.9991,613.6044,814.8846,619.1915,809.2975,620.077,818.93,622.13" style="stroke:#181818;stroke-width:1.0;"/><text fill="#000000" font-family="sans-serif" font-size="13" lengthAdjust="spacing" textLength="102" x="748.69" y="568.0884">listener.onKS(...)</text></g><!--link KeySituationBus to OtherUI--><g id="link_KeySituationBus_OtherUI"><path codeLine="213" d="M517.69,522.8 C451.17,555.25 371.6627,594.0397 319.4627,619.4997 " fill="none" id="KeySituationBus-to-OtherUI" style="stroke:#181818;stroke-width:1.0;"/><polygon fill="#181818" points="314.07,622.13,323.9126,621.7798,318.564,619.9381,320.4056,614.5894,314.07,622.13" style="stroke:#181818;stroke-width:1.0;"/><text fill="#000000" font-family="sans-serif" font-size="13" lengthAdjust="spacing" textLength="102" x="452.61" y="568.0884">listener.onKS(...)</text></g><!--link EventBus to EventRoute--><g id="link_EventBus_EventRoute"><path codeLine="215" d="M614.92,829.84 C591.55,846.45 560.07,866.21 529.12,877.5 C432.52,912.73 394.49,869.66 300.12,910.5 C276.99,920.51 259.2161,933.8 242.3061,949.2 " fill="none" id="EventBus-to-EventRoute" style="stroke:#181818;stroke-width:1.0;"/><polygon fill="#181818" points="237.87,953.24,247.2174,950.1375,241.5667,949.8734,241.8308,944.2227,237.87,953.24" style="stroke:#181818;stroke-width:1.0;"/><text fill="#000000" font-family="sans-serif" font-size="13" lengthAdjust="spacing" textLength="91" x="502.78" y="899.0684">POST /events/</text></g><!--link KeySituationBus to KeySituationRoute--><g id="link_KeySituationBus_KeySituationRoute"><path codeLine="216" d="M782.8,522.9 C865.9,547.39 950.45,573.3 958.12,579.52 C1064.84,666 1100.92,754.33 1040.12,877.5 C1024.13,909.9 998.226,932.0429 969.456,949.9229 " fill="none" id="KeySituationBus-to-KeySituationRoute" style="stroke:#181818;stroke-width:1.0;"/><polygon fill="#181818" points="964.36,953.09,974.1154,951.7367,968.6067,950.4508,969.8927,944.942,964.36,953.09" style="stroke:#181818;stroke-width:1.0;"/><text fill="#000000" font-family="sans-serif" font-size="13" lengthAdjust="spacing" textLength="143" x="1064.24" y="716.0884">POST /key-situations/</text></g><!--link MetricQueries to DB--><g id="link_MetricQueries_DB"><path codeLine="218" d="M1188.37,1372.05 C1201.07,1376.74 1214.34,1381.04 1227.12,1384.16 C1357.3,1415.92 1396.43,1384.57 1527.12,1414.16 C1782.36,1471.94 1924.14,1404.24 2081.12,1613.62 C2098.21,1636.415 2100.415,1668.26 2098.2475,1694.7238 C2097.9766,1698.0317 2097.6373,1701.2556 2097.2503,1704.3672 C2097.2261,1704.5617 2097.9568,1698.8034 2097.9322,1698.997 " fill="none" id="MetricQueries-to-DB" style="stroke:#181818;stroke-width:1.0;"/><polygon fill="#181818" points="2097.1771,1704.9493,2102.278,1696.5243,2097.8064,1699.9891,2094.3416,1695.5175,2097.1771,1704.9493" style="stroke:#181818;stroke-width:1.0;"/><text fill="#000000" font-family="sans-serif" font-size="13" lengthAdjust="spacing" textLength="86" x="2030.18" y="1514.9584">query metrics</text></g><!--link GlobalModal to AssistantActionRoute--><g id="link_GlobalModal_AssistantActionRoute"><path codeLine="220" d="M850.37,671.01 C849.38,685.32 847.14,703.8 842.12,719.52 C817.87,795.48 820.84,829.58 757.12,877.5 C701.52,919.31 669.85,887.73 604.12,910.5 C571.37,921.84 541.8372,935.7201 513.7772,950.3901 " fill="none" id="GlobalModal-to-AssistantActionRoute" style="stroke:#181818;stroke-width:1.0;"/><polygon fill="#181818" points="508.46,953.17,518.289,952.545,512.891,950.8534,514.5825,945.4554,508.46,953.17" style="stroke:#181818;stroke-width:1.0;"/><text fill="#000000" font-family="sans-serif" font-size="13" lengthAdjust="spacing" textLength="191" x="840.04" y="805.0784">/getAssistantActions/:userId/</text></g><!--link OtherUI to AssistantActionRoute--><g id="link_OtherUI_AssistantActionRoute"><path codeLine="221" d="M271.88,670.7 C283.21,713.7 311.13,807.83 354.12,877.5 C371.47,905.62 392.4416,928.8436 412.9616,948.9236 " fill="none" id="OtherUI-to-AssistantActionRoute" style="stroke:#181818;stroke-width:1.0;"/><polygon fill="#181818" points="417.25,953.12,413.6151,943.9665,413.6764,949.623,408.0198,949.6843,417.25,953.12" style="stroke:#181818;stroke-width:1.0;"/><text fill="#000000" font-family="sans-serif" font-size="13" lengthAdjust="spacing" textLength="191" x="355.12" y="805.0784">/getAssistantActions/:userId/</text></g><!--reverse link AssistantActionCatalog to AssistantAction--><g id="link_AssistantActionCatalog_AssistantAction"><path codeLine="223" d="M283.12,1554.28 C283.12,1591.37 283.12,1641.8 283.12,1687.32 " fill="none" id="AssistantActionCatalog-backto-AssistantAction" style="stroke:#181818;stroke-width:1.0;"/><polygon fill="none" points="283.12,1542.28,279.12,1548.28,283.12,1554.28,287.12,1548.28,283.12,1542.28" style="stroke:#181818;stroke-width:1.0;"/><text fill="#000000" font-family="sans-serif" font-size="13" lengthAdjust="spacing" textLength="22" x="284.12" y="1602.1884">has</text><text fill="#000000" font-family="sans-serif" font-size="13" lengthAdjust="spacing" textLength="8" x="271.42" y="1563.0114">1</text><text fill="#000000" font-family="sans-serif" font-size="13" lengthAdjust="spacing" textLength="22" x="259.7794" y="1677.0126">1..*</text></g><!--link AssistantActionRoute to MotivationalEngine--><g id="link_AssistantActionRoute_MotivationalEngine"><path codeLine="225" d="M452.12,1018.44 C452.12,1039.9 452.12,1062.92 452.12,1088.72 " fill="none" id="AssistantActionRoute-to-MotivationalEngine" style="stroke:#181818;stroke-width:1.0;"/><polygon fill="#181818" points="452.12,1094.72,456.12,1085.72,452.12,1089.72,448.12,1085.72,452.12,1094.72" style="stroke:#181818;stroke-width:1.0;"/><text fill="#000000" font-family="sans-serif" font-size="13" lengthAdjust="spacing" textLength="135" x="453.12" y="1061.5584">getAssistantActions()</text></g><!--link AssistantAction to Condition--><g id="link_AssistantAction_Condition"><path codeLine="227" d="M342.44,1801.88 C394.3,1851.08 467.71,1920.73 509.87,1960.72 " fill="none" id="AssistantAction-Condition" style="stroke:#181818;stroke-width:1.0;"/><text fill="#000000" font-family="sans-serif" font-size="13" lengthAdjust="spacing" textLength="22" x="390.83" y="1845.1484">has</text><text fill="#000000" font-family="sans-serif" font-size="13" lengthAdjust="spacing" textLength="8" x="360.0255" y="1822.545">1</text><text fill="#000000" font-family="sans-serif" font-size="13" lengthAdjust="spacing" textLength="22" x="478.7434" y="1950.0613">0..*</text></g><!--link AssistantActionsEngine to AssistantActionCatalog--><g id="link_AssistantActionsEngine_AssistantActionCatalog"><path codeLine="229" d="M322.93,1384.64 C313.62,1413.7 303.491,1445.3162 295.121,1471.4362 " fill="none" id="AssistantActionsEngine-to-AssistantActionCatalog" style="stroke:#181818;stroke-width:1.0;"/><polygon fill="#181818" points="293.29,1477.15,299.8456,1469.7999,294.8158,1472.3885,292.2272,1467.3587,293.29,1477.15" style="stroke:#181818;stroke-width:1.0;"/><text fill="#000000" font-family="sans-serif" font-size="13" lengthAdjust="spacing" textLength="108" x="314.35" y="1427.7284">evaluate(context)</text></g><!--link MetricQueries to Metric--><g id="link_MetricQueries_Metric"><path codeLine="231" d="M1140.07,1372.06 C1158.15,1397.04 1180.1519,1427.4296 1200.7519,1455.8896 " fill="none" id="MetricQueries-to-Metric" style="stroke:#181818;stroke-width:1.0;"/><polygon fill="#181818" points="1204.27,1460.75,1202.2332,1451.1141,1201.3383,1456.6997,1195.7527,1455.8048,1204.27,1460.75" style="stroke:#181818;stroke-width:1.0;"/><text fill="#000000" font-family="sans-serif" font-size="13" lengthAdjust="spacing" textLength="45" x="1182.78" y="1427.7284">returns</text></g><!--link MetricQueries to WorkplansRoute--><g id="link_MetricQueries_WorkplansRoute"><path codeLine="232" d="M1084.91,1372.01 C1072.59,1384.69 1058.73,1399.7 1047.12,1414.16 C1033.2,1431.49 1022.4906,1446.7663 1011.1606,1464.1163 " fill="none" id="MetricQueries-to-WorkplansRoute" style="stroke:#181818;stroke-width:1.0;"/><polygon fill="#181818" points="1007.88,1469.14,1016.15,1463.7915,1010.6138,1464.9536,1009.4518,1459.4174,1007.88,1469.14" style="stroke:#181818;stroke-width:1.0;"/><text fill="#000000" font-family="sans-serif" font-size="13" lengthAdjust="spacing" textLength="114" x="1048.12" y="1427.7284">getActivePlanData</text></g><!--link WorkplansRoute to DB--><g id="link_WorkplansRoute_DB"><path codeLine="233" d="M1097.18,1550.81 C1108.22,1553.8 1119.33,1556.48 1130.12,1558.62 C1196.15,1571.72 1666.89,1602.24 1734.12,1605.62 C1743.75,1606.11 2074.17,1606.94 2081.12,1613.62 C2101.645,1633.375 2103.9025,1665.1725 2100.9025,1692.3725 C2100.1525,1699.1725 2099.0739,1705.6852 2097.87,1711.6505 C2097.7195,1712.3961 2097.5671,1713.1332 2097.4131,1713.8613 C2097.3361,1714.2253 2098.527,1708.7227 2098.4492,1709.0821 " fill="none" id="WorkplansRoute-to-DB" style="stroke:#181818;stroke-width:1.0;"/><polygon fill="#181818" points="2097.1809,1714.9465,2102.993,1706.9954,2098.2378,1710.0595,2095.1738,1705.3044,2097.1809,1714.9465" style="stroke:#181818;stroke-width:1.0;"/><text fill="#000000" font-family="sans-serif" font-size="13" lengthAdjust="spacing" textLength="128" x="1735.12" y="1602.1884">query workplan data</text></g><!--link MotivationalEngine to AssistantActionsEngine--><g id="link_MotivationalEngine_AssistantActionsEngine"><path codeLine="235" d="M365.23,1218.02 C356.95,1227.04 349.6,1236.92 344.12,1247.56 C336.81,1261.76 334.3631,1272.8931 333.8631,1288.4231 " fill="none" id="MotivationalEngine-to-AssistantActionsEngine" style="stroke:#181818;stroke-width:1.0;"/><polygon fill="#181818" points="333.67,1294.42,337.9575,1285.5534,333.8309,1289.4226,329.9617,1285.2959,333.67,1294.42" style="stroke:#181818;stroke-width:1.0;"/><text fill="#000000" font-family="sans-serif" font-size="13" lengthAdjust="spacing" textLength="291" x="345.12" y="1261.1284">getActiveActions(context)&lt;AssistantAction[]&gt;</text></g><!--link MotivationalEngine to MotivationalEngine--><g id="link_MotivationalEngine_MotivationalEngine"><path codeLine="236" d="M545.6,1147.21 C565.63,1148.11 580.12,1151.13 580.12,1156.27 C580.12,1161.42 571.624,1164.1707 551.594,1165.0707 " fill="none" id="MotivationalEngine-to-MotivationalEngine" style="stroke:#181818;stroke-width:1.0;"/><polygon fill="#181818" points="545.6,1165.34,554.7705,1168.932,550.595,1165.1156,554.4114,1160.94,545.6,1165.34" style="stroke:#181818;stroke-width:1.0;"/><text fill="#000000" font-family="sans-serif" font-size="13" lengthAdjust="spacing" textLength="125" x="586.12" y="1161.3384">buildMetrics(userId)</text></g><!--link MotivationalEngine to MotivationalEngine--><g id="link_MotivationalEngine_MotivationalEngine"><path codeLine="237" d="M545.55,1139.6 C623.95,1134.13 717.12,1139.68 717.12,1156.27 C717.12,1172.87 629.9354,1178.8376 551.5354,1173.3676 " fill="none" id="MotivationalEngine-to-MotivationalEngine-1" style="stroke:#181818;stroke-width:1.0;"/><polygon fill="#181818" points="545.55,1172.95,554.2498,1177.5667,550.5379,1173.298,554.8066,1169.5861,545.55,1172.95" style="stroke:#181818;stroke-width:1.0;"/><text fill="#000000" font-family="sans-serif" font-size="13" lengthAdjust="spacing" textLength="129" x="723.12" y="1161.3384">buildContext(userId)</text></g><!--link MotivationalEngine to MetricQueries--><g id="link_MotivationalEngine_MetricQueries"><path codeLine="238" d="M545.4,1161.47 C694.76,1169.76 979.2,1192.45 1062.12,1247.56 C1083.15,1261.54 1095.0437,1281.0506 1103.7737,1301.2906 " fill="none" id="MotivationalEngine-to-MetricQueries" style="stroke:#181818;stroke-width:1.0;"/><polygon fill="#181818" points="1106.15,1306.8,1106.2584,1296.9517,1104.1697,1302.2089,1098.9126,1300.1202,1106.15,1306.8" style="stroke:#181818;stroke-width:1.0;"/><text fill="#000000" font-family="sans-serif" font-size="13" lengthAdjust="spacing" textLength="133" x="1080.2" y="1261.1284">uses to build metrics</text></g><!--link MotivationalEngine to UserTraitEngine--><g id="link_MotivationalEngine_UserTraitEngine"><path codeLine="239" d="M545.39,1186.59 C578.86,1200.76 614.79,1220.66 641.12,1247.56 C656,1262.77 664.0628,1278.6586 670.4828,1296.9486 " fill="none" id="MotivationalEngine-to-UserTraitEngine" style="stroke:#181818;stroke-width:1.0;"/><polygon fill="#181818" points="672.47,1302.61,673.2634,1292.7932,670.814,1297.8922,665.715,1295.4428,672.47,1302.61" style="stroke:#181818;stroke-width:1.0;"/><text fill="#000000" font-family="sans-serif" font-size="13" lengthAdjust="spacing" textLength="131" x="655.42" y="1261.1284">getUserTraits(userId)</text></g><!--link UserTraitEngine to UserTraitQueries--><g id="link_UserTraitEngine_UserTraitQueries"><path codeLine="240" d="M685.3,1376.1 C687.97,1406.05 691.208,1442.4436 693.768,1471.2036 " fill="none" id="UserTraitEngine-to-UserTraitQueries" style="stroke:#181818;stroke-width:1.0;"/><polygon fill="#181818" points="694.3,1477.18,697.4863,1467.8608,693.8567,1472.1997,689.5178,1468.5701,694.3,1477.18" style="stroke:#181818;stroke-width:1.0;"/><text fill="#000000" font-family="sans-serif" font-size="13" lengthAdjust="spacing" textLength="29" x="691.07" y="1427.7284">uses</text></g><!--link UserTraitEngine to UserTrait--><g id="link_UserTraitEngine_UserTrait"><path codeLine="241" d="M599.76,1376.19 C565.17,1395.88 528.51,1423.97 509.12,1461.16 C489.09,1499.57 492.38,1518.67 509.12,1558.62 C534.69,1619.65 586.4674,1667.1503 630.9274,1700.0603 " fill="none" id="UserTraitEngine-to-UserTrait" style="stroke:#181818;stroke-width:1.0;"/><polygon fill="#181818" points="635.75,1703.63,630.896,1695.0604,631.7312,1700.6552,626.1363,1701.4904,635.75,1703.63" style="stroke:#181818;stroke-width:1.0;"/><text fill="#000000" font-family="sans-serif" font-size="13" lengthAdjust="spacing" textLength="46" x="510.12" y="1514.9584">create()</text></g><!--link UserTraitQueries to UserTrait--><g id="link_UserTraitQueries_UserTrait"><path codeLine="242" d="M697.12,1542.28 C697.12,1584.08 697.12,1652.08 697.12,1697.77 " fill="none" id="UserTraitQueries-to-UserTrait" style="stroke:#181818;stroke-width:1.0;"/><polygon fill="#181818" points="697.12,1703.77,701.12,1694.77,697.12,1698.77,693.12,1694.77,697.12,1703.77" style="stroke:#181818;stroke-width:1.0;"/><text fill="#000000" font-family="sans-serif" font-size="13" lengthAdjust="spacing" textLength="45" x="698.12" y="1602.1884">returns</text></g><!--link UserTraitQueries to DB--><g id="link_UserTraitQueries_DB"><path codeLine="243" d="M778.31,1542.55 C797.35,1548.86 817.73,1554.73 837.12,1558.62 C1028.85,1597.17 1082.17,1563.57 1276.12,1588.62 C1316.06,1593.78 1325.05,1601.61 1365.12,1605.62 C1375.02,1606.62 2073.91,1606.77 2081.12,1613.62 C2101.765,1633.25 2104.025,1665.045 2100.9962,1692.275 C2100.2391,1699.0825 2099.1513,1705.6047 2097.9377,1711.5802 C2097.786,1712.3271 2097.6323,1713.0655 2097.4771,1713.7948 C2097.3994,1714.1595 2097.3214,1714.5219 2097.2431,1714.882 C2097.2039,1715.062 2098.4535,1709.3815 2098.4142,1709.5604 " fill="none" id="UserTraitQueries-to-DB" style="stroke:#181818;stroke-width:1.0;"/><polygon fill="#181818" points="2097.1253,1715.4203,2102.9652,1707.4897,2098.1994,1710.5371,2095.152,1705.7712,2097.1253,1715.4203" style="stroke:#181818;stroke-width:1.0;"/><text fill="#000000" font-family="sans-serif" font-size="13" lengthAdjust="spacing" textLength="105" x="1366.12" y="1602.1884">Query UserTraits</text></g><!--reverse link MotivationalMechanicsCatalog to GameMechanic--><g id="link_MotivationalMechanicsCatalog_GameMechanic"><path codeLine="245" d="M1387.0048,1546.2506 C1370.2548,1551.6806 1364.41,1553.52 1348.12,1558.62 C1303.84,1572.5 1289.85,1568.33 1248.12,1588.62 C1193.5,1615.18 1137.62,1654.73 1095.85,1687.23 " fill="none" id="MotivationalMechanicsCatalog-backto-GameMechanic" style="stroke:#181818;stroke-width:1.0;"/><polygon fill="#181818" points="1398.42,1542.55,1391.4789,1540.5952,1387.0048,1546.2506,1393.9459,1548.2053,1398.42,1542.55" style="stroke:#181818;stroke-width:1.0;"/><text fill="#000000" font-family="sans-serif" font-size="13" lengthAdjust="spacing" textLength="22" x="1249.12" y="1602.1884">has</text><text fill="#000000" font-family="sans-serif" font-size="13" lengthAdjust="spacing" textLength="8" x="1349.2937" y="1550.5592">1</text><text fill="#000000" font-family="sans-serif" font-size="13" lengthAdjust="spacing" textLength="22" x="1080.764" y="1676.9117">1..*</text></g><!--link HomeScreen to MotivationalMechanicRoute--><g id="link_HomeScreen_MotivationalMechanicRoute"><path codeLine="247" d="M697.07,671 C710.52,679.94 726.89,689.24 743.12,694.52 C764.11,701.35 825.05,688.53 842.12,702.52 C904.68,753.79 830.02,825.68 892.12,877.5 C949.38,925.29 1172.14,859.03 1226.12,910.5 C1284.25,965.93 1277.5963,1065.0635 1269.2863,1117.6635 " fill="none" id="HomeScreen-to-MotivationalMechanicRoute" style="stroke:#181818;stroke-width:1.0;"/><polygon fill="#181818" points="1268.35,1123.59,1273.7054,1115.3245,1269.1302,1118.6513,1265.8034,1114.0761,1268.35,1123.59" style="stroke:#181818;stroke-width:1.0;"/><text fill="#000000" font-family="sans-serif" font-size="13" lengthAdjust="spacing" textLength="251" x="1215.32" y="899.0684">getWeightedMechanicsForPlayer/:userId</text></g><!--link MotivationalMechanicRoute to MechanicsQueries--><g id="link_MotivationalMechanicRoute_MechanicsQueries"><path codeLine="249" d="M1289.29,1188.82 C1317.84,1221.95 1358.5541,1269.2141 1387.0841,1302.3341 " fill="none" id="MotivationalMechanicRoute-to-MechanicsQueries" style="stroke:#181818;stroke-width:1.0;"/><polygon fill="#181818" points="1391,1306.88,1388.1567,1297.4505,1387.7367,1303.0917,1382.0955,1302.6717,1391,1306.88" style="stroke:#181818;stroke-width:1.0;"/><text fill="#000000" font-family="sans-serif" font-size="13" lengthAdjust="spacing" textLength="215" x="1355.09" y="1261.1284">getWeightedMechanics(userTraits)</text></g><!--link MotivationalMechanicRoute to UserTraitEngine--><g id="link_MotivationalMechanicRoute_UserTraitEngine"><path codeLine="251" d="M1132.05,1189.02 C1069.13,1205.16 992.76,1225.92 925.12,1247.56 C873.97,1263.93 823.3367,1282.5874 777.8667,1300.1574 " fill="none" id="MotivationalMechanicRoute-to-UserTraitEngine" style="stroke:#181818;stroke-width:1.0;"/><polygon fill="#181818" points="772.27,1302.32,782.1068,1302.8072,776.9339,1300.5178,779.2233,1295.3449,772.27,1302.32" style="stroke:#181818;stroke-width:1.0;"/><text fill="#000000" font-family="sans-serif" font-size="13" lengthAdjust="spacing" textLength="131" x="926.12" y="1261.1284">getUserTraits(userId)</text></g><!--link MechanicsQueries to MotivationalMechanicsCatalog--><g id="link_MechanicsQueries_MotivationalMechanicsCatalog"><path codeLine="253" d="M1432.42,1372.06 C1446,1402.19 1463.8527,1441.7808 1477.4227,1471.8608 " fill="none" id="MechanicsQueries-to-MotivationalMechanicsCatalog" style="stroke:#181818;stroke-width:1.0;"/><polygon fill="#181818" points="1479.89,1477.33,1479.8352,1467.4813,1477.8339,1472.7723,1472.5429,1470.7711,1479.89,1477.33" style="stroke:#181818;stroke-width:1.0;"/><text fill="#000000" font-family="sans-serif" font-size="13" lengthAdjust="spacing" textLength="59" x="1459.4" y="1427.7284">evaluates</text></g><!--link Condition to UserContext--><g id="link_Condition_UserContext"><path codeLine="255" d="M528.9,2025.78 C511.12,2065.2 482.6775,2128.2409 459.7675,2179.0209 " fill="none" id="Condition-to-UserContext" style="stroke:#181818;stroke-width:1.0;"/><polygon fill="#181818" points="457.3,2184.49,464.6473,2177.9313,459.3562,2179.9324,457.3551,2174.6413,457.3,2184.49" style="stroke:#181818;stroke-width:1.0;"/><text fill="#000000" font-family="sans-serif" font-size="13" lengthAdjust="spacing" textLength="102" x="476.32" y="2151.5184">uses to evaluate</text></g><!--link MotivationalEngine to UserContext--><g id="link_MotivationalEngine_UserContext"><path codeLine="256" d="M358.86,1170.17 C284.27,1185.85 184.03,1220.18 133.12,1294.56 C91.27,1355.7 128.45,1387.08 127.12,1461.16 C121.94,1749 6,1866.08 162.12,2107.95 C182.68,2139.8 207.7739,2161.8449 240.5839,2181.5149 " fill="none" id="MotivationalEngine-to-UserContext" style="stroke:#181818;stroke-width:1.0;"/><polygon fill="#181818" points="245.73,2184.6,240.0677,2176.5416,241.4416,2182.0291,235.9542,2183.403,245.73,2184.6" style="stroke:#181818;stroke-width:1.0;"/><text fill="#000000" font-family="sans-serif" font-size="13" lengthAdjust="spacing" textLength="39" x="118.52" y="1602.1884">builds</text></g><!--SRC=[hLXjSzis4lvy_1KO-ejaHtRIJYyDHzKC8yin9xAbIehJNY-ZWKX8GasHAa7QrVNwts_nHe8W6VTkJfwnI61VdbtiBdR57cbon1a-e30z7DE49FaoFyK4PIJCSRABYSDA4hR7KVfCantQufWHnzWAOymO-iD1w3qE7tTPMYJHE8tJ39rjnOVlf5b4Ch4w799aHnCo6g6pr-9ZKApsD7nC26C6rJVEduvp1D5uHz1DbYOvIIAXJo-wdm8qnIUIkM8PAKYtwO4imuoGn5YSvNkIoLLcB7-8qmsExz88nmWpvCft91Tw83mjyhvhom6zd5Wy8tZfRN2Ia8nTuOGUS4xJX5tjy84mmGfc69WdJ-1m3Vji-uR_rU0BWlS54ohqop-J7ZdGN39VeJGHJtsG48gFy6LDqKToMjAy46Y4DdH6lj_YxRQcpAIQ2CyZyw0sc-thaWCXLcnOcD4DcEeXFylmQTZJK4QAPa0JcbCSqt-Ho4ERD8q9JjJUHPG6iDlhU-WffP5O5Q0rd0VAQCxFxuPcB5_H0vcJx1gV6aWkk5eS0t3I8nwI1_j0oJE991n30r1pttrSzlfA8__VuGJjU6lDLG04LmaYfWo24ho1Va09UKPt-3XaUGRfyWejIJxi7V4fJZ7u0IUdFlfX942DHWg83KoOPS0KNoqdT3uOT7ggYsSm67LxrqELEqKSWMx-AOEMPpXadyopfjCMa2L4dv7qpeKxdorNwEgHd0PCqx6hSrTO9smpmbq9qB6CwZ889sdZlIFWx50nRoFy7VxEOFum0Tw386dXzHc3qyD9xeU62I4EiIrYHtABc5rv1IDP45sL-Lr2IdFw98o5iaB2FLI44k2MVBlvU-KWBVmpeRjzJY9DpcxIR1xpbDLgt3QpVon8HWbh6WuY9KLFVWLHNuIx8U4JYCqpJ7DW9tZxzjrRssYkU219Mfp7-LTyimHXIzcIFDoNPAmd3V5GKXoWVBI86_C2_tiEvhpTa2sf925Qigc5W-7ZPGunwo4tnXiIUuWc64xeYQ1_epXzXl_eG29Q7E1f3rvsLTvVe4SZV5Ud8uWm0_gQR4KPInFdRqAZS2GKlJdEU74RBaW85zTGE_YLEfFHID8NfU5UvQjVlW2Af8XZwpGDQvebM7bXO4UWf2mFtDvMDUHYKz0uKgxjzP6nA06p5zA2jLmAzHmXgcuq4CWJVzNmj4GsuA35KPc8sqAi1O4TR23hXL13YC2hRHs7OzbpNqGxwLO_XXmHJn3aZ9Cdc6P4YMlrbYKh5t7LefC7IPWcaOWm296nVlxbYzg2QoNtaBnBLCHgH_UCRD76sJXujM-prHEOEazxZ7CSfplxY74SswSBDrfz1P3NZgyq2HBw-sZpxfkoxeLx4Zvwg1VclnlEqGRnIx9g6hXjLjbhrZjH87GcgYNkAsALZMEnYO6_E4RWnSW7_rwh-mwrX5qLPIe3HJ7qaDXyuEAbM2bEh5OXB89Dh0LH8rpdayLoTkzFrtV-SZLP_2opyjPVNAy_pnOVvUjYClLNmUn-lPgjPwjRO5b_cFdJfTWSp-xcarMm2XucwybFuybqEhaVJoJZZHzCFoqcQ_zX5bpxvR8_lWqc3vE5H33rVrQFry5oyMc-cgcDss3gtwzk5xDvi5o9fULi7FZJu1-A_cOncQoNys0HhBhBM7cJbG6bxpvzPX-WEowfF6I-sf5axZK5eGIshKo92EzIZnoBjICk1m5ot9f-vryKuREuas6FjtJg85-fS1gfmAn2XQURFcsuWtWGrb3NzvLiypvNZgYkTClAjYu1zJfk6QkGVawpnsEC4wRQa9ZBsV5-kVHXrUU8YWpDHmAfWMjT3gThKAY81ssG17Y36VIA_l48QIQSZAxVkxoRldwFpg9t_4-P1DMDvYVa5gp06KsP7k1ejEOgkHDXpXaEvnz7SguW1qnZM7x26PWlC_e8rZt3BMmjWz7v6eAE9h31SpE7HhTAJAbOjfI6Mh7Gr9lBgbbNAtfwMFsLfMh4p0WlAMkSVqKbt8FhgXCsL3-olwGNudYt8zbBQevPGJPuVV__LI07Wcgo5Y5TJgeUAeVJdii4mTMJ6CRSlcDEtjribvUNVSSfjpXTonJZwSbNqdSED3Qxr4QtV-XBD4B757WXbFz4QWQJ26mkBidyaS13UkYx5BEQu6fZqZyKj3BK3JL68EWmpP6dLN9pyj9Srh3bEFL9WJD3AdheDrWuwQRMSKpxMZe7hUEhWv2ZxVsV1JXgoBpiQ4hSDovAOV9rtrnUdhkeWnhKx37Or0g1OsjfjptKta5t8H9GE9BNDIHLozEEWHcZ-0ksUbMt5-fEh-KmLKVaeOpaHPQm5XAh-dlD6kvO95QKFAjTNWymW6Ywh-N4MSspjJPVspFqxGPor2MyzSXgGuoCeVv_Bq2FHYy9gFdLu_CTGtagPPI9rC5iJJB29urnfU_O0q-DLQcMchzEwgdhg6U8D2EYQbkgk6ab547memY22cuz0XgD7i-Cyof9QrsGoWhh4kd-mKGuwkKVHzeH6GblTrVjSerkgl-IIDl_NKVgD7HtMSoQcG-kgYgArgf_9Qb2K9D_BVegBX6mx3y0]--></g></svg>