<?xml version="1.0" encoding="us-ascii" standalone="no"?><svg xmlns="http://www.w3.org/2000/svg" xmlns:xlink="http://www.w3.org/1999/xlink" contentStyleType="text/css" height="497px" preserveAspectRatio="none" style="width:932px;height:497px;background:#FFFFFF;" version="1.1" viewBox="0 0 932 497" width="932px" zoomAndPan="magnify"><defs/><g><!--entity AssistantActions--><g id="elem_AssistantActions"><rect fill="#E8E8FF" height="34.1328" rx="2.5" ry="2.5" style="stroke:#181818;stroke-width:0.5;" width="112" x="276.5" y="187.27"/><text fill="#000000" font-family="sans-serif" font-size="12" lengthAdjust="spacing" textLength="92" x="286.5" y="208.8716">AssistantActions</text></g><!--entity EventRegistration--><g id="elem_EventRegistration"><rect fill="#F1F1F1" height="34.1328" rx="2.5" ry="2.5" style="stroke:#181818;stroke-width:0.5;" width="119" x="7" y="7"/><text fill="#000000" font-family="sans-serif" font-size="12" lengthAdjust="spacing" textLength="99" x="17" y="28.6016">EventRegistration</text></g><!--entity KeySituations--><g id="elem_KeySituations"><rect fill="#E8FAFF" height="34.1328" rx="2.5" ry="2.5" style="stroke:#181818;stroke-width:0.5;" width="95" x="154" y="97.14"/><text fill="#000000" font-family="sans-serif" font-size="12" lengthAdjust="spacing" textLength="75" x="164" y="118.7416">KeySituations</text></g><!--entity Metrics--><g id="elem_Metrics"><rect fill="#FFE8E8" height="34.1328" rx="2.5" ry="2.5" style="stroke:#181818;stroke-width:0.5;" width="61" x="143" y="457.67"/><text fill="#000000" font-family="sans-serif" font-size="12" lengthAdjust="spacing" textLength="41" x="153" y="479.2716">Metrics</text></g><!--entity MotivationalMechanics--><g id="elem_MotivationalMechanics"><rect fill="#FFF6E8" height="34.1328" rx="2.5" ry="2.5" style="stroke:#181818;stroke-width:0.5;" width="147" x="653" y="277.4"/><text fill="#000000" font-family="sans-serif" font-size="12" lengthAdjust="spacing" textLength="127" x="663" y="299.0016">MotivationalMechanics</text></g><!--entity Usertrait_Mechanic_Mapping--><g id="elem_Usertrait_Mechanic_Mapping"><rect fill="#FFFFFF" height="34.1328" rx="2.5" ry="2.5" style="stroke:#181818;stroke-width:0.5;" width="184" x="742.5" y="187.27"/><text fill="#000000" font-family="sans-serif" font-size="12" lengthAdjust="spacing" textLength="164" x="752.5" y="208.8716">Usertrait_Mechanic_Mapping</text></g><!--entity Plan_and_Tasks--><g id="elem_Plan_and_Tasks"><rect fill="#EBFFE8" height="34.1328" rx="2.5" ry="2.5" style="stroke:#181818;stroke-width:0.5;" width="112" x="355.5" y="457.67"/><text fill="#000000" font-family="sans-serif" font-size="12" lengthAdjust="spacing" textLength="92" x="365.5" y="479.2716">Plan_and_Tasks</text></g><!--entity UserModel--><g id="elem_UserModel"><rect fill="#FDE8FF" height="34.1328" rx="2.5" ry="2.5" style="stroke:#181818;stroke-width:0.5;" width="81" x="371" y="367.53"/><text fill="#000000" font-family="sans-serif" font-size="12" lengthAdjust="spacing" textLength="61" x="381" y="389.1316">UserModel</text></g><!--entity UserTraits--><g id="elem_UserTraits"><rect fill="#FCFFE8" height="34.1328" rx="2.5" ry="2.5" style="stroke:#181818;stroke-width:0.5;" width="79" x="630" y="457.67"/><text fill="#000000" font-family="sans-serif" font-size="12" lengthAdjust="spacing" textLength="59" x="640" y="479.2716">UserTraits</text></g><!--link Usertrait_Mechanic_Mapping to MotivationalMechanics--><g id="link_Usertrait_Mechanic_Mapping_MotivationalMechanics"><path d="M814.44,221.71 C795.04,237.54 770.4682,257.5861 751.0982,273.3961 " fill="none" id="Usertrait_Mechanic_Mapping-to-MotivationalMechanics" style="stroke:#181818;stroke-width:0.6;"/><polygon fill="#181818" points="746.45,277.19,755.9516,274.5979,750.3235,274.0284,750.8931,268.4003,746.45,277.19" style="stroke:#181818;stroke-width:0.6;"/><text fill="#000000" font-family="sans-serif" font-size="12" lengthAdjust="spacing" textLength="32" x="791.17" y="254.0016">maps</text></g><!--link Usertrait_Mechanic_Mapping to UserTraits--><g id="link_Usertrait_Mechanic_Mapping_UserTraits"><path d="M836.89,221.89 C839.23,243.76 840.54,282.86 825.5,311.53 C792.19,375.02 731.2395,427.1767 696.6895,453.6967 " fill="none" id="Usertrait_Mechanic_Mapping-to-UserTraits" style="stroke:#181818;stroke-width:0.6;"/><polygon fill="#181818" points="691.93,457.35,701.5049,455.043,695.8963,454.3056,696.6337,448.697,691.93,457.35" style="stroke:#181818;stroke-width:0.6;"/><text fill="#000000" font-family="sans-serif" font-size="12" lengthAdjust="spacing" textLength="32" x="814.74" y="344.1316">maps</text></g><!--link MotivationalMechanics to UserModel--><g id="link_MotivationalMechanics_UserModel"><path d="M691.31,311.97 C665.96,323.3 630.7,337.98 598.5,347.53 C549.05,362.21 496.364,371.5028 458.104,377.2228 " fill="none" id="MotivationalMechanics-to-UserModel" style="stroke:#181818;stroke-width:0.6;"/><polygon fill="#181818" points="452.17,378.11,461.6625,380.7353,457.115,377.3707,460.4796,372.8232,452.17,378.11" style="stroke:#181818;stroke-width:0.6;"/><text fill="#000000" font-family="sans-serif" font-size="12" lengthAdjust="spacing" textLength="68" x="642.57" y="344.1316">selected_by</text></g><!--link AssistantActions to MotivationalMechanics--><g id="link_AssistantActions_MotivationalMechanics"><path d="M388.84,208.85 C443.24,213.2 527.58,222.49 598.5,241.4 C631.42,250.18 661.7502,262.7302 687.0902,274.4002 " fill="none" id="AssistantActions-to-MotivationalMechanics" style="stroke:#181818;stroke-width:0.6;"/><polygon fill="#181818" points="692.54,276.91,686.0385,269.512,687.9985,274.8185,682.692,276.7784,692.54,276.91" style="stroke:#181818;stroke-width:0.6;"/><text fill="#000000" font-family="sans-serif" font-size="12" lengthAdjust="spacing" textLength="41" x="646.31" y="254.0016">toggles</text></g><!--link AssistantActions to UserModel--><g id="link_AssistantActions_UserModel"><path d="M388.96,214.3 C409.52,219.63 432,228.08 449.5,241.4 C464.61,252.9 467.18,259.18 472.5,277.4 C481.7,308.89 470.38,322.23 449.5,347.53 C443.83,354.41 441.3322,357.2331 434.9722,363.1231 " fill="none" id="AssistantActions-to-UserModel" style="stroke:#181818;stroke-width:0.6;"/><polygon fill="#181818" points="430.57,367.2,439.8912,364.0195,434.2385,363.8026,434.4554,358.1499,430.57,367.2" style="stroke:#181818;stroke-width:0.6;"/><text fill="#000000" font-family="sans-serif" font-size="12" lengthAdjust="spacing" textLength="40" x="476.73" y="299.0716">targets</text></g><!--link AssistantActions to UserModel--><g id="link_AssistantActions_UserModel"><path d="M317.64,221.85 C300.2,243.34 275.67,281.67 292.5,311.53 C309.1,340.99 337.5601,357.5492 365.0001,368.5392 " fill="none" id="AssistantActions-to-UserModel-1" style="stroke:#181818;stroke-width:0.6;"/><polygon fill="#181818" points="370.57,370.77,363.7024,363.7106,365.9284,368.911,360.728,371.1371,370.57,370.77" style="stroke:#181818;stroke-width:0.6;"/><text fill="#000000" font-family="sans-serif" font-size="12" lengthAdjust="spacing" textLength="55" x="293.5" y="299.0716">considers</text></g><!--link UserModel to AssistantActions--><g id="link_UserModel_AssistantActions"><path d="M404.23,367.19 C389.19,333.26 357.271,261.2355 342.221,227.2755 " fill="none" id="UserModel-to-AssistantActions" style="stroke:#181818;stroke-width:0.6;"/><polygon fill="#181818" points="339.79,221.79,339.7795,231.6389,341.8158,226.3612,347.0935,228.3975,339.79,221.79" style="stroke:#181818;stroke-width:0.6;"/><text fill="#000000" font-family="sans-serif" font-size="12" lengthAdjust="spacing" textLength="47" x="379.56" y="299.0716">receives</text></g><!--link AssistantActions to Metrics--><g id="link_AssistantActions_Metrics"><path d="M305.35,221.77 C297.63,227.33 289.66,234.02 283.5,241.4 C225.33,311.14 191.8367,411.0679 179.8467,451.4779 " fill="none" id="AssistantActions-to-Metrics" style="stroke:#181818;stroke-width:0.6;"/><polygon fill="#181818" points="178.14,457.23,184.5348,449.7396,179.5623,452.4365,176.8653,447.464,178.14,457.23" style="stroke:#181818;stroke-width:0.6;"/><text fill="#000000" font-family="sans-serif" font-size="12" lengthAdjust="spacing" textLength="55" x="227.29" y="344.1316">considers</text></g><!--link EventRegistration to KeySituations--><g id="link_EventRegistration_KeySituations"><path d="M91.58,41.44 C115.82,57.27 147.336,77.8399 171.536,93.6399 " fill="none" id="EventRegistration-to-KeySituations" style="stroke:#181818;stroke-width:0.6;"/><polygon fill="#181818" points="176.56,96.92,171.2107,88.6505,172.3733,94.1866,166.8372,95.3491,176.56,96.92" style="stroke:#181818;stroke-width:0.6;"/><text fill="#000000" font-family="sans-serif" font-size="12" lengthAdjust="spacing" textLength="44" x="147.09" y="73.7416">triggers</text></g><!--link EventRegistration to Metrics--><g id="link_EventRegistration_Metrics"><path d="M53.84,41.61 C42.13,58.61 26.5,86.32 26.5,113.2 C26.5,113.2 26.5,113.2 26.5,385.6 C26.5,439.31 93.685,459.9825 136.785,468.1525 " fill="none" id="EventRegistration-to-Metrics" style="stroke:#181818;stroke-width:0.6;"/><polygon fill="#181818" points="142.68,469.27,134.5824,463.6638,137.7675,468.3388,133.0925,471.5238,142.68,469.27" style="stroke:#181818;stroke-width:0.6;"/><text fill="#000000" font-family="sans-serif" font-size="12" lengthAdjust="spacing" textLength="54" x="27.5" y="254.0016">produces</text></g><!--link KeySituations to AssistantActions--><g id="link_KeySituations_AssistantActions"><path d="M225.83,131.57 C249.36,147.4 279.8314,167.9013 303.3214,183.7013 " fill="none" id="KeySituations-to-AssistantActions" style="stroke:#181818;stroke-width:0.6;"/><polygon fill="#181818" points="308.3,187.05,303.0646,178.7079,304.1512,184.2594,298.5997,185.346,308.3,187.05" style="stroke:#181818;stroke-width:0.6;"/><text fill="#000000" font-family="sans-serif" font-size="12" lengthAdjust="spacing" textLength="44" x="279.73" y="163.8716">triggers</text></g><!--link UserModel to Metrics--><g id="link_UserModel_Metrics"><path d="M370.59,400.75 C323.4,418.22 252.5266,444.4665 210.0466,460.1965 " fill="none" id="UserModel-to-Metrics" style="stroke:#181818;stroke-width:0.6;"/><polygon fill="#181818" points="204.42,462.28,214.249,462.9058,209.1089,460.5438,211.471,455.4037,204.42,462.28" style="stroke:#181818;stroke-width:0.6;"/><text fill="#000000" font-family="sans-serif" font-size="12" lengthAdjust="spacing" textLength="33" x="314.82" y="434.2716">reads</text></g><!--link UserModel to Metrics--><g id="link_UserModel_Metrics"><path d="M370.72,388.54 C334.31,392.42 280.27,401.34 237.5,421.67 C219,430.46 205.5133,441.5092 193.4033,453.2192 " fill="none" id="UserModel-to-Metrics-1" style="stroke:#181818;stroke-width:0.6;"/><polygon fill="#181818" points="189.09,457.39,198.3405,454.0093,192.6844,453.9143,192.7794,448.2583,189.09,457.39" style="stroke:#181818;stroke-width:0.6;"/><text fill="#000000" font-family="sans-serif" font-size="12" lengthAdjust="spacing" textLength="20" x="238.5" y="434.2716">has</text></g><!--link UserModel to UserTraits--><g id="link_UserModel_UserTraits"><path d="M452.38,399.57 C500.97,416.17 575.8521,441.7406 623.9821,458.1806 " fill="none" id="UserModel-to-UserTraits" style="stroke:#181818;stroke-width:0.6;"/><polygon fill="#181818" points="629.66,460.12,622.4361,453.4256,624.9284,458.5038,619.8502,460.9961,629.66,460.12" style="stroke:#181818;stroke-width:0.6;"/><text fill="#000000" font-family="sans-serif" font-size="12" lengthAdjust="spacing" textLength="61" x="564.61" y="434.2716">references</text></g><!--link UserModel to Plan_and_Tasks--><g id="link_UserModel_Plan_and_Tasks"><path d="M411.5,401.77 C411.5,417.57 411.5,435.5 411.5,451.37 " fill="none" id="UserModel-to-Plan_and_Tasks" style="stroke:#181818;stroke-width:0.6;"/><polygon fill="#181818" points="411.5,457.37,415.5,448.37,411.5,452.37,407.5,448.37,411.5,457.37" style="stroke:#181818;stroke-width:0.6;"/><text fill="#000000" font-family="sans-serif" font-size="12" lengthAdjust="spacing" textLength="20" x="412.5" y="434.2716">has</text></g><!--SRC=[ZLHBRzim3BxxLmZjOQSExHv5aSE0hDWkGu1XpSu6Oz6sO5aoI2L5zkidsOuZnN4tvnAHtuiA7MwKwO2W5Lo3jA_ALA84pPZLIg9WXuJM7RlnZ6tdZgB5TeV46KzaOoKoTkBpVLGaC4qeVegBQoBxkgrLqHXa5lVl7wEcn1BssdstnhseFoWUFaJDPmtCNor9f6UhBOdRZ_qpWq3HL6JtHewmid-oZB1mO2gDucRDhDWVtBfmoXg-4S3YiYXkyGcVF3CYVZkWSR-mya22WEgPiwetVGYVcFe3Zo_AxU5ic5I2MmcfsmOTgM80Zz_3E25M0hDE7NeLq1iiQZ0JwLgdlv77LE8t8_diokKdMBw1hlFhqEiijwVhZSH-QZ0v69blWPiXI5hoi-x262ajc6py8kd9iZzv1ncWS_0s9E89FHmzl1YritU2K0_NcxqnmjtTbuMRMeaMkdzo8_EHS5tjX1t6MWb6xGT2cU-EsMpvtWhbREKlWQ-JOWS7LA5R09usQYKAN_AlD_s7uXawN_g0JNVQ9o1LLSlmSuQEhDmNVgXK8O1ceIBPSxPKZX3aPJVvdGXB_zzcWkEIHWsNlIj9_4wYEinKBXQ-5_iB]--></g></svg>