<?xml version="1.0" encoding="us-ascii" standalone="no"?><svg xmlns="http://www.w3.org/2000/svg" xmlns:xlink="http://www.w3.org/1999/xlink" contentStyleType="text/css" height="364px" preserveAspectRatio="none" style="width:1700px;height:364px;background:#FFFFFF;" version="1.1" viewBox="0 0 1700 364" width="1700px" zoomAndPan="magnify"><defs/><g><!--cluster Plan_and_Tasks--><g id="cluster_Plan_and_Tasks"><rect fill="#EBFFE8" height="351" rx="2.5" ry="2.5" style="stroke:#000000;stroke-width:1.5;" width="1687" x="7" y="7"/><text fill="#000000" font-family="sans-serif" font-size="14" font-weight="bold" lengthAdjust="spacing" textLength="114" x="793.5" y="22.5352">Plan_and_Tasks</text></g><!--class Plan--><g id="elem_Plan"><rect codeLine="10" fill="#90EE90" height="72.9766" id="Plan" rx="2.5" ry="2.5" style="stroke:#181818;stroke-width:0.5;" width="152" x="23" y="225.51"/><ellipse cx="80.25" cy="241.51" fill="#ADD1B2" rx="11" ry="11" style="stroke:#181818;stroke-width:1.0;"/><path d="M82.7231,247.6531 Q82.1421,247.9519 81.5029,248.1013 Q80.8638,248.2507 80.1582,248.2507 Q77.6514,248.2507 76.3315,246.5989 Q75.0117,244.947 75.0117,241.8259 Q75.0117,238.6965 76.3315,237.0447 Q77.6514,235.3928 80.1582,235.3928 Q80.8638,235.3928 81.5112,235.5422 Q82.1587,235.6916 82.7231,235.9905 L82.7231,238.7131 Q82.0923,238.1321 81.4988,237.8623 Q80.9053,237.5925 80.2744,237.5925 Q78.9297,237.5925 78.2449,238.6592 Q77.5601,239.7258 77.5601,241.8259 Q77.5601,243.9177 78.2449,244.9844 Q78.9297,246.051 80.2744,246.051 Q80.9053,246.051 81.4988,245.7812 Q82.0923,245.5115 82.7231,244.9304 Z " fill="#000000"/><text fill="#000000" font-family="sans-serif" font-size="14" lengthAdjust="spacing" textLength="29" x="100.75" y="246.801">Plan</text><line style="stroke:#181818;stroke-width:0.5;" x1="24" x2="174" y1="257.51" y2="257.51"/><ellipse cx="34" cy="271.2541" fill="none" rx="3" ry="3" style="stroke:#038048;stroke-width:1.0;"/><text fill="#000000" font-family="sans-serif" font-size="14" lengthAdjust="spacing" textLength="87" x="43" y="275.0452">name: String</text><ellipse cx="34" cy="287.7424" fill="none" rx="3" ry="3" style="stroke:#038048;stroke-width:1.0;"/><text fill="#000000" font-family="sans-serif" font-size="14" lengthAdjust="spacing" textLength="126" x="43" y="291.5334">description: String</text></g><g id="elem_GMN4"><path d="M216,285.34 L216,310.6505 A0,0 0 0 0 216,310.6505 L490,310.6505 A0,0 0 0 0 490,310.6505 L490,295.34 L480,285.34 L264.19,285.34 L175.27,272.75 L256.19,285.34 L216,285.34 A0,0 0 0 0 216,285.34 " fill="#FEFFDD" style="stroke:#181818;stroke-width:0.5;"/><path d="M480,285.34 L480,295.34 L490,295.34 L480,285.34 " fill="#FEFFDD" style="stroke:#181818;stroke-width:0.5;"/><text fill="#000000" font-family="sans-serif" font-size="13" lengthAdjust="spacing" textLength="253" x="222" y="302.9084">Succession of task blocks (composites).</text></g><!--class Task--><g id="elem_Task"><rect codeLine="18" fill="#90EE90" height="72.9766" id="Task" rx="2.5" ry="2.5" style="stroke:#181818;stroke-width:0.5;" width="152" x="1149.5" y="134.51"/><ellipse cx="1205.25" cy="150.51" fill="#ADD1B2" rx="11" ry="11" style="stroke:#181818;stroke-width:1.0;"/><path d="M1207.7231,156.6531 Q1207.1421,156.9519 1206.5029,157.1013 Q1205.8638,157.2507 1205.1582,157.2507 Q1202.6514,157.2507 1201.3315,155.5989 Q1200.0117,153.947 1200.0117,150.8259 Q1200.0117,147.6965 1201.3315,146.0447 Q1202.6514,144.3928 1205.1582,144.3928 Q1205.8638,144.3928 1206.5112,144.5422 Q1207.1587,144.6916 1207.7231,144.9905 L1207.7231,147.7131 Q1207.0923,147.1321 1206.4988,146.8623 Q1205.9053,146.5925 1205.2744,146.5925 Q1203.9297,146.5925 1203.2449,147.6592 Q1202.5601,148.7258 1202.5601,150.8259 Q1202.5601,152.9177 1203.2449,153.9844 Q1203.9297,155.051 1205.2744,155.051 Q1205.9053,155.051 1206.4988,154.7812 Q1207.0923,154.5115 1207.7231,153.9304 Z " fill="#000000"/><text fill="#000000" font-family="sans-serif" font-size="14" lengthAdjust="spacing" textLength="32" x="1225.75" y="155.801">Task</text><line style="stroke:#181818;stroke-width:0.5;" x1="1150.5" x2="1300.5" y1="166.51" y2="166.51"/><ellipse cx="1160.5" cy="180.2541" fill="none" rx="3" ry="3" style="stroke:#038048;stroke-width:1.0;"/><text fill="#000000" font-family="sans-serif" font-size="14" lengthAdjust="spacing" textLength="75" x="1169.5" y="184.0452">title: String</text><ellipse cx="1160.5" cy="196.7424" fill="none" rx="3" ry="3" style="stroke:#038048;stroke-width:1.0;"/><text fill="#000000" font-family="sans-serif" font-size="14" lengthAdjust="spacing" textLength="126" x="1169.5" y="200.5334">description: String</text></g><!--class Level--><g id="elem_Level"><rect codeLine="23" fill="#90EE90" height="72.9766" id="Level" rx="2.5" ry="2.5" style="stroke:#181818;stroke-width:0.5;" width="113" x="1524" y="269.51"/><ellipse cx="1560.15" cy="285.51" fill="#ADD1B2" rx="11" ry="11" style="stroke:#181818;stroke-width:1.0;"/><path d="M1562.6231,291.6531 Q1562.0421,291.9519 1561.4029,292.1013 Q1560.7638,292.2507 1560.0582,292.2507 Q1557.5514,292.2507 1556.2315,290.5989 Q1554.9117,288.947 1554.9117,285.8259 Q1554.9117,282.6965 1556.2315,281.0447 Q1557.5514,279.3928 1560.0582,279.3928 Q1560.7638,279.3928 1561.4112,279.5422 Q1562.0587,279.6916 1562.6231,279.9905 L1562.6231,282.7131 Q1561.9923,282.1321 1561.3988,281.8623 Q1560.8053,281.5925 1560.1744,281.5925 Q1558.8297,281.5925 1558.1449,282.6592 Q1557.4601,283.7258 1557.4601,285.8259 Q1557.4601,287.9177 1558.1449,288.9844 Q1558.8297,290.051 1560.1744,290.051 Q1560.8053,290.051 1561.3988,289.7812 Q1561.9923,289.5115 1562.6231,288.9304 Z " fill="#000000"/><text fill="#000000" font-family="sans-serif" font-size="14" lengthAdjust="spacing" textLength="34" x="1578.85" y="290.801">Level</text><line style="stroke:#181818;stroke-width:0.5;" x1="1525" x2="1636" y1="301.51" y2="301.51"/><ellipse cx="1535" cy="315.2541" fill="none" rx="3" ry="3" style="stroke:#038048;stroke-width:1.0;"/><text fill="#000000" font-family="sans-serif" font-size="14" lengthAdjust="spacing" textLength="87" x="1544" y="319.0452">name: String</text><ellipse cx="1535" cy="331.7424" fill="none" rx="3" ry="3" style="stroke:#038048;stroke-width:1.0;"/><text fill="#000000" font-family="sans-serif" font-size="14" lengthAdjust="spacing" textLength="85" x="1544" y="335.5334">difficulty: Int</text></g><g id="elem_GMN9"><path d="M1483,204.34 L1483,229.6505 L1678,229.6505 L1678,214.34 L1668,204.34 L1483,204.34 " fill="#FEFFDD" style="stroke:#181818;stroke-width:0.5;"/><path d="M1668,204.34 L1668,214.34 L1678,214.34 L1668,204.34 " fill="#FEFFDD" style="stroke:#181818;stroke-width:1.0;"/><text fill="#000000" font-family="sans-serif" font-size="13" lengthAdjust="spacing" textLength="174" x="1489" y="221.9084">Optional difficulty per task.</text></g><!--class Repetitions--><g id="elem_Repetitions"><rect codeLine="31" fill="#90EE90" height="56.4883" id="Repetitions" rx="2.5" ry="2.5" style="stroke:#181818;stroke-width:0.5;" width="109" x="1526" y="107.76"/><ellipse cx="1541" cy="123.76" fill="#ADD1B2" rx="11" ry="11" style="stroke:#181818;stroke-width:1.0;"/><path d="M1543.4731,129.9031 Q1542.8921,130.2019 1542.2529,130.3513 Q1541.6138,130.5007 1540.9082,130.5007 Q1538.4014,130.5007 1537.0815,128.8489 Q1535.7617,127.197 1535.7617,124.0759 Q1535.7617,120.9465 1537.0815,119.2947 Q1538.4014,117.6428 1540.9082,117.6428 Q1541.6138,117.6428 1542.2612,117.7922 Q1542.9087,117.9416 1543.4731,118.2405 L1543.4731,120.9631 Q1542.8423,120.3821 1542.2488,120.1123 Q1541.6553,119.8425 1541.0244,119.8425 Q1539.6797,119.8425 1538.9949,120.9092 Q1538.3101,121.9758 1538.3101,124.0759 Q1538.3101,126.1677 1538.9949,127.2344 Q1539.6797,128.301 1541.0244,128.301 Q1541.6553,128.301 1542.2488,128.0312 Q1542.8423,127.7615 1543.4731,127.1804 Z " fill="#000000"/><text fill="#000000" font-family="sans-serif" font-size="14" lengthAdjust="spacing" textLength="77" x="1555" y="129.051">Repetitions</text><line style="stroke:#181818;stroke-width:0.5;" x1="1527" x2="1634" y1="139.76" y2="139.76"/><ellipse cx="1537" cy="153.5041" fill="none" rx="3" ry="3" style="stroke:#038048;stroke-width:1.0;"/><text fill="#000000" font-family="sans-serif" font-size="14" lengthAdjust="spacing" textLength="65" x="1546" y="157.2952">count: Int</text></g><g id="elem_GMN13"><path d="M1495,42.34 L1495,67.6505 L1666,67.6505 L1666,52.34 L1656,42.34 L1495,42.34 " fill="#FEFFDD" style="stroke:#181818;stroke-width:0.5;"/><path d="M1656,42.34 L1656,52.34 L1666,52.34 L1656,42.34 " fill="#FEFFDD" style="stroke:#181818;stroke-width:1.0;"/><text fill="#000000" font-family="sans-serif" font-size="13" lengthAdjust="spacing" textLength="150" x="1501" y="59.9084">Required to define plan.</text></g><!--class TaskRequirement--><g id="elem_TaskRequirement"><rect codeLine="38" fill="#90EE90" height="56.4883" id="TaskRequirement" rx="2.5" ry="2.5" style="stroke:#181818;stroke-width:0.5;" width="188" x="1131.5" y="257.76"/><ellipse cx="1162.7" cy="273.76" fill="#ADD1B2" rx="11" ry="11" style="stroke:#181818;stroke-width:1.0;"/><path d="M1165.1731,279.9031 Q1164.5921,280.2019 1163.9529,280.3513 Q1163.3138,280.5007 1162.6082,280.5007 Q1160.1014,280.5007 1158.7815,278.8489 Q1157.4617,277.197 1157.4617,274.0759 Q1157.4617,270.9465 1158.7815,269.2947 Q1160.1014,267.6428 1162.6082,267.6428 Q1163.3138,267.6428 1163.9612,267.7922 Q1164.6087,267.9416 1165.1731,268.2405 L1165.1731,270.9631 Q1164.5423,270.3821 1163.9488,270.1123 Q1163.3553,269.8425 1162.7244,269.8425 Q1161.3797,269.8425 1160.6949,270.9092 Q1160.0101,271.9758 1160.0101,274.0759 Q1160.0101,276.1677 1160.6949,277.2344 Q1161.3797,278.301 1162.7244,278.301 Q1163.3553,278.301 1163.9488,278.0312 Q1164.5423,277.7615 1165.1731,277.1804 Z " fill="#000000"/><text fill="#000000" font-family="sans-serif" font-size="14" lengthAdjust="spacing" textLength="120" x="1180.3" y="279.051">TaskRequirement</text><line style="stroke:#181818;stroke-width:0.5;" x1="1132.5" x2="1318.5" y1="289.76" y2="289.76"/><ellipse cx="1142.5" cy="303.5041" fill="none" rx="3" ry="3" style="stroke:#038048;stroke-width:1.0;"/><text fill="#000000" font-family="sans-serif" font-size="14" lengthAdjust="spacing" textLength="162" x="1151.5" y="307.2952">requiredRepetitions: int</text></g><g id="elem_GMN17"><path d="M586,295.34 L586,320.6505 A0,0 0 0 0 586,320.6505 L941,320.6505 A0,0 0 0 0 941,320.6505 L941,313.34 L1131.23,290.46 L941,305.34 L941,305.34 L931,295.34 L586,295.34 A0,0 0 0 0 586,295.34 " fill="#FEFFDD" style="stroke:#181818;stroke-width:0.5;"/><path d="M931,295.34 L931,305.34 L941,305.34 L931,295.34 " fill="#FEFFDD" style="stroke:#181818;stroke-width:0.5;"/><text fill="#000000" font-family="sans-serif" font-size="13" lengthAdjust="spacing" textLength="334" x="592" y="312.9084">How many times a Task must be repeated on a Level.</text></g><!--class TaskAssignment--><g id="elem_TaskAssignment"><rect codeLine="45" fill="#90EE90" height="72.9766" id="TaskAssignment" rx="2.5" ry="2.5" style="stroke:#181818;stroke-width:0.5;" width="270" x="628.5" y="117.51"/><ellipse cx="702.75" cy="133.51" fill="#ADD1B2" rx="11" ry="11" style="stroke:#181818;stroke-width:1.0;"/><path d="M705.2231,139.6531 Q704.6421,139.9519 704.0029,140.1013 Q703.3638,140.2507 702.6582,140.2507 Q700.1514,140.2507 698.8315,138.5989 Q697.5117,136.947 697.5117,133.8259 Q697.5117,130.6965 698.8315,129.0447 Q700.1514,127.3928 702.6582,127.3928 Q703.3638,127.3928 704.0112,127.5422 Q704.6587,127.6916 705.2231,127.9905 L705.2231,130.7131 Q704.5923,130.1321 703.9988,129.8623 Q703.4053,129.5925 702.7744,129.5925 Q701.4297,129.5925 700.7449,130.6592 Q700.0601,131.7258 700.0601,133.8259 Q700.0601,135.9177 700.7449,136.9844 Q701.4297,138.051 702.7744,138.051 Q703.4053,138.051 703.9988,137.7812 Q704.5923,137.5115 705.2231,136.9304 Z " fill="#000000"/><text fill="#000000" font-family="sans-serif" font-size="14" lengthAdjust="spacing" textLength="113" x="723.25" y="138.801">TaskAssignment</text><line style="stroke:#181818;stroke-width:0.5;" x1="629.5" x2="897.5" y1="149.51" y2="149.51"/><ellipse cx="639.5" cy="163.2541" fill="none" rx="3" ry="3" style="stroke:#038048;stroke-width:1.0;"/><text fill="#000000" font-family="sans-serif" font-size="14" lengthAdjust="spacing" textLength="68" x="648.5" y="167.0452">task: Task</text><ellipse cx="639.5" cy="179.7424" fill="none" rx="3" ry="3" style="stroke:#038048;stroke-width:1.0;"/><text fill="#000000" font-family="sans-serif" font-size="14" lengthAdjust="spacing" textLength="244" x="648.5" y="183.5334">taskRequirement: TaskRequirement</text></g><g id="elem_GMN21"><path d="M1065,69.34 L1065,94.6505 A0,0 0 0 0 1065,94.6505 L1136.73,94.6505 L898.79,132.98 L1144.73,94.6505 L1386,94.6505 A0,0 0 0 0 1386,94.6505 L1386,79.34 L1376,69.34 L1065,69.34 A0,0 0 0 0 1065,69.34 " fill="#FEFFDD" style="stroke:#181818;stroke-width:0.5;"/><path d="M1376,69.34 L1376,79.34 L1386,79.34 L1376,69.34 " fill="#FEFFDD" style="stroke:#181818;stroke-width:0.5;"/><text fill="#000000" font-family="sans-serif" font-size="13" lengthAdjust="spacing" textLength="300" x="1071" y="86.9084">Assigns a Task and its requirements to a block.</text></g><!--class TaskBlock--><g id="elem_TaskBlock"><rect codeLine="53" fill="#90EE90" height="105.9531" id="TaskBlock" rx="2.5" ry="2.5" style="stroke:#181818;stroke-width:0.5;" width="161" x="272.5" y="139.02"/><ellipse cx="314.95" cy="155.02" fill="#ADD1B2" rx="11" ry="11" style="stroke:#181818;stroke-width:1.0;"/><path d="M317.4231,161.1631 Q316.8421,161.4619 316.2029,161.6113 Q315.5638,161.7607 314.8582,161.7607 Q312.3514,161.7607 311.0315,160.1089 Q309.7117,158.457 309.7117,155.3359 Q309.7117,152.2065 311.0315,150.5547 Q312.3514,148.9028 314.8582,148.9028 Q315.5638,148.9028 316.2112,149.0522 Q316.8587,149.2016 317.4231,149.5005 L317.4231,152.2231 Q316.7923,151.6421 316.1988,151.3723 Q315.6053,151.1025 314.9744,151.1025 Q313.6297,151.1025 312.9449,152.1692 Q312.2601,153.2358 312.2601,155.3359 Q312.2601,157.4277 312.9449,158.4944 Q313.6297,159.561 314.9744,159.561 Q315.6053,159.561 316.1988,159.2912 Q316.7923,159.0215 317.4231,158.4404 Z " fill="#000000"/><text fill="#000000" font-family="sans-serif" font-size="14" lengthAdjust="spacing" textLength="68" x="335.05" y="160.311">TaskBlock</text><line style="stroke:#181818;stroke-width:0.5;" x1="273.5" x2="432.5" y1="171.02" y2="171.02"/><ellipse cx="283.5" cy="184.7641" fill="none" rx="3" ry="3" style="stroke:#038048;stroke-width:1.0;"/><text fill="#000000" font-family="sans-serif" font-size="14" lengthAdjust="spacing" textLength="75" x="292.5" y="188.5552">title: String</text><ellipse cx="283.5" cy="201.2524" fill="none" rx="3" ry="3" style="stroke:#038048;stroke-width:1.0;"/><text fill="#000000" font-family="sans-serif" font-size="14" lengthAdjust="spacing" textLength="126" x="292.5" y="205.0434">description: String</text><ellipse cx="283.5" cy="217.7407" fill="none" rx="3" ry="3" style="stroke:#038048;stroke-width:1.0;"/><text fill="#000000" font-family="sans-serif" font-size="14" lengthAdjust="spacing" textLength="135" x="292.5" y="221.5317">startDate: DateTime</text><ellipse cx="283.5" cy="234.229" fill="none" rx="3" ry="3" style="stroke:#038048;stroke-width:1.0;"/><text fill="#000000" font-family="sans-serif" font-size="14" lengthAdjust="spacing" textLength="130" x="292.5" y="238.02">endDate: DateTime</text></g><g id="elem_GMN25"><path d="M599.5,230.34 L599.5,255.6505 A0,0 0 0 0 599.5,255.6505 L927.5,255.6505 A0,0 0 0 0 927.5,255.6505 L927.5,240.34 L917.5,230.34 L661.43,230.34 L433.73,201.95 L653.43,230.34 L599.5,230.34 A0,0 0 0 0 599.5,230.34 " fill="#FEFFDD" style="stroke:#181818;stroke-width:0.5;"/><path d="M917.5,230.34 L917.5,240.34 L927.5,240.34 L917.5,230.34 " fill="#FEFFDD" style="stroke:#181818;stroke-width:0.5;"/><text fill="#000000" font-family="sans-serif" font-size="13" lengthAdjust="spacing" textLength="307" x="605.5" y="247.9084">Composite grouping of assignments and blocks.</text></g><!--link Level to GMN9--><g id="link_Level_GMN9"><path d="M1580.5,269.15 C1580.5,260.37 1580.5,246.67 1580.5,246.67 C1580.5,246.67 1580.5,238.05 1580.5,230.1 " fill="none" id="Level-GMN9" style="stroke:#181818;stroke-width:1.0;stroke-dasharray:7.0,7.0;"/></g><!--link Repetitions to GMN13--><g id="link_Repetitions_GMN13"><path d="M1580.5,107.55 C1580.5,101.94 1580.5,82 1580.5,82 C1580.5,82 1580.5,74.82 1580.5,67.87 " fill="none" id="Repetitions-GMN13" style="stroke:#181818;stroke-width:1.0;stroke-dasharray:7.0,7.0;"/></g><!--link TaskAssignment to Task--><g id="link_TaskAssignment_Task"><path codeLine="63" d="M898.83,163.57 C933.37,166.03 961,168 961,168 C961,168 1065.4604,169.1922 1143.3404,170.0722 " fill="none" id="TaskAssignment-to-Task" style="stroke:#181818;stroke-width:1.0;"/><polygon fill="#181818" points="1149.34,170.14,1140.3858,166.0386,1144.3403,170.0835,1140.2954,174.0381,1149.34,170.14" style="stroke:#181818;stroke-width:1.0;"/><text fill="#000000" font-family="sans-serif" font-size="13" lengthAdjust="spacing" textLength="82" x="962" y="164.5684">has assigned</text><text fill="#000000" font-family="sans-serif" font-size="13" lengthAdjust="spacing" textLength="8" x="1133.4493" y="183.3774">1</text></g><!--link TaskAssignment to TaskRequirement--><g id="link_TaskAssignment_TaskRequirement"><path codeLine="64" d="M893.25,190.94 C968.86,212.64 1056.9527,237.9253 1125.4427,257.5753 " fill="none" id="TaskAssignment-to-TaskRequirement" style="stroke:#181818;stroke-width:1.0;"/><polygon fill="#181818" points="1131.21,259.23,1123.6621,252.9031,1126.4039,257.8511,1121.4559,260.5929,1131.21,259.23" style="stroke:#181818;stroke-width:1.0;"/><text fill="#000000" font-family="sans-serif" font-size="13" lengthAdjust="spacing" textLength="82" x="962" y="208.6684">has assigned</text><text fill="#000000" font-family="sans-serif" font-size="13" lengthAdjust="spacing" textLength="22" x="1101.4778" y="270.3943">1..*</text></g><!--link TaskRequirement to Level--><g id="link_TaskRequirement_Level"><path codeLine="65" d="M1319.71,291.28 C1384.56,294.96 1462.8896,299.3906 1517.5996,302.4906 " fill="none" id="TaskRequirement-to-Level" style="stroke:#181818;stroke-width:1.0;"/><polygon fill="#181818" points="1523.59,302.83,1514.8307,298.3273,1518.598,302.5471,1514.3781,306.3144,1523.59,302.83" style="stroke:#181818;stroke-width:1.0;"/><text fill="#000000" font-family="sans-serif" font-size="13" lengthAdjust="spacing" textLength="55" x="1407" y="293.1684">can have</text><text fill="#000000" font-family="sans-serif" font-size="13" lengthAdjust="spacing" textLength="24" x="1492.053" y="315.8891">0..1</text></g><!--link TaskRequirement to Repetitions--><g id="link_TaskRequirement_Repetitions"><path codeLine="66" d="M1303.91,257.36 C1344.55,242.33 1386,227 1386,227 C1386,227 1462.9101,190.8228 1520.1701,163.9028 " fill="none" id="TaskRequirement-to-Repetitions" style="stroke:#181818;stroke-width:1.0;"/><polygon fill="#181818" points="1525.6,161.35,1515.7534,161.5593,1521.0751,163.4773,1519.1571,168.7991,1525.6,161.35" style="stroke:#181818;stroke-width:1.0;"/><text fill="#000000" font-family="sans-serif" font-size="13" lengthAdjust="spacing" textLength="51" x="1409" y="188.8984">requires</text><text fill="#000000" font-family="sans-serif" font-size="13" lengthAdjust="spacing" textLength="22" x="1495.9803" y="177.7341">1..*</text></g><!--link Plan to TaskBlock--><g id="link_Plan_TaskBlock"><path codeLine="68" d="M186.8322,237.8783 C217.4322,229.3783 235.4788,224.3655 266.5188,215.7455 " fill="none" id="Plan-TaskBlock" style="stroke:#181818;stroke-width:1.0;"/><polygon fill="#181818" points="175.27,241.09,182.1217,243.3382,186.8322,237.8783,179.9805,235.6301,175.27,241.09" style="stroke:#181818;stroke-width:1.0;"/><polygon fill="#181818" points="272.3,214.14,262.5579,212.6941,267.4823,215.4779,264.6985,220.4024,272.3,214.14" style="stroke:#181818;stroke-width:1.0;"/><text fill="#000000" font-family="sans-serif" font-size="13" lengthAdjust="spacing" textLength="22" x="242.4195" y="229.2692">1..*</text></g><!--link TaskBlock to TaskAssignment--><g id="link_TaskBlock_TaskAssignment"><path codeLine="69" d="M445.6784,183.4686 C500.9384,178.3286 557.9458,173.0259 622.3158,167.0359 " fill="none" id="TaskBlock-TaskAssignment" style="stroke:#181818;stroke-width:1.0;"/><polygon fill="#181818" points="433.73,184.58,440.0747,188.0071,445.6784,183.4686,439.3338,180.0415,433.73,184.58" style="stroke:#181818;stroke-width:1.0;"/><polygon fill="#181818" points="628.29,166.48,618.9581,163.3311,623.3115,166.9433,619.6993,171.2967,628.29,166.48" style="stroke:#181818;stroke-width:1.0;"/><text fill="#000000" font-family="sans-serif" font-size="13" lengthAdjust="spacing" textLength="54" x="511" y="169.5684">contains</text><text fill="#000000" font-family="sans-serif" font-size="13" lengthAdjust="spacing" textLength="22" x="598.2941" y="180.1496">1..*</text></g><!--SRC=[fPHBQzmm4CVl_XJ3vjAcP4cXX-93e8z32uMMREvXR8-zOcL9bSOf9kIxToJlm-krIw27NT1e7h__QCPXfun3ZorePOXxH-2ixkCXswgAW5h7FRJ4Mrk5iGcPlIewfd3ks1RaGwQfPc0BNZLRXafvAbbPauLZFMCh2kJWm-t8wD7iBemEonqsjE5U4yH4Q1fDsTuClpIQHpJLumE6NO0hAkgQFjOrF6S0fSOGaWjSwSZIU283po1t0EyCjfJ3HfIOPh08LEcLYx2ZYnVv6SkqrsFhb395RBgof134FvfP6A3GjXIIDwLjdGrAMlHsBRvagfGaEt95ubakLgnV2NPCzeEUIBzMfQfhLNQQ-no-6nuhB2opRQEMb33v_qnbKSCf3Xpvf7PUsJqv4X4I5MQHIjiP_aVjKNmAkAVVdGnH5MUgebh64voym79Rzm4j6Pu5yFk4eq8vg7ESDCG2CycN4dopVw15qmEhbWBWy9Pj5nYAEAMEa0LNfWA7HYwZVfBfQSmYQMnodXnFvn5DFeDtEQxdTLAYuNX4bmq2nG7yALE8tSPXd9VnFyVh_vjYkGYCdhzAptA8_m_IrU52YbwOv_Kba1JqvR1uq7ZREIaIVV2eFoIrmvfEXKrUvERc3bRlLqEFSjXYsEUXQibvlRvUNSpWREZO8SNUhjTIQzZa74hvQctnYPQyXqhZLSiFpnUYbFJPkvv07RfqUhgfnqYGC5Z3g6GBN_u2]--></g></svg>