<?xml version="1.0" encoding="us-ascii" standalone="no"?><svg xmlns="http://www.w3.org/2000/svg" xmlns:xlink="http://www.w3.org/1999/xlink" contentStyleType="text/css" height="748px" preserveAspectRatio="none" style="width:988px;height:748px;background:#FFFFFF;" version="1.1" viewBox="0 0 988 748" width="988px" zoomAndPan="magnify"><defs/><g><!--cluster MotivationalMechanics--><g id="cluster_MotivationalMechanics"><path d="M6.8,4.8 L139.6,4.8 A3,3 0 0 1 141.6,6.8 L147.2,22.7906 L980.4,22.7906 A2,2 0 0 1 982.4,24.7906 L982.4,740.4 A2,2 0 0 1 980.4,742.4 L6.8,742.4 A2,2 0 0 1 4.8,740.4 L4.8,6.8 A2,2 0 0 1 6.8,4.8 " fill="#FFF6E8" style="stroke:#000000;stroke-width:1.2000000000000002;"/><line style="stroke:#000000;stroke-width:1.2000000000000002;" x1="4.8" x2="147.2" y1="22.7906" y2="22.7906"/><text fill="#000000" font-family="sans-serif" font-size="11.2" font-weight="bold" lengthAdjust="spacing" textLength="132" x="8" y="17.2281">MotivationalMechanics</text></g><!--cluster Usertrait_Mechanic_Mapping--><g id="cluster_Usertrait_Mechanic_Mapping"><path d="M26,535.2 L190.8,535.2 A3,3 0 0 1 192.8,537.2 L198.4,553.1906 L491.6,553.1906 A2,2 0 0 1 493.6,555.1906 L493.6,615.6 A2,2 0 0 1 491.6,617.6 L26,617.6 A2,2 0 0 1 24,615.6 L24,537.2 A2,2 0 0 1 26,535.2 " fill="none" style="stroke:#000000;stroke-width:1.2000000000000002;"/><line style="stroke:#000000;stroke-width:1.2000000000000002;" x1="24" x2="198.4" y1="553.1906" y2="553.1906"/><text fill="#000000" font-family="sans-serif" font-size="11.2" font-weight="bold" lengthAdjust="spacing" textLength="164" x="27.2" y="547.6281">Usertrait_Mechanic_Mapping</text></g><!--cluster UserTraits--><g id="cluster_UserTraits"><path d="M605.2,634.4 L666,634.4 A3,3 0 0 1 668,636.4 L673.6,652.3906 L688.4,652.3906 A2,2 0 0 1 690.4,654.3906 L690.4,698.8 A2,2 0 0 1 688.4,700.8 L605.2,700.8 A2,2 0 0 1 603.2,698.8 L603.2,636.4 A2,2 0 0 1 605.2,634.4 " fill="none" style="stroke:#000000;stroke-width:1.2000000000000002;"/><line style="stroke:#000000;stroke-width:1.2000000000000002;" x1="603.2" x2="673.6" y1="652.3906" y2="652.3906"/><text fill="#000000" font-family="sans-serif" font-size="11.2" font-weight="bold" lengthAdjust="spacing" textLength="60" x="606.4" y="646.8281">UserTraits</text></g><!--class MotivationalMechanic--><g id="elem_MotivationalMechanic"><rect codeLine="24" fill="#F1F1F1" height="25.6" id="MotivationalMechanic" rx="2" ry="2" style="stroke:#181818;stroke-width:0.4000000000000001;" width="111.2" x="591.2" y="328.8"/><ellipse cx="603.2" cy="341.6" fill="#ADD1B2" rx="8.8" ry="8.8" style="stroke:#181818;stroke-width:0.8000000000000002;"/><path d="M605.1785,346.5145 Q604.7137,346.7535 604.2023,346.873 Q603.691,346.9926 603.1266,346.9926 Q601.1211,346.9926 600.0652,345.6711 Q599.0094,344.3496 599.0094,341.8527 Q599.0094,339.3492 600.0652,338.0277 Q601.1211,336.7063 603.1266,336.7063 Q603.691,336.7063 604.209,336.8258 Q604.727,336.9453 605.1785,337.1844 L605.1785,339.3625 Q604.6738,338.8977 604.199,338.6818 Q603.7242,338.466 603.2195,338.466 Q602.1438,338.466 601.5959,339.3193 Q601.048,340.1727 601.048,341.8527 Q601.048,343.5262 601.5959,344.3795 Q602.1438,345.2328 603.2195,345.2328 Q603.7242,345.2328 604.199,345.017 Q604.6738,344.8012 605.1785,344.3363 Z " fill="#000000"/><text fill="#000000" font-family="sans-serif" font-size="8" lengthAdjust="spacing" textLength="85.6" x="614.4" y="344.6234">MotivationalMechanic</text></g><!--class Progress_Indicators--><g id="elem_Progress_Indicators"><rect codeLine="26" fill="#FFECCE" height="25.6" id="Progress_Indicators" rx="2" ry="2" style="stroke:#181818;stroke-width:0.4000000000000001;" width="101.6" x="845.6" y="424.8"/><ellipse cx="857.6" cy="437.6" fill="#ADD1B2" rx="8.8" ry="8.8" style="stroke:#181818;stroke-width:0.8000000000000002;"/><path d="M859.5785,442.5145 Q859.1137,442.7535 858.6023,442.873 Q858.091,442.9926 857.5266,442.9926 Q855.5211,442.9926 854.4652,441.6711 Q853.4094,440.3496 853.4094,437.8527 Q853.4094,435.3492 854.4652,434.0277 Q855.5211,432.7063 857.5266,432.7063 Q858.091,432.7063 858.609,432.8258 Q859.127,432.9453 859.5785,433.1844 L859.5785,435.3625 Q859.0738,434.8977 858.599,434.6818 Q858.1242,434.466 857.6195,434.466 Q856.5438,434.466 855.9959,435.3193 Q855.448,436.1727 855.448,437.8527 Q855.448,439.5262 855.9959,440.3795 Q856.5438,441.2328 857.6195,441.2328 Q858.1242,441.2328 858.599,441.017 Q859.0738,440.8012 859.5785,440.3363 Z " fill="#000000"/><text fill="#000000" font-family="sans-serif" font-size="8" lengthAdjust="spacing" textLength="76" x="868.8" y="440.6234">Progress_Indicators</text></g><g id="elem_Level_and_Experience_Point_System"><rect fill="#F1F1F1" height="16.3906" style="stroke:#181818;stroke-width:0.4000000000000001;" width="208.8" x="542.4" y="456.608"/><text fill="#000000" font-family="sans-serif" font-size="11.2" lengthAdjust="spacing" textLength="197.6" x="548" y="469.0361">Level_and_Experience_Point_System</text></g><g id="elem_GMN8"><path d="M550.8,426.488 L550.8,443.9099 L742.8,443.9099 L742.8,434.488 L734.8,426.488 L550.8,426.488 " fill="#FEFFDD" style="stroke:#181818;stroke-width:0.4000000000000001;"/><path d="M734.8,426.488 L734.8,434.488 L742.8,434.488 L734.8,426.488 " fill="#FEFFDD" style="stroke:#181818;stroke-width:0.8000000000000002;"/><text fill="#000000" font-family="sans-serif" font-size="8" lengthAdjust="spacing" textLength="175.2" x="555.6" y="438.2224">Core progression; growth via XP and unlocks.</text></g><!--class Competition_with_others--><g id="elem_Competition_with_others"><rect codeLine="33" fill="#FFECCE" height="25.6" id="Competition_with_others" rx="2" ry="2" style="stroke:#181818;stroke-width:0.4000000000000001;" width="123.2" x="834.8" y="490.4"/><ellipse cx="846.8" cy="503.2" fill="#ADD1B2" rx="8.8" ry="8.8" style="stroke:#181818;stroke-width:0.8000000000000002;"/><path d="M848.7785,508.1145 Q848.3137,508.3535 847.8023,508.473 Q847.291,508.5926 846.7266,508.5926 Q844.7211,508.5926 843.6652,507.2711 Q842.6094,505.9496 842.6094,503.4527 Q842.6094,500.9492 843.6652,499.6277 Q844.7211,498.3063 846.7266,498.3063 Q847.291,498.3063 847.809,498.4258 Q848.327,498.5453 848.7785,498.7844 L848.7785,500.9625 Q848.2738,500.4977 847.799,500.2818 Q847.3242,500.066 846.8195,500.066 Q845.7438,500.066 845.1959,500.9193 Q844.648,501.7727 844.648,503.4527 Q844.648,505.1262 845.1959,505.9795 Q845.7438,506.8328 846.8195,506.8328 Q847.3242,506.8328 847.799,506.617 Q848.2738,506.4012 848.7785,505.9363 Z " fill="#000000"/><text fill="#000000" font-family="sans-serif" font-size="8" lengthAdjust="spacing" textLength="97.6" x="858" y="506.2234">Competition_with_others</text></g><g id="elem_Leaderboards"><rect fill="#F1F1F1" height="16.3906" style="stroke:#181818;stroke-width:0.4000000000000001;" width="86.4" x="603.6" y="515.808"/><text fill="#000000" font-family="sans-serif" font-size="11.2" lengthAdjust="spacing" textLength="75.2" x="609.2" y="528.2361">Leaderboards</text></g><g id="elem_GMN15"><path d="M561.2,485.688 L561.2,503.1099 L732.4,503.1099 L732.4,493.688 L724.4,485.688 L561.2,485.688 " fill="#FEFFDD" style="stroke:#181818;stroke-width:0.4000000000000001;"/><path d="M724.4,485.688 L724.4,493.688 L732.4,493.688 L724.4,485.688 " fill="#FEFFDD" style="stroke:#181818;stroke-width:0.8000000000000002;"/><text fill="#000000" font-family="sans-serif" font-size="8" lengthAdjust="spacing" textLength="154.4" x="566" y="497.4224">Competing with other comparing points</text></g><!--class Personal_Goals--><g id="elem_Personal_Goals"><rect codeLine="41" fill="#FFECCE" height="25.6" id="Personal_Goals" rx="2" ry="2" style="stroke:#181818;stroke-width:0.4000000000000001;" width="84.8" x="854" y="551.2"/><ellipse cx="866" cy="564" fill="#ADD1B2" rx="8.8" ry="8.8" style="stroke:#181818;stroke-width:0.8000000000000002;"/><path d="M867.9785,568.9145 Q867.5137,569.1535 867.0023,569.273 Q866.491,569.3926 865.9266,569.3926 Q863.9211,569.3926 862.8652,568.0711 Q861.8094,566.7496 861.8094,564.2527 Q861.8094,561.7492 862.8652,560.4277 Q863.9211,559.1063 865.9266,559.1063 Q866.491,559.1063 867.009,559.2258 Q867.527,559.3453 867.9785,559.5844 L867.9785,561.7625 Q867.4738,561.2977 866.999,561.0818 Q866.5242,560.866 866.0195,560.866 Q864.9438,560.866 864.3959,561.7193 Q863.848,562.5727 863.848,564.2527 Q863.848,565.9262 864.3959,566.7795 Q864.9438,567.6328 866.0195,567.6328 Q866.5242,567.6328 866.999,567.417 Q867.4738,567.2012 867.9785,566.7363 Z " fill="#000000"/><text fill="#000000" font-family="sans-serif" font-size="8" lengthAdjust="spacing" textLength="59.2" x="877.2" y="567.0234">Personal_Goals</text></g><g id="elem_Self_Assigned_Targets"><rect fill="#F1F1F1" height="16.3906" style="stroke:#181818;stroke-width:0.4000000000000001;" width="134.4" x="579.6" y="575.008"/><text fill="#000000" font-family="sans-serif" font-size="11.2" lengthAdjust="spacing" textLength="123.2" x="585.2" y="587.4361">Self_Assigned_Targets</text></g><g id="elem_GMN22"><path d="M592,544.888 L592,562.3099 L701.6,562.3099 L701.6,552.888 L693.6,544.888 L592,544.888 " fill="#FEFFDD" style="stroke:#181818;stroke-width:0.4000000000000001;"/><path d="M693.6,544.888 L693.6,552.888 L701.6,552.888 L693.6,544.888 " fill="#FEFFDD" style="stroke:#181818;stroke-width:0.8000000000000002;"/><text fill="#000000" font-family="sans-serif" font-size="8" lengthAdjust="spacing" textLength="92.8" x="596.8" y="556.6224">Users define objectives.</text></g><!--class Personalization_and_Creativity--><g id="elem_Personalization_and_Creativity"><rect codeLine="49" fill="#FFECCE" height="25.6" id="Personalization_and_Creativity" rx="2" ry="2" style="stroke:#181818;stroke-width:0.4000000000000001;" width="146.4" x="823.2" y="613.6"/><ellipse cx="835.2" cy="626.4" fill="#ADD1B2" rx="8.8" ry="8.8" style="stroke:#181818;stroke-width:0.8000000000000002;"/><path d="M837.1785,631.3145 Q836.7137,631.5535 836.2023,631.673 Q835.691,631.7926 835.1266,631.7926 Q833.1211,631.7926 832.0652,630.4711 Q831.0094,629.1496 831.0094,626.6527 Q831.0094,624.1492 832.0652,622.8277 Q833.1211,621.5063 835.1266,621.5063 Q835.691,621.5063 836.209,621.6258 Q836.727,621.7453 837.1785,621.9844 L837.1785,624.1625 Q836.6738,623.6977 836.199,623.4818 Q835.7242,623.266 835.2195,623.266 Q834.1438,623.266 833.5959,624.1193 Q833.048,624.9727 833.048,626.6527 Q833.048,628.3262 833.5959,629.1795 Q834.1438,630.0328 835.2195,630.0328 Q835.7242,630.0328 836.199,629.817 Q836.6738,629.6012 837.1785,629.1363 Z " fill="#000000"/><text fill="#000000" font-family="sans-serif" font-size="8" lengthAdjust="spacing" textLength="120.8" x="846.4" y="629.4234">Personalization_and_Creativity</text></g><g id="elem_Custom_Player_Made_Content"><rect fill="#F1F1F1" height="16.3906" style="stroke:#181818;stroke-width:0.4000000000000001;" width="176.8" x="558.4" y="713.408"/><text fill="#000000" font-family="sans-serif" font-size="11.2" lengthAdjust="spacing" textLength="165.6" x="564" y="725.8361">Custom_Player_Made_Content</text></g><g id="elem_GMN29"><path d="M590,604.088 L590,621.5099 L703.6,621.5099 L703.6,612.088 L695.6,604.088 L590,604.088 " fill="#FEFFDD" style="stroke:#181818;stroke-width:0.4000000000000001;"/><path d="M695.6,604.088 L695.6,612.088 L703.6,612.088 L695.6,604.088 " fill="#FEFFDD" style="stroke:#181818;stroke-width:0.8000000000000002;"/><text fill="#000000" font-family="sans-serif" font-size="8" lengthAdjust="spacing" textLength="96.8" x="594.8" y="615.8224">User-generated content.</text></g><!--class Sharing_Achievements--><g id="elem_Sharing_Achievements"><rect codeLine="57" fill="#FFECCE" height="25.6" id="Sharing_Achievements" rx="2" ry="2" style="stroke:#181818;stroke-width:0.4000000000000001;" width="112.8" x="840" y="376"/><ellipse cx="852" cy="388.8" fill="#ADD1B2" rx="8.8" ry="8.8" style="stroke:#181818;stroke-width:0.8000000000000002;"/><path d="M853.9785,393.7145 Q853.5137,393.9535 853.0023,394.073 Q852.491,394.1926 851.9266,394.1926 Q849.9211,394.1926 848.8652,392.8711 Q847.8094,391.5496 847.8094,389.0527 Q847.8094,386.5492 848.8652,385.2277 Q849.9211,383.9063 851.9266,383.9063 Q852.491,383.9063 853.009,384.0258 Q853.527,384.1453 853.9785,384.3844 L853.9785,386.5625 Q853.4738,386.0977 852.999,385.8818 Q852.5242,385.666 852.0195,385.666 Q850.9438,385.666 850.3959,386.5193 Q849.848,387.3727 849.848,389.0527 Q849.848,390.7262 850.3959,391.5795 Q850.9438,392.4328 852.0195,392.4328 Q852.5242,392.4328 852.999,392.217 Q853.4738,392.0012 853.9785,391.5363 Z " fill="#000000"/><text fill="#000000" font-family="sans-serif" font-size="8" lengthAdjust="spacing" textLength="87.2" x="863.2" y="391.8234">Sharing_Achievements</text></g><g id="elem_Social_Share_Buttons"><rect fill="#F1F1F1" height="16.3906" style="stroke:#181818;stroke-width:0.4000000000000001;" width="127.2" x="583.2" y="397.408"/><text fill="#000000" font-family="sans-serif" font-size="11.2" lengthAdjust="spacing" textLength="116" x="588.8" y="409.8361">Social_Share_Buttons</text></g><g id="elem_GMN36"><path d="M605.6,367.288 L605.6,384.7099 L688,384.7099 L688,375.288 L680,367.288 L605.6,367.288 " fill="#FEFFDD" style="stroke:#181818;stroke-width:0.4000000000000001;"/><path d="M680,367.288 L680,375.288 L688,375.288 L680,367.288 " fill="#FEFFDD" style="stroke:#181818;stroke-width:0.8000000000000002;"/><text fill="#000000" font-family="sans-serif" font-size="8" lengthAdjust="spacing" textLength="65.6" x="610.4" y="379.0224">Share externally.</text></g><!--class Social_Networking--><g id="elem_Social_Networking"><rect codeLine="65" fill="#FFECCE" height="25.6" id="Social_Networking" rx="2" ry="2" style="stroke:#181818;stroke-width:0.4000000000000001;" width="96.8" x="848" y="272.8"/><ellipse cx="860" cy="285.6" fill="#ADD1B2" rx="8.8" ry="8.8" style="stroke:#181818;stroke-width:0.8000000000000002;"/><path d="M861.9785,290.5145 Q861.5137,290.7535 861.0023,290.873 Q860.491,290.9926 859.9266,290.9926 Q857.9211,290.9926 856.8652,289.6711 Q855.8094,288.3496 855.8094,285.8527 Q855.8094,283.3492 856.8652,282.0277 Q857.9211,280.7063 859.9266,280.7063 Q860.491,280.7063 861.009,280.8258 Q861.527,280.9453 861.9785,281.1844 L861.9785,283.3625 Q861.4738,282.8977 860.999,282.6818 Q860.5242,282.466 860.0195,282.466 Q858.9438,282.466 858.3959,283.3193 Q857.848,284.1727 857.848,285.8527 Q857.848,287.5262 858.3959,288.3795 Q858.9438,289.2328 860.0195,289.2328 Q860.5242,289.2328 860.999,289.017 Q861.4738,288.8012 861.9785,288.3363 Z " fill="#000000"/><text fill="#000000" font-family="sans-serif" font-size="8" lengthAdjust="spacing" textLength="71.2" x="871.2" y="288.6234">Social_Networking</text></g><g id="elem_Community_Insights"><rect fill="#F1F1F1" height="16.3906" style="stroke:#181818;stroke-width:0.4000000000000001;" width="123.2" x="585.2" y="240.608"/><text fill="#000000" font-family="sans-serif" font-size="11.2" lengthAdjust="spacing" textLength="112" x="590.8" y="253.0361">Community_Insights</text></g><g id="elem_GMN43"><path d="M599.2,210.488 L599.2,227.9099 L694.4,227.9099 L694.4,218.488 L686.4,210.488 L599.2,210.488 " fill="#FEFFDD" style="stroke:#181818;stroke-width:0.4000000000000001;"/><path d="M686.4,210.488 L686.4,218.488 L694.4,218.488 L686.4,210.488 " fill="#FEFFDD" style="stroke:#181818;stroke-width:0.8000000000000002;"/><text fill="#000000" font-family="sans-serif" font-size="8" lengthAdjust="spacing" textLength="78.4" x="604" y="222.2224">Show peer behavior.</text></g><!--class Surprises_and_Events--><g id="elem_Surprises_and_Events"><rect codeLine="73" fill="#FFECCE" height="25.6" id="Surprises_and_Events" rx="2" ry="2" style="stroke:#181818;stroke-width:0.4000000000000001;" width="108" x="842.4" y="184.8"/><ellipse cx="854.4" cy="197.6" fill="#ADD1B2" rx="8.8" ry="8.8" style="stroke:#181818;stroke-width:0.8000000000000002;"/><path d="M856.3785,202.5145 Q855.9137,202.7535 855.4023,202.873 Q854.891,202.9926 854.3266,202.9926 Q852.3211,202.9926 851.2652,201.6711 Q850.2094,200.3496 850.2094,197.8527 Q850.2094,195.3492 851.2652,194.0277 Q852.3211,192.7063 854.3266,192.7063 Q854.891,192.7063 855.409,192.8258 Q855.927,192.9453 856.3785,193.1844 L856.3785,195.3625 Q855.8738,194.8977 855.399,194.6818 Q854.9242,194.466 854.4195,194.466 Q853.3438,194.466 852.7959,195.3193 Q852.248,196.1727 852.248,197.8527 Q852.248,199.5262 852.7959,200.3795 Q853.3438,201.2328 854.4195,201.2328 Q854.9242,201.2328 855.399,201.017 Q855.8738,200.8012 856.3785,200.3363 Z " fill="#000000"/><text fill="#000000" font-family="sans-serif" font-size="8" lengthAdjust="spacing" textLength="82.4" x="865.6" y="200.6234">Surprises_and_Events</text></g><g id="elem_Mystery_Boxes"><rect fill="#F1F1F1" height="16.3906" style="stroke:#181818;stroke-width:0.4000000000000001;" width="91.2" x="601.2" y="122.208"/><text fill="#000000" font-family="sans-serif" font-size="11.2" lengthAdjust="spacing" textLength="80" x="606.8" y="134.6361">Mystery_Boxes</text></g><g id="elem_GMN50"><path d="M596.4,92.088 L596.4,109.5099 L697.2,109.5099 L697.2,100.088 L689.2,92.088 L596.4,92.088 " fill="#FEFFDD" style="stroke:#181818;stroke-width:0.4000000000000001;"/><path d="M689.2,92.088 L689.2,100.088 L697.2,100.088 L689.2,92.088 " fill="#FEFFDD" style="stroke:#181818;stroke-width:0.8000000000000002;"/><text fill="#000000" font-family="sans-serif" font-size="8" lengthAdjust="spacing" textLength="84" x="601.2" y="103.8224">Randomized rewards.</text></g><!--class Motivational_Messages--><g id="elem_Motivational_Messages"><rect codeLine="81" fill="#FFECCE" height="25.6" id="Motivational_Messages" rx="2" ry="2" style="stroke:#181818;stroke-width:0.4000000000000001;" width="116.8" x="838" y="144.8"/><ellipse cx="850" cy="157.6" fill="#ADD1B2" rx="8.8" ry="8.8" style="stroke:#181818;stroke-width:0.8000000000000002;"/><path d="M851.9785,162.5145 Q851.5137,162.7535 851.0023,162.873 Q850.491,162.9926 849.9266,162.9926 Q847.9211,162.9926 846.8652,161.6711 Q845.8094,160.3496 845.8094,157.8527 Q845.8094,155.3492 846.8652,154.0277 Q847.9211,152.7063 849.9266,152.7063 Q850.491,152.7063 851.009,152.8258 Q851.527,152.9453 851.9785,153.1844 L851.9785,155.3625 Q851.4738,154.8977 850.999,154.6818 Q850.5242,154.466 850.0195,154.466 Q848.9438,154.466 848.3959,155.3193 Q847.848,156.1727 847.848,157.8527 Q847.848,159.5262 848.3959,160.3795 Q848.9438,161.2328 850.0195,161.2328 Q850.5242,161.2328 850.999,161.017 Q851.4738,160.8012 851.9785,160.3363 Z " fill="#000000"/><text fill="#000000" font-family="sans-serif" font-size="8" lengthAdjust="spacing" textLength="91.2" x="861.2" y="160.6234">Motivational_Messages</text></g><g id="elem_Encouraging_Messages"><rect fill="#F1F1F1" height="16.3906" style="stroke:#181818;stroke-width:0.4000000000000001;" width="139.2" x="577.2" y="63.008"/><text fill="#000000" font-family="sans-serif" font-size="11.2" lengthAdjust="spacing" textLength="128" x="582.8" y="75.4361">Encouraging_Messages</text></g><g id="elem_GMN57"><path d="M593.2,32.888 L593.2,50.3099 L700.4,50.3099 L700.4,40.888 L692.4,32.888 L593.2,32.888 " fill="#FEFFDD" style="stroke:#181818;stroke-width:0.4000000000000001;"/><path d="M692.4,32.888 L692.4,40.888 L700.4,40.888 L692.4,32.888 " fill="#FEFFDD" style="stroke:#181818;stroke-width:0.8000000000000002;"/><text fill="#000000" font-family="sans-serif" font-size="8" lengthAdjust="spacing" textLength="90.4" x="598" y="44.6224">Positive reinforcement.</text></g><!--class Time_Based_Challenges--><g id="elem_Time_Based_Challenges"><rect codeLine="89" fill="#FFECCE" height="25.6" id="Time_Based_Challenges" rx="2" ry="2" style="stroke:#181818;stroke-width:0.4000000000000001;" width="119.2" x="836.8" y="227.2"/><ellipse cx="848.8" cy="240" fill="#ADD1B2" rx="8.8" ry="8.8" style="stroke:#181818;stroke-width:0.8000000000000002;"/><path d="M850.7785,244.9145 Q850.3137,245.1535 849.8023,245.273 Q849.291,245.3926 848.7266,245.3926 Q846.7211,245.3926 845.6652,244.0711 Q844.6094,242.7496 844.6094,240.2527 Q844.6094,237.7492 845.6652,236.4277 Q846.7211,235.1063 848.7266,235.1063 Q849.291,235.1063 849.809,235.2258 Q850.327,235.3453 850.7785,235.5844 L850.7785,237.7625 Q850.2738,237.2977 849.799,237.0818 Q849.3242,236.866 848.8195,236.866 Q847.7438,236.866 847.1959,237.7193 Q846.648,238.5727 846.648,240.2527 Q846.648,241.9262 847.1959,242.7795 Q847.7438,243.6328 848.8195,243.6328 Q849.3242,243.6328 849.799,243.417 Q850.2738,243.2012 850.7785,242.7363 Z " fill="#000000"/><text fill="#000000" font-family="sans-serif" font-size="8" lengthAdjust="spacing" textLength="93.6" x="860" y="243.0234">Time_Based_Challenges</text></g><g id="elem_Appointment_Dynamics"><rect fill="#F1F1F1" height="16.3906" style="stroke:#181818;stroke-width:0.4000000000000001;" width="140.8" x="576.4" y="181.408"/><text fill="#000000" font-family="sans-serif" font-size="11.2" lengthAdjust="spacing" textLength="129.6" x="582" y="193.8361">Appointment_Dynamics</text></g><g id="elem_GMN64"><path d="M603.6,151.288 L603.6,168.7099 L690,168.7099 L690,159.288 L682,151.288 L603.6,151.288 " fill="#FEFFDD" style="stroke:#181818;stroke-width:0.4000000000000001;"/><path d="M682,151.288 L682,159.288 L690,159.288 L682,151.288 " fill="#FEFFDD" style="stroke:#181818;stroke-width:0.8000000000000002;"/><text fill="#000000" font-family="sans-serif" font-size="8" lengthAdjust="spacing" textLength="69.6" x="608.4" y="163.0224">Scheduled events.</text></g><!--class Rewards_and_Unlocks--><g id="elem_Rewards_and_Unlocks"><rect codeLine="97" fill="#FFECCE" height="25.6" id="Rewards_and_Unlocks" rx="2" ry="2" style="stroke:#181818;stroke-width:0.4000000000000001;" width="111.2" x="840.8" y="325.6"/><ellipse cx="852.8" cy="338.4" fill="#ADD1B2" rx="8.8" ry="8.8" style="stroke:#181818;stroke-width:0.8000000000000002;"/><path d="M854.7785,343.3145 Q854.3137,343.5535 853.8023,343.673 Q853.291,343.7926 852.7266,343.7926 Q850.7211,343.7926 849.6652,342.4711 Q848.6094,341.1496 848.6094,338.6527 Q848.6094,336.1492 849.6652,334.8277 Q850.7211,333.5063 852.7266,333.5063 Q853.291,333.5063 853.809,333.6258 Q854.327,333.7453 854.7785,333.9844 L854.7785,336.1625 Q854.2738,335.6977 853.799,335.4818 Q853.3242,335.266 852.8195,335.266 Q851.7438,335.266 851.1959,336.1193 Q850.648,336.9727 850.648,338.6527 Q850.648,340.3262 851.1959,341.1795 Q851.7438,342.0328 852.8195,342.0328 Q853.3242,342.0328 853.799,341.817 Q854.2738,341.6012 854.7785,341.1363 Z " fill="#000000"/><text fill="#000000" font-family="sans-serif" font-size="8" lengthAdjust="spacing" textLength="85.6" x="864" y="341.4234">Rewards_and_Unlocks</text></g><g id="elem_In_Game_Currency"><rect fill="#F1F1F1" height="16.3906" style="stroke:#181818;stroke-width:0.4000000000000001;" width="113.6" x="590" y="299.808"/><text fill="#000000" font-family="sans-serif" font-size="11.2" lengthAdjust="spacing" textLength="102.4" x="595.6" y="312.2361">In_Game_Currency</text></g><g id="elem_GMN71"><path d="M604,269.688 L604,287.1099 L689.6,287.1099 L689.6,277.688 L681.6,269.688 L604,269.688 " fill="#FEFFDD" style="stroke:#181818;stroke-width:0.4000000000000001;"/><path d="M681.6,269.688 L681.6,277.688 L689.6,277.688 L681.6,269.688 " fill="#FEFFDD" style="stroke:#181818;stroke-width:0.8000000000000002;"/><text fill="#000000" font-family="sans-serif" font-size="8" lengthAdjust="spacing" textLength="68.8" x="608.8" y="281.4224">Virtual resources.</text></g><!--class MechanicUserTraitMapping--><g id="elem_MechanicUserTraitMapping"><rect codeLine="107" fill="#F1F1F1" height="41.4219" id="MechanicUserTraitMapping" rx="2" ry="2" style="stroke:#181818;stroke-width:0.4000000000000001;" width="108" x="372.8" y="563.288"/><ellipse cx="384.8" cy="576.088" fill="#ADD1B2" rx="8.8" ry="8.8" style="stroke:#181818;stroke-width:0.8000000000000002;"/><path d="M386.7785,581.0025 Q386.3137,581.2415 385.8023,581.361 Q385.291,581.4806 384.7266,581.4806 Q382.7211,581.4806 381.6652,580.1591 Q380.6094,578.8376 380.6094,576.3407 Q380.6094,573.8372 381.6652,572.5157 Q382.7211,571.1943 384.7266,571.1943 Q385.291,571.1943 385.809,571.3138 Q386.327,571.4333 386.7785,571.6724 L386.7785,573.8505 Q386.2738,573.3857 385.799,573.1698 Q385.3242,572.954 384.8195,572.954 Q383.7438,572.954 383.1959,573.8073 Q382.648,574.6607 382.648,576.3407 Q382.648,578.0142 383.1959,578.8675 Q383.7438,579.7208 384.8195,579.7208 Q385.3242,579.7208 385.799,579.505 Q386.2738,579.2892 386.7785,578.8243 Z " fill="#000000"/><text fill="#000000" font-family="sans-serif" font-size="8" lengthAdjust="spacing" textLength="82.4" x="396" y="579.1114">MechanicUserTraitMapping</text><line style="stroke:#181818;stroke-width:0.4000000000000001;" x1="373.6" x2="480" y1="588.888" y2="588.888"/><ellipse cx="381.6" cy="597.9989" fill="none" rx="2.4" ry="2.4" style="stroke:#038048;stroke-width:0.8000000000000002;"/><text fill="#000000" font-family="sans-serif" font-size="8" lengthAdjust="spacing" textLength="49.6" x="388.8" y="599.8224">weight: float</text></g><g id="elem_Level_and_Experience_Point_System_to_Player"><rect fill="#F1F1F1" height="35.9813" style="stroke:#181818;stroke-width:0.4000000000000001;" width="264" x="36.8" y="566.008"/><text fill="#000000" font-family="sans-serif" font-size="11.2" lengthAdjust="spacing" textLength="252.8" x="42.4" y="578.4361">Level_and_Experience_Point_System_to_Player</text><line style="stroke:#181818;stroke-width:0.4000000000000001;" x1="37.6" x2="300" y1="582.3986" y2="582.3986"/><text fill="#000000" font-family="sans-serif" font-size="11.2" lengthAdjust="spacing" textLength="60.8" x="41.6" y="596.4268">weight: 0.8</text></g><!--class UserTrait--><g id="elem_UserTrait"><rect fill="#F1F1F1" height="25.6" id="UserTrait" rx="2" ry="2" style="stroke:#181818;stroke-width:0.4000000000000001;" width="61.6" x="616" y="662.4"/><ellipse cx="628" cy="675.2" fill="#ADD1B2" rx="8.8" ry="8.8" style="stroke:#181818;stroke-width:0.8000000000000002;"/><path d="M629.9785,680.1145 Q629.5137,680.3535 629.0023,680.473 Q628.491,680.5926 627.9266,680.5926 Q625.9211,680.5926 624.8652,679.2711 Q623.8094,677.9496 623.8094,675.4527 Q623.8094,672.9492 624.8652,671.6277 Q625.9211,670.3063 627.9266,670.3063 Q628.491,670.3063 629.009,670.4258 Q629.527,670.5453 629.9785,670.7844 L629.9785,672.9625 Q629.4738,672.4977 628.999,672.2818 Q628.5242,672.066 628.0195,672.066 Q626.9438,672.066 626.3959,672.9193 Q625.848,673.7727 625.848,675.4527 Q625.848,677.1262 626.3959,677.9795 Q626.9438,678.8328 628.0195,678.8328 Q628.5242,678.8328 628.999,678.617 Q629.4738,678.4012 629.9785,677.9363 Z " fill="#000000"/><text fill="#000000" font-family="sans-serif" font-size="8" lengthAdjust="spacing" textLength="36" x="639.2" y="678.2234">UserTrait</text></g><!--reverse link MotivationalMechanic to Progress_Indicators--><g id="link_MotivationalMechanic_Progress_Indicators"><path d="M716.8951,354.4391 C741.6391,359.0231 751.2,360.8 751.2,360.8 C751.2,360.8 758.4,372.8 758.4,372.8 C758.4,372.8 816,380.8 816,380.8 C816,380.8 823.2,408 823.2,408 C823.2,408 844.088,416.536 863.424,424.448 " fill="none" id="MotivationalMechanic-backto-Progress_Indicators" style="stroke:#181818;stroke-width:0.8000000000000002;"/><polygon fill="none" points="702.736,351.816,716.0207,359.1588,717.7694,349.7194,702.736,351.816" style="stroke:#181818;stroke-width:0.8000000000000002;"/></g><!--link Level_and_Experience_Point_System to Progress_Indicators--><g id="link_Level_and_Experience_Point_System_Progress_Indicators"><path codeLine="28" d="M725.728,456.232 C764.776,451.952 806.1085,447.4107 840.4285,443.6507 " fill="none" id="Level_and_Experience_Point_System-to-Progress_Indicators" style="stroke:#181818;stroke-width:0.8000000000000002;"/><polygon fill="#181818" points="845.2,443.128,837.6943,440.7312,841.2238,443.5636,838.3913,447.0931,845.2,443.128" style="stroke:#181818;stroke-width:0.8000000000000002;"/><text fill="#000000" font-family="sans-serif" font-size="10.4" lengthAdjust="spacing" textLength="56" x="759.2" y="443.6547">instance of</text></g><!--link Level_and_Experience_Point_System to GMN8--><g id="link_Level_and_Experience_Point_System_GMN8"><path d="M646.8,456.472 C646.8,455.552 646.8,454.936 646.8,454.936 C646.8,454.936 646.8,445.064 646.8,445.064 C646.8,445.064 646.8,444.72 646.8,444.16 " fill="none" id="Level_and_Experience_Point_System-GMN8" style="stroke:#181818;stroke-width:0.8000000000000002;stroke-dasharray:7.0,7.0;"/></g><!--reverse link MotivationalMechanic to Competition_with_others--><g id="link_MotivationalMechanic_Competition_with_others"><path d="M716.8951,354.4391 C741.6391,359.0231 751.2,360.8 751.2,360.8 C751.2,360.8 758.4,400.8 758.4,400.8 C758.4,400.8 816,433.6 816,433.6 C816,433.6 823.2,456.8 823.2,456.8 C823.2,456.8 853.64,476.312 875.048,490.024 " fill="none" id="MotivationalMechanic-backto-Competition_with_others" style="stroke:#181818;stroke-width:0.8000000000000002;"/><polygon fill="none" points="702.736,351.816,716.0207,359.1588,717.7694,349.7194,702.736,351.816" style="stroke:#181818;stroke-width:0.8000000000000002;"/></g><!--link Leaderboards to Competition_with_others--><g id="link_Leaderboards_Competition_with_others"><path codeLine="36" d="M690.232,520.424 C729.976,517.088 784.9127,512.4805 829.7207,508.7285 " fill="none" id="Leaderboards-to-Competition_with_others" style="stroke:#181818;stroke-width:0.8000000000000002;"/><polygon fill="#181818" points="834.504,508.328,827.0621,505.7399,830.5179,508.6618,827.5961,512.1176,834.504,508.328" style="stroke:#181818;stroke-width:0.8000000000000002;"/><text fill="#000000" font-family="sans-serif" font-size="10.4" lengthAdjust="spacing" textLength="56" x="759.2" y="507.1827">instance of</text></g><!--link Leaderboards to GMN15--><g id="link_Leaderboards_GMN15"><path d="M646.8,515.672 C646.8,514.752 646.8,514.136 646.8,514.136 C646.8,514.136 646.8,504.264 646.8,504.264 C646.8,504.264 646.8,503.92 646.8,503.36 " fill="none" id="Leaderboards-GMN15" style="stroke:#181818;stroke-width:0.8000000000000002;stroke-dasharray:7.0,7.0;"/></g><!--reverse link MotivationalMechanic to Personal_Goals--><g id="link_MotivationalMechanic_Personal_Goals"><path d="M716.8951,354.4391 C741.6391,359.0231 751.2,360.8 751.2,360.8 C751.2,360.8 758.4,455.2 758.4,455.2 C758.4,455.2 816,492.8 816,492.8 C816,492.8 823.2,522.4 823.2,522.4 C823.2,522.4 851.48,538.648 872.696,550.84 " fill="none" id="MotivationalMechanic-backto-Personal_Goals" style="stroke:#181818;stroke-width:0.8000000000000002;"/><polygon fill="none" points="702.736,351.816,716.0207,359.1588,717.7694,349.7194,702.736,351.816" style="stroke:#181818;stroke-width:0.8000000000000002;"/></g><!--link Self_Assigned_Targets to Personal_Goals--><g id="link_Self_Assigned_Targets_Personal_Goals"><path codeLine="44" d="M714.384,578.032 C758.72,574.6 810.7584,570.5709 848.8464,567.6189 " fill="none" id="Self_Assigned_Targets-to-Personal_Goals" style="stroke:#181818;stroke-width:0.8000000000000002;"/><polygon fill="#181818" points="853.632,567.248,846.2063,564.6139,849.644,567.5571,846.7008,570.9948,853.632,567.248" style="stroke:#181818;stroke-width:0.8000000000000002;"/><text fill="#000000" font-family="sans-serif" font-size="10.4" lengthAdjust="spacing" textLength="56" x="759.2" y="567.4627">instance of</text></g><!--link Self_Assigned_Targets to GMN22--><g id="link_Self_Assigned_Targets_GMN22"><path d="M646.8,574.872 C646.8,573.952 646.8,573.336 646.8,573.336 C646.8,573.336 646.8,563.464 646.8,563.464 C646.8,563.464 646.8,563.12 646.8,562.56 " fill="none" id="Self_Assigned_Targets-GMN22" style="stroke:#181818;stroke-width:0.8000000000000002;stroke-dasharray:7.0,7.0;"/></g><!--reverse link MotivationalMechanic to Personalization_and_Creativity--><g id="link_MotivationalMechanic_Personalization_and_Creativity"><path d="M716.8951,354.4391 C741.6391,359.0231 751.2,360.8 751.2,360.8 C751.2,360.8 758.4,517.6 758.4,517.6 C758.4,517.6 816,553.6 816,553.6 C816,553.6 823.2,583.2 823.2,583.2 C823.2,583.2 852.192,600.496 873.488,613.2 " fill="none" id="MotivationalMechanic-backto-Personalization_and_Creativity" style="stroke:#181818;stroke-width:0.8000000000000002;"/><polygon fill="none" points="702.736,351.816,716.0207,359.1588,717.7694,349.7194,702.736,351.816" style="stroke:#181818;stroke-width:0.8000000000000002;"/></g><!--link Custom_Player_Made_Content to Personalization_and_Creativity--><g id="link_Custom_Player_Made_Content_Personalization_and_Creativity"><path codeLine="52" d="M684.416,713.072 C714.192,706.176 751.2,697.6 751.2,697.6 C751.2,697.6 823.1191,662.1391 864.8071,641.5791 " fill="none" id="Custom_Player_Made_Content-to-Personalization_and_Creativity" style="stroke:#181818;stroke-width:0.8000000000000002;"/><polygon fill="#181818" points="869.112,639.456,861.2392,639.7708,865.5246,641.2253,864.07,645.5106,869.112,639.456" style="stroke:#181818;stroke-width:0.8000000000000002;"/><text fill="#000000" font-family="sans-serif" font-size="10.4" lengthAdjust="spacing" textLength="56" x="759.2" y="663.5187">instance of</text></g><!--link Custom_Player_Made_Content to GMN29--><g id="link_Custom_Player_Made_Content_GMN29"><path d="M609.696,713.072 C579.688,706.176 542.4,697.6 542.4,697.6 C542.4,697.6 521.2,691.2 521.2,691.2 C521.2,691.2 521.2,659.2 521.2,659.2 C521.2,659.2 585.736,635.36 622.288,621.856 " fill="none" id="Custom_Player_Made_Content-GMN29" style="stroke:#181818;stroke-width:0.8000000000000002;stroke-dasharray:7.0,7.0;"/></g><!--reverse link MotivationalMechanic to Sharing_Achievements--><g id="link_MotivationalMechanic_Sharing_Achievements"><path d="M716.9032,354.4384 C766.0152,363.5344 816,372.8 816,372.8 C816,372.8 826.392,374.888 839.664,377.56 " fill="none" id="MotivationalMechanic-backto-Sharing_Achievements" style="stroke:#181818;stroke-width:0.8000000000000002;"/><polygon fill="none" points="702.744,351.816,716.0291,359.1581,717.7773,349.7187,702.744,351.816" style="stroke:#181818;stroke-width:0.8000000000000002;"/></g><!--link Social_Share_Buttons to Sharing_Achievements--><g id="link_Social_Share_Buttons_Sharing_Achievements"><path codeLine="60" d="M710.504,401.336 C750.32,398.64 796.563,395.5083 834.955,392.9083 " fill="none" id="Social_Share_Buttons-to-Sharing_Achievements" style="stroke:#181818;stroke-width:0.8000000000000002;"/><polygon fill="#181818" points="839.744,392.584,832.3442,389.8778,835.7531,392.8543,832.7767,396.2632,839.744,392.584" style="stroke:#181818;stroke-width:0.8000000000000002;"/><text fill="#000000" font-family="sans-serif" font-size="10.4" lengthAdjust="spacing" textLength="56" x="759.2" y="391.4867">instance of</text></g><!--link Social_Share_Buttons to GMN36--><g id="link_Social_Share_Buttons_GMN36"><path d="M646.8,397.272 C646.8,396.352 646.8,395.736 646.8,395.736 C646.8,395.736 646.8,385.864 646.8,385.864 C646.8,385.864 646.8,385.52 646.8,384.96 " fill="none" id="Social_Share_Buttons-GMN36" style="stroke:#181818;stroke-width:0.8000000000000002;stroke-dasharray:7.0,7.0;"/></g><!--reverse link MotivationalMechanic to Social_Networking--><g id="link_MotivationalMechanic_Social_Networking"><path d="M717.0795,334.9986 C766.1915,330.3346 816,325.6 816,325.6 C816,325.6 823.2,319.2 823.2,319.2 C823.2,319.2 846.912,308.2 867.192,298.784 " fill="none" id="MotivationalMechanic-backto-Social_Networking" style="stroke:#181818;stroke-width:0.8000000000000002;"/><polygon fill="none" points="702.744,336.36,717.5333,339.7771,716.6257,330.2201,702.744,336.36" style="stroke:#181818;stroke-width:0.8000000000000002;"/></g><!--link Community_Insights to Social_Networking--><g id="link_Community_Insights_Social_Networking"><path codeLine="68" d="M708.76,257.304 C731.192,260.416 751.2,263.2 751.2,263.2 C751.2,263.2 800.9368,270.9115 842.9768,277.4395 " fill="none" id="Community_Insights-to-Social_Networking" style="stroke:#181818;stroke-width:0.8000000000000002;"/><polygon fill="#181818" points="847.72,278.176,841.0963,273.9091,843.7674,277.5622,840.1143,280.2333,847.72,278.176" style="stroke:#181818;stroke-width:0.8000000000000002;"/><text fill="#000000" font-family="sans-serif" font-size="10.4" lengthAdjust="spacing" textLength="56" x="759.2" y="261.6467">instance of</text></g><!--link Community_Insights to GMN43--><g id="link_Community_Insights_GMN43"><path d="M646.8,240.472 C646.8,239.552 646.8,238.936 646.8,238.936 C646.8,238.936 646.8,229.064 646.8,229.064 C646.8,229.064 646.8,228.72 646.8,228.16 " fill="none" id="Community_Insights-GMN43" style="stroke:#181818;stroke-width:0.8000000000000002;stroke-dasharray:7.0,7.0;"/></g><!--reverse link MotivationalMechanic to Surprises_and_Events--><g id="link_MotivationalMechanic_Surprises_and_Events"><path d="M716.8951,328.7609 C741.6391,324.1769 751.2,322.4 751.2,322.4 C751.2,322.4 758.4,247.2 758.4,247.2 C758.4,247.2 816,229.6 816,229.6 C816,229.6 823.2,220.8 823.2,220.8 C823.2,220.8 838.192,215.992 854.536,210.76 " fill="none" id="MotivationalMechanic-backto-Surprises_and_Events" style="stroke:#181818;stroke-width:0.8000000000000002;"/><polygon fill="none" points="702.736,331.384,717.7694,333.4806,716.0207,324.0412,702.736,331.384" style="stroke:#181818;stroke-width:0.8000000000000002;"/></g><!--link Mystery_Boxes to Surprises_and_Events--><g id="link_Mystery_Boxes_Surprises_and_Events"><path codeLine="76" d="M692.736,136.672 C720.656,140.552 751.2,144.8 751.2,144.8 C751.2,144.8 758.4,186.4 758.4,186.4 C758.4,186.4 798.8559,189.7055 837.3759,192.8495 " fill="none" id="Mystery_Boxes-to-Surprises_and_Events" style="stroke:#181818;stroke-width:0.8000000000000002;"/><polygon fill="#181818" points="842.16,193.24,835.2442,189.4649,838.1733,192.9146,834.7235,195.8437,842.16,193.24" style="stroke:#181818;stroke-width:0.8000000000000002;"/><text fill="#000000" font-family="sans-serif" font-size="10.4" lengthAdjust="spacing" textLength="56" x="759.2" y="183.6547">instance of</text></g><!--link Mystery_Boxes to GMN50--><g id="link_Mystery_Boxes_GMN50"><path d="M646.8,122.072 C646.8,121.152 646.8,120.536 646.8,120.536 C646.8,120.536 646.8,110.664 646.8,110.664 C646.8,110.664 646.8,110.32 646.8,109.76 " fill="none" id="Mystery_Boxes-GMN50" style="stroke:#181818;stroke-width:0.8000000000000002;stroke-dasharray:7.0,7.0;"/></g><!--reverse link MotivationalMechanic to Motivational_Messages--><g id="link_MotivationalMechanic_Motivational_Messages"><path d="M716.8951,328.7609 C741.6391,324.1769 751.2,322.4 751.2,322.4 C751.2,322.4 758.4,208.8 758.4,208.8 C758.4,208.8 816,194.4 816,194.4 C816,194.4 823.2,178.4 823.2,178.4 C823.2,178.4 835.376,174.904 849.744,170.776 " fill="none" id="MotivationalMechanic-backto-Motivational_Messages" style="stroke:#181818;stroke-width:0.8000000000000002;"/><polygon fill="none" points="702.736,331.384,717.7694,333.4806,716.0207,324.0412,702.736,331.384" style="stroke:#181818;stroke-width:0.8000000000000002;"/></g><!--link Encouraging_Messages to Motivational_Messages--><g id="link_Encouraging_Messages_Motivational_Messages"><path codeLine="84" d="M709.36,79.784 C731.544,82.872 751.2,85.6 751.2,85.6 C751.2,85.6 823.5443,121.6743 865.1523,142.4183 " fill="none" id="Encouraging_Messages-to-Motivational_Messages" style="stroke:#181818;stroke-width:0.8000000000000002;"/><polygon fill="#181818" points="869.448,144.56,864.4322,138.4837,865.8682,142.7753,861.5766,144.2113,869.448,144.56" style="stroke:#181818;stroke-width:0.8000000000000002;"/><text fill="#000000" font-family="sans-serif" font-size="10.4" lengthAdjust="spacing" textLength="56" x="759.2" y="86.6947">instance of</text></g><!--link Encouraging_Messages to GMN57--><g id="link_Encouraging_Messages_GMN57"><path d="M646.8,62.872 C646.8,61.952 646.8,61.336 646.8,61.336 C646.8,61.336 646.8,51.464 646.8,51.464 C646.8,51.464 646.8,51.12 646.8,50.56 " fill="none" id="Encouraging_Messages-GMN57" style="stroke:#181818;stroke-width:0.8000000000000002;stroke-dasharray:7.0,7.0;"/></g><!--reverse link MotivationalMechanic to Time_Based_Challenges--><g id="link_MotivationalMechanic_Time_Based_Challenges"><path d="M716.8951,328.7609 C741.6391,324.1769 751.2,322.4 751.2,322.4 C751.2,322.4 758.4,305.6 758.4,305.6 C758.4,305.6 816,276 816,276 C816,276 823.2,266.4 823.2,266.4 C823.2,266.4 841.44,259.752 859.616,253.12 " fill="none" id="MotivationalMechanic-backto-Time_Based_Challenges" style="stroke:#181818;stroke-width:0.8000000000000002;"/><polygon fill="none" points="702.736,331.384,717.7694,333.4806,716.0207,324.0412,702.736,331.384" style="stroke:#181818;stroke-width:0.8000000000000002;"/></g><!--link Appointment_Dynamics to Time_Based_Challenges--><g id="link_Appointment_Dynamics_Time_Based_Challenges"><path codeLine="92" d="M709.36,198.184 C731.544,201.272 751.2,204 751.2,204 C751.2,204 758.4,216.8 758.4,216.8 C758.4,216.8 794.6992,222.9357 831.8832,229.2237 " fill="none" id="Appointment_Dynamics-to-Time_Based_Challenges" style="stroke:#181818;stroke-width:0.8000000000000002;"/><polygon fill="#181818" points="836.616,230.024,830.0504,225.6683,832.672,229.357,828.9832,231.9787,836.616,230.024" style="stroke:#181818;stroke-width:0.8000000000000002;"/><text fill="#000000" font-family="sans-serif" font-size="10.4" lengthAdjust="spacing" textLength="56" x="759.2" y="214.0547">instance of</text></g><!--link Appointment_Dynamics to GMN64--><g id="link_Appointment_Dynamics_GMN64"><path d="M646.8,181.272 C646.8,180.352 646.8,179.736 646.8,179.736 C646.8,179.736 646.8,169.864 646.8,169.864 C646.8,169.864 646.8,169.52 646.8,168.96 " fill="none" id="Appointment_Dynamics-GMN64" style="stroke:#181818;stroke-width:0.8000000000000002;stroke-dasharray:7.0,7.0;"/></g><!--reverse link MotivationalMechanic to Rewards_and_Unlocks--><g id="link_MotivationalMechanic_Rewards_and_Unlocks"><path d="M717.0388,340.7027 C758.0628,340.1747 799.456,339.64 840.504,339.112 " fill="none" id="MotivationalMechanic-backto-Rewards_and_Unlocks" style="stroke:#181818;stroke-width:0.8000000000000002;"/><polygon fill="none" points="702.64,340.888,717.1006,345.5023,716.977,335.9031,702.64,340.888" style="stroke:#181818;stroke-width:0.8000000000000002;"/></g><!--link In_Game_Currency to Rewards_and_Unlocks--><g id="link_In_Game_Currency_Rewards_and_Unlocks"><path codeLine="100" d="M703.872,314.896 C744.744,319.912 795.0196,326.0723 835.6356,331.0483 " fill="none" id="In_Game_Currency-to-Rewards_and_Unlocks" style="stroke:#181818;stroke-width:0.8000000000000002;"/><polygon fill="#181818" points="840.4,331.632,833.6426,327.5802,836.4297,331.1456,832.8643,333.9327,840.4,331.632" style="stroke:#181818;stroke-width:0.8000000000000002;"/><text fill="#000000" font-family="sans-serif" font-size="10.4" lengthAdjust="spacing" textLength="56" x="759.2" y="319.5427">instance of</text></g><!--link In_Game_Currency to GMN71--><g id="link_In_Game_Currency_GMN71"><path d="M646.8,299.672 C646.8,298.752 646.8,298.136 646.8,298.136 C646.8,298.136 646.8,288.264 646.8,288.264 C646.8,288.264 646.8,287.92 646.8,287.36 " fill="none" id="In_Game_Currency-GMN71" style="stroke:#181818;stroke-width:0.8000000000000002;stroke-dasharray:7.0,7.0;"/></g><!--link Level_and_Experience_Point_System_to_Player to MechanicUserTraitMapping--><g id="link_Level_and_Experience_Point_System_to_Player_MechanicUserTraitMapping"><path codeLine="113" d="M301.176,584 C326.512,584 346.864,584 367.88,584 " fill="none" id="Level_and_Experience_Point_System_to_Player-to-MechanicUserTraitMapping" style="stroke:#181818;stroke-width:0.8000000000000002;"/><polygon fill="#181818" points="372.68,584,365.48,580.8,368.68,584,365.48,587.2,372.68,584" style="stroke:#181818;stroke-width:0.8000000000000002;"/><text fill="#000000" font-family="sans-serif" font-size="10.4" lengthAdjust="spacing" textLength="56" x="308.8" y="581.2547">instance of</text></g><!--link MechanicUserTraitMapping to MotivationalMechanic--><g id="link_MechanicUserTraitMapping_MotivationalMechanic"><path codeLine="118" d="M438.4,563 C466.976,507.44 542.4,360.8 542.4,360.8 C542.4,360.8 561.4003,357.2744 586.1443,352.6904 " fill="none" id="MechanicUserTraitMapping-to-MotivationalMechanic" style="stroke:#181818;stroke-width:0.8000000000000002;"/><polygon fill="#181818" points="590.864,351.816,583.2016,349.9811,586.9309,352.5446,584.3674,356.274,590.864,351.816" style="stroke:#181818;stroke-width:0.8000000000000002;"/><text fill="#000000" font-family="sans-serif" font-size="10.4" lengthAdjust="spacing" textLength="27.2" x="507.2" y="373.3667">maps</text></g><!--link MechanicUserTraitMapping to UserTrait--><g id="link_MechanicUserTraitMapping_UserTrait"><path codeLine="119" d="M459.576,604.944 C493.544,627.2 542.4,659.2 542.4,659.2 C542.4,659.2 580.4322,665.0759 611.0162,669.7959 " fill="none" id="MechanicUserTraitMapping-to-UserTrait" style="stroke:#181818;stroke-width:0.8000000000000002;"/><polygon fill="#181818" points="615.76,670.528,609.1323,666.2673,611.8068,669.9179,608.1562,672.5924,615.76,670.528" style="stroke:#181818;stroke-width:0.8000000000000002;"/><text fill="#000000" font-family="sans-serif" font-size="10.4" lengthAdjust="spacing" textLength="27.2" x="507.2" y="634.2307">maps</text></g><!--SRC=[dLV1Zjis4BthAmRe8OTsZImAB88jK63Zf460EZ3YJPiRGLCZYRL42YHbhnBi5_KJUikNTKXPZYtHgtKkY-Le-8RlpN0ujXkfQcvu1QLKwDeQeTPbwnT9YPa3fy78l72GIeF2IQsIf90f0bQrQw52L-ZK7fkuSqQk6uVsrB5Qex59yW8sY3Le8r4vxW5_0ODf8n1sCdL5OWKl4LxENYNsS3YbKxIqw_hco6YusWJZiUUIYmtFyLww4l_Gogta5uJhwoEFUScjVUBJNN_-xpulXpuhXmQrbolkz46VRa_gxbYmq4vk0sjUBb0KN4bXuQSiosxm5NnD0Cwg3Y1yw2Y4Hy1VrpTPHcv1zQZN8GbFOIL9zsrfT6xGMlPUfL9mfqquA0g1MGRuu52bPn3q-XywDVo9MomPLobx-r2ZJxX0jjHIERPghSCgcVI0gwlVeoUvXM__IcKTfnsWis__9OeqXxLsJbTaU4RmkJPKxNji8l0Rv4RlN05RoU7p4cWlDAhKOcDd2P457w5NPwwh6ftqnDbEke9fL-3p5GevEeVHf-aW8q_Hh3KtTD6E5q6SSo3F4EW8Te-YSl0O4310a94RRwozRdOamf82ULhidURbPTm7MmUKLrXcx8woaYjCsJqtELBugBMha5EqIUvn_4_M2vTYHjqFkfF8BKQItuUJNmAtK6LpWxJOIkfrFwB36QY1BlF64WEsB7cBXYqeWMnEROOwQNB-qub2P-9CAlP4P2_RLOuA3NUOKjK4yrYrLH6AYTs9GjBbhCZfifg90WmhHmj9TU1TaRrkwFYA2YTY3Af44QUh9nh3hm89GmSlsmZ_Rji7T3jjDlvQNKH-j7jO6xgg6aN9f3Pf_UCHRlN0rB4UGKsdVmo-AlGEQgG-iSQ2RwKs4SgDgOsqQBj6lBqyvJ600V65R-UcPQ_r0yqS9wkERWnZal4fwaVQgYjwpLCQLdQ-POx97hDW2tfJwC6_Z6qSOK3thHAwCJptTTlx935Z81-7d6GV3RBKLlgEI198bMaZmeKP2t4lAxeNt59hdHTq5r1TAaGSOI34NHsU9Ny6zgPLlA9HAeaPWn1no4aXea5Meg29jQHYm51DOma-TaKIAkvJDqDS941i_u3-UyNUSU8qRuoXuQPDXeP0EmOqINe4_PSqhk4b9TvIMOZJDv6coNwyzK-1CrmwrjEXfwAkVOlni-rXxDn_lFUkVsEOTBz2S03uUHSCjv2LchlE-XZ-FdUiP4xl7wfzL80Uq_-i-0vu2LAuJ95ptyAHbE35UFH_Nf1MPKYjfTLvNMOnpE75FVnIc4N7-bkeUFs3OVoMOBEpmxyzuEF_]--></g></svg>