<?xml version="1.0" encoding="us-ascii" standalone="no"?><svg xmlns="http://www.w3.org/2000/svg" xmlns:xlink="http://www.w3.org/1999/xlink" contentStyleType="text/css" height="2024.9202px" preserveAspectRatio="none" style="width:4028px;height:2024px;background:#FFFFFF;" version="1.1" viewBox="0 0 4028 2024" width="4028.1669px" zoomAndPan="magnify"><defs/><g><!--cluster Personal Development App--><g id="cluster_Personal Development App"><rect fill="#EBFFE8" height="876.2269" rx="7.7405" ry="7.7405" style="stroke:#181818;stroke-width:3.0962081871110194;" width="2402.6576" x="767.8596" y="295.9046"/><text fill="#000000" font-family="sans-serif" font-size="37.1545" font-weight="bold" lengthAdjust="spacing" textLength="523.2592" x="1707.5588" y="338.0179">Personal Development App</text></g><!--cluster MA_Adapter--><g id="cluster_MA_Adapter"><rect fill="#EBFFE8" height="517.0668" rx="7.7405" ry="7.7405" style="stroke:#181818;stroke-width:3.0962081871110194;" width="396.3146" x="3614.8231" y="1063.7642"/><text fill="#000000" font-family="sans-serif" font-size="37.1545" font-weight="bold" lengthAdjust="spacing" textLength="232.2156" x="3696.8726" y="1105.8775">MA_Adapter</text></g><!--cluster Motivational_Assistant--><g id="cluster_Motivational_Assistant"><rect fill="#E8E8FF" height="356.0639" rx="7.7405" ry="7.7405" style="stroke:#181818;stroke-width:3.0962081871110194;" width="3203.0274" x="21.6735" y="1562.2538"/><text fill="#000000" font-family="sans-serif" font-size="37.1545" font-weight="bold" lengthAdjust="spacing" textLength="442.7578" x="1401.8083" y="1604.367">Motivational_Assistant</text></g><!--entity PA_UI--><g id="elem_PA_UI"><rect fill="#F1F1F1" height="105.6823" rx="7.7405" ry="7.7405" style="stroke:#181818;stroke-width:1.5481040935555097;" width="161.0028" x="2043.4974" y="397.8628"/><text fill="#000000" font-family="sans-serif" font-size="37.1545" lengthAdjust="spacing" textLength="99.0787" x="2074.4595" y="464.7457">PA_UI</text></g><!--entity MA_UI--><g id="elem_MA_UI"><rect fill="#F1F1F1" height="105.6823" rx="7.7405" ry="7.7405" style="stroke:#181818;stroke-width:1.5481040935555097;" width="170.2915" x="2038.8531" y="657.9442"/><text fill="#000000" font-family="sans-serif" font-size="37.1545" lengthAdjust="spacing" textLength="108.3673" x="2069.8152" y="724.8272">MA_UI</text></g><!--entity EventBus--><g id="elem_EventBus"><rect fill="#F1F1F1" height="105.6823" rx="7.7405" ry="7.7405" style="stroke:#181818;stroke-width:1.5481040935555097;" width="219.8308" x="2901.1471" y="828.2357"/><text fill="#000000" font-family="sans-serif" font-size="37.1545" lengthAdjust="spacing" textLength="157.9066" x="2932.1092" y="895.1186">EventBus</text></g><!--entity ContentEngine--><g id="elem_ContentEngine"><rect fill="#F1F1F1" height="105.6823" rx="7.7405" ry="7.7405" style="stroke:#181818;stroke-width:1.5481040935555097;" width="315.8132" x="817.399" y="914.9295"/><text fill="#000000" font-family="sans-serif" font-size="37.1545" lengthAdjust="spacing" textLength="253.8891" x="848.361" y="981.8125">ContentEngine</text></g><!--entity EventMapper--><g id="elem_EventMapper"><rect fill="#F1F1F1" height="105.6823" rx="7.7405" ry="7.7405" style="stroke:#181818;stroke-width:1.5481040935555097;" width="297.236" x="3664.3624" y="1165.7224"/><text fill="#000000" font-family="sans-serif" font-size="37.1545" lengthAdjust="spacing" textLength="235.3118" x="3695.3245" y="1232.6053">EventMapper</text></g><!--entity ActionBridge--><g id="elem_ActionBridge"><rect fill="#F1F1F1" height="105.6823" rx="7.7405" ry="7.7405" style="stroke:#181818;stroke-width:1.5481040935555097;" width="284.8512" x="3670.5548" y="1425.8039"/><text fill="#000000" font-family="sans-serif" font-size="37.1545" lengthAdjust="spacing" textLength="222.927" x="3701.5169" y="1492.6868">ActionBridge</text></g><!--entity EventIngestion--><g id="elem_EventIngestion"><rect fill="#D6D6FF" height="105.6823" rx="7.7405" ry="7.7405" style="stroke:#181818;stroke-width:1.5481040935555097;" width="315.8132" x="71.2128" y="1713.7512"/><text fill="#000000" font-family="sans-serif" font-size="37.1545" lengthAdjust="spacing" textLength="253.8891" x="102.1749" y="1780.6342">EventIngestion</text></g><!--entity DecisionEngine--><g id="elem_DecisionEngine"><rect fill="#D6D6FF" height="105.6823" rx="7.7405" ry="7.7405" style="stroke:#181818;stroke-width:1.5481040935555097;" width="328.1981" x="2846.9634" y="1664.2119"/><text fill="#000000" font-family="sans-serif" font-size="37.1545" lengthAdjust="spacing" textLength="266.2739" x="2877.9255" y="1731.0948">DecisionEngine</text></g><!--entity CRUDOperator--><g id="elem_CRUDOperator"><rect fill="#D6D6FF" height="105.6823" rx="7.7405" ry="7.7405" style="stroke:#181818;stroke-width:1.5481040935555097;" width="337.4867" x="806.5622" y="1664.2119"/><text fill="#000000" font-family="sans-serif" font-size="37.1545" lengthAdjust="spacing" textLength="275.5625" x="837.5243" y="1731.0948">CRUD Operator</text></g><!--entity DomainModel--><g id="elem_DomainModel"><rect fill="#FDE8FF" height="105.6823" rx="7.7405" ry="7.7405" style="stroke:#181818;stroke-width:1.5481040935555097;" width="318.9094" x="1964.5441" y="1664.2119"/><text fill="#000000" font-family="sans-serif" font-size="37.1545" lengthAdjust="spacing" textLength="244.6004" x="1995.5062" y="1731.0948">DomainModel</text></g><!--entity user--><g id="elem_user"><ellipse cx="975.3056" cy="43.3469" fill="#F1F1F1" rx="24.7697" ry="24.7697" style="stroke:#181818;stroke-width:1.5481040935555097;"/><path d="M975.3056,68.1166 L975.3056,151.7142 M935.0549,92.8862 L1015.5563,92.8862 M975.3056,151.7142 L935.0549,198.1573 M975.3056,151.7142 L1015.5563,198.1573 " fill="none" style="stroke:#181818;stroke-width:1.5481040935555097;"/><text fill="#000000" font-family="sans-serif" font-size="37.1545" lengthAdjust="spacing" textLength="80.5014" x="935.0549" y="238.7225">User</text></g><!--link user to MA_UI--><g id="link_user_MA_UI"><path d="M1018.0952,176.4219 C1053.1133,216.7655 1104.5723,278.5039 1144.0489,336.1553 C1175.3826,381.9482 1162.4094,410.1857 1205.9731,444.5226 C1338.1812,548.71 1820.1174,651.93 2019.699,691.3447 " fill="none" id="user-to-MA_UI" style="stroke:#181818;stroke-width:1.8577249122666115;"/><polygon fill="#181818" points="2037.9242,694.9439,2012.9859,677.3949,2022.7365,691.9446,2008.1869,701.6952,2037.9242,694.9439" style="stroke:#181818;stroke-width:1.8577249122666115;"/><text fill="#000000" font-family="sans-serif" font-size="37.1545" lengthAdjust="spacing" textLength="151.7142" x="1459.8622" y="434.0003">interacts</text></g><!--link user to PA_UI--><g id="link_user_PA_UI"><path d="M1018.5906,140.5369 C1144.5753,168.2789 1542.7477,258.3166 1865.4654,357.8288 C1925.439,376.3131 1974.6813,394.0589 2024.8398,413.1934 " fill="none" id="user-to-PA_UI" style="stroke:#181818;stroke-width:1.8577249122666115;"/><polygon fill="#181818" points="2042.197,419.8149,2020.5756,398.3113,2027.7327,414.297,2011.747,421.4542,2042.197,419.8149" style="stroke:#181818;stroke-width:1.8577249122666115;"/><text fill="#000000" font-family="sans-serif" font-size="37.1545" lengthAdjust="spacing" textLength="151.7142" x="1459.8622" y="175.0644">interacts</text></g><!--link MA_UI to EventBus--><g id="link_MA_UI_EventBus"><path d="M2209.9805,726.8039 C2370.1474,757.797 2703.8848,822.2945 2881.9787,856.7243 " fill="none" id="MA_UI-to-EventBus" style="stroke:#181818;stroke-width:1.8577249122666115;"/><polygon fill="#181818" points="2900.2182,860.2505,2875.2097,842.8016,2885.0186,857.312,2870.5082,867.121,2900.2182,860.2505" style="stroke:#181818;stroke-width:1.8577249122666115;"/><text fill="#000000" font-family="sans-serif" font-size="37.1545" lengthAdjust="spacing" textLength="222.927" x="2472.3222" y="750.5876">emits Events</text></g><!--link PA_UI to EventBus--><g id="link_PA_UI_EventBus"><path d="M2205.5839,466.0413 C2333.7669,493.4427 2592.9195,558.9894 2785.0393,673.642 C2854.4872,715.1002 2908.1033,767.3296 2950.026,813.7108 " fill="none" id="PA_UI-to-EventBus" style="stroke:#181818;stroke-width:1.8577249122666115;"/><polygon fill="#181818" points="2962.483,827.4926,2952.9854,798.5153,2952.1021,816.0078,2934.6096,815.1246,2962.483,827.4926" style="stroke:#181818;stroke-width:1.8577249122666115;"/><text fill="#000000" font-family="sans-serif" font-size="37.1545" lengthAdjust="spacing" textLength="222.927" x="2472.3222" y="501.3429">emits Events</text></g><!--link EventBus to EventMapper--><g id="link_EventBus_EventMapper"><path d="M3122.3092,926.9428 C3268.0477,988.7741 3510.005,1091.3735 3665.1251,1157.1679 " fill="none" id="EventBus-to-EventMapper" style="stroke:#181818;stroke-width:1.8577249122666115;"/><polygon fill="#181818" points="3682.2275,1164.422,3661.4099,1142.1393,3667.9755,1158.377,3651.7378,1164.9426,3682.2275,1164.422" style="stroke:#181818;stroke-width:1.8577249122666115;"/><text fill="#000000" font-family="sans-serif" font-size="37.1545" lengthAdjust="spacing" textLength="284.8512" x="3277.3364" y="989.3672">forwards events</text></g><!--link EventMapper to EventIngestion--><g id="link_EventMapper_EventIngestion"><path d="M3697.1512,1272.7273 C3660.616,1293.41 3621.4489,1319.2014 3590.0534,1348.6154 C3306.8432,1613.9604 3402.2684,2005.0115 3014.1587,2005.0115 C972.2094,2005.0115 972.2094,2005.0115 972.2094,2005.0115 C733.3059,2005.0115 487.6051,1899.4218 348.4615,1829.076 " fill="none" id="EventMapper-to-EventIngestion" style="stroke:#181818;stroke-width:1.8577249122666115;"/><polygon fill="#181818" points="331.8826,1820.6943,351.1632,1844.3194,345.6983,1827.679,362.3388,1822.2142,331.8826,1820.6943" style="stroke:#181818;stroke-width:1.8577249122666115;"/><text fill="#000000" font-family="sans-serif" font-size="37.1545" lengthAdjust="spacing" textLength="278.6587" x="1984.6694" y="1994.4893">mapped events</text></g><!--link DecisionEngine to ActionBridge--><g id="link_DecisionEngine_ActionBridge"><path d="M3176.1523,1668.5466 C3321.1167,1625.1068 3513.6464,1567.3995 3651.6135,1526.0652 " fill="none" id="DecisionEngine-to-ActionBridge" style="stroke:#181818;stroke-width:1.8577249122666115;"/><polygon fill="#181818" points="3669.4092,1520.7336,3639.1612,1516.8671,3654.5794,1525.1766,3646.2699,1540.5948,3669.4092,1520.7336" style="stroke:#181818;stroke-width:1.8577249122666115;"/><text fill="#000000" font-family="sans-serif" font-size="37.1545" lengthAdjust="spacing" textLength="284.8512" x="3277.3364" y="1545.2604">Assistant_Action</text></g><!--link ActionBridge to ContentEngine--><g id="link_ActionBridge_ContentEngine"><path d="M3669.3782,1453.2982 C3192.0978,1367.1926 1653.2039,1089.5411 1152.9495,999.2867 " fill="none" id="ActionBridge-to-ContentEngine" style="stroke:#181818;stroke-width:1.8577249122666115;"/><polygon fill="#181818" points="1134.6674,995.9882,1159.8916,1013.1239,1149.9025,998.7369,1164.2895,988.7478,1134.6674,995.9882" style="stroke:#181818;stroke-width:1.8577249122666115;"/><text fill="#000000" font-family="sans-serif" font-size="37.1545" lengthAdjust="spacing" textLength="396.3146" x="2385.6284" y="1212.6967">apply Assistant_Action</text></g><!--link ContentEngine to MA_UI--><g id="link_ContentEngine_MA_UI"><path d="M1133.6766,932.8566 C1378.9273,877.6821 1829.5379,776.3334 2019.6141,733.5748 " fill="none" id="ContentEngine-to-MA_UI" style="stroke:#181818;stroke-width:1.8577249122666115;"/><polygon fill="#181818" points="2037.7385,729.4976,2007.8339,723.5305,2022.6349,732.8952,2013.2701,747.6962,2037.7385,729.4976" style="stroke:#181818;stroke-width:1.8577249122666115;"/><text fill="#000000" font-family="sans-serif" font-size="37.1545" lengthAdjust="spacing" textLength="653.2999" x="1209.0693" y="762.3842">deliver messages/toggles mechanics</text></g><!--link ContentEngine to EventBus--><g id="link_ContentEngine_EventBus"><path d="M1134.6984,966.3266 C1311.9253,964.2521 1609.5948,959.5149 1865.4654,949.2045 C2246.1752,933.8783 2679.0097,904.6019 2881.5946,890.2355 " fill="none" id="ContentEngine-to-EventBus" style="stroke:#181818;stroke-width:1.8577249122666115;"/><polygon fill="#181818" points="2900.1253,888.9214,2871.4532,878.5387,2884.6831,890.0165,2873.2053,903.2464,2900.1253,888.9214" style="stroke:#181818;stroke-width:1.8577249122666115;"/><text fill="#000000" font-family="sans-serif" font-size="37.1545" lengthAdjust="spacing" textLength="387.026" x="1930.4858" y="915.9561">emits resulting Events</text></g><!--link EventIngestion to CRUDOperator--><g id="link_EventIngestion_CRUDOperator"><path d="M388.2335,1756.1693 C510.7815,1747.9643 662.5064,1737.8136 787.5932,1729.4229 " fill="none" id="EventIngestion-to-CRUDOperator" style="stroke:#181818;stroke-width:1.8577249122666115;"/><polygon fill="#181818" points="806.1288,1728.1796,777.4965,1717.6875,790.6824,1729.2157,779.1543,1742.4017,806.1288,1728.1796" style="stroke:#181818;stroke-width:1.8577249122666115;"/><text fill="#000000" font-family="sans-serif" font-size="37.1545" lengthAdjust="spacing" textLength="263.1777" x="452.0464" y="1723.9736">provide events</text></g><!--link CRUDOperator to DomainModel--><g id="link_CRUDOperator_DomainModel"><path d="M1163.1216,1717.0642 C1382.8285,1717.0642 1730.0682,1717.0642 1945.1928,1717.0642 " fill="none" id="CRUDOperator-DomainModel" style="stroke:#181818;stroke-width:1.8577249122666115;"/><polygon fill="#181818" points="1144.5443,1717.0642,1172.4102,1729.449,1160.0254,1717.0642,1172.4102,1704.6793,1144.5443,1717.0642" style="stroke:#181818;stroke-width:1.8577249122666115;"/><polygon fill="#181818" points="1963.77,1717.0642,1935.9042,1704.6793,1948.289,1717.0642,1935.9042,1729.449,1963.77,1717.0642" style="stroke:#181818;stroke-width:1.8577249122666115;"/><text fill="#000000" font-family="sans-serif" font-size="37.1545" lengthAdjust="spacing" textLength="188.8687" x="1441.2849" y="1706.5419">read/write</text></g><!--link DomainModel to DecisionEngine--><g id="link_DomainModel_DecisionEngine"><path d="M2284.5682,1717.0642 C2442.9392,1717.0642 2667.3524,1717.0642 2827.3025,1717.0642 " fill="none" id="DomainModel-to-DecisionEngine" style="stroke:#181818;stroke-width:1.8577249122666115;"/><polygon fill="#181818" points="2845.8798,1717.0642,2818.0139,1704.6793,2830.3987,1717.0642,2818.0139,1729.449,2845.8798,1717.0642" style="stroke:#181818;stroke-width:1.8577249122666115;"/><text fill="#000000" font-family="sans-serif" font-size="37.1545" lengthAdjust="spacing" textLength="238.408" x="2464.5817" y="1706.5419">domain_state</text></g><!--SRC=[XLHDRzim3BthLn3EOQUk7zkAmXW6k4q7z10iMDTpe5gqBSIM3559a0txxwDinv6R54iEYSZ7hySdKIvhXEkhcy-mqyfNWZh3JJ1KgClA2q5hRLhfP0DKIMLtsfHGo9fGL5eXa4U7rk_RuOnDw_VGOFEAZaIDXGTlmOLSeBJ3t6jhegJ6AYHiuSjLP7JIh8FnSspCdBExNvNErmQ9uEhZRUHKMCXDxRzRuv_rRvxf9d8-r9BetZg5xi7Mri7iK_SvWSXyNJgxCMg05TqdWhMCa2K- -ptJ58QHfgnH29bxnhyGEf046_uLOi12icGch94rp76BjMqRD1wojarWXgz5WNVmHy0n6ooprSiJ5xyEtubdyQudUTnorliD9Q61mo62Jj4Fp1D37asf3NOX4yiOzpSQWujdIhQyx_SQxvjOoBODc4CV_VbyrradXtkdLTct4HlETR6mNczbmCXwbH5fubIU-xd3kw8usy-JAP52nB6bqGGpTQjkUSMJi3dccjWRqJCrZM5lMFtvCeSVFAnaDVIiikLWY6gzAMSRgSs2Bq8DIQWLdMU52eC52iG7kBYu64Hc53pl-UurKDHs5nmYg8x_V1jKaeBcZJfM9XrTonDN3mw-KJGfNsBj1wf8BF-B6EqZQDXv2eLrE-aK0VRGOOX1IE5fM6HTzt7OcEQufnIQu5DZdZSB2I4JxQGmgcFLEmwrmoqFXGV-Gl59P4WrlGqfSErwVvfn2ekvvztfBO_Iy5F5kgLBRqjUDh4XhwJHEPq9Fk7N8V6Z5bxSnmbzS-abo3mFx-18tf6iRe9OUIcqpcwxvxdFC_5-3VX8T2dNbUfovxJdforMOmUS4fz2eZh4Yfdnc8X_]--></g></svg>