<?xml version="1.0" encoding="UTF-8"?>
<svg id="Layer_1" data-name="Layer 1" xmlns="http://www.w3.org/2000/svg" viewBox="0 0 1509.73 732.5">
  <defs>
    <style>
      .cls-1, .cls-2, .cls-3, .cls-4, .cls-5, .cls-6, .cls-7, .cls-8, .cls-9 {
        stroke: #181818;
      }

      .cls-1, .cls-2, .cls-3, .cls-4, .cls-6 {
        stroke-width: .5px;
      }

      .cls-1, .cls-7 {
        fill: #f1f1f1;
      }

      .cls-2 {
        fill: #feffdd;
      }

      .cls-10, .cls-11, .cls-4, .cls-5 {
        fill: none;
      }

      .cls-10, .cls-12 {
        stroke: #000;
        stroke-width: 1.5px;
      }

      .cls-13 {
        font-family: Helvetica-Bold, Helvetica;
        font-weight: 700;
      }

      .cls-13, .cls-14, .cls-15 {
        isolation: isolate;
      }

      .cls-13, .cls-15 {
        font-size: 14px;
      }

      .cls-11 {
        stroke: #038048;
      }

      .cls-16 {
        letter-spacing: 1.06em;
      }

      .cls-3 {
        fill: #ffecce;
      }

      .cls-17 {
        letter-spacing: .98em;
      }

      .cls-18 {
        letter-spacing: .29em;
      }

      .cls-19 {
        letter-spacing: .29em;
      }

      .cls-20 {
        letter-spacing: .29em;
      }

      .cls-21 {
        letter-spacing: .29em;
      }

      .cls-22 {
        letter-spacing: .7em;
      }

      .cls-23 {
        letter-spacing: .74em;
      }

      .cls-24 {
        letter-spacing: .58em;
      }

      .cls-25 {
        letter-spacing: .57em;
      }

      .cls-26 {
        letter-spacing: .46em;
      }

      .cls-27 {
        letter-spacing: .46em;
      }

      .cls-28 {
        letter-spacing: .46em;
      }

      .cls-6 {
        fill: #ffe3b6;
      }

      .cls-8 {
        fill: #add1b2;
      }

      .cls-14 {
        font-size: 13px;
      }

      .cls-14, .cls-15 {
        font-family: Helvetica, Helvetica;
      }

      .cls-29 {
        letter-spacing: -.07em;
      }

      .cls-30 {
        letter-spacing: -.07em;
      }

      .cls-31 {
        letter-spacing: -.02em;
      }

      .cls-9 {
        fill: #181818;
      }

      .cls-32 {
        letter-spacing: -.05em;
      }

      .cls-33 {
        letter-spacing: 0em;
      }

      .cls-34 {
        letter-spacing: 0em;
      }

      .cls-35 {
        letter-spacing: .05em;
      }

      .cls-36 {
        letter-spacing: .05em;
      }

      .cls-37 {
        letter-spacing: .05em;
      }

      .cls-38 {
        letter-spacing: .05em;
      }

      .cls-39 {
        letter-spacing: .06em;
      }

      .cls-40 {
        letter-spacing: .06em;
      }

      .cls-41 {
        letter-spacing: .03em;
      }

      .cls-42 {
        letter-spacing: .02em;
      }

      .cls-43 {
        letter-spacing: .02em;
      }

      .cls-44 {
        letter-spacing: .03em;
      }

      .cls-45 {
        letter-spacing: .02em;
      }

      .cls-46 {
        letter-spacing: .02em;
      }

      .cls-47 {
        letter-spacing: .02em;
      }

      .cls-48 {
        letter-spacing: .04em;
      }

      .cls-49 {
        letter-spacing: .05em;
      }

      .cls-50 {
        letter-spacing: .05em;
      }

      .cls-51 {
        letter-spacing: .05em;
      }

      .cls-52 {
        letter-spacing: .06em;
      }

      .cls-53 {
        letter-spacing: .05em;
      }

      .cls-54 {
        letter-spacing: .04em;
      }

      .cls-55 {
        letter-spacing: .04em;
      }

      .cls-56 {
        letter-spacing: .04em;
      }

      .cls-57 {
        letter-spacing: .04em;
      }

      .cls-58 {
        letter-spacing: .03em;
      }

      .cls-59 {
        letter-spacing: .03em;
      }

      .cls-60 {
        letter-spacing: .04em;
      }

      .cls-61 {
        letter-spacing: .04em;
      }

      .cls-62 {
        letter-spacing: .04em;
      }

      .cls-63 {
        letter-spacing: .03em;
      }

      .cls-64 {
        letter-spacing: .03em;
      }

      .cls-65 {
        letter-spacing: .03em;
      }

      .cls-66 {
        letter-spacing: .03em;
      }

      .cls-12 {
        fill: #fff6e8;
      }

      .cls-67 {
        letter-spacing: .01em;
      }
    </style>
  </defs>
  <g id="cluster_MotivationalMechanics" data-name="cluster MotivationalMechanics">
    <rect class="cls-12" x=".75" y=".75" width="1508.23" height="731" rx="2.5" ry="2.5"/>
    <text class="cls-13" transform="translate(677.96 16.29) scale(.93 1)"><tspan class="cls-54" x="0" y="0">MotivationalMechanic</tspan><tspan x="157.22" y="0">s</tspan></text>
  </g>
  <g id="cluster_Usertrait_Mechanic_Mapping" data-name="cluster Usertrait Mechanic Mapping">
    <rect class="cls-10" x="24.75" y="490.49" width="631" height="107" rx="2.5" ry="2.5"/>
    <text class="cls-13" transform="translate(237.75 506.03)"><tspan class="cls-58" x="0" y="0">Usertrait_Mechanic_Mappin</tspan><tspan x="196.45" y="0">g</tspan></text>
  </g>
  <g id="cluster_UserTraits" data-name="cluster UserTraits">
    <rect class="cls-10" x="402.25" y="252.75" width="127" height="83" rx="2.5" ry="2.5"/>
    <text class="cls-13" transform="translate(428.25 268.29)"><tspan class="cls-38" x="0" y="0">User</tspan><tspan class="cls-34" x="34.02" y="0">T</tspan><tspan class="cls-53" x="42.53" y="0">rait</tspan><tspan x="67.21" y="0">s</tspan></text>
  </g>
  <g id="elem_MotivationalMechanic" data-name="elem MotivationalMechanic">
    <rect id="MotivationalMechanic" class="cls-6" x="375.75" y="359.75" width="180" height="32" rx="2.5" ry="2.5"/>
    <circle class="cls-8" cx="390.75" cy="375.75" r="11"/>
    <path d="M393.22,381.89c-.39.2-.79.35-1.22.45-.43.1-.87.15-1.34.15-1.67,0-2.95-.55-3.83-1.65-.88-1.1-1.32-2.69-1.32-4.77s.44-3.68,1.32-4.78c.88-1.1,2.16-1.65,3.83-1.65.47,0,.92.05,1.35.15.43.1.84.25,1.21.45v2.72c-.42-.39-.83-.67-1.22-.85-.4-.18-.8-.27-1.22-.27-.9,0-1.57.36-2.03,1.07-.46.71-.68,1.77-.68,3.17s.23,2.45.68,3.16c.46.71,1.13,1.07,2.03,1.07.42,0,.83-.09,1.22-.27.4-.18.8-.46,1.22-.85v2.72Z"/>
    <text class="cls-15" transform="translate(404.75 381.04)"><tspan class="cls-49" x="0" y="0">MotivationalMechani</tspan><tspan x="141" y="0">c</tspan></text>
  </g>
  <g id="elem_Progress_Indicators" data-name="elem Progress Indicators">
    <rect id="Progress_Indicators" data-name="Progress Indicators" class="cls-3" x="730.25" y="683.75" width="167" height="32" rx="2.5" ry="2.5"/>
    <circle class="cls-8" cx="745.25" cy="699.75" r="11"/>
    <path d="M747.72,705.89c-.39.2-.79.35-1.22.45s-.87.15-1.34.15c-1.67,0-2.95-.55-3.83-1.65-.88-1.1-1.32-2.69-1.32-4.77s.44-3.68,1.32-4.78c.88-1.1,2.16-1.65,3.83-1.65.47,0,.92.05,1.35.15s.84.25,1.21.45v2.72c-.42-.39-.83-.67-1.22-.85s-.8-.27-1.22-.27c-.9,0-1.57.36-2.03,1.07-.46.71-.68,1.77-.68,3.17s.23,2.45.68,3.16c.46.71,1.13,1.07,2.03,1.07.42,0,.83-.09,1.22-.27.4-.18.8-.46,1.22-.85v2.72Z"/>
    <text class="cls-15" transform="translate(759.25 705.04)"><tspan class="cls-57" x="0" y="0">Progress_Indicator</tspan><tspan x="128" y="0">s</tspan></text>
  </g>
  <g id="elem_Level_and_Experience_Point_System" data-name="elem Level and Experience Point System">
    <rect id="Level_and_Experience_Point_System" data-name="Level and Experience Point System" class="cls-1" x="975.75" y="683.75" width="279" height="32" rx="2.5" ry="2.5"/>
    <circle class="cls-8" cx="990.75" cy="699.75" r="11"/>
    <path d="M993.22,705.89c-.39.2-.79.35-1.22.45s-.87.15-1.34.15c-1.67,0-2.95-.55-3.83-1.65-.88-1.1-1.32-2.69-1.32-4.77s.44-3.68,1.32-4.78c.88-1.1,2.16-1.65,3.83-1.65.47,0,.92.05,1.35.15s.84.25,1.21.45v2.72c-.42-.39-.83-.67-1.22-.85s-.8-.27-1.22-.27c-.9,0-1.57.36-2.03,1.07-.46.71-.68,1.77-.68,3.17s.23,2.45.68,3.16c.46.71,1.13,1.07,2.03,1.07.42,0,.83-.09,1.22-.27.4-.18.8-.46,1.22-.85v2.72Z"/>
    <text class="cls-15" transform="translate(1004.75 705.04)"><tspan class="cls-46" x="0" y="0">Level_and_Experience_Point_Syste</tspan><tspan x="235.34" y="0">m</tspan></text>
  </g>
  <g id="elem_Competition_with_others" data-name="elem Competition with others">
    <rect id="Competition_with_others" data-name="Competition with others" class="cls-3" x="711.75" y="611.75" width="204" height="32" rx="2.5" ry="2.5"/>
    <circle class="cls-8" cx="726.75" cy="627.75" r="11"/>
    <path d="M729.22,633.89c-.39.2-.79.35-1.22.45s-.87.15-1.34.15c-1.67,0-2.95-.55-3.83-1.65-.88-1.1-1.32-2.69-1.32-4.77s.44-3.68,1.32-4.78c.88-1.1,2.16-1.65,3.83-1.65.47,0,.92.05,1.35.15.43.1.84.25,1.21.45v2.72c-.42-.39-.83-.67-1.22-.85s-.8-.27-1.22-.27c-.9,0-1.57.36-2.03,1.07-.46.71-.68,1.77-.68,3.17s.23,2.45.68,3.16c.46.71,1.13,1.07,2.03,1.07.42,0,.83-.09,1.22-.27.4-.18.8-.46,1.22-.85v2.72Z"/>
    <text class="cls-15" transform="translate(740.75 633.04)"><tspan class="cls-39" x="0" y="0">Competition_with_other</tspan><tspan x="165" y="0">s</tspan></text>
  </g>
  <g id="elem_Leaderboards" data-name="elem Leaderboards">
    <rect id="Leaderboards" class="cls-1" x="1052.25" y="611.75" width="126" height="32" rx="2.5" ry="2.5"/>
    <circle class="cls-8" cx="1067.25" cy="627.75" r="11"/>
    <path d="M1069.72,633.89c-.39.2-.79.35-1.22.45s-.87.15-1.34.15c-1.67,0-2.95-.55-3.83-1.65-.88-1.1-1.32-2.69-1.32-4.77s.44-3.68,1.32-4.78c.88-1.1,2.16-1.65,3.83-1.65.47,0,.92.05,1.35.15.43.1.84.25,1.21.45v2.72c-.42-.39-.83-.67-1.22-.85s-.8-.27-1.22-.27c-.9,0-1.57.36-2.03,1.07s-.68,1.77-.68,3.17.23,2.45.68,3.16c.46.71,1.13,1.07,2.03,1.07.42,0,.83-.09,1.22-.27.4-.18.8-.46,1.22-.85v2.72Z"/>
    <text class="cls-15" transform="translate(1081.25 633.04)"><tspan class="cls-51" x="0" y="0">Leaderboard</tspan><tspan x="87" y="0">s</tspan></text>
  </g>
  <g id="elem_GMN12" data-name="elem GMN12">
    <path class="cls-2" d="M1193.76,614.93v8.66l-15.06,4.16,15.06,3.84v8.65h307v-15.31l-10-10h-297"/>
    <path class="cls-2" d="M1490.76,614.93v10h10l-10-10"/>
    <text class="cls-14" transform="translate(1199.76 632.5)"><tspan x="0" y="0">Core</tspan><tspan class="cls-20" x="28.18" y="0"> </tspan><tspan x="35.54" y="0">progression;</tspan><tspan class="cls-21" x="107.08" y="0"> </tspan><tspan x="114.43" y="0">growth</tspan><tspan class="cls-20" x="153.45" y="0"> </tspan><tspan x="160.81" y="0">via</tspan><tspan class="cls-20" x="177.43" y="0"> </tspan><tspan x="184.79" y="0">X</tspan><tspan class="cls-31" x="193.46" y="0">P</tspan><tspan class="cls-21" x="201.9" y="0"> </tspan><tspan x="209.26" y="0">and</tspan><tspan class="cls-20" x="230.95" y="0"> </tspan><tspan x="238.31" y="0">unlocks.</tspan></text>
  </g>
  <g id="elem_Personal_Goals" data-name="elem Personal Goals">
    <rect id="Personal_Goals" data-name="Personal Goals" class="cls-3" x="745.75" y="539.75" width="136" height="32" rx="2.5" ry="2.5"/>
    <circle class="cls-8" cx="760.75" cy="555.75" r="11"/>
    <path d="M763.22,561.89c-.39.2-.79.35-1.22.45s-.87.15-1.34.15c-1.67,0-2.95-.55-3.83-1.65-.88-1.1-1.32-2.69-1.32-4.77s.44-3.68,1.32-4.78c.88-1.1,2.16-1.65,3.83-1.65.47,0,.92.05,1.35.15.43.1.84.25,1.21.45v2.72c-.42-.39-.83-.67-1.22-.85s-.8-.27-1.22-.27c-.9,0-1.57.36-2.03,1.07-.46.71-.68,1.77-.68,3.17s.23,2.45.68,3.16c.46.71,1.13,1.07,2.03,1.07.42,0,.83-.09,1.22-.27.4-.18.8-.46,1.22-.85v2.72Z"/>
    <text class="cls-15" transform="translate(774.75 561.04)"><tspan class="cls-42" x="0" y="0">Personal_Goal</tspan><tspan x="97" y="0">s</tspan></text>
  </g>
  <g id="elem_Self_Assigned_Targets" data-name="elem Self Assigned Targets">
    <rect id="Self_Assigned_Targets" data-name="Self Assigned Targets" class="cls-1" x="1022.25" y="539.75" width="186" height="32" rx="2.5" ry="2.5"/>
    <circle class="cls-8" cx="1037.25" cy="555.75" r="11"/>
    <path d="M1039.72,561.89c-.39.2-.79.35-1.22.45s-.87.15-1.34.15c-1.67,0-2.95-.55-3.83-1.65-.88-1.1-1.32-2.69-1.32-4.77s.44-3.68,1.32-4.78c.88-1.1,2.16-1.65,3.83-1.65.47,0,.92.05,1.35.15.43.1.84.25,1.21.45v2.72c-.42-.39-.83-.67-1.22-.85s-.8-.27-1.22-.27c-.9,0-1.57.36-2.03,1.07s-.68,1.77-.68,3.17.23,2.45.68,3.16c.46.71,1.13,1.07,2.03,1.07.42,0,.83-.09,1.22-.27.4-.18.8-.46,1.22-.85v2.72Z"/>
    <text class="cls-15" transform="translate(1051.25 561.04)"><tspan class="cls-61" x="0" y="0">Self_Assigned_</tspan><tspan class="cls-30" x="104.85" y="0">T</tspan><tspan class="cls-61" x="112.39" y="0">arget</tspan><tspan x="147" y="0">s</tspan></text>
  </g>
  <g id="elem_GMN19" data-name="elem GMN19">
    <path class="cls-2" d="M1261.76,542.93v8.66l-53.03,4.16,53.03,3.84v8.65h171v-15.31l-10-10h-161"/>
    <path class="cls-2" d="M1422.76,542.93v10h10l-10-10"/>
    <text class="cls-14" transform="translate(1267.76 560.5)"><tspan x="0" y="0">Users</tspan><tspan class="cls-28" x="33.95" y="0"> </tspan><tspan x="43.56" y="0">define</tspan><tspan class="cls-27" x="78.98" y="0"> </tspan><tspan x="88.58" y="0">objectives.</tspan></text>
  </g>
  <g id="elem_Personalization_and_Creativity" data-name="elem Personalization and Creativity">
    <rect id="Personalization_and_Creativity" data-name="Personalization and Creativity" class="cls-3" x="692.75" y="467.75" width="242" height="32" rx="2.5" ry="2.5"/>
    <circle class="cls-8" cx="707.75" cy="483.75" r="11"/>
    <path d="M710.22,489.89c-.39.2-.79.35-1.22.45s-.87.15-1.34.15c-1.67,0-2.95-.55-3.83-1.65-.88-1.1-1.32-2.69-1.32-4.77s.44-3.68,1.32-4.78c.88-1.1,2.16-1.65,3.83-1.65.47,0,.92.05,1.35.15.43.1.84.25,1.21.45v2.72c-.42-.39-.83-.67-1.22-.85s-.8-.27-1.22-.27c-.9,0-1.57.36-2.03,1.07-.46.71-.68,1.77-.68,3.17s.23,2.45.68,3.16c.46.71,1.13,1.07,2.03,1.07.42,0,.83-.09,1.22-.27.4-.18.8-.46,1.22-.85v2.72Z"/>
    <text class="cls-15" transform="translate(721.75 489.04)"><tspan class="cls-55" x="0" y="0">Personalization_and_Creativit</tspan><tspan x="203" y="0">y</tspan></text>
  </g>
  <g id="elem_Custom_Player_Made_Content" data-name="elem Custom Player Made Content">
    <rect id="Custom_Player_Made_Content" data-name="Custom Player Made Content" class="cls-1" x="995.75" y="467.75" width="239" height="32" rx="2.5" ry="2.5"/>
    <circle class="cls-8" cx="1010.75" cy="483.75" r="11"/>
    <path d="M1013.22,489.89c-.39.2-.79.35-1.22.45s-.87.15-1.34.15c-1.67,0-2.95-.55-3.83-1.65-.88-1.1-1.32-2.69-1.32-4.77s.44-3.68,1.32-4.78c.88-1.1,2.16-1.65,3.83-1.65.47,0,.92.05,1.35.15.43.1.84.25,1.21.45v2.72c-.42-.39-.83-.67-1.22-.85s-.8-.27-1.22-.27c-.9,0-1.57.36-2.03,1.07-.46.71-.68,1.77-.68,3.17s.23,2.45.68,3.16c.46.71,1.13,1.07,2.03,1.07.42,0,.83-.09,1.22-.27.4-.18.8-.46,1.22-.85v2.72Z"/>
    <text class="cls-15" transform="translate(1024.75 489.04)"><tspan class="cls-59" x="0" y="0">Custom_Player_Made_Conten</tspan><tspan x="203.11" y="0">t</tspan></text>
  </g>
  <g id="elem_GMN26" data-name="elem GMN26">
    <path class="cls-2" d="M1259.76,470.93v8.66l-24.59,4.16,24.59,3.84v8.65h175v-15.31l-10-10h-165"/>
    <path class="cls-2" d="M1424.76,470.93v10h10l-10-10"/>
    <text class="cls-14" transform="translate(1265.76 488.5)"><tspan x="0" y="0">User-generated</tspan><tspan class="cls-16" x="90.33" y="0"> </tspan><tspan x="107.75" y="0">content.</tspan></text>
  </g>
  <g id="elem_Sharing_Achievements" data-name="elem Sharing Achievements">
    <rect id="Sharing_Achievements" data-name="Sharing Achievements" class="cls-3" x="720.25" y="395.75" width="187" height="32" rx="2.5" ry="2.5"/>
    <circle class="cls-8" cx="735.25" cy="411.75" r="11"/>
    <path d="M737.72,417.89c-.39.2-.79.35-1.22.45s-.87.15-1.34.15c-1.67,0-2.95-.55-3.83-1.65-.88-1.1-1.32-2.69-1.32-4.77s.44-3.68,1.32-4.78c.88-1.1,2.16-1.65,3.83-1.65.47,0,.92.05,1.35.15.43.1.84.25,1.21.45v2.72c-.42-.39-.83-.67-1.22-.85s-.8-.27-1.22-.27c-.9,0-1.57.36-2.03,1.07-.46.71-.68,1.77-.68,3.17s.23,2.45.68,3.16c.46.71,1.13,1.07,2.03,1.07.42,0,.83-.09,1.22-.27.4-.18.8-.46,1.22-.85v2.72Z"/>
    <text class="cls-15" transform="translate(749.25 417.04)"><tspan class="cls-56" x="0" y="0">Sharing_Achievement</tspan><tspan x="148" y="0">s</tspan></text>
  </g>
  <g id="elem_Social_Share_Buttons" data-name="elem Social Share Buttons">
    <rect id="Social_Share_Buttons" data-name="Social Share Buttons" class="cls-1" x="1026.75" y="395.75" width="177" height="32" rx="2.5" ry="2.5"/>
    <circle class="cls-8" cx="1041.75" cy="411.75" r="11"/>
    <path d="M1044.22,417.89c-.39.2-.79.35-1.22.45s-.87.15-1.34.15c-1.67,0-2.95-.55-3.83-1.65-.88-1.1-1.32-2.69-1.32-4.77s.44-3.68,1.32-4.78c.88-1.1,2.16-1.65,3.83-1.65.47,0,.92.05,1.35.15.43.1.84.25,1.21.45v2.72c-.42-.39-.83-.67-1.22-.85s-.8-.27-1.22-.27c-.9,0-1.57.36-2.03,1.07-.46.71-.68,1.77-.68,3.17s.23,2.45.68,3.16c.46.71,1.13,1.07,2.03,1.07.42,0,.83-.09,1.22-.27.4-.18.8-.46,1.22-.85v2.72Z"/>
    <text class="cls-15" transform="translate(1055.75 417.04)"><tspan class="cls-43" x="0" y="0">Social_Share_Button</tspan><tspan x="138" y="0">s</tspan></text>
  </g>
  <g id="elem_GMN33" data-name="elem GMN33">
    <path class="cls-2" d="M1284.76,398.93v8.66l-80.85,4.16,80.85,3.84v8.65h125v-15.31l-10-10h-115"/>
    <path class="cls-2" d="M1399.76,398.93v10h10l-10-10"/>
    <text class="cls-14" transform="translate(1290.76 416.5)"><tspan x="0" y="0">Share</tspan><tspan class="cls-25" x="34.69" y="0"> </tspan><tspan x="45.71" y="0">externall</tspan><tspan class="cls-29" x="94.85" y="0">y</tspan><tspan x="100.39" y="0">.</tspan></text>
  </g>
  <g id="elem_Social_Networking" data-name="elem Social Networking">
    <rect id="Social_Networking" data-name="Social Networking" class="cls-3" x="734.75" y="323.75" width="158" height="32" rx="2.5" ry="2.5"/>
    <circle class="cls-8" cx="749.75" cy="339.75" r="11"/>
    <path d="M752.22,345.89c-.39.2-.79.35-1.22.45s-.87.15-1.34.15c-1.67,0-2.95-.55-3.83-1.65-.88-1.1-1.32-2.69-1.32-4.77s.44-3.68,1.32-4.78c.88-1.1,2.16-1.65,3.83-1.65.47,0,.92.05,1.35.15.43.1.84.25,1.21.45v2.72c-.42-.39-.83-.67-1.22-.85s-.8-.27-1.22-.27c-.9,0-1.57.36-2.03,1.07-.46.71-.68,1.77-.68,3.17s.23,2.45.68,3.16c.46.71,1.13,1.07,2.03,1.07.42,0,.83-.09,1.22-.27.4-.18.8-.46,1.22-.85v2.72Z"/>
    <text class="cls-15" transform="translate(763.75 345.04)"><tspan class="cls-48" x="0" y="0">Social_Networkin</tspan><tspan x="118.21" y="0">g</tspan></text>
  </g>
  <g id="elem_Community_Insights" data-name="elem Community Insights">
    <rect id="Community_Insights" data-name="Community Insights" class="cls-1" x="1029.25" y="323.75" width="172" height="32" rx="2.5" ry="2.5"/>
    <circle class="cls-8" cx="1044.25" cy="339.75" r="11"/>
    <path d="M1046.72,345.89c-.39.2-.79.35-1.22.45s-.87.15-1.34.15c-1.67,0-2.95-.55-3.83-1.65-.88-1.1-1.32-2.69-1.32-4.77s.44-3.68,1.32-4.78c.88-1.1,2.16-1.65,3.83-1.65.47,0,.92.05,1.35.15.43.1.84.25,1.21.45v2.72c-.42-.39-.83-.67-1.22-.85s-.8-.27-1.22-.27c-.9,0-1.57.36-2.03,1.07-.46.71-.68,1.77-.68,3.17s.23,2.45.68,3.16c.46.71,1.13,1.07,2.03,1.07.42,0,.83-.09,1.22-.27.4-.18.8-.46,1.22-.85v2.72Z"/>
    <text class="cls-15" transform="translate(1058.25 345.04)"><tspan class="cls-52" x="0" y="0">Community_Insight</tspan><tspan x="133" y="0">s</tspan></text>
  </g>
  <g id="elem_GMN40" data-name="elem GMN40">
    <path class="cls-2" d="M1273.76,326.93v8.66l-72.01,4.16,72.01,3.84v8.65h147v-15.31l-10-10h-137"/>
    <path class="cls-2" d="M1410.76,326.93v10h10l-10-10"/>
    <text class="cls-14" transform="translate(1279.76 344.5)"><tspan x="0" y="0">Show</tspan><tspan class="cls-18" x="32.52" y="0"> </tspan><tspan x="39.87" y="0">peer</tspan><tspan class="cls-19" x="65.89" y="0"> </tspan><tspan x="73.23" y="0">behavio</tspan><tspan class="cls-32" x="118.77" y="0">r</tspan><tspan x="122.39" y="0">.</tspan></text>
  </g>
  <g id="elem_Surprises_and_Events" data-name="elem Surprises and Events">
    <rect id="Surprises_and_Events" data-name="Surprises and Events" class="cls-3" x="723.75" y="251.75" width="180" height="32" rx="2.5" ry="2.5"/>
    <circle class="cls-8" cx="738.75" cy="267.75" r="11"/>
    <path d="M741.22,273.89c-.39.2-.79.35-1.22.45-.43.1-.87.15-1.34.15-1.67,0-2.95-.55-3.83-1.65-.88-1.1-1.32-2.69-1.32-4.77s.44-3.68,1.32-4.78c.88-1.1,2.16-1.65,3.83-1.65.47,0,.92.05,1.35.15.43.1.84.25,1.21.45v2.72c-.42-.39-.83-.67-1.22-.85s-.8-.27-1.22-.27c-.9,0-1.57.36-2.03,1.07-.46.71-.68,1.77-.68,3.17s.23,2.45.68,3.16c.46.71,1.13,1.07,2.03,1.07.42,0,.83-.09,1.22-.27.4-.18.8-.46,1.22-.85v2.72Z"/>
    <text class="cls-15" transform="translate(752.75 273.04)"><tspan class="cls-44" x="0" y="0">Surprises_and_Event</tspan><tspan x="141" y="0">s</tspan></text>
  </g>
  <g id="elem_Mystery_Boxes" data-name="elem Mystery Boxes">
    <rect id="Mystery_Boxes" data-name="Mystery Boxes" class="cls-1" x="1049.25" y="251.75" width="132" height="32" rx="2.5" ry="2.5"/>
    <circle class="cls-8" cx="1064.25" cy="267.75" r="11"/>
    <path d="M1066.72,273.89c-.39.2-.79.35-1.22.45-.43.1-.87.15-1.34.15-1.67,0-2.95-.55-3.83-1.65-.88-1.1-1.32-2.69-1.32-4.77s.44-3.68,1.32-4.78c.88-1.1,2.16-1.65,3.83-1.65.47,0,.92.05,1.35.15.43.1.84.25,1.21.45v2.72c-.42-.39-.83-.67-1.22-.85s-.8-.27-1.22-.27c-.9,0-1.57.36-2.03,1.07-.46.71-.68,1.77-.68,3.17s.23,2.45.68,3.16c.46.71,1.13,1.07,2.03,1.07.42,0,.83-.09,1.22-.27.4-.18.8-.46,1.22-.85v2.72Z"/>
    <text class="cls-15" transform="translate(1078.25 273.04)"><tspan class="cls-41" x="0" y="0">Mystery_Boxe</tspan><tspan x="93" y="0">s</tspan></text>
  </g>
  <g id="elem_GMN47" data-name="elem GMN47">
    <path class="cls-2" d="M1269.76,254.93v8.66l-88.31,4.16,88.31,3.84v8.65h155v-15.31l-10-10h-145"/>
    <path class="cls-2" d="M1414.76,254.93v10h10l-10-10"/>
    <text class="cls-14" transform="translate(1275.76 272.5)"><tspan x="0" y="0">Randomized</tspan><tspan class="cls-24" x="72.99" y="0"> </tspan><tspan x="84.15" y="0">rewards.</tspan></text>
  </g>
  <g id="elem_Motivational_Messages" data-name="elem Motivational Messages">
    <rect id="Motivational_Messages" data-name="Motivational Messages" class="cls-3" x="719.25" y="179.75" width="189" height="32" rx="2.5" ry="2.5"/>
    <circle class="cls-8" cx="734.25" cy="195.75" r="11"/>
    <path d="M736.72,201.89c-.39.2-.79.35-1.22.45-.43.1-.87.15-1.34.15-1.67,0-2.95-.55-3.83-1.65-.88-1.1-1.32-2.69-1.32-4.77s.44-3.68,1.32-4.78c.88-1.1,2.16-1.65,3.83-1.65.47,0,.92.05,1.35.15s.84.25,1.21.45v2.72c-.42-.39-.83-.67-1.22-.85-.4-.18-.8-.27-1.22-.27-.9,0-1.57.36-2.03,1.07-.46.71-.68,1.77-.68,3.17s.23,2.45.68,3.16c.46.71,1.13,1.07,2.03,1.07.42,0,.83-.09,1.22-.27.4-.18.8-.46,1.22-.85v2.72Z"/>
    <text class="cls-15" transform="translate(748.25 201.04)"><tspan class="cls-60" x="0" y="0">Motivational_Message</tspan><tspan x="150" y="0">s</tspan></text>
  </g>
  <g id="elem_Encouraging_Messages" data-name="elem Encouraging Messages">
    <rect id="Encouraging_Messages" data-name="Encouraging Messages" class="cls-1" x="1019.25" y="179.75" width="192" height="32" rx="2.5" ry="2.5"/>
    <circle class="cls-8" cx="1034.25" cy="195.75" r="11"/>
    <path d="M1036.72,201.89c-.39.2-.79.35-1.22.45-.43.1-.87.15-1.34.15-1.67,0-2.95-.55-3.83-1.65-.88-1.1-1.32-2.69-1.32-4.77s.44-3.68,1.32-4.78c.88-1.1,2.16-1.65,3.83-1.65.47,0,.92.05,1.35.15s.84.25,1.21.45v2.72c-.42-.39-.83-.67-1.22-.85-.4-.18-.8-.27-1.22-.27-.9,0-1.57.36-2.03,1.07-.46.71-.68,1.77-.68,3.17s.23,2.45.68,3.16c.46.71,1.13,1.07,2.03,1.07.42,0,.83-.09,1.22-.27.4-.18.8-.46,1.22-.85v2.72Z"/>
    <text class="cls-15" transform="translate(1048.25 201.04)"><tspan class="cls-62" x="0" y="0">Encouraging_Message</tspan><tspan x="153" y="0">s</tspan></text>
  </g>
  <g id="elem_GMN54" data-name="elem GMN54">
    <path class="cls-2" d="M1264.26,182.93v8.66l-52.87,4.16,52.87,3.84v8.65h166v-15.31l-10-10h-156"/>
    <path class="cls-2" d="M1420.26,182.93v10h10l-10-10"/>
    <text class="cls-14" transform="translate(1270.26 200.5)"><tspan x="0" y="0">Positive</tspan><tspan class="cls-17" x="45.52" y="0"> </tspan><tspan x="61.91" y="0">reinforcement.</tspan></text>
  </g>
  <g id="elem_Time_Based_Challenges" data-name="elem Time Based Challenges">
    <rect id="Time_Based_Challenges" data-name="Time Based Challenges" class="cls-3" x="715.75" y="107.75" width="196" height="32" rx="2.5" ry="2.5"/>
    <circle class="cls-8" cx="730.75" cy="123.75" r="11"/>
    <path d="M733.22,129.89c-.39.2-.79.35-1.22.45-.43.1-.87.15-1.34.15-1.67,0-2.95-.55-3.83-1.65-.88-1.1-1.32-2.69-1.32-4.77s.44-3.68,1.32-4.78c.88-1.1,2.16-1.65,3.83-1.65.47,0,.92.05,1.35.15.43.1.84.25,1.21.45v2.72c-.42-.39-.83-.67-1.22-.85-.4-.18-.8-.27-1.22-.27-.9,0-1.57.36-2.03,1.07-.46.71-.68,1.77-.68,3.17s.23,2.45.68,3.16c.46.71,1.13,1.07,2.03,1.07.42,0,.83-.09,1.22-.27.4-.18.8-.46,1.22-.85v2.72Z"/>
    <text class="cls-15" transform="translate(744.75 129.04)"><tspan class="cls-33" x="0" y="0">T</tspan><tspan class="cls-63" x="8.44" y="0">ime_Based_Challenge</tspan><tspan x="157" y="0">s</tspan></text>
  </g>
  <g id="elem_Appointment_Dynamics" data-name="elem Appointment Dynamics">
    <rect id="Appointment_Dynamics" data-name="Appointment Dynamics" class="cls-1" x="1018.25" y="107.75" width="194" height="32" rx="2.5" ry="2.5"/>
    <circle class="cls-8" cx="1033.25" cy="123.75" r="11"/>
    <path d="M1035.72,129.89c-.39.2-.79.35-1.22.45-.43.1-.87.15-1.34.15-1.67,0-2.95-.55-3.83-1.65-.88-1.1-1.32-2.69-1.32-4.77s.44-3.68,1.32-4.78c.88-1.1,2.16-1.65,3.83-1.65.47,0,.92.05,1.35.15.43.1.84.25,1.21.45v2.72c-.42-.39-.83-.67-1.22-.85-.4-.18-.8-.27-1.22-.27-.9,0-1.57.36-2.03,1.07-.46.71-.68,1.77-.68,3.17s.23,2.45.68,3.16c.46.71,1.13,1.07,2.03,1.07.42,0,.83-.09,1.22-.27.4-.18.8-.46,1.22-.85v2.72Z"/>
    <text class="cls-15" transform="translate(1047.25 129.04)"><tspan class="cls-36" x="0" y="0">Appointment_Dynamic</tspan><tspan x="155" y="0">s</tspan></text>
  </g>
  <g id="elem_GMN61" data-name="elem GMN61">
    <path class="cls-2" d="M1280.26,110.93v8.66l-67.54,4.16,67.54,3.84v8.65h134v-15.31l-10-10h-124"/>
    <path class="cls-2" d="M1404.26,110.93v10h10l-10-10"/>
    <text class="cls-14" transform="translate(1286.26 128.5)"><tspan x="0" y="0">Scheduled</tspan><tspan class="cls-26" x="61.44" y="0"> </tspan><tspan x="71.09" y="0">events.</tspan></text>
  </g>
  <g id="elem_Rewards_and_Unlocks" data-name="elem Rewards and Unlocks">
    <rect id="Rewards_and_Unlocks" data-name="Rewards and Unlocks" class="cls-3" x="721.75" y="35.75" width="184" height="32" rx="2.5" ry="2.5"/>
    <circle class="cls-8" cx="736.75" cy="51.75" r="11"/>
    <path d="M739.22,57.89c-.39.2-.79.35-1.22.45-.43.1-.87.15-1.34.15-1.67,0-2.95-.55-3.83-1.65-.88-1.1-1.32-2.69-1.32-4.77s.44-3.68,1.32-4.78c.88-1.1,2.16-1.65,3.83-1.65.47,0,.92.05,1.35.15.43.1.84.25,1.21.45v2.72c-.42-.39-.83-.67-1.22-.85-.4-.18-.8-.27-1.22-.27-.9,0-1.57.36-2.03,1.07-.46.71-.68,1.77-.68,3.17s.23,2.45.68,3.16c.46.71,1.13,1.07,2.03,1.07.42,0,.83-.09,1.22-.27.4-.18.8-.46,1.22-.85v2.72Z"/>
    <text class="cls-15" transform="translate(750.75 57.04)"><tspan class="cls-65" x="0" y="0">Rewards_and_Unlock</tspan><tspan x="145" y="0">s</tspan></text>
  </g>
  <g id="elem_In_Game_Currency" data-name="elem In Game Currency">
    <rect id="In_Game_Currency" data-name="In Game Currency" class="cls-1" x="1035.25" y="35.75" width="160" height="32" rx="2.5" ry="2.5"/>
    <circle class="cls-8" cx="1050.25" cy="51.75" r="11"/>
    <path d="M1052.72,57.89c-.39.2-.79.35-1.22.45-.43.1-.87.15-1.34.15-1.67,0-2.95-.55-3.83-1.65-.88-1.1-1.32-2.69-1.32-4.77s.44-3.68,1.32-4.78c.88-1.1,2.16-1.65,3.83-1.65.47,0,.92.05,1.35.15.43.1.84.25,1.21.45v2.72c-.42-.39-.83-.67-1.22-.85-.4-.18-.8-.27-1.22-.27-.9,0-1.57.36-2.03,1.07-.46.71-.68,1.77-.68,3.17s.23,2.45.68,3.16c.46.71,1.13,1.07,2.03,1.07.42,0,.83-.09,1.22-.27.4-.18.8-.46,1.22-.85v2.72Z"/>
    <text class="cls-15" transform="translate(1064.25 57.04)"><tspan class="cls-64" x="0" y="0">In_Game_Currenc</tspan><tspan x="121" y="0">y</tspan></text>
  </g>
  <g id="elem_GMN68" data-name="elem GMN68">
    <path class="cls-2" d="M1281.76,38.93v8.66l-86.41,4.16,86.41,3.84v8.65h131v-15.31l-10-10h-121"/>
    <path class="cls-2" d="M1402.76,38.93v10h10l-10-10"/>
    <text class="cls-14" transform="translate(1287.76 56.5)"><tspan class="cls-31" x="0" y="0">V</tspan><tspan x="8.44" y="0">irtual</tspan><tspan class="cls-22" x="36.62" y="0"> </tspan><tspan x="49.31" y="0">resources.</tspan></text>
  </g>
  <g id="elem_MechanicTraitWeight" data-name="elem MechanicTraitWeight">
    <rect id="MechanicTraitWeight" class="cls-1" x="40.75" y="525.25" width="175" height="56.49" rx="2.5" ry="2.5"/>
    <circle class="cls-8" cx="55.75" cy="541.25" r="11"/>
    <path d="M58.22,547.39c-.39.2-.79.35-1.22.45-.43.1-.87.15-1.34.15-1.67,0-2.95-.55-3.83-1.65-.88-1.1-1.32-2.69-1.32-4.77s.44-3.68,1.32-4.78c.88-1.1,2.16-1.65,3.83-1.65.47,0,.92.05,1.35.15.43.1.84.25,1.21.45v2.72c-.42-.39-.83-.67-1.22-.85-.4-.18-.8-.27-1.22-.27-.9,0-1.57.36-2.03,1.07-.46.71-.68,1.77-.68,3.17s.23,2.45.68,3.16c.46.71,1.13,1.07,2.03,1.07.42,0,.83-.09,1.22-.27.4-.18.8-.46,1.22-.85v2.72Z"/>
    <text class="cls-15" transform="translate(69.75 546.54)"><tspan class="cls-50" x="0" y="0">Mechanic</tspan><tspan class="cls-67" x="65.37" y="0">T</tspan><tspan class="cls-50" x="74.09" y="0">rait</tspan><tspan class="cls-66" x="96.27" y="0">W</tspan><tspan class="cls-50" x="109.92" y="0">eigh</tspan><tspan x="139.11" y="0">t</tspan></text>
    <line class="cls-4" x1="41.75" y1="557.25" x2="214.75" y2="557.25"/>
    <circle class="cls-11" cx="51.75" cy="570.99" r="3"/>
    <text class="cls-15" transform="translate(60.75 574.79)"><tspan x="0" y="0">weight:</tspan><tspan class="cls-23" x="44.36" y="0"> </tspan><tspan x="58.54" y="0">float</tspan></text>
  </g>
  <g id="elem_Level_and_Experience_Point_System_to_Player" data-name="elem Level and Experience Point System to Player">
    <rect id="Level_and_Experience_Point_System_to_Player" data-name="Level and Experience Point System to Player" class="cls-1" x="291.75" y="537.49" width="348" height="32" rx="2.5" ry="2.5"/>
    <circle class="cls-8" cx="306.75" cy="553.49" r="11"/>
    <path d="M309.22,559.63c-.39.2-.79.35-1.22.45-.43.1-.87.15-1.34.15-1.67,0-2.95-.55-3.83-1.65-.88-1.1-1.32-2.69-1.32-4.77s.44-3.68,1.32-4.78c.88-1.1,2.16-1.65,3.83-1.65.47,0,.92.05,1.35.15.43.1.84.25,1.21.45v2.72c-.42-.39-.83-.67-1.22-.85-.4-.18-.8-.27-1.22-.27-.9,0-1.57.36-2.03,1.07-.46.71-.68,1.77-.68,3.17s.23,2.45.68,3.16c.46.71,1.13,1.07,2.03,1.07.42,0,.83-.09,1.22-.27.4-.18.8-.46,1.22-.85v2.72Z"/>
    <text class="cls-15" transform="translate(320.75 558.78)"><tspan class="cls-45" x="0" y="0">Level_and_Experience_Point_System_to_Playe</tspan><tspan x="311.34" y="0">r</tspan></text>
  </g>
  <g id="elem_UserTrait" data-name="elem UserTrait">
    <rect id="UserTrait" class="cls-1" x="418.25" y="287.75" width="95" height="32" rx="2.5" ry="2.5"/>
    <circle class="cls-8" cx="433.25" cy="303.75" r="11"/>
    <path d="M435.72,309.89c-.39.2-.79.35-1.22.45-.43.1-.87.15-1.34.15-1.67,0-2.95-.55-3.83-1.65-.88-1.1-1.32-2.69-1.32-4.77s.44-3.68,1.32-4.78c.88-1.1,2.16-1.65,3.83-1.65.47,0,.92.05,1.35.15.43.1.84.25,1.21.45v2.72c-.42-.39-.83-.67-1.22-.85-.4-.18-.8-.27-1.22-.27-.9,0-1.57.36-2.03,1.07-.46.71-.68,1.77-.68,3.17s.23,2.45.68,3.16c.46.71,1.13,1.07,2.03,1.07.42,0,.83-.09,1.22-.27.4-.18.8-.46,1.22-.85v2.72Z"/>
    <text class="cls-15" transform="translate(447.25 309.04)"><tspan class="cls-35" x="0" y="0">User</tspan><tspan class="cls-47" x="32.54" y="0">T</tspan><tspan class="cls-37" x="41.32" y="0">rai</tspan><tspan x="59.11" y="0">t</tspan></text>
  </g>
  <g id="link_MotivationalMechanic_Progress_Indicators" data-name="link MotivationalMechanic Progress Indicators">
    <path id="MotivationalMechanic-backto-Progress_Indicators" data-name="MotivationalMechanic-backto-Progress Indicators" class="cls-5" d="M550.37,396.55c57.23,14.24,113.38,28.2,113.38,28.2l29,239s33.62,10.09,65.27,19.58"/>
    <polygon class="cls-5" points="532.9 392.2 548.92 402.37 551.82 390.72 532.9 392.2"/>
  </g>
  <g id="link_Progress_Indicators_Level_and_Experience_Point_System" data-name="link Progress Indicators Level and Experience Point System">
    <path id="Progress_Indicators-backto-Level_and_Experience_Point_System" data-name="Progress Indicators-backto-Level and Experience Point System" class="cls-5" d="M915.38,699.75h59.88"/>
    <polygon class="cls-5" points="897.38 699.75 915.38 705.75 915.38 693.75 897.38 699.75"/>
  </g>
  <g id="link_MotivationalMechanic_Competition_with_others" data-name="link MotivationalMechanic Competition with others">
    <path id="MotivationalMechanic-backto-Competition_with_others" data-name="MotivationalMechanic-backto-Competition with others" class="cls-5" d="M550.37,396.55c57.23,14.24,113.38,28.2,113.38,28.2l29,167s33.62,10.09,65.27,19.58"/>
    <polygon class="cls-5" points="532.9 392.2 548.92 402.37 551.82 390.72 532.9 392.2"/>
  </g>
  <g id="link_Competition_with_others_Leaderboards" data-name="link Competition with others Leaderboards">
    <path id="Competition_with_others-backto-Leaderboards" data-name="Competition with others-backto-Leaderboards" class="cls-5" d="M934.15,627.75h117.67"/>
    <polygon class="cls-5" points="916.15 627.75 934.15 633.75 934.15 621.75 916.15 627.75"/>
  </g>
  <g id="link_MotivationalMechanic_Personal_Goals" data-name="link MotivationalMechanic Personal Goals">
    <path id="MotivationalMechanic-backto-Personal_Goals" data-name="MotivationalMechanic-backto-Personal Goals" class="cls-5" d="M550.37,396.55c57.23,14.24,113.38,28.2,113.38,28.2l29,95s33.62,10.09,65.27,19.58"/>
    <polygon class="cls-5" points="532.9 392.2 548.92 402.37 551.82 390.72 532.9 392.2"/>
  </g>
  <g id="link_Personal_Goals_Self_Assigned_Targets" data-name="link Personal Goals Self Assigned Targets">
    <path id="Personal_Goals-backto-Self_Assigned_Targets" data-name="Personal Goals-backto-Self Assigned Targets" class="cls-5" d="M899.96,555.75h122.03"/>
    <polygon class="cls-5" points="881.96 555.75 899.96 561.75 899.96 549.75 881.96 555.75"/>
  </g>
  <g id="link_MotivationalMechanic_Personalization_and_Creativity" data-name="link MotivationalMechanic Personalization and Creativity">
    <path id="MotivationalMechanic-backto-Personalization_and_Creativity" data-name="MotivationalMechanic-backto-Personalization and Creativity" class="cls-5" d="M550.37,396.55c57.23,14.24,113.38,28.2,113.38,28.2l29,23s33.62,10.09,65.27,19.58"/>
    <polygon class="cls-5" points="532.9 392.2 548.92 402.37 551.82 390.72 532.9 392.2"/>
  </g>
  <g id="link_Personalization_and_Creativity_Custom_Player_Made_Content" data-name="link Personalization and Creativity Custom Player Made Content">
    <path id="Personalization_and_Creativity-backto-Custom_Player_Made_Content" data-name="Personalization and Creativity-backto-Custom Player Made Content" class="cls-5" d="M952.84,483.75h42.75"/>
    <polygon class="cls-5" points="934.84 483.75 952.84 489.75 952.84 477.75 934.84 483.75"/>
  </g>
  <g id="link_MotivationalMechanic_Sharing_Achievements" data-name="link MotivationalMechanic Sharing Achievements">
    <path id="MotivationalMechanic-backto-Sharing_Achievements" data-name="MotivationalMechanic-backto-Sharing Achievements" class="cls-5" d="M573.75,386.88c50.36,5.24,95.33,9.92,146.27,15.22"/>
    <polygon class="cls-5" points="555.85 385.02 573.13 392.85 574.37 380.92 555.85 385.02"/>
  </g>
  <g id="link_Sharing_Achievements_Social_Share_Buttons" data-name="link Sharing Achievements Social Share Buttons">
    <path id="Sharing_Achievements-backto-Social_Share_Buttons" data-name="Sharing Achievements-backto-Social Share Buttons" class="cls-5" d="M925.46,411.75h100.86"/>
    <polygon class="cls-5" points="907.46 411.75 925.46 417.75 925.46 405.75 907.46 411.75"/>
  </g>
  <g id="link_MotivationalMechanic_Social_Networking" data-name="link MotivationalMechanic Social Networking">
    <path id="MotivationalMechanic-backto-Social_Networking" data-name="MotivationalMechanic-backto-Social Networking" class="cls-5" d="M573.75,364.62c55.17-5.74,107.45-11.18,160.51-16.7"/>
    <polygon class="cls-5" points="555.85 366.48 574.37 370.59 573.13 358.65 555.85 366.48"/>
  </g>
  <g id="link_Social_Networking_Community_Insights" data-name="link Social Networking Community Insights">
    <path id="Social_Networking-backto-Community_Insights" data-name="Social Networking-backto-Community Insights" class="cls-5" d="M911.05,339.75h117.73"/>
    <polygon class="cls-5" points="893.05 339.75 911.05 345.75 911.05 333.75 893.05 339.75"/>
  </g>
  <g id="link_MotivationalMechanic_Surprises_and_Events" data-name="link MotivationalMechanic Surprises and Events">
    <path id="MotivationalMechanic-backto-Surprises_and_Events" data-name="MotivationalMechanic-backto-Surprises and Events" class="cls-5" d="M569.68,355.89c53.24-10.27,94.07-18.14,94.07-18.14l29-34s33.62-10.09,65.27-19.58"/>
    <polygon class="cls-5" points="552.01 359.3 570.82 361.78 568.55 350 552.01 359.3"/>
  </g>
  <g id="link_Surprises_and_Events_Mystery_Boxes" data-name="link Surprises and Events Mystery Boxes">
    <path id="Surprises_and_Events-backto-Mystery_Boxes" data-name="Surprises and Events-backto-Mystery Boxes" class="cls-5" d="M922.2,267.75h126.82"/>
    <polygon class="cls-5" points="904.2 267.75 922.2 273.75 922.2 261.75 904.2 267.75"/>
  </g>
  <g id="link_MotivationalMechanic_Motivational_Messages" data-name="link MotivationalMechanic Motivational Messages">
    <path id="MotivationalMechanic-backto-Motivational_Messages" data-name="MotivationalMechanic-backto-Motivational Messages" class="cls-5" d="M569.68,355.89c53.24-10.27,94.07-18.14,94.07-18.14l29-106s33.62-10.09,65.27-19.58"/>
    <polygon class="cls-5" points="552.01 359.3 570.82 361.78 568.55 350 552.01 359.3"/>
  </g>
  <g id="link_Motivational_Messages_Encouraging_Messages" data-name="link Motivational Messages Encouraging Messages">
    <path id="Motivational_Messages-backto-Encouraging_Messages" data-name="Motivational Messages-backto-Encouraging Messages" class="cls-5" d="M926.69,195.75h92.15"/>
    <polygon class="cls-5" points="908.69 195.75 926.69 201.75 926.69 189.75 908.69 195.75"/>
  </g>
  <g id="link_MotivationalMechanic_Time_Based_Challenges" data-name="link MotivationalMechanic Time Based Challenges">
    <path id="MotivationalMechanic-backto-Time_Based_Challenges" data-name="MotivationalMechanic-backto-Time Based Challenges" class="cls-5" d="M569.68,355.89c53.24-10.27,94.07-18.14,94.07-18.14l29-178s33.62-10.09,65.27-19.58"/>
    <polygon class="cls-5" points="552.01 359.3 570.82 361.78 568.55 350 552.01 359.3"/>
  </g>
  <g id="link_Time_Based_Challenges_Appointment_Dynamics" data-name="link Time Based Challenges Appointment Dynamics">
    <path id="Time_Based_Challenges-backto-Appointment_Dynamics" data-name="Time Based Challenges-backto-Appointment Dynamics" class="cls-5" d="M929.99,123.75h87.76"/>
    <polygon class="cls-5" points="911.99 123.75 929.99 129.75 929.99 117.75 911.99 123.75"/>
  </g>
  <g id="link_MotivationalMechanic_Rewards_and_Unlocks" data-name="link MotivationalMechanic Rewards and Unlocks">
    <path id="MotivationalMechanic-backto-Rewards_and_Unlocks" data-name="MotivationalMechanic-backto-Rewards and Unlocks" class="cls-5" d="M569.68,355.89c53.24-10.27,94.07-18.14,94.07-18.14l29-250s33.62-10.09,65.27-19.58"/>
    <polygon class="cls-5" points="552.01 359.3 570.82 361.78 568.55 350 552.01 359.3"/>
  </g>
  <g id="link_Rewards_and_Unlocks_In_Game_Currency" data-name="link Rewards and Unlocks In Game Currency">
    <path id="Rewards_and_Unlocks-backto-In_Game_Currency" data-name="Rewards and Unlocks-backto-In Game Currency" class="cls-5" d="M924.24,51.75h110.73"/>
    <polygon class="cls-5" points="906.24 51.75 924.24 57.75 924.24 45.75 906.24 51.75"/>
  </g>
  <g id="link_MechanicTraitWeight_Level_and_Experience_Point_System_to_Player" data-name="link MechanicTraitWeight Level and Experience Point System to Player">
    <path id="MechanicTraitWeight-backto-Level_and_Experience_Point_System_to_Player" data-name="MechanicTraitWeight-backto-Level and Experience Point System to Player" class="cls-5" d="M234.09,553.49h57.22"/>
    <polygon class="cls-5" points="216.09 553.49 234.09 559.49 234.09 547.49 216.09 553.49"/>
  </g>
  <g id="link_MechanicTraitWeight_MotivationalMechanic" data-name="link MechanicTraitWeight MotivationalMechanic">
    <polygon class="cls-9" points="405.27 390.62 395.7 392.91 401.3 393.66 400.56 399.26 405.27 390.62"/>
    <text class="cls-14" transform="translate(354.46 451.17)"><tspan class="cls-40" x="0" y="0">map</tspan><tspan x="27.5" y="0">s</tspan></text>
  </g>
  <g id="link_MechanicTraitWeight_UserTrait" data-name="link MechanicTraitWeight UserTrait">
    <path id="MechanicTraitWeight-to-UserTrait" class="cls-5" d="M136.04,524.44c21.63-34.31,99.71-158.69,99.71-158.69l56-42s68.99-7.97,120.22-13.9"/>
    <polygon class="cls-9" points="417.93 309.16 408.53 306.22 412.96 309.73 409.45 314.17 417.93 309.16"/>
    <text class="cls-14" transform="translate(236.75 336.32)"><tspan class="cls-40" x="0" y="0">map</tspan><tspan x="27.5" y="0">s</tspan></text>
  </g>
  <line class="cls-7" x1="215.72" y1="530.27" x2="401.3" y2="393.66"/>
</svg>