<?xml version="1.0" encoding="us-ascii" standalone="no"?><svg xmlns="http://www.w3.org/2000/svg" xmlns:xlink="http://www.w3.org/1999/xlink" contentStyleType="text/css" height="456px" preserveAspectRatio="none" style="width:738px;height:456px;background:#FFFFFF;" version="1.1" viewBox="0 0 738 456" width="738px" zoomAndPan="magnify"><defs/><g><!--cluster UserModel--><g id="cluster_UserModel"><rect fill="#FDE8FF" height="443" rx="2.5" ry="2.5" style="stroke:#000000;stroke-width:1.5;" width="725" x="7" y="7"/><text fill="#000000" font-family="sans-serif" font-size="14" font-weight="bold" lengthAdjust="spacing" textLength="76" x="331.5" y="22.5352">UserModel</text></g><!--class User--><g id="elem_User"><rect codeLine="10" fill="#F59BFF" height="32" id="User" rx="2.5" ry="2.5" style="stroke:#181818;stroke-width:0.5;" width="63" x="23" y="180"/><ellipse cx="38" cy="196" fill="#ADD1B2" rx="11" ry="11" style="stroke:#181818;stroke-width:1.0;"/><path d="M40.4731,202.1431 Q39.8921,202.4419 39.2529,202.5913 Q38.6138,202.7407 37.9082,202.7407 Q35.4014,202.7407 34.0815,201.0889 Q32.7617,199.437 32.7617,196.3159 Q32.7617,193.1865 34.0815,191.5347 Q35.4014,189.8828 37.9082,189.8828 Q38.6138,189.8828 39.2612,190.0322 Q39.9087,190.1816 40.4731,190.4805 L40.4731,193.2031 Q39.8423,192.6221 39.2488,192.3523 Q38.6553,192.0825 38.0244,192.0825 Q36.6797,192.0825 35.9949,193.1492 Q35.3101,194.2158 35.3101,196.3159 Q35.3101,198.4077 35.9949,199.4744 Q36.6797,200.541 38.0244,200.541 Q38.6553,200.541 39.2488,200.2712 Q39.8423,200.0015 40.4731,199.4204 Z " fill="#000000"/><text fill="#000000" font-family="sans-serif" font-size="14" lengthAdjust="spacing" textLength="31" x="52" y="201.291">User</text></g><!--class UserState--><g id="elem_UserState"><rect codeLine="12" fill="#F7BEFE" height="56.4883" id="UserState" rx="2.5" ry="2.5" style="stroke:#181818;stroke-width:0.5;" width="171" x="150" y="214.76"/><ellipse cx="198.75" cy="230.76" fill="#ADD1B2" rx="11" ry="11" style="stroke:#181818;stroke-width:1.0;"/><path d="M201.2231,236.9031 Q200.6421,237.2019 200.0029,237.3513 Q199.3638,237.5007 198.6582,237.5007 Q196.1514,237.5007 194.8315,235.8489 Q193.5117,234.197 193.5117,231.0759 Q193.5117,227.9465 194.8315,226.2947 Q196.1514,224.6428 198.6582,224.6428 Q199.3638,224.6428 200.0112,224.7922 Q200.6587,224.9416 201.2231,225.2405 L201.2231,227.9631 Q200.5923,227.3821 199.9988,227.1123 Q199.4053,226.8425 198.7744,226.8425 Q197.4297,226.8425 196.7449,227.9092 Q196.0601,228.9758 196.0601,231.0759 Q196.0601,233.1677 196.7449,234.2344 Q197.4297,235.301 198.7744,235.301 Q199.4053,235.301 199.9988,235.0312 Q200.5923,234.7615 201.2231,234.1804 Z " fill="#000000"/><text fill="#000000" font-family="sans-serif" font-size="14" lengthAdjust="spacing" textLength="65" x="219.25" y="236.051">UserState</text><line style="stroke:#181818;stroke-width:0.5;" x1="151" x2="320" y1="246.76" y2="246.76"/><ellipse cx="161" cy="260.5041" fill="none" rx="3" ry="3" style="stroke:#038048;stroke-width:1.0;"/><text fill="#000000" font-family="sans-serif" font-size="14" lengthAdjust="spacing" textLength="145" x="170" y="264.2952">timestamp: DateTime</text></g><!--class MotivationalState--><g id="elem_MotivationalState"><rect codeLine="16" fill="#F7BEFE" height="32" id="MotivationalState" rx="2.5" ry="2.5" style="stroke:#181818;stroke-width:0.5;" width="150" x="369" y="302"/><ellipse cx="384" cy="318" fill="#ADD1B2" rx="11" ry="11" style="stroke:#181818;stroke-width:1.0;"/><path d="M386.4731,324.1431 Q385.8921,324.4419 385.2529,324.5913 Q384.6138,324.7407 383.9082,324.7407 Q381.4014,324.7407 380.0815,323.0889 Q378.7617,321.437 378.7617,318.3159 Q378.7617,315.1865 380.0815,313.5347 Q381.4014,311.8828 383.9082,311.8828 Q384.6138,311.8828 385.2612,312.0322 Q385.9087,312.1816 386.4731,312.4805 L386.4731,315.2031 Q385.8423,314.6221 385.2488,314.3523 Q384.6553,314.0825 384.0244,314.0825 Q382.6797,314.0825 381.9949,315.1492 Q381.3101,316.2158 381.3101,318.3159 Q381.3101,320.4077 381.9949,321.4744 Q382.6797,322.541 384.0244,322.541 Q384.6553,322.541 385.2488,322.2712 Q385.8423,322.0015 386.4731,321.4204 Z " fill="#000000"/><text fill="#000000" font-family="sans-serif" font-size="14" lengthAdjust="spacing" textLength="118" x="398" y="323.291">MotivationalState</text></g><!--class Low--><g id="elem_Low"><rect codeLine="17" fill="#F5C6FB" height="32" id="Low" rx="2.5" ry="2.5" style="stroke:#181818;stroke-width:0.5;" width="59" x="612" y="402"/><ellipse cx="627" cy="418" fill="#ADD1B2" rx="11" ry="11" style="stroke:#181818;stroke-width:1.0;"/><path d="M629.4731,424.1431 Q628.8921,424.4419 628.2529,424.5913 Q627.6138,424.7407 626.9082,424.7407 Q624.4014,424.7407 623.0815,423.0889 Q621.7617,421.437 621.7617,418.3159 Q621.7617,415.1865 623.0815,413.5347 Q624.4014,411.8828 626.9082,411.8828 Q627.6138,411.8828 628.2612,412.0322 Q628.9087,412.1816 629.4731,412.4805 L629.4731,415.2031 Q628.8423,414.6221 628.2488,414.3523 Q627.6553,414.0825 627.0244,414.0825 Q625.6797,414.0825 624.9949,415.1492 Q624.3101,416.2158 624.3101,418.3159 Q624.3101,420.4077 624.9949,421.4744 Q625.6797,422.541 627.0244,422.541 Q627.6553,422.541 628.2488,422.2712 Q628.8423,422.0015 629.4731,421.4204 Z " fill="#000000"/><text fill="#000000" font-family="sans-serif" font-size="14" lengthAdjust="spacing" textLength="27" x="641" y="423.291">Low</text></g><!--class Medium--><g id="elem_Medium"><rect codeLine="18" fill="#F5C6FB" height="32" id="Medium" rx="2.5" ry="2.5" style="stroke:#181818;stroke-width:0.5;" width="87" x="598" y="330"/><ellipse cx="613" cy="346" fill="#ADD1B2" rx="11" ry="11" style="stroke:#181818;stroke-width:1.0;"/><path d="M615.4731,352.1431 Q614.8921,352.4419 614.2529,352.5913 Q613.6138,352.7407 612.9082,352.7407 Q610.4014,352.7407 609.0815,351.0889 Q607.7617,349.437 607.7617,346.3159 Q607.7617,343.1865 609.0815,341.5347 Q610.4014,339.8828 612.9082,339.8828 Q613.6138,339.8828 614.2612,340.0322 Q614.9087,340.1816 615.4731,340.4805 L615.4731,343.2031 Q614.8423,342.6221 614.2488,342.3523 Q613.6553,342.0825 613.0244,342.0825 Q611.6797,342.0825 610.9949,343.1492 Q610.3101,344.2158 610.3101,346.3159 Q610.3101,348.4077 610.9949,349.4744 Q611.6797,350.541 613.0244,350.541 Q613.6553,350.541 614.2488,350.2712 Q614.8423,350.0015 615.4731,349.4204 Z " fill="#000000"/><text fill="#000000" font-family="sans-serif" font-size="14" lengthAdjust="spacing" textLength="55" x="627" y="351.291">Medium</text></g><!--class High--><g id="elem_High"><rect codeLine="19" fill="#F5C6FB" height="32" id="High" rx="2.5" ry="2.5" style="stroke:#181818;stroke-width:0.5;" width="64" x="609.5" y="258"/><ellipse cx="624.5" cy="274" fill="#ADD1B2" rx="11" ry="11" style="stroke:#181818;stroke-width:1.0;"/><path d="M626.9731,280.1431 Q626.3921,280.4419 625.7529,280.5913 Q625.1138,280.7407 624.4082,280.7407 Q621.9014,280.7407 620.5815,279.0889 Q619.2617,277.437 619.2617,274.3159 Q619.2617,271.1865 620.5815,269.5347 Q621.9014,267.8828 624.4082,267.8828 Q625.1138,267.8828 625.7612,268.0322 Q626.4087,268.1816 626.9731,268.4805 L626.9731,271.2031 Q626.3423,270.6221 625.7488,270.3523 Q625.1553,270.0825 624.5244,270.0825 Q623.1797,270.0825 622.4949,271.1492 Q621.8101,272.2158 621.8101,274.3159 Q621.8101,276.4077 622.4949,277.4744 Q623.1797,278.541 624.5244,278.541 Q625.1553,278.541 625.7488,278.2712 Q626.3423,278.0015 626.9731,277.4204 Z " fill="#000000"/><text fill="#000000" font-family="sans-serif" font-size="14" lengthAdjust="spacing" textLength="32" x="638.5" y="279.291">High</text></g><!--class CognitiveLoadState--><g id="elem_CognitiveLoadState"><rect codeLine="21" fill="#F7BEFE" height="32" id="CognitiveLoadState" rx="2.5" ry="2.5" style="stroke:#181818;stroke-width:0.5;" width="164" x="362" y="150"/><ellipse cx="377" cy="166" fill="#ADD1B2" rx="11" ry="11" style="stroke:#181818;stroke-width:1.0;"/><path d="M379.4731,172.1431 Q378.8921,172.4419 378.2529,172.5913 Q377.6138,172.7407 376.9082,172.7407 Q374.4014,172.7407 373.0815,171.0889 Q371.7617,169.437 371.7617,166.3159 Q371.7617,163.1865 373.0815,161.5347 Q374.4014,159.8828 376.9082,159.8828 Q377.6138,159.8828 378.2612,160.0322 Q378.9087,160.1816 379.4731,160.4805 L379.4731,163.2031 Q378.8423,162.6221 378.2488,162.3523 Q377.6553,162.0825 377.0244,162.0825 Q375.6797,162.0825 374.9949,163.1492 Q374.3101,164.2158 374.3101,166.3159 Q374.3101,168.4077 374.9949,169.4744 Q375.6797,170.541 377.0244,170.541 Q377.6553,170.541 378.2488,170.2712 Q378.8423,170.0015 379.4731,169.4204 Z " fill="#000000"/><text fill="#000000" font-family="sans-serif" font-size="14" lengthAdjust="spacing" textLength="132" x="391" y="171.291">CognitiveLoadState</text></g><!--class Underchallenged--><g id="elem_Underchallenged"><rect codeLine="22" fill="#F5C6FB" height="32" id="Underchallenged" rx="2.5" ry="2.5" style="stroke:#181818;stroke-width:0.5;" width="149" x="567" y="186"/><ellipse cx="582" cy="202" fill="#ADD1B2" rx="11" ry="11" style="stroke:#181818;stroke-width:1.0;"/><path d="M584.4731,208.1431 Q583.8921,208.4419 583.2529,208.5913 Q582.6138,208.7407 581.9082,208.7407 Q579.4014,208.7407 578.0815,207.0889 Q576.7617,205.437 576.7617,202.3159 Q576.7617,199.1865 578.0815,197.5347 Q579.4014,195.8828 581.9082,195.8828 Q582.6138,195.8828 583.2612,196.0322 Q583.9087,196.1816 584.4731,196.4805 L584.4731,199.2031 Q583.8423,198.6221 583.2488,198.3523 Q582.6553,198.0825 582.0244,198.0825 Q580.6797,198.0825 579.9949,199.1492 Q579.3101,200.2158 579.3101,202.3159 Q579.3101,204.4077 579.9949,205.4744 Q580.6797,206.541 582.0244,206.541 Q582.6553,206.541 583.2488,206.2712 Q583.8423,206.0015 584.4731,205.4204 Z " fill="#000000"/><text fill="#000000" font-family="sans-serif" font-size="14" lengthAdjust="spacing" textLength="117" x="596" y="207.291">Underchallenged</text></g><!--class OptimalLoad--><g id="elem_OptimalLoad"><rect codeLine="23" fill="#F5C6FB" height="32" id="OptimalLoad" rx="2.5" ry="2.5" style="stroke:#181818;stroke-width:0.5;" width="119" x="582" y="114"/><ellipse cx="597" cy="130" fill="#ADD1B2" rx="11" ry="11" style="stroke:#181818;stroke-width:1.0;"/><path d="M599.4731,136.1431 Q598.8921,136.4419 598.2529,136.5913 Q597.6138,136.7407 596.9082,136.7407 Q594.4014,136.7407 593.0815,135.0889 Q591.7617,133.437 591.7617,130.3159 Q591.7617,127.1865 593.0815,125.5347 Q594.4014,123.8828 596.9082,123.8828 Q597.6138,123.8828 598.2612,124.0322 Q598.9087,124.1816 599.4731,124.4805 L599.4731,127.2031 Q598.8423,126.6221 598.2488,126.3523 Q597.6553,126.0825 597.0244,126.0825 Q595.6797,126.0825 594.9949,127.1492 Q594.3101,128.2158 594.3101,130.3159 Q594.3101,132.4077 594.9949,133.4744 Q595.6797,134.541 597.0244,134.541 Q597.6553,134.541 598.2488,134.2712 Q598.8423,134.0015 599.4731,133.4204 Z " fill="#000000"/><text fill="#000000" font-family="sans-serif" font-size="14" lengthAdjust="spacing" textLength="87" x="611" y="135.291">OptimalLoad</text></g><!--class Overloaded--><g id="elem_Overloaded"><rect codeLine="24" fill="#F5C6FB" height="32" id="Overloaded" rx="2.5" ry="2.5" style="stroke:#181818;stroke-width:0.5;" width="111" x="586" y="42"/><ellipse cx="601" cy="58" fill="#ADD1B2" rx="11" ry="11" style="stroke:#181818;stroke-width:1.0;"/><path d="M603.4731,64.1431 Q602.8921,64.4419 602.2529,64.5913 Q601.6138,64.7407 600.9082,64.7407 Q598.4014,64.7407 597.0815,63.0889 Q595.7617,61.437 595.7617,58.3159 Q595.7617,55.1865 597.0815,53.5347 Q598.4014,51.8828 600.9082,51.8828 Q601.6138,51.8828 602.2612,52.0322 Q602.9087,52.1816 603.4731,52.4805 L603.4731,55.2031 Q602.8423,54.6221 602.2488,54.3523 Q601.6553,54.0825 601.0244,54.0825 Q599.6797,54.0825 598.9949,55.1492 Q598.3101,56.2158 598.3101,58.3159 Q598.3101,60.4077 598.9949,61.4744 Q599.6797,62.541 601.0244,62.541 Q601.6553,62.541 602.2488,62.2712 Q602.8423,62.0015 603.4731,61.4204 Z " fill="#000000"/><text fill="#000000" font-family="sans-serif" font-size="14" lengthAdjust="spacing" textLength="79" x="615" y="63.291">Overloaded</text></g><!--class UserTraitWeight--><g id="elem_UserTraitWeight"><rect codeLine="26" fill="#F7BEFE" height="56.4883" id="UserTraitWeight" rx="2.5" ry="2.5" style="stroke:#181818;stroke-width:0.5;" width="142" x="164.5" y="118.76"/><ellipse cx="179.5" cy="134.76" fill="#ADD1B2" rx="11" ry="11" style="stroke:#181818;stroke-width:1.0;"/><path d="M181.9731,140.9031 Q181.3921,141.2019 180.7529,141.3513 Q180.1138,141.5007 179.4082,141.5007 Q176.9014,141.5007 175.5815,139.8489 Q174.2617,138.197 174.2617,135.0759 Q174.2617,131.9465 175.5815,130.2947 Q176.9014,128.6428 179.4082,128.6428 Q180.1138,128.6428 180.7612,128.7922 Q181.4087,128.9416 181.9731,129.2405 L181.9731,131.9631 Q181.3423,131.3821 180.7488,131.1123 Q180.1553,130.8425 179.5244,130.8425 Q178.1797,130.8425 177.4949,131.9092 Q176.8101,132.9758 176.8101,135.0759 Q176.8101,137.1677 177.4949,138.2344 Q178.1797,139.301 179.5244,139.301 Q180.1553,139.301 180.7488,139.0312 Q181.3423,138.7615 181.9731,138.1804 Z " fill="#000000"/><text fill="#000000" font-family="sans-serif" font-size="14" lengthAdjust="spacing" textLength="110" x="193.5" y="140.051">UserTraitWeight</text><line style="stroke:#181818;stroke-width:0.5;" x1="165.5" x2="305.5" y1="150.76" y2="150.76"/><ellipse cx="175.5" cy="164.5041" fill="none" rx="3" ry="3" style="stroke:#038048;stroke-width:1.0;"/><text fill="#000000" font-family="sans-serif" font-size="14" lengthAdjust="spacing" textLength="85" x="184.5" y="168.2952">weight: float</text></g><!--reverse link UserState to MotivationalState--><g id="link_UserState_MotivationalState"><path d="M332.3686,277.825 C360.1486,287.915 373.5,292.76 397.58,301.5 " fill="none" id="UserState-backto-MotivationalState" style="stroke:#181818;stroke-width:1.0;"/><polygon fill="none" points="315.45,271.68,330.3203,283.4645,334.4169,272.1855,315.45,271.68" style="stroke:#181818;stroke-width:1.0;"/></g><!--reverse link MotivationalState to Low--><g id="link_MotivationalState_Low"><path d="M492.3606,342.8405 C528.5106,361.8005 567,382 567,382 C567,382 591.23,393.87 611.87,403.98 " fill="none" id="MotivationalState-backto-Low" style="stroke:#181818;stroke-width:1.0;"/><polygon fill="none" points="476.42,334.48,489.5737,348.154,495.1474,337.527,476.42,334.48" style="stroke:#181818;stroke-width:1.0;"/></g><!--reverse link MotivationalState to Medium--><g id="link_MotivationalState_Medium"><path d="M537.2888,331.2175 C563.7288,334.9975 574.75,336.58 597.65,339.86 " fill="none" id="MotivationalState-backto-Medium" style="stroke:#181818;stroke-width:1.0;"/><polygon fill="none" points="519.47,328.67,536.4397,337.1571,538.138,325.2779,519.47,328.67" style="stroke:#181818;stroke-width:1.0;"/></g><!--reverse link MotivationalState to High--><g id="link_MotivationalState_High"><path d="M535.6405,297.5968 C567.0905,290.5168 584.63,286.58 609.15,281.06 " fill="none" id="MotivationalState-backto-High" style="stroke:#181818;stroke-width:1.0;"/><polygon fill="none" points="518.08,301.55,536.9583,303.4503,534.3228,291.7433,518.08,301.55" style="stroke:#181818;stroke-width:1.0;"/></g><!--reverse link UserState to CognitiveLoadState--><g id="link_UserState_CognitiveLoadState"><path d="M330.2549,208.0392 C359.1549,197.2592 374.14,191.68 399.03,182.39 " fill="none" id="UserState-backto-CognitiveLoadState" style="stroke:#181818;stroke-width:1.0;"/><polygon fill="none" points="313.39,214.33,332.3519,213.6608,328.158,202.4176,313.39,214.33" style="stroke:#181818;stroke-width:1.0;"/></g><!--reverse link CognitiveLoadState to Underchallenged--><g id="link_CognitiveLoadState_Underchallenged"><path d="M544.1926,184.2686 C557.5026,186.7186 553.52,185.98 566.63,188.4 " fill="none" id="CognitiveLoadState-backto-Underchallenged" style="stroke:#181818;stroke-width:1.0;"/><polygon fill="none" points="526.49,181.01,543.1064,190.1694,545.2788,178.3677,526.49,181.01" style="stroke:#181818;stroke-width:1.0;"/></g><!--reverse link CognitiveLoadState to OptimalLoad--><g id="link_CognitiveLoadState_OptimalLoad"><path d="M544.1934,147.7356 C562.7434,144.3256 564.39,144.02 581.77,140.82 " fill="none" id="CognitiveLoadState-backto-OptimalLoad" style="stroke:#181818;stroke-width:1.0;"/><polygon fill="none" points="526.49,150.99,545.2782,153.6368,543.1086,141.8345,526.49,150.99" style="stroke:#181818;stroke-width:1.0;"/></g><!--reverse link CognitiveLoadState to Overloaded--><g id="link_CognitiveLoadState_Overloaded"><path d="M488.1828,140.5133 C524.1828,119.2733 567,94 567,94 C567,94 587.74,83.84 607.19,74.31 " fill="none" id="CognitiveLoadState-backto-Overloaded" style="stroke:#181818;stroke-width:1.0;"/><polygon fill="none" points="472.68,149.66,491.2317,145.6809,485.134,135.3457,472.68,149.66" style="stroke:#181818;stroke-width:1.0;"/></g><!--link User to UserState--><g id="link_User_UserState"><path codeLine="30" d="M86.33,212.48 C96.84,218.11 106,223 106,223 C106,223 119.6814,225.1268 143.5714,228.8468 " fill="none" id="User-to-UserState" style="stroke:#181818;stroke-width:1.0;"/><polygon fill="#181818" points="149.5,229.77,141.2226,224.4329,144.5595,229.0007,139.9917,232.3376,149.5,229.77" style="stroke:#181818;stroke-width:1.0;"/><text fill="#000000" font-family="sans-serif" font-size="13" lengthAdjust="spacing" textLength="22" x="107" y="219.5684">has</text><text fill="#000000" font-family="sans-serif" font-size="13" lengthAdjust="spacing" textLength="22" x="120.0734" y="241.9112">1..*</text></g><!--link User to UserTraitWeight--><g id="link_User_UserTraitWeight"><path codeLine="31" d="M86.27,187.58 C107.66,181.72 131.2826,175.2531 158.2626,167.8731 " fill="none" id="User-to-UserTraitWeight" style="stroke:#181818;stroke-width:1.0;"/><polygon fill="#181818" points="164.05,166.29,154.3135,164.8063,159.2272,167.6092,156.4243,172.5229,164.05,166.29" style="stroke:#181818;stroke-width:1.0;"/><text fill="#000000" font-family="sans-serif" font-size="13" lengthAdjust="spacing" textLength="22" x="107" y="172.4584">has</text><text fill="#000000" font-family="sans-serif" font-size="13" lengthAdjust="spacing" textLength="22" x="134.4491" y="181.342">1..*</text></g><!--SRC=[bL8xRy8m4DxpAqvqQmLgfJuPkhH31r07G9qlyJcnS6pBFg1HnN-laz8GI2j1Dd_Fs7TXgOn3ZoLePOWhH-2ihkf3KYX1GANZ2ahYmehGXP3PgtJ550w5PKe-99ea0rlmAYyOXFAKiR8c2MsViO82ERYzxe0UpR87EioMcDECAqrG1w79DIKx61Q1_3I6QRYGWXvb_E0h0SWqXj2maRXxIgLC3j0P8rEa7bAIjFC0NB4gAJ2MRWolKJ2FnqXizzwfPRN6-ZQeZpFeayc8JdxhcjXD_HlPlKmxkbxMleM4MfLdMTxYMvzaQ1qlDZSgiZInA4w_oy88ybc1MfF9IVpHsGzkpUyklZ3gcZZJk2Ql8tfguS6mvnuLVr2pZRsHRnfy33B6y- -mcyKP3fzXS3CQNGuwApE60iC_YcxFZsxx3G00]--></g></svg>