<?xml version="1.0" encoding="us-ascii" standalone="no"?><svg xmlns="http://www.w3.org/2000/svg" xmlns:xlink="http://www.w3.org/1999/xlink" contentStyleType="text/css" height="600px" preserveAspectRatio="none" style="width:839px;height:600px;background:#FFFFFF;" version="1.1" viewBox="0 0 839 600" width="839px" zoomAndPan="magnify"><defs/><g><!--cluster KeySituations--><g id="cluster_KeySituations"><rect fill="#E8FAFF" height="587" rx="2.5" ry="2.5" style="stroke:#000000;stroke-width:1.5;" width="826" x="7" y="7"/><text fill="#000000" font-family="sans-serif" font-size="14" font-weight="bold" lengthAdjust="spacing" textLength="99" x="370.5" y="22.5352">KeySituations</text></g><!--class KeySituation--><g id="elem_KeySituation"><rect codeLine="10" fill="#BBF0FF" height="32" id="KeySituation" rx="2.5" ry="2.5" style="stroke:#181818;stroke-width:0.5;" width="117" x="400" y="294"/><ellipse cx="415" cy="310" fill="#ADD1B2" rx="11" ry="11" style="stroke:#181818;stroke-width:1.0;"/><path d="M417.4731,316.1431 Q416.8921,316.4419 416.2529,316.5913 Q415.6138,316.7407 414.9082,316.7407 Q412.4014,316.7407 411.0815,315.0889 Q409.7617,313.437 409.7617,310.3159 Q409.7617,307.1865 411.0815,305.5347 Q412.4014,303.8828 414.9082,303.8828 Q415.6138,303.8828 416.2612,304.0322 Q416.9087,304.1816 417.4731,304.4805 L417.4731,307.2031 Q416.8423,306.6221 416.2488,306.3523 Q415.6553,306.0825 415.0244,306.0825 Q413.6797,306.0825 412.9949,307.1492 Q412.3101,308.2158 412.3101,310.3159 Q412.3101,312.4077 412.9949,313.4744 Q413.6797,314.541 415.0244,314.541 Q415.6553,314.541 416.2488,314.2712 Q416.8423,314.0015 417.4731,313.4204 Z " fill="#000000"/><text fill="#000000" font-family="sans-serif" font-size="14" lengthAdjust="spacing" textLength="85" x="429" y="315.291">KeySituation</text></g><!--class MechanicDisplayedKeySituation--><g id="elem_MechanicDisplayedKeySituation"><rect codeLine="11" fill="#D5F6FF" height="32" id="MechanicDisplayedKeySituation" rx="2.5" ry="2.5" style="stroke:#181818;stroke-width:0.5;" width="247" x="563.5" y="546"/><ellipse cx="578.5" cy="562" fill="#ADD1B2" rx="11" ry="11" style="stroke:#181818;stroke-width:1.0;"/><path d="M580.9731,568.1431 Q580.3921,568.4419 579.7529,568.5913 Q579.1138,568.7407 578.4082,568.7407 Q575.9014,568.7407 574.5815,567.0889 Q573.2617,565.437 573.2617,562.3159 Q573.2617,559.1865 574.5815,557.5347 Q575.9014,555.8828 578.4082,555.8828 Q579.1138,555.8828 579.7612,556.0322 Q580.4087,556.1816 580.9731,556.4805 L580.9731,559.2031 Q580.3423,558.6221 579.7488,558.3523 Q579.1553,558.0825 578.5244,558.0825 Q577.1797,558.0825 576.4949,559.1492 Q575.8101,560.2158 575.8101,562.3159 Q575.8101,564.4077 576.4949,565.4744 Q577.1797,566.541 578.5244,566.541 Q579.1553,566.541 579.7488,566.2712 Q580.3423,566.0015 580.9731,565.4204 Z " fill="#000000"/><text fill="#000000" font-family="sans-serif" font-size="14" lengthAdjust="spacing" textLength="215" x="592.5" y="567.291">MechanicDisplayedKeySituation</text></g><!--class MechanicInteractionKeySituation--><g id="elem_MechanicInteractionKeySituation"><rect codeLine="12" fill="#D5F6FF" height="32" id="MechanicInteractionKeySituation" rx="2.5" ry="2.5" style="stroke:#181818;stroke-width:0.5;" width="255" x="559.5" y="474"/><ellipse cx="574.5" cy="490" fill="#ADD1B2" rx="11" ry="11" style="stroke:#181818;stroke-width:1.0;"/><path d="M576.9731,496.1431 Q576.3921,496.4419 575.7529,496.5913 Q575.1138,496.7407 574.4082,496.7407 Q571.9014,496.7407 570.5815,495.0889 Q569.2617,493.437 569.2617,490.3159 Q569.2617,487.1865 570.5815,485.5347 Q571.9014,483.8828 574.4082,483.8828 Q575.1138,483.8828 575.7612,484.0322 Q576.4087,484.1816 576.9731,484.4805 L576.9731,487.2031 Q576.3423,486.6221 575.7488,486.3523 Q575.1553,486.0825 574.5244,486.0825 Q573.1797,486.0825 572.4949,487.1492 Q571.8101,488.2158 571.8101,490.3159 Q571.8101,492.4077 572.4949,493.4744 Q573.1797,494.541 574.5244,494.541 Q575.1553,494.541 575.7488,494.2712 Q576.3423,494.0015 576.9731,493.4204 Z " fill="#000000"/><text fill="#000000" font-family="sans-serif" font-size="14" lengthAdjust="spacing" textLength="223" x="588.5" y="495.291">MechanicInteractionKeySituation</text></g><!--class MilestoneReachedKeySituation--><g id="elem_MilestoneReachedKeySituation"><rect codeLine="13" fill="#D5F6FF" height="32" id="MilestoneReachedKeySituation" rx="2.5" ry="2.5" style="stroke:#181818;stroke-width:0.5;" width="241" x="566.5" y="402"/><ellipse cx="581.5" cy="418" fill="#ADD1B2" rx="11" ry="11" style="stroke:#181818;stroke-width:1.0;"/><path d="M583.9731,424.1431 Q583.3921,424.4419 582.7529,424.5913 Q582.1138,424.7407 581.4082,424.7407 Q578.9014,424.7407 577.5815,423.0889 Q576.2617,421.437 576.2617,418.3159 Q576.2617,415.1865 577.5815,413.5347 Q578.9014,411.8828 581.4082,411.8828 Q582.1138,411.8828 582.7612,412.0322 Q583.4087,412.1816 583.9731,412.4805 L583.9731,415.2031 Q583.3423,414.6221 582.7488,414.3523 Q582.1553,414.0825 581.5244,414.0825 Q580.1797,414.0825 579.4949,415.1492 Q578.8101,416.2158 578.8101,418.3159 Q578.8101,420.4077 579.4949,421.4744 Q580.1797,422.541 581.5244,422.541 Q582.1553,422.541 582.7488,422.2712 Q583.3423,422.0015 583.9731,421.4204 Z " fill="#000000"/><text fill="#000000" font-family="sans-serif" font-size="14" lengthAdjust="spacing" textLength="209" x="595.5" y="423.291">MilestoneReachedKeySituation</text></g><!--class DailyChallengePosedKeySituation--><g id="elem_DailyChallengePosedKeySituation"><rect codeLine="14" fill="#D5F6FF" height="32" id="DailyChallengePosedKeySituation" rx="2.5" ry="2.5" style="stroke:#181818;stroke-width:0.5;" width="260" x="557" y="330"/><ellipse cx="572" cy="346" fill="#ADD1B2" rx="11" ry="11" style="stroke:#181818;stroke-width:1.0;"/><path d="M574.4731,352.1431 Q573.8921,352.4419 573.2529,352.5913 Q572.6138,352.7407 571.9082,352.7407 Q569.4014,352.7407 568.0815,351.0889 Q566.7617,349.437 566.7617,346.3159 Q566.7617,343.1865 568.0815,341.5347 Q569.4014,339.8828 571.9082,339.8828 Q572.6138,339.8828 573.2612,340.0322 Q573.9087,340.1816 574.4731,340.4805 L574.4731,343.2031 Q573.8423,342.6221 573.2488,342.3523 Q572.6553,342.0825 572.0244,342.0825 Q570.6797,342.0825 569.9949,343.1492 Q569.3101,344.2158 569.3101,346.3159 Q569.3101,348.4077 569.9949,349.4744 Q570.6797,350.541 572.0244,350.541 Q572.6553,350.541 573.2488,350.2712 Q573.8423,350.0015 574.4731,349.4204 Z " fill="#000000"/><text fill="#000000" font-family="sans-serif" font-size="14" lengthAdjust="spacing" textLength="228" x="586" y="351.291">DailyChallengePosedKeySituation</text></g><!--class SessionStartedKeySituation--><g id="elem_SessionStartedKeySituation"><rect codeLine="15" fill="#D5F6FF" height="32" id="SessionStartedKeySituation" rx="2.5" ry="2.5" style="stroke:#181818;stroke-width:0.5;" width="218" x="578" y="258"/><ellipse cx="593" cy="274" fill="#ADD1B2" rx="11" ry="11" style="stroke:#181818;stroke-width:1.0;"/><path d="M595.4731,280.1431 Q594.8921,280.4419 594.2529,280.5913 Q593.6138,280.7407 592.9082,280.7407 Q590.4014,280.7407 589.0815,279.0889 Q587.7617,277.437 587.7617,274.3159 Q587.7617,271.1865 589.0815,269.5347 Q590.4014,267.8828 592.9082,267.8828 Q593.6138,267.8828 594.2612,268.0322 Q594.9087,268.1816 595.4731,268.4805 L595.4731,271.2031 Q594.8423,270.6221 594.2488,270.3523 Q593.6553,270.0825 593.0244,270.0825 Q591.6797,270.0825 590.9949,271.1492 Q590.3101,272.2158 590.3101,274.3159 Q590.3101,276.4077 590.9949,277.4744 Q591.6797,278.541 593.0244,278.541 Q593.6553,278.541 594.2488,278.2712 Q594.8423,278.0015 595.4731,277.4204 Z " fill="#000000"/><text fill="#000000" font-family="sans-serif" font-size="14" lengthAdjust="spacing" textLength="186" x="607" y="279.291">SessionStartedKeySituation</text></g><!--class TaskStartedKeySituation--><g id="elem_TaskStartedKeySituation"><rect codeLine="16" fill="#D5F6FF" height="32" id="TaskStartedKeySituation" rx="2.5" ry="2.5" style="stroke:#181818;stroke-width:0.5;" width="198" x="588" y="186"/><ellipse cx="603" cy="202" fill="#ADD1B2" rx="11" ry="11" style="stroke:#181818;stroke-width:1.0;"/><path d="M605.4731,208.1431 Q604.8921,208.4419 604.2529,208.5913 Q603.6138,208.7407 602.9082,208.7407 Q600.4014,208.7407 599.0815,207.0889 Q597.7617,205.437 597.7617,202.3159 Q597.7617,199.1865 599.0815,197.5347 Q600.4014,195.8828 602.9082,195.8828 Q603.6138,195.8828 604.2612,196.0322 Q604.9087,196.1816 605.4731,196.4805 L605.4731,199.2031 Q604.8423,198.6221 604.2488,198.3523 Q603.6553,198.0825 603.0244,198.0825 Q601.6797,198.0825 600.9949,199.1492 Q600.3101,200.2158 600.3101,202.3159 Q600.3101,204.4077 600.9949,205.4744 Q601.6797,206.541 603.0244,206.541 Q603.6553,206.541 604.2488,206.2712 Q604.8423,206.0015 605.4731,205.4204 Z " fill="#000000"/><text fill="#000000" font-family="sans-serif" font-size="14" lengthAdjust="spacing" textLength="166" x="617" y="207.291">TaskStartedKeySituation</text></g><!--class TaskFinishedKeySituation--><g id="elem_TaskFinishedKeySituation"><rect codeLine="17" fill="#D5F6FF" height="32" id="TaskFinishedKeySituation" rx="2.5" ry="2.5" style="stroke:#181818;stroke-width:0.5;" width="207" x="583.5" y="114"/><ellipse cx="598.5" cy="130" fill="#ADD1B2" rx="11" ry="11" style="stroke:#181818;stroke-width:1.0;"/><path d="M600.9731,136.1431 Q600.3921,136.4419 599.7529,136.5913 Q599.1138,136.7407 598.4082,136.7407 Q595.9014,136.7407 594.5815,135.0889 Q593.2617,133.437 593.2617,130.3159 Q593.2617,127.1865 594.5815,125.5347 Q595.9014,123.8828 598.4082,123.8828 Q599.1138,123.8828 599.7612,124.0322 Q600.4087,124.1816 600.9731,124.4805 L600.9731,127.2031 Q600.3423,126.6221 599.7488,126.3523 Q599.1553,126.0825 598.5244,126.0825 Q597.1797,126.0825 596.4949,127.1492 Q595.8101,128.2158 595.8101,130.3159 Q595.8101,132.4077 596.4949,133.4744 Q597.1797,134.541 598.5244,134.541 Q599.1553,134.541 599.7488,134.2712 Q600.3423,134.0015 600.9731,133.4204 Z " fill="#000000"/><text fill="#000000" font-family="sans-serif" font-size="14" lengthAdjust="spacing" textLength="175" x="612.5" y="135.291">TaskFinishedKeySituation</text></g><!--class SessionEndedKeySituation--><g id="elem_SessionEndedKeySituation"><rect codeLine="18" fill="#D5F6FF" height="32" id="SessionEndedKeySituation" rx="2.5" ry="2.5" style="stroke:#181818;stroke-width:0.5;" width="212" x="581" y="42"/><ellipse cx="596" cy="58" fill="#ADD1B2" rx="11" ry="11" style="stroke:#181818;stroke-width:1.0;"/><path d="M598.4731,64.1431 Q597.8921,64.4419 597.2529,64.5913 Q596.6138,64.7407 595.9082,64.7407 Q593.4014,64.7407 592.0815,63.0889 Q590.7617,61.437 590.7617,58.3159 Q590.7617,55.1865 592.0815,53.5347 Q593.4014,51.8828 595.9082,51.8828 Q596.6138,51.8828 597.2612,52.0322 Q597.9087,52.1816 598.4731,52.4805 L598.4731,55.2031 Q597.8423,54.6221 597.2488,54.3523 Q596.6553,54.0825 596.0244,54.0825 Q594.6797,54.0825 593.9949,55.1492 Q593.3101,56.2158 593.3101,58.3159 Q593.3101,60.4077 593.9949,61.4744 Q594.6797,62.541 596.0244,62.541 Q596.6553,62.541 597.2488,62.2712 Q597.8423,62.0015 598.4731,61.4204 Z " fill="#000000"/><text fill="#000000" font-family="sans-serif" font-size="14" lengthAdjust="spacing" textLength="180" x="610" y="63.291">SessionEndedKeySituation</text></g><g id="elem_GMN20"><path d="M23,297.34 L23,322.6505 A0,0 0 0 0 23,322.6505 L360,322.6505 A0,0 0 0 0 360,322.6505 L360,315.34 L399.59,310 L360,307.34 L360,307.34 L350,297.34 L23,297.34 A0,0 0 0 0 23,297.34 " fill="#FEFFDD" style="stroke:#181818;stroke-width:0.5;"/><path d="M350,297.34 L350,307.34 L360,307.34 L350,297.34 " fill="#FEFFDD" style="stroke:#181818;stroke-width:0.5;"/><text fill="#000000" font-family="sans-serif" font-size="13" lengthAdjust="spacing" textLength="316" x="29" y="314.9084">Generic KeySituation structure for behavioral logs.</text></g><!--reverse link KeySituation to MechanicDisplayedKeySituation--><g id="link_KeySituation_MechanicDisplayedKeySituation"><path d="M474.2346,342.6464 C496.9046,392.8764 557,526 557,526 C557,526 593.14,536.09 627.16,545.58 " fill="none" id="KeySituation-backto-MechanicDisplayedKeySituation" style="stroke:#181818;stroke-width:1.0;"/><polygon fill="none" points="466.83,326.24,468.7658,345.1147,479.7034,340.1782,466.83,326.24" style="stroke:#181818;stroke-width:1.0;"/></g><!--reverse link KeySituation to MechanicInteractionKeySituation--><g id="link_KeySituation_MechanicInteractionKeySituation"><path d="M480.5821,341.1447 C506.0821,378.8047 557,454 557,454 C557,454 593.14,464.09 627.16,473.58 " fill="none" id="KeySituation-backto-MechanicInteractionKeySituation" style="stroke:#181818;stroke-width:1.0;"/><polygon fill="none" points="470.49,326.24,475.6139,344.5087,485.5503,337.7806,470.49,326.24" style="stroke:#181818;stroke-width:1.0;"/></g><!--reverse link KeySituation to MilestoneReachedKeySituation--><g id="link_KeySituation_MilestoneReachedKeySituation"><path d="M496.1011,337.031 C524.8711,358.271 557,382 557,382 C557,382 593.14,392.09 627.16,401.58 " fill="none" id="KeySituation-backto-MilestoneReachedKeySituation" style="stroke:#181818;stroke-width:1.0;"/><polygon fill="none" points="481.62,326.34,492.5375,341.858,499.6648,332.2039,481.62,326.34" style="stroke:#181818;stroke-width:1.0;"/></g><!--reverse link KeySituation to DailyChallengePosedKeySituation--><g id="link_KeySituation_DailyChallengePosedKeySituation"><path d="M535.0177,322.0002 C554.9377,325.1602 560.13,325.99 582.58,329.56 " fill="none" id="KeySituation-backto-DailyChallengePosedKeySituation" style="stroke:#181818;stroke-width:1.0;"/><polygon fill="none" points="517.24,319.18,534.0777,327.9261,535.9578,316.0743,517.24,319.18" style="stroke:#181818;stroke-width:1.0;"/></g><!--reverse link KeySituation to SessionStartedKeySituation--><g id="link_KeySituation_SessionStartedKeySituation"><path d="M535.0177,297.9998 C554.9377,294.8398 560.13,294.01 582.58,290.44 " fill="none" id="KeySituation-backto-SessionStartedKeySituation" style="stroke:#181818;stroke-width:1.0;"/><polygon fill="none" points="517.24,300.82,535.9578,303.9257,534.0777,292.0739,517.24,300.82" style="stroke:#181818;stroke-width:1.0;"/></g><!--reverse link KeySituation to TaskStartedKeySituation--><g id="link_KeySituation_TaskStartedKeySituation"><path d="M496.1011,282.969 C524.8711,261.729 557,238 557,238 C557,238 593.14,227.91 627.16,218.42 " fill="none" id="KeySituation-backto-TaskStartedKeySituation" style="stroke:#181818;stroke-width:1.0;"/><polygon fill="none" points="481.62,293.66,499.6648,287.7961,492.5375,278.142,481.62,293.66" style="stroke:#181818;stroke-width:1.0;"/></g><!--reverse link KeySituation to TaskFinishedKeySituation--><g id="link_KeySituation_TaskFinishedKeySituation"><path d="M480.5821,278.8553 C506.0821,241.1953 557,166 557,166 C557,166 593.14,155.91 627.16,146.42 " fill="none" id="KeySituation-backto-TaskFinishedKeySituation" style="stroke:#181818;stroke-width:1.0;"/><polygon fill="none" points="470.49,293.76,485.5503,282.2194,475.6139,275.4913,470.49,293.76" style="stroke:#181818;stroke-width:1.0;"/></g><!--reverse link KeySituation to SessionEndedKeySituation--><g id="link_KeySituation_SessionEndedKeySituation"><path d="M474.2346,277.3536 C496.9046,227.1236 557,94 557,94 C557,94 593.14,83.91 627.16,74.42 " fill="none" id="KeySituation-backto-SessionEndedKeySituation" style="stroke:#181818;stroke-width:1.0;"/><polygon fill="none" points="466.83,293.76,479.7034,279.8218,468.7658,274.8853,466.83,293.76" style="stroke:#181818;stroke-width:1.0;"/></g><!--SRC=[fP91IyH038Nl_HK1xx875U-kYeWWrZ-Gphpf39tEb4ag5l6_srrasRedkyUyb_SbWKWNqi25UueXGQS1DEGuxOhA1mj2F-X4FTHdAySIgvRGZ0fPDlODYbGHJaapbT1w9HiAZ8QSAZdCIzb2CD3LvaWidBeJSM3JSOjQfmZQWJYr4TMlJC-Owg0Zx_X25xXrx1nzLKGciiZ2fukcSHld3kOBZESKp3R847c2NNRRQtSpm_2fI7Q9Ea4y9KNX_Pah8252D2UyWOrViyQMGvpkFCU8rE8ronf83P6vhfMBhic_itHdXHz22kBFMFq-sV-bKrRG_bsp- -iz8g44itmXqJ8Q7Gl8vK8DF7-4N3XIpArSpgbvofvQVVy0]--></g></svg>