<?xml version="1.0" encoding="us-ascii" standalone="no"?><svg xmlns="http://www.w3.org/2000/svg" xmlns:xlink="http://www.w3.org/1999/xlink" contentStyleType="text/css" height="813px" preserveAspectRatio="none" style="width:1329px;height:813px;background:#FFFFFF;" version="1.1" viewBox="0 0 1329 813" width="1329px" zoomAndPan="magnify"><defs/><g><!--cluster Metrics--><g id="cluster_Metrics"><rect fill="#FFE8E8" height="91" rx="2.5" ry="2.5" style="stroke:#000000;stroke-width:1.5;" width="106" x="898.5" y="118"/><text fill="#000000" font-family="sans-serif" font-size="14" font-weight="bold" lengthAdjust="spacing" textLength="53" x="925" y="133.5352">Metrics</text></g><!--cluster EventRegistration--><g id="cluster_EventRegistration"><rect fill="#F1F1F1" height="91" rx="2.5" ry="2.5" style="stroke:#000000;stroke-width:1.5;" width="453" x="565" y="270"/><text fill="#000000" font-family="sans-serif" font-size="14" font-weight="bold" lengthAdjust="spacing" textLength="128" x="727.5" y="285.5352">EventRegistration</text></g><!--cluster KeySituations--><g id="cluster_KeySituations"><rect fill="#E8FAFF" height="91" rx="2.5" ry="2.5" style="stroke:#000000;stroke-width:1.5;" width="446" x="877" y="385"/><text fill="#000000" font-family="sans-serif" font-size="14" font-weight="bold" lengthAdjust="spacing" textLength="99" x="1050.5" y="400.5352">KeySituations</text></g><!--cluster AssistantActions--><g id="cluster_AssistantActions"><rect fill="#E8E8FF" height="91" rx="2.5" ry="2.5" style="stroke:#000000;stroke-width:1.5;" width="382.5" x="7" y="240"/><text fill="#000000" font-family="sans-serif" font-size="14" font-weight="bold" lengthAdjust="spacing" textLength="35" x="180.75" y="255.5352">AssistantActions</text></g><!--cluster UserModel--><g id="cluster_UserModel"><rect fill="#FDE8FF" height="205" rx="2.5" ry="2.5" style="stroke:#000000;stroke-width:1.5;" width="511.5" x="216" y="7"/><text fill="#000000" font-family="sans-serif" font-size="14" font-weight="bold" lengthAdjust="spacing" textLength="76" x="433.75" y="22.5352">UserModel</text></g><!--cluster UserTraits--><g id="cluster_UserTraits"><rect fill="#FCFFE8" height="83" rx="2.5" ry="2.5" style="stroke:#000000;stroke-width:1.5;" width="438" x="566" y="617"/><text fill="#000000" font-family="sans-serif" font-size="14" font-weight="bold" lengthAdjust="spacing" textLength="75" x="747.5" y="632.5352">UserTraits</text></g><!--cluster MotivationalMechanics--><g id="cluster_MotivationalMechanics"><rect fill="#FFF6E8" height="83" rx="2.5" ry="2.5" style="stroke:#000000;stroke-width:1.5;" width="588" x="197" y="724"/><text fill="#000000" font-family="sans-serif" font-size="14" font-weight="bold" lengthAdjust="spacing" textLength="165" x="408.5" y="739.5352">MotivationalMechanics</text></g><!--cluster Plan_and_Tasks--><g id="cluster_Plan_and_Tasks"><rect fill="#EBFFE8" height="93" rx="2.5" ry="2.5" style="stroke:#000000;stroke-width:1.5;" width="416.5" x="583" y="500"/><text fill="#000000" font-family="sans-serif" font-size="14" font-weight="bold" lengthAdjust="spacing" textLength="114" x="734.25" y="515.5352">Plan_and_Tasks</text></g><!--class Metric--><g id="elem_Metric"><rect codeLine="15" fill="#F1F1F1" height="40.6211" id="Metric" rx="2.5" ry="2.5" style="stroke:#181818;stroke-width:3.0;" width="74" x="914.5" y="152.69"/><ellipse cx="929.5" cy="173.0005" fill="#ADD1B2" rx="11" ry="11" style="stroke:#181818;stroke-width:1.0;"/><path d="M931.9731,179.1436 Q931.3921,179.4424 930.7529,179.5919 Q930.1138,179.7413 929.4082,179.7413 Q926.9014,179.7413 925.5815,178.0894 Q924.2617,176.4376 924.2617,173.3165 Q924.2617,170.1871 925.5815,168.5352 Q926.9014,166.8834 929.4082,166.8834 Q930.1138,166.8834 930.7612,167.0328 Q931.4087,167.1822 931.9731,167.481 L931.9731,170.2037 Q931.3423,169.6226 930.7488,169.3528 Q930.1553,169.0831 929.5244,169.0831 Q928.1797,169.0831 927.4949,170.1497 Q926.8101,171.2164 926.8101,173.3165 Q926.8101,175.4083 927.4949,176.4749 Q928.1797,177.5416 929.5244,177.5416 Q930.1553,177.5416 930.7488,177.2718 Q931.3423,177.002 931.9731,176.421 Z " fill="#000000"/><text fill="#000000" font-family="sans-serif" font-size="12" font-style="italic" lengthAdjust="spacing" textLength="39" x="945" y="169.2916">&#171;thick&#187;</text><text fill="#000000" font-family="sans-serif" font-size="14" lengthAdjust="spacing" textLength="42" x="943.5" y="185.358">Metric</text></g><!--class Event--><g id="elem_Event"><rect codeLine="24" fill="#FFF3CD" height="40.6211" id="Event" rx="2.5" ry="2.5" style="stroke:#D39E00;stroke-width:2.0;" width="97" x="581" y="304.69"/><ellipse cx="596" cy="325.0005" fill="#ADD1B2" rx="11" ry="11" style="stroke:#181818;stroke-width:1.0;"/><path d="M598.4731,331.1436 Q597.8921,331.4424 597.2529,331.5919 Q596.6138,331.7413 595.9082,331.7413 Q593.4014,331.7413 592.0815,330.0894 Q590.7617,328.4376 590.7617,325.3165 Q590.7617,322.1871 592.0815,320.5352 Q593.4014,318.8834 595.9082,318.8834 Q596.6138,318.8834 597.2612,319.0328 Q597.9087,319.1822 598.4731,319.481 L598.4731,322.2037 Q597.8423,321.6226 597.2488,321.3528 Q596.6553,321.0831 596.0244,321.0831 Q594.6797,321.0831 593.9949,322.1497 Q593.3101,323.2164 593.3101,325.3165 Q593.3101,327.4083 593.9949,328.4749 Q594.6797,329.5416 596.0244,329.5416 Q596.6553,329.5416 597.2488,329.2718 Q597.8423,329.002 598.4731,328.421 Z " fill="#000000"/><text fill="#000000" font-family="sans-serif" font-size="12" font-style="italic" lengthAdjust="spacing" textLength="69" x="608" y="321.2916">&#171;loop_start&#187;</text><text fill="#000000" font-family="sans-serif" font-size="14" lengthAdjust="spacing" textLength="37" x="624" y="337.358">Event</text></g><!--class TaskEvent--><g id="elem_TaskEvent"><rect codeLine="25" fill="#F1F1F1" height="32" id="TaskEvent" rx="2.5" ry="2.5" style="stroke:#181818;stroke-width:0.5;" width="101" x="901" y="313"/><ellipse cx="916" cy="329" fill="#ADD1B2" rx="11" ry="11" style="stroke:#181818;stroke-width:1.0;"/><path d="M918.4731,335.1431 Q917.8921,335.4419 917.2529,335.5913 Q916.6138,335.7407 915.9082,335.7407 Q913.4014,335.7407 912.0815,334.0889 Q910.7617,332.437 910.7617,329.3159 Q910.7617,326.1865 912.0815,324.5347 Q913.4014,322.8828 915.9082,322.8828 Q916.6138,322.8828 917.2612,323.0322 Q917.9087,323.1816 918.4731,323.4805 L918.4731,326.2031 Q917.8423,325.6221 917.2488,325.3523 Q916.6553,325.0825 916.0244,325.0825 Q914.6797,325.0825 913.9949,326.1492 Q913.3101,327.2158 913.3101,329.3159 Q913.3101,331.4077 913.9949,332.4744 Q914.6797,333.541 916.0244,333.541 Q916.6553,333.541 917.2488,333.2712 Q917.8423,333.0015 918.4731,332.4204 Z " fill="#000000"/><text fill="#000000" font-family="sans-serif" font-size="14" lengthAdjust="spacing" textLength="69" x="930" y="334.291">TaskEvent</text></g><!--class KeySituation--><g id="elem_KeySituation"><rect codeLine="29" fill="#F1F1F1" height="40.6211" id="KeySituation" rx="2.5" ry="2.5" style="stroke:#181818;stroke-width:3.0;" width="117" x="893" y="419.69"/><ellipse cx="908" cy="440.0005" fill="#ADD1B2" rx="11" ry="11" style="stroke:#181818;stroke-width:1.0;"/><path d="M910.4731,446.1436 Q909.8921,446.4424 909.2529,446.5919 Q908.6138,446.7413 907.9082,446.7413 Q905.4014,446.7413 904.0815,445.0894 Q902.7617,443.4376 902.7617,440.3165 Q902.7617,437.1871 904.0815,435.5352 Q905.4014,433.8834 907.9082,433.8834 Q908.6138,433.8834 909.2612,434.0328 Q909.9087,434.1822 910.4731,434.481 L910.4731,437.2037 Q909.8423,436.6226 909.2488,436.3528 Q908.6553,436.0831 908.0244,436.0831 Q906.6797,436.0831 905.9949,437.1497 Q905.3101,438.2164 905.3101,440.3165 Q905.3101,442.4083 905.9949,443.4749 Q906.6797,444.5416 908.0244,444.5416 Q908.6553,444.5416 909.2488,444.2718 Q909.8423,444.002 910.4731,443.421 Z " fill="#000000"/><text fill="#000000" font-family="sans-serif" font-size="12" font-style="italic" lengthAdjust="spacing" textLength="39" x="945" y="436.2916">&#171;thick&#187;</text><text fill="#000000" font-family="sans-serif" font-size="14" lengthAdjust="spacing" textLength="85" x="922" y="452.358">KeySituation</text></g><!--class TaskFinishedKeySituation--><g id="elem_TaskFinishedKeySituation"><rect codeLine="30" fill="#F1F1F1" height="32" id="TaskFinishedKeySituation" rx="2.5" ry="2.5" style="stroke:#181818;stroke-width:0.5;" width="207" x="1100" y="421"/><ellipse cx="1115" cy="437" fill="#ADD1B2" rx="11" ry="11" style="stroke:#181818;stroke-width:1.0;"/><path d="M1117.4731,443.1431 Q1116.8921,443.4419 1116.2529,443.5913 Q1115.6138,443.7407 1114.9082,443.7407 Q1112.4014,443.7407 1111.0815,442.0889 Q1109.7617,440.437 1109.7617,437.3159 Q1109.7617,434.1865 1111.0815,432.5347 Q1112.4014,430.8828 1114.9082,430.8828 Q1115.6138,430.8828 1116.2612,431.0322 Q1116.9087,431.1816 1117.4731,431.4805 L1117.4731,434.2031 Q1116.8423,433.6221 1116.2488,433.3523 Q1115.6553,433.0825 1115.0244,433.0825 Q1113.6797,433.0825 1112.9949,434.1492 Q1112.3101,435.2158 1112.3101,437.3159 Q1112.3101,439.4077 1112.9949,440.4744 Q1113.6797,441.541 1115.0244,441.541 Q1115.6553,441.541 1116.2488,441.2712 Q1116.8423,441.0015 1117.4731,440.4204 Z " fill="#000000"/><text fill="#000000" font-family="sans-serif" font-size="14" lengthAdjust="spacing" textLength="175" x="1129" y="442.291">TaskFinishedKeySituation</text></g><!--class AssistantAction--><g id="elem_AssistantAction"><rect codeLine="34" fill="#F1F1F1" height="40.6211" id="AssistantAction" rx="2.5" ry="2.5" style="stroke:#181818;stroke-width:3.0;" width="67" x="23" y="274.69"/><ellipse cx="38" cy="295.0005" fill="#ADD1B2" rx="11" ry="11" style="stroke:#181818;stroke-width:1.0;"/><path d="M40.4731,301.1436 Q39.8921,301.4424 39.2529,301.5919 Q38.6138,301.7413 37.9082,301.7413 Q35.4014,301.7413 34.0815,300.0894 Q32.7617,298.4376 32.7617,295.3165 Q32.7617,292.1871 34.0815,290.5352 Q35.4014,288.8834 37.9082,288.8834 Q38.6138,288.8834 39.2612,289.0328 Q39.9087,289.1822 40.4731,289.481 L40.4731,292.2037 Q39.8423,291.6226 39.2488,291.3528 Q38.6553,291.0831 38.0244,291.0831 Q36.6797,291.0831 35.9949,292.1497 Q35.3101,293.2164 35.3101,295.3165 Q35.3101,297.4083 35.9949,298.4749 Q36.6797,299.5416 38.0244,299.5416 Q38.6553,299.5416 39.2488,299.2718 Q39.8423,299.002 40.4731,298.421 Z " fill="#000000"/><text fill="#000000" font-family="sans-serif" font-size="12" font-style="italic" lengthAdjust="spacing" textLength="39" x="50" y="291.2916">&#171;thick&#187;</text><text fill="#000000" font-family="sans-serif" font-size="14" lengthAdjust="spacing" textLength="27" x="56" y="307.358">AssistantAction</text></g><!--class PromptMessage--><g id="elem_PromptMessage"><rect codeLine="35" fill="#F1F1F1" height="32" id="PromptMessage" rx="2.5" ry="2.5" style="stroke:#181818;stroke-width:0.5;" width="141" x="232.5" y="283"/><ellipse cx="247.5" cy="299" fill="#ADD1B2" rx="11" ry="11" style="stroke:#181818;stroke-width:1.0;"/><path d="M249.9731,305.1431 Q249.3921,305.4419 248.7529,305.5913 Q248.1138,305.7407 247.4082,305.7407 Q244.9014,305.7407 243.5815,304.0889 Q242.2617,302.437 242.2617,299.3159 Q242.2617,296.1865 243.5815,294.5347 Q244.9014,292.8828 247.4082,292.8828 Q248.1138,292.8828 248.7612,293.0322 Q249.4087,293.1816 249.9731,293.4805 L249.9731,296.2031 Q249.3423,295.6221 248.7488,295.3523 Q248.1553,295.0825 247.5244,295.0825 Q246.1797,295.0825 245.4949,296.1492 Q244.8101,297.2158 244.8101,299.3159 Q244.8101,301.4077 245.4949,302.4744 Q246.1797,303.541 247.5244,303.541 Q248.1553,303.541 248.7488,303.2712 Q249.3423,303.0015 249.9731,302.4204 Z " fill="#000000"/><text fill="#000000" font-family="sans-serif" font-size="14" lengthAdjust="spacing" textLength="109" x="261.5" y="304.291">PromptMessage</text></g><!--class User--><g id="elem_User"><rect codeLine="39" fill="#F1F1F1" height="40.6211" id="User" rx="2.5" ry="2.5" style="stroke:#181818;stroke-width:3.0;" width="67" x="269.5" y="98.69"/><ellipse cx="284.5" cy="119.0005" fill="#ADD1B2" rx="11" ry="11" style="stroke:#181818;stroke-width:1.0;"/><path d="M286.9731,125.1436 Q286.3921,125.4424 285.7529,125.5919 Q285.1138,125.7413 284.4082,125.7413 Q281.9014,125.7413 280.5815,124.0894 Q279.2617,122.4376 279.2617,119.3165 Q279.2617,116.1871 280.5815,114.5352 Q281.9014,112.8834 284.4082,112.8834 Q285.1138,112.8834 285.7612,113.0328 Q286.4087,113.1822 286.9731,113.481 L286.9731,116.2037 Q286.3423,115.6226 285.7488,115.3528 Q285.1553,115.0831 284.5244,115.0831 Q283.1797,115.0831 282.4949,116.1497 Q281.8101,117.2164 281.8101,119.3165 Q281.8101,121.4083 282.4949,122.4749 Q283.1797,123.5416 284.5244,123.5416 Q285.1553,123.5416 285.7488,123.2718 Q286.3423,123.002 286.9731,122.421 Z " fill="#000000"/><text fill="#000000" font-family="sans-serif" font-size="12" font-style="italic" lengthAdjust="spacing" textLength="39" x="296.5" y="115.2916">&#171;thick&#187;</text><text fill="#000000" font-family="sans-serif" font-size="14" lengthAdjust="spacing" textLength="31" x="300.5" y="131.358">User</text></g><!--class UserState--><g id="elem_UserState"><rect codeLine="40" fill="#F1F1F1" height="32" id="UserState" rx="2.5" ry="2.5" style="stroke:#181818;stroke-width:0.5;" width="97" x="254.5" y="42"/><ellipse cx="269.5" cy="58" fill="#ADD1B2" rx="11" ry="11" style="stroke:#181818;stroke-width:1.0;"/><path d="M271.9731,64.1431 Q271.3921,64.4419 270.7529,64.5913 Q270.1138,64.7407 269.4082,64.7407 Q266.9014,64.7407 265.5815,63.0889 Q264.2617,61.437 264.2617,58.3159 Q264.2617,55.1865 265.5815,53.5347 Q266.9014,51.8828 269.4082,51.8828 Q270.1138,51.8828 270.7612,52.0322 Q271.4087,52.1816 271.9731,52.4805 L271.9731,55.2031 Q271.3423,54.6221 270.7488,54.3523 Q270.1553,54.0825 269.5244,54.0825 Q268.1797,54.0825 267.4949,55.1492 Q266.8101,56.2158 266.8101,58.3159 Q266.8101,60.4077 267.4949,61.4744 Q268.1797,62.541 269.5244,62.541 Q270.1553,62.541 270.7488,62.2712 Q271.3423,62.0015 271.9731,61.4204 Z " fill="#000000"/><text fill="#000000" font-family="sans-serif" font-size="14" lengthAdjust="spacing" textLength="65" x="283.5" y="63.291">UserState</text></g><!--class UserTraitWeight--><g id="elem_UserTraitWeight"><rect codeLine="41" fill="#F1F1F1" height="32" id="UserTraitWeight" rx="2.5" ry="2.5" style="stroke:#181818;stroke-width:0.5;" width="142" x="232" y="164"/><ellipse cx="247" cy="180" fill="#ADD1B2" rx="11" ry="11" style="stroke:#181818;stroke-width:1.0;"/><path d="M249.4731,186.1431 Q248.8921,186.4419 248.2529,186.5913 Q247.6138,186.7407 246.9082,186.7407 Q244.4014,186.7407 243.0815,185.0889 Q241.7617,183.437 241.7617,180.3159 Q241.7617,177.1865 243.0815,175.5347 Q244.4014,173.8828 246.9082,173.8828 Q247.6138,173.8828 248.2612,174.0322 Q248.9087,174.1816 249.4731,174.4805 L249.4731,177.2031 Q248.8423,176.6221 248.2488,176.3523 Q247.6553,176.0825 247.0244,176.0825 Q245.6797,176.0825 244.9949,177.1492 Q244.3101,178.2158 244.3101,180.3159 Q244.3101,182.4077 244.9949,183.4744 Q245.6797,184.541 247.0244,184.541 Q247.6553,184.541 248.2488,184.2712 Q248.8423,184.0015 249.4731,183.4204 Z " fill="#000000"/><text fill="#000000" font-family="sans-serif" font-size="14" lengthAdjust="spacing" textLength="110" x="261" y="185.291">UserTraitWeight</text></g><!--class MotivationalState--><g id="elem_MotivationalState"><rect codeLine="42" fill="#F1F1F1" height="32" id="MotivationalState" rx="2.5" ry="2.5" style="stroke:#181818;stroke-width:0.5;" width="150" x="554.5" y="42"/><ellipse cx="569.5" cy="58" fill="#ADD1B2" rx="11" ry="11" style="stroke:#181818;stroke-width:1.0;"/><path d="M571.9731,64.1431 Q571.3921,64.4419 570.7529,64.5913 Q570.1138,64.7407 569.4082,64.7407 Q566.9014,64.7407 565.5815,63.0889 Q564.2617,61.437 564.2617,58.3159 Q564.2617,55.1865 565.5815,53.5347 Q566.9014,51.8828 569.4082,51.8828 Q570.1138,51.8828 570.7612,52.0322 Q571.4087,52.1816 571.9731,52.4805 L571.9731,55.2031 Q571.3423,54.6221 570.7488,54.3523 Q570.1553,54.0825 569.5244,54.0825 Q568.1797,54.0825 567.4949,55.1492 Q566.8101,56.2158 566.8101,58.3159 Q566.8101,60.4077 567.4949,61.4744 Q568.1797,62.541 569.5244,62.541 Q570.1553,62.541 570.7488,62.2712 Q571.3423,62.0015 571.9731,61.4204 Z " fill="#000000"/><text fill="#000000" font-family="sans-serif" font-size="14" lengthAdjust="spacing" textLength="118" x="583.5" y="63.291">MotivationalState</text></g><!--class CognitiveLoadState--><g id="elem_CognitiveLoadState"><rect codeLine="43" fill="#F1F1F1" height="32" id="CognitiveLoadState" rx="2.5" ry="2.5" style="stroke:#181818;stroke-width:0.5;" width="164" x="547.5" y="99"/><ellipse cx="562.5" cy="115" fill="#ADD1B2" rx="11" ry="11" style="stroke:#181818;stroke-width:1.0;"/><path d="M564.9731,121.1431 Q564.3921,121.4419 563.7529,121.5913 Q563.1138,121.7407 562.4082,121.7407 Q559.9014,121.7407 558.5815,120.0889 Q557.2617,118.437 557.2617,115.3159 Q557.2617,112.1865 558.5815,110.5347 Q559.9014,108.8828 562.4082,108.8828 Q563.1138,108.8828 563.7612,109.0322 Q564.4087,109.1816 564.9731,109.4805 L564.9731,112.2031 Q564.3423,111.6221 563.7488,111.3523 Q563.1553,111.0825 562.5244,111.0825 Q561.1797,111.0825 560.4949,112.1492 Q559.8101,113.2158 559.8101,115.3159 Q559.8101,117.4077 560.4949,118.4744 Q561.1797,119.541 562.5244,119.541 Q563.1553,119.541 563.7488,119.2712 Q564.3423,119.0015 564.9731,118.4204 Z " fill="#000000"/><text fill="#000000" font-family="sans-serif" font-size="14" lengthAdjust="spacing" textLength="132" x="576.5" y="120.291">CognitiveLoadState</text></g><!--class UserTrait--><g id="elem_UserTrait"><rect codeLine="49" fill="#F1F1F1" height="32" id="UserTrait" rx="2.5" ry="2.5" style="stroke:#181818;stroke-width:0.5;" width="95" x="582" y="652"/><ellipse cx="597" cy="668" fill="#ADD1B2" rx="11" ry="11" style="stroke:#181818;stroke-width:1.0;"/><path d="M599.4731,674.1431 Q598.8921,674.4419 598.2529,674.5913 Q597.6138,674.7407 596.9082,674.7407 Q594.4014,674.7407 593.0815,673.0889 Q591.7617,671.437 591.7617,668.3159 Q591.7617,665.1865 593.0815,663.5347 Q594.4014,661.8828 596.9082,661.8828 Q597.6138,661.8828 598.2612,662.0322 Q598.9087,662.1816 599.4731,662.4805 L599.4731,665.2031 Q598.8423,664.6221 598.2488,664.3523 Q597.6553,664.0825 597.0244,664.0825 Q595.6797,664.0825 594.9949,665.1492 Q594.3101,666.2158 594.3101,668.3159 Q594.3101,670.4077 594.9949,671.4744 Q595.6797,672.541 597.0244,672.541 Q597.6553,672.541 598.2488,672.2712 Q598.8423,672.0015 599.4731,671.4204 Z " fill="#000000"/><text fill="#000000" font-family="sans-serif" font-size="14" lengthAdjust="spacing" textLength="63" x="611" y="673.291">UserTrait</text></g><!--class Player--><g id="elem_Player"><rect codeLine="50" fill="#F1F1F1" height="32" id="Player" rx="2.5" ry="2.5" style="stroke:#181818;stroke-width:0.5;" width="73" x="915" y="652"/><ellipse cx="930" cy="668" fill="#ADD1B2" rx="11" ry="11" style="stroke:#181818;stroke-width:1.0;"/><path d="M932.4731,674.1431 Q931.8921,674.4419 931.2529,674.5913 Q930.6138,674.7407 929.9082,674.7407 Q927.4014,674.7407 926.0815,673.0889 Q924.7617,671.437 924.7617,668.3159 Q924.7617,665.1865 926.0815,663.5347 Q927.4014,661.8828 929.9082,661.8828 Q930.6138,661.8828 931.2612,662.0322 Q931.9087,662.1816 932.4731,662.4805 L932.4731,665.2031 Q931.8423,664.6221 931.2488,664.3523 Q930.6553,664.0825 930.0244,664.0825 Q928.6797,664.0825 927.9949,665.1492 Q927.3101,666.2158 927.3101,668.3159 Q927.3101,670.4077 927.9949,671.4744 Q928.6797,672.541 930.0244,672.541 Q930.6553,672.541 931.2488,672.2712 Q931.8423,672.0015 932.4731,671.4204 Z " fill="#000000"/><text fill="#000000" font-family="sans-serif" font-size="14" lengthAdjust="spacing" textLength="41" x="944" y="673.291">Player</text></g><!--class MotivationalMechanic--><g id="elem_MotivationalMechanic"><rect codeLine="54" fill="#F1F1F1" height="32" id="MotivationalMechanic" rx="2.5" ry="2.5" style="stroke:#181818;stroke-width:0.5;" width="180" x="213" y="759"/><ellipse cx="228" cy="775" fill="#ADD1B2" rx="11" ry="11" style="stroke:#181818;stroke-width:1.0;"/><path d="M230.4731,781.1431 Q229.8921,781.4419 229.2529,781.5913 Q228.6138,781.7407 227.9082,781.7407 Q225.4014,781.7407 224.0815,780.0889 Q222.7617,778.437 222.7617,775.3159 Q222.7617,772.1865 224.0815,770.5347 Q225.4014,768.8828 227.9082,768.8828 Q228.6138,768.8828 229.2612,769.0322 Q229.9087,769.1816 230.4731,769.4805 L230.4731,772.2031 Q229.8423,771.6221 229.2488,771.3523 Q228.6553,771.0825 228.0244,771.0825 Q226.6797,771.0825 225.9949,772.1492 Q225.3101,773.2158 225.3101,775.3159 Q225.3101,777.4077 225.9949,778.4744 Q226.6797,779.541 228.0244,779.541 Q228.6553,779.541 229.2488,779.2712 Q229.8423,779.0015 230.4731,778.4204 Z " fill="#000000"/><text fill="#000000" font-family="sans-serif" font-size="14" lengthAdjust="spacing" textLength="148" x="242" y="780.291">MotivationalMechanic</text></g><!--class Level_and_Experience_Point_System--><g id="elem_Level_and_Experience_Point_System"><rect codeLine="55" fill="#F1F1F1" height="32" id="Level_and_Experience_Point_System" rx="2.5" ry="2.5" style="stroke:#181818;stroke-width:0.5;" width="279" x="490" y="759"/><ellipse cx="505" cy="775" fill="#ADD1B2" rx="11" ry="11" style="stroke:#181818;stroke-width:1.0;"/><path d="M507.4731,781.1431 Q506.8921,781.4419 506.2529,781.5913 Q505.6138,781.7407 504.9082,781.7407 Q502.4014,781.7407 501.0815,780.0889 Q499.7617,778.437 499.7617,775.3159 Q499.7617,772.1865 501.0815,770.5347 Q502.4014,768.8828 504.9082,768.8828 Q505.6138,768.8828 506.2612,769.0322 Q506.9087,769.1816 507.4731,769.4805 L507.4731,772.2031 Q506.8423,771.6221 506.2488,771.3523 Q505.6553,771.0825 505.0244,771.0825 Q503.6797,771.0825 502.9949,772.1492 Q502.3101,773.2158 502.3101,775.3159 Q502.3101,777.4077 502.9949,778.4744 Q503.6797,779.541 505.0244,779.541 Q505.6553,779.541 506.2488,779.2712 Q506.8423,779.0015 507.4731,778.4204 Z " fill="#000000"/><text fill="#000000" font-family="sans-serif" font-size="14" lengthAdjust="spacing" textLength="247" x="519" y="780.291">Level_and_Experience_Point_System</text></g><!--class Plan--><g id="elem_Plan"><rect codeLine="59" fill="#F1F1F1" height="32" id="Plan" rx="2.5" ry="2.5" style="stroke:#181818;stroke-width:0.5;" width="61" x="599" y="536"/><ellipse cx="614" cy="552" fill="#ADD1B2" rx="11" ry="11" style="stroke:#181818;stroke-width:1.0;"/><path d="M616.4731,558.1431 Q615.8921,558.4419 615.2529,558.5913 Q614.6138,558.7407 613.9082,558.7407 Q611.4014,558.7407 610.0815,557.0889 Q608.7617,555.437 608.7617,552.3159 Q608.7617,549.1865 610.0815,547.5347 Q611.4014,545.8828 613.9082,545.8828 Q614.6138,545.8828 615.2612,546.0322 Q615.9087,546.1816 616.4731,546.4805 L616.4731,549.2031 Q615.8423,548.6221 615.2488,548.3523 Q614.6553,548.0825 614.0244,548.0825 Q612.6797,548.0825 611.9949,549.1492 Q611.3101,550.2158 611.3101,552.3159 Q611.3101,554.4077 611.9949,555.4744 Q612.6797,556.541 614.0244,556.541 Q614.6553,556.541 615.2488,556.2712 Q615.8423,556.0015 616.4731,555.4204 Z " fill="#000000"/><text fill="#000000" font-family="sans-serif" font-size="14" lengthAdjust="spacing" textLength="29" x="628" y="557.291">Plan</text></g><!--class Task--><g id="elem_Task"><rect codeLine="60" fill="#F1F1F1" height="32" id="Task" rx="2.5" ry="2.5" style="stroke:#181818;stroke-width:0.5;" width="64" x="919.5" y="535"/><ellipse cx="934.5" cy="551" fill="#ADD1B2" rx="11" ry="11" style="stroke:#181818;stroke-width:1.0;"/><path d="M936.9731,557.1431 Q936.3921,557.4419 935.7529,557.5913 Q935.1138,557.7407 934.4082,557.7407 Q931.9014,557.7407 930.5815,556.0889 Q929.2617,554.437 929.2617,551.3159 Q929.2617,548.1865 930.5815,546.5347 Q931.9014,544.8828 934.4082,544.8828 Q935.1138,544.8828 935.7612,545.0322 Q936.4087,545.1816 936.9731,545.4805 L936.9731,548.2031 Q936.3423,547.6221 935.7488,547.3523 Q935.1553,547.0825 934.5244,547.0825 Q933.1797,547.0825 932.4949,548.1492 Q931.8101,549.2158 931.8101,551.3159 Q931.8101,553.4077 932.4949,554.4744 Q933.1797,555.541 934.5244,555.541 Q935.1553,555.541 935.7488,555.2712 Q936.3423,555.0015 936.9731,554.4204 Z " fill="#000000"/><text fill="#000000" font-family="sans-serif" font-size="14" lengthAdjust="spacing" textLength="32" x="948.5" y="556.291">Task</text></g><!--reverse link Event to TaskEvent--><g id="link_Event_TaskEvent"><path d="M696.4086,325.8257 C756.2086,326.5757 840,327.62 900.68,328.38 " fill="none" id="Event-backto-TaskEvent" style="stroke:#181818;stroke-width:1.0;"/><polygon fill="none" points="678.41,325.6,696.3333,331.8253,696.4838,319.8262,678.41,325.6" style="stroke:#181818;stroke-width:1.0;"/></g><!--reverse link KeySituation to TaskFinishedKeySituation--><g id="link_KeySituation_TaskFinishedKeySituation"><path d="M1028.4788,439.0898 C1055.0188,438.7798 1069.29,438.6 1099.73,438.23 " fill="none" id="KeySituation-backto-TaskFinishedKeySituation" style="stroke:#181818;stroke-width:1.0;"/><polygon fill="none" points="1010.48,439.3,1028.5489,445.0894,1028.4087,433.0902,1010.48,439.3" style="stroke:#181818;stroke-width:1.0;"/></g><!--reverse link AssistantAction to PromptMessage--><g id="link_AssistantAction_PromptMessage"><path d="M108.4676,295.8341 C144.5776,296.4241 185.53,297.09 232.04,297.86 " fill="none" id="AssistantAction-backto-PromptMessage" style="stroke:#181818;stroke-width:1.0;"/><polygon fill="none" points="90.47,295.54,108.3696,301.8333,108.5656,289.8349,90.47,295.54" style="stroke:#181818;stroke-width:1.0;"/></g><!--reverse link UserState to MotivationalState--><g id="link_UserState_MotivationalState"><path d="M369.88,58 C423.21,58 492.08,58 554.25,58 " fill="none" id="UserState-backto-MotivationalState" style="stroke:#181818;stroke-width:1.0;"/><polygon fill="none" points="351.88,58,369.88,64,369.88,52,351.88,58" style="stroke:#181818;stroke-width:1.0;"/></g><!--reverse link UserState to CognitiveLoadState--><g id="link_UserState_CognitiveLoadState"><path d="M369.6086,69.5237 C420.9086,78.5337 485.53,89.89 547.05,100.69 " fill="none" id="UserState-backto-CognitiveLoadState" style="stroke:#181818;stroke-width:1.0;"/><polygon fill="none" points="351.88,66.41,368.5707,75.4333,370.6466,63.6142,351.88,66.41" style="stroke:#181818;stroke-width:1.0;"/></g><!--reverse link UserTrait to Player--><g id="link_UserTrait_Player"><path d="M695.37,668 C759.95,668 856.87,668 914.89,668 " fill="none" id="UserTrait-backto-Player" style="stroke:#181818;stroke-width:1.0;"/><polygon fill="none" points="677.37,668,695.37,674,695.37,662,677.37,668" style="stroke:#181818;stroke-width:1.0;"/></g><!--reverse link MotivationalMechanic to Level_and_Experience_Point_System--><g id="link_MotivationalMechanic_Level_and_Experience_Point_System"><path d="M411.1,775 C440.93,775 456.94,775 489.65,775 " fill="none" id="MotivationalMechanic-backto-Level_and_Experience_Point_System" style="stroke:#181818;stroke-width:1.0;"/><polygon fill="none" points="393.1,775,411.1,781,411.1,769,393.1,775" style="stroke:#181818;stroke-width:1.0;"/></g><!--link MotivationalMechanic to UserTraitWeight--><g id="link_MotivationalMechanic_UserTraitWeight"><path codeLine="64" d="M295.78,758.52 C263.61,685.12 134.92,391.5 134.92,391.5 C134.92,391.5 134.92,374.5 134.92,374.5 C134.92,374.5 189,226 189,226 C189,226 223.8857,211.9248 256.6057,198.7248 " fill="none" id="MotivationalMechanic-to-UserTraitWeight" style="stroke:#181818;stroke-width:1.0;"/><polygon fill="#181818" points="262.17,196.48,252.3271,196.1376,257.5331,198.3506,255.3201,203.5566,262.17,196.48" style="stroke:#181818;stroke-width:1.0;"/><text fill="#000000" font-family="sans-serif" font-size="13" lengthAdjust="spacing" textLength="74" x="106" y="388.0684">selected_by</text></g><!--link AssistantAction to MotivationalMechanic--><g id="link_AssistantAction_MotivationalMechanic"><path codeLine="66" d="M63.04,315.65 C75.57,362.34 105,472 105,472 C105,472 247.2196,690.7397 288.1396,753.6797 " fill="none" id="AssistantAction-to-MotivationalMechanic" style="stroke:#181818;stroke-width:1.0;"/><polygon fill="#181818" points="291.41,758.71,289.8579,748.9842,288.6846,754.5181,283.1508,753.3448,291.41,758.71" style="stroke:#181818;stroke-width:1.0;"/><text fill="#000000" font-family="sans-serif" font-size="13" lengthAdjust="spacing" textLength="47" x="119.5" y="468.5684">toggles</text><text fill="#000000" font-family="sans-serif" font-size="13" lengthAdjust="spacing" textLength="24" x="259.3009" y="748.1539">0..1</text></g><!--link AssistantAction to User--><g id="link_AssistantAction_User"><path codeLine="67" d="M66.77,274.31 C80.59,243.46 105,189 105,189 C105,189 181,156 181,156 C181,156 189,152 189,152 C189,152 229.9006,140.0521 263.2506,130.3121 " fill="none" id="AssistantAction-to-User" style="stroke:#444444;stroke-width:6.0;"/><polygon fill="#444444" points="269.01,128.63,259.2495,127.3135,264.2105,130.0317,261.4923,134.9927,269.01,128.63" style="stroke:#444444;stroke-width:6.0;"/><text fill="#000000" font-family="sans-serif" font-size="13" lengthAdjust="spacing" textLength="44" x="121" y="152.5684">targets</text><text fill="#000000" font-family="sans-serif" font-size="13" lengthAdjust="spacing" textLength="22" x="239.5585" y="144.0611">0..*</text></g><!--link User to AssistantAction--><g id="link_User_AssistantAction"><path codeLine="85" d="M269.03,122.01 C212.95,127.14 105,137 105,137 C105,137 78.3183,225.7743 65.4383,268.5943 " fill="none" id="User-to-AssistantAction" style="stroke:#181818;stroke-width:1.0;"/><polygon fill="#181818" points="63.71,274.34,70.1329,266.8736,65.1502,269.5519,62.4719,264.5693,63.71,274.34" style="stroke:#181818;stroke-width:1.0;"/><text fill="#000000" font-family="sans-serif" font-size="13" lengthAdjust="spacing" textLength="51" x="117.5" y="126.7084">receives</text></g><!--link AssistantAction to Metric--><g id="link_AssistantAction_Metric"><path codeLine="68" d="M90.34,289.01 C129.29,281.9 189,271 189,271 C189,271 793,210 793,210 C793,210 862.0289,193.7817 908.5289,182.8617 " fill="none" id="AssistantAction-to-Metric" style="stroke:#181818;stroke-width:1.0;"/><polygon fill="#181818" points="914.37,181.49,904.6939,179.6535,909.5024,182.6331,906.5228,187.4416,914.37,181.49" style="stroke:#181818;stroke-width:1.0;"/><text fill="#000000" font-family="sans-serif" font-size="13" lengthAdjust="spacing" textLength="61" x="411" y="239.1784">considers</text><text fill="#000000" font-family="sans-serif" font-size="13" lengthAdjust="spacing" textLength="22" x="884.3985" y="196.7323">1..*</text></g><!--link AssistantAction to UserTraitWeight--><g id="link_AssistantAction_UserTraitWeight"><path codeLine="69" d="M72.79,274.4 C86.68,255.69 105,231 105,231 C105,231 174.9515,212.8938 232.5015,197.9938 " fill="none" id="AssistantAction-to-UserTraitWeight" style="stroke:#181818;stroke-width:1.0;"/><polygon fill="#181818" points="238.31,196.49,228.5947,194.8734,233.4696,197.7432,230.5998,202.6181,238.31,196.49" style="stroke:#181818;stroke-width:1.0;"/><text fill="#000000" font-family="sans-serif" font-size="13" lengthAdjust="spacing" textLength="61" x="112.5" y="208.1384">considers</text><text fill="#000000" font-family="sans-serif" font-size="13" lengthAdjust="spacing" textLength="22" x="201.8816" y="213.6611">1..*</text></g><!--link AssistantAction to UserState--><g id="link_AssistantAction_UserState"><path codeLine="70" d="M62.67,274.52 C74.98,225.8 105,107 105,107 C105,107 189,86 189,86 C189,86 217.4565,78.9545 248.2565,71.3145 " fill="none" id="AssistantAction-to-UserState" style="stroke:#181818;stroke-width:1.0;"/><polygon fill="#181818" points="254.08,69.87,244.3817,68.1545,249.2271,71.0738,246.3078,75.9191,254.08,69.87" style="stroke:#181818;stroke-width:1.0;"/><text fill="#000000" font-family="sans-serif" font-size="13" lengthAdjust="spacing" textLength="61" x="112.5" y="84.7484">considers</text><text fill="#000000" font-family="sans-serif" font-size="13" lengthAdjust="spacing" textLength="22" x="224.4028" y="84.94">1..*</text></g><!--link Event to KeySituation--><g id="link_Event_KeySituation"><path codeLine="72" d="M678.26,337.02 C745.77,354.01 861,383 861,383 C861,383 887.2894,399.7366 912.8794,416.0366 " fill="none" id="Event-to-KeySituation" style="stroke:#444444;stroke-width:6.0;"/><polygon fill="#444444" points="917.94,419.26,912.4981,411.0511,913.7228,416.5738,908.2002,417.7986,917.94,419.26" style="stroke:#444444;stroke-width:6.0;"/><text fill="#000000" font-family="sans-serif" font-size="13" lengthAdjust="spacing" textLength="49" x="806.5" y="365.5484">triggers</text></g><!--link Event to Metric--><g id="link_Event_Metric"><path codeLine="73" d="M678.26,315.05 C745.77,300.99 861,277 861,277 C861,277 902.8157,228.4074 928.9057,198.0974 " fill="none" id="Event-to-Metric" style="stroke:#444444;stroke-width:6.0;"/><polygon fill="#444444" points="932.82,193.55,923.917,197.7616,929.5581,197.3395,929.9802,202.9806,932.82,193.55" style="stroke:#444444;stroke-width:6.0;"/><text fill="#000000" font-family="sans-serif" font-size="13" lengthAdjust="spacing" textLength="58" x="802" y="273.5684">produces</text></g><!--link Task to TaskEvent--><g id="link_Task_TaskEvent"><path codeLine="74" d="M934,534.67 C909.79,512.07 869,474 869,474 C869,474 826.92,406.5 826.92,406.5 C826.92,406.5 826.92,389.5 826.92,389.5 C826.92,389.5 875.4928,365.9111 912.3928,347.9911 " fill="none" id="Task-to-TaskEvent" style="stroke:#181818;stroke-width:1.0;"/><polygon fill="#181818" points="917.79,345.37,907.9468,345.7035,913.2923,347.5542,911.4416,352.8998,917.79,345.37" style="stroke:#181818;stroke-width:1.0;"/><text fill="#000000" font-family="sans-serif" font-size="13" lengthAdjust="spacing" textLength="49" x="806.5" y="403.0684">triggers</text></g><!--link Plan to Task--><g id="link_Plan_Task"><path codeLine="75" d="M660.32,551.91 C720.83,551.72 851.52,551.3085 913.23,551.1185 " fill="none" id="Plan-to-Task" style="stroke:#181818;stroke-width:1.0;"/><polygon fill="#181818" points="919.23,551.1,910.2177,547.1277,914.23,551.1154,910.2424,555.1277,919.23,551.1" style="stroke:#181818;stroke-width:1.0;"/><text fill="#000000" font-family="sans-serif" font-size="13" lengthAdjust="spacing" textLength="54" x="804" y="547.8684">contains</text></g><!--link TaskEvent to TaskFinishedKeySituation--><g id="link_TaskEvent_TaskFinishedKeySituation"><path codeLine="76" d="M990.47,345.4 C1037.59,365.76 1111.9721,397.8903 1159.0721,418.2403 " fill="none" id="TaskEvent-to-TaskFinishedKeySituation" style="stroke:#181818;stroke-width:1.0;"/><polygon fill="#181818" points="1164.58,420.62,1157.9047,413.3785,1159.9901,418.6369,1154.7317,420.7223,1164.58,420.62" style="stroke:#181818;stroke-width:1.0;"/><text fill="#000000" font-family="sans-serif" font-size="13" lengthAdjust="spacing" textLength="49" x="1035" y="363.5884">triggers</text></g><!--link KeySituation to AssistantAction--><g id="link_KeySituation_AssistantAction"><path codeLine="78" d="M892.72,437.06 C702.06,427.36 105,397 105,397 C105,397 83.5226,350.8893 69.6426,321.0793 " fill="none" id="KeySituation-to-AssistantAction" style="stroke:#444444;stroke-width:6.0;"/><polygon fill="#444444" points="67.11,315.64,67.2827,325.4873,69.2205,320.1727,74.5351,322.1105,67.11,315.64" style="stroke:#444444;stroke-width:6.0;"/><text fill="#000000" font-family="sans-serif" font-size="13" lengthAdjust="spacing" textLength="49" x="417" y="409.1784">triggers</text></g><!--link MotivationalState to Metric--><g id="link_MotivationalState_Metric"><path codeLine="80" d="M704.62,71.23 C747.47,78.88 793,87 793,87 C793,87 861,122 861,122 C861,122 884.1069,135.1695 908.8869,149.2895 " fill="none" id="MotivationalState-to-Metric" style="stroke:#181818;stroke-width:1.0;"/><polygon fill="#181818" points="914.1,152.26,908.2607,144.3289,909.7558,149.7846,904.3001,151.2797,914.1,152.26" style="stroke:#181818;stroke-width:1.0;"/><text fill="#000000" font-family="sans-serif" font-size="13" lengthAdjust="spacing" textLength="34" x="814" y="87.9084">reads</text></g><!--link CognitiveLoadState to Metric--><g id="link_CognitiveLoadState_Metric"><path codeLine="81" d="M711.77,128.75 C778.13,139.98 861,154 861,154 C861,154 883.4508,158.7642 908.2308,164.0242 " fill="none" id="CognitiveLoadState-to-Metric" style="stroke:#181818;stroke-width:1.0;"/><polygon fill="#181818" points="914.1,165.27,906.1267,159.4884,909.209,164.2318,904.4656,167.314,914.1,165.27" style="stroke:#181818;stroke-width:1.0;"/><text fill="#000000" font-family="sans-serif" font-size="13" lengthAdjust="spacing" textLength="34" x="814" y="141.1484">reads</text></g><!--link UserTraitWeight to UserTrait--><g id="link_UserTraitWeight_UserTrait"><path codeLine="83" d="M322.92,196.39 C350.24,220.06 397.5,261 397.5,261 C397.5,261 408,527 408,527 C408,527 490,591 490,591 C490,591 553.2257,626.155 593.8857,648.755 " fill="none" id="UserTraitWeight-to-UserTrait" style="stroke:#181818;stroke-width:1.0;"/><polygon fill="#181818" points="599.13,651.67,593.2068,643.8013,594.7597,649.2409,589.3202,650.7938,599.13,651.67" style="stroke:#181818;stroke-width:1.0;"/><text fill="#000000" font-family="sans-serif" font-size="13" lengthAdjust="spacing" textLength="65" x="409" y="523.5684">references</text></g><!--link User to Metric--><g id="link_User_Metric"><path codeLine="84" d="M336.82,126.24 C390.22,138.01 490,160 490,160 C490,160 799.8124,168.7509 908.3724,171.8109 " fill="none" id="User-to-Metric" style="stroke:#444444;stroke-width:6.0;"/><polygon fill="#444444" points="914.37,171.98,905.4863,167.728,909.372,171.8391,905.2609,175.7248,914.37,171.98" style="stroke:#444444;stroke-width:6.0;"/><text fill="#000000" font-family="sans-serif" font-size="13" lengthAdjust="spacing" textLength="22" x="618.5" y="156.5684">has</text></g><!--link User to Plan--><g id="link_User_Plan"><path codeLine="86" d="M336.96,130.63 C363.88,140.14 397.5,152 397.5,152 C397.5,152 408,484 408,484 C408,484 532.8465,522.5017 593.0265,541.0617 " fill="none" id="User-to-Plan" style="stroke:#181818;stroke-width:1.0;"/><polygon fill="#181818" points="598.76,542.83,591.3386,536.3553,593.9821,541.3564,588.9809,544,598.76,542.83" style="stroke:#181818;stroke-width:1.0;"/><text fill="#000000" font-family="sans-serif" font-size="13" lengthAdjust="spacing" textLength="22" x="430.5" y="480.5684">has</text></g><!--SRC=[bLPHQzim47xNhn3jms2iNjfqfIjP7bQwbpLGceuzZ14KwsoBE9AHb59J-jztaXDRjjMo9X2Ik- - - - -vqkjXiXAoOPbjQ2Wcshe1MggpT3r883XIsbQtf5coXk0bDp5ejrZiBfW_Sha4RKa9cgLLKYxomb0iDgHLA4jFcaug3WOgUVGcCcicDCqudWR5YwORbiBHr2TGHCPcNGCZCECkSK9hOGgGR-anlKVU3-ox163gbBsJsUOyYUngw01IU6dgSPN09b_GP2TAI8RxnqDdCqytdv2LGqK0S-3iIvLhj9BzMfTApMQbKjJAMQJkVEzficdA7Kvg3ZcBuz2jC9YscbJp0dQ62LlVD8qXx3xamLZFNJ4nrwjv11Hv3-oojyu6PJGE09mkIx-5XZfzGBuNTUNhi45ncBCi2_j0Vz2dCy4D8OGhWFUWXOMWCyrxlmAV3X64wD4Uot6c5ixR0ThdG0pLYGyPV1lG2Hwp4Bl41hVD5U9rvQPc5dkL1Cs5_WvlZRb2K5O- -25RwY5R5cEDQvL8W76uLuw-1KNXVki_gPZHrKphGxfrTEqfMOpqXQGC8kX4ANa1QCBc_0Tb5_mP4SAtp5XwXN379LpTF5MW1CeNLdHBIhfQriR1jDKHf0ZaeMNeYDp26uicl1sKwH6-iNFW7UjA-w3sKpPWMeZA1WqHhJM9MZ9ftWv8CJfjUKGCbhXlWgtLDY9lHn4saYpgQ9Cdf4Nr7hYjSXpdkBHCG_Ja-Fp__P0-t_zl5tptrnwE1BXVET0xM37ISUl1-foNx3NP5KsmCRcKTXxzLytiYct4EOyXeIoNDoedNsjitIMzbOC7uvv4xqlTnZdfHQSLtAJQ-FtQ9-_IrZVcxLHd868IxdpuyHkjxOfcGCVKT-yce1w-kq408UQDjyPwqHncoT6SvtcSdiKPgOFWCq8L5LjiRSUJrgJlSmsRhTMuVcu5scyOCul_tz0isZknt11yf08k8mc9dxZd_0G00]--></g></svg>