<?xml version="1.0" encoding="us-ascii" standalone="no"?><svg xmlns="http://www.w3.org/2000/svg" xmlns:xlink="http://www.w3.org/1999/xlink" contentStyleType="text/css" height="605px" preserveAspectRatio="none" style="width:1147px;height:605px;background:#FFFFFF;" version="1.1" viewBox="0 0 1147 605" width="1147px" zoomAndPan="magnify"><defs/><g><!--entity AssistantActions--><g id="elem_AssistantActions"><path d="M424.5,6 L465.5,6 A3.75,3.75 0 0 1 468,8.5 L475,27 L541.5,27 A2.5,2.5 0 0 1 544,29.5 L544,55.6328 A2.5,2.5 0 0 1 541.5,58.1328 L424.5,58.1328 A2.5,2.5 0 0 1 422,55.6328 L422,8.5 A2.5,2.5 0 0 1 424.5,6 " fill="#E8E8FF" style="stroke:#333333;stroke-width:0.5;"/><line style="stroke:#333333;stroke-width:0.5;" x1="422" x2="475" y1="27" y2="27"/><text fill="#000000" font-family="sans-serif" font-size="12" lengthAdjust="spacing" textLength="92" x="432" y="45.6016">AssistantActions</text></g><!--entity Conditions--><g id="elem_Conditions"><path d="M893.5,222.27 L934.5,222.27 A3.75,3.75 0 0 1 937,224.77 L944,243.27 L978.5,243.27 A2.5,2.5 0 0 1 981,245.77 L981,271.9028 A2.5,2.5 0 0 1 978.5,274.4028 L893.5,274.4028 A2.5,2.5 0 0 1 891,271.9028 L891,224.77 A2.5,2.5 0 0 1 893.5,222.27 " fill="#FFEDCA" style="stroke:#333333;stroke-width:0.5;"/><line style="stroke:#333333;stroke-width:0.5;" x1="891" x2="944" y1="243.27" y2="243.27"/><text fill="#000000" font-family="sans-serif" font-size="12" lengthAdjust="spacing" textLength="60" x="901" y="261.8716">Conditions</text></g><!--entity EventRegistration--><g id="elem_EventRegistration"><path d="M691,438.53 L732,438.53 A3.75,3.75 0 0 1 734.5,441.03 L741.5,459.53 L815,459.53 A2.5,2.5 0 0 1 817.5,462.03 L817.5,488.1628 A2.5,2.5 0 0 1 815,490.6628 L691,490.6628 A2.5,2.5 0 0 1 688.5,488.1628 L688.5,441.03 A2.5,2.5 0 0 1 691,438.53 " fill="#F1F1F1" style="stroke:#333333;stroke-width:0.5;"/><line style="stroke:#333333;stroke-width:0.5;" x1="688.5" x2="741.5" y1="459.53" y2="459.53"/><text fill="#000000" font-family="sans-serif" font-size="12" lengthAdjust="spacing" textLength="99" x="698.5" y="478.1316">EventRegistration</text></g><!--entity KeySituations--><g id="elem_KeySituations"><path d="M1005,546.67 L1046,546.67 A3.75,3.75 0 0 1 1048.5,549.17 L1055.5,567.67 L1105,567.67 A2.5,2.5 0 0 1 1107.5,570.17 L1107.5,596.3028 A2.5,2.5 0 0 1 1105,598.8028 L1005,598.8028 A2.5,2.5 0 0 1 1002.5,596.3028 L1002.5,549.17 A2.5,2.5 0 0 1 1005,546.67 " fill="#E8FAFF" style="stroke:#333333;stroke-width:0.5;"/><line style="stroke:#333333;stroke-width:0.5;" x1="1002.5" x2="1055.5" y1="567.67" y2="567.67"/><text fill="#000000" font-family="sans-serif" font-size="12" lengthAdjust="spacing" textLength="75" x="1012.5" y="586.2716">KeySituations</text></g><!--entity Metrics--><g id="elem_Metrics"><path d="M574,330.4 L615,330.4 A3.75,3.75 0 0 1 617.5,332.9 L624.5,351.4 L640,351.4 A2.5,2.5 0 0 1 642.5,353.9 L642.5,380.0328 A2.5,2.5 0 0 1 640,382.5328 L574,382.5328 A2.5,2.5 0 0 1 571.5,380.0328 L571.5,332.9 A2.5,2.5 0 0 1 574,330.4 " fill="#FFE8E8" style="stroke:#333333;stroke-width:0.5;"/><line style="stroke:#333333;stroke-width:0.5;" x1="571.5" x2="624.5" y1="351.4" y2="351.4"/><text fill="#000000" font-family="sans-serif" font-size="12" lengthAdjust="spacing" textLength="41" x="581.5" y="370.0016">Metrics</text></g><!--entity MotivationalMechanics--><g id="elem_MotivationalMechanics"><path d="M526,114.14 L567,114.14 A3.75,3.75 0 0 1 569.5,116.64 L576.5,135.14 L678,135.14 A2.5,2.5 0 0 1 680.5,137.64 L680.5,163.7728 A2.5,2.5 0 0 1 678,166.2728 L526,166.2728 A2.5,2.5 0 0 1 523.5,163.7728 L523.5,116.64 A2.5,2.5 0 0 1 526,114.14 " fill="#FFFFFF" style="stroke:#333333;stroke-width:0.5;"/><line style="stroke:#333333;stroke-width:0.5;" x1="523.5" x2="576.5" y1="135.14" y2="135.14"/><text fill="#000000" font-family="sans-serif" font-size="12" lengthAdjust="spacing" textLength="127" x="533.5" y="153.7416">MotivationalMechanics</text></g><!--entity Usertrait_Mechanic_Mapping--><g id="elem_Usertrait_Mechanic_Mapping"><path d="M8.5,6 L49.5,6 A3.75,3.75 0 0 1 52,8.5 L59,27 L197.5,27 A2.5,2.5 0 0 1 200,29.5 L200,55.6328 A2.5,2.5 0 0 1 197.5,58.1328 L8.5,58.1328 A2.5,2.5 0 0 1 6,55.6328 L6,8.5 A2.5,2.5 0 0 1 8.5,6 " fill="#FFFFFF" style="stroke:#333333;stroke-width:0.5;"/><line style="stroke:#333333;stroke-width:0.5;" x1="6" x2="59" y1="27" y2="27"/><text fill="#000000" font-family="sans-serif" font-size="12" lengthAdjust="spacing" textLength="164" x="16" y="45.6016">Usertrait_Mechanic_Mapping</text></g><!--entity Plan_and_Tasks--><g id="elem_Plan_and_Tasks"><path d="M694.5,546.67 L735.5,546.67 A3.75,3.75 0 0 1 738,549.17 L745,567.67 L811.5,567.67 A2.5,2.5 0 0 1 814,570.17 L814,596.3028 A2.5,2.5 0 0 1 811.5,598.8028 L694.5,598.8028 A2.5,2.5 0 0 1 692,596.3028 L692,549.17 A2.5,2.5 0 0 1 694.5,546.67 " fill="#EBFFE8" style="stroke:#333333;stroke-width:0.5;"/><line style="stroke:#333333;stroke-width:0.5;" x1="692" x2="745" y1="567.67" y2="567.67"/><text fill="#000000" font-family="sans-serif" font-size="12" lengthAdjust="spacing" textLength="92" x="702" y="586.2716">Plan_and_Tasks</text></g><!--entity UserContext--><g id="elem_UserContext"><path d="M248.5,222.27 L289.5,222.27 A3.75,3.75 0 0 1 292,224.77 L299,243.27 L343.5,243.27 A2.5,2.5 0 0 1 346,245.77 L346,271.9028 A2.5,2.5 0 0 1 343.5,274.4028 L248.5,274.4028 A2.5,2.5 0 0 1 246,271.9028 L246,224.77 A2.5,2.5 0 0 1 248.5,222.27 " fill="#FDE8FF" style="stroke:#333333;stroke-width:0.5;"/><line style="stroke:#333333;stroke-width:0.5;" x1="246" x2="299" y1="243.27" y2="243.27"/><text fill="#000000" font-family="sans-serif" font-size="12" lengthAdjust="spacing" textLength="70" x="256" y="261.8716">UserContext</text></g><!--entity UserTraits--><g id="elem_UserTraits"><path d="M88,330.4 L129,330.4 A3.75,3.75 0 0 1 131.5,332.9 L138.5,351.4 L172,351.4 A2.5,2.5 0 0 1 174.5,353.9 L174.5,380.0328 A2.5,2.5 0 0 1 172,382.5328 L88,382.5328 A2.5,2.5 0 0 1 85.5,380.0328 L85.5,332.9 A2.5,2.5 0 0 1 88,330.4 " fill="#FFFFFF" style="stroke:#333333;stroke-width:0.5;"/><line style="stroke:#333333;stroke-width:0.5;" x1="85.5" x2="138.5" y1="351.4" y2="351.4"/><text fill="#000000" font-family="sans-serif" font-size="12" lengthAdjust="spacing" textLength="59" x="95.5" y="370.0016">UserTraits</text></g><!--link AssistantActions to MotivationalMechanics--><g id="link_AssistantActions_MotivationalMechanics"><path d="M511.5,58.49 C530.34,75.29 550.4624,94.3647 569.2524,111.1247 " fill="none" id="AssistantActions-to-MotivationalMechanics" style="stroke:#181818;stroke-width:0.6;"/><polygon fill="#181818" points="573.73,115.1186,569.6762,106.1427,569.9987,111.7904,564.351,112.1129,573.73,115.1186" style="stroke:#181818;stroke-width:0.6;"/><text fill="#000000" font-family="sans-serif" font-size="12" lengthAdjust="spacing" textLength="41" x="550.62" y="90.7416">toggles</text><text fill="#000000" font-family="sans-serif" font-size="12" lengthAdjust="spacing" textLength="24" x="539.9142" y="103.5112">0..1</text></g><!--link Usertrait_Mechanic_Mapping to MotivationalMechanics--><g id="link_Usertrait_Mechanic_Mapping_MotivationalMechanics"><path d="M200.36,53.68 C277.56,70.03 388.19,93.49 485,114.14 C497.29,116.76 504.4428,118.2844 517.1528,121.0044 " fill="none" id="Usertrait_Mechanic_Mapping-to-MotivationalMechanics" style="stroke:#181818;stroke-width:0.6;"/><polygon fill="#181818" points="523.02,122.26,515.0563,116.4652,518.1307,121.2137,513.3822,124.288,523.02,122.26" style="stroke:#181818;stroke-width:0.6;"/><text fill="#000000" font-family="sans-serif" font-size="12" lengthAdjust="spacing" textLength="32" x="391.69" y="90.7416">maps</text></g><!--link Usertrait_Mechanic_Mapping to UserTraits--><g id="link_Usertrait_Mechanic_Mapping_UserTraits"><path d="M105.12,58.37 C110.17,118.64 122.349,264.161 127.389,324.311 " fill="none" id="Usertrait_Mechanic_Mapping-to-UserTraits" style="stroke:#181818;stroke-width:0.6;"/><polygon fill="#181818" points="127.89,330.29,131.1246,320.9874,127.4725,325.3075,123.1525,321.6554,127.89,330.29" style="stroke:#181818;stroke-width:0.6;"/><text fill="#000000" font-family="sans-serif" font-size="12" lengthAdjust="spacing" textLength="32" x="118.12" y="198.8716">maps</text></g><!--link MotivationalMechanics to UserContext--><g id="link_MotivationalMechanics_UserContext"><path d="M523.37,158.62 C482.68,168.01 437.53,179.09 418,186.27 C391.65,195.95 368.8544,227.927 346.2744,239.967 " fill="none" id="MotivationalMechanics-to-UserContext" style="stroke:#181818;stroke-width:0.6;"/><polygon fill="#181818" points="340.98,242.79,350.8036,242.085,345.392,240.4375,347.0395,235.0259,340.98,242.79" style="stroke:#181818;stroke-width:0.6;"/><text fill="#000000" font-family="sans-serif" font-size="12" lengthAdjust="spacing" textLength="68" x="419" y="198.8716">selected_by</text><text fill="#000000" font-family="sans-serif" font-size="12" lengthAdjust="spacing" textLength="8" x="507.4943" y="157.3157">1</text><text fill="#000000" font-family="sans-serif" font-size="12" lengthAdjust="spacing" textLength="24" x="354.1566" y="211.6493">1..2</text></g><!--link AssistantActions to UserContext--><g id="link_AssistantActions_UserContext"><path d="M421.76,39.72 C338,50.22 194.46,73.71 163,114.14 C148.77,132.42 151.65,146.07 163,166.27 C180.61,197.63 210.2952,215.9398 240.0652,228.5498 " fill="none" id="AssistantActions-to-UserContext" style="stroke:#181818;stroke-width:0.6;"/><polygon fill="#181818" points="245.59,230.89,238.8629,223.6965,240.986,228.9398,235.7427,231.0629,245.59,230.89" style="stroke:#181818;stroke-width:0.6;"/><text fill="#000000" font-family="sans-serif" font-size="12" lengthAdjust="spacing" textLength="40" x="164" y="144.8016">targets</text><text fill="#000000" font-family="sans-serif" font-size="12" lengthAdjust="spacing" textLength="22" x="216.1057" y="225.5202">0..*</text></g><!--link AssistantActions to UserContext--><g id="link_AssistantActions_UserContext"><path d="M460.81,58.49 C424.82,99.73 358.075,197.2092 322.105,238.4292 " fill="none" id="AssistantActions-to-UserContext-1" style="stroke:#181818;stroke-width:0.6;"/><polygon fill="#181818" points="318.16,242.95,327.0913,238.7988,321.4475,239.1827,321.0636,233.5389,318.16,242.95" style="stroke:#181818;stroke-width:0.6;"/><text fill="#000000" font-family="sans-serif" font-size="12" lengthAdjust="spacing" textLength="55" x="412.14" y="144.8016">considers</text><text fill="#000000" font-family="sans-serif" font-size="12" lengthAdjust="spacing" textLength="22" x="431.1348" y="77.8361">1..*</text><text fill="#000000" font-family="sans-serif" font-size="12" lengthAdjust="spacing" textLength="22" x="298.7408" y="211.8463">1..*</text></g><!--link UserContext to AssistantActions--><g id="link_UserContext_AssistantActions"><path d="M291.04,222 C286.88,193.17 284.71,145.98 307,114.14 C333.53,76.24 376.5473,57.2701 416.0473,46.3401 " fill="none" id="UserContext-to-AssistantActions" style="stroke:#181818;stroke-width:0.6;"/><polygon fill="#181818" points="421.83,44.74,412.0892,43.2851,417.0111,46.0734,414.2227,50.9953,421.83,44.74" style="stroke:#181818;stroke-width:0.6;"/><text fill="#000000" font-family="sans-serif" font-size="12" lengthAdjust="spacing" textLength="47" x="308" y="144.8016">receives</text><text fill="#000000" font-family="sans-serif" font-size="12" lengthAdjust="spacing" textLength="8" x="280.968" y="211.9079">1</text><text fill="#000000" font-family="sans-serif" font-size="12" lengthAdjust="spacing" textLength="22" x="391.9364" y="42.9694">1..*</text></g><!--link EventRegistration to KeySituations--><g id="link_EventRegistration_KeySituations"><path d="M817.79,488.37 C872.9,507.74 945.3992,533.2212 996.7192,551.2512 " fill="none" id="EventRegistration-to-KeySituations" style="stroke:#181818;stroke-width:0.6;"/><polygon fill="#181818" points="1002.38,553.24,995.2146,546.483,997.6627,551.5827,992.5629,554.0307,1002.38,553.24" style="stroke:#181818;stroke-width:0.6;"/><text fill="#000000" font-family="sans-serif" font-size="12" lengthAdjust="spacing" textLength="44" x="923.08" y="523.2716">triggers</text><text fill="#000000" font-family="sans-serif" font-size="12" lengthAdjust="spacing" textLength="22" x="825.6058" y="487.7082">1..*</text><text fill="#000000" font-family="sans-serif" font-size="12" lengthAdjust="spacing" textLength="22" x="972.6263" y="547.6204">0..*</text></g><!--link EventRegistration to Metrics--><g id="link_EventRegistration_Metrics"><path d="M734.42,438.32 C724.79,426.42 712.28,412.66 699,402.53 C682.02,389.6 666.2544,381.2777 648.4344,373.5477 " fill="none" id="EventRegistration-to-Metrics" style="stroke:#181818;stroke-width:0.6;"/><polygon fill="#181818" points="642.93,371.16,649.5948,378.4112,647.517,373.1498,652.7785,371.072,642.93,371.16" style="stroke:#181818;stroke-width:0.6;"/><text fill="#000000" font-family="sans-serif" font-size="12" lengthAdjust="spacing" textLength="120" x="716.68" y="415.1316">triggers recalculation</text><text fill="#000000" font-family="sans-serif" font-size="12" lengthAdjust="spacing" textLength="22" x="705.2099" y="427.8266">1..*</text><text fill="#000000" font-family="sans-serif" font-size="12" lengthAdjust="spacing" textLength="22" x="650.4095" y="369.9983">0..*</text></g><!--link Metrics to EventRegistration--><g id="link_Metrics_EventRegistration"><path d="M594.09,383.02 C590.06,394.85 588.42,408.47 596,418.53 C607.47,433.77 644.348,444.2459 682.348,451.8959 " fill="none" id="Metrics-to-EventRegistration" style="stroke:#181818;stroke-width:0.6;"/><polygon fill="#181818" points="688.23,453.08,680.1964,447.3825,683.3283,452.0932,678.6176,455.2251,688.23,453.08" style="stroke:#181818;stroke-width:0.6;"/><text fill="#000000" font-family="sans-serif" font-size="12" lengthAdjust="spacing" textLength="89" x="597" y="415.1316">calculated from</text><text fill="#000000" font-family="sans-serif" font-size="12" lengthAdjust="spacing" textLength="8" x="582.3909" y="401.9759">1</text><text fill="#000000" font-family="sans-serif" font-size="12" lengthAdjust="spacing" textLength="8" x="672.7083" y="448.6636">1</text></g><!--link KeySituations to AssistantActions--><g id="link_KeySituations_AssistantActions"><path d="M1069.97,567.52 C1080.97,546.59 1094,494.65 1094,465.6 C1094,139.2 1094,139.2 1094,139.2 C1094,83.82 705.3033,49.3468 550.3633,37.7768 " fill="none" id="KeySituations-to-AssistantActions" style="stroke:#181818;stroke-width:0.6;"/><polygon fill="#181818" points="544.38,37.33,553.0571,41.9891,549.3661,37.7023,553.6529,34.0113,544.38,37.33" style="stroke:#181818;stroke-width:0.6;"/><text fill="#000000" font-family="sans-serif" font-size="12" lengthAdjust="spacing" textLength="44" x="1095" y="307.0016">triggers</text><text fill="#000000" font-family="sans-serif" font-size="12" lengthAdjust="spacing" textLength="8" x="1064.6439" y="536.0413">1</text><text fill="#000000" font-family="sans-serif" font-size="12" lengthAdjust="spacing" textLength="22" x="551.8442" y="34.7593">0..*</text></g><!--link UserContext to UserTraits--><g id="link_UserContext_UserTraits"><path d="M245.68,269.37 C230.2,276.41 213.45,284.94 199,294.4 C183.34,304.65 171.9431,335.1714 159.4531,346.9614 " fill="none" id="UserContext-to-UserTraits" style="stroke:#181818;stroke-width:0.6;"/><polygon fill="#181818" points="155.09,351.08,164.3805,347.8108,158.726,347.6478,158.889,341.9933,155.09,351.08" style="stroke:#181818;stroke-width:0.6;"/><text fill="#000000" font-family="sans-serif" font-size="12" lengthAdjust="spacing" textLength="61" x="200" y="307.0016">references</text><text fill="#000000" font-family="sans-serif" font-size="12" lengthAdjust="spacing" textLength="8" x="230.0413" y="268.9544">1</text><text fill="#000000" font-family="sans-serif" font-size="12" lengthAdjust="spacing" textLength="22" x="136.3483" y="319.9763">1..*</text></g><!--link UserContext to Metrics--><g id="link_UserContext_Metrics"><path d="M326.71,274.66 C343.33,287.17 364.77,301.46 386,310.4 C448.07,336.55 520.532,347.2816 565.312,351.9216 " fill="none" id="UserContext-to-Metrics" style="stroke:#181818;stroke-width:0.6;"/><polygon fill="#181818" points="571.28,352.54,562.7402,347.6337,566.3066,352.0247,561.9157,355.5911,571.28,352.54" style="stroke:#181818;stroke-width:0.6;"/><text fill="#000000" font-family="sans-serif" font-size="12" lengthAdjust="spacing" textLength="20" x="387" y="307.0016">has</text></g><!--link UserContext to Plan_and_Tasks--><g id="link_UserContext_Plan_and_Tasks"><path d="M313.41,274.69 C322.11,286.33 333.27,299.86 345,310.4 C460.43,414.14 616.0788,501.3179 696.9888,543.4679 " fill="none" id="UserContext-to-Plan_and_Tasks" style="stroke:#181818;stroke-width:0.6;"/><polygon fill="#181818" points="702.31,546.24,696.1762,538.5344,697.8756,543.9299,692.4801,545.6294,702.31,546.24" style="stroke:#181818;stroke-width:0.6;"/><text fill="#000000" font-family="sans-serif" font-size="12" lengthAdjust="spacing" textLength="20" x="483.65" y="415.1316">has</text><text fill="#000000" font-family="sans-serif" font-size="12" lengthAdjust="spacing" textLength="8" x="308.5111" y="294.0199">1</text><text fill="#000000" font-family="sans-serif" font-size="12" lengthAdjust="spacing" textLength="8" x="681.6629" y="536.1109">1</text></g><!--link EventRegistration to Plan_and_Tasks--><g id="link_EventRegistration_Plan_and_Tasks"><path d="M753,491.02 C753,507.83 753,544.76 753,561.52 " fill="none" id="EventRegistration-to-Plan_and_Tasks" style="stroke:#181818;stroke-width:0.6;"/><polygon fill="#181818" points="753,567.52,757,558.52,753,562.52,749,558.52,753,567.52" style="stroke:#181818;stroke-width:0.6;"/><text fill="#000000" font-family="sans-serif" font-size="12" lengthAdjust="spacing" textLength="34" x="754" y="523.2716">refers</text><text fill="#000000" font-family="sans-serif" font-size="12" lengthAdjust="spacing" textLength="8" x="744.075" y="510.3661">1</text><text fill="#000000" font-family="sans-serif" font-size="12" lengthAdjust="spacing" textLength="8" x="744.025" y="536.0413">1</text></g><!--link MotivationalMechanics to Metrics--><g id="link_MotivationalMechanics_Metrics"><path d="M602.59,166.62 C603.56,207.86 605.3103,282.8616 606.2703,324.0816 " fill="none" id="MotivationalMechanics-to-Metrics" style="stroke:#181818;stroke-width:0.6;"/><polygon fill="#181818" points="606.41,330.08,610.1994,320.9893,606.2936,325.0814,602.2015,321.1756,606.41,330.08" style="stroke:#181818;stroke-width:0.6;"/><text fill="#000000" font-family="sans-serif" font-size="12" lengthAdjust="spacing" textLength="102" x="606.08" y="252.9416">is_determined_by</text><text fill="#000000" font-family="sans-serif" font-size="12" lengthAdjust="spacing" textLength="8" x="593.8014" y="185.9638">1</text><text fill="#000000" font-family="sans-serif" font-size="12" lengthAdjust="spacing" textLength="8" x="597.3486" y="319.9763">1</text></g><!--link MotivationalMechanics to Metrics--><g id="link_MotivationalMechanics_Metrics"><path d="M661.74,166.69 C684.58,179.74 708.2,198.07 721,222.27 C731.83,242.75 731.62,253.81 721,274.4 C704.69,306.02 675.1122,346.3892 648.1722,359.4092 " fill="none" id="MotivationalMechanics-to-Metrics-1" style="stroke:#181818;stroke-width:0.6;"/><polygon fill="#181818" points="642.77,362.02,652.6138,361.7052,647.2718,359.8443,649.1327,354.5023,642.77,362.02" style="stroke:#181818;stroke-width:0.6;"/><text fill="#000000" font-family="sans-serif" font-size="12" lengthAdjust="spacing" textLength="33" x="730.05" y="252.9416">reads</text><text fill="#000000" font-family="sans-serif" font-size="12" lengthAdjust="spacing" textLength="8" x="666.6299" y="186.05">1</text><text fill="#000000" font-family="sans-serif" font-size="12" lengthAdjust="spacing" textLength="8" x="650.5997" y="334.2155">1</text></g><!--link MotivationalMechanics to Metrics--><g id="link_MotivationalMechanics_Metrics"><path d="M573.47,166.72 C559.26,181.38 543.54,201.07 536,222.27 C528.24,244.1 527.85,252.71 536,274.4 C544.1,295.94 556.4727,311.3542 571.6427,325.8542 " fill="none" id="MotivationalMechanics-to-Metrics-2" style="stroke:#181818;stroke-width:0.6;"/><polygon fill="#181818" points="575.98,330,572.2378,320.8898,572.3655,326.5452,566.7101,326.6729,575.98,330" style="stroke:#181818;stroke-width:0.6;"/><text fill="#000000" font-family="sans-serif" font-size="12" lengthAdjust="spacing" textLength="54" x="537" y="252.9416">based on</text></g><!--link AssistantActions to Conditions--><g id="link_AssistantActions_Conditions"><path d="M544.27,52.1 C589.74,67 652.81,89.3 706,114.14 C775.62,146.64 846.9096,189.9863 891.7896,218.5763 " fill="none" id="AssistantActions-to-Conditions" style="stroke:#181818;stroke-width:0.6;"/><polygon fill="#181818" points="896.85,221.8,891.4085,213.5909,892.633,219.1136,887.1102,220.3381,896.85,221.8" style="stroke:#181818;stroke-width:0.6;"/><text fill="#000000" font-family="sans-serif" font-size="12" lengthAdjust="spacing" textLength="20" x="803.88" y="144.8016">has</text><text fill="#000000" font-family="sans-serif" font-size="12" lengthAdjust="spacing" textLength="8" x="551.8168" y="51.2162">1</text><text fill="#000000" font-family="sans-serif" font-size="12" lengthAdjust="spacing" textLength="22" x="863.2528" y="211.6616">1..*</text></g><!--link Conditions to Metrics--><g id="link_Conditions_Metrics"><path d="M892.76,274.77 C870.45,287 842.43,301.01 816,310.4 C757.07,331.35 691.1032,343.3573 648.8332,349.7173 " fill="none" id="Conditions-to-Metrics" style="stroke:#181818;stroke-width:0.6;"/><polygon fill="#181818" points="642.9,350.61,652.395,353.2264,647.8443,349.8661,651.2047,345.3154,642.9,350.61" style="stroke:#181818;stroke-width:0.6;"/><text fill="#000000" font-family="sans-serif" font-size="12" lengthAdjust="spacing" textLength="33" x="854.51" y="307.0016">reads</text><text fill="#000000" font-family="sans-serif" font-size="12" lengthAdjust="spacing" textLength="8" x="875.0168" y="293.2809">1</text><text fill="#000000" font-family="sans-serif" font-size="12" lengthAdjust="spacing" textLength="22" x="650.3747" y="346.1732">1..*</text></g><!--link Conditions to Plan_and_Tasks--><g id="link_Conditions_Plan_and_Tasks"><path d="M930.37,274.81 C919.31,320.97 891.49,420.2 843,490.67 C828.22,512.15 811.3334,549.1021 793.0134,563.6921 " fill="none" id="Conditions-to-Plan_and_Tasks" style="stroke:#181818;stroke-width:0.6;"/><polygon fill="#181818" points="788.32,567.43,797.8521,564.9522,792.2312,564.3151,792.8683,558.6943,788.32,567.43" style="stroke:#181818;stroke-width:0.6;"/><text fill="#000000" font-family="sans-serif" font-size="12" lengthAdjust="spacing" textLength="33" x="889.75" y="415.1316">reads</text><text fill="#000000" font-family="sans-serif" font-size="12" lengthAdjust="spacing" textLength="8" x="920.1431" y="294.1677">1</text><text fill="#000000" font-family="sans-serif" font-size="12" lengthAdjust="spacing" textLength="22" x="771.944" y="536.3448">1..*</text></g><!--SRC=[bLLRRzem57xFhx3IXssLYg2bZ5KL4glMbmbfMjapEjWdYKLYHxQ1iLy_v-xSw0OImiVVTyvtRea-S962WeJe29WySn6I06ADNiGP4crGeJINj3nZafeBIJ3PezAUhib2CjIOaiUfOrGW3fbnxXhNIidpDkBq851hCfqid4k60HnZyog5UUD_aCpkdSjN6JDKNwMoloyobehSFEIVFWRe8LJoA5Y92_AFWmjotFCpkmX8E5sjo13dCowkSrmjRBxOJvS3U6t0Z8IO1e-3iXgA6s767hxGkUSLAEAljUOMASoQ6Yw5zWbeqZKIL_0DBd5f8rOUNgHWlE4snonzP1GSxBSJ2lCJG-jTGGRAAJrhErumoxwrZ-zuUUFc24t8bgMhDN3ZRz0eJWjM-RyJAyYoQ_3Iy5Fk5-8DqWX4pHww8KxLgtcfNFtIg6nwtEmg-6u3QMft9VStVdtDwOyOn0u4ssr17mfXRLEBZFiilOucso-3lqqjeZpRK2p3Tj3RJAAkmSLnIA7tWIYCovPyF7CJ4GgASLikEnseoJb2GL9bDrwOJrvlukxkLiIVJYOpVwJKJyJ8C8nHUrTAbtaPeoUGlijrSYm9mzvyApDNF9jCxlrM7P-8nXYfGRRRNyRplEso3AWGZUupiXYtJRWUaLgGVSpQHsj_hrnk4RIzEpQiuc7uh-HgXHgQRJg5c1wBpdiLeAcFFx3jLdF9GKO29HElhQfc5r5x5N5KkwLmcr9MgUwbmi2-b0J5gvI1I3O_vASEBH-pkXOHZ3drkzjPW8TAVOMIQtz_4jtsSBrZQ5_32HV57FuFMI6mmJbirSfvxXTPEOOEjEjw73cGUqOOLj_kmXwqdIOf_W80]--></g></svg>