<?xml version="1.0" encoding="us-ascii" standalone="no"?><svg xmlns="http://www.w3.org/2000/svg" xmlns:xlink="http://www.w3.org/1999/xlink" contentStyleType="text/css" height="605px" preserveAspectRatio="none" style="width:1114px;height:605px;background:#FFFFFF;" version="1.1" viewBox="0 0 1114 605" width="1114px" zoomAndPan="magnify"><defs/><g><!--entity AssistantActions--><g id="elem_AssistantActions"><path d="M325.5,6 L366.5,6 A3.75,3.75 0 0 1 369,8.5 L376,27 L442.5,27 A2.5,2.5 0 0 1 445,29.5 L445,55.6328 A2.5,2.5 0 0 1 442.5,58.1328 L325.5,58.1328 A2.5,2.5 0 0 1 323,55.6328 L323,8.5 A2.5,2.5 0 0 1 325.5,6 " fill="#E8E8FF" style="stroke:#333333;stroke-width:0.5;"/><line style="stroke:#333333;stroke-width:0.5;" x1="323" x2="376" y1="27" y2="27"/><text fill="#000000" font-family="sans-serif" font-size="12" lengthAdjust="spacing" textLength="92" x="333" y="45.6016">AssistantActions</text></g><!--entity Conditions--><g id="elem_Conditions"><path d="M288.5,222.27 L329.5,222.27 A3.75,3.75 0 0 1 332,224.77 L339,243.27 L373.5,243.27 A2.5,2.5 0 0 1 376,245.77 L376,271.9028 A2.5,2.5 0 0 1 373.5,274.4028 L288.5,274.4028 A2.5,2.5 0 0 1 286,271.9028 L286,224.77 A2.5,2.5 0 0 1 288.5,222.27 " fill="#FFEDCA" style="stroke:#333333;stroke-width:0.5;"/><line style="stroke:#333333;stroke-width:0.5;" x1="286" x2="339" y1="243.27" y2="243.27"/><text fill="#000000" font-family="sans-serif" font-size="12" lengthAdjust="spacing" textLength="60" x="296" y="261.8716">Conditions</text></g><!--entity EventRegistration--><g id="elem_EventRegistration"><path d="M345,438.53 L386,438.53 A3.75,3.75 0 0 1 388.5,441.03 L395.5,459.53 L469,459.53 A2.5,2.5 0 0 1 471.5,462.03 L471.5,488.1628 A2.5,2.5 0 0 1 469,490.6628 L345,490.6628 A2.5,2.5 0 0 1 342.5,488.1628 L342.5,441.03 A2.5,2.5 0 0 1 345,438.53 " fill="#F1F1F1" style="stroke:#333333;stroke-width:0.5;"/><line style="stroke:#333333;stroke-width:0.5;" x1="342.5" x2="395.5" y1="459.53" y2="459.53"/><text fill="#000000" font-family="sans-serif" font-size="12" lengthAdjust="spacing" textLength="99" x="352.5" y="478.1316">EventRegistration</text></g><!--entity KeySituations--><g id="elem_KeySituations"><path d="M58,546.67 L99,546.67 A3.75,3.75 0 0 1 101.5,549.17 L108.5,567.67 L158,567.67 A2.5,2.5 0 0 1 160.5,570.17 L160.5,596.3028 A2.5,2.5 0 0 1 158,598.8028 L58,598.8028 A2.5,2.5 0 0 1 55.5,596.3028 L55.5,549.17 A2.5,2.5 0 0 1 58,546.67 " fill="#E8FAFF" style="stroke:#333333;stroke-width:0.5;"/><line style="stroke:#333333;stroke-width:0.5;" x1="55.5" x2="108.5" y1="567.67" y2="567.67"/><text fill="#000000" font-family="sans-serif" font-size="12" lengthAdjust="spacing" textLength="75" x="65.5" y="586.2716">KeySituations</text></g><!--entity Metrics--><g id="elem_Metrics"><path d="M443,330.4 L484,330.4 A3.75,3.75 0 0 1 486.5,332.9 L493.5,351.4 L509,351.4 A2.5,2.5 0 0 1 511.5,353.9 L511.5,380.0328 A2.5,2.5 0 0 1 509,382.5328 L443,382.5328 A2.5,2.5 0 0 1 440.5,380.0328 L440.5,332.9 A2.5,2.5 0 0 1 443,330.4 " fill="#FFE8E8" style="stroke:#333333;stroke-width:0.5;"/><line style="stroke:#333333;stroke-width:0.5;" x1="440.5" x2="493.5" y1="351.4" y2="351.4"/><text fill="#000000" font-family="sans-serif" font-size="12" lengthAdjust="spacing" textLength="41" x="450.5" y="370.0016">Metrics</text></g><!--entity MotivationalMechanics--><g id="elem_MotivationalMechanics"><path d="M424,114.14 L465,114.14 A3.75,3.75 0 0 1 467.5,116.64 L474.5,135.14 L576,135.14 A2.5,2.5 0 0 1 578.5,137.64 L578.5,163.7728 A2.5,2.5 0 0 1 576,166.2728 L424,166.2728 A2.5,2.5 0 0 1 421.5,163.7728 L421.5,116.64 A2.5,2.5 0 0 1 424,114.14 " fill="#FFF6E8" style="stroke:#333333;stroke-width:0.5;"/><line style="stroke:#333333;stroke-width:0.5;" x1="421.5" x2="474.5" y1="135.14" y2="135.14"/><text fill="#000000" font-family="sans-serif" font-size="12" lengthAdjust="spacing" textLength="127" x="431.5" y="153.7416">MotivationalMechanics</text></g><!--entity Usertrait_Mechanic_Mapping--><g id="elem_Usertrait_Mechanic_Mapping"><path d="M915.5,6 L956.5,6 A3.75,3.75 0 0 1 959,8.5 L966,27 L1104.5,27 A2.5,2.5 0 0 1 1107,29.5 L1107,55.6328 A2.5,2.5 0 0 1 1104.5,58.1328 L915.5,58.1328 A2.5,2.5 0 0 1 913,55.6328 L913,8.5 A2.5,2.5 0 0 1 915.5,6 " fill="#FFFFFF" style="stroke:#333333;stroke-width:0.5;"/><line style="stroke:#333333;stroke-width:0.5;" x1="913" x2="966" y1="27" y2="27"/><text fill="#000000" font-family="sans-serif" font-size="12" lengthAdjust="spacing" textLength="164" x="923" y="45.6016">Usertrait_Mechanic_Mapping</text></g><!--entity Plan_and_Tasks--><g id="elem_Plan_and_Tasks"><path d="M348.5,546.67 L389.5,546.67 A3.75,3.75 0 0 1 392,549.17 L399,567.67 L465.5,567.67 A2.5,2.5 0 0 1 468,570.17 L468,596.3028 A2.5,2.5 0 0 1 465.5,598.8028 L348.5,598.8028 A2.5,2.5 0 0 1 346,596.3028 L346,549.17 A2.5,2.5 0 0 1 348.5,546.67 " fill="#EBFFE8" style="stroke:#333333;stroke-width:0.5;"/><line style="stroke:#333333;stroke-width:0.5;" x1="346" x2="399" y1="567.67" y2="567.67"/><text fill="#000000" font-family="sans-serif" font-size="12" lengthAdjust="spacing" textLength="92" x="356" y="586.2716">Plan_and_Tasks</text></g><!--entity UserModel--><g id="elem_UserModel"><path d="M796,222.27 L837,222.27 A3.75,3.75 0 0 1 839.5,224.77 L846.5,243.27 L882,243.27 A2.5,2.5 0 0 1 884.5,245.77 L884.5,271.9028 A2.5,2.5 0 0 1 882,274.4028 L796,274.4028 A2.5,2.5 0 0 1 793.5,271.9028 L793.5,224.77 A2.5,2.5 0 0 1 796,222.27 " fill="#FDE8FF" style="stroke:#333333;stroke-width:0.5;"/><line style="stroke:#333333;stroke-width:0.5;" x1="793.5" x2="846.5" y1="243.27" y2="243.27"/><text fill="#000000" font-family="sans-serif" font-size="12" lengthAdjust="spacing" textLength="61" x="803.5" y="261.8716">UserModel</text></g><!--entity UserTraits--><g id="elem_UserTraits"><path d="M999,330.4 L1040,330.4 A3.75,3.75 0 0 1 1042.5,332.9 L1049.5,351.4 L1083,351.4 A2.5,2.5 0 0 1 1085.5,353.9 L1085.5,380.0328 A2.5,2.5 0 0 1 1083,382.5328 L999,382.5328 A2.5,2.5 0 0 1 996.5,380.0328 L996.5,332.9 A2.5,2.5 0 0 1 999,330.4 " fill="#FCFFE8" style="stroke:#333333;stroke-width:0.5;"/><line style="stroke:#333333;stroke-width:0.5;" x1="996.5" x2="1049.5" y1="351.4" y2="351.4"/><text fill="#000000" font-family="sans-serif" font-size="12" lengthAdjust="spacing" textLength="59" x="1006.5" y="370.0016">UserTraits</text></g><!--link Usertrait_Mechanic_Mapping to MotivationalMechanics--><g id="link_Usertrait_Mechanic_Mapping_MotivationalMechanics"><path d="M912.65,52.94 C833.09,69.22 717.73,92.96 617,114.14 C604.7,116.72 597.5481,139.2388 584.8381,141.9488 " fill="none" id="Usertrait_Mechanic_Mapping-to-MotivationalMechanics" style="stroke:#181818;stroke-width:0.6;"/><polygon fill="#181818" points="578.97,143.2,588.6063,145.2353,583.8601,142.1573,586.938,137.4112,578.97,143.2" style="stroke:#181818;stroke-width:0.6;"/><text fill="#000000" font-family="sans-serif" font-size="12" lengthAdjust="spacing" textLength="32" x="790.45" y="90.7416">maps</text></g><!--link Usertrait_Mechanic_Mapping to UserTraits--><g id="link_Usertrait_Mechanic_Mapping_UserTraits"><path d="M1012.43,58.37 C1018.23,118.64 1032.2261,264.1675 1038.0061,324.3175 " fill="none" id="Usertrait_Mechanic_Mapping-to-UserTraits" style="stroke:#181818;stroke-width:0.6;"/><polygon fill="#181818" points="1038.58,330.29,1041.7008,320.9487,1038.1017,325.3129,1033.7375,321.7139,1038.58,330.29" style="stroke:#181818;stroke-width:0.6;"/><text fill="#000000" font-family="sans-serif" font-size="12" lengthAdjust="spacing" textLength="32" x="1027.22" y="198.8716">maps</text></g><!--link MotivationalMechanics to UserModel--><g id="link_MotivationalMechanics_UserModel"><path d="M551.91,166.75 C578.6,179 611.96,193 643,202.27 C691.45,216.74 705.81,210.58 755,222.27 C767.44,225.22 775.01,227.2262 787.29,230.8862 " fill="none" id="MotivationalMechanics-to-UserModel" style="stroke:#181818;stroke-width:0.6;"/><polygon fill="#181818" points="793.04,232.6,785.5575,226.196,788.2483,231.1719,783.2724,233.8627,793.04,232.6" style="stroke:#181818;stroke-width:0.6;"/><text fill="#000000" font-family="sans-serif" font-size="12" lengthAdjust="spacing" textLength="68" x="644" y="198.8716">selected_by</text><text fill="#000000" font-family="sans-serif" font-size="12" lengthAdjust="spacing" textLength="8" x="585.8313" y="181.5103">1</text><text fill="#000000" font-family="sans-serif" font-size="12" lengthAdjust="spacing" textLength="24" x="761.6139" y="227.297">1..2</text></g><!--link AssistantActions to MotivationalMechanics--><g id="link_AssistantActions_MotivationalMechanics"><path d="M411.78,58.49 C430.15,75.29 449.6931,95.4496 468.0131,112.2096 " fill="none" id="AssistantActions-to-MotivationalMechanics" style="stroke:#181818;stroke-width:0.6;"/><polygon fill="#181818" points="472.44,116.2596,468.4996,107.2334,468.7509,112.8846,463.0996,113.1359,472.44,116.2596" style="stroke:#181818;stroke-width:0.6;"/><text fill="#000000" font-family="sans-serif" font-size="12" lengthAdjust="spacing" textLength="41" x="449.95" y="90.7416">toggles</text><text fill="#000000" font-family="sans-serif" font-size="12" lengthAdjust="spacing" textLength="24" x="438.7973" y="103.5112">0..1</text></g><!--link AssistantActions to UserModel--><g id="link_AssistantActions_UserModel"><path d="M445.13,35.97 C551.02,41.52 764.06,55.19 835,78.14 C865.32,87.94 881.1,86.52 897,114.14 C908.56,134.22 903.5,144.03 897,166.27 C890.88,187.2 880.651,223.6099 867.861,238.4899 " fill="none" id="AssistantActions-to-UserModel" style="stroke:#181818;stroke-width:0.6;"/><polygon fill="#181818" points="863.95,243.04,872.85,238.8222,867.2092,239.2482,866.7831,233.6074,863.95,243.04" style="stroke:#181818;stroke-width:0.6;"/><text fill="#000000" font-family="sans-serif" font-size="12" lengthAdjust="spacing" textLength="40" x="904.9" y="144.8016">targets</text><text fill="#000000" font-family="sans-serif" font-size="12" lengthAdjust="spacing" textLength="22" x="845.3503" y="211.5417">0..*</text></g><!--link AssistantActions to UserModel--><g id="link_AssistantActions_UserModel"><path d="M445.31,52.67 C490.05,67.69 551.75,89.9 604,114.14 C674.83,146.99 747.8293,190.3004 793.7893,218.7704 " fill="none" id="AssistantActions-to-UserModel-1" style="stroke:#181818;stroke-width:0.6;"/><polygon fill="#181818" points="798.89,221.93,793.3454,213.7901,794.6394,219.297,789.1326,220.591,798.89,221.93" style="stroke:#181818;stroke-width:0.6;"/><text fill="#000000" font-family="sans-serif" font-size="12" lengthAdjust="spacing" textLength="55" x="703.79" y="144.8016">considers</text><text fill="#000000" font-family="sans-serif" font-size="12" lengthAdjust="spacing" textLength="22" x="452.8671" y="58.3027">1..*</text><text fill="#000000" font-family="sans-serif" font-size="12" lengthAdjust="spacing" textLength="22" x="765.0708" y="211.8217">1..*</text></g><!--link UserModel to AssistantActions--><g id="link_UserModel_AssistantActions"><path d="M833.35,221.96 C825.2,191.48 807.09,141.11 772,114.14 C721.53,75.34 547.3417,50.9572 451.2917,40.0472 " fill="none" id="UserModel-to-AssistantActions" style="stroke:#181818;stroke-width:0.6;"/><polygon fill="#181818" points="445.33,39.37,453.8211,44.3602,450.2981,39.9343,454.7239,36.4113,445.33,39.37" style="stroke:#181818;stroke-width:0.6;"/><text fill="#000000" font-family="sans-serif" font-size="12" lengthAdjust="spacing" textLength="47" x="812.72" y="144.8016">receives</text><text fill="#000000" font-family="sans-serif" font-size="12" lengthAdjust="spacing" textLength="8" x="823.1184" y="211.8586">1</text><text fill="#000000" font-family="sans-serif" font-size="12" lengthAdjust="spacing" textLength="22" x="452.8989" y="37.1889">1..*</text></g><!--link AssistantActions to Metrics--><g id="link_AssistantActions_Metrics"><path d="M353.15,58.63 C302.06,104.09 210.31,201.11 261,274.4 C301.62,333.13 384.5739,348.825 434.3939,353.285 " fill="none" id="AssistantActions-to-Metrics" style="stroke:#181818;stroke-width:0.6;"/><polygon fill="#181818" points="440.37,353.82,431.7625,349.0334,435.3899,353.3742,431.0492,357.0016,440.37,353.82" style="stroke:#181818;stroke-width:0.6;"/><text fill="#000000" font-family="sans-serif" font-size="12" lengthAdjust="spacing" textLength="55" x="254.41" y="198.8716">considers</text><text fill="#000000" font-family="sans-serif" font-size="12" lengthAdjust="spacing" textLength="22" x="292.4387" y="74.3893">1..*</text><text fill="#000000" font-family="sans-serif" font-size="12" lengthAdjust="spacing" textLength="22" x="410.3555" y="349.775">1..*</text></g><!--link EventRegistration to KeySituations--><g id="link_EventRegistration_KeySituations"><path d="M342.12,488.63 C287.85,507.9 217.0446,554.0337 166.4546,571.9837 " fill="none" id="EventRegistration-to-KeySituations" style="stroke:#181818;stroke-width:0.6;"/><polygon fill="#181818" points="160.8,573.99,170.6195,574.7502,165.5122,572.3181,167.9444,567.2108,160.8,573.99" style="stroke:#181818;stroke-width:0.6;"/><text fill="#000000" font-family="sans-serif" font-size="12" lengthAdjust="spacing" textLength="44" x="276.4" y="523.2716">triggers</text><text fill="#000000" font-family="sans-serif" font-size="12" lengthAdjust="spacing" textLength="22" x="312.2949" y="487.995">1..*</text><text fill="#000000" font-family="sans-serif" font-size="12" lengthAdjust="spacing" textLength="22" x="161.2675" y="536.2511">0..*</text></g><!--link EventRegistration to Metrics--><g id="link_EventRegistration_Metrics"><path d="M383.91,438.13 C376.54,426.84 371.91,413.64 379,402.53 C392.38,381.56 412.5511,371.8038 434.2511,365.7438 " fill="none" id="EventRegistration-to-Metrics" style="stroke:#181818;stroke-width:0.6;"/><polygon fill="#181818" points="440.03,364.13,430.2858,362.6981,435.2143,365.4749,432.4376,370.4033,440.03,364.13" style="stroke:#181818;stroke-width:0.6;"/><text fill="#000000" font-family="sans-serif" font-size="12" lengthAdjust="spacing" textLength="54" x="380" y="415.1316">produces</text><text fill="#000000" font-family="sans-serif" font-size="12" lengthAdjust="spacing" textLength="22" x="354.0267" y="428.0078">1..*</text><text fill="#000000" font-family="sans-serif" font-size="12" lengthAdjust="spacing" textLength="22" x="410.5442" y="361.8479">0..*</text></g><!--link Metrics to EventRegistration--><g id="link_Metrics_EventRegistration"><path d="M463.49,383.01 C457.7,394.18 450.45,407.28 443,418.53 C438.58,425.21 437.1246,448.416 432.1046,454.756 " fill="none" id="Metrics-to-EventRegistration" style="stroke:#181818;stroke-width:0.6;"/><polygon fill="#181818" points="428.38,459.46,437.1029,454.8871,431.4838,455.54,430.8309,449.921,428.38,459.46" style="stroke:#181818;stroke-width:0.6;"/><text fill="#000000" font-family="sans-serif" font-size="12" lengthAdjust="spacing" textLength="33" x="453.01" y="415.1316">reads</text><text fill="#000000" font-family="sans-serif" font-size="12" lengthAdjust="spacing" textLength="8" x="437.7418" y="401.6923">1</text><text fill="#000000" font-family="sans-serif" font-size="12" lengthAdjust="spacing" textLength="8" x="424.6164" y="428.0007">1</text></g><!--link KeySituations to AssistantActions--><g id="link_KeySituations_AssistantActions"><path d="M61.48,546.34 C34.58,527.93 6,500.23 6,465.6 C6,139.2 6,139.2 6,139.2 C6,99.89 34.64,95.32 70,78.14 C113.34,57.08 238.1794,44.2319 316.6194,37.9119 " fill="none" id="KeySituations-to-AssistantActions" style="stroke:#181818;stroke-width:0.6;"/><polygon fill="#181818" points="322.6,37.43,313.3078,34.1657,317.6162,37.8316,313.9503,42.1399,322.6,37.43" style="stroke:#181818;stroke-width:0.6;"/><text fill="#000000" font-family="sans-serif" font-size="12" lengthAdjust="spacing" textLength="44" x="7" y="307.0016">triggers</text><text fill="#000000" font-family="sans-serif" font-size="12" lengthAdjust="spacing" textLength="8" x="41.7973" y="536.234">1</text><text fill="#000000" font-family="sans-serif" font-size="12" lengthAdjust="spacing" textLength="22" x="293.1338" y="34.8697">0..*</text></g><!--link AssistantActions to KeySituations--><g id="link_AssistantActions_KeySituations"><path d="M322.75,43.9 C241.43,60.05 108,93.51 108,139.2 C108,139.2 108,139.2 108,465.6 C108,493.24 108,530.18 108,551.68 " fill="none" id="AssistantActions-to-KeySituations" style="stroke:#181818;stroke-width:0.6;"/><polygon fill="#181818" points="108,557.68,112,548.68,108,552.68,104,548.68,108,557.68" style="stroke:#181818;stroke-width:0.6;"/><text fill="#000000" font-family="sans-serif" font-size="12" lengthAdjust="spacing" textLength="54" x="109" y="307.0016">evaluates</text><text fill="#000000" font-family="sans-serif" font-size="12" lengthAdjust="spacing" textLength="8" x="306.7977" y="57.805">1</text><text fill="#000000" font-family="sans-serif" font-size="12" lengthAdjust="spacing" textLength="8" x="99.075" y="536.3448">1</text></g><!--link UserModel to UserTraits--><g id="link_UserModel_UserTraits"><path d="M884.84,273.42 C918.13,290.91 957.6388,311.6688 990.7288,329.0588 " fill="none" id="UserModel-to-UserTraits" style="stroke:#181818;stroke-width:0.6;"/><polygon fill="#181818" points="996.04,331.85,989.934,324.1223,991.614,329.524,986.2124,331.204,996.04,331.85" style="stroke:#181818;stroke-width:0.6;"/><text fill="#000000" font-family="sans-serif" font-size="12" lengthAdjust="spacing" textLength="61" x="953.09" y="307.0016">references</text><text fill="#000000" font-family="sans-serif" font-size="12" lengthAdjust="spacing" textLength="8" x="892.2685" y="277.7144">1</text><text fill="#000000" font-family="sans-serif" font-size="12" lengthAdjust="spacing" textLength="22" x="966.5204" y="325.212">1..*</text></g><!--link UserModel to Metrics--><g id="link_UserModel_Metrics"><path d="M793.15,268.58 C761.03,281.58 716.88,298.48 677,310.4 C620.12,327.41 558.3853,361.1941 517.8653,368.8641 " fill="none" id="UserModel-to-Metrics" style="stroke:#181818;stroke-width:0.6;"/><polygon fill="#181818" points="511.97,369.98,521.5569,372.2363,516.8828,369.0501,520.069,364.3759,511.97,369.98" style="stroke:#181818;stroke-width:0.6;"/><text fill="#000000" font-family="sans-serif" font-size="12" lengthAdjust="spacing" textLength="20" x="723.16" y="307.0016">has</text></g><!--link UserModel to Plan_and_Tasks--><g id="link_UserModel_Plan_and_Tasks"><path d="M805.1,274.63 C724.45,334.83 526.6486,503.4414 445.8486,563.7414 " fill="none" id="UserModel-to-Plan_and_Tasks" style="stroke:#181818;stroke-width:0.6;"/><polygon fill="#181818" points="441.04,567.33,450.6452,565.1529,445.0471,564.3395,445.8605,558.7415,441.04,567.33" style="stroke:#181818;stroke-width:0.6;"/><text fill="#000000" font-family="sans-serif" font-size="12" lengthAdjust="spacing" textLength="20" x="633.97" y="415.1316">has</text><text fill="#000000" font-family="sans-serif" font-size="12" lengthAdjust="spacing" textLength="8" x="777.6763" y="282.1536">1</text><text fill="#000000" font-family="sans-serif" font-size="12" lengthAdjust="spacing" textLength="8" x="439.9868" y="536.2217">1</text></g><!--link EventRegistration to Plan_and_Tasks--><g id="link_EventRegistration_Plan_and_Tasks"><path d="M407,491.02 C407,507.83 407,544.76 407,561.52 " fill="none" id="EventRegistration-to-Plan_and_Tasks" style="stroke:#181818;stroke-width:0.6;"/><polygon fill="#181818" points="407,567.52,411,558.52,407,562.52,403,558.52,407,567.52" style="stroke:#181818;stroke-width:0.6;"/><text fill="#000000" font-family="sans-serif" font-size="12" lengthAdjust="spacing" textLength="34" x="408" y="523.2716">refers</text><text fill="#000000" font-family="sans-serif" font-size="12" lengthAdjust="spacing" textLength="8" x="394.5" y="510.5478">1</text><text fill="#000000" font-family="sans-serif" font-size="12" lengthAdjust="spacing" textLength="8" x="398.025" y="536.0413">1</text></g><!--link MotivationalMechanics to Metrics--><g id="link_MotivationalMechanics_Metrics"><path d="M521.13,166.29 C541.02,193.09 565.72,236.82 551,274.4 C542.47,296.18 529.4925,332.5882 513.5725,346.9682 " fill="none" id="MotivationalMechanics-to-Metrics" style="stroke:#181818;stroke-width:0.6;"/><polygon fill="#181818" points="509.12,350.99,518.48,347.9256,512.8304,347.6385,513.1176,341.9889,509.12,350.99" style="stroke:#181818;stroke-width:0.6;"/><text fill="#000000" font-family="sans-serif" font-size="12" lengthAdjust="spacing" textLength="102" x="556.47" y="252.9416">is_determined_by</text><text fill="#000000" font-family="sans-serif" font-size="12" lengthAdjust="spacing" textLength="8" x="532.4013" y="185.4353">1</text><text fill="#000000" font-family="sans-serif" font-size="12" lengthAdjust="spacing" textLength="8" x="507.854" y="319.8655">1</text></g><!--link MotivationalMechanics to Metrics--><g id="link_MotivationalMechanics_Metrics"><path d="M490.39,166.7 C484.98,182.46 478.76,203.24 476,222.27 C470.59,259.57 471.6716,297.3832 473.4616,324.2832 " fill="none" id="MotivationalMechanics-to-Metrics-1" style="stroke:#181818;stroke-width:0.6;"/><polygon fill="#181818" points="473.86,330.27,477.2536,321.0243,473.528,325.281,469.2713,321.5554,473.86,330.27" style="stroke:#181818;stroke-width:0.6;"/><text fill="#000000" font-family="sans-serif" font-size="12" lengthAdjust="spacing" textLength="61" x="477" y="252.9416">references</text><text fill="#000000" font-family="sans-serif" font-size="12" lengthAdjust="spacing" textLength="8" x="467.0787" y="186.3066">1</text><text fill="#000000" font-family="sans-serif" font-size="12" lengthAdjust="spacing" textLength="8" x="464.3634" y="319.7961">1</text></g><!--link AssistantActions to Conditions--><g id="link_AssistantActions_Conditions"><path d="M377.71,58.49 C367.51,99.73 348.9099,186.4852 338.7199,227.7052 " fill="none" id="AssistantActions-to-Conditions" style="stroke:#181818;stroke-width:0.6;"/><polygon fill="#181818" points="337.28,233.5299,343.323,225.7528,338.4799,228.676,335.5568,223.8329,337.28,233.5299" style="stroke:#181818;stroke-width:0.6;"/><text fill="#000000" font-family="sans-serif" font-size="12" lengthAdjust="spacing" textLength="26" x="364.63" y="144.8016">uses</text><text fill="#000000" font-family="sans-serif" font-size="12" lengthAdjust="spacing" textLength="8" x="358.1337" y="78.0178">1</text><text fill="#000000" font-family="sans-serif" font-size="12" lengthAdjust="spacing" textLength="22" x="314.1885" y="211.8463">1..*</text></g><!--link Conditions to Metrics--><g id="link_Conditions_Metrics"><path d="M358.93,274.72 C371.95,286.11 387.88,299.42 403,310.4 C414.69,318.89 422.8743,324.3011 434.9043,331.6211 " fill="none" id="Conditions-to-Metrics" style="stroke:#181818;stroke-width:0.6;"/><polygon fill="#181818" points="440.03,334.74,434.4207,326.6446,435.7586,332.1409,430.2622,333.4788,440.03,334.74" style="stroke:#181818;stroke-width:0.6;"/><text fill="#000000" font-family="sans-serif" font-size="12" lengthAdjust="spacing" textLength="33" x="404" y="307.0016">reads</text><text fill="#000000" font-family="sans-serif" font-size="12" lengthAdjust="spacing" textLength="8" x="377.8513" y="294.2028">1</text><text fill="#000000" font-family="sans-serif" font-size="12" lengthAdjust="spacing" textLength="22" x="410.5442" y="327.7739">1..*</text></g><!--link Conditions to Plan_and_Tasks--><g id="link_Conditions_Plan_and_Tasks"><path d="M322.22,274.66 C307.99,320.17 284.57,417.82 317,490.67 C327.09,513.34 342.1991,528.7312 360.7291,542.6212 " fill="none" id="Conditions-to-Plan_and_Tasks" style="stroke:#181818;stroke-width:0.6;"/><polygon fill="#181818" points="365.53,546.22,360.7278,537.6212,361.5292,543.221,355.9294,544.0225,365.53,546.22" style="stroke:#181818;stroke-width:0.6;"/><text fill="#000000" font-family="sans-serif" font-size="12" lengthAdjust="spacing" textLength="33" x="301.99" y="415.1316">reads</text><text fill="#000000" font-family="sans-serif" font-size="12" lengthAdjust="spacing" textLength="8" x="299.8425" y="294.0753">1</text><text fill="#000000" font-family="sans-serif" font-size="12" lengthAdjust="spacing" textLength="22" x="331.3963" y="536.0863">1..*</text></g><!--SRC=[bPLTRzem58Rlyokiz69RfIBe1-jGXSIgzMP2cjRk6XtiayGYiIFRWDYldsr2udn0Ev1GRB_FEUyvjedUS562WeBe39ZSSv6I17ADKSOP4crGeJI7iXfZKPe3AR1OezAHhc4X6MeioSCuc5GWDcxoFfnSA2NtRncd6u5Qa_5e6YmoJ62RcnSfp2l_YsHo6oo-o9oX-YwL_NsMkLJawiv_-XgWcrJ9hM2LBl6VG9TutTCJEmWeE9tFoH3p5QUNcT0Bkv-knuy3Uct0d4anJXu6RJL8c672xhxH-oWwgaYyq9fRfJ0BQhWKEYQWINUIX8Qly14VRSPJX6Sf66_OPkZAHqOXqFxOeJ2_CRNH5JYHHtgpxNp9n7th63_nyChD5fgKhPckroJClqIZE3rIrNCdL-AgQ_JIy9sF2_aIQGQYfeTMID1rj_VJ8DGVZSgMnytg95yjeIpjNV7npYztWoP1FRzo42iGRFK6UdCqrfvgmRXsvGMuIxgqjowlBVXHfoNCCHtgpLdLDNOSjftIAbdqYIZCgytvlESc8nGKuxPnzfoW9liC1IcLlVl2V8akDEBcPdwcxpDIGAdVOmEd5J0SBPx4NXzFHgFREEZBZ6ZCaHfag_KXwjqIpun78ukVisbackQepxFNxNm6L8fcGE-yNJSsxUFfFCy8jGBxHwi-X8NP6h1_9KFowBDzxQnNnTFqet3ZjbIIRQdjIJjUlGb7VQ-I85zJGhXpLMtrXYjCx7j8k4ndWO4i2YdoNGlovx3s7sUWuy6GSVSodiH33Re4UUkMEoKDrVrO7W3czEySxt0ROgvN3Eshkk32d-__n9lsnaF7hjNcu1qn8rkD-XBHFsYuWzoEB1O4wgHedFbUN53ssks1Vm00]--></g></svg>