<?xml version="1.0" encoding="us-ascii" standalone="no"?><svg xmlns="http://www.w3.org/2000/svg" xmlns:xlink="http://www.w3.org/1999/xlink" contentStyleType="text/css" height="587px" preserveAspectRatio="none" style="width:1061px;height:587px;background:#FFFFFF;" version="1.1" viewBox="0 0 1061 587" width="1061px" zoomAndPan="magnify"><defs/><g><!--cluster static_modules--><g id="cluster_static_modules"><path d="M422.72,251.26 L517.72,251.26 A3.75,3.75 0 0 1 520.22,253.76 L527.22,271.3928 L815.72,271.3928 A2.5,2.5 0 0 1 818.22,273.8928 L818.22,458.03 A2.5,2.5 0 0 1 815.72,460.53 L422.72,460.53 A2.5,2.5 0 0 1 420.22,458.03 L420.22,253.76 A2.5,2.5 0 0 1 422.72,251.26 " fill="none" style="stroke:#000000;stroke-width:1.5;"/><line style="stroke:#000000;stroke-width:1.5;" x1="420.22" x2="527.22" y1="271.3928" y2="271.3928"/><text fill="#000000" font-family="sans-serif" font-size="12" font-weight="bold" lengthAdjust="spacing" textLength="94" x="424.22" y="264.8616">static_modules</text></g><!--cluster dynamic_modules--><g id="cluster_dynamic_modules"><path d="M44.72,6 L157.72,6 A3.75,3.75 0 0 1 160.22,8.5 L167.22,26.1328 L393.72,26.1328 A2.5,2.5 0 0 1 396.22,28.6328 L396.22,578.16 A2.5,2.5 0 0 1 393.72,580.66 L44.72,580.66 A2.5,2.5 0 0 1 42.22,578.16 L42.22,8.5 A2.5,2.5 0 0 1 44.72,6 " fill="none" style="stroke:#000000;stroke-width:1.5;"/><line style="stroke:#000000;stroke-width:1.5;" x1="42.22" x2="167.22" y1="26.1328" y2="26.1328"/><text fill="#000000" font-family="sans-serif" font-size="12" font-weight="bold" lengthAdjust="spacing" textLength="112" x="46.22" y="19.6016">dynamic_modules</text></g><!--entity MotivationalMechanics--><g id="elem_MotivationalMechanics"><path d="M647.22,392.39 L688.22,392.39 A3.75,3.75 0 0 1 690.72,394.89 L697.72,413.39 L799.22,413.39 A2.5,2.5 0 0 1 801.72,415.89 L801.72,442.0228 A2.5,2.5 0 0 1 799.22,444.5228 L647.22,444.5228 A2.5,2.5 0 0 1 644.72,442.0228 L644.72,394.89 A2.5,2.5 0 0 1 647.22,392.39 " fill="#FFF6E8" style="stroke:#333333;stroke-width:0.5;"/><line style="stroke:#333333;stroke-width:0.5;" x1="644.72" x2="697.72" y1="413.39" y2="413.39"/><text fill="#000000" font-family="sans-serif" font-size="12" lengthAdjust="spacing" textLength="127" x="654.72" y="431.9916">MotivationalMechanics</text></g><!--entity Usertrait_Mechanic_Mapping--><g id="elem_Usertrait_Mechanic_Mapping"><path d="M610.72,284.26 L651.72,284.26 A3.75,3.75 0 0 1 654.22,286.76 L661.22,305.26 L799.72,305.26 A2.5,2.5 0 0 1 802.22,307.76 L802.22,333.8928 A2.5,2.5 0 0 1 799.72,336.3928 L610.72,336.3928 A2.5,2.5 0 0 1 608.22,333.8928 L608.22,286.76 A2.5,2.5 0 0 1 610.72,284.26 " fill="#FFFFFF" style="stroke:#333333;stroke-width:0.5;"/><line style="stroke:#333333;stroke-width:0.5;" x1="608.22" x2="661.22" y1="305.26" y2="305.26"/><text fill="#000000" font-family="sans-serif" font-size="12" lengthAdjust="spacing" textLength="164" x="618.22" y="323.8616">Usertrait_Mechanic_Mapping</text></g><!--entity Plan_and_Tasks--><g id="elem_Plan_and_Tasks"><path d="M438.72,284.26 L479.72,284.26 A3.75,3.75 0 0 1 482.22,286.76 L489.22,305.26 L555.72,305.26 A2.5,2.5 0 0 1 558.22,307.76 L558.22,333.8928 A2.5,2.5 0 0 1 555.72,336.3928 L438.72,336.3928 A2.5,2.5 0 0 1 436.22,333.8928 L436.22,286.76 A2.5,2.5 0 0 1 438.72,284.26 " fill="#EBFFE8" style="stroke:#333333;stroke-width:0.5;"/><line style="stroke:#333333;stroke-width:0.5;" x1="436.22" x2="489.22" y1="305.26" y2="305.26"/><text fill="#000000" font-family="sans-serif" font-size="12" lengthAdjust="spacing" textLength="92" x="446.22" y="323.8616">Plan_and_Tasks</text></g><!--entity UserTraits--><g id="elem_UserTraits"><path d="M508.22,392.39 L549.22,392.39 A3.75,3.75 0 0 1 551.72,394.89 L558.72,413.39 L592.22,413.39 A2.5,2.5 0 0 1 594.72,415.89 L594.72,442.0228 A2.5,2.5 0 0 1 592.22,444.5228 L508.22,444.5228 A2.5,2.5 0 0 1 505.72,442.0228 L505.72,394.89 A2.5,2.5 0 0 1 508.22,392.39 " fill="#FCFFE8" style="stroke:#333333;stroke-width:0.5;"/><line style="stroke:#333333;stroke-width:0.5;" x1="505.72" x2="558.72" y1="413.39" y2="413.39"/><text fill="#000000" font-family="sans-serif" font-size="12" lengthAdjust="spacing" textLength="59" x="515.72" y="431.9916">UserTraits</text></g><!--entity AssistantActions--><g id="elem_AssistantActions"><path d="M111.72,39 L152.72,39 A3.75,3.75 0 0 1 155.22,41.5 L162.22,60 L228.72,60 A2.5,2.5 0 0 1 231.22,62.5 L231.22,88.6328 A2.5,2.5 0 0 1 228.72,91.1328 L111.72,91.1328 A2.5,2.5 0 0 1 109.22,88.6328 L109.22,41.5 A2.5,2.5 0 0 1 111.72,39 " fill="#E8E8FF" style="stroke:#333333;stroke-width:0.5;"/><line style="stroke:#333333;stroke-width:0.5;" x1="109.22" x2="162.22" y1="60" y2="60"/><text fill="#000000" font-family="sans-serif" font-size="12" lengthAdjust="spacing" textLength="92" x="119.22" y="78.6016">AssistantActions</text></g><!--entity EventRegistration--><g id="elem_EventRegistration"><path d="M202.22,392.39 L243.22,392.39 A3.75,3.75 0 0 1 245.72,394.89 L252.72,413.39 L326.22,413.39 A2.5,2.5 0 0 1 328.72,415.89 L328.72,442.0228 A2.5,2.5 0 0 1 326.22,444.5228 L202.22,444.5228 A2.5,2.5 0 0 1 199.72,442.0228 L199.72,394.89 A2.5,2.5 0 0 1 202.22,392.39 " fill="#F1F1F1" style="stroke:#333333;stroke-width:0.5;"/><line style="stroke:#333333;stroke-width:0.5;" x1="199.72" x2="252.72" y1="413.39" y2="413.39"/><text fill="#000000" font-family="sans-serif" font-size="12" lengthAdjust="spacing" textLength="99" x="209.72" y="431.9916">EventRegistration</text></g><!--entity KeySituations--><g id="elem_KeySituations"><path d="M112.22,512.53 L153.22,512.53 A3.75,3.75 0 0 1 155.72,515.03 L162.72,533.53 L212.22,533.53 A2.5,2.5 0 0 1 214.72,536.03 L214.72,562.1628 A2.5,2.5 0 0 1 212.22,564.6628 L112.22,564.6628 A2.5,2.5 0 0 1 109.72,562.1628 L109.72,515.03 A2.5,2.5 0 0 1 112.22,512.53 " fill="#E8FAFF" style="stroke:#333333;stroke-width:0.5;"/><line style="stroke:#333333;stroke-width:0.5;" x1="109.72" x2="162.72" y1="533.53" y2="533.53"/><text fill="#000000" font-family="sans-serif" font-size="12" lengthAdjust="spacing" textLength="75" x="119.72" y="552.1316">KeySituations</text></g><!--entity Metrics--><g id="elem_Metrics"><path d="M208.22,284.26 L249.22,284.26 A3.75,3.75 0 0 1 251.72,286.76 L258.72,305.26 L274.22,305.26 A2.5,2.5 0 0 1 276.72,307.76 L276.72,333.8928 A2.5,2.5 0 0 1 274.22,336.3928 L208.22,336.3928 A2.5,2.5 0 0 1 205.72,333.8928 L205.72,286.76 A2.5,2.5 0 0 1 208.22,284.26 " fill="#FFE8E8" style="stroke:#333333;stroke-width:0.5;"/><line style="stroke:#333333;stroke-width:0.5;" x1="205.72" x2="258.72" y1="305.26" y2="305.26"/><text fill="#000000" font-family="sans-serif" font-size="12" lengthAdjust="spacing" textLength="41" x="215.72" y="323.8616">Metrics</text></g><!--entity UserModel--><g id="elem_UserModel"><path d="M288.22,147.13 L329.22,147.13 A3.75,3.75 0 0 1 331.72,149.63 L338.72,168.13 L374.22,168.13 A2.5,2.5 0 0 1 376.72,170.63 L376.72,196.7628 A2.5,2.5 0 0 1 374.22,199.2628 L288.22,199.2628 A2.5,2.5 0 0 1 285.72,196.7628 L285.72,149.63 A2.5,2.5 0 0 1 288.22,147.13 " fill="#FDE8FF" style="stroke:#333333;stroke-width:0.5;"/><line style="stroke:#333333;stroke-width:0.5;" x1="285.72" x2="338.72" y1="168.13" y2="168.13"/><text fill="#000000" font-family="sans-serif" font-size="12" lengthAdjust="spacing" textLength="61" x="295.72" y="186.7316">UserModel</text></g><!--link AssistantActions to MotivationalMechanics--><g id="link_AssistantActions_MotivationalMechanics"><path d="M231.66,69 C410.2,78.95 922.52,118.13 1020.22,243.26 C1045.69,275.89 1043.29,302.03 1020.22,336.39 C995.87,372.67 887.404,394.7923 807.924,406.6823 " fill="none" id="AssistantActions-to-MotivationalMechanics" style="stroke:#181818;stroke-width:0.6;"/><polygon fill="#181818" points="801.99,407.57,811.4828,410.1944,806.935,406.8302,810.2991,402.2825,801.99,407.57" style="stroke:#181818;stroke-width:0.6;"/><text fill="#000000" font-family="sans-serif" font-size="12" lengthAdjust="spacing" textLength="41" x="1012.04" y="231.8616">toggles</text><text fill="#000000" font-family="sans-serif" font-size="12" lengthAdjust="spacing" textLength="24" x="809.7905" y="418.8433">0..1</text></g><!--link Usertrait_Mechanic_Mapping to MotivationalMechanics--><g id="link_Usertrait_Mechanic_Mapping_MotivationalMechanics"><path d="M709.53,336.75 C712.38,353.55 715.0976,390.5743 717.9376,407.3343 " fill="none" id="Usertrait_Mechanic_Mapping-to-MotivationalMechanics" style="stroke:#181818;stroke-width:0.6;"/><polygon fill="#181818" points="718.94,413.25,721.3802,403.7082,718.1047,408.3203,713.4926,405.0448,718.94,413.25" style="stroke:#181818;stroke-width:0.6;"/><text fill="#000000" font-family="sans-serif" font-size="12" lengthAdjust="spacing" textLength="32" x="716.3" y="368.9916">maps</text></g><!--link Usertrait_Mechanic_Mapping to UserTraits--><g id="link_Usertrait_Mechanic_Mapping_UserTraits"><path d="M668.09,336.75 C643.64,353.49 616.7011,392.9408 592.2611,409.6708 " fill="none" id="Usertrait_Mechanic_Mapping-to-UserTraits" style="stroke:#181818;stroke-width:0.6;"/><polygon fill="#181818" points="587.31,413.06,596.9961,411.2769,591.4359,410.2357,592.4772,404.6755,587.31,413.06" style="stroke:#181818;stroke-width:0.6;"/><text fill="#000000" font-family="sans-serif" font-size="12" lengthAdjust="spacing" textLength="32" x="638" y="368.9916">maps</text></g><!--link MotivationalMechanics to UserModel--><g id="link_MotivationalMechanics_UserModel"><path d="M802.08,406.95 C845.07,396.69 894.61,376.43 920.22,336.39 C942.53,301.53 945.61,275.95 920.22,243.26 C886.94,200.42 515.265,181.5553 382.795,176.1353 " fill="none" id="MotivationalMechanics-to-UserModel" style="stroke:#181818;stroke-width:0.6;"/><polygon fill="#181818" points="376.8,175.89,385.629,180.2546,381.7958,176.0944,385.956,172.2613,376.8,175.89" style="stroke:#181818;stroke-width:0.6;"/><text fill="#000000" font-family="sans-serif" font-size="12" lengthAdjust="spacing" textLength="68" x="939.12" y="314.9316">selected_by</text><text fill="#000000" font-family="sans-serif" font-size="12" lengthAdjust="spacing" textLength="8" x="809.7187" y="402.8516">1</text><text fill="#000000" font-family="sans-serif" font-size="12" lengthAdjust="spacing" textLength="24" x="384.8972" y="172.8953">1..2</text></g><!--link AssistantActions to UserModel--><g id="link_AssistantActions_UserModel"><path d="M126.75,91.56 C113.7,102.38 105.22,115.22 115.22,127.13 C131.76,146.82 204.05,141.83 229.22,147.13 C247.69,151.01 262.0799,154.3917 279.5999,158.7817 " fill="none" id="AssistantActions-to-UserModel" style="stroke:#181818;stroke-width:0.6;"/><polygon fill="#181818" points="285.42,160.24,277.6621,154.1724,280.5699,159.0247,275.7177,161.9325,285.42,160.24" style="stroke:#181818;stroke-width:0.6;"/><text fill="#000000" font-family="sans-serif" font-size="12" lengthAdjust="spacing" textLength="40" x="116.22" y="123.7316">targets</text><text fill="#000000" font-family="sans-serif" font-size="12" lengthAdjust="spacing" textLength="22" x="255.7875" y="155.1688">0..*</text></g><!--link AssistantActions to UserModel--><g id="link_AssistantActions_UserModel"><path d="M182.9,91.39 C190.08,103.59 200.07,117.6 212.22,127.13 C233.51,143.83 255.9261,153.1692 279.5061,160.1392 " fill="none" id="AssistantActions-to-UserModel-1" style="stroke:#181818;stroke-width:0.6;"/><polygon fill="#181818" points="285.26,161.84,277.763,155.4529,280.4651,160.4227,275.4953,163.1247,285.26,161.84" style="stroke:#181818;stroke-width:0.6;"/><text fill="#000000" font-family="sans-serif" font-size="12" lengthAdjust="spacing" textLength="55" x="213.22" y="123.7316">considers</text><text fill="#000000" font-family="sans-serif" font-size="12" lengthAdjust="spacing" textLength="22" x="161.2885" y="110.713">1..*</text><text fill="#000000" font-family="sans-serif" font-size="12" lengthAdjust="spacing" textLength="22" x="255.606" y="172.8651">1..*</text></g><!--link UserModel to AssistantActions--><g id="link_UserModel_AssistantActions"><path d="M313.13,146.89 C303.53,134.84 290.9,120.95 277.22,111.13 C263.47,101.25 252.7436,95.353 237.1136,88.723 " fill="none" id="UserModel-to-AssistantActions" style="stroke:#181818;stroke-width:0.6;"/><polygon fill="#181818" points="231.59,86.38,238.3134,93.5769,236.193,88.3325,241.4374,86.2121,231.59,86.38" style="stroke:#181818;stroke-width:0.6;"/><text fill="#000000" font-family="sans-serif" font-size="12" lengthAdjust="spacing" textLength="47" x="295.14" y="123.7316">receives</text><text fill="#000000" font-family="sans-serif" font-size="12" lengthAdjust="spacing" textLength="8" x="300.0217" y="136.8048">1</text><text fill="#000000" font-family="sans-serif" font-size="12" lengthAdjust="spacing" textLength="22" x="239.0532" y="85.4645">1..*</text></g><!--link AssistantActions to Metrics--><g id="link_AssistantActions_Metrics"><path d="M114.55,91.42 C102.33,100.86 94.31,112.83 99.22,127.13 C121.51,191.98 172.9962,247.3934 207.6362,279.7634 " fill="none" id="AssistantActions-to-Metrics" style="stroke:#181818;stroke-width:0.6;"/><polygon fill="#181818" points="212.02,283.86,208.1753,274.7926,208.3668,280.4462,202.7132,280.6377,212.02,283.86" style="stroke:#181818;stroke-width:0.6;"/><text fill="#000000" font-family="sans-serif" font-size="12" lengthAdjust="spacing" textLength="55" x="137.48" y="177.8016">considers</text><text fill="#000000" font-family="sans-serif" font-size="12" lengthAdjust="spacing" textLength="22" x="79.4243" y="109.6011">1..*</text><text fill="#000000" font-family="sans-serif" font-size="12" lengthAdjust="spacing" textLength="22" x="180.7238" y="273.7378">1..*</text></g><!--link EventRegistration to KeySituations--><g id="link_EventRegistration_KeySituations"><path d="M242.34,444.8 C225.13,464.74 205.1912,508.8287 187.9912,528.7487 " fill="none" id="EventRegistration-to-KeySituations" style="stroke:#181818;stroke-width:0.6;"/><polygon fill="#181818" points="184.07,533.29,192.9794,529.0921,187.3377,529.5055,186.9243,523.8638,184.07,533.29" style="stroke:#181818;stroke-width:0.6;"/><text fill="#000000" font-family="sans-serif" font-size="12" lengthAdjust="spacing" textLength="44" x="214.22" y="489.1316">triggers</text><text fill="#000000" font-family="sans-serif" font-size="12" lengthAdjust="spacing" textLength="22" x="212.7365" y="464.1276">1..*</text><text fill="#000000" font-family="sans-serif" font-size="12" lengthAdjust="spacing" textLength="22" x="164.5791" y="502.2048">0..*</text></g><!--link EventRegistration to Metrics--><g id="link_EventRegistration_Metrics"><path d="M204.93,391.99 C197.87,386.54 191.61,380.05 187.22,372.39 C178.63,357.42 185.7029,346.4671 200.4729,335.3071 " fill="none" id="EventRegistration-to-Metrics" style="stroke:#181818;stroke-width:0.6;"/><polygon fill="#181818" points="205.26,331.69,195.6679,333.9242,201.2707,334.7042,200.4907,340.3071,205.26,331.69" style="stroke:#181818;stroke-width:0.6;"/><text fill="#000000" font-family="sans-serif" font-size="12" lengthAdjust="spacing" textLength="54" x="188.22" y="368.9916">produces</text><text fill="#000000" font-family="sans-serif" font-size="12" lengthAdjust="spacing" textLength="22" x="169.531" y="383.2247">1..*</text><text fill="#000000" font-family="sans-serif" font-size="12" lengthAdjust="spacing" textLength="22" x="175.7758" y="331.5913">0..*</text></g><!--link Metrics to EventRegistration--><g id="link_Metrics_EventRegistration"><path d="M246.86,336.58 C248.3,343.04 249.82,349.97 251.22,356.39 C253.75,368.05 255.2653,375.0905 257.5853,386.0305 " fill="none" id="Metrics-to-EventRegistration" style="stroke:#181818;stroke-width:0.6;"/><polygon fill="#181818" points="258.83,391.9,260.8759,382.266,257.7927,387.0088,253.0499,383.9256,258.83,391.9" style="stroke:#181818;stroke-width:0.6;"/><text fill="#000000" font-family="sans-serif" font-size="12" lengthAdjust="spacing" textLength="33" x="255.47" y="368.9916">reads</text><text fill="#000000" font-family="sans-serif" font-size="12" lengthAdjust="spacing" textLength="8" x="239.2392" y="355.8868">1</text><text fill="#000000" font-family="sans-serif" font-size="12" lengthAdjust="spacing" textLength="8" x="248.6586" y="381.757">1</text></g><!--link KeySituations to AssistantActions--><g id="link_KeySituations_AssistantActions"><path d="M146.59,512.14 C106.03,442.53 6,245.2 86.22,111.13 C91.74,101.9 94.8724,97.7552 103.9324,91.7752 " fill="none" id="KeySituations-to-AssistantActions" style="stroke:#181818;stroke-width:0.6;"/><polygon fill="#181818" points="108.94,88.47,99.2252,90.0894,104.767,91.2243,103.6321,96.7662,108.94,88.47" style="stroke:#181818;stroke-width:0.6;"/><text fill="#000000" font-family="sans-serif" font-size="12" lengthAdjust="spacing" textLength="44" x="72.13" y="314.9316">triggers</text><text fill="#000000" font-family="sans-serif" font-size="12" lengthAdjust="spacing" textLength="8" x="134.0506" y="502.0201">1</text><text fill="#000000" font-family="sans-serif" font-size="12" lengthAdjust="spacing" textLength="22" x="79.0344" y="87.873">0..*</text></g><!--link UserModel to Metrics--><g id="link_UserModel_Metrics"><path d="M285.3,183.94 C266.09,190.53 245.61,201.42 234.22,219.26 C221.99,238.43 224.1702,259.0229 229.8202,278.2729 " fill="none" id="UserModel-to-Metrics" style="stroke:#181818;stroke-width:0.6;"/><polygon fill="#181818" points="231.51,284.03,232.8135,274.2678,230.1019,279.2324,225.1373,276.5208,231.51,284.03" style="stroke:#181818;stroke-width:0.6;"/><text fill="#000000" font-family="sans-serif" font-size="12" lengthAdjust="spacing" textLength="33" x="235.22" y="231.8616">reads</text><text fill="#000000" font-family="sans-serif" font-size="12" lengthAdjust="spacing" textLength="8" x="269.656" y="198.2687">1</text><text fill="#000000" font-family="sans-serif" font-size="12" lengthAdjust="spacing" textLength="22" x="231.8244" y="273.5318">1..*</text></g><!--link UserModel to Metrics--><g id="link_UserModel_Metrics"><path d="M314.29,199.61 C298.2,223.77 277.4668,254.9067 261.3968,279.0267 " fill="none" id="UserModel-to-Metrics-1" style="stroke:#181818;stroke-width:0.6;"/><polygon fill="#181818" points="258.07,284.02,266.389,278.748,260.8423,279.859,259.7313,274.3123,258.07,284.02" style="stroke:#181818;stroke-width:0.6;"/><text fill="#000000" font-family="sans-serif" font-size="12" lengthAdjust="spacing" textLength="20" x="300.54" y="231.8616">has</text><text fill="#000000" font-family="sans-serif" font-size="12" lengthAdjust="spacing" textLength="8" x="301.4499" y="218.9538">1</text><text fill="#000000" font-family="sans-serif" font-size="12" lengthAdjust="spacing" textLength="22" x="264.5103" y="273.9348">1..*</text></g><!--link UserModel to UserTraits--><g id="link_UserModel_UserTraits"><path d="M376.8,177.18 C493.83,185.29 797.79,209.45 827.22,243.26 C854.4,274.48 848.35,300.8 827.22,336.39 C778.35,418.72 712.12,369.25 619.22,392.39 C611.31,394.37 608.7177,394.9799 600.7577,397.6999 " fill="none" id="UserModel-to-UserTraits" style="stroke:#181818;stroke-width:0.6;"/><polygon fill="#181818" points="595.08,399.64,604.8899,400.515,599.8114,398.0232,602.3031,392.9447,595.08,399.64" style="stroke:#181818;stroke-width:0.6;"/><text fill="#000000" font-family="sans-serif" font-size="12" lengthAdjust="spacing" textLength="61" x="846.4" y="314.9316">references</text><text fill="#000000" font-family="sans-serif" font-size="12" lengthAdjust="spacing" textLength="8" x="384.7018" y="190.5427">1</text><text fill="#000000" font-family="sans-serif" font-size="12" lengthAdjust="spacing" textLength="22" x="602.5862" y="393.7814">1..*</text></g><!--link UserModel to Plan_and_Tasks--><g id="link_UserModel_Plan_and_Tasks"><path d="M362.44,199.61 C392.03,223.7 431.5676,255.8812 461.1976,280.0112 " fill="none" id="UserModel-to-Plan_and_Tasks" style="stroke:#181818;stroke-width:0.6;"/><polygon fill="#181818" points="465.85,283.8,461.3973,275.0152,461.973,280.6427,456.3455,281.2184,465.85,283.8" style="stroke:#181818;stroke-width:0.6;"/><text fill="#000000" font-family="sans-serif" font-size="12" lengthAdjust="spacing" textLength="20" x="405.28" y="231.8616">has</text><text fill="#000000" font-family="sans-serif" font-size="12" lengthAdjust="spacing" textLength="8" x="360.7346" y="218.9538">1</text><text fill="#000000" font-family="sans-serif" font-size="12" lengthAdjust="spacing" textLength="8" x="449.6707" y="273.6639">1</text></g><!--link EventRegistration to Plan_and_Tasks--><g id="link_EventRegistration_Plan_and_Tasks"><path d="M320.24,412.94 C356.85,396.27 399.0303,356.0583 435.6503,339.3683 " fill="none" id="EventRegistration-to-Plan_and_Tasks" style="stroke:#181818;stroke-width:0.6;"/><polygon fill="#181818" points="441.11,336.88,431.2616,336.9727,436.5603,338.9536,434.5793,344.2523,441.11,336.88" style="stroke:#181818;stroke-width:0.6;"/><text fill="#000000" font-family="sans-serif" font-size="12" lengthAdjust="spacing" textLength="34" x="395.67" y="368.9916">refers</text><text fill="#000000" font-family="sans-serif" font-size="12" lengthAdjust="spacing" textLength="8" x="324.2696" y="381.8062">1</text><text fill="#000000" font-family="sans-serif" font-size="12" lengthAdjust="spacing" textLength="8" x="419.9609" y="355.8359">1</text></g><!--SRC=[ZLLTZzem47pFhx1o3srFEWHt7ANeX4Ihtak5LDtHPxJOcyGYiIFRW6ZL_ruxXCJvW18abAntPiUp6qTlkSX1GKPq0amUk8X91Ad68E4CYJQeK9fZNZvZbfiZoJ3ReDA1hi12CjIOa-UX5rGWjYuuzeCBfUHXbN2w5QWr6GuctYB327QfUPN2lFFVI4QFtkAhJ1cghrBP_syobOhSFHLNDmVeDbPo9rYP5nMNbnSLUIylx2WWutG-9tsOppYvZl6riF5aCvpsv6i3vaA9OVJSAwk6-1L6xEaB7GT1RdaWTirnMUjCibsAclm9I4b0mgKqV6zNfO1qYJG1mQaE2MZIkqAyacxZ4vnwPByqAgE0c_KPi5v2djjHAHWlBxTfNGzgsfyfY3K8jbw1tfx4DKCDE6wY2ASD0bTuvGhhIiVfiLcNbi2_bN5b1tkTMsZDBLYO1NKcdQZRGU9FmHrEMyA-xr6ODumjHXLM5oITQ9Cb6hcVn_83Z-_SxA2MqOYqDKJGqB14ewgUd-vRzIAdksNdqhx7QULcyTH2CRVNmiqW-40KfgMQZmTk4a91CMudYnjkVJqaA4YkxCaWpAUWO-B3mvo4my5W55wOoXanCevjXu8hC-POBi4poF-BzSQc1FIpXLPceNWq63o6dZypeZ55Qf2jDyVBkxnlOWoe68tkvZl- -xgKlJstRqQeJR37iBe9vbUhWTqfz94ddSqvireLZ-DRmRNQNDdtYzhkDVag8q_vdPruzUej-EutYYW4TYMnqLs5aVsS2OetCITm9Qr7jKAAV7-1EsoVRJCIsW9XhwNNGCKUBEwiqy_kSXK0Qr3u3m00]--></g></svg>