<?xml version="1.0" encoding="us-ascii" standalone="no"?><svg xmlns="http://www.w3.org/2000/svg" xmlns:xlink="http://www.w3.org/1999/xlink" contentStyleType="text/css" height="793px" preserveAspectRatio="none" style="width:1511px;height:793px;background:#FFFFFF;" version="1.1" viewBox="0 0 1511 793" width="1511px" zoomAndPan="magnify"><defs/><g><!--cluster KeySituations--><g id="cluster_KeySituations"><path d="M8.5,154 L108.5,154 A3.75,3.75 0 0 1 111,156.5 L118,176.4883 L1317.5,176.4883 A2.5,2.5 0 0 1 1320,178.9883 L1320,783.63 A2.5,2.5 0 0 1 1317.5,786.13 L8.5,786.13 A2.5,2.5 0 0 1 6,783.63 L6,156.5 A2.5,2.5 0 0 1 8.5,154 " fill="#E8FAFF" style="stroke:#000000;stroke-width:1.5;"/><line style="stroke:#000000;stroke-width:1.5;" x1="6" x2="118" y1="176.4883" y2="176.4883"/><text fill="#000000" font-family="sans-serif" font-size="14" font-weight="bold" lengthAdjust="spacing" textLength="99" x="10" y="169.5352">KeySituations</text></g><!--cluster Program_and_Tasks--><g id="cluster_Program_and_Tasks"><path d="M1346.5,438.47 L1491.5,438.47 A3.75,3.75 0 0 1 1494,440.97 L1501,460.9583 L1501.5,460.9583 A2.5,2.5 0 0 1 1504,463.4583 L1504,534.97 A2.5,2.5 0 0 1 1501.5,537.47 L1346.5,537.47 A2.5,2.5 0 0 1 1344,534.97 L1344,440.97 A2.5,2.5 0 0 1 1346.5,438.47 " fill="none" style="stroke:#000000;stroke-width:1.5;"/><line style="stroke:#000000;stroke-width:1.5;" x1="1344" x2="1501" y1="460.9583" y2="460.9583"/><text fill="#000000" font-family="sans-serif" font-size="14" font-weight="bold" lengthAdjust="spacing" textLength="144" x="1348" y="454.0052">Program_and_Tasks</text></g><!--cluster Metrics_and_Measurements--><g id="cluster_Metrics_and_Measurements"><path d="M627.5,6 L826.5,6 A3.75,3.75 0 0 1 829,8.5 L836,28.4883 L836.5,28.4883 A2.5,2.5 0 0 1 839,30.9883 L839,102.5 A2.5,2.5 0 0 1 836.5,105 L627.5,105 A2.5,2.5 0 0 1 625,102.5 L625,8.5 A2.5,2.5 0 0 1 627.5,6 " fill="none" style="stroke:#000000;stroke-width:1.5;"/><line style="stroke:#000000;stroke-width:1.5;" x1="625" x2="836" y1="28.4883" y2="28.4883"/><text fill="#000000" font-family="sans-serif" font-size="14" font-weight="bold" lengthAdjust="spacing" textLength="198" x="629" y="21.5352">Metrics_and_Measurements</text></g><!--class KeySituation--><g id="elem_KeySituation"><rect codeLine="2" fill="#F1F1F1" height="163.418" id="KeySituation" rx="2.5" ry="2.5" style="stroke:#181818;stroke-width:0.5;" width="239" x="1065.5" y="606.71"/><ellipse cx="1138.25" cy="622.71" fill="#ADD1B2" rx="11" ry="11" style="stroke:#181818;stroke-width:1.0;"/><path d="M1140.7231,628.8531 Q1140.1421,629.1519 1139.5029,629.3013 Q1138.8638,629.4507 1138.1582,629.4507 Q1135.6514,629.4507 1134.3315,627.7989 Q1133.0117,626.147 1133.0117,623.0259 Q1133.0117,619.8965 1134.3315,618.2447 Q1135.6514,616.5928 1138.1582,616.5928 Q1138.8638,616.5928 1139.5112,616.7422 Q1140.1587,616.8916 1140.7231,617.1905 L1140.7231,619.9131 Q1140.0923,619.3321 1139.4988,619.0623 Q1138.9053,618.7925 1138.2744,618.7925 Q1136.9297,618.7925 1136.2449,619.8592 Q1135.5601,620.9258 1135.5601,623.0259 Q1135.5601,625.1177 1136.2449,626.1844 Q1136.9297,627.251 1138.2744,627.251 Q1138.9053,627.251 1139.4988,626.9812 Q1140.0923,626.7115 1140.7231,626.1304 Z " fill="#000000"/><text fill="#000000" font-family="sans-serif" font-size="14" lengthAdjust="spacing" textLength="85" x="1158.75" y="628.001">KeySituation</text><line style="stroke:#181818;stroke-width:0.5;" x1="1066.5" x2="1303.5" y1="638.71" y2="638.71"/><ellipse cx="1076.5" cy="652.4541" fill="none" rx="3" ry="3" style="stroke:#038048;stroke-width:1.0;"/><text fill="#000000" font-family="sans-serif" font-size="14" lengthAdjust="spacing" textLength="39" x="1085.5" y="656.2452">id: int</text><ellipse cx="1076.5" cy="668.9424" fill="none" rx="3" ry="3" style="stroke:#038048;stroke-width:1.0;"/><text fill="#000000" font-family="sans-serif" font-size="14" lengthAdjust="spacing" textLength="69" x="1085.5" y="672.7334">userId: int</text><ellipse cx="1076.5" cy="685.4307" fill="none" rx="3" ry="3" style="stroke:#038048;stroke-width:1.0;"/><text fill="#000000" font-family="sans-serif" font-size="14" lengthAdjust="spacing" textLength="145" x="1085.5" y="689.2217">timestamp: DateTime</text><ellipse cx="1076.5" cy="701.919" fill="none" rx="3" ry="3" style="stroke:#038048;stroke-width:1.0;"/><text fill="#000000" font-family="sans-serif" font-size="14" lengthAdjust="spacing" textLength="104" x="1085.5" y="705.71">mechanicId: int</text><ellipse cx="1076.5" cy="718.4073" fill="none" rx="3" ry="3" style="stroke:#038048;stroke-width:1.0;"/><text fill="#000000" font-family="sans-serif" font-size="14" lengthAdjust="spacing" textLength="94" x="1085.5" y="722.1983">screen: String</text><ellipse cx="1076.5" cy="734.8955" fill="none" rx="3" ry="3" style="stroke:#038048;stroke-width:1.0;"/><text fill="#000000" font-family="sans-serif" font-size="14" lengthAdjust="spacing" textLength="75" x="1085.5" y="738.6866">value: float</text><ellipse cx="1076.5" cy="751.3838" fill="none" rx="3" ry="3" style="stroke:#038048;stroke-width:1.0;"/><text fill="#000000" font-family="sans-serif" font-size="14" lengthAdjust="spacing" textLength="213" x="1085.5" y="755.1748">metadata: Map&lt;String, String&gt;</text><line style="stroke:#181818;stroke-width:0.5;" x1="1066.5" x2="1303.5" y1="762.128" y2="762.128"/></g><!--class MechanicKeySituation--><g id="elem_MechanicKeySituation"><rect codeLine="12" fill="#F1F1F1" height="64.4883" id="MechanicKeySituation" rx="2.5" ry="2.5" style="stroke:#181818;stroke-width:0.5;" width="181" x="475.5" y="465.22"/><ellipse cx="490.5" cy="481.22" fill="#ADD1B2" rx="11" ry="11" style="stroke:#181818;stroke-width:1.0;"/><path d="M492.9731,487.3631 Q492.3921,487.6619 491.7529,487.8113 Q491.1138,487.9607 490.4082,487.9607 Q487.9014,487.9607 486.5815,486.3089 Q485.2617,484.657 485.2617,481.5359 Q485.2617,478.4065 486.5815,476.7547 Q487.9014,475.1028 490.4082,475.1028 Q491.1138,475.1028 491.7612,475.2522 Q492.4087,475.4016 492.9731,475.7005 L492.9731,478.4231 Q492.3423,477.8421 491.7488,477.5723 Q491.1553,477.3025 490.5244,477.3025 Q489.1797,477.3025 488.4949,478.3692 Q487.8101,479.4358 487.8101,481.5359 Q487.8101,483.6277 488.4949,484.6944 Q489.1797,485.761 490.5244,485.761 Q491.1553,485.761 491.7488,485.4912 Q492.3423,485.2215 492.9731,484.6404 Z " fill="#000000"/><text fill="#000000" font-family="sans-serif" font-size="14" lengthAdjust="spacing" textLength="149" x="504.5" y="486.511">MechanicKeySituation</text><line style="stroke:#181818;stroke-width:0.5;" x1="476.5" x2="655.5" y1="497.22" y2="497.22"/><ellipse cx="486.5" cy="510.9641" fill="none" rx="3" ry="3" style="stroke:#038048;stroke-width:1.0;"/><text fill="#000000" font-family="sans-serif" font-size="14" lengthAdjust="spacing" textLength="39" x="495.5" y="514.7552">id: int</text><line style="stroke:#181818;stroke-width:0.5;" x1="476.5" x2="655.5" y1="521.7083" y2="521.7083"/></g><!--class GeneralKeySituation--><g id="elem_GeneralKeySituation"><rect codeLine="16" fill="#F1F1F1" height="64.4883" id="GeneralKeySituation" rx="2.5" ry="2.5" style="stroke:#181818;stroke-width:0.5;" width="170" x="1134" y="465.22"/><ellipse cx="1149" cy="481.22" fill="#ADD1B2" rx="11" ry="11" style="stroke:#181818;stroke-width:1.0;"/><path d="M1151.4731,487.3631 Q1150.8921,487.6619 1150.2529,487.8113 Q1149.6138,487.9607 1148.9082,487.9607 Q1146.4014,487.9607 1145.0815,486.3089 Q1143.7617,484.657 1143.7617,481.5359 Q1143.7617,478.4065 1145.0815,476.7547 Q1146.4014,475.1028 1148.9082,475.1028 Q1149.6138,475.1028 1150.2612,475.2522 Q1150.9087,475.4016 1151.4731,475.7005 L1151.4731,478.4231 Q1150.8423,477.8421 1150.2488,477.5723 Q1149.6553,477.3025 1149.0244,477.3025 Q1147.6797,477.3025 1146.9949,478.3692 Q1146.3101,479.4358 1146.3101,481.5359 Q1146.3101,483.6277 1146.9949,484.6944 Q1147.6797,485.761 1149.0244,485.761 Q1149.6553,485.761 1150.2488,485.4912 Q1150.8423,485.2215 1151.4731,484.6404 Z " fill="#000000"/><text fill="#000000" font-family="sans-serif" font-size="14" lengthAdjust="spacing" textLength="138" x="1163" y="486.511">GeneralKeySituation</text><line style="stroke:#181818;stroke-width:0.5;" x1="1135" x2="1303" y1="497.22" y2="497.22"/><ellipse cx="1145" cy="510.9641" fill="none" rx="3" ry="3" style="stroke:#038048;stroke-width:1.0;"/><text fill="#000000" font-family="sans-serif" font-size="14" lengthAdjust="spacing" textLength="39" x="1154" y="514.7552">id: int</text><line style="stroke:#181818;stroke-width:0.5;" x1="1135" x2="1303" y1="521.7083" y2="521.7083"/></g><!--class ProgramrelatedKeySituation--><g id="elem_ProgramrelatedKeySituation"><rect codeLine="20" fill="#F1F1F1" height="64.4883" id="ProgramrelatedKeySituation" rx="2.5" ry="2.5" style="stroke:#181818;stroke-width:0.5;" width="224" x="825" y="310.98"/><ellipse cx="840" cy="326.98" fill="#ADD1B2" rx="11" ry="11" style="stroke:#181818;stroke-width:1.0;"/><path d="M842.4731,333.1231 Q841.8921,333.4219 841.2529,333.5713 Q840.6138,333.7207 839.9082,333.7207 Q837.4014,333.7207 836.0815,332.0689 Q834.7617,330.417 834.7617,327.2959 Q834.7617,324.1665 836.0815,322.5147 Q837.4014,320.8628 839.9082,320.8628 Q840.6138,320.8628 841.2612,321.0122 Q841.9087,321.1616 842.4731,321.4605 L842.4731,324.1831 Q841.8423,323.6021 841.2488,323.3323 Q840.6553,323.0625 840.0244,323.0625 Q838.6797,323.0625 837.9949,324.1292 Q837.3101,325.1958 837.3101,327.2959 Q837.3101,329.3877 837.9949,330.4544 Q838.6797,331.521 840.0244,331.521 Q840.6553,331.521 841.2488,331.2512 Q841.8423,330.9815 842.4731,330.4004 Z " fill="#000000"/><text fill="#000000" font-family="sans-serif" font-size="14" lengthAdjust="spacing" textLength="192" x="854" y="332.271">ProgramrelatedKeySituation</text><line style="stroke:#181818;stroke-width:0.5;" x1="826" x2="1048" y1="342.98" y2="342.98"/><ellipse cx="836" cy="356.7241" fill="none" rx="3" ry="3" style="stroke:#038048;stroke-width:1.0;"/><text fill="#000000" font-family="sans-serif" font-size="14" lengthAdjust="spacing" textLength="39" x="845" y="360.5152">id: int</text><line style="stroke:#181818;stroke-width:0.5;" x1="826" x2="1048" y1="367.4683" y2="367.4683"/></g><!--class SessionRelatedKeySituation--><g id="elem_SessionRelatedKeySituation"><rect codeLine="25" fill="#F1F1F1" height="64.4883" id="SessionRelatedKeySituation" rx="2.5" ry="2.5" style="stroke:#181818;stroke-width:0.5;" width="220" x="1084" y="310.98"/><ellipse cx="1099" cy="326.98" fill="#ADD1B2" rx="11" ry="11" style="stroke:#181818;stroke-width:1.0;"/><path d="M1101.4731,333.1231 Q1100.8921,333.4219 1100.2529,333.5713 Q1099.6138,333.7207 1098.9082,333.7207 Q1096.4014,333.7207 1095.0815,332.0689 Q1093.7617,330.417 1093.7617,327.2959 Q1093.7617,324.1665 1095.0815,322.5147 Q1096.4014,320.8628 1098.9082,320.8628 Q1099.6138,320.8628 1100.2612,321.0122 Q1100.9087,321.1616 1101.4731,321.4605 L1101.4731,324.1831 Q1100.8423,323.6021 1100.2488,323.3323 Q1099.6553,323.0625 1099.0244,323.0625 Q1097.6797,323.0625 1096.9949,324.1292 Q1096.3101,325.1958 1096.3101,327.2959 Q1096.3101,329.3877 1096.9949,330.4544 Q1097.6797,331.521 1099.0244,331.521 Q1099.6553,331.521 1100.2488,331.2512 Q1100.8423,330.9815 1101.4731,330.4004 Z " fill="#000000"/><text fill="#000000" font-family="sans-serif" font-size="14" lengthAdjust="spacing" textLength="188" x="1113" y="332.271">SessionRelatedKeySituation</text><line style="stroke:#181818;stroke-width:0.5;" x1="1085" x2="1303" y1="342.98" y2="342.98"/><ellipse cx="1095" cy="356.7241" fill="none" rx="3" ry="3" style="stroke:#038048;stroke-width:1.0;"/><text fill="#000000" font-family="sans-serif" font-size="14" lengthAdjust="spacing" textLength="39" x="1104" y="360.5152">id: int</text><line style="stroke:#181818;stroke-width:0.5;" x1="1085" x2="1303" y1="367.4683" y2="367.4683"/></g><g id="elem_TaskFinished"><rect fill="#F1F1F1" height="44.9766" style="stroke:#181818;stroke-width:0.5;" width="204" x="630" y="189"/><text fill="#000000" font-family="sans-serif" font-size="14" lengthAdjust="spacing" textLength="90" x="687" y="204.5352">TaskFinished</text><line style="stroke:#181818;stroke-width:0.5;" x1="631" x2="833" y1="209.4883" y2="209.4883"/><text fill="#000000" font-family="sans-serif" font-size="14" lengthAdjust="spacing" textLength="192" x="636" y="227.0234">ProgramrelatedKeySituation</text></g><g id="elem_MechanicDisplayed"><rect fill="#F1F1F1" height="44.9766" style="stroke:#181818;stroke-width:0.5;" width="161" x="248.5" y="320.74"/><text fill="#000000" font-family="sans-serif" font-size="14" lengthAdjust="spacing" textLength="130" x="264" y="336.2752">MechanicDisplayed</text><line style="stroke:#181818;stroke-width:0.5;" x1="249.5" x2="408.5" y1="341.2283" y2="341.2283"/><text fill="#000000" font-family="sans-serif" font-size="14" lengthAdjust="spacing" textLength="149" x="254.5" y="358.7634">MechanicKeySituation</text></g><g id="elem_MechanicInteraction"><rect fill="#F1F1F1" height="44.9766" style="stroke:#181818;stroke-width:0.5;" width="161" x="444.5" y="320.74"/><text fill="#000000" font-family="sans-serif" font-size="14" lengthAdjust="spacing" textLength="138" x="456" y="336.2752">MechanicInteraction</text><line style="stroke:#181818;stroke-width:0.5;" x1="445.5" x2="604.5" y1="341.2283" y2="341.2283"/><text fill="#000000" font-family="sans-serif" font-size="14" lengthAdjust="spacing" textLength="149" x="450.5" y="358.7634">MechanicKeySituation</text></g><g id="elem_SessionStarted"><rect fill="#F1F1F1" height="44.9766" style="stroke:#181818;stroke-width:0.5;" width="200" x="1104" y="189"/><text fill="#000000" font-family="sans-serif" font-size="14" lengthAdjust="spacing" textLength="101" x="1153.5" y="204.5352">SessionStarted</text><line style="stroke:#181818;stroke-width:0.5;" x1="1105" x2="1303" y1="209.4883" y2="209.4883"/><text fill="#000000" font-family="sans-serif" font-size="14" lengthAdjust="spacing" textLength="188" x="1110" y="227.0234">SessionRelatedKeySituation</text></g><g id="elem_TaskStarted"><rect fill="#F1F1F1" height="44.9766" style="stroke:#181818;stroke-width:0.5;" width="204" x="152" y="189"/><text fill="#000000" font-family="sans-serif" font-size="14" lengthAdjust="spacing" textLength="81" x="213.5" y="204.5352">TaskStarted</text><line style="stroke:#181818;stroke-width:0.5;" x1="153" x2="355" y1="209.4883" y2="209.4883"/><text fill="#000000" font-family="sans-serif" font-size="14" lengthAdjust="spacing" textLength="192" x="158" y="227.0234">ProgramrelatedKeySituation</text></g><g id="elem_TaskEnded"><rect fill="#F1F1F1" height="44.9766" style="stroke:#181818;stroke-width:0.5;" width="204" x="391" y="189"/><text fill="#000000" font-family="sans-serif" font-size="14" lengthAdjust="spacing" textLength="75" x="455.5" y="204.5352">TaskEnded</text><line style="stroke:#181818;stroke-width:0.5;" x1="392" x2="594" y1="209.4883" y2="209.4883"/><text fill="#000000" font-family="sans-serif" font-size="14" lengthAdjust="spacing" textLength="192" x="397" y="227.0234">ProgramrelatedKeySituation</text></g><g id="elem_SessionEnded"><rect fill="#F1F1F1" height="44.9766" style="stroke:#181818;stroke-width:0.5;" width="200" x="869" y="189"/><text fill="#000000" font-family="sans-serif" font-size="14" lengthAdjust="spacing" textLength="95" x="921.5" y="204.5352">SessionEnded</text><line style="stroke:#181818;stroke-width:0.5;" x1="870" x2="1068" y1="209.4883" y2="209.4883"/><text fill="#000000" font-family="sans-serif" font-size="14" lengthAdjust="spacing" textLength="188" x="875" y="227.0234">SessionRelatedKeySituation</text></g><g id="elem_ScreenEntered"><rect fill="#F1F1F1" height="44.9766" style="stroke:#181818;stroke-width:0.5;" width="150" x="640" y="320.74"/><text fill="#000000" font-family="sans-serif" font-size="14" lengthAdjust="spacing" textLength="99" x="665.5" y="336.2752">ScreenEntered</text><line style="stroke:#181818;stroke-width:0.5;" x1="641" x2="789" y1="341.2283" y2="341.2283"/><text fill="#000000" font-family="sans-serif" font-size="14" lengthAdjust="spacing" textLength="138" x="646" y="358.7634">GeneralKeySituation</text></g><g id="elem_GMN28"><path d="M603.5,668.11 L603.5,708.7311 A0,0 0 0 0 603.5,708.7311 L1030.5,708.7311 A0,0 0 0 0 1030.5,708.7311 L1030.5,692.42 L1065.16,688.42 L1030.5,684.42 L1030.5,678.11 L1020.5,668.11 L603.5,668.11 A0,0 0 0 0 603.5,668.11 " fill="#FEFFDD" style="stroke:#181818;stroke-width:0.5;"/><path d="M1020.5,668.11 L1020.5,678.11 L1030.5,678.11 L1020.5,668.11 " fill="#FEFFDD" style="stroke:#181818;stroke-width:0.5;"/><text fill="#000000" font-family="sans-serif" font-size="13" lengthAdjust="spacing" textLength="406" x="609.5" y="685.6784">Generic KeySituation structure used for multiple behavioral logs,</text><text fill="#000000" font-family="sans-serif" font-size="13" lengthAdjust="spacing" textLength="383" x="609.5" y="700.9889">such as screen visits, mechanic usage, and session tracking.</text></g><g id="elem_GMN31"><path d="M691.5,477.16 L691.5,517.7811 A0,0 0 0 0 691.5,517.7811 L1098.5,517.7811 A0,0 0 0 0 1098.5,517.7811 L1098.5,501.47 L1133.52,497.47 L1098.5,493.47 L1098.5,487.16 L1088.5,477.16 L691.5,477.16 A0,0 0 0 0 691.5,477.16 " fill="#FEFFDD" style="stroke:#181818;stroke-width:0.5;"/><path d="M1088.5,477.16 L1088.5,487.16 L1098.5,487.16 L1088.5,477.16 " fill="#FEFFDD" style="stroke:#181818;stroke-width:0.5;"/><text fill="#000000" font-family="sans-serif" font-size="13" lengthAdjust="spacing" textLength="382" x="697.5" y="494.7284">Used for logs unrelated to specific game mechanics, such as</text><text fill="#000000" font-family="sans-serif" font-size="13" lengthAdjust="spacing" textLength="307" x="697.5" y="510.0389">screen visits, general engagement, or app usage.</text></g><g id="elem_GMN34"><path d="M22,477.16 L22,517.7811 A0,0 0 0 0 22,517.7811 L440,517.7811 A0,0 0 0 0 440,517.7811 L440,501.47 L475.22,497.47 L440,493.47 L440,487.16 L430,477.16 L22,477.16 A0,0 0 0 0 22,477.16 " fill="#FEFFDD" style="stroke:#181818;stroke-width:0.5;"/><path d="M430,477.16 L430,487.16 L440,487.16 L430,477.16 " fill="#FEFFDD" style="stroke:#181818;stroke-width:0.5;"/><text fill="#000000" font-family="sans-serif" font-size="13" lengthAdjust="spacing" textLength="366" x="28" y="494.7284">Used for mechanic-specific behavioral tracking, including</text><text fill="#000000" font-family="sans-serif" font-size="13" lengthAdjust="spacing" textLength="397" x="28" y="510.0389">mechanic activation, frequency, success/failure, and feedback.</text></g><!--class Program--><g id="elem_Program"><rect fill="#F1F1F1" height="48" id="Program" rx="2.5" ry="2.5" style="stroke:#181818;stroke-width:0.5;" width="91" x="1360.5" y="473.47"/><ellipse cx="1375.5" cy="489.47" fill="#ADD1B2" rx="11" ry="11" style="stroke:#181818;stroke-width:1.0;"/><path d="M1377.9731,495.6131 Q1377.3921,495.9119 1376.7529,496.0613 Q1376.1138,496.2107 1375.4082,496.2107 Q1372.9014,496.2107 1371.5815,494.5589 Q1370.2617,492.907 1370.2617,489.7859 Q1370.2617,486.6565 1371.5815,485.0047 Q1372.9014,483.3528 1375.4082,483.3528 Q1376.1138,483.3528 1376.7612,483.5022 Q1377.4087,483.6516 1377.9731,483.9505 L1377.9731,486.6731 Q1377.3423,486.0921 1376.7488,485.8223 Q1376.1553,485.5525 1375.5244,485.5525 Q1374.1797,485.5525 1373.4949,486.6192 Q1372.8101,487.6858 1372.8101,489.7859 Q1372.8101,491.8777 1373.4949,492.9444 Q1374.1797,494.011 1375.5244,494.011 Q1376.1553,494.011 1376.7488,493.7412 Q1377.3423,493.4715 1377.9731,492.8904 Z " fill="#000000"/><text fill="#000000" font-family="sans-serif" font-size="14" lengthAdjust="spacing" textLength="59" x="1389.5" y="494.761">Program</text><line style="stroke:#181818;stroke-width:0.5;" x1="1361.5" x2="1450.5" y1="505.47" y2="505.47"/><line style="stroke:#181818;stroke-width:0.5;" x1="1361.5" x2="1450.5" y1="513.47" y2="513.47"/></g><!--class Adherence--><g id="elem_Adherence"><rect fill="#F1F1F1" height="48" id="Adherence" rx="2.5" ry="2.5" style="stroke:#181818;stroke-width:0.5;" width="106" x="679" y="41"/><ellipse cx="694" cy="57" fill="#ADD1B2" rx="11" ry="11" style="stroke:#181818;stroke-width:1.0;"/><path d="M696.4731,63.1431 Q695.8921,63.4419 695.2529,63.5913 Q694.6138,63.7407 693.9082,63.7407 Q691.4014,63.7407 690.0815,62.0889 Q688.7617,60.437 688.7617,57.3159 Q688.7617,54.1865 690.0815,52.5347 Q691.4014,50.8828 693.9082,50.8828 Q694.6138,50.8828 695.2612,51.0322 Q695.9087,51.1816 696.4731,51.4805 L696.4731,54.2031 Q695.8423,53.6221 695.2488,53.3523 Q694.6553,53.0825 694.0244,53.0825 Q692.6797,53.0825 691.9949,54.1492 Q691.3101,55.2158 691.3101,57.3159 Q691.3101,59.4077 691.9949,60.4744 Q692.6797,61.541 694.0244,61.541 Q694.6553,61.541 695.2488,61.2712 Q695.8423,61.0015 696.4731,60.4204 Z " fill="#000000"/><text fill="#000000" font-family="sans-serif" font-size="14" lengthAdjust="spacing" textLength="74" x="708" y="62.291">Adherence</text><line style="stroke:#181818;stroke-width:0.5;" x1="680" x2="784" y1="73" y2="73"/><line style="stroke:#181818;stroke-width:0.5;" x1="680" x2="784" y1="81" y2="81"/></g><!--reverse link ProgramrelatedKeySituation to GeneralKeySituation--><g id="link_ProgramrelatedKeySituation_GeneralKeySituation"><path codeLine="23" d="M1024.0239,383.4863 C1057.3539,399.0263 1081.07,410.95 1116,430.47 C1134.82,440.98 1154.91,453.53 1172.3,464.85 " fill="none" id="ProgramrelatedKeySituation-backto-GeneralKeySituation" style="stroke:#181818;stroke-width:1.0;"/><polygon fill="none" points="1007.71,375.88,1021.4885,388.9243,1026.5594,378.0483,1007.71,375.88" style="stroke:#181818;stroke-width:1.0;"/></g><!--reverse link SessionRelatedKeySituation to GeneralKeySituation--><g id="link_SessionRelatedKeySituation_GeneralKeySituation"><path codeLine="28" d="M1202.0962,393.5322 C1206.3862,419.6622 1209.54,438.85 1213.83,464.96 " fill="none" id="SessionRelatedKeySituation-backto-GeneralKeySituation" style="stroke:#181818;stroke-width:1.0;"/><polygon fill="none" points="1199.18,375.77,1196.1754,394.5043,1208.0169,392.5601,1199.18,375.77" style="stroke:#181818;stroke-width:1.0;"/></g><!--reverse link GeneralKeySituation to KeySituation--><g id="link_GeneralKeySituation_KeySituation"><path codeLine="30" d="M1210.1244,547.8059 C1206.3644,568.7159 1204.43,579.42 1199.59,606.36 " fill="none" id="GeneralKeySituation-backto-KeySituation" style="stroke:#181818;stroke-width:1.0;"/><polygon fill="none" points="1213.31,530.09,1204.2191,546.744,1216.0297,548.8677,1213.31,530.09" style="stroke:#181818;stroke-width:1.0;"/></g><!--reverse link MechanicKeySituation to KeySituation--><g id="link_MechanicKeySituation_KeySituation"><path codeLine="31" d="M648.4786,537.1394 C662.1686,542.8594 660.07,541.37 674,545.47 C835.58,593.05 889.62,549.38 1048,606.71 C1053.71,608.78 1059.45,611.09 1065.17,613.58 " fill="none" id="MechanicKeySituation-backto-KeySituation" style="stroke:#181818;stroke-width:1.0;"/><polygon fill="none" points="631.87,530.2,646.1654,542.6756,650.7917,531.6033,631.87,530.2" style="stroke:#181818;stroke-width:1.0;"/></g><!--link TaskFinished to ProgramrelatedKeySituation--><g id="link_TaskFinished_ProgramrelatedKeySituation"><path codeLine="35" d="M766.31,234.21 C799.37,255.12 844.6702,283.7911 882.1302,307.5011 " fill="none" id="TaskFinished-to-ProgramrelatedKeySituation" style="stroke:#181818;stroke-width:1.0;"/><polygon fill="#181818" points="887.2,310.71,881.7345,302.5168,882.9752,308.0359,877.456,309.2765,887.2,310.71" style="stroke:#181818;stroke-width:1.0;"/><text fill="#000000" font-family="sans-serif" font-size="13" lengthAdjust="spacing" textLength="70" x="835.5" y="277.5484">instance of</text></g><!--link MechanicDisplayed to MechanicKeySituation--><g id="link_MechanicDisplayed_MechanicKeySituation"><path codeLine="39" d="M363.21,366.2 C403.59,392.14 465.9916,432.2275 511.9216,461.7275 " fill="none" id="MechanicDisplayed-to-MechanicKeySituation" style="stroke:#181818;stroke-width:1.0;"/><polygon fill="#181818" points="516.97,464.97,511.5591,456.7407,512.763,462.2679,507.2358,463.4719,516.97,464.97" style="stroke:#181818;stroke-width:1.0;"/><text fill="#000000" font-family="sans-serif" font-size="13" lengthAdjust="spacing" textLength="70" x="448.5" y="419.0384">instance of</text></g><!--link MechanicInteraction to MechanicKeySituation--><g id="link_MechanicInteraction_MechanicKeySituation"><path codeLine="43" d="M530.87,366.04 C537.85,391.94 547.9799,429.5464 555.9399,459.1064 " fill="none" id="MechanicInteraction-to-MechanicKeySituation" style="stroke:#181818;stroke-width:1.0;"/><polygon fill="#181818" points="557.5,464.9,559.0222,455.1695,556.1999,460.072,551.2974,457.2497,557.5,464.9" style="stroke:#181818;stroke-width:1.0;"/><text fill="#000000" font-family="sans-serif" font-size="13" lengthAdjust="spacing" textLength="70" x="546.5" y="419.0384">instance of</text></g><!--link SessionStarted to SessionRelatedKeySituation--><g id="link_SessionStarted_SessionRelatedKeySituation"><path codeLine="47" d="M1202.33,234.21 C1200.71,255.12 1198.7217,281.0178 1196.8917,304.7278 " fill="none" id="SessionStarted-to-SessionRelatedKeySituation" style="stroke:#181818;stroke-width:1.0;"/><polygon fill="#181818" points="1196.43,310.71,1201.1107,302.0445,1196.8148,305.7248,1193.1344,301.4289,1196.43,310.71" style="stroke:#181818;stroke-width:1.0;"/><text fill="#000000" font-family="sans-serif" font-size="13" lengthAdjust="spacing" textLength="70" x="1200.9" y="277.5484">instance of</text></g><!--link TaskStarted to ProgramrelatedKeySituation--><g id="link_TaskStarted_ProgramrelatedKeySituation"><path codeLine="51" d="M355.18,234.4 C422.87,248.67 514.05,267.14 595,280.98 C688.8,297.02 713.52,293.17 807,310.98 C812.81,312.09 812.8885,312.0449 818.8785,313.3049 " fill="none" id="TaskStarted-to-ProgramrelatedKeySituation" style="stroke:#181818;stroke-width:1.0;"/><polygon fill="#181818" points="824.75,314.54,816.7661,308.773,819.8571,313.5108,815.1194,316.6017,824.75,314.54" style="stroke:#181818;stroke-width:1.0;"/><text fill="#000000" font-family="sans-serif" font-size="13" lengthAdjust="spacing" textLength="70" x="596" y="277.5484">instance of</text></g><!--link TaskEnded to ProgramrelatedKeySituation--><g id="link_TaskEnded_ProgramrelatedKeySituation"><path codeLine="55" d="M568.07,234.43 C639.53,255.31 742.1008,285.2773 822.9108,308.8873 " fill="none" id="TaskEnded-to-ProgramrelatedKeySituation" style="stroke:#181818;stroke-width:1.0;"/><polygon fill="#181818" points="828.67,310.57,821.1529,304.2065,823.8706,309.1678,818.9094,311.8855,828.67,310.57" style="stroke:#181818;stroke-width:1.0;"/><text fill="#000000" font-family="sans-serif" font-size="13" lengthAdjust="spacing" textLength="70" x="716" y="277.5484">instance of</text></g><!--link SessionEnded to SessionRelatedKeySituation--><g id="link_SessionEnded_SessionRelatedKeySituation"><path codeLine="59" d="M1006.91,234.35 C1043.11,255.22 1092.8524,283.9024 1133.8424,307.5424 " fill="none" id="SessionEnded-to-SessionRelatedKeySituation" style="stroke:#181818;stroke-width:1.0;"/><polygon fill="#181818" points="1139.04,310.54,1133.242,302.5786,1134.7087,308.042,1129.2453,309.5087,1139.04,310.54" style="stroke:#181818;stroke-width:1.0;"/><text fill="#000000" font-family="sans-serif" font-size="13" lengthAdjust="spacing" textLength="70" x="1082.5" y="277.5484">instance of</text></g><!--link ScreenEntered to GeneralKeySituation--><g id="link_ScreenEntered_GeneralKeySituation"><path codeLine="63" d="M778.33,366.21 C788.22,369.44 798.36,372.63 808,375.47 C889.38,399.44 909.21,409.21 993,422.47 C1047.11,431.03 1063.95,413.37 1116,430.47 C1139,438.02 1157.0553,448.4558 1175.4353,461.5658 " fill="none" id="ScreenEntered-to-GeneralKeySituation" style="stroke:#181818;stroke-width:1.0;"/><polygon fill="#181818" points="1180.32,465.05,1175.3157,456.5673,1176.2494,462.1465,1170.6701,463.0802,1180.32,465.05" style="stroke:#181818;stroke-width:1.0;"/><text fill="#000000" font-family="sans-serif" font-size="13" lengthAdjust="spacing" textLength="70" x="994" y="419.0384">instance of</text></g><!--link Program to KeySituation--><g id="link_Program_KeySituation"><path codeLine="80" d="M1378.9,521.64 C1354.06,542.87 1320.3397,571.7002 1284.3397,602.4902 " fill="none" id="Program-to-KeySituation" style="stroke:#181818;stroke-width:1.0;"/><polygon fill="#181818" points="1279.78,606.39,1289.2195,603.5801,1283.5798,603.1401,1284.0197,597.5004,1279.78,606.39" style="stroke:#181818;stroke-width:1.0;"/><text fill="#000000" font-family="sans-serif" font-size="13" lengthAdjust="spacing" textLength="49" x="1329.21" y="573.2784">triggers</text></g><!--link Adherence to TaskFinished--><g id="link_Adherence_TaskFinished"><path codeLine="81" d="M732,89.22 C732,116.66 732,155.97 732,182.75 " fill="none" id="Adherence-to-TaskFinished" style="stroke:#181818;stroke-width:1.0;"/><polygon fill="#181818" points="732,188.75,736,179.75,732,183.75,728,179.75,732,188.75" style="stroke:#181818;stroke-width:1.0;"/><text fill="#000000" font-family="sans-serif" font-size="13" lengthAdjust="spacing" textLength="71" x="733" y="134.5684">informedBy</text></g><!--SRC=[dLLDRzim3BtdLn3PSKvs7OoYm8QsGp4469RkN30oxMYnPK-K0mHR__ieVwIsupX1ShAOHxwd9qeiKEqm8VXEXxLs9JgT6uOFz3d6M7xmTmQWKcJk8Qemm4STXQ2DgnSbattk1fpEY1rcHGWFwEX5blKV6Qaj6grwQ5QMo8ImTbQRf8xjCIqfX3ZDqRMf3YDq6C8AYxiQ6pGvzm9vcnq5hngMQU5LJfloZGnPJ2zjjPVpm-Q9nSnIAdkCfbDzrWJ-xjzYCQhXVLDhOfR8pslP9l2JR6FnAg6FX76NJv2-PBxvJSh12_BkIHlDMueasbr2EE7E4BjOt4zv6S9S6-a-emZoUDuHq2f-q5oaUAXKdCGaVsnder2lPDI6ongUZHERrQ1q9tfPHnTyWvAcGTOEhQkiw0SaytmBdQAzW8cMEo_37-sxXixgcfxeij_K4hx8eucEtDNtDSmry6RUnggMkhkyqlXt0JVPlguUtKVVGhM2xbhoHfw14vGd7tikHbXDxWXIYfq4O52qAg5L_u5XPqlbIaiWqoM2EBUGbQdJHKgmeItkTIwqaEO91rA3IxK5PAXd2UmrQyS1jFD6YiYi2m1D15pR1Kxkpaw6nrBIIU9UuedKSHj-jP8yFPIcENjmEN11IiV2c616HtwHqYhqOliYavf3H2GYCYFZ0f3QM1Irx4c1Pzw8ey9MmU8ehEDUQq4WSqEbPLIFtwDf_ctPLnK3Y2tzASceGxKJ9Hv-Yb6dSa2rgp5Hj95gFR5li-Pol0harLyRNZQHgdc6NIF3F4d8ydos8lbMNEMj25bul36y_19jfVTyPmqBy78mKQG9nO6Ceg-7-Ny0]--></g></svg>