<?xml version="1.0" encoding="us-ascii" standalone="no"?><svg xmlns="http://www.w3.org/2000/svg" xmlns:xlink="http://www.w3.org/1999/xlink" contentStyleType="text/css" height="349px" preserveAspectRatio="none" style="width:1220px;height:349px;background:#FFFFFF;" version="1.1" viewBox="0 0 1220 349" width="1220px" zoomAndPan="magnify"><defs/><g><!--cluster KeySituations--><g id="cluster_KeySituations"><path d="M8.5,6 L108.5,6 A3.75,3.75 0 0 1 111,8.5 L118,28.4883 L1210.5,28.4883 A2.5,2.5 0 0 1 1213,30.9883 L1213,339.89 A2.5,2.5 0 0 1 1210.5,342.39 L8.5,342.39 A2.5,2.5 0 0 1 6,339.89 L6,8.5 A2.5,2.5 0 0 1 8.5,6 " fill="none" style="stroke:#000000;stroke-width:1.5;"/><line style="stroke:#000000;stroke-width:1.5;" x1="6" x2="118" y1="28.4883" y2="28.4883"/><text fill="#000000" font-family="sans-serif" font-size="14" font-weight="bold" lengthAdjust="spacing" textLength="99" x="10" y="21.5352">KeySituations</text></g><!--class KeySituation--><g id="elem_KeySituation"><rect codeLine="3" fill="#F1F1F1" height="163.418" id="KeySituation" rx="2.5" ry="2.5" style="stroke:#181818;stroke-width:0.5;" width="239" x="544.5" y="162.97"/><ellipse cx="617.25" cy="178.97" fill="#ADD1B2" rx="11" ry="11" style="stroke:#181818;stroke-width:1.0;"/><path d="M619.7231,185.1131 Q619.1421,185.4119 618.5029,185.5613 Q617.8638,185.7107 617.1582,185.7107 Q614.6514,185.7107 613.3315,184.0589 Q612.0117,182.407 612.0117,179.2859 Q612.0117,176.1565 613.3315,174.5047 Q614.6514,172.8528 617.1582,172.8528 Q617.8638,172.8528 618.5112,173.0022 Q619.1587,173.1516 619.7231,173.4505 L619.7231,176.1731 Q619.0923,175.5921 618.4988,175.3223 Q617.9053,175.0525 617.2744,175.0525 Q615.9297,175.0525 615.2449,176.1192 Q614.5601,177.1858 614.5601,179.2859 Q614.5601,181.3777 615.2449,182.4444 Q615.9297,183.511 617.2744,183.511 Q617.9053,183.511 618.4988,183.2412 Q619.0923,182.9715 619.7231,182.3904 Z " fill="#000000"/><text fill="#000000" font-family="sans-serif" font-size="14" lengthAdjust="spacing" textLength="85" x="637.75" y="184.261">KeySituation</text><line style="stroke:#181818;stroke-width:0.5;" x1="545.5" x2="782.5" y1="194.97" y2="194.97"/><ellipse cx="555.5" cy="208.7141" fill="none" rx="3" ry="3" style="stroke:#038048;stroke-width:1.0;"/><text fill="#000000" font-family="sans-serif" font-size="14" lengthAdjust="spacing" textLength="39" x="564.5" y="212.5052">id: int</text><ellipse cx="555.5" cy="225.2024" fill="none" rx="3" ry="3" style="stroke:#038048;stroke-width:1.0;"/><text fill="#000000" font-family="sans-serif" font-size="14" lengthAdjust="spacing" textLength="69" x="564.5" y="228.9934">userId: int</text><ellipse cx="555.5" cy="241.6907" fill="none" rx="3" ry="3" style="stroke:#038048;stroke-width:1.0;"/><text fill="#000000" font-family="sans-serif" font-size="14" lengthAdjust="spacing" textLength="145" x="564.5" y="245.4817">timestamp: DateTime</text><ellipse cx="555.5" cy="258.179" fill="none" rx="3" ry="3" style="stroke:#038048;stroke-width:1.0;"/><text fill="#000000" font-family="sans-serif" font-size="14" lengthAdjust="spacing" textLength="104" x="564.5" y="261.97">mechanicId: int</text><ellipse cx="555.5" cy="274.6673" fill="none" rx="3" ry="3" style="stroke:#038048;stroke-width:1.0;"/><text fill="#000000" font-family="sans-serif" font-size="14" lengthAdjust="spacing" textLength="94" x="564.5" y="278.4583">screen: String</text><ellipse cx="555.5" cy="291.1555" fill="none" rx="3" ry="3" style="stroke:#038048;stroke-width:1.0;"/><text fill="#000000" font-family="sans-serif" font-size="14" lengthAdjust="spacing" textLength="75" x="564.5" y="294.9466">value: float</text><ellipse cx="555.5" cy="307.6438" fill="none" rx="3" ry="3" style="stroke:#038048;stroke-width:1.0;"/><text fill="#000000" font-family="sans-serif" font-size="14" lengthAdjust="spacing" textLength="213" x="564.5" y="311.4348">metadata: Map&lt;String, String&gt;</text><line style="stroke:#181818;stroke-width:0.5;" x1="545.5" x2="782.5" y1="318.388" y2="318.388"/></g><g id="elem_TaskFinished"><rect fill="#F1F1F1" height="44.9766" style="stroke:#181818;stroke-width:0.5;" width="104" x="22" y="41"/><text fill="#000000" font-family="sans-serif" font-size="14" lengthAdjust="spacing" textLength="90" x="29" y="56.5352">TaskFinished</text><line style="stroke:#181818;stroke-width:0.5;" x1="23" x2="125" y1="61.4883" y2="61.4883"/><text fill="#000000" font-family="sans-serif" font-size="14" lengthAdjust="spacing" textLength="85" x="28" y="79.0234">KeySituation</text></g><g id="elem_MechanicDisplayed"><rect fill="#F1F1F1" height="44.9766" style="stroke:#181818;stroke-width:0.5;" width="144" x="161" y="41"/><text fill="#000000" font-family="sans-serif" font-size="14" lengthAdjust="spacing" textLength="130" x="168" y="56.5352">MechanicDisplayed</text><line style="stroke:#181818;stroke-width:0.5;" x1="162" x2="304" y1="61.4883" y2="61.4883"/><text fill="#000000" font-family="sans-serif" font-size="14" lengthAdjust="spacing" textLength="85" x="167" y="79.0234">KeySituation</text></g><g id="elem_MechanicInteraction"><rect fill="#F1F1F1" height="44.9766" style="stroke:#181818;stroke-width:0.5;" width="152" x="340" y="41"/><text fill="#000000" font-family="sans-serif" font-size="14" lengthAdjust="spacing" textLength="138" x="347" y="56.5352">MechanicInteraction</text><line style="stroke:#181818;stroke-width:0.5;" x1="341" x2="491" y1="61.4883" y2="61.4883"/><text fill="#000000" font-family="sans-serif" font-size="14" lengthAdjust="spacing" textLength="85" x="346" y="79.0234">KeySituation</text></g><g id="elem_SessionStarted"><rect fill="#F1F1F1" height="44.9766" style="stroke:#181818;stroke-width:0.5;" width="115" x="526.5" y="41"/><text fill="#000000" font-family="sans-serif" font-size="14" lengthAdjust="spacing" textLength="101" x="533.5" y="56.5352">SessionStarted</text><line style="stroke:#181818;stroke-width:0.5;" x1="527.5" x2="640.5" y1="61.4883" y2="61.4883"/><text fill="#000000" font-family="sans-serif" font-size="14" lengthAdjust="spacing" textLength="85" x="532.5" y="79.0234">KeySituation</text></g><g id="elem_TaskStarted"><rect fill="#F1F1F1" height="44.9766" style="stroke:#181818;stroke-width:0.5;" width="97" x="676.5" y="41"/><text fill="#000000" font-family="sans-serif" font-size="14" lengthAdjust="spacing" textLength="81" x="684.5" y="56.5352">TaskStarted</text><line style="stroke:#181818;stroke-width:0.5;" x1="677.5" x2="772.5" y1="61.4883" y2="61.4883"/><text fill="#000000" font-family="sans-serif" font-size="14" lengthAdjust="spacing" textLength="85" x="682.5" y="79.0234">KeySituation</text></g><g id="elem_TaskEnded"><rect fill="#F1F1F1" height="44.9766" style="stroke:#181818;stroke-width:0.5;" width="97" x="808.5" y="41"/><text fill="#000000" font-family="sans-serif" font-size="14" lengthAdjust="spacing" textLength="75" x="819.5" y="56.5352">TaskEnded</text><line style="stroke:#181818;stroke-width:0.5;" x1="809.5" x2="904.5" y1="61.4883" y2="61.4883"/><text fill="#000000" font-family="sans-serif" font-size="14" lengthAdjust="spacing" textLength="85" x="814.5" y="79.0234">KeySituation</text></g><g id="elem_SessionEnded"><rect fill="#F1F1F1" height="44.9766" style="stroke:#181818;stroke-width:0.5;" width="109" x="940.5" y="41"/><text fill="#000000" font-family="sans-serif" font-size="14" lengthAdjust="spacing" textLength="95" x="947.5" y="56.5352">SessionEnded</text><line style="stroke:#181818;stroke-width:0.5;" x1="941.5" x2="1048.5" y1="61.4883" y2="61.4883"/><text fill="#000000" font-family="sans-serif" font-size="14" lengthAdjust="spacing" textLength="85" x="946.5" y="79.0234">KeySituation</text></g><g id="elem_ScreenEntered"><rect fill="#F1F1F1" height="44.9766" style="stroke:#181818;stroke-width:0.5;" width="113" x="1084.5" y="41"/><text fill="#000000" font-family="sans-serif" font-size="14" lengthAdjust="spacing" textLength="99" x="1091.5" y="56.5352">ScreenEntered</text><line style="stroke:#181818;stroke-width:0.5;" x1="1085.5" x2="1196.5" y1="61.4883" y2="61.4883"/><text fill="#000000" font-family="sans-serif" font-size="14" lengthAdjust="spacing" textLength="85" x="1090.5" y="79.0234">KeySituation</text></g><g id="elem_GMN20"><path d="M82.5,224.37 L82.5,264.9911 A0,0 0 0 0 82.5,264.9911 L509.5,264.9911 A0,0 0 0 0 509.5,264.9911 L509.5,248.68 L544.16,244.68 L509.5,240.68 L509.5,234.37 L499.5,224.37 L82.5,224.37 A0,0 0 0 0 82.5,224.37 " fill="#FEFFDD" style="stroke:#181818;stroke-width:0.5;"/><path d="M499.5,224.37 L499.5,234.37 L509.5,234.37 L499.5,224.37 " fill="#FEFFDD" style="stroke:#181818;stroke-width:0.5;"/><text fill="#000000" font-family="sans-serif" font-size="13" lengthAdjust="spacing" textLength="406" x="88.5" y="241.9384">Generic KeySituation structure used for multiple behavioral logs,</text><text fill="#000000" font-family="sans-serif" font-size="13" lengthAdjust="spacing" textLength="383" x="88.5" y="257.2489">such as screen visits, mechanic usage, and session tracking.</text></g><!--link TaskFinished to KeySituation--><g id="link_TaskFinished_KeySituation"><path codeLine="15" d="M126.1,85.03 C167.27,100.47 226.5,120.96 280,132.97 C387.9,157.2 422.26,127.49 527,162.97 C532.75,164.92 532.9964,164.8107 538.7464,167.2207 " fill="none" id="TaskFinished-to-KeySituation" style="stroke:#181818;stroke-width:1.0;"/><polygon fill="#181818" points="544.28,169.54,537.5258,162.372,539.6687,167.6072,534.4334,169.7501,544.28,169.54" style="stroke:#181818;stroke-width:1.0;"/><text fill="#000000" font-family="sans-serif" font-size="13" lengthAdjust="spacing" textLength="70" x="281" y="129.5384">instance of</text></g><!--link MechanicDisplayed to KeySituation--><g id="link_MechanicDisplayed_KeySituation"><path codeLine="19" d="M284.39,86.4 C319.17,100.75 366.38,119.32 409,132.97 C460.53,149.48 476.96,142.37 527,162.97 C532.74,165.34 533.1147,165.3475 538.8947,168.0775 " fill="none" id="MechanicDisplayed-to-KeySituation" style="stroke:#181818;stroke-width:1.0;"/><polygon fill="#181818" points="544.32,170.64,537.8904,163.1794,539.7989,168.5046,534.4738,170.4132,544.32,170.64" style="stroke:#181818;stroke-width:1.0;"/><text fill="#000000" font-family="sans-serif" font-size="13" lengthAdjust="spacing" textLength="70" x="410" y="129.5384">instance of</text></g><!--link MechanicInteraction to KeySituation--><g id="link_MechanicInteraction_KeySituation"><path codeLine="23" d="M446.41,86.46 C472.92,105.62 508.2266,131.1262 546.8566,159.0362 " fill="none" id="MechanicInteraction-to-KeySituation" style="stroke:#181818;stroke-width:1.0;"/><polygon fill="#181818" points="551.72,162.55,546.7674,154.037,547.6671,159.6218,542.0823,160.5216,551.72,162.55" style="stroke:#181818;stroke-width:1.0;"/><text fill="#000000" font-family="sans-serif" font-size="13" lengthAdjust="spacing" textLength="70" x="511.49" y="129.5384">instance of</text></g><!--link SessionStarted to KeySituation--><g id="link_SessionStarted_KeySituation"><path codeLine="27" d="M593.81,86.46 C602.36,105.62 612.8741,129.1612 625.3341,157.0712 " fill="none" id="SessionStarted-to-KeySituation" style="stroke:#181818;stroke-width:1.0;"/><polygon fill="#181818" points="627.78,162.55,627.7636,152.7012,625.7417,157.9843,620.4586,155.9624,627.78,162.55" style="stroke:#181818;stroke-width:1.0;"/><text fill="#000000" font-family="sans-serif" font-size="13" lengthAdjust="spacing" textLength="70" x="615.48" y="129.5384">instance of</text></g><!--link TaskStarted to KeySituation--><g id="link_TaskStarted_KeySituation"><path codeLine="31" d="M717.52,86.46 C711,105.62 703.0533,128.96 693.5533,156.87 " fill="none" id="TaskStarted-to-KeySituation" style="stroke:#181818;stroke-width:1.0;"/><polygon fill="#181818" points="691.62,162.55,698.3067,155.3189,693.2311,157.8167,690.7334,152.7411,691.62,162.55" style="stroke:#181818;stroke-width:1.0;"/><text fill="#000000" font-family="sans-serif" font-size="13" lengthAdjust="spacing" textLength="70" x="707.98" y="129.5384">instance of</text></g><!--link TaskEnded to KeySituation--><g id="link_TaskEnded_KeySituation"><path codeLine="35" d="M835.16,86.31 C821.46,99.89 803.36,117.61 787,132.97 C776.73,142.61 770.3228,148.5664 759.5028,158.4364 " fill="none" id="TaskEnded-to-KeySituation" style="stroke:#181818;stroke-width:1.0;"/><polygon fill="#181818" points="755.07,162.48,764.4149,159.3698,758.764,159.1104,759.0234,153.4595,755.07,162.48" style="stroke:#181818;stroke-width:1.0;"/><text fill="#000000" font-family="sans-serif" font-size="13" lengthAdjust="spacing" textLength="70" x="805.51" y="129.5384">instance of</text></g><!--link SessionEnded to KeySituation--><g id="link_SessionEnded_KeySituation"><path codeLine="39" d="M961.78,86.28 C940.21,100.16 911.3,118.24 885,132.97 C852.62,151.11 822.2456,166.9548 789.1356,183.5248 " fill="none" id="SessionEnded-to-KeySituation" style="stroke:#181818;stroke-width:1.0;"/><polygon fill="#181818" points="783.77,186.21,793.6085,185.7592,788.2413,183.9723,790.0282,178.6051,783.77,186.21" style="stroke:#181818;stroke-width:1.0;"/><text fill="#000000" font-family="sans-serif" font-size="13" lengthAdjust="spacing" textLength="70" x="913.65" y="129.5384">instance of</text></g><!--link ScreenEntered to KeySituation--><g id="link_ScreenEntered_KeySituation"><path codeLine="43" d="M1096.86,86.44 C1067.72,100.56 1028.51,118.83 993,132.97 C924.69,160.18 852.482,184.7535 789.622,204.9635 " fill="none" id="ScreenEntered-to-KeySituation" style="stroke:#181818;stroke-width:1.0;"/><polygon fill="#181818" points="783.91,206.8,793.7024,207.8533,788.67,205.2696,791.2537,200.2373,783.91,206.8" style="stroke:#181818;stroke-width:1.0;"/><text fill="#000000" font-family="sans-serif" font-size="13" lengthAdjust="spacing" textLength="70" x="1031.11" y="129.5384">instance of</text></g><!--SRC=[dLJRRi8m37tFLrXxNTa7L1DFi0bDF9KVCAaB6MbInIuIclZtfHIsXei6U_CvTivndBeDwWsk23veLnXfKOnt35zAQOlC2HrPW6TJvc2ST67B56Q_K4nDB5WtEKnGQ15XHzUar-YC7bIo3aGkXqA2SQkEsQ9jAOVAUfJ-a629WZdCiNdjwx9Z_LZjbVBBJz822-JDct66rrIg8O0ywJtDZKRZz6OvF1aNUtUQm5TFF_BpO-yJmut5NVIuOCwDBWiUTfiveO0waHjmjno79NTx5iGSyuLWa7Yz59uxdMNlDkc6Vt8OnDVUw5_QKrSUbG_HDTq-yUXOUk4Xk36IH-KF2p3j7gpJ7w8BWoJvjuFpGc2faWXJfNTo58nEpxE4LaiR2E8sbr3v07LhnJIMO4bht1eVq8BrAyuKjteDoD3lBsmD6-4CJXiU9UAl90Dq9N0_5v3uHMxYqhueYcpNd5BxRm00]--></g></svg>