<?xml version="1.0" encoding="us-ascii" standalone="no"?><svg xmlns="http://www.w3.org/2000/svg" xmlns:xlink="http://www.w3.org/1999/xlink" contentStyleType="text/css" height="2024.5209px" preserveAspectRatio="none" style="width:3935px;height:2024px;background:#FFFFFF;" version="1.1" viewBox="0 0 3935 2024" width="3935.4207px" zoomAndPan="magnify"><defs/><g><text fill="#000000" font-family="sans-serif" font-size="36.1522" font-weight="bold" lengthAdjust="spacing" textLength="1100.0585" x="1399.605" y="60.7748">Motivational Assistant &#8212; Event-Driven Plugin Architecture</text><!--cluster Main_System--><g id="cluster_Main_System"><rect fill="#EBFFE8" height="475.1427" rx="6.4557" ry="6.4557" style="stroke:#000000;stroke-width:3.8734455951577154;" width="3666.8618" x="249.1917" y="438.4696"/><text fill="#000000" font-family="sans-serif" font-size="36.1522" font-weight="bold" lengthAdjust="spacing" textLength="242.7359" x="1961.2546" y="478.586">Main_System</text></g><!--cluster MA_Adapter--><g id="cluster_MA_Adapter"><rect fill="#EBFFE8" height="374.4331" rx="6.4557" ry="6.4557" style="stroke:#000000;stroke-width:3.8734455951577154;" width="395.0915" x="3496.4302" y="996.2458"/><text fill="#000000" font-family="sans-serif" font-size="36.1522" font-weight="bold" lengthAdjust="spacing" textLength="222.0775" x="3582.9372" y="1036.3622">MA_Adapter</text></g><!--cluster Motivational_Assistant--><g id="cluster_Motivational_Assistant"><rect fill="#E8E8FF" height="557.7762" rx="6.4557" ry="6.4557" style="stroke:#000000;stroke-width:3.8734455951577154;" width="3669.4441" x="250.4828" y="1453.3123"/><text fill="#000000" font-family="sans-serif" font-size="36.1522" font-weight="bold" lengthAdjust="spacing" textLength="428.6613" x="1870.8742" y="1493.4287">Motivational_Assistant</text></g><!--class UI--><g id="elem_UI"><rect codeLine="16" fill="#F1F1F1" height="82.6335" id="UI" rx="6.4557" ry="6.4557" style="stroke:#181818;stroke-width:1.2911485317192384;" width="118.7857" x="1790.823" y="570.1668"/><ellipse cx="1829.5575" cy="611.4835" fill="#ADD1B2" rx="28.4053" ry="28.4053" style="stroke:#181818;stroke-width:2.5822970634384768;"/><path d="M1835.9439,627.3467 Q1834.4434,628.1184 1832.7929,628.5042 Q1831.1424,628.8901 1829.3204,628.8901 Q1822.847,628.8901 1819.4388,624.6245 Q1816.0307,620.3589 1816.0307,612.2993 Q1816.0307,604.2183 1819.4388,599.9527 Q1822.847,595.6871 1829.3204,595.6871 Q1831.1424,595.6871 1832.8143,596.0729 Q1834.4863,596.4588 1835.9439,597.2304 L1835.9439,604.2611 Q1834.3148,602.7607 1832.7822,602.064 Q1831.2496,601.3674 1829.6205,601.3674 Q1826.148,601.3674 1824.3796,604.1218 Q1822.6112,606.8762 1822.6112,612.2993 Q1822.6112,617.7009 1824.3796,620.4553 Q1826.148,623.2098 1829.6205,623.2098 Q1831.2496,623.2098 1832.7822,622.5131 Q1834.3148,621.8165 1835.9439,620.316 Z " fill="#000000"/><text fill="#000000" font-family="sans-serif" font-size="36.1522" lengthAdjust="spacing" textLength="36.1522" x="1865.7096" y="625.1465">UI</text></g><!--class EventBus--><g id="elem_EventBus"><rect codeLine="17" fill="#F1F1F1" height="82.6335" id="EventBus" rx="6.4557" ry="6.4557" style="stroke:#181818;stroke-width:1.2911485317192384;" width="240.1536" x="2817.2861" y="732.8515"/><ellipse cx="2856.0206" cy="774.1682" fill="#ADD1B2" rx="28.4053" ry="28.4053" style="stroke:#181818;stroke-width:2.5822970634384768;"/><path d="M2862.4069,790.0314 Q2860.9065,790.8031 2859.256,791.1889 Q2857.6055,791.5748 2855.7835,791.5748 Q2849.3101,791.5748 2845.9019,787.3092 Q2842.4938,783.0436 2842.4938,774.984 Q2842.4938,766.903 2845.9019,762.6374 Q2849.3101,758.3718 2855.7835,758.3718 Q2857.6055,758.3718 2859.2774,758.7577 Q2860.9494,759.1435 2862.4069,759.9152 L2862.4069,766.9459 Q2860.7779,765.4454 2859.2453,764.7488 Q2857.7127,764.0521 2856.0836,764.0521 Q2852.6111,764.0521 2850.8427,766.8065 Q2849.0743,769.5609 2849.0743,774.984 Q2849.0743,780.3857 2850.8427,783.1401 Q2852.6111,785.8945 2856.0836,785.8945 Q2857.7127,785.8945 2859.2453,785.1978 Q2860.7779,784.5012 2862.4069,783.0007 Z " fill="#000000"/><text fill="#000000" font-family="sans-serif" font-size="36.1522" lengthAdjust="spacing" textLength="157.5201" x="2892.1727" y="787.8312">EventBus</text></g><!--class KeySituations--><g id="elem_KeySituations"><rect codeLine="18" fill="#F1F1F1" height="82.6335" id="KeySituations" rx="6.4557" ry="6.4557" style="stroke:#181818;stroke-width:1.2911485317192384;" width="320.2048" x="3533.8735" y="732.8515"/><ellipse cx="3572.608" cy="774.1682" fill="#ADD1B2" rx="28.4053" ry="28.4053" style="stroke:#181818;stroke-width:2.5822970634384768;"/><path d="M3578.9944,790.0314 Q3577.4939,790.8031 3575.8434,791.1889 Q3574.1929,791.5748 3572.3709,791.5748 Q3565.8975,791.5748 3562.4894,787.3092 Q3559.0812,783.0436 3559.0812,774.984 Q3559.0812,766.903 3562.4894,762.6374 Q3565.8975,758.3718 3572.3709,758.3718 Q3574.1929,758.3718 3575.8649,758.7577 Q3577.5368,759.1435 3578.9944,759.9152 L3578.9944,766.9459 Q3577.3653,765.4454 3575.8327,764.7488 Q3574.3001,764.0521 3572.671,764.0521 Q3569.1985,764.0521 3567.4302,766.8065 Q3565.6618,769.5609 3565.6618,774.984 Q3565.6618,780.3857 3567.4302,783.1401 Q3569.1985,785.8945 3572.671,785.8945 Q3574.3001,785.8945 3575.8327,785.1978 Q3577.3653,784.5012 3578.9944,783.0007 Z " fill="#000000"/><text fill="#000000" font-family="sans-serif" font-size="36.1522" lengthAdjust="spacing" textLength="237.5713" x="3608.7601" y="787.8312">KeySituations</text></g><!--class ContentEngine--><g id="elem_ContentEngine"><rect codeLine="19" fill="#F1F1F1" height="82.6335" id="ContentEngine" rx="6.4557" ry="6.4557" style="stroke:#181818;stroke-width:1.2911485317192384;" width="346.0278" x="311.1668" y="732.8515"/><ellipse cx="349.9013" cy="774.1682" fill="#ADD1B2" rx="28.4053" ry="28.4053" style="stroke:#181818;stroke-width:2.5822970634384768;"/><path d="M356.2876,790.0314 Q354.7872,790.8031 353.1367,791.1889 Q351.4862,791.5748 349.6642,791.5748 Q343.1908,791.5748 339.7826,787.3092 Q336.3745,783.0436 336.3745,774.984 Q336.3745,766.903 339.7826,762.6374 Q343.1908,758.3718 349.6642,758.3718 Q351.4862,758.3718 353.1581,758.7577 Q354.8301,759.1435 356.2876,759.9152 L356.2876,766.9459 Q354.6586,765.4454 353.126,764.7488 Q351.5934,764.0521 349.9643,764.0521 Q346.4918,764.0521 344.7234,766.8065 Q342.955,769.5609 342.955,774.984 Q342.955,780.3857 344.7234,783.1401 Q346.4918,785.8945 349.9643,785.8945 Q351.5934,785.8945 353.126,785.1978 Q354.6586,784.5012 356.2876,783.0007 Z " fill="#000000"/><text fill="#000000" font-family="sans-serif" font-size="36.1522" lengthAdjust="spacing" textLength="263.3943" x="386.0534" y="787.8312">ContentEngine</text></g><!--class EventMapper--><g id="elem_EventMapper"><rect codeLine="23" fill="#F1F1F1" height="82.6335" id="EventMapper" rx="6.4557" ry="6.4557" style="stroke:#181818;stroke-width:1.2911485317192384;" width="312.4579" x="3537.747" y="1086.6262"/><ellipse cx="3576.4814" cy="1127.9429" fill="#ADD1B2" rx="28.4053" ry="28.4053" style="stroke:#181818;stroke-width:2.5822970634384768;"/><path d="M3582.8678,1143.8061 Q3581.3674,1144.5778 3579.7169,1144.9636 Q3578.0664,1145.3495 3576.2444,1145.3495 Q3569.771,1145.3495 3566.3628,1141.0839 Q3562.9546,1136.8183 3562.9546,1128.7587 Q3562.9546,1120.6777 3566.3628,1116.4121 Q3569.771,1112.1465 3576.2444,1112.1465 Q3578.0664,1112.1465 3579.7383,1112.5324 Q3581.4102,1112.9182 3582.8678,1113.6898 L3582.8678,1120.7206 Q3581.2388,1119.2201 3579.7062,1118.5235 Q3578.1735,1117.8268 3576.5445,1117.8268 Q3573.072,1117.8268 3571.3036,1120.5812 Q3569.5352,1123.3356 3569.5352,1128.7587 Q3569.5352,1134.1604 3571.3036,1136.9148 Q3573.072,1139.6692 3576.5445,1139.6692 Q3578.1735,1139.6692 3579.7062,1138.9725 Q3581.2388,1138.2759 3582.8678,1136.7754 Z " fill="#000000"/><text fill="#000000" font-family="sans-serif" font-size="36.1522" lengthAdjust="spacing" textLength="229.8244" x="3612.6336" y="1141.6059">EventMapper</text></g><!--class ActionBridge--><g id="elem_ActionBridge"><rect codeLine="24" fill="#F1F1F1" height="82.6335" id="ActionBridge" rx="6.4557" ry="6.4557" style="stroke:#181818;stroke-width:1.2911485317192384;" width="309.8756" x="3539.0381" y="1246.7286"/><ellipse cx="3577.7726" cy="1288.0453" fill="#ADD1B2" rx="28.4053" ry="28.4053" style="stroke:#181818;stroke-width:2.5822970634384768;"/><path d="M3584.159,1303.9086 Q3582.6585,1304.6802 3581.008,1305.0661 Q3579.3575,1305.4519 3577.5355,1305.4519 Q3571.0621,1305.4519 3567.654,1301.1863 Q3564.2458,1296.9207 3564.2458,1288.8611 Q3564.2458,1280.7801 3567.654,1276.5145 Q3571.0621,1272.2489 3577.5355,1272.2489 Q3579.3575,1272.2489 3581.0295,1272.6348 Q3582.7014,1273.0206 3584.159,1273.7923 L3584.159,1280.823 Q3582.5299,1279.3225 3580.9973,1278.6259 Q3579.4647,1277.9292 3577.8356,1277.9292 Q3574.3631,1277.9292 3572.5947,1280.6836 Q3570.8264,1283.4381 3570.8264,1288.8611 Q3570.8264,1294.2628 3572.5947,1297.0172 Q3574.3631,1299.7716 3577.8356,1299.7716 Q3579.4647,1299.7716 3580.9973,1299.0749 Q3582.5299,1298.3783 3584.159,1296.8779 Z " fill="#000000"/><text fill="#000000" font-family="sans-serif" font-size="36.1522" lengthAdjust="spacing" textLength="227.2421" x="3613.9247" y="1301.7083">ActionBridge</text></g><!--class EventIngestion--><g id="elem_EventIngestion"><rect codeLine="28" fill="#D6D6FF" height="82.6335" id="EventIngestion" rx="6.4557" ry="6.4557" style="stroke:#181818;stroke-width:1.2911485317192384;" width="343.4455" x="312.4579" y="1683.1368"/><ellipse cx="351.1924" cy="1724.4535" fill="#ADD1B2" rx="28.4053" ry="28.4053" style="stroke:#181818;stroke-width:2.5822970634384768;"/><path d="M357.5788,1740.3168 Q356.0783,1741.0884 354.4278,1741.4743 Q352.7773,1741.8601 350.9554,1741.8601 Q344.482,1741.8601 341.0738,1737.5945 Q337.6656,1733.3289 337.6656,1725.2693 Q337.6656,1717.1883 341.0738,1712.9227 Q344.482,1708.6571 350.9554,1708.6571 Q352.7773,1708.6571 354.4493,1709.043 Q356.1212,1709.4288 357.5788,1710.2005 L357.5788,1717.2312 Q355.9497,1715.7307 354.4171,1715.0341 Q352.8845,1714.3374 351.2554,1714.3374 Q347.783,1714.3374 346.0146,1717.0919 Q344.2462,1719.8463 344.2462,1725.2693 Q344.2462,1730.671 346.0146,1733.4254 Q347.783,1736.1798 351.2554,1736.1798 Q352.8845,1736.1798 354.4171,1735.4832 Q355.9497,1734.7865 357.5788,1733.2861 Z " fill="#000000"/><text fill="#000000" font-family="sans-serif" font-size="36.1522" lengthAdjust="spacing" textLength="260.812" x="387.3446" y="1738.1165">EventIngestion</text></g><!--class MetricsEngine--><g id="elem_MetricsEngine"><rect codeLine="29" fill="#D6D6FF" height="82.6335" id="MetricsEngine" rx="6.4557" ry="6.4557" style="stroke:#181818;stroke-width:1.2911485317192384;" width="330.534" x="1684.9488" y="1683.1368"/><ellipse cx="1723.6833" cy="1724.4535" fill="#ADD1B2" rx="28.4053" ry="28.4053" style="stroke:#181818;stroke-width:2.5822970634384768;"/><path d="M1730.0697,1740.3168 Q1728.5692,1741.0884 1726.9187,1741.4743 Q1725.2682,1741.8601 1723.4462,1741.8601 Q1716.9728,1741.8601 1713.5647,1737.5945 Q1710.1565,1733.3289 1710.1565,1725.2693 Q1710.1565,1717.1883 1713.5647,1712.9227 Q1716.9728,1708.6571 1723.4462,1708.6571 Q1725.2682,1708.6571 1726.9402,1709.043 Q1728.6121,1709.4288 1730.0697,1710.2005 L1730.0697,1717.2312 Q1728.4406,1715.7307 1726.908,1715.0341 Q1725.3754,1714.3374 1723.7463,1714.3374 Q1720.2739,1714.3374 1718.5055,1717.0919 Q1716.7371,1719.8463 1716.7371,1725.2693 Q1716.7371,1730.671 1718.5055,1733.4254 Q1720.2739,1736.1798 1723.7463,1736.1798 Q1725.3754,1736.1798 1726.908,1735.4832 Q1728.4406,1734.7865 1730.0697,1733.2861 Z " fill="#000000"/><text fill="#000000" font-family="sans-serif" font-size="36.1522" lengthAdjust="spacing" textLength="247.9005" x="1759.8354" y="1738.1165">MetricsEngine</text></g><!--class DecisionEngine--><g id="elem_DecisionEngine"><rect codeLine="30" fill="#D6D6FF" height="82.6335" id="DecisionEngine" rx="6.4557" ry="6.4557" style="stroke:#181818;stroke-width:1.2911485317192384;" width="353.7747" x="2760.4756" y="1585.0095"/><ellipse cx="2799.21" cy="1626.3263" fill="#ADD1B2" rx="28.4053" ry="28.4053" style="stroke:#181818;stroke-width:2.5822970634384768;"/><path d="M2805.5964,1642.1895 Q2804.096,1642.9611 2802.4455,1643.347 Q2800.795,1643.7328 2798.973,1643.7328 Q2792.4996,1643.7328 2789.0914,1639.4672 Q2785.6832,1635.2016 2785.6832,1627.142 Q2785.6832,1619.061 2789.0914,1614.7954 Q2792.4996,1610.5299 2798.973,1610.5299 Q2800.795,1610.5299 2802.4669,1610.9157 Q2804.1388,1611.3015 2805.5964,1612.0732 L2805.5964,1619.1039 Q2803.9673,1617.6034 2802.4347,1616.9068 Q2800.9021,1616.2102 2799.2731,1616.2102 Q2795.8006,1616.2102 2794.0322,1618.9646 Q2792.2638,1621.719 2792.2638,1627.142 Q2792.2638,1632.5437 2794.0322,1635.2981 Q2795.8006,1638.0525 2799.2731,1638.0525 Q2800.9021,1638.0525 2802.4347,1637.3559 Q2803.9673,1636.6592 2805.5964,1635.1588 Z " fill="#000000"/><text fill="#000000" font-family="sans-serif" font-size="36.1522" lengthAdjust="spacing" textLength="271.1412" x="2835.3622" y="1639.9892">DecisionEngine</text></g><!--class DomainModel--><g id="elem_DomainModel"><rect codeLine="31" fill="#FDE8FF" height="82.6335" id="DomainModel" rx="6.4557" ry="6.4557" style="stroke:#181818;stroke-width:1.2911485317192384;" width="327.9517" x="3530.0001" y="1747.6942"/><ellipse cx="3568.7345" cy="1789.011" fill="#ADD1B2" rx="28.4053" ry="28.4053" style="stroke:#181818;stroke-width:2.5822970634384768;"/><path d="M3575.1209,1804.8742 Q3573.6205,1805.6459 3571.97,1806.0317 Q3570.3195,1806.4175 3568.4975,1806.4175 Q3562.0241,1806.4175 3558.6159,1802.1519 Q3555.2077,1797.8864 3555.2077,1789.8268 Q3555.2077,1781.7457 3558.6159,1777.4802 Q3562.0241,1773.2146 3568.4975,1773.2146 Q3570.3195,1773.2146 3571.9914,1773.6004 Q3573.6633,1773.9862 3575.1209,1774.7579 L3575.1209,1781.7886 Q3573.4919,1780.2881 3571.9593,1779.5915 Q3570.4267,1778.8949 3568.7976,1778.8949 Q3565.3251,1778.8949 3563.5567,1781.6493 Q3561.7883,1784.4037 3561.7883,1789.8268 Q3561.7883,1795.2284 3563.5567,1797.9828 Q3565.3251,1800.7372 3568.7976,1800.7372 Q3570.4267,1800.7372 3571.9593,1800.0406 Q3573.4919,1799.3439 3575.1209,1797.8435 Z " fill="#000000"/><text fill="#000000" font-family="sans-serif" font-size="36.1522" lengthAdjust="spacing" textLength="245.3182" x="3604.8867" y="1802.6739">DomainModel</text></g><!--class User--><g id="elem_User"><rect codeLine="12" fill="#F1F1F1" height="82.6335" id="User" rx="6.4557" ry="6.4557" style="stroke:#181818;stroke-width:1.2911485317192384;" width="162.6847" x="402.8383" y="293.861"/><ellipse cx="441.5728" cy="335.1777" fill="#ADD1B2" rx="28.4053" ry="28.4053" style="stroke:#181818;stroke-width:2.5822970634384768;"/><path d="M447.9592,351.0409 Q446.4587,351.8126 444.8082,352.1984 Q443.1577,352.5843 441.3358,352.5843 Q434.8624,352.5843 431.4542,348.3187 Q428.046,344.0531 428.046,335.9935 Q428.046,327.9125 431.4542,323.6469 Q434.8624,319.3813 441.3358,319.3813 Q443.1577,319.3813 444.8297,319.7672 Q446.5016,320.153 447.9592,320.9247 L447.9592,327.9554 Q446.3301,326.4549 444.7975,325.7583 Q443.2649,325.0616 441.6358,325.0616 Q438.1634,325.0616 436.395,327.816 Q434.6266,330.5704 434.6266,335.9935 Q434.6266,341.3952 436.395,344.1496 Q438.1634,346.904 441.6358,346.904 Q443.2649,346.904 444.7975,346.2073 Q446.3301,345.5107 447.9592,344.0102 Z " fill="#000000"/><text fill="#000000" font-family="sans-serif" font-size="36.1522" lengthAdjust="spacing" textLength="80.0512" x="477.725" y="348.8407">User</text></g><g id="elem_GMN30"><path d="M1446.0864,1246.8061 L1446.0864,1391.2382 L2254.3453,1391.2382 L2254.3453,1272.629 L2228.5224,1246.8061 L1446.0864,1246.8061 " fill="#FEFFDD" style="stroke:#181818;stroke-width:1.2911485317192384;"/><path d="M2228.5224,1246.8061 L2228.5224,1272.629 L2254.3453,1272.629 L2228.5224,1246.8061 " fill="#FEFFDD" style="stroke:#181818;stroke-width:2.5822970634384768;"/><text fill="#000000" font-family="sans-serif" font-size="33.5699" lengthAdjust="spacing" textLength="617.169" x="1461.5801" y="1292.1728">MA does NOT create lessons/content.</text><text fill="#000000" font-family="sans-serif" font-size="33.5699" lengthAdjust="spacing" textLength="710.1317" x="1461.5801" y="1331.7092">It selects/toggles mechanics and messages</text><text fill="#000000" font-family="sans-serif" font-size="33.5699" lengthAdjust="spacing" textLength="754.0307" x="1461.5801" y="1371.2455">as Assistant_Action based on events+metrics.</text></g><g id="elem_GMN33"><path d="M38.7345,112.2997 L38.7345,217.1954 L929.6269,217.1954 L929.6269,138.1226 L903.804,112.2997 L38.7345,112.2997 " fill="#FEFFDD" style="stroke:#181818;stroke-width:1.2911485317192384;"/><path d="M903.804,112.2997 L903.804,138.1226 L929.6269,138.1226 L903.804,112.2997 " fill="#FEFFDD" style="stroke:#181818;stroke-width:2.5822970634384768;"/><text fill="#000000" font-family="sans-serif" font-size="33.5699" lengthAdjust="spacing" textLength="836.6642" x="54.2282" y="157.6664">The base System owns content, tasks, and delivery.</text><text fill="#000000" font-family="sans-serif" font-size="33.5699" lengthAdjust="spacing" textLength="743.7016" x="54.2282" y="197.2028">Events originate here and are required for MA.</text></g><!--link User to UI--><g id="link_User_UI"><path codeLine="35" d="M565.9362,350.4133 C693.3209,374.9193 929.6269,420.3935 929.6269,420.3935 C929.6269,420.3935 1574.0544,554.537 1775.0346,596.3702 " fill="none" id="User-to-UI" style="stroke:#181818;stroke-width:2.5822970634384768;"/><polygon fill="#181818" points="1790.2033,599.5275,1769.5551,584.6791,1777.5627,596.8964,1765.3454,604.904,1790.2033,599.5275" style="stroke:#181818;stroke-width:2.5822970634384768;"/><text fill="#000000" font-family="sans-serif" font-size="33.5699" lengthAdjust="spacing" textLength="142.0263" x="1116.8435" y="421.7321">interacts</text></g><!--link UI to EventBus--><g id="link_UI_EventBus"><path codeLine="36" d="M1910.2026,620.1084 C2080.376,645.6989 2569.2737,719.2116 2800.8025,754.021 " fill="none" id="UI-to-EventBus" style="stroke:#181818;stroke-width:2.5822970634384768;"/><polygon fill="#181818" points="2816.1241,756.3245,2794.6774,742.6549,2803.3561,754.4049,2791.606,763.0836,2816.1241,756.3245" style="stroke:#181818;stroke-width:2.5822970634384768;"/><text fill="#000000" font-family="sans-serif" font-size="33.5699" lengthAdjust="spacing" textLength="206.5838" x="2404.1186" y="674.2291">emits Events</text></g><!--link EventBus to KeySituations--><g id="link_EventBus_KeySituations"><path codeLine="37" d="M3058.1886,774.1682 C3186.1156,774.1682 3375.2688,774.1682 3517.1402,774.1682 " fill="none" id="EventBus-to-KeySituations" style="stroke:#181818;stroke-width:2.5822970634384768;"/><polygon fill="#181818" points="3532.634,774.1682,3509.3934,763.839,3519.7225,774.1682,3509.3934,784.4974,3532.634,774.1682" style="stroke:#181818;stroke-width:2.5822970634384768;"/><text fill="#000000" font-family="sans-serif" font-size="33.5699" lengthAdjust="spacing" textLength="289.2173" x="3163.3139" y="765.3067">derives situations</text></g><!--link EventBus to EventMapper--><g id="link_EventBus_EventMapper"><path codeLine="38" d="M3029.835,816.4921 C3174.3661,884.5356 3442.7736,1010.8994 3587.3822,1078.9688 " fill="none" id="EventBus-to-EventMapper" style="stroke:#181818;stroke-width:2.5822970634384768;"/><polygon fill="#181818" points="3601.4006,1085.5674,3584.7721,1066.3239,3589.7186,1080.0685,3575.9739,1085.015,3601.4006,1085.5674" style="stroke:#181818;stroke-width:2.5822970634384768;"/><text fill="#000000" font-family="sans-serif" font-size="33.5699" lengthAdjust="spacing" textLength="258.2297" x="3178.8077" y="869.8381">forwards events</text></g><!--link EventMapper to EventIngestion--><g id="link_EventMapper_EventIngestion"><path codeLine="41" d="M3536.5849,1138.2979 C3174.1337,1162.5199 2300.8267,1220.9056 2300.8267,1220.9056 C2300.8267,1220.9056 2254.3453,1430.0717 2254.3453,1430.0717 C2254.3453,1430.0717 976.1083,1662.4784 976.1083,1662.4784 C976.1083,1662.4784 929.6269,1672.8076 929.6269,1672.8076 C929.6269,1672.8076 796.9992,1688.2625 672.1193,1702.8267 " fill="none" id="EventMapper-to-EventIngestion" style="stroke:#181818;stroke-width:2.5822970634384768;"/><polygon fill="#181818" points="656.7298,1704.6215,681.0105,1712.1889,669.5544,1703.1258,678.6175,1691.6696,656.7298,1704.6215" style="stroke:#181818;stroke-width:2.5822970634384768;"/><text fill="#000000" font-family="sans-serif" font-size="33.5699" lengthAdjust="spacing" textLength="245.3182" x="2384.7513" y="1185.369">mapped events</text></g><!--link EventIngestion to MetricsEngine--><g id="link_EventIngestion_MetricsEngine"><path codeLine="44" d="M657.0655,1724.4535 C920.9246,1724.4535 1409.7018,1724.4535 1669.0935,1724.4535 " fill="none" id="EventIngestion-to-MetricsEngine" style="stroke:#181818;stroke-width:2.5822970634384768;"/><polygon fill="#181818" points="1684.5873,1724.4535,1661.3466,1714.1244,1671.6758,1724.4535,1661.3466,1734.7827,1684.5873,1724.4535" style="stroke:#181818;stroke-width:2.5822970634384768;"/><text fill="#000000" font-family="sans-serif" font-size="33.5699" lengthAdjust="spacing" textLength="242.7359" x="1066.4887" y="1715.592">update metrics</text></g><!--link MetricsEngine to DecisionEngine--><g id="link_MetricsEngine_DecisionEngine"><path codeLine="45" d="M2015.9477,1709.657 C2216.0757,1691.5034 2538.5645,1662.2494 2744.0895,1643.631 " fill="none" id="MetricsEngine-to-DecisionEngine" style="stroke:#181818;stroke-width:2.5822970634384768;"/><polygon fill="#181818" points="2759.5201,1642.2332,2735.4423,1634.0429,2746.6613,1643.3981,2737.3061,1654.617,2759.5201,1642.2332" style="stroke:#181818;stroke-width:2.5822970634384768;"/><text fill="#000000" font-family="sans-serif" font-size="33.5699" lengthAdjust="spacing" textLength="281.4704" x="2366.6753" y="1638.6654">metrics snapshot</text></g><!--link DecisionEngine to DomainModel--><g id="link_DecisionEngine_DomainModel"><path codeLine="46" d="M3115.1799,1664.2602 C3240.0856,1691.2968 3391.6296,1724.1205 3513.5915,1750.5116 " fill="none" id="DecisionEngine-to-DomainModel" style="stroke:#181818;stroke-width:2.5822970634384768;"/><polygon fill="#181818" points="3528.7348,1753.7884,3508.2044,1738.7777,3516.1153,1751.0577,3503.8353,1758.9687,3528.7348,1753.7884" style="stroke:#181818;stroke-width:2.5822970634384768;"/><text fill="#000000" font-family="sans-serif" font-size="33.5699" lengthAdjust="spacing" textLength="219.4953" x="3198.1749" y="1665.5471">updates state</text></g><!--link DecisionEngine to ActionBridge--><g id="link_DecisionEngine_ActionBridge"><path codeLine="47" d="M3034.354,1583.8216 C3178.6269,1518.8769 3438.2486,1402.0111 3582.6507,1336.9889 " fill="none" id="DecisionEngine-to-ActionBridge" style="stroke:#181818;stroke-width:2.5822970634384768;"/><polygon fill="#181818" points="3596.7783,1330.6274,3571.3459,1330.7512,3585.0053,1335.9286,3579.8279,1349.588,3596.7783,1330.6274" style="stroke:#181818;stroke-width:2.5822970634384768;"/><text fill="#000000" font-family="sans-serif" font-size="33.5699" lengthAdjust="spacing" textLength="276.3058" x="3169.7696" y="1388.5957">Assistant_Action</text></g><!--link ActionBridge to ContentEngine--><g id="link_ActionBridge_ContentEngine"><path codeLine="50" d="M3537.9277,1286.341 C3176.3029,1282.3126 2300.8267,1272.5516 2300.8267,1272.5516 C2300.8267,1272.5516 2254.3453,1207.9941 2254.3453,1207.9941 C2254.3453,1207.9941 1116.5003,928.7189 672.8874,819.8492 " fill="none" id="ActionBridge-to-ContentEngine" style="stroke:#181818;stroke-width:2.5822970634384768;"/><polygon fill="#181818" points="657.8402,816.1564,677.9492,831.7271,670.3796,819.2337,682.873,811.6641,657.8402,816.1564" style="stroke:#181818;stroke-width:2.5822970634384768;"/><text fill="#000000" font-family="sans-serif" font-size="33.5699" lengthAdjust="spacing" textLength="374.4331" x="2320.1939" y="1263.69">apply Assistant_Action</text></g><!--link ContentEngine to UI--><g id="link_ContentEngine_UI"><path codeLine="51" d="M673.3845,752.4117 C798.0062,737.8734 929.6269,722.5223 929.6269,722.5223 C929.6269,722.5223 1573.8413,644.589 1774.8215,620.2896 " fill="none" id="ContentEngine-UI" style="stroke:#181818;stroke-width:2.5822970634384768;"/><polygon fill="#181818" points="657.9951,754.2071,682.2761,761.7737,670.8196,752.711,679.8824,741.2545,657.9951,754.2071" style="stroke:#181818;stroke-width:2.5822970634384768;"/><polygon fill="#181818" points="1790.2033,618.4299,1765.8908,610.965,1777.3851,619.9797,1768.3704,631.474,1790.2033,618.4299" style="stroke:#181818;stroke-width:2.5822970634384768;"/><text fill="#000000" font-family="sans-serif" font-size="33.5699" lengthAdjust="spacing" textLength="418.3321" x="978.6906" y="658.1414">deliver messages/toggles</text></g><!--link ContentEngine to EventBus--><g id="link_ContentEngine_EventBus"><path codeLine="52" d="M657.9176,774.1682 C1125.8557,774.1682 2402.4917,774.1682 2800.811,774.1682 " fill="none" id="ContentEngine-to-EventBus" style="stroke:#181818;stroke-width:2.5822970634384768;"/><polygon fill="#181818" points="2816.3048,774.1682,2793.0641,763.839,2803.3933,774.1682,2793.0641,784.4974,2816.3048,774.1682" style="stroke:#181818;stroke-width:2.5822970634384768;"/><text fill="#000000" font-family="sans-serif" font-size="33.5699" lengthAdjust="spacing" textLength="361.5216" x="1669.4551" y="765.3067">emits resulting Events</text></g><!--link EventIngestion to DomainModel--><g id="link_EventIngestion_DomainModel"><path codeLine="55" d="M657.1688,1738.682 C932.829,1761.6644 1446.0864,1804.5047 1446.0864,1804.5047 C1446.0864,1804.5047 2300.8267,1817.4162 2300.8267,1817.4162 C2300.8267,1817.4162 2713.9942,1817.4162 2713.9942,1817.4162 C2713.9942,1817.4162 3455.1135,1799.3402 3455.1135,1799.3402 C3455.1135,1799.3402 3472.8689,1798.5775 3514.3923,1796.7441 " fill="none" id="EventIngestion-to-DomainModel" style="stroke:#181818;stroke-width:2.5822970634384768;"/><polygon fill="#181818" points="3529.871,1796.0606,3506.1973,1786.7667,3516.9721,1796.6302,3507.1086,1807.4049,3529.871,1796.0606" style="stroke:#181818;stroke-width:2.5822970634384768;"/><text fill="#000000" font-family="sans-serif" font-size="33.5699" lengthAdjust="spacing" textLength="408.0029" x="2303.409" y="1808.5547">read user/Systemcontext</text></g><!--link MetricsEngine to DomainModel--><g id="link_MetricsEngine_DomainModel"><path codeLine="56" d="M2016.774,1730.2121 C2366.1846,1742.478 3165.0794,1770.5197 3513.3022,1782.7598 " fill="none" id="MetricsEngine-to-DomainModel" style="stroke:#181818;stroke-width:2.5822970634384768;"/><polygon fill="#181818" points="3528.7864,1783.3041,3505.9229,1772.1649,3515.8829,1782.8505,3505.1972,1792.8105,3528.7864,1783.3041" style="stroke:#181818;stroke-width:2.5822970634384768;"/><text fill="#000000" font-family="sans-serif" font-size="33.5699" lengthAdjust="spacing" textLength="299.5465" x="2787.5897" y="1747.8707">read/write metrics</text></g><!--link Motivational_Assistant to GMN30--><g id="link_Motivational_Assistant_GMN30"><path d="M952.2588,1453.2505 C958.6732,1452.2889 965.1159,1451.3231 971.5845,1450.3535 C1023.3328,1442.5961 1076.7309,1434.5917 1130.4356,1426.5416 C1237.8451,1410.4414 1346.4807,1394.1584 1445.5957,1379.3037 " fill="none" id="Motivational_Assistant-GMN30" style="stroke:#181818;stroke-width:2.5822970634384768;stroke-dasharray:7.0,7.0;"/></g><!--link Main_System to GMN33--><g id="link_Main_System_GMN33"><path d="M248.417,458.986 C141.568,436.6878 38.7345,415.2289 38.7345,415.2289 C38.7345,415.2289 15.4938,376.4945 15.4938,376.4945 C15.4938,376.4945 15.4938,293.861 15.4938,293.861 C15.4938,293.861 38.7345,255.1265 38.7345,255.1265 C38.7345,255.1265 124.0019,237.8251 219.9084,218.3546 " fill="none" id="Main_System-GMN33" style="stroke:#181818;stroke-width:2.5822970634384768;stroke-dasharray:7.0,7.0;"/></g><!--SRC=[TLLHQzim47xNhpZ8mpRM96stbMB685tx44QwGRlde5ZdMCIMF9tSp8p1ViH-uNx9JhQJs4v20edlT7UVlk-JJB7C4Aukhz_3LYkVWg0wSXqYAUfrwWLjj2caapbasg2l2eJ2PbLu4AbM29WNle8SynKw4Xac7hm55uf1QOUnrzPqsXYhaB20TvUTe9DcKmS_T8A5Z3ToZK- -OaoXaJJh38NNdfyNrkiN6NhB36P4cZZjuT-Vl_3mWiQFxvtcN_YMbMjjOERYL7lkKJeK8iua4NmdT4AqKs0XjLa-LUGnXn6kaWHluPS0u6-xV0wZv2fyzg5wqbr9HualM3rfNzRuZhEVhV5S-60O6UwplpjOPikPaeL7ruFI6RgGHH6oWywpckqxfzNwTECEQyi3QoEynTia6GwPcpLIM0mZTQDkacIVNg1tEgRT3WRPUumrSTcvjCsPwmNx86ECAamE65_1U3okHG5f53HI99dTXhYeu-Fnfo1319e9T3Bs9FWnHFTAH6n8xTiDaDZ7mwA-AX4e31uXe7sml_uWmwHBUWI9TLlf504sKrhiEytO_ujPZVfCXxhvIIac0-8Zo4E96aoQ6mfdZwUyTYZLTElOtB2ofL7ILUEO3SOKetfJenZqhAVt18oWB9Ja3daJ5lrqA1Xe6ksM0XbPK6gz6AoeYpfAxsPmXUUVKyixRFMC71qE-B99x7YuOry7kXkp31ZlzGZz- -Sk0cOsguvxzvTzt9kETy5sSRnp8ZvCDFLspHSI3GfEsj4XbPdNPhqpPhk1U-abo3ZcbkUawfCOv8QI3yEqsNEG6d_wKueTrRKssOdSGdYqGPHmv5h_Q6om64wq5xbDplYL-GPbkU3nwpF4F8HBc1BYipID6recOkw1CEFBTqyPOuXJQO9_mk0TeqBIaHomaiJ-vp_D4NZRmfy8vCg0KJH8LzPxczTG3rUvU4wnxj1Q1EoMZtwBx0Ayf0rTr1XQTQj9em61vQrh4pQKeiDwZNJXHVIZvDUQ2fS0ExO3upy0]--></g></svg>