<?xml version="1.0" encoding="us-ascii" standalone="no"?><svg xmlns="http://www.w3.org/2000/svg" xmlns:xlink="http://www.w3.org/1999/xlink" contentStyleType="text/css" height="990px" preserveAspectRatio="none" style="width:582px;height:990px;background:#FFFFFF;" version="1.1" viewBox="0 0 582 990" width="582px" zoomAndPan="magnify"><defs/><g><!--cluster UserTraits--><g id="cluster_UserTraits"><rect fill="#FCFFE8" height="977" rx="2.5" ry="2.5" style="stroke:#000000;stroke-width:1.5;" width="569" x="7" y="7"/><text fill="#000000" font-family="sans-serif" font-size="14" font-weight="bold" lengthAdjust="spacing" textLength="75" x="254" y="22.5352">UserTraits</text></g><!--class UserTrait--><g id="elem_UserTrait"><rect codeLine="10" fill="#EAF797" height="32" id="UserTrait" rx="2.5" ry="2.5" style="stroke:#181818;stroke-width:0.5;" width="95" x="30.5" y="522"/><ellipse cx="45.5" cy="538" fill="#ADD1B2" rx="11" ry="11" style="stroke:#181818;stroke-width:1.0;"/><path d="M47.9731,544.1431 Q47.3921,544.4419 46.7529,544.5913 Q46.1138,544.7407 45.4082,544.7407 Q42.9014,544.7407 41.5815,543.0889 Q40.2617,541.437 40.2617,538.3159 Q40.2617,535.1865 41.5815,533.5347 Q42.9014,531.8828 45.4082,531.8828 Q46.1138,531.8828 46.7612,532.0322 Q47.4087,532.1816 47.9731,532.4805 L47.9731,535.2031 Q47.3423,534.6221 46.7488,534.3523 Q46.1553,534.0825 45.5244,534.0825 Q44.1797,534.0825 43.4949,535.1492 Q42.8101,536.2158 42.8101,538.3159 Q42.8101,540.4077 43.4949,541.4744 Q44.1797,542.541 45.5244,542.541 Q46.1553,542.541 46.7488,542.2712 Q47.3423,542.0015 47.9731,541.4204 Z " fill="#000000"/><text fill="#000000" font-family="sans-serif" font-size="14" lengthAdjust="spacing" textLength="63" x="59.5" y="543.291">UserTrait</text></g><!--class MotivationalTrait--><g id="elem_MotivationalTrait"><rect codeLine="12" fill="#EAF797" height="32" id="MotivationalTrait" rx="2.5" ry="2.5" style="stroke:#181818;stroke-width:0.5;" width="148" x="328.5" y="798"/><ellipse cx="343.5" cy="814" fill="#ADD1B2" rx="11" ry="11" style="stroke:#181818;stroke-width:1.0;"/><path d="M345.9731,820.1431 Q345.3921,820.4419 344.7529,820.5913 Q344.1138,820.7407 343.4082,820.7407 Q340.9014,820.7407 339.5815,819.0889 Q338.2617,817.437 338.2617,814.3159 Q338.2617,811.1865 339.5815,809.5347 Q340.9014,807.8828 343.4082,807.8828 Q344.1138,807.8828 344.7612,808.0322 Q345.4087,808.1816 345.9731,808.4805 L345.9731,811.2031 Q345.3423,810.6221 344.7488,810.3523 Q344.1553,810.0825 343.5244,810.0825 Q342.1797,810.0825 341.4949,811.1492 Q340.8101,812.2158 340.8101,814.3159 Q340.8101,816.4077 341.4949,817.4744 Q342.1797,818.541 343.5244,818.541 Q344.1553,818.541 344.7488,818.2712 Q345.3423,818.0015 345.9731,817.4204 Z " fill="#000000"/><text fill="#000000" font-family="sans-serif" font-size="14" lengthAdjust="spacing" textLength="116" x="357.5" y="819.291">MotivationalTrait</text></g><g id="elem_GMN6"><path d="M245,732.34 L245,757.6505 L560,757.6505 L560,742.34 L550,732.34 L245,732.34 " fill="#FEFFDD" style="stroke:#181818;stroke-width:0.5;"/><path d="M550,732.34 L550,742.34 L560,742.34 L550,732.34 " fill="#FEFFDD" style="stroke:#181818;stroke-width:1.0;"/><text fill="#000000" font-family="sans-serif" font-size="13" lengthAdjust="spacing" textLength="294" x="251" y="749.9084">Representation of motivational characteristics.</text></g><!--class PlayerType--><g id="elem_PlayerType"><rect codeLine="18" fill="#EAF797" height="32" id="PlayerType" rx="2.5" ry="2.5" style="stroke:#181818;stroke-width:0.5;" width="106" x="349.5" y="108"/><ellipse cx="364.5" cy="124" fill="#ADD1B2" rx="11" ry="11" style="stroke:#181818;stroke-width:1.0;"/><path d="M366.9731,130.1431 Q366.3921,130.4419 365.7529,130.5913 Q365.1138,130.7407 364.4082,130.7407 Q361.9014,130.7407 360.5815,129.0889 Q359.2617,127.437 359.2617,124.3159 Q359.2617,121.1865 360.5815,119.5347 Q361.9014,117.8828 364.4082,117.8828 Q365.1138,117.8828 365.7612,118.0322 Q366.4087,118.1816 366.9731,118.4805 L366.9731,121.2031 Q366.3423,120.6221 365.7488,120.3523 Q365.1553,120.0825 364.5244,120.0825 Q363.1797,120.0825 362.4949,121.1492 Q361.8101,122.2158 361.8101,124.3159 Q361.8101,126.4077 362.4949,127.4744 Q363.1797,128.541 364.5244,128.541 Q365.1553,128.541 365.7488,128.2712 Q366.3423,128.0015 366.9731,127.4204 Z " fill="#000000"/><text fill="#000000" font-family="sans-serif" font-size="14" lengthAdjust="spacing" textLength="74" x="378.5" y="129.291">PlayerType</text></g><g id="elem_GMN11"><path d="M294,42.34 L294,67.6505 L511,67.6505 L511,52.34 L501,42.34 L294,42.34 " fill="#FEFFDD" style="stroke:#181818;stroke-width:0.5;"/><path d="M501,42.34 L501,52.34 L511,52.34 L501,42.34 " fill="#FEFFDD" style="stroke:#181818;stroke-width:1.0;"/><text fill="#000000" font-family="sans-serif" font-size="13" lengthAdjust="spacing" textLength="196" x="300" y="59.9084">User gaming style or approach.</text></g><g id="elem_Philanthropist"><rect fill="#F1F1F1" height="20.4883" style="stroke:#181818;stroke-width:0.5;" width="110" x="23" y="358.76"/><text fill="#000000" font-family="sans-serif" font-size="14" lengthAdjust="spacing" textLength="96" x="30" y="374.2952">Philanthropist</text></g><g id="elem_Achiever"><rect fill="#F1F1F1" height="20.4883" style="stroke:#181818;stroke-width:0.5;" width="73" x="41.5" y="296.76"/><text fill="#000000" font-family="sans-serif" font-size="14" lengthAdjust="spacing" textLength="59" x="48.5" y="312.2952">Achiever</text></g><g id="elem_Free_Spirit"><rect fill="#F1F1F1" height="20.4883" style="stroke:#181818;stroke-width:0.5;" width="87" x="34.5" y="234.76"/><text fill="#000000" font-family="sans-serif" font-size="14" lengthAdjust="spacing" textLength="73" x="41.5" y="250.2952">Free_Spirit</text></g><g id="elem_Socializer"><rect fill="#F1F1F1" height="20.4883" style="stroke:#181818;stroke-width:0.5;" width="80" x="38" y="172.76"/><text fill="#000000" font-family="sans-serif" font-size="14" lengthAdjust="spacing" textLength="66" x="45" y="188.2952">Socializer</text></g><g id="elem_Player"><rect fill="#F1F1F1" height="20.4883" style="stroke:#181818;stroke-width:0.5;" width="55" x="50.5" y="110.76"/><text fill="#000000" font-family="sans-serif" font-size="14" lengthAdjust="spacing" textLength="41" x="57.5" y="126.2952">Player</text></g><g id="elem_Disruptor"><rect fill="#F1F1F1" height="20.4883" style="stroke:#181818;stroke-width:0.5;" width="79" x="38.5" y="48.76"/><text fill="#000000" font-family="sans-serif" font-size="14" lengthAdjust="spacing" textLength="65" x="45.5" y="64.2952">Disruptor</text></g><!--class DigitalLiteracy--><g id="elem_DigitalLiteracy"><rect codeLine="37" fill="#EAF797" height="32" id="DigitalLiteracy" rx="2.5" ry="2.5" style="stroke:#181818;stroke-width:0.5;" width="128" x="338.5" y="660"/><ellipse cx="353.5" cy="676" fill="#ADD1B2" rx="11" ry="11" style="stroke:#181818;stroke-width:1.0;"/><path d="M355.9731,682.1431 Q355.3921,682.4419 354.7529,682.5913 Q354.1138,682.7407 353.4082,682.7407 Q350.9014,682.7407 349.5815,681.0889 Q348.2617,679.437 348.2617,676.3159 Q348.2617,673.1865 349.5815,671.5347 Q350.9014,669.8828 353.4082,669.8828 Q354.1138,669.8828 354.7612,670.0322 Q355.4087,670.1816 355.9731,670.4805 L355.9731,673.2031 Q355.3423,672.6221 354.7488,672.3523 Q354.1553,672.0825 353.5244,672.0825 Q352.1797,672.0825 351.4949,673.1492 Q350.8101,674.2158 350.8101,676.3159 Q350.8101,678.4077 351.4949,679.4744 Q352.1797,680.541 353.5244,680.541 Q354.1553,680.541 354.7488,680.2712 Q355.3423,680.0015 355.9731,679.4204 Z " fill="#000000"/><text fill="#000000" font-family="sans-serif" font-size="14" lengthAdjust="spacing" textLength="96" x="367.5" y="681.291">DigitalLiteracy</text></g><g id="elem_GMN28"><path d="M277,594.34 L277,619.6505 L528,619.6505 L528,604.34 L518,594.34 L277,594.34 " fill="#FEFFDD" style="stroke:#181818;stroke-width:0.5;"/><path d="M518,594.34 L518,604.34 L528,604.34 L518,594.34 " fill="#FEFFDD" style="stroke:#181818;stroke-width:1.0;"/><text fill="#000000" font-family="sans-serif" font-size="13" lengthAdjust="spacing" textLength="230" x="283" y="611.9084">Familiarity with digital technologies.</text></g><!--class CognitiveAbility--><g id="elem_CognitiveAbility"><rect codeLine="43" fill="#EAF797" height="32" id="CognitiveAbility" rx="2.5" ry="2.5" style="stroke:#181818;stroke-width:0.5;" width="140" x="332.5" y="522"/><ellipse cx="347.5" cy="538" fill="#ADD1B2" rx="11" ry="11" style="stroke:#181818;stroke-width:1.0;"/><path d="M349.9731,544.1431 Q349.3921,544.4419 348.7529,544.5913 Q348.1138,544.7407 347.4082,544.7407 Q344.9014,544.7407 343.5815,543.0889 Q342.2617,541.437 342.2617,538.3159 Q342.2617,535.1865 343.5815,533.5347 Q344.9014,531.8828 347.4082,531.8828 Q348.1138,531.8828 348.7612,532.0322 Q349.4087,532.1816 349.9731,532.4805 L349.9731,535.2031 Q349.3423,534.6221 348.7488,534.3523 Q348.1553,534.0825 347.5244,534.0825 Q346.1797,534.0825 345.4949,535.1492 Q344.8101,536.2158 344.8101,538.3159 Q344.8101,540.4077 345.4949,541.4744 Q346.1797,542.541 347.5244,542.541 Q348.1553,542.541 348.7488,542.2712 Q349.3423,542.0015 349.9731,541.4204 Z " fill="#000000"/><text fill="#000000" font-family="sans-serif" font-size="14" lengthAdjust="spacing" textLength="108" x="361.5" y="543.291">CognitiveAbility</text></g><g id="elem_GMN33"><path d="M271,456.34 L271,481.6505 L534,481.6505 L534,466.34 L524,456.34 L271,456.34 " fill="#FEFFDD" style="stroke:#181818;stroke-width:0.5;"/><path d="M524,456.34 L524,466.34 L534,466.34 L524,456.34 " fill="#FEFFDD" style="stroke:#181818;stroke-width:1.0;"/><text fill="#000000" font-family="sans-serif" font-size="13" lengthAdjust="spacing" textLength="242" x="277" y="473.9084">Reasoning, memory, problem-solving.</text></g><!--class AttentionSpan--><g id="elem_AttentionSpan"><rect codeLine="49" fill="#EAF797" height="32" id="AttentionSpan" rx="2.5" ry="2.5" style="stroke:#181818;stroke-width:0.5;" width="130" x="337.5" y="384"/><ellipse cx="352.5" cy="400" fill="#ADD1B2" rx="11" ry="11" style="stroke:#181818;stroke-width:1.0;"/><path d="M354.9731,406.1431 Q354.3921,406.4419 353.7529,406.5913 Q353.1138,406.7407 352.4082,406.7407 Q349.9014,406.7407 348.5815,405.0889 Q347.2617,403.437 347.2617,400.3159 Q347.2617,397.1865 348.5815,395.5347 Q349.9014,393.8828 352.4082,393.8828 Q353.1138,393.8828 353.7612,394.0322 Q354.4087,394.1816 354.9731,394.4805 L354.9731,397.2031 Q354.3423,396.6221 353.7488,396.3523 Q353.1553,396.0825 352.5244,396.0825 Q351.1797,396.0825 350.4949,397.1492 Q349.8101,398.2158 349.8101,400.3159 Q349.8101,402.4077 350.4949,403.4744 Q351.1797,404.541 352.5244,404.541 Q353.1553,404.541 353.7488,404.2712 Q354.3423,404.0015 354.9731,403.4204 Z " fill="#000000"/><text fill="#000000" font-family="sans-serif" font-size="14" lengthAdjust="spacing" textLength="98" x="366.5" y="405.291">AttentionSpan</text></g><g id="elem_GMN38"><path d="M312,318.34 L312,343.6505 L493,343.6505 L493,328.34 L483,318.34 L312,318.34 " fill="#FEFFDD" style="stroke:#181818;stroke-width:0.5;"/><path d="M483,318.34 L483,328.34 L493,328.34 L483,318.34 " fill="#FEFFDD" style="stroke:#181818;stroke-width:1.0;"/><text fill="#000000" font-family="sans-serif" font-size="13" lengthAdjust="spacing" textLength="160" x="318" y="335.9084">Ability to maintain focus.</text></g><!--class SelfDiscipline--><g id="elem_SelfDiscipline"><rect codeLine="55" fill="#EAF797" height="32" id="SelfDiscipline" rx="2.5" ry="2.5" style="stroke:#181818;stroke-width:0.5;" width="123" x="341" y="246"/><ellipse cx="356" cy="262" fill="#ADD1B2" rx="11" ry="11" style="stroke:#181818;stroke-width:1.0;"/><path d="M358.4731,268.1431 Q357.8921,268.4419 357.2529,268.5913 Q356.6138,268.7407 355.9082,268.7407 Q353.4014,268.7407 352.0815,267.0889 Q350.7617,265.437 350.7617,262.3159 Q350.7617,259.1865 352.0815,257.5347 Q353.4014,255.8828 355.9082,255.8828 Q356.6138,255.8828 357.2612,256.0322 Q357.9087,256.1816 358.4731,256.4805 L358.4731,259.2031 Q357.8423,258.6221 357.2488,258.3523 Q356.6553,258.0825 356.0244,258.0825 Q354.6797,258.0825 353.9949,259.1492 Q353.3101,260.2158 353.3101,262.3159 Q353.3101,264.4077 353.9949,265.4744 Q354.6797,266.541 356.0244,266.541 Q356.6553,266.541 357.2488,266.2712 Q357.8423,266.0015 358.4731,265.4204 Z " fill="#000000"/><text fill="#000000" font-family="sans-serif" font-size="14" lengthAdjust="spacing" textLength="91" x="370" y="267.291">SelfDiscipline</text></g><g id="elem_GMN43"><path d="M285,180.34 L285,205.6505 L520,205.6505 L520,190.34 L510,180.34 L285,180.34 " fill="#FEFFDD" style="stroke:#181818;stroke-width:0.5;"/><path d="M510,180.34 L510,190.34 L520,190.34 L510,180.34 " fill="#FEFFDD" style="stroke:#181818;stroke-width:1.0;"/><text fill="#000000" font-family="sans-serif" font-size="13" lengthAdjust="spacing" textLength="214" x="291" y="197.9084">Consistency and task completion.</text></g><!--class FrustrationTolerance--><g id="elem_FrustrationTolerance"><rect codeLine="61" fill="#EAF797" height="32" id="FrustrationTolerance" rx="2.5" ry="2.5" style="stroke:#181818;stroke-width:0.5;" width="176" x="314.5" y="936"/><ellipse cx="329.5" cy="952" fill="#ADD1B2" rx="11" ry="11" style="stroke:#181818;stroke-width:1.0;"/><path d="M331.9731,958.1431 Q331.3921,958.4419 330.7529,958.5913 Q330.1138,958.7407 329.4082,958.7407 Q326.9014,958.7407 325.5815,957.0889 Q324.2617,955.437 324.2617,952.3159 Q324.2617,949.1865 325.5815,947.5347 Q326.9014,945.8828 329.4082,945.8828 Q330.1138,945.8828 330.7612,946.0322 Q331.4087,946.1816 331.9731,946.4805 L331.9731,949.2031 Q331.3423,948.6221 330.7488,948.3523 Q330.1553,948.0825 329.5244,948.0825 Q328.1797,948.0825 327.4949,949.1492 Q326.8101,950.2158 326.8101,952.3159 Q326.8101,954.4077 327.4949,955.4744 Q328.1797,956.541 329.5244,956.541 Q330.1553,956.541 330.7488,956.2712 Q331.3423,956.0015 331.9731,955.4204 Z " fill="#000000"/><text fill="#000000" font-family="sans-serif" font-size="14" lengthAdjust="spacing" textLength="144" x="343.5" y="957.291">FrustrationTolerance</text></g><g id="elem_GMN48"><path d="M289.5,870.34 L289.5,895.6505 L515.5,895.6505 L515.5,880.34 L505.5,870.34 L289.5,870.34 " fill="#FEFFDD" style="stroke:#181818;stroke-width:0.5;"/><path d="M505.5,870.34 L505.5,880.34 L515.5,880.34 L505.5,870.34 " fill="#FEFFDD" style="stroke:#181818;stroke-width:1.0;"/><text fill="#000000" font-family="sans-serif" font-size="13" lengthAdjust="spacing" textLength="205" x="295.5" y="887.9084">Coping with difficulty and delay.</text></g><!--reverse link UserTrait to MotivationalTrait--><g id="link_UserTrait_MotivationalTrait"><path d="M100.649,569.3042 C138.149,623.5242 245,778 245,778 C245,778 288.84,788.09 330.12,797.58 " fill="none" id="UserTrait-backto-MotivationalTrait" style="stroke:#181818;stroke-width:1.0;"/><polygon fill="none" points="90.41,554.5,95.7142,572.7172,105.5837,565.8912,90.41,554.5" style="stroke:#181818;stroke-width:1.0;"/></g><!--link MotivationalTrait to GMN6--><g id="link_MotivationalTrait_GMN6"><path d="M402.5,797.78 C402.5,793.97 402.5,791 402.5,791 C402.5,791 402.5,768 402.5,768 C402.5,768 402.5,763.28 402.5,758.11 " fill="none" id="MotivationalTrait-GMN6" style="stroke:#181818;stroke-width:1.0;stroke-dasharray:7.0,7.0;"/></g><!--reverse link UserTrait to PlayerType--><g id="link_UserTrait_PlayerType"><path d="M101.9877,507.3008 C137.0777,460.4308 225,343 225,343 C225,343 245,160 245,160 C245,160 303.86,146.46 349.39,135.99 " fill="none" id="UserTrait-backto-PlayerType" style="stroke:#181818;stroke-width:1.0;"/><polygon fill="none" points="91.2,521.71,106.7908,510.8967,97.1846,503.7049,91.2,521.71" style="stroke:#181818;stroke-width:1.0;"/></g><!--link PlayerType to GMN11--><g id="link_PlayerType_GMN11"><path d="M402.5,107.78 C402.5,103.97 402.5,101 402.5,101 C402.5,101 402.5,78 402.5,78 C402.5,78 402.5,73.28 402.5,68.11 " fill="none" id="PlayerType-GMN11" style="stroke:#181818;stroke-width:1.0;stroke-dasharray:7.0,7.0;"/></g><!--link Philanthropist to PlayerType--><g id="link_Philanthropist_PlayerType"><path codeLine="24" d="M102.13,358.38 C143.3,339.49 225,302 225,302 C225,302 245,160 245,160 C245,160 298.0126,147.8047 343.5426,137.3347 " fill="none" id="Philanthropist-to-PlayerType" style="stroke:#181818;stroke-width:1.0;"/><polygon fill="#181818" points="349.39,135.99,339.7225,134.1087,344.5172,137.1105,341.5154,141.9052,349.39,135.99" style="stroke:#181818;stroke-width:1.0;"/><text fill="#000000" font-family="sans-serif" font-size="13" lengthAdjust="spacing" textLength="70" x="154" y="298.5684">instance of</text></g><!--link Achiever to PlayerType--><g id="link_Achiever_PlayerType"><path codeLine="26" d="M104.43,296.37 C146.26,278.9 225,246 225,246 C225,246 245,160 245,160 C245,160 298.0126,147.8047 343.5426,137.3347 " fill="none" id="Achiever-to-PlayerType" style="stroke:#181818;stroke-width:1.0;"/><polygon fill="#181818" points="349.39,135.99,339.7225,134.1087,344.5172,137.1105,341.5154,141.9052,349.39,135.99" style="stroke:#181818;stroke-width:1.0;"/><text fill="#000000" font-family="sans-serif" font-size="13" lengthAdjust="spacing" textLength="70" x="154" y="242.5684">instance of</text></g><!--link Free_Spirit to PlayerType--><g id="link_Free_Spirit_PlayerType"><path codeLine="28" d="M110.68,234.37 C153.62,219.96 225,196 225,196 C225,196 245,160 245,160 C245,160 298.0126,147.8047 343.5426,137.3347 " fill="none" id="Free_Spirit-to-PlayerType" style="stroke:#181818;stroke-width:1.0;"/><polygon fill="#181818" points="349.39,135.99,339.7225,134.1087,344.5172,137.1105,341.5154,141.9052,349.39,135.99" style="stroke:#181818;stroke-width:1.0;"/><text fill="#000000" font-family="sans-serif" font-size="13" lengthAdjust="spacing" textLength="70" x="154" y="192.5684">instance of</text></g><!--link Socializer to PlayerType--><g id="link_Socializer_PlayerType"><path codeLine="30" d="M118.22,175.82 C176.14,165.23 278.718,146.4597 343.328,134.6397 " fill="none" id="Socializer-to-PlayerType" style="stroke:#181818;stroke-width:1.0;"/><polygon fill="#181818" points="349.23,133.56,339.6571,131.2449,344.3116,134.4598,341.0968,139.1143,349.23,133.56" style="stroke:#181818;stroke-width:1.0;"/><text fill="#000000" font-family="sans-serif" font-size="13" lengthAdjust="spacing" textLength="70" x="154" y="153.5984">instance of</text></g><!--link Player to PlayerType--><g id="link_Player_PlayerType"><path codeLine="32" d="M105.72,122.81 C126.91,124.24 153,126 153,126 C153,126 225,126 225,126 C225,126 290.9904,125.248 343.0204,124.658 " fill="none" id="Player-to-PlayerType" style="stroke:#181818;stroke-width:1.0;"/><polygon fill="#181818" points="349.02,124.59,339.9752,120.6923,344.0203,124.6467,340.0659,128.6918,349.02,124.59" style="stroke:#181818;stroke-width:1.0;"/><text fill="#000000" font-family="sans-serif" font-size="13" lengthAdjust="spacing" textLength="70" x="154" y="122.5684">instance of</text></g><!--link Disruptor to PlayerType--><g id="link_Disruptor_PlayerType"><path codeLine="34" d="M117.9,66.84 C175.7,78.49 278.4883,99.2044 343.2283,112.2544 " fill="none" id="Disruptor-to-PlayerType" style="stroke:#181818;stroke-width:1.0;"/><polygon fill="#181818" points="349.11,113.44,341.0779,107.7405,344.2086,112.452,339.4971,115.5827,349.11,113.44" style="stroke:#181818;stroke-width:1.0;"/><text fill="#000000" font-family="sans-serif" font-size="13" lengthAdjust="spacing" textLength="70" x="154" y="71.2784">instance of</text></g><!--reverse link UserTrait to DigitalLiteracy--><g id="link_UserTrait_DigitalLiteracy"><path d="M121.0071,563.8119 C167.9371,592.6419 245,640 245,640 C245,640 294.86,651.47 338.3,661.46 " fill="none" id="UserTrait-backto-DigitalLiteracy" style="stroke:#181818;stroke-width:1.0;"/><polygon fill="none" points="105.67,554.39,117.8665,568.9243,124.1478,558.6995,105.67,554.39" style="stroke:#181818;stroke-width:1.0;"/></g><!--link DigitalLiteracy to GMN28--><g id="link_DigitalLiteracy_GMN28"><path d="M402.5,659.78 C402.5,655.97 402.5,653 402.5,653 C402.5,653 402.5,630 402.5,630 C402.5,630 402.5,625.28 402.5,620.11 " fill="none" id="DigitalLiteracy-GMN28" style="stroke:#181818;stroke-width:1.0;stroke-dasharray:7.0,7.0;"/></g><!--reverse link UserTrait to CognitiveAbility--><g id="link_UserTrait_CognitiveAbility"><path d="M143.89,538 C198.14,538 269.95,538 332.24,538 " fill="none" id="UserTrait-backto-CognitiveAbility" style="stroke:#181818;stroke-width:1.0;"/><polygon fill="none" points="125.89,538,143.89,544,143.89,532,125.89,538" style="stroke:#181818;stroke-width:1.0;"/></g><!--link CognitiveAbility to GMN33--><g id="link_CognitiveAbility_GMN33"><path d="M402.5,521.78 C402.5,517.97 402.5,515 402.5,515 C402.5,515 402.5,492 402.5,492 C402.5,492 402.5,487.28 402.5,482.11 " fill="none" id="CognitiveAbility-GMN33" style="stroke:#181818;stroke-width:1.0;stroke-dasharray:7.0,7.0;"/></g><!--reverse link UserTrait to AttentionSpan--><g id="link_UserTrait_AttentionSpan"><path d="M131.0787,514.1006 C174.2987,494.2606 225,471 225,471 C225,471 245,436 245,436 C245,436 294.17,424.69 337.39,414.75 " fill="none" id="UserTrait-backto-AttentionSpan" style="stroke:#181818;stroke-width:1.0;"/><polygon fill="none" points="114.72,521.61,133.5819,519.5535,128.5756,508.6477,114.72,521.61" style="stroke:#181818;stroke-width:1.0;"/></g><!--link AttentionSpan to GMN38--><g id="link_AttentionSpan_GMN38"><path d="M402.5,383.78 C402.5,379.97 402.5,377 402.5,377 C402.5,377 402.5,354 402.5,354 C402.5,354 402.5,349.28 402.5,344.11 " fill="none" id="AttentionSpan-GMN38" style="stroke:#181818;stroke-width:1.0;stroke-dasharray:7.0,7.0;"/></g><!--reverse link UserTrait to SelfDiscipline--><g id="link_UserTrait_SelfDiscipline"><path d="M112.2385,510.1514 C134.1685,491.7814 153,476 153,476 C153,476 225,439 225,439 C225,439 245,298 245,298 C245,298 296.6,286.13 340.54,276.02 " fill="none" id="UserTrait-backto-SelfDiscipline" style="stroke:#181818;stroke-width:1.0;"/><polygon fill="none" points="98.44,521.71,116.0914,514.751,108.3857,505.5519,98.44,521.71" style="stroke:#181818;stroke-width:1.0;"/></g><!--link SelfDiscipline to GMN43--><g id="link_SelfDiscipline_GMN43"><path d="M402.5,245.78 C402.5,241.97 402.5,239 402.5,239 C402.5,239 402.5,216 402.5,216 C402.5,216 402.5,211.28 402.5,206.11 " fill="none" id="SelfDiscipline-GMN43" style="stroke:#181818;stroke-width:1.0;stroke-dasharray:7.0,7.0;"/></g><!--reverse link UserTrait to FrustrationTolerance--><g id="link_UserTrait_FrustrationTolerance"><path d="M90.1794,571.2404 C107.2694,622.0404 153,758 153,758 C153,758 245,916 245,916 C245,916 288.84,926.09 330.12,935.58 " fill="none" id="UserTrait-backto-FrustrationTolerance" style="stroke:#181818;stroke-width:1.0;"/><polygon fill="none" points="84.44,554.18,84.4926,573.1536,95.8662,569.3273,84.44,554.18" style="stroke:#181818;stroke-width:1.0;"/></g><!--link FrustrationTolerance to GMN48--><g id="link_FrustrationTolerance_GMN48"><path d="M402.5,935.78 C402.5,931.97 402.5,929 402.5,929 C402.5,929 402.5,906 402.5,906 C402.5,906 402.5,901.28 402.5,896.11 " fill="none" id="FrustrationTolerance-GMN48" style="stroke:#181818;stroke-width:1.0;stroke-dasharray:7.0,7.0;"/></g><!--SRC=[ZPJ1ZXCn38RlVGghUzr5790ME22jThKda5OKpiXDdHdJJ18bxiA0U7USQRUTcNPWRh7ps_cIsCvRzX4JDk3OaxIH80RN5cDHyuQ0cYWjD2HrsEI-2qKIhtT2UIXirfJomf4La029grfWmucCSF2BV3pFXmrbYl3cTS-Pq6_Fd17D5YjQIUi8IYBqbQF5mGrVCwKl2LaoN5bZBRsr5dul08p3d4_RS4LeRz_TMhiuRduAmizOoD2DH40_XVocbq2ZkfkU1xtS6lHMGh0E8g61OC-bAlbCCUdDlNJ-ecfwAZ2rNje89Sx29h_I2CNe4f-udnosIbM-wz_08vvJdEuL7LJOiAyWTuyR4c2CAQ2fn-U6zNTzULW-rUpGIvr2LC0beC8CNAeTEk3cvaCV-3qisMVzHAC7scKlzvsfcPufTLbV3Dr_MSxFz9Y8lgqY9zuZzcnLzQpvALV1C3h-TS0xcQev6VFpxKNx1-oMvU6wnVmS3vpJBahOfpbQgZYk_vViL5CFNB6W-yXQUsZQEPqm3fdiWv6m_87MdMFKBsZX1qkjCwAJW92fVN2XOfee_ljGUTQEeRkrff1Pf6SnawXZPTUnc8FNDhakOI6rrw1DidRKtEJWddNZCkYTA4rfwrL4FuTo6329E92L_ZZSIUTjWwo3XJtOO7OJxxSYPxK-3CSovkTmZI8cmOOwtRyFFki88A_5WGeYcBTWGXCT5VxBV8zfboLry_1BS5emfLPdK5wCcsIzfEw8Ovc7XvAqbitEoHv-Gzf60-G_Vm40]--></g></svg>