<?xml version="1.0" encoding="us-ascii" standalone="no"?><svg xmlns="http://www.w3.org/2000/svg" xmlns:xlink="http://www.w3.org/1999/xlink" contentStyleType="text/css" height="378px" preserveAspectRatio="none" style="width:1120px;height:378px;background:#FFFFFF;" version="1.1" viewBox="0 0 1120 378" width="1120px" zoomAndPan="magnify"><defs/><g><!--cluster AssistantActions--><g id="cluster_AssistantActions"><rect fill="#E8E8FF" height="365" rx="2.5" ry="2.5" style="stroke:#000000;stroke-width:1.5;" width="1107" x="7" y="7"/><text fill="#000000" font-family="sans-serif" font-size="14" font-weight="bold" lengthAdjust="spacing" textLength="122" x="499.5" y="22.5352">AssistantActions</text></g><!--cluster MotivationalMechanics--><g id="cluster_MotivationalMechanics"><rect fill="none" height="83" rx="2.5" ry="2.5" style="stroke:#000000;stroke-width:1.5;" width="212" x="367.5" y="50"/><text fill="#000000" font-family="sans-serif" font-size="14" font-weight="bold" lengthAdjust="spacing" textLength="165" x="391" y="65.5352">MotivationalMechanics</text></g><!--class AssistantAction--><g id="elem_AssistantAction"><rect codeLine="11" fill="#CACAFF" height="72.9766" id="AssistantAction" rx="2.5" ry="2.5" style="stroke:#181818;stroke-width:0.5;" width="165" x="23" y="173.51"/><ellipse cx="50.15" cy="189.51" fill="#ADD1B2" rx="11" ry="11" style="stroke:#181818;stroke-width:1.0;"/><path d="M52.6231,195.6531 Q52.0421,195.9519 51.4029,196.1013 Q50.7638,196.2507 50.0582,196.2507 Q47.5514,196.2507 46.2315,194.5989 Q44.9117,192.947 44.9117,189.8259 Q44.9117,186.6965 46.2315,185.0447 Q47.5514,183.3928 50.0582,183.3928 Q50.7638,183.3928 51.4112,183.5422 Q52.0587,183.6916 52.6231,183.9905 L52.6231,186.7131 Q51.9923,186.1321 51.3988,185.8623 Q50.8053,185.5925 50.1744,185.5925 Q48.8297,185.5925 48.1449,186.6592 Q47.4601,187.7258 47.4601,189.8259 Q47.4601,191.9177 48.1449,192.9844 Q48.8297,194.051 50.1744,194.051 Q50.8053,194.051 51.3988,193.7812 Q51.9923,193.5115 52.6231,192.9304 Z " fill="#000000"/><text fill="#000000" font-family="sans-serif" font-size="14" lengthAdjust="spacing" textLength="106" x="66.85" y="194.801">AssistantAction</text><line style="stroke:#181818;stroke-width:0.5;" x1="24" x2="187" y1="205.51" y2="205.51"/><text fill="#000000" font-family="sans-serif" font-size="14" lengthAdjust="spacing" textLength="111" x="29" y="223.0452">toggle : Boolean</text><text fill="#000000" font-family="sans-serif" font-size="14" lengthAdjust="spacing" textLength="153" x="29" y="239.5334">stateChange : Boolean</text></g><g id="elem_GMN4"><path d="M277,300.69 L277,341.3111 L670,341.3111 L670,310.69 L660,300.69 L277,300.69 " fill="#FEFFDD" style="stroke:#181818;stroke-width:0.5;"/><path d="M660,300.69 L660,310.69 L670,310.69 L660,300.69 " fill="#FEFFDD" style="stroke:#181818;stroke-width:1.0;"/><text fill="#000000" font-family="sans-serif" font-size="13" lengthAdjust="spacing" textLength="372" x="283" y="318.2584">One-off AssistantAction: activates/deactivates a mechanic</text><text fill="#000000" font-family="sans-serif" font-size="13" lengthAdjust="spacing" textLength="239" x="283" y="333.5689">or prompts another user interaction.&gt;</text></g><!--class Questionnaire--><g id="elem_Questionnaire"><rect codeLine="20" fill="#D6D6FF" height="32" id="Questionnaire" rx="2.5" ry="2.5" style="stroke:#181818;stroke-width:0.5;" width="129" x="409" y="229"/><ellipse cx="424" cy="245" fill="#ADD1B2" rx="11" ry="11" style="stroke:#181818;stroke-width:1.0;"/><path d="M426.4731,251.1431 Q425.8921,251.4419 425.2529,251.5913 Q424.6138,251.7407 423.9082,251.7407 Q421.4014,251.7407 420.0815,250.0889 Q418.7617,248.437 418.7617,245.3159 Q418.7617,242.1865 420.0815,240.5347 Q421.4014,238.8828 423.9082,238.8828 Q424.6138,238.8828 425.2612,239.0322 Q425.9087,239.1816 426.4731,239.4805 L426.4731,242.2031 Q425.8423,241.6221 425.2488,241.3523 Q424.6553,241.0825 424.0244,241.0825 Q422.6797,241.0825 421.9949,242.1492 Q421.3101,243.2158 421.3101,245.3159 Q421.3101,247.4077 421.9949,248.4744 Q422.6797,249.541 424.0244,249.541 Q424.6553,249.541 425.2488,249.2712 Q425.8423,249.0015 426.4731,248.4204 Z " fill="#000000"/><text fill="#000000" font-family="sans-serif" font-size="14" lengthAdjust="spacing" textLength="97" x="438" y="250.291">Questionnaire</text></g><!--class AlertMessage--><g id="elem_AlertMessage"><rect codeLine="21" fill="#D6D6FF" height="32" id="AlertMessage" rx="2.5" ry="2.5" style="stroke:#181818;stroke-width:0.5;" width="124" x="411.5" y="157"/><ellipse cx="426.5" cy="173" fill="#ADD1B2" rx="11" ry="11" style="stroke:#181818;stroke-width:1.0;"/><path d="M428.9731,179.1431 Q428.3921,179.4419 427.7529,179.5913 Q427.1138,179.7407 426.4082,179.7407 Q423.9014,179.7407 422.5815,178.0889 Q421.2617,176.437 421.2617,173.3159 Q421.2617,170.1865 422.5815,168.5347 Q423.9014,166.8828 426.4082,166.8828 Q427.1138,166.8828 427.7612,167.0322 Q428.4087,167.1816 428.9731,167.4805 L428.9731,170.2031 Q428.3423,169.6221 427.7488,169.3523 Q427.1553,169.0825 426.5244,169.0825 Q425.1797,169.0825 424.4949,170.1492 Q423.8101,171.2158 423.8101,173.3159 Q423.8101,175.4077 424.4949,176.4744 Q425.1797,177.541 426.5244,177.541 Q427.1553,177.541 427.7488,177.2712 Q428.3423,177.0015 428.9731,176.4204 Z " fill="#000000"/><text fill="#000000" font-family="sans-serif" font-size="14" lengthAdjust="spacing" textLength="92" x="440.5" y="178.291">AlertMessage</text></g><g id="elem_GMN11"><path d="M711,42.34 L711,67.6505 L1098,67.6505 L1098,52.34 L1088,42.34 L711,42.34 " fill="#FEFFDD" style="stroke:#181818;stroke-width:0.5;"/><path d="M1088,42.34 L1088,52.34 L1098,52.34 L1088,42.34 " fill="#FEFFDD" style="stroke:#181818;stroke-width:1.0;"/><text fill="#000000" font-family="sans-serif" font-size="13" lengthAdjust="spacing" textLength="366" x="717" y="59.9084">General info, warnings, or alerts to guide or prompt users.</text></g><!--class Intrinsic_Motivation_Inventory--><g id="elem_Intrinsic_Motivation_Inventory"><rect codeLine="26" fill="#D6D6FF" height="32" id="Intrinsic_Motivation_Inventory" rx="2.5" ry="2.5" style="stroke:#181818;stroke-width:0.5;" width="237" x="786" y="324"/><ellipse cx="801" cy="340" fill="#ADD1B2" rx="11" ry="11" style="stroke:#181818;stroke-width:1.0;"/><path d="M803.4731,346.1431 Q802.8921,346.4419 802.2529,346.5913 Q801.6138,346.7407 800.9082,346.7407 Q798.4014,346.7407 797.0815,345.0889 Q795.7617,343.437 795.7617,340.3159 Q795.7617,337.1865 797.0815,335.5347 Q798.4014,333.8828 800.9082,333.8828 Q801.6138,333.8828 802.2612,334.0322 Q802.9087,334.1816 803.4731,334.4805 L803.4731,337.2031 Q802.8423,336.6221 802.2488,336.3523 Q801.6553,336.0825 801.0244,336.0825 Q799.6797,336.0825 798.9949,337.1492 Q798.3101,338.2158 798.3101,340.3159 Q798.3101,342.4077 798.9949,343.4744 Q799.6797,344.541 801.0244,344.541 Q801.6553,344.541 802.2488,344.2712 Q802.8423,344.0015 803.4731,343.4204 Z " fill="#000000"/><text fill="#000000" font-family="sans-serif" font-size="14" lengthAdjust="spacing" textLength="205" x="815" y="345.291">Intrinsic_Motivation_Inventory</text></g><!--class User_Engagement_Scale--><g id="elem_User_Engagement_Scale"><rect codeLine="27" fill="#D6D6FF" height="32" id="User_Engagement_Scale" rx="2.5" ry="2.5" style="stroke:#181818;stroke-width:0.5;" width="198" x="805.5" y="252"/><ellipse cx="820.5" cy="268" fill="#ADD1B2" rx="11" ry="11" style="stroke:#181818;stroke-width:1.0;"/><path d="M822.9731,274.1431 Q822.3921,274.4419 821.7529,274.5913 Q821.1138,274.7407 820.4082,274.7407 Q817.9014,274.7407 816.5815,273.0889 Q815.2617,271.437 815.2617,268.3159 Q815.2617,265.1865 816.5815,263.5347 Q817.9014,261.8828 820.4082,261.8828 Q821.1138,261.8828 821.7612,262.0322 Q822.4087,262.1816 822.9731,262.4805 L822.9731,265.2031 Q822.3423,264.6221 821.7488,264.3523 Q821.1553,264.0825 820.5244,264.0825 Q819.1797,264.0825 818.4949,265.1492 Q817.8101,266.2158 817.8101,268.3159 Q817.8101,270.4077 818.4949,271.4744 Q819.1797,272.541 820.5244,272.541 Q821.1553,272.541 821.7488,272.2712 Q822.3423,272.0015 822.9731,271.4204 Z " fill="#000000"/><text fill="#000000" font-family="sans-serif" font-size="14" lengthAdjust="spacing" textLength="166" x="834.5" y="273.291">User_Engagement_Scale</text></g><!--class SystemNotice--><g id="elem_SystemNotice"><rect codeLine="28" fill="#D6D6FF" height="32" id="SystemNotice" rx="2.5" ry="2.5" style="stroke:#181818;stroke-width:0.5;" width="123" x="843" y="180"/><ellipse cx="858" cy="196" fill="#ADD1B2" rx="11" ry="11" style="stroke:#181818;stroke-width:1.0;"/><path d="M860.4731,202.1431 Q859.8921,202.4419 859.2529,202.5913 Q858.6138,202.7407 857.9082,202.7407 Q855.4014,202.7407 854.0815,201.0889 Q852.7617,199.437 852.7617,196.3159 Q852.7617,193.1865 854.0815,191.5347 Q855.4014,189.8828 857.9082,189.8828 Q858.6138,189.8828 859.2612,190.0322 Q859.9087,190.1816 860.4731,190.4805 L860.4731,193.2031 Q859.8423,192.6221 859.2488,192.3523 Q858.6553,192.0825 858.0244,192.0825 Q856.6797,192.0825 855.9949,193.1492 Q855.3101,194.2158 855.3101,196.3159 Q855.3101,198.4077 855.9949,199.4744 Q856.6797,200.541 858.0244,200.541 Q858.6553,200.541 859.2488,200.2712 Q859.8423,200.0015 860.4731,199.4204 Z " fill="#000000"/><text fill="#000000" font-family="sans-serif" font-size="14" lengthAdjust="spacing" textLength="91" x="872" y="201.291">SystemNotice</text></g><!--class PromptMessage--><g id="elem_PromptMessage"><rect codeLine="29" fill="#D6D6FF" height="32" id="PromptMessage" rx="2.5" ry="2.5" style="stroke:#181818;stroke-width:0.5;" width="141" x="834" y="108"/><ellipse cx="849" cy="124" fill="#ADD1B2" rx="11" ry="11" style="stroke:#181818;stroke-width:1.0;"/><path d="M851.4731,130.1431 Q850.8921,130.4419 850.2529,130.5913 Q849.6138,130.7407 848.9082,130.7407 Q846.4014,130.7407 845.0815,129.0889 Q843.7617,127.437 843.7617,124.3159 Q843.7617,121.1865 845.0815,119.5347 Q846.4014,117.8828 848.9082,117.8828 Q849.6138,117.8828 850.2612,118.0322 Q850.9087,118.1816 851.4731,118.4805 L851.4731,121.2031 Q850.8423,120.6221 850.2488,120.3523 Q849.6553,120.0825 849.0244,120.0825 Q847.6797,120.0825 846.9949,121.1492 Q846.3101,122.2158 846.3101,124.3159 Q846.3101,126.4077 846.9949,127.4744 Q847.6797,128.541 849.0244,128.541 Q849.6553,128.541 850.2488,128.2712 Q850.8423,128.0015 851.4731,127.4204 Z " fill="#000000"/><text fill="#000000" font-family="sans-serif" font-size="14" lengthAdjust="spacing" textLength="109" x="863" y="129.291">PromptMessage</text></g><!--class MotivationalMechanic--><g id="elem_MotivationalMechanic"><rect fill="#F1F1F1" height="32" id="MotivationalMechanic" rx="2.5" ry="2.5" style="stroke:#181818;stroke-width:0.5;" width="180" x="383.5" y="85"/><ellipse cx="398.5" cy="101" fill="#ADD1B2" rx="11" ry="11" style="stroke:#181818;stroke-width:1.0;"/><path d="M400.9731,107.1431 Q400.3921,107.4419 399.7529,107.5913 Q399.1138,107.7407 398.4082,107.7407 Q395.9014,107.7407 394.5815,106.0889 Q393.2617,104.437 393.2617,101.3159 Q393.2617,98.1865 394.5815,96.5347 Q395.9014,94.8828 398.4082,94.8828 Q399.1138,94.8828 399.7612,95.0322 Q400.4087,95.1816 400.9731,95.4805 L400.9731,98.2031 Q400.3423,97.6221 399.7488,97.3523 Q399.1553,97.0825 398.5244,97.0825 Q397.1797,97.0825 396.4949,98.1492 Q395.8101,99.2158 395.8101,101.3159 Q395.8101,103.4077 396.4949,104.4744 Q397.1797,105.541 398.5244,105.541 Q399.1553,105.541 399.7488,105.2712 Q400.3423,105.0015 400.9731,104.4204 Z " fill="#000000"/><text fill="#000000" font-family="sans-serif" font-size="14" lengthAdjust="spacing" textLength="148" x="412.5" y="106.291">MotivationalMechanic</text></g><!--link AssistantAction to GMN4--><g id="link_AssistantAction_GMN4"><path d="M188.25,244.04 C232.01,262.27 277,281 277,281 C277,281 323.42,290.5 371.03,300.24 " fill="none" id="AssistantAction-GMN4" style="stroke:#181818;stroke-width:1.0;stroke-dasharray:7.0,7.0;"/></g><!--reverse link AssistantAction to Questionnaire--><g id="link_AssistantAction_Questionnaire"><path d="M206.0982,219.5243 C272.6782,225.8943 347.46,233.04 408.67,238.9 " fill="none" id="AssistantAction-backto-Questionnaire" style="stroke:#181818;stroke-width:1.0;"/><polygon fill="none" points="188.18,217.81,205.5267,225.497,206.6696,213.5516,188.18,217.81" style="stroke:#181818;stroke-width:1.0;"/></g><!--reverse link AssistantAction to AlertMessage--><g id="link_AssistantAction_AlertMessage"><path d="M206.0889,199.9313 C273.6189,193.1113 350.1,185.37 411.27,179.19 " fill="none" id="AssistantAction-backto-AlertMessage" style="stroke:#181818;stroke-width:1.0;"/><polygon fill="none" points="188.18,201.74,206.6918,205.901,205.486,193.9617,188.18,201.74" style="stroke:#181818;stroke-width:1.0;"/></g><!--link AlertMessage to GMN11--><g id="link_AlertMessage_GMN11"><path d="M535.82,161.08 C593.15,149.94 670,135 670,135 C670,135 711,88 711,88 C711,88 773.18,77.34 826.87,68.14 " fill="none" id="AlertMessage-GMN11" style="stroke:#181818;stroke-width:1.0;stroke-dasharray:7.0,7.0;"/></g><!--reverse link Questionnaire to Intrinsic_Motivation_Inventory--><g id="link_Questionnaire_Intrinsic_Motivation_Inventory"><path d="M555.9427,259.9982 C612.9927,270.4982 670,281 670,281 C670,281 711,304 711,304 C711,304 764.73,314.05 815.42,323.53 " fill="none" id="Questionnaire-backto-Intrinsic_Motivation_Inventory" style="stroke:#181818;stroke-width:1.0;"/><polygon fill="none" points="538.24,256.74,554.8566,265.899,557.0287,254.0973,538.24,256.74" style="stroke:#181818;stroke-width:1.0;"/></g><!--reverse link Questionnaire to User_Engagement_Scale--><g id="link_Questionnaire_User_Engagement_Scale"><path d="M556.2342,249.3839 C626.7242,253.1639 723.16,258.33 805.15,262.73 " fill="none" id="Questionnaire-backto-User_Engagement_Scale" style="stroke:#181818;stroke-width:1.0;"/><polygon fill="none" points="538.26,248.42,555.9129,255.3753,556.5555,243.3925,538.26,248.42" style="stroke:#181818;stroke-width:1.0;"/></g><!--reverse link Questionnaire to SystemNotice--><g id="link_Questionnaire_SystemNotice"><path d="M556.1438,235.6777 C638.1938,226.3077 761.84,212.18 842.52,202.97 " fill="none" id="Questionnaire-backto-SystemNotice" style="stroke:#181818;stroke-width:1.0;"/><polygon fill="none" points="538.26,237.72,556.8245,241.639,555.463,229.7164,538.26,237.72" style="stroke:#181818;stroke-width:1.0;"/></g><!--reverse link Questionnaire to PromptMessage--><g id="link_Questionnaire_PromptMessage"><path d="M555.9427,230.0018 C612.9927,219.5018 670,209 670,209 C670,209 711,160 711,160 C711,160 778.64,147.35 833.73,137.05 " fill="none" id="Questionnaire-backto-PromptMessage" style="stroke:#181818;stroke-width:1.0;"/><polygon fill="none" points="538.24,233.26,557.0287,235.9027,554.8566,224.101,538.24,233.26" style="stroke:#181818;stroke-width:1.0;"/></g><!--link AssistantAction to MotivationalMechanic--><g id="link_AssistantAction_MotivationalMechanic"><path codeLine="33" d="M177.33,173.03 C224.17,148.58 277,121 277,121 C277,121 325.6012,116.031 377.0812,110.761 " fill="none" id="AssistantAction-to-MotivationalMechanic" style="stroke:#181818;stroke-width:1.0;"/><polygon fill="#181818" points="383.05,110.15,373.6894,107.0873,378.076,110.6592,374.5041,115.0457,383.05,110.15" style="stroke:#181818;stroke-width:1.0;"/><text fill="#000000" font-family="sans-serif" font-size="13" lengthAdjust="spacing" textLength="47" x="209" y="128.5984">toggles</text><text fill="#000000" font-family="sans-serif" font-size="13" lengthAdjust="spacing" textLength="24" x="351.5263" y="123.9525">0..1</text></g><!--SRC=[ZLDBQzj04BxhLqpj7bg8rHHA2844ab1A3ku3qxEPh4RoujMis5cd5IN_lRDReTgoItEmBSzyCz-3aMmjTnYm1MUPOjyHTDxrwK-niHK1jLtieQMuyPNibp36O1ztaUGGs3vIaC9H7I5w2BRPHAXi81Ejvq96FlOL2NNmuNol692tHyKEpHORMiNU4QH5o8sZeXZgS2jYHOlnDdC8pEcIBkiQVXK0ng78509pWmO71AZEHXV25TnvxmWv5nKUwNwZN8UTP_smZpHOy_LqUPx-mhJmzL7l2b1_dtIplAjeV0RKu8noMPEdVO0kU0rKEygreG0xqI_BaGBcJUMD8echhAKOZNxRaQGseqOEy-gYkb0Lz3CgL4ue7U9n5EAIH5AS_n-QsDyRpke_4QjAfsfhVmO_CB3bHiwIAqnOIOVHxDBHZ4QpFobFUdfWlJGMQzPBdmDJ5Ui7VYAEFlH7UWyY69Tyr_thZzoeo5O7rokZMbuuk-ebKljPoSrBHxvcL_-AT3hpojRmvdNG7eMblXTmVGsp5fKrpDvgFq78IO9EZxsSdlPYSGEpyx9yFuE_SQ5R3lSbvQcgNlYVbq0o5LUsBfv_0m00]--></g></svg>