<?xml version="1.0" encoding="us-ascii" standalone="no"?><svg xmlns="http://www.w3.org/2000/svg" xmlns:xlink="http://www.w3.org/1999/xlink" contentStyleType="text/css" height="378px" preserveAspectRatio="none" style="width:1093px;height:378px;background:#FFFFFF;" version="1.1" viewBox="0 0 1093 378" width="1093px" zoomAndPan="magnify"><defs/><g><!--cluster AssistantActions--><g id="cluster_AssistantActions"><rect fill="#E8E8FF" height="365" rx="2.5" ry="2.5" style="stroke:#000000;stroke-width:1.5;" width="1080" x="7" y="7"/><text fill="#000000" font-family="sans-serif" font-size="14" font-weight="bold" lengthAdjust="spacing" textLength="122" x="486" y="22.5352">AssistantActions</text></g><!--cluster MotivationalMechanics--><g id="cluster_MotivationalMechanics"><rect fill="none" height="83" rx="2.5" ry="2.5" style="stroke:#000000;stroke-width:1.5;" width="212" x="340.5" y="50"/><text fill="#000000" font-family="sans-serif" font-size="14" font-weight="bold" lengthAdjust="spacing" textLength="165" x="364" y="65.5352">MotivationalMechanics</text></g><!--class AssistantAction--><g id="elem_AssistantAction"><rect codeLine="11" fill="#CACAFF" height="32" id="AssistantAction" rx="2.5" ry="2.5" style="stroke:#181818;stroke-width:0.5;" width="138" x="23" y="194"/><ellipse cx="38" cy="210" fill="#ADD1B2" rx="11" ry="11" style="stroke:#181818;stroke-width:1.0;"/><path d="M40.4731,216.1431 Q39.8921,216.4419 39.2529,216.5913 Q38.6138,216.7407 37.9082,216.7407 Q35.4014,216.7407 34.0815,215.0889 Q32.7617,213.437 32.7617,210.3159 Q32.7617,207.1865 34.0815,205.5347 Q35.4014,203.8828 37.9082,203.8828 Q38.6138,203.8828 39.2612,204.0322 Q39.9087,204.1816 40.4731,204.4805 L40.4731,207.2031 Q39.8423,206.6221 39.2488,206.3523 Q38.6553,206.0825 38.0244,206.0825 Q36.6797,206.0825 35.9949,207.1492 Q35.3101,208.2158 35.3101,210.3159 Q35.3101,212.4077 35.9949,213.4744 Q36.6797,214.541 38.0244,214.541 Q38.6553,214.541 39.2488,214.2712 Q39.8423,214.0015 40.4731,213.4204 Z " fill="#000000"/><text fill="#000000" font-family="sans-serif" font-size="14" lengthAdjust="spacing" textLength="106" x="52" y="215.291">AssistantAction</text></g><g id="elem_GMN4"><path d="M250,300.69 L250,341.3111 L643,341.3111 L643,310.69 L633,300.69 L250,300.69 " fill="#FEFFDD" style="stroke:#181818;stroke-width:0.5;"/><path d="M633,300.69 L633,310.69 L643,310.69 L633,300.69 " fill="#FEFFDD" style="stroke:#181818;stroke-width:1.0;"/><text fill="#000000" font-family="sans-serif" font-size="13" lengthAdjust="spacing" textLength="372" x="256" y="318.2584">One-off AssistantAction: activates/deactivates a mechanic</text><text fill="#000000" font-family="sans-serif" font-size="13" lengthAdjust="spacing" textLength="229" x="256" y="333.5689">or prompts another user interaction.</text></g><!--class Questionnaire--><g id="elem_Questionnaire"><rect codeLine="17" fill="#D6D6FF" height="32" id="Questionnaire" rx="2.5" ry="2.5" style="stroke:#181818;stroke-width:0.5;" width="129" x="382" y="229"/><ellipse cx="397" cy="245" fill="#ADD1B2" rx="11" ry="11" style="stroke:#181818;stroke-width:1.0;"/><path d="M399.4731,251.1431 Q398.8921,251.4419 398.2529,251.5913 Q397.6138,251.7407 396.9082,251.7407 Q394.4014,251.7407 393.0815,250.0889 Q391.7617,248.437 391.7617,245.3159 Q391.7617,242.1865 393.0815,240.5347 Q394.4014,238.8828 396.9082,238.8828 Q397.6138,238.8828 398.2612,239.0322 Q398.9087,239.1816 399.4731,239.4805 L399.4731,242.2031 Q398.8423,241.6221 398.2488,241.3523 Q397.6553,241.0825 397.0244,241.0825 Q395.6797,241.0825 394.9949,242.1492 Q394.3101,243.2158 394.3101,245.3159 Q394.3101,247.4077 394.9949,248.4744 Q395.6797,249.541 397.0244,249.541 Q397.6553,249.541 398.2488,249.2712 Q398.8423,249.0015 399.4731,248.4204 Z " fill="#000000"/><text fill="#000000" font-family="sans-serif" font-size="14" lengthAdjust="spacing" textLength="97" x="411" y="250.291">Questionnaire</text></g><!--class AlertMessage--><g id="elem_AlertMessage"><rect codeLine="18" fill="#D6D6FF" height="32" id="AlertMessage" rx="2.5" ry="2.5" style="stroke:#181818;stroke-width:0.5;" width="124" x="384.5" y="157"/><ellipse cx="399.5" cy="173" fill="#ADD1B2" rx="11" ry="11" style="stroke:#181818;stroke-width:1.0;"/><path d="M401.9731,179.1431 Q401.3921,179.4419 400.7529,179.5913 Q400.1138,179.7407 399.4082,179.7407 Q396.9014,179.7407 395.5815,178.0889 Q394.2617,176.437 394.2617,173.3159 Q394.2617,170.1865 395.5815,168.5347 Q396.9014,166.8828 399.4082,166.8828 Q400.1138,166.8828 400.7612,167.0322 Q401.4087,167.1816 401.9731,167.4805 L401.9731,170.2031 Q401.3423,169.6221 400.7488,169.3523 Q400.1553,169.0825 399.5244,169.0825 Q398.1797,169.0825 397.4949,170.1492 Q396.8101,171.2158 396.8101,173.3159 Q396.8101,175.4077 397.4949,176.4744 Q398.1797,177.541 399.5244,177.541 Q400.1553,177.541 400.7488,177.2712 Q401.3423,177.0015 401.9731,176.4204 Z " fill="#000000"/><text fill="#000000" font-family="sans-serif" font-size="14" lengthAdjust="spacing" textLength="92" x="413.5" y="178.291">AlertMessage</text></g><g id="elem_GMN11"><path d="M684,42.34 L684,67.6505 L1071,67.6505 L1071,52.34 L1061,42.34 L684,42.34 " fill="#FEFFDD" style="stroke:#181818;stroke-width:0.5;"/><path d="M1061,42.34 L1061,52.34 L1071,52.34 L1061,42.34 " fill="#FEFFDD" style="stroke:#181818;stroke-width:1.0;"/><text fill="#000000" font-family="sans-serif" font-size="13" lengthAdjust="spacing" textLength="366" x="690" y="59.9084">General info, warnings, or alerts to guide or prompt users.</text></g><!--class Intrinsic_Motivation_Inventory--><g id="elem_Intrinsic_Motivation_Inventory"><rect codeLine="23" fill="#D6D6FF" height="32" id="Intrinsic_Motivation_Inventory" rx="2.5" ry="2.5" style="stroke:#181818;stroke-width:0.5;" width="237" x="759" y="324"/><ellipse cx="774" cy="340" fill="#ADD1B2" rx="11" ry="11" style="stroke:#181818;stroke-width:1.0;"/><path d="M776.4731,346.1431 Q775.8921,346.4419 775.2529,346.5913 Q774.6138,346.7407 773.9082,346.7407 Q771.4014,346.7407 770.0815,345.0889 Q768.7617,343.437 768.7617,340.3159 Q768.7617,337.1865 770.0815,335.5347 Q771.4014,333.8828 773.9082,333.8828 Q774.6138,333.8828 775.2612,334.0322 Q775.9087,334.1816 776.4731,334.4805 L776.4731,337.2031 Q775.8423,336.6221 775.2488,336.3523 Q774.6553,336.0825 774.0244,336.0825 Q772.6797,336.0825 771.9949,337.1492 Q771.3101,338.2158 771.3101,340.3159 Q771.3101,342.4077 771.9949,343.4744 Q772.6797,344.541 774.0244,344.541 Q774.6553,344.541 775.2488,344.2712 Q775.8423,344.0015 776.4731,343.4204 Z " fill="#000000"/><text fill="#000000" font-family="sans-serif" font-size="14" lengthAdjust="spacing" textLength="205" x="788" y="345.291">Intrinsic_Motivation_Inventory</text></g><!--class User_Engagement_Scale--><g id="elem_User_Engagement_Scale"><rect codeLine="24" fill="#D6D6FF" height="32" id="User_Engagement_Scale" rx="2.5" ry="2.5" style="stroke:#181818;stroke-width:0.5;" width="198" x="778.5" y="252"/><ellipse cx="793.5" cy="268" fill="#ADD1B2" rx="11" ry="11" style="stroke:#181818;stroke-width:1.0;"/><path d="M795.9731,274.1431 Q795.3921,274.4419 794.7529,274.5913 Q794.1138,274.7407 793.4082,274.7407 Q790.9014,274.7407 789.5815,273.0889 Q788.2617,271.437 788.2617,268.3159 Q788.2617,265.1865 789.5815,263.5347 Q790.9014,261.8828 793.4082,261.8828 Q794.1138,261.8828 794.7612,262.0322 Q795.4087,262.1816 795.9731,262.4805 L795.9731,265.2031 Q795.3423,264.6221 794.7488,264.3523 Q794.1553,264.0825 793.5244,264.0825 Q792.1797,264.0825 791.4949,265.1492 Q790.8101,266.2158 790.8101,268.3159 Q790.8101,270.4077 791.4949,271.4744 Q792.1797,272.541 793.5244,272.541 Q794.1553,272.541 794.7488,272.2712 Q795.3423,272.0015 795.9731,271.4204 Z " fill="#000000"/><text fill="#000000" font-family="sans-serif" font-size="14" lengthAdjust="spacing" textLength="166" x="807.5" y="273.291">User_Engagement_Scale</text></g><!--class SystemNotice--><g id="elem_SystemNotice"><rect codeLine="25" fill="#D6D6FF" height="32" id="SystemNotice" rx="2.5" ry="2.5" style="stroke:#181818;stroke-width:0.5;" width="123" x="816" y="180"/><ellipse cx="831" cy="196" fill="#ADD1B2" rx="11" ry="11" style="stroke:#181818;stroke-width:1.0;"/><path d="M833.4731,202.1431 Q832.8921,202.4419 832.2529,202.5913 Q831.6138,202.7407 830.9082,202.7407 Q828.4014,202.7407 827.0815,201.0889 Q825.7617,199.437 825.7617,196.3159 Q825.7617,193.1865 827.0815,191.5347 Q828.4014,189.8828 830.9082,189.8828 Q831.6138,189.8828 832.2612,190.0322 Q832.9087,190.1816 833.4731,190.4805 L833.4731,193.2031 Q832.8423,192.6221 832.2488,192.3523 Q831.6553,192.0825 831.0244,192.0825 Q829.6797,192.0825 828.9949,193.1492 Q828.3101,194.2158 828.3101,196.3159 Q828.3101,198.4077 828.9949,199.4744 Q829.6797,200.541 831.0244,200.541 Q831.6553,200.541 832.2488,200.2712 Q832.8423,200.0015 833.4731,199.4204 Z " fill="#000000"/><text fill="#000000" font-family="sans-serif" font-size="14" lengthAdjust="spacing" textLength="91" x="845" y="201.291">SystemNotice</text></g><!--class PromptMessage--><g id="elem_PromptMessage"><rect codeLine="26" fill="#D6D6FF" height="32" id="PromptMessage" rx="2.5" ry="2.5" style="stroke:#181818;stroke-width:0.5;" width="141" x="807" y="108"/><ellipse cx="822" cy="124" fill="#ADD1B2" rx="11" ry="11" style="stroke:#181818;stroke-width:1.0;"/><path d="M824.4731,130.1431 Q823.8921,130.4419 823.2529,130.5913 Q822.6138,130.7407 821.9082,130.7407 Q819.4014,130.7407 818.0815,129.0889 Q816.7617,127.437 816.7617,124.3159 Q816.7617,121.1865 818.0815,119.5347 Q819.4014,117.8828 821.9082,117.8828 Q822.6138,117.8828 823.2612,118.0322 Q823.9087,118.1816 824.4731,118.4805 L824.4731,121.2031 Q823.8423,120.6221 823.2488,120.3523 Q822.6553,120.0825 822.0244,120.0825 Q820.6797,120.0825 819.9949,121.1492 Q819.3101,122.2158 819.3101,124.3159 Q819.3101,126.4077 819.9949,127.4744 Q820.6797,128.541 822.0244,128.541 Q822.6553,128.541 823.2488,128.2712 Q823.8423,128.0015 824.4731,127.4204 Z " fill="#000000"/><text fill="#000000" font-family="sans-serif" font-size="14" lengthAdjust="spacing" textLength="109" x="836" y="129.291">PromptMessage</text></g><!--class MotivationalMechanic--><g id="elem_MotivationalMechanic"><rect fill="#F1F1F1" height="32" id="MotivationalMechanic" rx="2.5" ry="2.5" style="stroke:#181818;stroke-width:0.5;" width="180" x="356.5" y="85"/><ellipse cx="371.5" cy="101" fill="#ADD1B2" rx="11" ry="11" style="stroke:#181818;stroke-width:1.0;"/><path d="M373.9731,107.1431 Q373.3921,107.4419 372.7529,107.5913 Q372.1138,107.7407 371.4082,107.7407 Q368.9014,107.7407 367.5815,106.0889 Q366.2617,104.437 366.2617,101.3159 Q366.2617,98.1865 367.5815,96.5347 Q368.9014,94.8828 371.4082,94.8828 Q372.1138,94.8828 372.7612,95.0322 Q373.4087,95.1816 373.9731,95.4805 L373.9731,98.2031 Q373.3423,97.6221 372.7488,97.3523 Q372.1553,97.0825 371.5244,97.0825 Q370.1797,97.0825 369.4949,98.1492 Q368.8101,99.2158 368.8101,101.3159 Q368.8101,103.4077 369.4949,104.4744 Q370.1797,105.541 371.5244,105.541 Q372.1553,105.541 372.7488,105.2712 Q373.3423,105.0015 373.9731,104.4204 Z " fill="#000000"/><text fill="#000000" font-family="sans-serif" font-size="14" lengthAdjust="spacing" textLength="148" x="385.5" y="106.291">MotivationalMechanic</text></g><!--link AssistantAction to GMN4--><g id="link_AssistantAction_GMN4"><path d="M129.41,226.47 C175.79,247.44 250,281 250,281 C250,281 296.42,290.5 344.03,300.24 " fill="none" id="AssistantAction-GMN4" style="stroke:#181818;stroke-width:1.0;stroke-dasharray:7.0,7.0;"/></g><!--reverse link AssistantAction to Questionnaire--><g id="link_AssistantAction_Questionnaire"><path d="M179.292,218.568 C243.062,224.898 319.53,232.49 381.76,238.67 " fill="none" id="AssistantAction-backto-Questionnaire" style="stroke:#181818;stroke-width:1.0;"/><polygon fill="none" points="161.38,216.79,178.6993,224.5387,179.8846,212.5973,161.38,216.79" style="stroke:#181818;stroke-width:1.0;"/></g><!--reverse link AssistantAction to AlertMessage--><g id="link_AssistantAction_AlertMessage"><path d="M179.2816,200.9403 C243.8516,194.1603 321.9,185.97 384.08,179.45 " fill="none" id="AssistantAction-backto-AlertMessage" style="stroke:#181818;stroke-width:1.0;"/><polygon fill="none" points="161.38,202.82,179.9082,206.9075,178.655,194.9731,161.38,202.82" style="stroke:#181818;stroke-width:1.0;"/></g><!--link AlertMessage to GMN11--><g id="link_AlertMessage_GMN11"><path d="M508.82,161.08 C566.15,149.94 643,135 643,135 C643,135 684,88 684,88 C684,88 746.18,77.34 799.87,68.14 " fill="none" id="AlertMessage-GMN11" style="stroke:#181818;stroke-width:1.0;stroke-dasharray:7.0,7.0;"/></g><!--reverse link Questionnaire to Intrinsic_Motivation_Inventory--><g id="link_Questionnaire_Intrinsic_Motivation_Inventory"><path d="M528.9427,259.9982 C585.9927,270.4982 643,281 643,281 C643,281 684,304 684,304 C684,304 737.73,314.05 788.42,323.53 " fill="none" id="Questionnaire-backto-Intrinsic_Motivation_Inventory" style="stroke:#181818;stroke-width:1.0;"/><polygon fill="none" points="511.24,256.74,527.8566,265.899,530.0287,254.0973,511.24,256.74" style="stroke:#181818;stroke-width:1.0;"/></g><!--reverse link Questionnaire to User_Engagement_Scale--><g id="link_Questionnaire_User_Engagement_Scale"><path d="M529.2342,249.3839 C599.7242,253.1639 696.16,258.33 778.15,262.73 " fill="none" id="Questionnaire-backto-User_Engagement_Scale" style="stroke:#181818;stroke-width:1.0;"/><polygon fill="none" points="511.26,248.42,528.9129,255.3753,529.5555,243.3925,511.26,248.42" style="stroke:#181818;stroke-width:1.0;"/></g><!--reverse link Questionnaire to SystemNotice--><g id="link_Questionnaire_SystemNotice"><path d="M529.1438,235.6777 C611.1938,226.3077 734.84,212.18 815.52,202.97 " fill="none" id="Questionnaire-backto-SystemNotice" style="stroke:#181818;stroke-width:1.0;"/><polygon fill="none" points="511.26,237.72,529.8245,241.639,528.463,229.7164,511.26,237.72" style="stroke:#181818;stroke-width:1.0;"/></g><!--reverse link Questionnaire to PromptMessage--><g id="link_Questionnaire_PromptMessage"><path d="M528.9427,230.0018 C585.9927,219.5018 643,209 643,209 C643,209 684,160 684,160 C684,160 751.64,147.35 806.73,137.05 " fill="none" id="Questionnaire-backto-PromptMessage" style="stroke:#181818;stroke-width:1.0;"/><polygon fill="none" points="511.24,233.26,530.0287,235.9027,527.8566,224.101,511.24,233.26" style="stroke:#181818;stroke-width:1.0;"/></g><!--link AssistantAction to MotivationalMechanic--><g id="link_AssistantAction_MotivationalMechanic"><path codeLine="28" d="M121.8,193.68 C167.12,167.98 250,121 250,121 C250,121 298.6012,116.031 350.0812,110.761 " fill="none" id="AssistantAction-to-MotivationalMechanic" style="stroke:#181818;stroke-width:1.0;"/><polygon fill="#181818" points="356.05,110.15,346.6894,107.0873,351.076,110.6592,347.5041,115.0457,356.05,110.15" style="stroke:#181818;stroke-width:1.0;"/><text fill="#000000" font-family="sans-serif" font-size="13" lengthAdjust="spacing" textLength="47" x="182" y="130.4884">toggles</text><text fill="#000000" font-family="sans-serif" font-size="13" lengthAdjust="spacing" textLength="24" x="324.5263" y="123.9525">0..1</text></g><!--SRC=[ZL9DQ-D03BtxLuZcsdXRM4hfeT13MN98FmXx3kfOjeUCDMQaP6kM_Uyhc-0cJafx6OybFUczDvADvnOJDX0yatOjGHj3r_zajIy8g6crWuQqZeKSXb0r-RUjaXmNDc-K90jKAcY4vAjQeV29dFh8cOppE1OarCBFguDWGjwS15jq6wnefLqWw1iXLu6oR1-71n4l5jI7OOR0Z6xfjYpXRmRW0efCIs3cq65PMfwZqfvbBATrbWTuPfh7yYHt1sZV7Pe1FmeQxu3cWQkHlHlGCK6RedbZ6PjLKuAjsE5PAU7GART2ucAWaesKNxSaVPRHp8DPSLFS60bwLokLCqJtGWCbNP98RypNe8dw0_10_XUnaGn6jeoNy0SJUwxaiXU5VQtqJrnj- -SVTGxovBoc1TlEi7YtNiR1BsEnNl2EM6FgJlWUMJ0s-MtzruzS6Sd6WEkLCoxVnAuwKMgURBZxBkHbKFMPfSSO0qsNCP-ktdn-3nTNUNvz0HycO5ZkbqRoSr6uCwShsth9_lq7]--></g></svg>