<?xml version="1.0" encoding="us-ascii" standalone="no"?><svg xmlns="http://www.w3.org/2000/svg" xmlns:xlink="http://www.w3.org/1999/xlink" contentStyleType="text/css" height="990px" preserveAspectRatio="none" style="width:663px;height:990px;background:#FFFFFF;" version="1.1" viewBox="0 0 663 990" width="663px" zoomAndPan="magnify"><defs/><g><!--cluster UserTraits--><g id="cluster_UserTraits"><rect fill="#FCFFE8" height="977" rx="2.5" ry="2.5" style="stroke:#000000;stroke-width:1.5;" width="650" x="7" y="7"/><text fill="#000000" font-family="sans-serif" font-size="14" font-weight="bold" lengthAdjust="spacing" textLength="75" x="294.5" y="22.5352">UserTraits</text></g><!--class UserTrait--><g id="elem_UserTrait"><rect codeLine="10" fill="#EAF797" height="32" id="UserTrait" rx="2.5" ry="2.5" style="stroke:#181818;stroke-width:0.5;" width="95" x="23" y="522"/><ellipse cx="38" cy="538" fill="#ADD1B2" rx="11" ry="11" style="stroke:#181818;stroke-width:1.0;"/><path d="M40.4731,544.1431 Q39.8921,544.4419 39.2529,544.5913 Q38.6138,544.7407 37.9082,544.7407 Q35.4014,544.7407 34.0815,543.0889 Q32.7617,541.437 32.7617,538.3159 Q32.7617,535.1865 34.0815,533.5347 Q35.4014,531.8828 37.9082,531.8828 Q38.6138,531.8828 39.2612,532.0322 Q39.9087,532.1816 40.4731,532.4805 L40.4731,535.2031 Q39.8423,534.6221 39.2488,534.3523 Q38.6553,534.0825 38.0244,534.0825 Q36.6797,534.0825 35.9949,535.1492 Q35.3101,536.2158 35.3101,538.3159 Q35.3101,540.4077 35.9949,541.4744 Q36.6797,542.541 38.0244,542.541 Q38.6553,542.541 39.2488,542.2712 Q39.8423,542.0015 40.4731,541.4204 Z " fill="#000000"/><text fill="#000000" font-family="sans-serif" font-size="14" lengthAdjust="spacing" textLength="63" x="52" y="543.291">UserTrait</text></g><!--class MotivationalTrait--><g id="elem_MotivationalTrait"><rect codeLine="12" fill="#EAF797" height="32" id="MotivationalTrait" rx="2.5" ry="2.5" style="stroke:#181818;stroke-width:0.5;" width="148" x="241.5" y="936"/><ellipse cx="256.5" cy="952" fill="#ADD1B2" rx="11" ry="11" style="stroke:#181818;stroke-width:1.0;"/><path d="M258.9731,958.1431 Q258.3921,958.4419 257.7529,958.5913 Q257.1138,958.7407 256.4082,958.7407 Q253.9014,958.7407 252.5815,957.0889 Q251.2617,955.437 251.2617,952.3159 Q251.2617,949.1865 252.5815,947.5347 Q253.9014,945.8828 256.4082,945.8828 Q257.1138,945.8828 257.7612,946.0322 Q258.4087,946.1816 258.9731,946.4805 L258.9731,949.2031 Q258.3423,948.6221 257.7488,948.3523 Q257.1553,948.0825 256.5244,948.0825 Q255.1797,948.0825 254.4949,949.1492 Q253.8101,950.2158 253.8101,952.3159 Q253.8101,954.4077 254.4949,955.4744 Q255.1797,956.541 256.5244,956.541 Q257.1553,956.541 257.7488,956.2712 Q258.3423,956.0015 258.9731,955.4204 Z " fill="#000000"/><text fill="#000000" font-family="sans-serif" font-size="14" lengthAdjust="spacing" textLength="116" x="270.5" y="957.291">MotivationalTrait</text></g><g id="elem_GMN6"><path d="M158,870.34 L158,895.6505 L473,895.6505 L473,880.34 L463,870.34 L158,870.34 " fill="#FEFFDD" style="stroke:#181818;stroke-width:0.5;"/><path d="M463,870.34 L463,880.34 L473,880.34 L463,870.34 " fill="#FEFFDD" style="stroke:#181818;stroke-width:1.0;"/><text fill="#000000" font-family="sans-serif" font-size="13" lengthAdjust="spacing" textLength="294" x="164" y="887.9084">Representation of motivational characteristics.</text></g><!--class PlayerType--><g id="elem_PlayerType"><rect codeLine="18" fill="#EAF797" height="32" id="PlayerType" rx="2.5" ry="2.5" style="stroke:#181818;stroke-width:0.5;" width="106" x="262.5" y="798"/><ellipse cx="277.5" cy="814" fill="#ADD1B2" rx="11" ry="11" style="stroke:#181818;stroke-width:1.0;"/><path d="M279.9731,820.1431 Q279.3921,820.4419 278.7529,820.5913 Q278.1138,820.7407 277.4082,820.7407 Q274.9014,820.7407 273.5815,819.0889 Q272.2617,817.437 272.2617,814.3159 Q272.2617,811.1865 273.5815,809.5347 Q274.9014,807.8828 277.4082,807.8828 Q278.1138,807.8828 278.7612,808.0322 Q279.4087,808.1816 279.9731,808.4805 L279.9731,811.2031 Q279.3423,810.6221 278.7488,810.3523 Q278.1553,810.0825 277.5244,810.0825 Q276.1797,810.0825 275.4949,811.1492 Q274.8101,812.2158 274.8101,814.3159 Q274.8101,816.4077 275.4949,817.4744 Q276.1797,818.541 277.5244,818.541 Q278.1553,818.541 278.7488,818.2712 Q279.3423,818.0015 279.9731,817.4204 Z " fill="#000000"/><text fill="#000000" font-family="sans-serif" font-size="14" lengthAdjust="spacing" textLength="74" x="291.5" y="819.291">PlayerType</text></g><g id="elem_GMN11"><path d="M207,732.34 L207,757.6505 L424,757.6505 L424,742.34 L414,732.34 L207,732.34 " fill="#FEFFDD" style="stroke:#181818;stroke-width:0.5;"/><path d="M414,732.34 L414,742.34 L424,742.34 L414,732.34 " fill="#FEFFDD" style="stroke:#181818;stroke-width:1.0;"/><text fill="#000000" font-family="sans-serif" font-size="13" lengthAdjust="spacing" textLength="196" x="213" y="749.9084">User gaming style or approach.</text></g><!--class Philanthropist--><g id="elem_Philanthropist"><rect codeLine="23" fill="#F1F1F1" height="32" id="Philanthropist" rx="2.5" ry="2.5" style="stroke:#181818;stroke-width:0.5;" width="128" x="513" y="936"/><ellipse cx="528" cy="952" fill="#ADD1B2" rx="11" ry="11" style="stroke:#181818;stroke-width:1.0;"/><path d="M530.4731,958.1431 Q529.8921,958.4419 529.2529,958.5913 Q528.6138,958.7407 527.9082,958.7407 Q525.4014,958.7407 524.0815,957.0889 Q522.7617,955.437 522.7617,952.3159 Q522.7617,949.1865 524.0815,947.5347 Q525.4014,945.8828 527.9082,945.8828 Q528.6138,945.8828 529.2612,946.0322 Q529.9087,946.1816 530.4731,946.4805 L530.4731,949.2031 Q529.8423,948.6221 529.2488,948.3523 Q528.6553,948.0825 528.0244,948.0825 Q526.6797,948.0825 525.9949,949.1492 Q525.3101,950.2158 525.3101,952.3159 Q525.3101,954.4077 525.9949,955.4744 Q526.6797,956.541 528.0244,956.541 Q528.6553,956.541 529.2488,956.2712 Q529.8423,956.0015 530.4731,955.4204 Z " fill="#000000"/><text fill="#000000" font-family="sans-serif" font-size="14" lengthAdjust="spacing" textLength="96" x="542" y="957.291">Philanthropist</text></g><!--class Achiever--><g id="elem_Achiever"><rect codeLine="24" fill="#F1F1F1" height="32" id="Achiever" rx="2.5" ry="2.5" style="stroke:#181818;stroke-width:0.5;" width="91" x="531.5" y="864"/><ellipse cx="546.5" cy="880" fill="#ADD1B2" rx="11" ry="11" style="stroke:#181818;stroke-width:1.0;"/><path d="M548.9731,886.1431 Q548.3921,886.4419 547.7529,886.5913 Q547.1138,886.7407 546.4082,886.7407 Q543.9014,886.7407 542.5815,885.0889 Q541.2617,883.437 541.2617,880.3159 Q541.2617,877.1865 542.5815,875.5347 Q543.9014,873.8828 546.4082,873.8828 Q547.1138,873.8828 547.7612,874.0322 Q548.4087,874.1816 548.9731,874.4805 L548.9731,877.2031 Q548.3423,876.6221 547.7488,876.3523 Q547.1553,876.0825 546.5244,876.0825 Q545.1797,876.0825 544.4949,877.1492 Q543.8101,878.2158 543.8101,880.3159 Q543.8101,882.4077 544.4949,883.4744 Q545.1797,884.541 546.5244,884.541 Q547.1553,884.541 547.7488,884.2712 Q548.3423,884.0015 548.9731,883.4204 Z " fill="#000000"/><text fill="#000000" font-family="sans-serif" font-size="14" lengthAdjust="spacing" textLength="59" x="560.5" y="885.291">Achiever</text></g><!--class Free_Spirit--><g id="elem_Free_Spirit"><rect codeLine="25" fill="#F1F1F1" height="32" id="Free_Spirit" rx="2.5" ry="2.5" style="stroke:#181818;stroke-width:0.5;" width="105" x="524.5" y="792"/><ellipse cx="539.5" cy="808" fill="#ADD1B2" rx="11" ry="11" style="stroke:#181818;stroke-width:1.0;"/><path d="M541.9731,814.1431 Q541.3921,814.4419 540.7529,814.5913 Q540.1138,814.7407 539.4082,814.7407 Q536.9014,814.7407 535.5815,813.0889 Q534.2617,811.437 534.2617,808.3159 Q534.2617,805.1865 535.5815,803.5347 Q536.9014,801.8828 539.4082,801.8828 Q540.1138,801.8828 540.7612,802.0322 Q541.4087,802.1816 541.9731,802.4805 L541.9731,805.2031 Q541.3423,804.6221 540.7488,804.3523 Q540.1553,804.0825 539.5244,804.0825 Q538.1797,804.0825 537.4949,805.1492 Q536.8101,806.2158 536.8101,808.3159 Q536.8101,810.4077 537.4949,811.4744 Q538.1797,812.541 539.5244,812.541 Q540.1553,812.541 540.7488,812.2712 Q541.3423,812.0015 541.9731,811.4204 Z " fill="#000000"/><text fill="#000000" font-family="sans-serif" font-size="14" lengthAdjust="spacing" textLength="73" x="553.5" y="813.291">Free_Spirit</text></g><!--class Socializer--><g id="elem_Socializer"><rect codeLine="26" fill="#F1F1F1" height="32" id="Socializer" rx="2.5" ry="2.5" style="stroke:#181818;stroke-width:0.5;" width="98" x="528" y="720"/><ellipse cx="543" cy="736" fill="#ADD1B2" rx="11" ry="11" style="stroke:#181818;stroke-width:1.0;"/><path d="M545.4731,742.1431 Q544.8921,742.4419 544.2529,742.5913 Q543.6138,742.7407 542.9082,742.7407 Q540.4014,742.7407 539.0815,741.0889 Q537.7617,739.437 537.7617,736.3159 Q537.7617,733.1865 539.0815,731.5347 Q540.4014,729.8828 542.9082,729.8828 Q543.6138,729.8828 544.2612,730.0322 Q544.9087,730.1816 545.4731,730.4805 L545.4731,733.2031 Q544.8423,732.6221 544.2488,732.3523 Q543.6553,732.0825 543.0244,732.0825 Q541.6797,732.0825 540.9949,733.1492 Q540.3101,734.2158 540.3101,736.3159 Q540.3101,738.4077 540.9949,739.4744 Q541.6797,740.541 543.0244,740.541 Q543.6553,740.541 544.2488,740.2712 Q544.8423,740.0015 545.4731,739.4204 Z " fill="#000000"/><text fill="#000000" font-family="sans-serif" font-size="14" lengthAdjust="spacing" textLength="66" x="557" y="741.291">Socializer</text></g><!--class Player--><g id="elem_Player"><rect codeLine="27" fill="#F1F1F1" height="32" id="Player" rx="2.5" ry="2.5" style="stroke:#181818;stroke-width:0.5;" width="73" x="540.5" y="648"/><ellipse cx="555.5" cy="664" fill="#ADD1B2" rx="11" ry="11" style="stroke:#181818;stroke-width:1.0;"/><path d="M557.9731,670.1431 Q557.3921,670.4419 556.7529,670.5913 Q556.1138,670.7407 555.4082,670.7407 Q552.9014,670.7407 551.5815,669.0889 Q550.2617,667.437 550.2617,664.3159 Q550.2617,661.1865 551.5815,659.5347 Q552.9014,657.8828 555.4082,657.8828 Q556.1138,657.8828 556.7612,658.0322 Q557.4087,658.1816 557.9731,658.4805 L557.9731,661.2031 Q557.3423,660.6221 556.7488,660.3523 Q556.1553,660.0825 555.5244,660.0825 Q554.1797,660.0825 553.4949,661.1492 Q552.8101,662.2158 552.8101,664.3159 Q552.8101,666.4077 553.4949,667.4744 Q554.1797,668.541 555.5244,668.541 Q556.1553,668.541 556.7488,668.2712 Q557.3423,668.0015 557.9731,667.4204 Z " fill="#000000"/><text fill="#000000" font-family="sans-serif" font-size="14" lengthAdjust="spacing" textLength="41" x="569.5" y="669.291">Player</text></g><!--class Disruptor--><g id="elem_Disruptor"><rect codeLine="28" fill="#F1F1F1" height="32" id="Disruptor" rx="2.5" ry="2.5" style="stroke:#181818;stroke-width:0.5;" width="97" x="528.5" y="576"/><ellipse cx="543.5" cy="592" fill="#ADD1B2" rx="11" ry="11" style="stroke:#181818;stroke-width:1.0;"/><path d="M545.9731,598.1431 Q545.3921,598.4419 544.7529,598.5913 Q544.1138,598.7407 543.4082,598.7407 Q540.9014,598.7407 539.5815,597.0889 Q538.2617,595.437 538.2617,592.3159 Q538.2617,589.1865 539.5815,587.5347 Q540.9014,585.8828 543.4082,585.8828 Q544.1138,585.8828 544.7612,586.0322 Q545.4087,586.1816 545.9731,586.4805 L545.9731,589.2031 Q545.3423,588.6221 544.7488,588.3523 Q544.1553,588.0825 543.5244,588.0825 Q542.1797,588.0825 541.4949,589.1492 Q540.8101,590.2158 540.8101,592.3159 Q540.8101,594.4077 541.4949,595.4744 Q542.1797,596.541 543.5244,596.541 Q544.1553,596.541 544.7488,596.2712 Q545.3423,596.0015 545.9731,595.4204 Z " fill="#000000"/><text fill="#000000" font-family="sans-serif" font-size="14" lengthAdjust="spacing" textLength="65" x="557.5" y="597.291">Disruptor</text></g><!--class DigitalLiteracy--><g id="elem_DigitalLiteracy"><rect codeLine="30" fill="#EAF797" height="32" id="DigitalLiteracy" rx="2.5" ry="2.5" style="stroke:#181818;stroke-width:0.5;" width="128" x="251.5" y="660"/><ellipse cx="266.5" cy="676" fill="#ADD1B2" rx="11" ry="11" style="stroke:#181818;stroke-width:1.0;"/><path d="M268.9731,682.1431 Q268.3921,682.4419 267.7529,682.5913 Q267.1138,682.7407 266.4082,682.7407 Q263.9014,682.7407 262.5815,681.0889 Q261.2617,679.437 261.2617,676.3159 Q261.2617,673.1865 262.5815,671.5347 Q263.9014,669.8828 266.4082,669.8828 Q267.1138,669.8828 267.7612,670.0322 Q268.4087,670.1816 268.9731,670.4805 L268.9731,673.2031 Q268.3423,672.6221 267.7488,672.3523 Q267.1553,672.0825 266.5244,672.0825 Q265.1797,672.0825 264.4949,673.1492 Q263.8101,674.2158 263.8101,676.3159 Q263.8101,678.4077 264.4949,679.4744 Q265.1797,680.541 266.5244,680.541 Q267.1553,680.541 267.7488,680.2712 Q268.3423,680.0015 268.9731,679.4204 Z " fill="#000000"/><text fill="#000000" font-family="sans-serif" font-size="14" lengthAdjust="spacing" textLength="96" x="280.5" y="681.291">DigitalLiteracy</text></g><g id="elem_GMN28"><path d="M190,594.34 L190,619.6505 L441,619.6505 L441,604.34 L431,594.34 L190,594.34 " fill="#FEFFDD" style="stroke:#181818;stroke-width:0.5;"/><path d="M431,594.34 L431,604.34 L441,604.34 L431,594.34 " fill="#FEFFDD" style="stroke:#181818;stroke-width:1.0;"/><text fill="#000000" font-family="sans-serif" font-size="13" lengthAdjust="spacing" textLength="230" x="196" y="611.9084">Familiarity with digital technologies.</text></g><!--class CognitiveAbility--><g id="elem_CognitiveAbility"><rect codeLine="36" fill="#EAF797" height="32" id="CognitiveAbility" rx="2.5" ry="2.5" style="stroke:#181818;stroke-width:0.5;" width="140" x="245.5" y="522"/><ellipse cx="260.5" cy="538" fill="#ADD1B2" rx="11" ry="11" style="stroke:#181818;stroke-width:1.0;"/><path d="M262.9731,544.1431 Q262.3921,544.4419 261.7529,544.5913 Q261.1138,544.7407 260.4082,544.7407 Q257.9014,544.7407 256.5815,543.0889 Q255.2617,541.437 255.2617,538.3159 Q255.2617,535.1865 256.5815,533.5347 Q257.9014,531.8828 260.4082,531.8828 Q261.1138,531.8828 261.7612,532.0322 Q262.4087,532.1816 262.9731,532.4805 L262.9731,535.2031 Q262.3423,534.6221 261.7488,534.3523 Q261.1553,534.0825 260.5244,534.0825 Q259.1797,534.0825 258.4949,535.1492 Q257.8101,536.2158 257.8101,538.3159 Q257.8101,540.4077 258.4949,541.4744 Q259.1797,542.541 260.5244,542.541 Q261.1553,542.541 261.7488,542.2712 Q262.3423,542.0015 262.9731,541.4204 Z " fill="#000000"/><text fill="#000000" font-family="sans-serif" font-size="14" lengthAdjust="spacing" textLength="108" x="274.5" y="543.291">CognitiveAbility</text></g><g id="elem_GMN33"><path d="M184,456.34 L184,481.6505 L447,481.6505 L447,466.34 L437,456.34 L184,456.34 " fill="#FEFFDD" style="stroke:#181818;stroke-width:0.5;"/><path d="M437,456.34 L437,466.34 L447,466.34 L437,456.34 " fill="#FEFFDD" style="stroke:#181818;stroke-width:1.0;"/><text fill="#000000" font-family="sans-serif" font-size="13" lengthAdjust="spacing" textLength="242" x="190" y="473.9084">Reasoning, memory, problem-solving.</text></g><!--class AttentionSpan--><g id="elem_AttentionSpan"><rect codeLine="42" fill="#EAF797" height="32" id="AttentionSpan" rx="2.5" ry="2.5" style="stroke:#181818;stroke-width:0.5;" width="130" x="250.5" y="384"/><ellipse cx="265.5" cy="400" fill="#ADD1B2" rx="11" ry="11" style="stroke:#181818;stroke-width:1.0;"/><path d="M267.9731,406.1431 Q267.3921,406.4419 266.7529,406.5913 Q266.1138,406.7407 265.4082,406.7407 Q262.9014,406.7407 261.5815,405.0889 Q260.2617,403.437 260.2617,400.3159 Q260.2617,397.1865 261.5815,395.5347 Q262.9014,393.8828 265.4082,393.8828 Q266.1138,393.8828 266.7612,394.0322 Q267.4087,394.1816 267.9731,394.4805 L267.9731,397.2031 Q267.3423,396.6221 266.7488,396.3523 Q266.1553,396.0825 265.5244,396.0825 Q264.1797,396.0825 263.4949,397.1492 Q262.8101,398.2158 262.8101,400.3159 Q262.8101,402.4077 263.4949,403.4744 Q264.1797,404.541 265.5244,404.541 Q266.1553,404.541 266.7488,404.2712 Q267.3423,404.0015 267.9731,403.4204 Z " fill="#000000"/><text fill="#000000" font-family="sans-serif" font-size="14" lengthAdjust="spacing" textLength="98" x="279.5" y="405.291">AttentionSpan</text></g><g id="elem_GMN38"><path d="M225,318.34 L225,343.6505 L406,343.6505 L406,328.34 L396,318.34 L225,318.34 " fill="#FEFFDD" style="stroke:#181818;stroke-width:0.5;"/><path d="M396,318.34 L396,328.34 L406,328.34 L396,318.34 " fill="#FEFFDD" style="stroke:#181818;stroke-width:1.0;"/><text fill="#000000" font-family="sans-serif" font-size="13" lengthAdjust="spacing" textLength="160" x="231" y="335.9084">Ability to maintain focus.</text></g><!--class SelfDiscipline--><g id="elem_SelfDiscipline"><rect codeLine="48" fill="#EAF797" height="32" id="SelfDiscipline" rx="2.5" ry="2.5" style="stroke:#181818;stroke-width:0.5;" width="123" x="254" y="246"/><ellipse cx="269" cy="262" fill="#ADD1B2" rx="11" ry="11" style="stroke:#181818;stroke-width:1.0;"/><path d="M271.4731,268.1431 Q270.8921,268.4419 270.2529,268.5913 Q269.6138,268.7407 268.9082,268.7407 Q266.4014,268.7407 265.0815,267.0889 Q263.7617,265.437 263.7617,262.3159 Q263.7617,259.1865 265.0815,257.5347 Q266.4014,255.8828 268.9082,255.8828 Q269.6138,255.8828 270.2612,256.0322 Q270.9087,256.1816 271.4731,256.4805 L271.4731,259.2031 Q270.8423,258.6221 270.2488,258.3523 Q269.6553,258.0825 269.0244,258.0825 Q267.6797,258.0825 266.9949,259.1492 Q266.3101,260.2158 266.3101,262.3159 Q266.3101,264.4077 266.9949,265.4744 Q267.6797,266.541 269.0244,266.541 Q269.6553,266.541 270.2488,266.2712 Q270.8423,266.0015 271.4731,265.4204 Z " fill="#000000"/><text fill="#000000" font-family="sans-serif" font-size="14" lengthAdjust="spacing" textLength="91" x="283" y="267.291">SelfDiscipline</text></g><g id="elem_GMN43"><path d="M198,180.34 L198,205.6505 L433,205.6505 L433,190.34 L423,180.34 L198,180.34 " fill="#FEFFDD" style="stroke:#181818;stroke-width:0.5;"/><path d="M423,180.34 L423,190.34 L433,190.34 L423,180.34 " fill="#FEFFDD" style="stroke:#181818;stroke-width:1.0;"/><text fill="#000000" font-family="sans-serif" font-size="13" lengthAdjust="spacing" textLength="214" x="204" y="197.9084">Consistency and task completion.</text></g><!--class FrustrationTolerance--><g id="elem_FrustrationTolerance"><rect codeLine="54" fill="#EAF797" height="32" id="FrustrationTolerance" rx="2.5" ry="2.5" style="stroke:#181818;stroke-width:0.5;" width="176" x="227.5" y="108"/><ellipse cx="242.5" cy="124" fill="#ADD1B2" rx="11" ry="11" style="stroke:#181818;stroke-width:1.0;"/><path d="M244.9731,130.1431 Q244.3921,130.4419 243.7529,130.5913 Q243.1138,130.7407 242.4082,130.7407 Q239.9014,130.7407 238.5815,129.0889 Q237.2617,127.437 237.2617,124.3159 Q237.2617,121.1865 238.5815,119.5347 Q239.9014,117.8828 242.4082,117.8828 Q243.1138,117.8828 243.7612,118.0322 Q244.4087,118.1816 244.9731,118.4805 L244.9731,121.2031 Q244.3423,120.6221 243.7488,120.3523 Q243.1553,120.0825 242.5244,120.0825 Q241.1797,120.0825 240.4949,121.1492 Q239.8101,122.2158 239.8101,124.3159 Q239.8101,126.4077 240.4949,127.4744 Q241.1797,128.541 242.5244,128.541 Q243.1553,128.541 243.7488,128.2712 Q244.3423,128.0015 244.9731,127.4204 Z " fill="#000000"/><text fill="#000000" font-family="sans-serif" font-size="14" lengthAdjust="spacing" textLength="144" x="256.5" y="129.291">FrustrationTolerance</text></g><g id="elem_GMN48"><path d="M202.5,42.34 L202.5,67.6505 L428.5,67.6505 L428.5,52.34 L418.5,42.34 L202.5,42.34 " fill="#FEFFDD" style="stroke:#181818;stroke-width:0.5;"/><path d="M418.5,42.34 L418.5,52.34 L428.5,52.34 L418.5,42.34 " fill="#FEFFDD" style="stroke:#181818;stroke-width:1.0;"/><text fill="#000000" font-family="sans-serif" font-size="13" lengthAdjust="spacing" textLength="205" x="208.5" y="59.9084">Coping with difficulty and delay.</text></g><!--reverse link UserTrait to MotivationalTrait--><g id="link_UserTrait_MotivationalTrait"><path d="M79.2338,571.7868 C95.7838,644.1368 158,916 158,916 C158,916 201.84,926.09 243.12,935.58 " fill="none" id="UserTrait-backto-MotivationalTrait" style="stroke:#181818;stroke-width:1.0;"/><polygon fill="none" points="75.22,554.24,73.3849,573.1247,85.0827,570.4488,75.22,554.24" style="stroke:#181818;stroke-width:1.0;"/></g><!--link MotivationalTrait to GMN6--><g id="link_MotivationalTrait_GMN6"><path d="M315.5,935.78 C315.5,931.97 315.5,929 315.5,929 C315.5,929 315.5,906 315.5,906 C315.5,906 315.5,901.28 315.5,896.11 " fill="none" id="MotivationalTrait-GMN6" style="stroke:#181818;stroke-width:1.0;stroke-dasharray:7.0,7.0;"/></g><!--reverse link UserTrait to PlayerType--><g id="link_UserTrait_PlayerType"><path d="M83.5527,571.4339 C103.0927,625.6539 158,778 158,778 C158,778 216.86,791.54 262.39,802.01 " fill="none" id="UserTrait-backto-PlayerType" style="stroke:#181818;stroke-width:1.0;"/><polygon fill="none" points="77.45,554.5,77.9081,573.4681,89.1973,569.3997,77.45,554.5" style="stroke:#181818;stroke-width:1.0;"/></g><!--link PlayerType to GMN11--><g id="link_PlayerType_GMN11"><path d="M315.5,797.78 C315.5,793.97 315.5,791 315.5,791 C315.5,791 315.5,768 315.5,768 C315.5,768 315.5,763.28 315.5,758.11 " fill="none" id="PlayerType-GMN11" style="stroke:#181818;stroke-width:1.0;stroke-dasharray:7.0,7.0;"/></g><!--reverse link PlayerType to Philanthropist--><g id="link_PlayerType_Philanthropist"><path d="M386.1522,830.024 C431.6822,840.494 473,850 473,850 C473,850 513,916 513,916 C513,916 530.78,926.16 547.45,935.69 " fill="none" id="PlayerType-backto-Philanthropist" style="stroke:#181818;stroke-width:1.0;"/><polygon fill="none" points="368.61,825.99,384.8075,835.8713,387.4968,824.1766,368.61,825.99" style="stroke:#181818;stroke-width:1.0;"/></g><!--reverse link PlayerType to Achiever--><g id="link_PlayerType_Achiever"><path d="M386.1522,830.024 C431.6822,840.494 473,850 473,850 C473,850 503.37,858.84 531.12,866.93 " fill="none" id="PlayerType-backto-Achiever" style="stroke:#181818;stroke-width:1.0;"/><polygon fill="none" points="368.61,825.99,384.8075,835.8713,387.4968,824.1766,368.61,825.99" style="stroke:#181818;stroke-width:1.0;"/></g><!--reverse link PlayerType to Free_Spirit--><g id="link_PlayerType_Free_Spirit"><path d="M386.6953,812.3768 C431.9853,811.3368 479.19,810.24 524.32,809.19 " fill="none" id="PlayerType-backto-Free_Spirit" style="stroke:#181818;stroke-width:1.0;"/><polygon fill="none" points="368.7,812.79,386.833,818.3752,386.5575,806.3784,368.7,812.79" style="stroke:#181818;stroke-width:1.0;"/></g><!--reverse link PlayerType to Socializer--><g id="link_PlayerType_Socializer"><path d="M386.1522,797.976 C431.6822,787.506 473,778 473,778 C473,778 506.73,764.25 535.59,752.48 " fill="none" id="PlayerType-backto-Socializer" style="stroke:#181818;stroke-width:1.0;"/><polygon fill="none" points="368.61,802.01,387.4968,803.8234,384.8075,792.1287,368.61,802.01" style="stroke:#181818;stroke-width:1.0;"/></g><!--reverse link PlayerType to Player--><g id="link_PlayerType_Player"><path d="M386.1522,797.976 C431.6822,787.506 473,778 473,778 C473,778 513,700 513,700 C513,700 530.78,689.84 547.45,680.31 " fill="none" id="PlayerType-backto-Player" style="stroke:#181818;stroke-width:1.0;"/><polygon fill="none" points="368.61,802.01,387.4968,803.8234,384.8075,792.1287,368.61,802.01" style="stroke:#181818;stroke-width:1.0;"/></g><!--reverse link PlayerType to Disruptor--><g id="link_PlayerType_Disruptor"><path d="M386.1522,797.976 C431.6822,787.506 473,778 473,778 C473,778 513,628 513,628 C513,628 530.78,617.84 547.45,608.31 " fill="none" id="PlayerType-backto-Disruptor" style="stroke:#181818;stroke-width:1.0;"/><polygon fill="none" points="368.61,802.01,387.4968,803.8234,384.8075,792.1287,368.61,802.01" style="stroke:#181818;stroke-width:1.0;"/></g><!--reverse link UserTrait to DigitalLiteracy--><g id="link_UserTrait_DigitalLiteracy"><path d="M97.0423,568.1179 C121.4923,596.9479 158,640 158,640 C158,640 207.86,651.47 251.3,661.46 " fill="none" id="UserTrait-backto-DigitalLiteracy" style="stroke:#181818;stroke-width:1.0;"/><polygon fill="none" points="85.4,554.39,92.4663,571.9987,101.6183,564.2372,85.4,554.39" style="stroke:#181818;stroke-width:1.0;"/></g><!--link DigitalLiteracy to GMN28--><g id="link_DigitalLiteracy_GMN28"><path d="M315.5,659.78 C315.5,655.97 315.5,653 315.5,653 C315.5,653 315.5,630 315.5,630 C315.5,630 315.5,625.28 315.5,620.11 " fill="none" id="DigitalLiteracy-GMN28" style="stroke:#181818;stroke-width:1.0;stroke-dasharray:7.0,7.0;"/></g><!--reverse link UserTrait to CognitiveAbility--><g id="link_UserTrait_CognitiveAbility"><path d="M136.35,538 C172.35,538 204.62,538 245.25,538 " fill="none" id="UserTrait-backto-CognitiveAbility" style="stroke:#181818;stroke-width:1.0;"/><polygon fill="none" points="118.35,538,136.35,544,136.35,532,118.35,538" style="stroke:#181818;stroke-width:1.0;"/></g><!--link CognitiveAbility to GMN33--><g id="link_CognitiveAbility_GMN33"><path d="M315.5,521.78 C315.5,517.97 315.5,515 315.5,515 C315.5,515 315.5,492 315.5,492 C315.5,492 315.5,487.28 315.5,482.11 " fill="none" id="CognitiveAbility-GMN33" style="stroke:#181818;stroke-width:1.0;stroke-dasharray:7.0,7.0;"/></g><!--reverse link UserTrait to AttentionSpan--><g id="link_UserTrait_AttentionSpan"><path d="M97.0423,507.8821 C121.4923,479.0521 158,436 158,436 C158,436 207.17,424.69 250.39,414.75 " fill="none" id="UserTrait-backto-AttentionSpan" style="stroke:#181818;stroke-width:1.0;"/><polygon fill="none" points="85.4,521.61,101.6183,511.7628,92.4663,504.0013,85.4,521.61" style="stroke:#181818;stroke-width:1.0;"/></g><!--link AttentionSpan to GMN38--><g id="link_AttentionSpan_GMN38"><path d="M315.5,383.78 C315.5,379.97 315.5,377 315.5,377 C315.5,377 315.5,354 315.5,354 C315.5,354 315.5,349.28 315.5,344.11 " fill="none" id="AttentionSpan-GMN38" style="stroke:#181818;stroke-width:1.0;stroke-dasharray:7.0,7.0;"/></g><!--reverse link UserTrait to SelfDiscipline--><g id="link_UserTrait_SelfDiscipline"><path d="M83.5527,504.5661 C103.0927,450.3461 158,298 158,298 C158,298 209.6,286.13 253.54,276.02 " fill="none" id="UserTrait-backto-SelfDiscipline" style="stroke:#181818;stroke-width:1.0;"/><polygon fill="none" points="77.45,521.5,89.1973,506.6003,77.9081,502.5319,77.45,521.5" style="stroke:#181818;stroke-width:1.0;"/></g><!--link SelfDiscipline to GMN43--><g id="link_SelfDiscipline_GMN43"><path d="M315.5,245.78 C315.5,241.97 315.5,239 315.5,239 C315.5,239 315.5,216 315.5,216 C315.5,216 315.5,211.28 315.5,206.11 " fill="none" id="SelfDiscipline-GMN43" style="stroke:#181818;stroke-width:1.0;stroke-dasharray:7.0,7.0;"/></g><!--reverse link UserTrait to FrustrationTolerance--><g id="link_UserTrait_FrustrationTolerance"><path d="M79.2338,504.2132 C95.7838,431.8632 158,160 158,160 C158,160 201.84,149.91 243.12,140.42 " fill="none" id="UserTrait-backto-FrustrationTolerance" style="stroke:#181818;stroke-width:1.0;"/><polygon fill="none" points="75.22,521.76,85.0827,505.5512,73.3849,502.8753,75.22,521.76" style="stroke:#181818;stroke-width:1.0;"/></g><!--link FrustrationTolerance to GMN48--><g id="link_FrustrationTolerance_GMN48"><path d="M315.5,107.78 C315.5,103.97 315.5,101 315.5,101 C315.5,101 315.5,78 315.5,78 C315.5,78 315.5,73.28 315.5,68.11 " fill="none" id="FrustrationTolerance-GMN48" style="stroke:#181818;stroke-width:1.0;stroke-dasharray:7.0,7.0;"/></g><!--SRC=[ZPJ1Rjim38RlUGe2lNR33WEw7OCEFNN0i7JdWP4fcuWi2XAJpHlsxgETDecTECZHv4_g8_rBPSCnOSOM0aVIBX4a2Lt_iMYu8g0sQGSjQIDLEGsXQkRrLgcCXUsQSba4yWegaBbk52hEv9GbBihXl2WL5KhmySD9C6FSd0KJkWtMjD8k4FIDCDQ15gzX-54elsHaBN3ddVVqoNlukm1m0Kivfk6Eq3zyVl1-SKX-5UKTzcGO9YAWtqgnEcbWLSEavqLlKuDDfGHhKPKMn9zBJVATKhR9emxnNjMUgC0rDhHJoboKNNbl5OOnD3voVmlO6LN_kwu3JtYETPRhTL1Zox66CYnNCc1AMT0rC-Ss731gaoKPtk74KTkzSkaQffqTS4Npb8b-hX9dljfg9Ouny9_hpVQXQuelNF8sgLmKdQXgLWpFRBy0NNUB8QObitQO24tmPEiFZBQ13dwnDdPL1WaekIPAa9ffnWEFKaSsuz1oRItq9jApcbdKgN8mBXQ9vfRxlanoTm_cbNMWzbsHiBF4PT2b6atlxbN2U0lbk60MSIIpzDjCzkoqo7Q_E88NjvtPtug2DqiuJlrhTmlNf68MRAop_AF4OlU5efa33KInRC19cmBr_9VvdlAsQ1wUXHS9PfZeRgAyM3VBUaaz4AV-MNYrfFVija7ty1NPhHaX__iF]--></g></svg>