<?xml version="1.0" encoding="us-ascii" standalone="no"?><svg xmlns="http://www.w3.org/2000/svg" xmlns:xlink="http://www.w3.org/1999/xlink" contentStyleType="text/css" height="610px" preserveAspectRatio="none" style="width:3348px;height:610px;background:#FFFFFF;" version="1.1" viewBox="0 0 3348 610" width="3348px" zoomAndPan="magnify"><defs/><g><!--cluster User_and_UserTraits--><g id="cluster_User_and_UserTraits"><path d="M8.5,6 L156.5,6 A3.75,3.75 0 0 1 159,8.5 L166,28.4883 L3338.5,28.4883 A2.5,2.5 0 0 1 3341,30.9883 L3341,601.34 A2.5,2.5 0 0 1 3338.5,603.84 L8.5,603.84 A2.5,2.5 0 0 1 6,601.34 L6,8.5 A2.5,2.5 0 0 1 8.5,6 " fill="none" style="stroke:#000000;stroke-width:1.5;"/><line style="stroke:#000000;stroke-width:1.5;" x1="6" x2="166" y1="28.4883" y2="28.4883"/><text fill="#000000" font-family="sans-serif" font-size="14" font-weight="bold" lengthAdjust="spacing" textLength="147" x="10" y="21.5352">User_and_UserTraits</text></g><!--class User--><g id="elem_User"><rect codeLine="3" fill="#F59BFF" height="80.9766" id="User" rx="2.5" ry="2.5" style="stroke:#181818;stroke-width:0.5;" width="306" x="1894" y="41"/><ellipse cx="2027.25" cy="57" fill="#ADD1B2" rx="11" ry="11" style="stroke:#181818;stroke-width:1.0;"/><path d="M2029.7231,63.1431 Q2029.1421,63.4419 2028.5029,63.5913 Q2027.8638,63.7407 2027.1582,63.7407 Q2024.6514,63.7407 2023.3315,62.0889 Q2022.0117,60.437 2022.0117,57.3159 Q2022.0117,54.1865 2023.3315,52.5347 Q2024.6514,50.8828 2027.1582,50.8828 Q2027.8638,50.8828 2028.5112,51.0322 Q2029.1587,51.1816 2029.7231,51.4805 L2029.7231,54.2031 Q2029.0923,53.6221 2028.4988,53.3523 Q2027.9053,53.0825 2027.2744,53.0825 Q2025.9297,53.0825 2025.2449,54.1492 Q2024.5601,55.2158 2024.5601,57.3159 Q2024.5601,59.4077 2025.2449,60.4744 Q2025.9297,61.541 2027.2744,61.541 Q2027.9053,61.541 2028.4988,61.2712 Q2029.0923,61.0015 2029.7231,60.4204 Z " fill="#000000"/><text fill="#000000" font-family="sans-serif" font-size="14" lengthAdjust="spacing" textLength="31" x="2047.75" y="62.291">User</text><line style="stroke:#181818;stroke-width:0.5;" x1="1895" x2="2199" y1="73" y2="73"/><ellipse cx="1905" cy="86.7441" fill="none" rx="3" ry="3" style="stroke:#038048;stroke-width:1.0;"/><text fill="#000000" font-family="sans-serif" font-size="14" lengthAdjust="spacing" textLength="39" x="1914" y="90.5352">id: int</text><ellipse cx="1905" cy="103.2324" fill="none" rx="3" ry="3" style="stroke:#038048;stroke-width:1.0;"/><text fill="#000000" font-family="sans-serif" font-size="14" lengthAdjust="spacing" textLength="280" x="1914" y="107.0234">UserTraitWeights: List&lt;UserTraitWeight&gt;</text><line style="stroke:#181818;stroke-width:0.5;" x1="1895" x2="2199" y1="113.9766" y2="113.9766"/></g><!--class UserTrait--><g id="elem_UserTrait"><rect codeLine="8" fill="#F1F1F1" height="80.9766" id="UserTrait" rx="2.5" ry="2.5" style="stroke:#181818;stroke-width:0.5;" width="112" x="1350" y="389.93"/><ellipse cx="1372.65" cy="405.93" fill="#ADD1B2" rx="11" ry="11" style="stroke:#181818;stroke-width:1.0;"/><path d="M1375.1231,412.0731 Q1374.5421,412.3719 1373.9029,412.5213 Q1373.2638,412.6707 1372.5582,412.6707 Q1370.0514,412.6707 1368.7315,411.0189 Q1367.4117,409.367 1367.4117,406.2459 Q1367.4117,403.1165 1368.7315,401.4647 Q1370.0514,399.8128 1372.5582,399.8128 Q1373.2638,399.8128 1373.9112,399.9622 Q1374.5587,400.1116 1375.1231,400.4105 L1375.1231,403.1331 Q1374.4923,402.5521 1373.8988,402.2823 Q1373.3053,402.0125 1372.6744,402.0125 Q1371.3297,402.0125 1370.6449,403.0792 Q1369.9601,404.1458 1369.9601,406.2459 Q1369.9601,408.3377 1370.6449,409.4044 Q1371.3297,410.471 1372.6744,410.471 Q1373.3053,410.471 1373.8988,410.2012 Q1374.4923,409.9315 1375.1231,409.3504 Z " fill="#000000"/><text fill="#000000" font-family="sans-serif" font-size="14" lengthAdjust="spacing" textLength="63" x="1388.35" y="411.221">UserTrait</text><line style="stroke:#181818;stroke-width:0.5;" x1="1351" x2="1461" y1="421.93" y2="421.93"/><ellipse cx="1361" cy="435.6741" fill="none" rx="3" ry="3" style="stroke:#038048;stroke-width:1.0;"/><text fill="#000000" font-family="sans-serif" font-size="14" lengthAdjust="spacing" textLength="39" x="1370" y="439.4652">id: int</text><ellipse cx="1361" cy="452.1624" fill="none" rx="3" ry="3" style="stroke:#038048;stroke-width:1.0;"/><text fill="#000000" font-family="sans-serif" font-size="14" lengthAdjust="spacing" textLength="86" x="1370" y="455.9534">name: string</text><line style="stroke:#181818;stroke-width:0.5;" x1="1351" x2="1461" y1="462.9066" y2="462.9066"/></g><!--class UserTraitWeight--><g id="elem_UserTraitWeight"><rect codeLine="13" fill="#F59BFF" height="113.9531" id="UserTraitWeight" rx="2.5" ry="2.5" style="stroke:#181818;stroke-width:0.5;" width="203" x="1763.5" y="198.98"/><ellipse cx="1805.95" cy="214.98" fill="#ADD1B2" rx="11" ry="11" style="stroke:#181818;stroke-width:1.0;"/><path d="M1808.4231,221.1231 Q1807.8421,221.4219 1807.2029,221.5713 Q1806.5638,221.7207 1805.8582,221.7207 Q1803.3514,221.7207 1802.0315,220.0689 Q1800.7117,218.417 1800.7117,215.2959 Q1800.7117,212.1665 1802.0315,210.5147 Q1803.3514,208.8628 1805.8582,208.8628 Q1806.5638,208.8628 1807.2112,209.0122 Q1807.8587,209.1616 1808.4231,209.4605 L1808.4231,212.1831 Q1807.7923,211.6021 1807.1988,211.3323 Q1806.6053,211.0625 1805.9744,211.0625 Q1804.6297,211.0625 1803.9449,212.1292 Q1803.2601,213.1958 1803.2601,215.2959 Q1803.2601,217.3877 1803.9449,218.4544 Q1804.6297,219.521 1805.9744,219.521 Q1806.6053,219.521 1807.1988,219.2512 Q1807.7923,218.9815 1808.4231,218.4004 Z " fill="#000000"/><text fill="#000000" font-family="sans-serif" font-size="14" lengthAdjust="spacing" textLength="110" x="1826.05" y="220.271">UserTraitWeight</text><line style="stroke:#181818;stroke-width:0.5;" x1="1764.5" x2="1965.5" y1="230.98" y2="230.98"/><ellipse cx="1774.5" cy="244.7241" fill="none" rx="3" ry="3" style="stroke:#038048;stroke-width:1.0;"/><text fill="#000000" font-family="sans-serif" font-size="14" lengthAdjust="spacing" textLength="69" x="1783.5" y="248.5152">userId: int</text><ellipse cx="1774.5" cy="261.2124" fill="none" rx="3" ry="3" style="stroke:#038048;stroke-width:1.0;"/><text fill="#000000" font-family="sans-serif" font-size="14" lengthAdjust="spacing" textLength="67" x="1783.5" y="265.0034">traitId: int</text><ellipse cx="1774.5" cy="277.7007" fill="none" rx="3" ry="3" style="stroke:#038048;stroke-width:1.0;"/><text fill="#000000" font-family="sans-serif" font-size="14" lengthAdjust="spacing" textLength="133" x="1783.5" y="281.4917">userTrait: UserTrait</text><line style="stroke:#181818;stroke-width:0.5;" x1="1764.5" x2="1965.5" y1="288.4448" y2="288.4448"/><ellipse cx="1774.5" cy="302.189" fill="#84BE84" rx="3" ry="3" style="stroke:#038048;stroke-width:1.0;"/><text fill="#000000" font-family="sans-serif" font-size="14" lengthAdjust="spacing" textLength="177" x="1783.5" y="305.98">weight: float  ' (0.0 - 1.0) '</text></g><!--class Program--><g id="elem_Program"><rect fill="#F1F1F1" height="48" id="Program" rx="2.5" ry="2.5" style="stroke:#181818;stroke-width:0.5;" width="91" x="2001.5" y="231.96"/><ellipse cx="2016.5" cy="247.96" fill="#ADD1B2" rx="11" ry="11" style="stroke:#181818;stroke-width:1.0;"/><path d="M2018.9731,254.1031 Q2018.3921,254.4019 2017.7529,254.5513 Q2017.1138,254.7007 2016.4082,254.7007 Q2013.9014,254.7007 2012.5815,253.0489 Q2011.2617,251.397 2011.2617,248.2759 Q2011.2617,245.1465 2012.5815,243.4947 Q2013.9014,241.8428 2016.4082,241.8428 Q2017.1138,241.8428 2017.7612,241.9922 Q2018.4087,242.1416 2018.9731,242.4405 L2018.9731,245.1631 Q2018.3423,244.5821 2017.7488,244.3123 Q2017.1553,244.0425 2016.5244,244.0425 Q2015.1797,244.0425 2014.4949,245.1092 Q2013.8101,246.1758 2013.8101,248.2759 Q2013.8101,250.3677 2014.4949,251.4344 Q2015.1797,252.501 2016.5244,252.501 Q2017.1553,252.501 2017.7488,252.2312 Q2018.3423,251.9615 2018.9731,251.3804 Z " fill="#000000"/><text fill="#000000" font-family="sans-serif" font-size="14" lengthAdjust="spacing" textLength="59" x="2030.5" y="253.251">Program</text><line style="stroke:#181818;stroke-width:0.5;" x1="2002.5" x2="2091.5" y1="263.96" y2="263.96"/><line style="stroke:#181818;stroke-width:0.5;" x1="2002.5" x2="2091.5" y1="271.96" y2="271.96"/></g><!--class UserAction--><g id="elem_UserAction"><rect fill="#F1F1F1" height="48" id="UserAction" rx="2.5" ry="2.5" style="stroke:#181818;stroke-width:0.5;" width="107" x="2127.5" y="231.96"/><ellipse cx="2142.5" cy="247.96" fill="#ADD1B2" rx="11" ry="11" style="stroke:#181818;stroke-width:1.0;"/><path d="M2144.9731,254.1031 Q2144.3921,254.4019 2143.7529,254.5513 Q2143.1138,254.7007 2142.4082,254.7007 Q2139.9014,254.7007 2138.5815,253.0489 Q2137.2617,251.397 2137.2617,248.2759 Q2137.2617,245.1465 2138.5815,243.4947 Q2139.9014,241.8428 2142.4082,241.8428 Q2143.1138,241.8428 2143.7612,241.9922 Q2144.4087,242.1416 2144.9731,242.4405 L2144.9731,245.1631 Q2144.3423,244.5821 2143.7488,244.3123 Q2143.1553,244.0425 2142.5244,244.0425 Q2141.1797,244.0425 2140.4949,245.1092 Q2139.8101,246.1758 2139.8101,248.2759 Q2139.8101,250.3677 2140.4949,251.4344 Q2141.1797,252.501 2142.5244,252.501 Q2143.1553,252.501 2143.7488,252.2312 Q2144.3423,251.9615 2144.9731,251.3804 Z " fill="#000000"/><text fill="#000000" font-family="sans-serif" font-size="14" lengthAdjust="spacing" textLength="75" x="2156.5" y="253.251">UserAction</text><line style="stroke:#181818;stroke-width:0.5;" x1="2128.5" x2="2233.5" y1="263.96" y2="263.96"/><line style="stroke:#181818;stroke-width:0.5;" x1="2128.5" x2="2233.5" y1="271.96" y2="271.96"/></g><!--class MotivationalTrait--><g id="elem_MotivationalTrait"><rect codeLine="25" fill="#F1F1F1" height="48" id="MotivationalTrait" rx="2.5" ry="2.5" style="stroke:#181818;stroke-width:0.5;" width="148" x="22" y="535.87"/><ellipse cx="37" cy="551.87" fill="#ADD1B2" rx="11" ry="11" style="stroke:#181818;stroke-width:1.0;"/><path d="M39.4731,558.0131 Q38.8921,558.3119 38.2529,558.4613 Q37.6138,558.6107 36.9082,558.6107 Q34.4014,558.6107 33.0815,556.9589 Q31.7617,555.307 31.7617,552.1859 Q31.7617,549.0565 33.0815,547.4047 Q34.4014,545.7528 36.9082,545.7528 Q37.6138,545.7528 38.2612,545.9022 Q38.9087,546.0516 39.4731,546.3505 L39.4731,549.0731 Q38.8423,548.4921 38.2488,548.2223 Q37.6553,547.9525 37.0244,547.9525 Q35.6797,547.9525 34.9949,549.0192 Q34.3101,550.0858 34.3101,552.1859 Q34.3101,554.2777 34.9949,555.3444 Q35.6797,556.411 37.0244,556.411 Q37.6553,556.411 38.2488,556.1412 Q38.8423,555.8715 39.4731,555.2904 Z " fill="#000000"/><text fill="#000000" font-family="sans-serif" font-size="14" lengthAdjust="spacing" textLength="116" x="51" y="557.161">MotivationalTrait</text><line style="stroke:#181818;stroke-width:0.5;" x1="23" x2="169" y1="567.87" y2="567.87"/><line style="stroke:#181818;stroke-width:0.5;" x1="23" x2="169" y1="575.87" y2="575.87"/></g><g id="elem_GMN14"><path d="M205,539.56 L205,555.87 L170.33,559.87 L205,563.87 L205,580.1811 A0,0 0 0 0 205,580.1811 L523,580.1811 A0,0 0 0 0 523,580.1811 L523,549.56 L513,539.56 L205,539.56 A0,0 0 0 0 205,539.56 " fill="#FEFFDD" style="stroke:#181818;stroke-width:0.5;"/><path d="M513,539.56 L513,549.56 L523,549.56 L513,539.56 " fill="#FEFFDD" style="stroke:#181818;stroke-width:0.5;"/><text fill="#000000" font-family="sans-serif" font-size="13" lengthAdjust="spacing" textLength="297" x="211" y="557.1284">MotivationalTrait is a representation of a user's</text><text fill="#000000" font-family="sans-serif" font-size="13" lengthAdjust="spacing" textLength="179" x="211" y="572.4389">motivational characteristics.</text></g><!--class PlayerType--><g id="elem_PlayerType"><rect codeLine="31" fill="#F1F1F1" height="48" id="PlayerType" rx="2.5" ry="2.5" style="stroke:#181818;stroke-width:0.5;" width="106" x="558" y="535.87"/><ellipse cx="573" cy="551.87" fill="#ADD1B2" rx="11" ry="11" style="stroke:#181818;stroke-width:1.0;"/><path d="M575.4731,558.0131 Q574.8921,558.3119 574.2529,558.4613 Q573.6138,558.6107 572.9082,558.6107 Q570.4014,558.6107 569.0815,556.9589 Q567.7617,555.307 567.7617,552.1859 Q567.7617,549.0565 569.0815,547.4047 Q570.4014,545.7528 572.9082,545.7528 Q573.6138,545.7528 574.2612,545.9022 Q574.9087,546.0516 575.4731,546.3505 L575.4731,549.0731 Q574.8423,548.4921 574.2488,548.2223 Q573.6553,547.9525 573.0244,547.9525 Q571.6797,547.9525 570.9949,549.0192 Q570.3101,550.0858 570.3101,552.1859 Q570.3101,554.2777 570.9949,555.3444 Q571.6797,556.411 573.0244,556.411 Q573.6553,556.411 574.2488,556.1412 Q574.8423,555.8715 575.4731,555.2904 Z " fill="#000000"/><text fill="#000000" font-family="sans-serif" font-size="14" lengthAdjust="spacing" textLength="74" x="587" y="557.161">PlayerType</text><line style="stroke:#181818;stroke-width:0.5;" x1="559" x2="663" y1="567.87" y2="567.87"/><line style="stroke:#181818;stroke-width:0.5;" x1="559" x2="663" y1="575.87" y2="575.87"/></g><g id="elem_GMN19"><path d="M699,539.56 L699,555.87 L664.44,559.87 L699,563.87 L699,580.1811 A0,0 0 0 0 699,580.1811 L1025,580.1811 A0,0 0 0 0 1025,580.1811 L1025,549.56 L1015,539.56 L699,539.56 A0,0 0 0 0 699,539.56 " fill="#FEFFDD" style="stroke:#181818;stroke-width:0.5;"/><path d="M1015,539.56 L1015,549.56 L1025,549.56 L1015,539.56 " fill="#FEFFDD" style="stroke:#181818;stroke-width:0.5;"/><text fill="#000000" font-family="sans-serif" font-size="13" lengthAdjust="spacing" textLength="305" x="705" y="557.1284">Playertype is a representation of a user's gaming</text><text fill="#000000" font-family="sans-serif" font-size="13" lengthAdjust="spacing" textLength="113" x="705" y="572.4389">style or approach.</text></g><!--class DigitalLiteracy--><g id="elem_DigitalLiteracy"><rect codeLine="37" fill="#F1F1F1" height="48" id="DigitalLiteracy" rx="2.5" ry="2.5" style="stroke:#181818;stroke-width:0.5;" width="128" x="1060" y="535.87"/><ellipse cx="1075" cy="551.87" fill="#ADD1B2" rx="11" ry="11" style="stroke:#181818;stroke-width:1.0;"/><path d="M1077.4731,558.0131 Q1076.8921,558.3119 1076.2529,558.4613 Q1075.6138,558.6107 1074.9082,558.6107 Q1072.4014,558.6107 1071.0815,556.9589 Q1069.7617,555.307 1069.7617,552.1859 Q1069.7617,549.0565 1071.0815,547.4047 Q1072.4014,545.7528 1074.9082,545.7528 Q1075.6138,545.7528 1076.2612,545.9022 Q1076.9087,546.0516 1077.4731,546.3505 L1077.4731,549.0731 Q1076.8423,548.4921 1076.2488,548.2223 Q1075.6553,547.9525 1075.0244,547.9525 Q1073.6797,547.9525 1072.9949,549.0192 Q1072.3101,550.0858 1072.3101,552.1859 Q1072.3101,554.2777 1072.9949,555.3444 Q1073.6797,556.411 1075.0244,556.411 Q1075.6553,556.411 1076.2488,556.1412 Q1076.8423,555.8715 1077.4731,555.2904 Z " fill="#000000"/><text fill="#000000" font-family="sans-serif" font-size="14" lengthAdjust="spacing" textLength="96" x="1089" y="557.161">DigitalLiteracy</text><line style="stroke:#181818;stroke-width:0.5;" x1="1061" x2="1187" y1="567.87" y2="567.87"/><line style="stroke:#181818;stroke-width:0.5;" x1="1061" x2="1187" y1="575.87" y2="575.87"/></g><g id="elem_GMN24"><path d="M1223.5,531.91 L1223.5,555.87 L1188.3,559.87 L1223.5,563.87 L1223.5,587.8416 A0,0 0 0 0 1223.5,587.8416 L1582.5,587.8416 A0,0 0 0 0 1582.5,587.8416 L1582.5,541.91 L1572.5,531.91 L1223.5,531.91 A0,0 0 0 0 1223.5,531.91 " fill="#FEFFDD" style="stroke:#181818;stroke-width:0.5;"/><path d="M1572.5,531.91 L1572.5,541.91 L1582.5,541.91 L1572.5,531.91 " fill="#FEFFDD" style="stroke:#181818;stroke-width:0.5;"/><text fill="#000000" font-family="sans-serif" font-size="13" lengthAdjust="spacing" textLength="338" x="1229.5" y="549.4784">Describes a user's familiarity and comfort with digital</text><text fill="#000000" font-family="sans-serif" font-size="13" lengthAdjust="spacing" textLength="320" x="1229.5" y="564.7889">technologies, including software tools, navigation,</text><text fill="#000000" font-family="sans-serif" font-size="13" lengthAdjust="spacing" textLength="169" x="1229.5" y="580.0995">and basic troubleshooting.</text></g><!--class CognitiveAbility--><g id="elem_CognitiveAbility"><rect codeLine="44" fill="#F1F1F1" height="48" id="CognitiveAbility" rx="2.5" ry="2.5" style="stroke:#181818;stroke-width:0.5;" width="140" x="1617" y="535.87"/><ellipse cx="1632" cy="551.87" fill="#ADD1B2" rx="11" ry="11" style="stroke:#181818;stroke-width:1.0;"/><path d="M1634.4731,558.0131 Q1633.8921,558.3119 1633.2529,558.4613 Q1632.6138,558.6107 1631.9082,558.6107 Q1629.4014,558.6107 1628.0815,556.9589 Q1626.7617,555.307 1626.7617,552.1859 Q1626.7617,549.0565 1628.0815,547.4047 Q1629.4014,545.7528 1631.9082,545.7528 Q1632.6138,545.7528 1633.2612,545.9022 Q1633.9087,546.0516 1634.4731,546.3505 L1634.4731,549.0731 Q1633.8423,548.4921 1633.2488,548.2223 Q1632.6553,547.9525 1632.0244,547.9525 Q1630.6797,547.9525 1629.9949,549.0192 Q1629.3101,550.0858 1629.3101,552.1859 Q1629.3101,554.2777 1629.9949,555.3444 Q1630.6797,556.411 1632.0244,556.411 Q1632.6553,556.411 1633.2488,556.1412 Q1633.8423,555.8715 1634.4731,555.2904 Z " fill="#000000"/><text fill="#000000" font-family="sans-serif" font-size="14" lengthAdjust="spacing" textLength="108" x="1646" y="557.161">CognitiveAbility</text><line style="stroke:#181818;stroke-width:0.5;" x1="1618" x2="1756" y1="567.87" y2="567.87"/><line style="stroke:#181818;stroke-width:0.5;" x1="1618" x2="1756" y1="575.87" y2="575.87"/></g><g id="elem_GMN29"><path d="M1791.5,531.91 L1791.5,555.87 L1757.22,559.87 L1791.5,563.87 L1791.5,587.8416 A0,0 0 0 0 1791.5,587.8416 L2194.5,587.8416 A0,0 0 0 0 2194.5,587.8416 L2194.5,541.91 L2184.5,531.91 L1791.5,531.91 A0,0 0 0 0 1791.5,531.91 " fill="#FEFFDD" style="stroke:#181818;stroke-width:0.5;"/><path d="M2184.5,531.91 L2184.5,541.91 L2194.5,541.91 L2184.5,531.91 " fill="#FEFFDD" style="stroke:#181818;stroke-width:0.5;"/><text fill="#000000" font-family="sans-serif" font-size="13" lengthAdjust="spacing" textLength="374" x="1797.5" y="549.4784">Represents a user's capacity for logical reasoning, memory,</text><text fill="#000000" font-family="sans-serif" font-size="13" lengthAdjust="spacing" textLength="382" x="1797.5" y="564.7889">and problem-solving. Important for adapting the complexity</text><text fill="#000000" font-family="sans-serif" font-size="13" lengthAdjust="spacing" textLength="55" x="1797.5" y="580.0995">of tasks.</text></g><!--class AttentionSpan--><g id="elem_AttentionSpan"><rect codeLine="51" fill="#F1F1F1" height="48" id="AttentionSpan" rx="2.5" ry="2.5" style="stroke:#181818;stroke-width:0.5;" width="130" x="2230" y="535.87"/><ellipse cx="2245" cy="551.87" fill="#ADD1B2" rx="11" ry="11" style="stroke:#181818;stroke-width:1.0;"/><path d="M2247.4731,558.0131 Q2246.8921,558.3119 2246.2529,558.4613 Q2245.6138,558.6107 2244.9082,558.6107 Q2242.4014,558.6107 2241.0815,556.9589 Q2239.7617,555.307 2239.7617,552.1859 Q2239.7617,549.0565 2241.0815,547.4047 Q2242.4014,545.7528 2244.9082,545.7528 Q2245.6138,545.7528 2246.2612,545.9022 Q2246.9087,546.0516 2247.4731,546.3505 L2247.4731,549.0731 Q2246.8423,548.4921 2246.2488,548.2223 Q2245.6553,547.9525 2245.0244,547.9525 Q2243.6797,547.9525 2242.9949,549.0192 Q2242.3101,550.0858 2242.3101,552.1859 Q2242.3101,554.2777 2242.9949,555.3444 Q2243.6797,556.411 2245.0244,556.411 Q2245.6553,556.411 2246.2488,556.1412 Q2246.8423,555.8715 2247.4731,555.2904 Z " fill="#000000"/><text fill="#000000" font-family="sans-serif" font-size="14" lengthAdjust="spacing" textLength="98" x="2259" y="557.161">AttentionSpan</text><line style="stroke:#181818;stroke-width:0.5;" x1="2231" x2="2359" y1="567.87" y2="567.87"/><line style="stroke:#181818;stroke-width:0.5;" x1="2231" x2="2359" y1="575.87" y2="575.87"/></g><g id="elem_GMN34"><path d="M2395,539.56 L2395,555.87 L2360.4,559.87 L2395,563.87 L2395,580.1811 A0,0 0 0 0 2395,580.1811 L2785,580.1811 A0,0 0 0 0 2785,580.1811 L2785,549.56 L2775,539.56 L2395,539.56 A0,0 0 0 0 2395,539.56 " fill="#FEFFDD" style="stroke:#181818;stroke-width:0.5;"/><path d="M2775,539.56 L2775,549.56 L2785,549.56 L2775,539.56 " fill="#FEFFDD" style="stroke:#181818;stroke-width:0.5;"/><text fill="#000000" font-family="sans-serif" font-size="13" lengthAdjust="spacing" textLength="352" x="2401" y="557.1284">Describes the user's ability to maintain focus over time.</text><text fill="#000000" font-family="sans-serif" font-size="13" lengthAdjust="spacing" textLength="369" x="2401" y="572.4389">Useful for pacing content and avoiding cognitive overload.</text></g><!--class SelfDiscipline--><g id="elem_SelfDiscipline"><rect codeLine="57" fill="#F1F1F1" height="48" id="SelfDiscipline" rx="2.5" ry="2.5" style="stroke:#181818;stroke-width:0.5;" width="123" x="2820.5" y="535.87"/><ellipse cx="2835.5" cy="551.87" fill="#ADD1B2" rx="11" ry="11" style="stroke:#181818;stroke-width:1.0;"/><path d="M2837.9731,558.0131 Q2837.3921,558.3119 2836.7529,558.4613 Q2836.1138,558.6107 2835.4082,558.6107 Q2832.9014,558.6107 2831.5815,556.9589 Q2830.2617,555.307 2830.2617,552.1859 Q2830.2617,549.0565 2831.5815,547.4047 Q2832.9014,545.7528 2835.4082,545.7528 Q2836.1138,545.7528 2836.7612,545.9022 Q2837.4087,546.0516 2837.9731,546.3505 L2837.9731,549.0731 Q2837.3423,548.4921 2836.7488,548.2223 Q2836.1553,547.9525 2835.5244,547.9525 Q2834.1797,547.9525 2833.4949,549.0192 Q2832.8101,550.0858 2832.8101,552.1859 Q2832.8101,554.2777 2833.4949,555.3444 Q2834.1797,556.411 2835.5244,556.411 Q2836.1553,556.411 2836.7488,556.1412 Q2837.3423,555.8715 2837.9731,555.2904 Z " fill="#000000"/><text fill="#000000" font-family="sans-serif" font-size="14" lengthAdjust="spacing" textLength="91" x="2849.5" y="557.161">SelfDiscipline</text><line style="stroke:#181818;stroke-width:0.5;" x1="2821.5" x2="2942.5" y1="567.87" y2="567.87"/><line style="stroke:#181818;stroke-width:0.5;" x1="2821.5" x2="2942.5" y1="575.87" y2="575.87"/></g><g id="elem_GMN39"><path d="M2979,539.56 L2979,555.87 L2943.96,559.87 L2979,563.87 L2979,580.1811 A0,0 0 0 0 2979,580.1811 L3325,580.1811 A0,0 0 0 0 3325,580.1811 L3325,549.56 L3315,539.56 L2979,539.56 A0,0 0 0 0 2979,539.56 " fill="#FEFFDD" style="stroke:#181818;stroke-width:0.5;"/><path d="M3315,539.56 L3315,549.56 L3325,549.56 L3315,539.56 " fill="#FEFFDD" style="stroke:#181818;stroke-width:0.5;"/><text fill="#000000" font-family="sans-serif" font-size="13" lengthAdjust="spacing" textLength="325" x="2985" y="557.1284">Indicates the user's ability to stay consistent, resist</text><text fill="#000000" font-family="sans-serif" font-size="13" lengthAdjust="spacing" textLength="303" x="2985" y="572.4389">distractions, and complete tasks independently.</text></g><g id="elem_FrustrationTolerance"><rect fill="#F1F1F1" height="61.4648" style="stroke:#181818;stroke-width:0.5;" width="158" x="1174" y="225.22"/><text fill="#000000" font-family="sans-serif" font-size="14" lengthAdjust="spacing" textLength="144" x="1181" y="240.7552">FrustrationTolerance</text><line style="stroke:#181818;stroke-width:0.5;" x1="1175" x2="1331" y1="245.7083" y2="245.7083"/><text fill="#000000" font-family="sans-serif" font-size="14" lengthAdjust="spacing" textLength="63" x="1180" y="263.2434">UserTrait</text><text fill="#000000" font-family="sans-serif" font-size="14" lengthAdjust="spacing" textLength="71" x="1180" y="279.7317">userId = 1</text></g><g id="elem_GMN44"><path d="M1367,227.99 L1367,251.96 L1332.22,255.96 L1367,259.96 L1367,283.9216 A0,0 0 0 0 1367,283.9216 L1729,283.9216 A0,0 0 0 0 1729,283.9216 L1729,237.99 L1719,227.99 L1367,227.99 A0,0 0 0 0 1367,227.99 " fill="#FEFFDD" style="stroke:#181818;stroke-width:0.5;"/><path d="M1719,227.99 L1719,237.99 L1729,237.99 L1719,227.99 " fill="#FEFFDD" style="stroke:#181818;stroke-width:0.5;"/><text fill="#000000" font-family="sans-serif" font-size="13" lengthAdjust="spacing" textLength="297" x="1373" y="245.5584">Measures how well a user copes with difficulty,</text><text fill="#000000" font-family="sans-serif" font-size="13" lengthAdjust="spacing" textLength="341" x="1373" y="260.8689">failure, or delay. Helpful for adjusting challenge levels</text><text fill="#000000" font-family="sans-serif" font-size="13" lengthAdjust="spacing" textLength="163" x="1373" y="276.1795">and support mechanisms.</text></g><!--link User to UserTraitWeight--><g id="link_User_UserTraitWeight"><path codeLine="20" d="M2005.25,122.06 C1981.32,144.73 1955.245,169.4428 1928.855,194.4528 " fill="none" id="User-to-UserTraitWeight" style="stroke:#181818;stroke-width:1.0;"/><polygon fill="#181818" points="1924.5,198.58,1933.784,195.2925,1928.1291,195.1406,1928.281,189.4858,1924.5,198.58" style="stroke:#181818;stroke-width:1.0;"/><text fill="#000000" font-family="sans-serif" font-size="13" lengthAdjust="spacing" textLength="22" x="1973.3" y="165.5484">has</text><text fill="#000000" font-family="sans-serif" font-size="13" lengthAdjust="spacing" textLength="22" x="1908.4109" y="188.2605">0..*</text></g><!--link UserTraitWeight to UserTrait--><g id="link_UserTraitWeight_UserTrait"><path codeLine="21" d="M1763.31,306.08 C1757.82,308.46 1752.36,310.75 1747,312.93 C1648.47,352.98 1536.1604,389.4318 1467.9704,410.5918 " fill="none" id="UserTraitWeight-to-UserTrait" style="stroke:#181818;stroke-width:1.0;"/><polygon fill="#181818" points="1462.24,412.37,1472.0211,413.523,1467.0154,410.8882,1469.6502,405.8824,1462.24,412.37" style="stroke:#181818;stroke-width:1.0;"/><text fill="#000000" font-family="sans-serif" font-size="13" lengthAdjust="spacing" textLength="65" x="1664.96" y="356.4984">references</text></g><!--link User to Program--><g id="link_User_Program"><path codeLine="22" d="M2047,122.06 C2047,155.87 2047,197.38 2047,225.49 " fill="none" id="User-to-Program" style="stroke:#181818;stroke-width:1.0;"/><polygon fill="#181818" points="2047,231.49,2051,222.49,2047,226.49,2043,222.49,2047,231.49" style="stroke:#181818;stroke-width:1.0;"/><text fill="#000000" font-family="sans-serif" font-size="13" lengthAdjust="spacing" textLength="82" x="2048" y="165.5484">has assigned</text></g><!--link User to UserAction--><g id="link_User_UserAction"><path codeLine="23" d="M2107.57,122.31 C2118.28,131.19 2128.66,141.21 2137,151.98 C2155.68,176.12 2166.2535,203.6398 2172.9835,225.7598 " fill="none" id="User-to-UserAction" style="stroke:#181818;stroke-width:1.0;"/><polygon fill="#181818" points="2174.73,231.5,2175.9371,221.7254,2173.2746,226.7165,2168.2835,224.054,2174.73,231.5" style="stroke:#181818;stroke-width:1.0;"/><text fill="#000000" font-family="sans-serif" font-size="13" lengthAdjust="spacing" textLength="57" x="2148.24" y="165.5484">performs</text></g><!--reverse link UserTrait to MotivationalTrait--><g id="link_UserTrait_MotivationalTrait"><path d="M1331.5619,432.222 C1157.0819,434.762 629.49,449.03 187,531.91 C181.49,532.94 175.84,534.17 170.19,535.54 " fill="none" id="UserTrait-backto-MotivationalTrait" style="stroke:#181818;stroke-width:1.0;"/><polygon fill="none" points="1349.56,431.96,1331.4746,426.2226,1331.6492,438.2214,1349.56,431.96" style="stroke:#181818;stroke-width:1.0;"/></g><!--reverse link UserTrait to PlayerType--><g id="link_UserTrait_PlayerType"><path d="M1331.7113,436.0285 C1208.6413,444.3785 925.22,468.84 681,531.91 C675.58,533.31 670,535 664.48,536.84 " fill="none" id="UserTrait-backto-PlayerType" style="stroke:#181818;stroke-width:1.0;"/><polygon fill="none" points="1349.67,434.81,1331.3051,430.0422,1332.1174,442.0147,1349.67,434.81" style="stroke:#181818;stroke-width:1.0;"/></g><!--reverse link UserTrait to DigitalLiteracy--><g id="link_UserTrait_DigitalLiteracy"><path d="M1333.2069,464.3219 C1282.4169,487.2719 1224.78,513.32 1175.54,535.58 " fill="none" id="UserTrait-backto-DigitalLiteracy" style="stroke:#181818;stroke-width:1.0;"/><polygon fill="none" points="1349.61,456.91,1330.7362,458.8542,1335.6775,469.7897,1349.61,456.91" style="stroke:#181818;stroke-width:1.0;"/></g><!--reverse link UserTrait to CognitiveAbility--><g id="link_UserTrait_CognitiveAbility"><path d="M1478.5832,464.3438 C1529.1932,487.2938 1586.57,513.32 1635.64,535.58 " fill="none" id="UserTrait-backto-CognitiveAbility" style="stroke:#181818;stroke-width:1.0;"/><polygon fill="none" points="1462.19,456.91,1476.1053,469.8082,1481.0612,458.8794,1462.19,456.91" style="stroke:#181818;stroke-width:1.0;"/></g><!--reverse link UserTrait to AttentionSpan--><g id="link_UserTrait_AttentionSpan"><path d="M1480.292,435.9196 C1612.522,444.5296 1934.65,470.15 2212,531.91 C2217.77,533.19 2223.7,534.71 2229.62,536.36 " fill="none" id="UserTrait-backto-AttentionSpan" style="stroke:#181818;stroke-width:1.0;"/><polygon fill="none" points="1462.33,434.75,1479.9021,441.9069,1480.6818,429.9323,1462.33,434.75" style="stroke:#181818;stroke-width:1.0;"/></g><!--reverse link UserTrait to SelfDiscipline--><g id="link_UserTrait_SelfDiscipline"><path d="M1480.4164,434.2406 C1707.8664,443.1006 2539.68,478.43 2803,531.91 C2808.68,533.06 2814.52,534.51 2820.32,536.14 " fill="none" id="UserTrait-backto-SelfDiscipline" style="stroke:#181818;stroke-width:1.0;"/><polygon fill="none" points="1462.43,433.54,1480.1828,440.2361,1480.6499,428.2452,1462.43,433.54" style="stroke:#181818;stroke-width:1.0;"/></g><!--link FrustrationTolerance to UserTrait--><g id="link_FrustrationTolerance_UserTrait"><path codeLine="66" d="M1279.65,287 C1304.91,315.47 1339.0181,353.9217 1366.7781,385.2117 " fill="none" id="FrustrationTolerance-to-UserTrait" style="stroke:#181818;stroke-width:1.0;"/><polygon fill="#181818" points="1370.76,389.7,1367.7793,380.313,1367.4417,385.9598,1361.795,385.6222,1370.76,389.7" style="stroke:#181818;stroke-width:1.0;"/><text fill="#000000" font-family="sans-serif" font-size="13" lengthAdjust="spacing" textLength="70" x="1344.2" y="356.4984">instance of</text></g><!--SRC=[ZLLDZzj63Btlho2sX-s7rzWSUgZH15XqKNI150YQ13q6z8YI9XdD23EK7QF8V- -RaRnUUMt41Wn8G_BnFGv9zMo-S2FqCKdynBxwb1y-HBQQwB-hAoBZEALYfX_gNtzRrpNE2RzVRBKYwtLyUGhxLspJQbhHMvlqzwFZDt3-DaSjrfEGdZjPKT9eVNCcRaGz9ZR0_FWSIRFlx6JO8wmEOADbMo1NLBl0IdH3Fzujx-YMNYtlVgARFOzIZzlRDtHzjrp-VFs2qOgkMqxNa-TpImuww8PVb5gYU2DFxiNdNGnDv6v28iYsZPTgvfCVxetQuBDRBx4EiGFCKw7-3cetd1tOZGdbguglqaor3oeK2xjGlumfTNc9P46AelHHadWjfXpEb6jxaqfKzooAJCkHZKf4OrYJbl00bPBzmFYTunsOxNgvWEh1kMGRNpN7VeSSDToDNKLei9qJ2f6uxsDWqvuczc0Rg-pUMWXWixk0tL54IVOWoKIxbdIWKeEAinojxWW3I2Pqk4QbhTMMgX6ZnAgOrWSN6YjfWLOsRgWWWbAeTSjHI4Dmi7ZUsAP8NfIu3BhcP0rf3CFQIMe3xiKtfuN-4HflSMrolmOllKJfSKX9-y- - -i-q6kxPP4mefAp4e2-YS0eUV1RKIHVYxa0R5mA-tMqARfC9qsFNepRijI1mnNqMGjfAhbllvEi-FMWffozdsknUeIcNw7tF_WA5C_-Zcyp99tqybKm3TOnbWp-8cY5Hs61crNQof1AELFNWYefS4cWmmUSSHJTlWgt6mwco1G0hgJgjvxsu-i4cOtjd_IMZCmyeb1vzXVlGiugIyYwpJ9XV45tWul9ZYQtma8SR5K87JcsCwq3ASWjerqfwS4AWsnrh2ElFOfJ-Z4D6oI0VWiFGO2d2UkgOvdlxZClu8Q3NzEgSpujjR3raPakeonwTL-qCGwn7zF20Ub0RjhGLvwQUHnbwd4wpNDVM34wd1g_PEiGiykwf1BjhIN-9w_TjmTLd92jDqB9pul6LTh8Hbvx68mrz7WUC3LoyJTsysxzT_Gy0]--></g></svg>