<?xml version="1.0" encoding="us-ascii" standalone="no"?><svg xmlns="http://www.w3.org/2000/svg" xmlns:xlink="http://www.w3.org/1999/xlink" contentStyleType="text/css" height="616px" preserveAspectRatio="none" style="width:964px;height:616px;background:#FFFFFF;" version="1.1" viewBox="0 0 964 616" width="964px" zoomAndPan="magnify"><defs/><g><!--cluster EventRegistration--><g id="cluster_EventRegistration"><rect fill="#F1F1F1" height="603" rx="2.5" ry="2.5" style="stroke:#000000;stroke-width:1.5;" width="951" x="7" y="7"/><text fill="#000000" font-family="sans-serif" font-size="14" font-weight="bold" lengthAdjust="spacing" textLength="128" x="418.5" y="22.5352">EventRegistration</text></g><!--class Event--><g id="elem_Event"><rect codeLine="11" fill="#CCCCCC" height="56.4883" id="Event" rx="2.5" ry="2.5" style="stroke:#181818;stroke-width:0.5;" width="171" x="242" y="424.76"/><ellipse cx="304.75" cy="440.76" fill="#ADD1B2" rx="11" ry="11" style="stroke:#181818;stroke-width:1.0;"/><path d="M307.2231,446.9031 Q306.6421,447.2019 306.0029,447.3513 Q305.3638,447.5007 304.6582,447.5007 Q302.1514,447.5007 300.8315,445.8489 Q299.5117,444.197 299.5117,441.0759 Q299.5117,437.9465 300.8315,436.2947 Q302.1514,434.6428 304.6582,434.6428 Q305.3638,434.6428 306.0112,434.7922 Q306.6587,434.9416 307.2231,435.2405 L307.2231,437.9631 Q306.5923,437.3821 305.9988,437.1123 Q305.4053,436.8425 304.7744,436.8425 Q303.4297,436.8425 302.7449,437.9092 Q302.0601,438.9758 302.0601,441.0759 Q302.0601,443.1677 302.7449,444.2344 Q303.4297,445.301 304.7744,445.301 Q305.4053,445.301 305.9988,445.0312 Q306.5923,444.7615 307.2231,444.1804 Z " fill="#000000"/><text fill="#000000" font-family="sans-serif" font-size="14" lengthAdjust="spacing" textLength="37" x="325.25" y="446.051">Event</text><line style="stroke:#181818;stroke-width:0.5;" x1="243" x2="412" y1="456.76" y2="456.76"/><ellipse cx="253" cy="470.5041" fill="none" rx="3" ry="3" style="stroke:#038048;stroke-width:1.0;"/><text fill="#000000" font-family="sans-serif" font-size="14" lengthAdjust="spacing" textLength="145" x="262" y="474.2952">timestamp: DateTime</text></g><!--class UserEvent--><g id="elem_UserEvent"><rect codeLine="18" fill="#E6E6E6" height="32" id="UserEvent" rx="2.5" ry="2.5" style="stroke:#181818;stroke-width:0.5;" width="100" x="462.5" y="472"/><ellipse cx="477.5" cy="488" fill="#ADD1B2" rx="11" ry="11" style="stroke:#181818;stroke-width:1.0;"/><path d="M479.9731,494.1431 Q479.3921,494.4419 478.7529,494.5913 Q478.1138,494.7407 477.4082,494.7407 Q474.9014,494.7407 473.5815,493.0889 Q472.2617,491.437 472.2617,488.3159 Q472.2617,485.1865 473.5815,483.5347 Q474.9014,481.8828 477.4082,481.8828 Q478.1138,481.8828 478.7612,482.0322 Q479.4087,482.1816 479.9731,482.4805 L479.9731,485.2031 Q479.3423,484.6221 478.7488,484.3523 Q478.1553,484.0825 477.5244,484.0825 Q476.1797,484.0825 475.4949,485.1492 Q474.8101,486.2158 474.8101,488.3159 Q474.8101,490.4077 475.4949,491.4744 Q476.1797,492.541 477.5244,492.541 Q478.1553,492.541 478.7488,492.2712 Q479.3423,492.0015 479.9731,491.4204 Z " fill="#000000"/><text fill="#000000" font-family="sans-serif" font-size="14" lengthAdjust="spacing" textLength="68" x="491.5" y="493.291">UserEvent</text></g><!--class SystemEvent--><g id="elem_SystemEvent"><rect codeLine="19" fill="#E6E6E6" height="32" id="SystemEvent" rx="2.5" ry="2.5" style="stroke:#181818;stroke-width:0.5;" width="117" x="454" y="400"/><ellipse cx="469" cy="416" fill="#ADD1B2" rx="11" ry="11" style="stroke:#181818;stroke-width:1.0;"/><path d="M471.4731,422.1431 Q470.8921,422.4419 470.2529,422.5913 Q469.6138,422.7407 468.9082,422.7407 Q466.4014,422.7407 465.0815,421.0889 Q463.7617,419.437 463.7617,416.3159 Q463.7617,413.1865 465.0815,411.5347 Q466.4014,409.8828 468.9082,409.8828 Q469.6138,409.8828 470.2612,410.0322 Q470.9087,410.1816 471.4731,410.4805 L471.4731,413.2031 Q470.8423,412.6221 470.2488,412.3523 Q469.6553,412.0825 469.0244,412.0825 Q467.6797,412.0825 466.9949,413.1492 Q466.3101,414.2158 466.3101,416.3159 Q466.3101,418.4077 466.9949,419.4744 Q467.6797,420.541 469.0244,420.541 Q469.6553,420.541 470.2488,420.2712 Q470.8423,420.0015 471.4731,419.4204 Z " fill="#000000"/><text fill="#000000" font-family="sans-serif" font-size="14" lengthAdjust="spacing" textLength="85" x="483" y="421.291">SystemEvent</text></g><!--class TaskEvent--><g id="elem_TaskEvent"><rect codeLine="20" fill="#E6E6E6" height="32" id="TaskEvent" rx="2.5" ry="2.5" style="stroke:#181818;stroke-width:0.5;" width="101" x="612" y="472"/><ellipse cx="627" cy="488" fill="#ADD1B2" rx="11" ry="11" style="stroke:#181818;stroke-width:1.0;"/><path d="M629.4731,494.1431 Q628.8921,494.4419 628.2529,494.5913 Q627.6138,494.7407 626.9082,494.7407 Q624.4014,494.7407 623.0815,493.0889 Q621.7617,491.437 621.7617,488.3159 Q621.7617,485.1865 623.0815,483.5347 Q624.4014,481.8828 626.9082,481.8828 Q627.6138,481.8828 628.2612,482.0322 Q628.9087,482.1816 629.4731,482.4805 L629.4731,485.2031 Q628.8423,484.6221 628.2488,484.3523 Q627.6553,484.0825 627.0244,484.0825 Q625.6797,484.0825 624.9949,485.1492 Q624.3101,486.2158 624.3101,488.3159 Q624.3101,490.4077 624.9949,491.4744 Q625.6797,492.541 627.0244,492.541 Q627.6553,492.541 628.2488,492.2712 Q628.8423,492.0015 629.4731,491.4204 Z " fill="#000000"/><text fill="#000000" font-family="sans-serif" font-size="14" lengthAdjust="spacing" textLength="69" x="641" y="493.291">TaskEvent</text></g><!--class EventCollection--><g id="elem_EventCollection"><rect codeLine="23" fill="#F1F1F1" height="32" id="EventCollection" rx="2.5" ry="2.5" style="stroke:#181818;stroke-width:0.5;" width="138" x="23" y="437"/><ellipse cx="38" cy="453" fill="#ADD1B2" rx="11" ry="11" style="stroke:#181818;stroke-width:1.0;"/><path d="M40.4731,459.1431 Q39.8921,459.4419 39.2529,459.5913 Q38.6138,459.7407 37.9082,459.7407 Q35.4014,459.7407 34.0815,458.0889 Q32.7617,456.437 32.7617,453.3159 Q32.7617,450.1865 34.0815,448.5347 Q35.4014,446.8828 37.9082,446.8828 Q38.6138,446.8828 39.2612,447.0322 Q39.9087,447.1816 40.4731,447.4805 L40.4731,450.2031 Q39.8423,449.6221 39.2488,449.3523 Q38.6553,449.0825 38.0244,449.0825 Q36.6797,449.0825 35.9949,450.1492 Q35.3101,451.2158 35.3101,453.3159 Q35.3101,455.4077 35.9949,456.4744 Q36.6797,457.541 38.0244,457.541 Q38.6553,457.541 39.2488,457.2712 Q39.8423,457.0015 40.4731,456.4204 Z " fill="#000000"/><text fill="#000000" font-family="sans-serif" font-size="14" lengthAdjust="spacing" textLength="106" x="52" y="458.291">EventCollection</text></g><!--class ClickEvent--><g id="elem_ClickEvent"><rect codeLine="27" fill="#E6E6E6" height="32" id="ClickEvent" rx="2.5" ry="2.5" style="stroke:#181818;stroke-width:0.5;" width="102" x="793" y="482"/><ellipse cx="808" cy="498" fill="#ADD1B2" rx="11" ry="11" style="stroke:#181818;stroke-width:1.0;"/><path d="M810.4731,504.1431 Q809.8921,504.4419 809.2529,504.5913 Q808.6138,504.7407 807.9082,504.7407 Q805.4014,504.7407 804.0815,503.0889 Q802.7617,501.437 802.7617,498.3159 Q802.7617,495.1865 804.0815,493.5347 Q805.4014,491.8828 807.9082,491.8828 Q808.6138,491.8828 809.2612,492.0322 Q809.9087,492.1816 810.4731,492.4805 L810.4731,495.2031 Q809.8423,494.6221 809.2488,494.3523 Q808.6553,494.0825 808.0244,494.0825 Q806.6797,494.0825 805.9949,495.1492 Q805.3101,496.2158 805.3101,498.3159 Q805.3101,500.4077 805.9949,501.4744 Q806.6797,502.541 808.0244,502.541 Q808.6553,502.541 809.2488,502.2712 Q809.8423,502.0015 810.4731,501.4204 Z " fill="#000000"/><text fill="#000000" font-family="sans-serif" font-size="14" lengthAdjust="spacing" textLength="70" x="822" y="503.291">ClickEvent</text></g><!--class LoginEvent--><g id="elem_LoginEvent"><rect codeLine="28" fill="#E6E6E6" height="32" id="LoginEvent" rx="2.5" ry="2.5" style="stroke:#181818;stroke-width:0.5;" width="107" x="790.5" y="410"/><ellipse cx="805.5" cy="426" fill="#ADD1B2" rx="11" ry="11" style="stroke:#181818;stroke-width:1.0;"/><path d="M807.9731,432.1431 Q807.3921,432.4419 806.7529,432.5913 Q806.1138,432.7407 805.4082,432.7407 Q802.9014,432.7407 801.5815,431.0889 Q800.2617,429.437 800.2617,426.3159 Q800.2617,423.1865 801.5815,421.5347 Q802.9014,419.8828 805.4082,419.8828 Q806.1138,419.8828 806.7612,420.0322 Q807.4087,420.1816 807.9731,420.4805 L807.9731,423.2031 Q807.3423,422.6221 806.7488,422.3523 Q806.1553,422.0825 805.5244,422.0825 Q804.1797,422.0825 803.4949,423.1492 Q802.8101,424.2158 802.8101,426.3159 Q802.8101,428.4077 803.4949,429.4744 Q804.1797,430.541 805.5244,430.541 Q806.1553,430.541 806.7488,430.2712 Q807.3423,430.0015 807.9731,429.4204 Z " fill="#000000"/><text fill="#000000" font-family="sans-serif" font-size="14" lengthAdjust="spacing" textLength="75" x="819.5" y="431.291">LoginEvent</text></g><!--class TaskFinishedEvent--><g id="elem_TaskFinishedEvent"><rect codeLine="29" fill="#E6E6E6" height="32" id="TaskFinishedEvent" rx="2.5" ry="2.5" style="stroke:#181818;stroke-width:0.5;" width="159" x="764.5" y="554"/><ellipse cx="779.5" cy="570" fill="#ADD1B2" rx="11" ry="11" style="stroke:#181818;stroke-width:1.0;"/><path d="M781.9731,576.1431 Q781.3921,576.4419 780.7529,576.5913 Q780.1138,576.7407 779.4082,576.7407 Q776.9014,576.7407 775.5815,575.0889 Q774.2617,573.437 774.2617,570.3159 Q774.2617,567.1865 775.5815,565.5347 Q776.9014,563.8828 779.4082,563.8828 Q780.1138,563.8828 780.7612,564.0322 Q781.4087,564.1816 781.9731,564.4805 L781.9731,567.2031 Q781.3423,566.6221 780.7488,566.3523 Q780.1553,566.0825 779.5244,566.0825 Q778.1797,566.0825 777.4949,567.1492 Q776.8101,568.2158 776.8101,570.3159 Q776.8101,572.4077 777.4949,573.4744 Q778.1797,574.541 779.5244,574.541 Q780.1553,574.541 780.7488,574.2712 Q781.3423,574.0015 781.9731,573.4204 Z " fill="#000000"/><text fill="#000000" font-family="sans-serif" font-size="14" lengthAdjust="spacing" textLength="127" x="793.5" y="575.291">TaskFinishedEvent</text></g><!--class ErrorCommittedEvent--><g id="elem_ErrorCommittedEvent"><rect codeLine="30" fill="#E6E6E6" height="32" id="ErrorCommittedEvent" rx="2.5" ry="2.5" style="stroke:#181818;stroke-width:0.5;" width="180" x="754" y="338"/><ellipse cx="769" cy="354" fill="#ADD1B2" rx="11" ry="11" style="stroke:#181818;stroke-width:1.0;"/><path d="M771.4731,360.1431 Q770.8921,360.4419 770.2529,360.5913 Q769.6138,360.7407 768.9082,360.7407 Q766.4014,360.7407 765.0815,359.0889 Q763.7617,357.437 763.7617,354.3159 Q763.7617,351.1865 765.0815,349.5347 Q766.4014,347.8828 768.9082,347.8828 Q769.6138,347.8828 770.2612,348.0322 Q770.9087,348.1816 771.4731,348.4805 L771.4731,351.2031 Q770.8423,350.6221 770.2488,350.3523 Q769.6553,350.0825 769.0244,350.0825 Q767.6797,350.0825 766.9949,351.1492 Q766.3101,352.2158 766.3101,354.3159 Q766.3101,356.4077 766.9949,357.4744 Q767.6797,358.541 769.0244,358.541 Q769.6553,358.541 770.2488,358.2712 Q770.8423,358.0015 771.4731,357.4204 Z " fill="#000000"/><text fill="#000000" font-family="sans-serif" font-size="14" lengthAdjust="spacing" textLength="148" x="783" y="359.291">ErrorCommittedEvent</text></g><!--class HourPassedEvent--><g id="elem_HourPassedEvent"><rect codeLine="31" fill="#E6E6E6" height="32" id="HourPassedEvent" rx="2.5" ry="2.5" style="stroke:#181818;stroke-width:0.5;" width="150" x="769" y="194"/><ellipse cx="784" cy="210" fill="#ADD1B2" rx="11" ry="11" style="stroke:#181818;stroke-width:1.0;"/><path d="M786.4731,216.1431 Q785.8921,216.4419 785.2529,216.5913 Q784.6138,216.7407 783.9082,216.7407 Q781.4014,216.7407 780.0815,215.0889 Q778.7617,213.437 778.7617,210.3159 Q778.7617,207.1865 780.0815,205.5347 Q781.4014,203.8828 783.9082,203.8828 Q784.6138,203.8828 785.2612,204.0322 Q785.9087,204.1816 786.4731,204.4805 L786.4731,207.2031 Q785.8423,206.6221 785.2488,206.3523 Q784.6553,206.0825 784.0244,206.0825 Q782.6797,206.0825 781.9949,207.1492 Q781.3101,208.2158 781.3101,210.3159 Q781.3101,212.4077 781.9949,213.4744 Q782.6797,214.541 784.0244,214.541 Q784.6553,214.541 785.2488,214.2712 Q785.8423,214.0015 786.4731,213.4204 Z " fill="#000000"/><text fill="#000000" font-family="sans-serif" font-size="14" lengthAdjust="spacing" textLength="118" x="798" y="215.291">HourPassedEvent</text></g><!--class DayPassedEvent--><g id="elem_DayPassedEvent"><rect codeLine="32" fill="#E6E6E6" height="32" id="DayPassedEvent" rx="2.5" ry="2.5" style="stroke:#181818;stroke-width:0.5;" width="141" x="773.5" y="122"/><ellipse cx="788.5" cy="138" fill="#ADD1B2" rx="11" ry="11" style="stroke:#181818;stroke-width:1.0;"/><path d="M790.9731,144.1431 Q790.3921,144.4419 789.7529,144.5913 Q789.1138,144.7407 788.4082,144.7407 Q785.9014,144.7407 784.5815,143.0889 Q783.2617,141.437 783.2617,138.3159 Q783.2617,135.1865 784.5815,133.5347 Q785.9014,131.8828 788.4082,131.8828 Q789.1138,131.8828 789.7612,132.0322 Q790.4087,132.1816 790.9731,132.4805 L790.9731,135.2031 Q790.3423,134.6221 789.7488,134.3523 Q789.1553,134.0825 788.5244,134.0825 Q787.1797,134.0825 786.4949,135.1492 Q785.8101,136.2158 785.8101,138.3159 Q785.8101,140.4077 786.4949,141.4744 Q787.1797,142.541 788.5244,142.541 Q789.1553,142.541 789.7488,142.2712 Q790.3423,142.0015 790.9731,141.4204 Z " fill="#000000"/><text fill="#000000" font-family="sans-serif" font-size="14" lengthAdjust="spacing" textLength="109" x="802.5" y="143.291">DayPassedEvent</text></g><!--class WeekPassedEvent--><g id="elem_WeekPassedEvent"><rect codeLine="33" fill="#E6E6E6" height="32" id="WeekPassedEvent" rx="2.5" ry="2.5" style="stroke:#181818;stroke-width:0.5;" width="152" x="768" y="50"/><ellipse cx="783" cy="66" fill="#ADD1B2" rx="11" ry="11" style="stroke:#181818;stroke-width:1.0;"/><path d="M785.4731,72.1431 Q784.8921,72.4419 784.2529,72.5913 Q783.6138,72.7407 782.9082,72.7407 Q780.4014,72.7407 779.0815,71.0889 Q777.7617,69.437 777.7617,66.3159 Q777.7617,63.1865 779.0815,61.5347 Q780.4014,59.8828 782.9082,59.8828 Q783.6138,59.8828 784.2612,60.0322 Q784.9087,60.1816 785.4731,60.4805 L785.4731,63.2031 Q784.8423,62.6221 784.2488,62.3523 Q783.6553,62.0825 783.0244,62.0825 Q781.6797,62.0825 780.9949,63.1492 Q780.3101,64.2158 780.3101,66.3159 Q780.3101,68.4077 780.9949,69.4744 Q781.6797,70.541 783.0244,70.541 Q783.6553,70.541 784.2488,70.2712 Q784.8423,70.0015 785.4731,69.4204 Z " fill="#000000"/><text fill="#000000" font-family="sans-serif" font-size="14" lengthAdjust="spacing" textLength="120" x="797" y="71.291">WeekPassedEvent</text></g><!--class MechanicInteraction--><g id="elem_MechanicInteraction"><rect codeLine="34" fill="#E6E6E6" height="32" id="MechanicInteraction" rx="2.5" ry="2.5" style="stroke:#181818;stroke-width:0.5;" width="170" x="759" y="266"/><ellipse cx="774" cy="282" fill="#ADD1B2" rx="11" ry="11" style="stroke:#181818;stroke-width:1.0;"/><path d="M776.4731,288.1431 Q775.8921,288.4419 775.2529,288.5913 Q774.6138,288.7407 773.9082,288.7407 Q771.4014,288.7407 770.0815,287.0889 Q768.7617,285.437 768.7617,282.3159 Q768.7617,279.1865 770.0815,277.5347 Q771.4014,275.8828 773.9082,275.8828 Q774.6138,275.8828 775.2612,276.0322 Q775.9087,276.1816 776.4731,276.4805 L776.4731,279.2031 Q775.8423,278.6221 775.2488,278.3523 Q774.6553,278.0825 774.0244,278.0825 Q772.6797,278.0825 771.9949,279.1492 Q771.3101,280.2158 771.3101,282.3159 Q771.3101,284.4077 771.9949,285.4744 Q772.6797,286.541 774.0244,286.541 Q774.6553,286.541 775.2488,286.2712 Q775.8423,286.0015 776.4731,285.4204 Z " fill="#000000"/><text fill="#000000" font-family="sans-serif" font-size="14" lengthAdjust="spacing" textLength="138" x="788" y="287.291">MechanicInteraction</text></g><!--reverse link Event to UserEvent--><g id="link_Event_UserEvent"><path d="M430.9799,472.5997 C447.7199,475.7997 447.08,475.68 462.16,478.56 " fill="none" id="Event-backto-UserEvent" style="stroke:#181818;stroke-width:1.0;"/><polygon fill="none" points="413.3,469.22,429.8533,478.493,432.1064,466.7064,413.3,469.22" style="stroke:#181818;stroke-width:1.0;"/></g><!--reverse link Event to SystemEvent--><g id="link_Event_SystemEvent"><path d="M430.943,432.2826 C444.593,429.5226 440.8,430.29 453.63,427.7 " fill="none" id="Event-backto-SystemEvent" style="stroke:#181818;stroke-width:1.0;"/><polygon fill="none" points="413.3,435.85,432.1321,438.1636,429.7538,426.4016,413.3,435.85" style="stroke:#181818;stroke-width:1.0;"/></g><!--reverse link UserEvent to TaskEvent--><g id="link_UserEvent_TaskEvent"><path d="M580.78,488 C596.51,488 595.91,488 611.68,488 " fill="none" id="UserEvent-backto-TaskEvent" style="stroke:#181818;stroke-width:1.0;"/><polygon fill="none" points="562.78,488,580.78,494,580.78,482,562.78,488" style="stroke:#181818;stroke-width:1.0;"/></g><!--reverse link EventCollection to Event--><g id="link_EventCollection_Event"><path codeLine="24" d="M173.48,453 C198.64,453 215.44,453 241.86,453 " fill="none" id="EventCollection-backto-Event" style="stroke:#181818;stroke-width:1.0;"/><polygon fill="none" points="161.48,453,167.48,457,173.48,453,167.48,449,161.48,453" style="stroke:#181818;stroke-width:1.0;"/><text fill="#000000" font-family="sans-serif" font-size="13" lengthAdjust="spacing" textLength="39" x="182" y="449.5684">stores</text><text fill="#000000" font-family="sans-serif" font-size="13" lengthAdjust="spacing" textLength="22" x="211.857" y="466.202">1..*</text></g><!--reverse link UserEvent to ClickEvent--><g id="link_UserEvent_ClickEvent"><path d="M575.3366,465.402 C601.3066,455.912 612,452 612,452 C612,452 721,452 721,452 C721,452 746,462 746,462 C746,462 773.18,472.09 798.76,481.58 " fill="none" id="UserEvent-backto-ClickEvent" style="stroke:#181818;stroke-width:1.0;"/><polygon fill="none" points="558.43,471.58,577.3959,471.0375,573.2772,459.7665,558.43,471.58" style="stroke:#181818;stroke-width:1.0;"/></g><!--reverse link UserEvent to LoginEvent--><g id="link_UserEvent_LoginEvent"><path d="M561.9969,463.5948 C583.2269,452.9048 591,449 591,449 C591,449 612,441 612,441 C612,441 721.8,433.87 790,429.44 " fill="none" id="UserEvent-backto-LoginEvent" style="stroke:#181818;stroke-width:1.0;"/><polygon fill="none" points="545.92,471.69,564.6953,468.9537,559.2985,458.2358,545.92,471.69" style="stroke:#181818;stroke-width:1.0;"/></g><!--reverse link TaskEvent to TaskFinishedEvent--><g id="link_TaskEvent_TaskFinishedEvent"><path d="M708.5414,513.1158 C732.2514,526.3358 746,534 746,534 C746,534 773.18,544.09 798.76,553.58 " fill="none" id="TaskEvent-backto-TaskFinishedEvent" style="stroke:#181818;stroke-width:1.0;"/><polygon fill="none" points="692.82,504.35,705.6194,518.3562,711.4633,507.8753,692.82,504.35" style="stroke:#181818;stroke-width:1.0;"/></g><!--reverse link UserEvent to ErrorCommittedEvent--><g id="link_UserEvent_ErrorCommittedEvent"><path d="M554.8133,462.1329 C570.0233,452.6029 571,452 571,452 C571,452 591,438 591,438 C591,438 612,426 612,426 C612,426 722.12,391.68 790.29,370.43 " fill="none" id="UserEvent-backto-ErrorCommittedEvent" style="stroke:#181818;stroke-width:1.0;"/><polygon fill="none" points="539.56,471.69,557.999,467.2173,551.6276,457.0485,539.56,471.69" style="stroke:#181818;stroke-width:1.0;"/></g><!--reverse link SystemEvent to HourPassedEvent--><g id="link_SystemEvent_HourPassedEvent"><path d="M531.553,384.0832 C552.083,347.7932 591,279 591,279 C591,279 708.42,246.85 782.96,226.44 " fill="none" id="SystemEvent-backto-HourPassedEvent" style="stroke:#181818;stroke-width:1.0;"/><polygon fill="none" points="522.69,399.75,536.7753,387.0376,526.3308,381.1289,522.69,399.75" style="stroke:#181818;stroke-width:1.0;"/></g><!--reverse link SystemEvent to DayPassedEvent--><g id="link_SystemEvent_DayPassedEvent"><path d="M530.4397,383.6537 C550.6197,345.1137 591,268 591,268 C591,268 612,248 612,248 C612,248 746,174 746,174 C746,174 773.18,163.91 798.76,154.42 " fill="none" id="SystemEvent-backto-DayPassedEvent" style="stroke:#181818;stroke-width:1.0;"/><polygon fill="none" points="522.09,399.6,535.7551,386.437,525.1242,380.8705,522.09,399.6" style="stroke:#181818;stroke-width:1.0;"/></g><!--reverse link SystemEvent to WeekPassedEvent--><g id="link_SystemEvent_WeekPassedEvent"><path d="M528.9036,383.3176 C552.1236,334.0476 612,207 612,207 C612,207 746,102 746,102 C746,102 773.18,91.91 798.76,82.42 " fill="none" id="SystemEvent-backto-WeekPassedEvent" style="stroke:#181818;stroke-width:1.0;"/><polygon fill="none" points="521.23,399.6,534.331,385.8755,523.4761,380.7598,521.23,399.6" style="stroke:#181818;stroke-width:1.0;"/></g><!--reverse link UserEvent to MechanicInteraction--><g id="link_UserEvent_MechanicInteraction"><path d="M554.8133,462.1329 C570.0233,452.6029 571,452 571,452 C571,452 612,398 612,398 C612,398 746,318 746,318 C746,318 773.18,307.91 798.76,298.42 " fill="none" id="UserEvent-backto-MechanicInteraction" style="stroke:#181818;stroke-width:1.0;"/><polygon fill="none" points="539.56,471.69,557.999,467.2173,551.6276,457.0485,539.56,471.69" style="stroke:#181818;stroke-width:1.0;"/></g><!--SRC=[dLBRIiD047tFLmpsJMcn83xqjQqeA8Yj-BpTJ98bUmapKp58_ztShAaQhCsI9Nlsd3bp2UV65ugK0siyIbaW5C6MzI7AJ8o0hf0I74eMOkv3IeJCPYl8XqItGUB8OY8W0SYacK1i2BMOu2FU-_aG8sC1LvSza9JFVu25qhbASIMbHQW3APzQZA8EX-KhUdd2rB2GgbrWb4ph1UyHWBQAkUN0I3TFaZGt0Crs0M8SiYXNp62X1DVLyUkwsdRLAo6jUe3KATkepupKHSRhUbMHyKtGnvrZZxigMT0ToruhpeUuUzScjSCIvy7QjjLruj-XC1x3sNGoEJ_h6Z83ba3L28Sgd5kZZqhaKt0VKkF_8wWhlJ7US8Rna6xVZPvkIHHe7fmp8iFAtnnlmvOUguzXLMzMFTr2bQV8NX3pKtGFg3FbZRxpWgJQ0VxrC-m-0000]--></g></svg>