<?xml version="1.0" encoding="us-ascii" standalone="no"?><svg xmlns="http://www.w3.org/2000/svg" xmlns:xlink="http://www.w3.org/1999/xlink" contentStyleType="text/css" height="616px" preserveAspectRatio="none" style="width:796px;height:616px;background:#FFFFFF;" version="1.1" viewBox="0 0 796 616" width="796px" zoomAndPan="magnify"><defs/><g><!--cluster EventRegistration--><g id="cluster_EventRegistration"><rect fill="#F1F1F1" height="603" rx="2.5" ry="2.5" style="stroke:#000000;stroke-width:1.5;" width="783" x="7" y="7"/><text fill="#000000" font-family="sans-serif" font-size="14" font-weight="bold" lengthAdjust="spacing" textLength="128" x="334.5" y="22.5352">EventRegistration</text></g><!--class Event--><g id="elem_Event"><rect codeLine="16" fill="#CCCCCC" height="56.4883" id="Event" rx="2.5" ry="2.5" style="stroke:#181818;stroke-width:0.5;" width="171" x="23" y="357.76"/><ellipse cx="85.75" cy="373.76" fill="#ADD1B2" rx="11" ry="11" style="stroke:#181818;stroke-width:1.0;"/><path d="M88.2231,379.9031 Q87.6421,380.2019 87.0029,380.3513 Q86.3638,380.5007 85.6582,380.5007 Q83.1514,380.5007 81.8315,378.8489 Q80.5117,377.197 80.5117,374.0759 Q80.5117,370.9465 81.8315,369.2947 Q83.1514,367.6428 85.6582,367.6428 Q86.3638,367.6428 87.0112,367.7922 Q87.6587,367.9416 88.2231,368.2405 L88.2231,370.9631 Q87.5923,370.3821 86.9988,370.1123 Q86.4053,369.8425 85.7744,369.8425 Q84.4297,369.8425 83.7449,370.9092 Q83.0601,371.9758 83.0601,374.0759 Q83.0601,376.1677 83.7449,377.2344 Q84.4297,378.301 85.7744,378.301 Q86.4053,378.301 86.9988,378.0312 Q87.5923,377.7615 88.2231,377.1804 Z " fill="#000000"/><text fill="#000000" font-family="sans-serif" font-size="14" lengthAdjust="spacing" textLength="37" x="106.25" y="379.051">Event</text><line style="stroke:#181818;stroke-width:0.5;" x1="24" x2="193" y1="389.76" y2="389.76"/><ellipse cx="34" cy="403.5041" fill="none" rx="3" ry="3" style="stroke:#038048;stroke-width:1.0;"/><text fill="#000000" font-family="sans-serif" font-size="14" lengthAdjust="spacing" textLength="145" x="43" y="407.2952">timestamp: DateTime</text></g><!--class UserEvent--><g id="elem_UserEvent"><rect codeLine="21" fill="#E6E6E6" height="32" id="UserEvent" rx="2.5" ry="2.5" style="stroke:#181818;stroke-width:0.5;" width="100" x="242.5" y="406"/><ellipse cx="257.5" cy="422" fill="#ADD1B2" rx="11" ry="11" style="stroke:#181818;stroke-width:1.0;"/><path d="M259.9731,428.1431 Q259.3921,428.4419 258.7529,428.5913 Q258.1138,428.7407 257.4082,428.7407 Q254.9014,428.7407 253.5815,427.0889 Q252.2617,425.437 252.2617,422.3159 Q252.2617,419.1865 253.5815,417.5347 Q254.9014,415.8828 257.4082,415.8828 Q258.1138,415.8828 258.7612,416.0322 Q259.4087,416.1816 259.9731,416.4805 L259.9731,419.2031 Q259.3423,418.6221 258.7488,418.3523 Q258.1553,418.0825 257.5244,418.0825 Q256.1797,418.0825 255.4949,419.1492 Q254.8101,420.2158 254.8101,422.3159 Q254.8101,424.4077 255.4949,425.4744 Q256.1797,426.541 257.5244,426.541 Q258.1553,426.541 258.7488,426.2712 Q259.3423,426.0015 259.9731,425.4204 Z " fill="#000000"/><text fill="#000000" font-family="sans-serif" font-size="14" lengthAdjust="spacing" textLength="68" x="271.5" y="427.291">UserEvent</text></g><!--class SystemEvent--><g id="elem_SystemEvent"><rect codeLine="22" fill="#E6E6E6" height="32" id="SystemEvent" rx="2.5" ry="2.5" style="stroke:#181818;stroke-width:0.5;" width="117" x="234" y="334"/><ellipse cx="249" cy="350" fill="#ADD1B2" rx="11" ry="11" style="stroke:#181818;stroke-width:1.0;"/><path d="M251.4731,356.1431 Q250.8921,356.4419 250.2529,356.5913 Q249.6138,356.7407 248.9082,356.7407 Q246.4014,356.7407 245.0815,355.0889 Q243.7617,353.437 243.7617,350.3159 Q243.7617,347.1865 245.0815,345.5347 Q246.4014,343.8828 248.9082,343.8828 Q249.6138,343.8828 250.2612,344.0322 Q250.9087,344.1816 251.4731,344.4805 L251.4731,347.2031 Q250.8423,346.6221 250.2488,346.3523 Q249.6553,346.0825 249.0244,346.0825 Q247.6797,346.0825 246.9949,347.1492 Q246.3101,348.2158 246.3101,350.3159 Q246.3101,352.4077 246.9949,353.4744 Q247.6797,354.541 249.0244,354.541 Q249.6553,354.541 250.2488,354.2712 Q250.8423,354.0015 251.4731,353.4204 Z " fill="#000000"/><text fill="#000000" font-family="sans-serif" font-size="14" lengthAdjust="spacing" textLength="85" x="263" y="355.291">SystemEvent</text></g><!--class TaskEvent--><g id="elem_TaskEvent"><rect codeLine="23" fill="#E6E6E6" height="32" id="TaskEvent" rx="2.5" ry="2.5" style="stroke:#181818;stroke-width:0.5;" width="101" x="407" y="406"/><ellipse cx="422" cy="422" fill="#ADD1B2" rx="11" ry="11" style="stroke:#181818;stroke-width:1.0;"/><path d="M424.4731,428.1431 Q423.8921,428.4419 423.2529,428.5913 Q422.6138,428.7407 421.9082,428.7407 Q419.4014,428.7407 418.0815,427.0889 Q416.7617,425.437 416.7617,422.3159 Q416.7617,419.1865 418.0815,417.5347 Q419.4014,415.8828 421.9082,415.8828 Q422.6138,415.8828 423.2612,416.0322 Q423.9087,416.1816 424.4731,416.4805 L424.4731,419.2031 Q423.8423,418.6221 423.2488,418.3523 Q422.6553,418.0825 422.0244,418.0825 Q420.6797,418.0825 419.9949,419.1492 Q419.3101,420.2158 419.3101,422.3159 Q419.3101,424.4077 419.9949,425.4744 Q420.6797,426.541 422.0244,426.541 Q422.6553,426.541 423.2488,426.2712 Q423.8423,426.0015 424.4731,425.4204 Z " fill="#000000"/><text fill="#000000" font-family="sans-serif" font-size="14" lengthAdjust="spacing" textLength="69" x="436" y="427.291">TaskEvent</text></g><!--class MechanicEvent--><g id="elem_MechanicEvent"><rect codeLine="24" fill="#E6E6E6" height="32" id="MechanicEvent" rx="2.5" ry="2.5" style="stroke:#181818;stroke-width:0.5;" width="133" x="391" y="334"/><ellipse cx="406" cy="350" fill="#ADD1B2" rx="11" ry="11" style="stroke:#181818;stroke-width:1.0;"/><path d="M408.4731,356.1431 Q407.8921,356.4419 407.2529,356.5913 Q406.6138,356.7407 405.9082,356.7407 Q403.4014,356.7407 402.0815,355.0889 Q400.7617,353.437 400.7617,350.3159 Q400.7617,347.1865 402.0815,345.5347 Q403.4014,343.8828 405.9082,343.8828 Q406.6138,343.8828 407.2612,344.0322 Q407.9087,344.1816 408.4731,344.4805 L408.4731,347.2031 Q407.8423,346.6221 407.2488,346.3523 Q406.6553,346.0825 406.0244,346.0825 Q404.6797,346.0825 403.9949,347.1492 Q403.3101,348.2158 403.3101,350.3159 Q403.3101,352.4077 403.9949,353.4744 Q404.6797,354.541 406.0244,354.541 Q406.6553,354.541 407.2488,354.2712 Q407.8423,354.0015 408.4731,353.4204 Z " fill="#000000"/><text fill="#000000" font-family="sans-serif" font-size="14" lengthAdjust="spacing" textLength="101" x="420" y="355.291">MechanicEvent</text></g><!--class ClickEvent--><g id="elem_ClickEvent"><rect codeLine="28" fill="#E6E6E6" height="32" id="ClickEvent" rx="2.5" ry="2.5" style="stroke:#181818;stroke-width:0.5;" width="102" x="614" y="266"/><ellipse cx="629" cy="282" fill="#ADD1B2" rx="11" ry="11" style="stroke:#181818;stroke-width:1.0;"/><path d="M631.4731,288.1431 Q630.8921,288.4419 630.2529,288.5913 Q629.6138,288.7407 628.9082,288.7407 Q626.4014,288.7407 625.0815,287.0889 Q623.7617,285.437 623.7617,282.3159 Q623.7617,279.1865 625.0815,277.5347 Q626.4014,275.8828 628.9082,275.8828 Q629.6138,275.8828 630.2612,276.0322 Q630.9087,276.1816 631.4731,276.4805 L631.4731,279.2031 Q630.8423,278.6221 630.2488,278.3523 Q629.6553,278.0825 629.0244,278.0825 Q627.6797,278.0825 626.9949,279.1492 Q626.3101,280.2158 626.3101,282.3159 Q626.3101,284.4077 626.9949,285.4744 Q627.6797,286.541 629.0244,286.541 Q629.6553,286.541 630.2488,286.2712 Q630.8423,286.0015 631.4731,285.4204 Z " fill="#000000"/><text fill="#000000" font-family="sans-serif" font-size="14" lengthAdjust="spacing" textLength="70" x="643" y="287.291">ClickEvent</text></g><!--class ErrorCommittedEvent--><g id="elem_ErrorCommittedEvent"><rect codeLine="29" fill="#E6E6E6" height="32" id="ErrorCommittedEvent" rx="2.5" ry="2.5" style="stroke:#181818;stroke-width:0.5;" width="180" x="575" y="194"/><ellipse cx="590" cy="210" fill="#ADD1B2" rx="11" ry="11" style="stroke:#181818;stroke-width:1.0;"/><path d="M592.4731,216.1431 Q591.8921,216.4419 591.2529,216.5913 Q590.6138,216.7407 589.9082,216.7407 Q587.4014,216.7407 586.0815,215.0889 Q584.7617,213.437 584.7617,210.3159 Q584.7617,207.1865 586.0815,205.5347 Q587.4014,203.8828 589.9082,203.8828 Q590.6138,203.8828 591.2612,204.0322 Q591.9087,204.1816 592.4731,204.4805 L592.4731,207.2031 Q591.8423,206.6221 591.2488,206.3523 Q590.6553,206.0825 590.0244,206.0825 Q588.6797,206.0825 587.9949,207.1492 Q587.3101,208.2158 587.3101,210.3159 Q587.3101,212.4077 587.9949,213.4744 Q588.6797,214.541 590.0244,214.541 Q590.6553,214.541 591.2488,214.2712 Q591.8423,214.0015 592.4731,213.4204 Z " fill="#000000"/><text fill="#000000" font-family="sans-serif" font-size="14" lengthAdjust="spacing" textLength="148" x="604" y="215.291">ErrorCommittedEvent</text></g><!--class ScreenVisitedEvent--><g id="elem_ScreenVisitedEvent"><rect codeLine="30" fill="#E6E6E6" height="32" id="ScreenVisitedEvent" rx="2.5" ry="2.5" style="stroke:#181818;stroke-width:0.5;" width="161" x="584.5" y="122"/><ellipse cx="599.5" cy="138" fill="#ADD1B2" rx="11" ry="11" style="stroke:#181818;stroke-width:1.0;"/><path d="M601.9731,144.1431 Q601.3921,144.4419 600.7529,144.5913 Q600.1138,144.7407 599.4082,144.7407 Q596.9014,144.7407 595.5815,143.0889 Q594.2617,141.437 594.2617,138.3159 Q594.2617,135.1865 595.5815,133.5347 Q596.9014,131.8828 599.4082,131.8828 Q600.1138,131.8828 600.7612,132.0322 Q601.4087,132.1816 601.9731,132.4805 L601.9731,135.2031 Q601.3423,134.6221 600.7488,134.3523 Q600.1553,134.0825 599.5244,134.0825 Q598.1797,134.0825 597.4949,135.1492 Q596.8101,136.2158 596.8101,138.3159 Q596.8101,140.4077 597.4949,141.4744 Q598.1797,142.541 599.5244,142.541 Q600.1553,142.541 600.7488,142.2712 Q601.3423,142.0015 601.9731,141.4204 Z " fill="#000000"/><text fill="#000000" font-family="sans-serif" font-size="14" lengthAdjust="spacing" textLength="129" x="613.5" y="143.291">ScreenVisitedEvent</text></g><!--class HourPassedEvent--><g id="elem_HourPassedEvent"><rect codeLine="32" fill="#E6E6E6" height="32" id="HourPassedEvent" rx="2.5" ry="2.5" style="stroke:#181818;stroke-width:0.5;" width="150" x="590" y="50"/><ellipse cx="605" cy="66" fill="#ADD1B2" rx="11" ry="11" style="stroke:#181818;stroke-width:1.0;"/><path d="M607.4731,72.1431 Q606.8921,72.4419 606.2529,72.5913 Q605.6138,72.7407 604.9082,72.7407 Q602.4014,72.7407 601.0815,71.0889 Q599.7617,69.437 599.7617,66.3159 Q599.7617,63.1865 601.0815,61.5347 Q602.4014,59.8828 604.9082,59.8828 Q605.6138,59.8828 606.2612,60.0322 Q606.9087,60.1816 607.4731,60.4805 L607.4731,63.2031 Q606.8423,62.6221 606.2488,62.3523 Q605.6553,62.0825 605.0244,62.0825 Q603.6797,62.0825 602.9949,63.1492 Q602.3101,64.2158 602.3101,66.3159 Q602.3101,68.4077 602.9949,69.4744 Q603.6797,70.541 605.0244,70.541 Q605.6553,70.541 606.2488,70.2712 Q606.8423,70.0015 607.4731,69.4204 Z " fill="#000000"/><text fill="#000000" font-family="sans-serif" font-size="14" lengthAdjust="spacing" textLength="118" x="619" y="71.291">HourPassedEvent</text></g><!--class TaskStartedEvent--><g id="elem_TaskStartedEvent"><rect codeLine="34" fill="#E6E6E6" height="32" id="TaskStartedEvent" rx="2.5" ry="2.5" style="stroke:#181818;stroke-width:0.5;" width="150" x="590" y="554"/><ellipse cx="605" cy="570" fill="#ADD1B2" rx="11" ry="11" style="stroke:#181818;stroke-width:1.0;"/><path d="M607.4731,576.1431 Q606.8921,576.4419 606.2529,576.5913 Q605.6138,576.7407 604.9082,576.7407 Q602.4014,576.7407 601.0815,575.0889 Q599.7617,573.437 599.7617,570.3159 Q599.7617,567.1865 601.0815,565.5347 Q602.4014,563.8828 604.9082,563.8828 Q605.6138,563.8828 606.2612,564.0322 Q606.9087,564.1816 607.4731,564.4805 L607.4731,567.2031 Q606.8423,566.6221 606.2488,566.3523 Q605.6553,566.0825 605.0244,566.0825 Q603.6797,566.0825 602.9949,567.1492 Q602.3101,568.2158 602.3101,570.3159 Q602.3101,572.4077 602.9949,573.4744 Q603.6797,574.541 605.0244,574.541 Q605.6553,574.541 606.2488,574.2712 Q606.8423,574.0015 607.4731,573.4204 Z " fill="#000000"/><text fill="#000000" font-family="sans-serif" font-size="14" lengthAdjust="spacing" textLength="118" x="619" y="575.291">TaskStartedEvent</text></g><!--class TaskFinishedEvent--><g id="elem_TaskFinishedEvent"><rect codeLine="35" fill="#E6E6E6" height="32" id="TaskFinishedEvent" rx="2.5" ry="2.5" style="stroke:#181818;stroke-width:0.5;" width="159" x="585.5" y="482"/><ellipse cx="600.5" cy="498" fill="#ADD1B2" rx="11" ry="11" style="stroke:#181818;stroke-width:1.0;"/><path d="M602.9731,504.1431 Q602.3921,504.4419 601.7529,504.5913 Q601.1138,504.7407 600.4082,504.7407 Q597.9014,504.7407 596.5815,503.0889 Q595.2617,501.437 595.2617,498.3159 Q595.2617,495.1865 596.5815,493.5347 Q597.9014,491.8828 600.4082,491.8828 Q601.1138,491.8828 601.7612,492.0322 Q602.4087,492.1816 602.9731,492.4805 L602.9731,495.2031 Q602.3423,494.6221 601.7488,494.3523 Q601.1553,494.0825 600.5244,494.0825 Q599.1797,494.0825 598.4949,495.1492 Q597.8101,496.2158 597.8101,498.3159 Q597.8101,500.4077 598.4949,501.4744 Q599.1797,502.541 600.5244,502.541 Q601.1553,502.541 601.7488,502.2712 Q602.3423,502.0015 602.9731,501.4204 Z " fill="#000000"/><text fill="#000000" font-family="sans-serif" font-size="14" lengthAdjust="spacing" textLength="127" x="614.5" y="503.291">TaskFinishedEvent</text></g><!--class MechanicDisplayedEvent--><g id="elem_MechanicDisplayedEvent"><rect codeLine="37" fill="#E6E6E6" height="32" id="MechanicDisplayedEvent" rx="2.5" ry="2.5" style="stroke:#181818;stroke-width:0.5;" width="199" x="565.5" y="410"/><ellipse cx="580.5" cy="426" fill="#ADD1B2" rx="11" ry="11" style="stroke:#181818;stroke-width:1.0;"/><path d="M582.9731,432.1431 Q582.3921,432.4419 581.7529,432.5913 Q581.1138,432.7407 580.4082,432.7407 Q577.9014,432.7407 576.5815,431.0889 Q575.2617,429.437 575.2617,426.3159 Q575.2617,423.1865 576.5815,421.5347 Q577.9014,419.8828 580.4082,419.8828 Q581.1138,419.8828 581.7612,420.0322 Q582.4087,420.1816 582.9731,420.4805 L582.9731,423.2031 Q582.3423,422.6221 581.7488,422.3523 Q581.1553,422.0825 580.5244,422.0825 Q579.1797,422.0825 578.4949,423.1492 Q577.8101,424.2158 577.8101,426.3159 Q577.8101,428.4077 578.4949,429.4744 Q579.1797,430.541 580.5244,430.541 Q581.1553,430.541 581.7488,430.2712 Q582.3423,430.0015 582.9731,429.4204 Z " fill="#000000"/><text fill="#000000" font-family="sans-serif" font-size="14" lengthAdjust="spacing" textLength="167" x="594.5" y="431.291">MechanicDisplayedEvent</text></g><!--class MechanicDismissedEvent--><g id="elem_MechanicDismissedEvent"><rect codeLine="38" fill="#E6E6E6" height="32" id="MechanicDismissedEvent" rx="2.5" ry="2.5" style="stroke:#181818;stroke-width:0.5;" width="202" x="564" y="338"/><ellipse cx="579" cy="354" fill="#ADD1B2" rx="11" ry="11" style="stroke:#181818;stroke-width:1.0;"/><path d="M581.4731,360.1431 Q580.8921,360.4419 580.2529,360.5913 Q579.6138,360.7407 578.9082,360.7407 Q576.4014,360.7407 575.0815,359.0889 Q573.7617,357.437 573.7617,354.3159 Q573.7617,351.1865 575.0815,349.5347 Q576.4014,347.8828 578.9082,347.8828 Q579.6138,347.8828 580.2612,348.0322 Q580.9087,348.1816 581.4731,348.4805 L581.4731,351.2031 Q580.8423,350.6221 580.2488,350.3523 Q579.6553,350.0825 579.0244,350.0825 Q577.6797,350.0825 576.9949,351.1492 Q576.3101,352.2158 576.3101,354.3159 Q576.3101,356.4077 576.9949,357.4744 Q577.6797,358.541 579.0244,358.541 Q579.6553,358.541 580.2488,358.2712 Q580.8423,358.0015 581.4731,357.4204 Z " fill="#000000"/><text fill="#000000" font-family="sans-serif" font-size="14" lengthAdjust="spacing" textLength="170" x="593" y="359.291">MechanicDismissedEvent</text></g><!--reverse link Event to UserEvent--><g id="link_Event_UserEvent"><path d="M212.0286,406.2789 C228.5286,409.5389 227.63,409.37 242.49,412.31 " fill="none" id="Event-backto-UserEvent" style="stroke:#181818;stroke-width:1.0;"/><polygon fill="none" points="194.37,402.79,210.8657,412.1651,213.1916,400.3927,194.37,402.79" style="stroke:#181818;stroke-width:1.0;"/></g><!--reverse link Event to SystemEvent--><g id="link_Event_SystemEvent"><path d="M212.0281,365.7184 C225.2781,363.0984 221.05,363.94 233.52,361.47 " fill="none" id="Event-backto-SystemEvent" style="stroke:#181818;stroke-width:1.0;"/><polygon fill="none" points="194.37,369.21,213.192,371.6044,210.8642,359.8323,194.37,369.21" style="stroke:#181818;stroke-width:1.0;"/></g><!--reverse link UserEvent to TaskEvent--><g id="link_UserEvent_TaskEvent"><path d="M360.85,422 C381.09,422 386.48,422 406.76,422 " fill="none" id="UserEvent-backto-TaskEvent" style="stroke:#181818;stroke-width:1.0;"/><polygon fill="none" points="342.85,422,360.85,428,360.85,416,342.85,422" style="stroke:#181818;stroke-width:1.0;"/></g><!--reverse link UserEvent to MechanicEvent--><g id="link_UserEvent_MechanicEvent"><path d="M346.9554,398.3875 C373.5354,386.6475 392.76,378.15 419.38,366.4 " fill="none" id="UserEvent-backto-MechanicEvent" style="stroke:#181818;stroke-width:1.0;"/><polygon fill="none" points="330.49,405.66,349.3796,403.8759,344.5312,392.899,330.49,405.66" style="stroke:#181818;stroke-width:1.0;"/></g><!--reverse link UserEvent to ClickEvent--><g id="link_UserEvent_ClickEvent"><path d="M334.8133,396.1329 C350.0233,386.6029 351,386 351,386 C351,386 391,314 391,314 C391,314 534.73,297.15 613.61,287.91 " fill="none" id="UserEvent-backto-ClickEvent" style="stroke:#181818;stroke-width:1.0;"/><polygon fill="none" points="319.56,405.69,337.999,401.2173,331.6276,391.0485,319.56,405.69" style="stroke:#181818;stroke-width:1.0;"/></g><!--reverse link UserEvent to ErrorCommittedEvent--><g id="link_UserEvent_ErrorCommittedEvent"><path d="M334.8133,396.1329 C350.0233,386.6029 351,386 351,386 C351,386 391,295 391,295 C391,295 531.65,251.21 611.04,226.49 " fill="none" id="UserEvent-backto-ErrorCommittedEvent" style="stroke:#181818;stroke-width:1.0;"/><polygon fill="none" points="319.56,405.69,337.999,401.2173,331.6276,391.0485,319.56,405.69" style="stroke:#181818;stroke-width:1.0;"/></g><!--reverse link UserEvent to ScreenVisitedEvent--><g id="link_UserEvent_ScreenVisitedEvent"><path d="M334.8133,396.1329 C350.0233,386.6029 351,386 351,386 C351,386 391,263 391,263 C391,263 556,174 556,174 C556,174 586.26,163.91 614.74,154.42 " fill="none" id="UserEvent-backto-ScreenVisitedEvent" style="stroke:#181818;stroke-width:1.0;"/><polygon fill="none" points="319.56,405.69,337.999,401.2173,331.6276,391.0485,319.56,405.69" style="stroke:#181818;stroke-width:1.0;"/></g><!--reverse link SystemEvent to HourPassedEvent--><g id="link_SystemEvent_HourPassedEvent"><path d="M315.7975,319.1268 C341.7275,283.2168 391,215 391,215 C391,215 556,102 556,102 C556,102 586.26,91.91 614.74,82.42 " fill="none" id="SystemEvent-backto-HourPassedEvent" style="stroke:#181818;stroke-width:1.0;"/><polygon fill="none" points="305.26,333.72,320.6619,322.6393,310.9331,315.6143,305.26,333.72" style="stroke:#181818;stroke-width:1.0;"/></g><!--reverse link TaskEvent to TaskStartedEvent--><g id="link_TaskEvent_TaskStartedEvent"><path d="M484.2886,451.6265 C511.2486,482.5965 556,534 556,534 C556,534 586.26,544.09 614.74,553.58 " fill="none" id="TaskEvent-backto-TaskStartedEvent" style="stroke:#181818;stroke-width:1.0;"/><polygon fill="none" points="472.47,438.05,479.7631,455.566,488.8141,447.6869,472.47,438.05" style="stroke:#181818;stroke-width:1.0;"/></g><!--reverse link TaskEvent to TaskFinishedEvent--><g id="link_TaskEvent_TaskFinishedEvent"><path d="M515.0918,445.2151 C542.0118,456.2651 556,462 556,462 C556,462 586.26,472.09 614.74,481.58 " fill="none" id="TaskEvent-backto-TaskFinishedEvent" style="stroke:#181818;stroke-width:1.0;"/><polygon fill="none" points="498.44,438.38,512.8134,450.7657,517.3701,439.6646,498.44,438.38" style="stroke:#181818;stroke-width:1.0;"/></g><!--reverse link MechanicEvent to MechanicDisplayedEvent--><g id="link_MechanicEvent_MechanicDisplayedEvent"><path d="M515.0918,373.2151 C542.0118,384.2651 556,390 556,390 C556,390 586.26,400.09 614.74,409.58 " fill="none" id="MechanicEvent-backto-MechanicDisplayedEvent" style="stroke:#181818;stroke-width:1.0;"/><polygon fill="none" points="498.44,366.38,512.8134,378.7657,517.3701,367.6646,498.44,366.38" style="stroke:#181818;stroke-width:1.0;"/></g><!--reverse link MechanicEvent to MechanicDismissedEvent--><g id="link_MechanicEvent_MechanicDismissedEvent"><path d="M542.3664,351.6382 C554.9264,351.8882 550.34,351.79 563.7,352.05 " fill="none" id="MechanicEvent-backto-MechanicDismissedEvent" style="stroke:#181818;stroke-width:1.0;"/><polygon fill="none" points="524.37,351.28,542.247,357.637,542.4858,345.6394,524.37,351.28" style="stroke:#181818;stroke-width:1.0;"/></g><!--SRC=[bL5BJyCm3BxtLnZjo0Kan84ZUuW3I8WExbdgjbRpg68FKKtxxwJTD7NTLctDfV7tScokoDKgA0k674fJ8zJUDEqbAIb3G5jB0nQbz1dtIqeaq6ejoCT4kyB0YS5SG3m4Aag1Z09g8UyIFkGvdo5Z3KyFlM9GhZefrafNgi1K6eFG6YbN64oIkmpps2VWBphXryY2IVxOdNm0Be9t0XFTVIVeUzVa19_R4z5admZp5lx2WbY2QlllPssI140RnRpZ7KLj8WPm3q8MMPIjNs2c19Vn6f5jAnLVnAbYs7DtJj-CeU-sQmt_15ssp-cnquO5xVNyfUBgClkGtLDye2wL8tsTwlAxfeRqZT7p47oOUcj91BFRjAaEYEw7cAwKzhHlVXq-uy-Oi3VuJZcOSIegZ0OV5Z4GBiWHbzSfpsnfHbmRrOpfZnPwtiBI-EE75d7hsty0]--></g></svg>